<svg width="1440" height="520" viewBox="0 0 1440 520" fill="none" xmlns="http://www.w3.org/2000/svg">
<g clip-path="url(#clip0_772_11162)">
<path opacity="0.12" d="M-435.705 542H-490V487.8M-435.705 542V487.8M-435.705 542H-381.409M-435.705 487.8H-490M-435.705 487.8V433.6M-435.705 487.8H-381.409M-490 487.8V433.6M-435.705 433.6H-490M-435.705 433.6V379.4M-435.705 433.6H-381.409M-490 433.6V379.4M-435.705 379.4H-490M-435.705 379.4V325.2M-435.705 379.4H-381.409M-490 379.4V325.2M-435.705 325.2H-490M-435.705 325.2V271M-435.705 325.2H-381.409M-490 325.2V271M-435.705 271H-490M-435.705 271V216.8M-435.705 271H-381.409M-490 271V216.8M-435.705 216.8H-490M-435.705 216.8V162.6M-435.705 216.8H-381.409M-490 216.8V162.6M-435.705 162.6H-490M-435.705 162.6V108.4M-435.705 162.6H-381.409M-490 162.6V108.4M-435.705 108.4H-490M-435.705 108.4V54.2M-435.705 108.4H-381.409M-490 108.4V54.2M-435.705 54.2H-490M-435.705 54.2V-2.38419e-07M-435.705 54.2H-381.409M-490 54.2V-2.38419e-07M-435.705 -2.38419e-07H-490M-435.705 -2.38419e-07V-54.2M-435.705 -2.38419e-07H-381.409M-490 -2.38419e-07V-54.2M-435.705 -54.2H-490M-435.705 -54.2V-108.4M-435.705 -54.2H-381.409M-490 -54.2V-108.4M-435.705 -108.4H-490M-435.705 -108.4V-162.6M-435.705 -108.4H-381.409M-490 -108.4V-162.6M-435.705 -162.6H-490M-435.705 -162.6V-216.8M-435.705 -162.6H-381.409M-490 -162.6V-216.8M-435.705 -216.8H-490M-435.705 -216.8V-271M-435.705 -216.8H-381.409M-490 -216.8V-271M-435.705 -271H-490M-435.705 -271V-325.2M-435.705 -271H-381.409M-490 -271V-325.2M-435.705 -325.2H-490M-435.705 -325.2V-379.4M-435.705 -325.2H-381.409M-490 -325.2V-379.4M-435.705 -379.4H-490M-435.705 -379.4V-433.6M-435.705 -379.4H-381.409M-490 -379.4V-433.6M-435.705 -433.6H-490M-435.705 -433.6V-487.8M-435.705 -433.6H-381.409M-490 -433.6V-487.8M-435.705 -487.8H-490M-435.705 -487.8V-542M-435.705 -487.8H-381.409M-490 -487.8V-542H-435.705M-435.705 -542H-381.409M-381.409 542V487.8M-381.409 542H-327.114M-381.409 487.8V433.6M-381.409 487.8H-327.114M-381.409 433.6V379.4M-381.409 433.6H-327.114M-381.409 379.4V325.2M-381.409 379.4H-327.114M-381.409 325.2V271M-381.409 325.2H-327.114M-381.409 271V216.8M-381.409 271H-327.114M-381.409 216.8V162.6M-381.409 216.8H-327.114M-381.409 162.6V108.4M-381.409 162.6H-327.114M-381.409 108.4V54.2M-381.409 108.4H-327.114M-381.409 54.2V-2.38419e-07M-381.409 54.2H-327.114M-381.409 -2.38419e-07V-54.2M-381.409 -2.38419e-07H-327.114M-381.409 -54.2V-108.4M-381.409 -54.2H-327.114M-381.409 -108.4V-162.6M-381.409 -108.4H-327.114M-381.409 -162.6V-216.8M-381.409 -162.6H-327.114M-381.409 -216.8V-271M-381.409 -216.8H-327.114M-381.409 -271V-325.2M-381.409 -271H-327.114M-381.409 -325.2V-379.4M-381.409 -325.2H-327.114M-381.409 -379.4V-433.6M-381.409 -379.4H-327.114M-381.409 -433.6V-487.8M-381.409 -433.6H-327.114M-381.409 -487.8V-542M-381.409 -487.8H-327.114M-381.409 -542H-327.114M-327.114 542V487.8M-327.114 542H-272.818M-327.114 487.8V433.6M-327.114 487.8H-272.818M-327.114 433.6V379.4M-327.114 433.6H-272.818M-327.114 379.4V325.2M-327.114 379.4H-272.818M-327.114 325.2V271M-327.114 325.2H-272.818M-327.114 271V216.8M-327.114 271H-272.818M-327.114 216.8V162.6M-327.114 216.8H-272.818M-327.114 162.6V108.4M-327.114 162.6H-272.818M-327.114 108.4V54.2M-327.114 108.4H-272.818M-327.114 54.2V-2.38419e-07M-327.114 54.2H-272.818M-327.114 -2.38419e-07V-54.2M-327.114 -2.38419e-07H-272.818M-327.114 -54.2V-108.4M-327.114 -54.2H-272.818M-327.114 -108.4V-162.6M-327.114 -108.4H-272.818M-327.114 -162.6V-216.8M-327.114 -162.6H-272.818M-327.114 -216.8V-271M-327.114 -216.8H-272.818M-327.114 -271V-325.2M-327.114 -271H-272.818M-327.114 -325.2V-379.4M-327.114 -325.2H-272.818M-327.114 -379.4V-433.6M-327.114 -379.4H-272.818M-327.114 -433.6V-487.8M-327.114 -433.6H-272.818M-327.114 -487.8V-542M-327.114 -487.8H-272.818M-327.114 -542H-272.818M-272.818 542V487.8M-272.818 542H-218.523M-272.818 487.8V433.6M-272.818 487.8H-218.523M-272.818 433.6V379.4M-272.818 433.6H-218.523M-272.818 379.4V325.2M-272.818 379.4H-218.523M-272.818 325.2V271M-272.818 325.2H-218.523M-272.818 271V216.8M-272.818 271H-218.523M-272.818 216.8V162.6M-272.818 216.8H-218.523M-272.818 162.6V108.4M-272.818 162.6H-218.523M-272.818 108.4V54.2M-272.818 108.4H-218.523M-272.818 54.2V-2.38419e-07M-272.818 54.2H-218.523M-272.818 -2.38419e-07V-54.2M-272.818 -2.38419e-07H-218.523M-272.818 -54.2V-108.4M-272.818 -54.2H-218.523M-272.818 -108.4V-162.6M-272.818 -108.4H-218.523M-272.818 -162.6V-216.8M-272.818 -162.6H-218.523M-272.818 -216.8V-271M-272.818 -216.8H-218.523M-272.818 -271V-325.2M-272.818 -271H-218.523M-272.818 -325.2V-379.4M-272.818 -325.2H-218.523M-272.818 -379.4V-433.6M-272.818 -379.4H-218.523M-272.818 -433.6V-487.8M-272.818 -433.6H-218.523M-272.818 -487.8V-542M-272.818 -487.8H-218.523M-272.818 -542H-218.523M-218.523 542V487.8M-218.523 542H-164.227M-218.523 487.8V433.6M-218.523 487.8H-164.227M-218.523 433.6V379.4M-218.523 433.6H-164.227M-218.523 379.4V325.2M-218.523 379.4H-164.227M-218.523 325.2V271M-218.523 325.2H-164.227M-218.523 271V216.8M-218.523 271H-164.227M-218.523 216.8V162.6M-218.523 216.8H-164.227M-218.523 162.6V108.4M-218.523 162.6H-164.227M-218.523 108.4V54.2M-218.523 108.4H-164.227M-218.523 54.2V-2.38419e-07M-218.523 54.2H-164.227M-218.523 -2.38419e-07V-54.2M-218.523 -2.38419e-07H-164.227M-218.523 -54.2V-108.4M-218.523 -54.2H-164.227M-218.523 -108.4V-162.6M-218.523 -108.4H-164.227M-218.523 -162.6V-216.8M-218.523 -162.6H-164.227M-218.523 -216.8V-271M-218.523 -216.8H-164.227M-218.523 -271V-325.2M-218.523 -271H-164.227M-218.523 -325.2V-379.4M-218.523 -325.2H-164.227M-218.523 -379.4V-433.6M-218.523 -379.4H-164.227M-218.523 -433.6V-487.8M-218.523 -433.6H-164.227M-218.523 -487.8V-542M-218.523 -487.8H-164.227M-218.523 -542H-164.227M-164.227 542V487.8M-164.227 542H-109.932M-164.227 487.8V433.6M-164.227 487.8H-109.932M-164.227 433.6V379.4M-164.227 433.6H-109.932M-164.227 379.4V325.2M-164.227 379.4H-109.932M-164.227 325.2V271M-164.227 325.2H-109.932M-164.227 271V216.8M-164.227 271H-109.932M-164.227 216.8V162.6M-164.227 216.8H-109.932M-164.227 162.6V108.4M-164.227 162.6H-109.932M-164.227 108.4V54.2M-164.227 108.4H-109.932M-164.227 54.2V-2.38419e-07M-164.227 54.2H-109.932M-164.227 -2.38419e-07V-54.2M-164.227 -2.38419e-07H-109.932M-164.227 -54.2V-108.4M-164.227 -54.2H-109.932M-164.227 -108.4V-162.6M-164.227 -108.4H-109.932M-164.227 -162.6V-216.8M-164.227 -162.6H-109.932M-164.227 -216.8V-271M-164.227 -216.8H-109.932M-164.227 -271V-325.2M-164.227 -271H-109.932M-164.227 -325.2V-379.4M-164.227 -325.2H-109.932M-164.227 -379.4V-433.6M-164.227 -379.4H-109.932M-164.227 -433.6V-487.8M-164.227 -433.6H-109.932M-164.227 -487.8V-542M-164.227 -487.8H-109.932M-164.227 -542H-109.932M-109.932 542V487.8M-109.932 542H-55.6363M-109.932 487.8V433.6M-109.932 487.8H-55.6363M-109.932 433.6V379.4M-109.932 433.6H-55.6363M-109.932 379.4V325.2M-109.932 379.4H-55.6363M-109.932 325.2V271M-109.932 325.2H-55.6363M-109.932 271V216.8M-109.932 271H-55.6363M-109.932 216.8V162.6M-109.932 216.8H-55.6363M-109.932 162.6H-55.6363M-109.932 162.6V108.4M-109.932 108.4V54.2M-109.932 108.4H-55.6363M-109.932 54.2V-2.38419e-07M-109.932 54.2H-55.6363M-109.932 -2.38419e-07V-54.2M-109.932 -2.38419e-07H-55.6363M-109.932 -54.2V-108.4M-109.932 -54.2H-55.6363M-109.932 -108.4V-162.6M-109.932 -108.4H-55.6363M-109.932 -162.6V-216.8M-109.932 -162.6H-55.6363M-109.932 -216.8V-271M-109.932 -216.8H-55.6363M-109.932 -271V-325.2M-109.932 -271H-55.6363M-109.932 -325.2V-379.4M-109.932 -325.2H-55.6363M-109.932 -379.4V-433.6M-109.932 -379.4H-55.6363M-109.932 -433.6V-487.8M-109.932 -433.6H-55.6363M-109.932 -487.8V-542M-109.932 -487.8H-55.6363M-109.932 -542H-55.6363M-55.6363 542V487.8M-55.6363 542H-1.3409M-55.6363 487.8V433.6M-55.6363 487.8H-1.3409M-55.6363 433.6V379.4M-55.6363 433.6H-1.3409M-55.6363 379.4V325.2M-55.6363 379.4H-1.3409M-55.6363 325.2V271M-55.6363 325.2H-1.3409M-55.6363 271V216.8M-55.6363 271H-1.3409M-55.6363 216.8V162.6M-55.6363 216.8H-1.3409M-55.6363 162.6V108.4M-55.6363 162.6H-1.3409M-55.6363 108.4V54.2M-55.6363 108.4H-1.3409M-55.6363 54.2V-2.38419e-07M-55.6363 54.2H-1.3409M-55.6363 -2.38419e-07V-54.2M-55.6363 -2.38419e-07H-1.3409M-55.6363 -54.2V-108.4M-55.6363 -54.2H-1.3409M-55.6363 -108.4V-162.6M-55.6363 -108.4H-1.3409M-55.6363 -162.6V-216.8M-55.6363 -162.6H-1.3409M-55.6363 -216.8V-271M-55.6363 -216.8H-1.3409M-55.6363 -271V-325.2M-55.6363 -271H-1.3409M-55.6363 -325.2V-379.4M-55.6363 -325.2H-1.3409M-55.6363 -379.4V-433.6M-55.6363 -379.4H-1.3409M-55.6363 -433.6V-487.8M-55.6363 -433.6H-1.3409M-55.6363 -487.8V-542M-55.6363 -487.8H-1.3409M-55.6363 -542H-1.3409M-1.3409 542V487.8M-1.3409 542H52.9545M-1.3409 487.8V433.6M-1.3409 487.8H52.9545M-1.3409 433.6V379.4M-1.3409 433.6H52.9545M-1.3409 379.4V325.2M-1.3409 379.4H52.9545M-1.3409 325.2V271M-1.3409 325.2H52.9545M-1.3409 271V216.8M-1.3409 271H52.9545M-1.3409 216.8V162.6M-1.3409 216.8H52.9545M-1.3409 162.6V108.4M-1.3409 162.6H52.9545M-1.3409 108.4V54.2M-1.3409 108.4H52.9545M-1.3409 54.2V-2.38419e-07M-1.3409 54.2H52.9545M-1.3409 -2.38419e-07V-54.2M-1.3409 -2.38419e-07H52.9545M-1.3409 -54.2V-108.4M-1.3409 -54.2H52.9545M-1.3409 -108.4V-162.6M-1.3409 -108.4H52.9545M-1.3409 -162.6V-216.8M-1.3409 -162.6H52.9545M-1.3409 -216.8V-271M-1.3409 -216.8H52.9545M-1.3409 -271V-325.2M-1.3409 -271H52.9545M-1.3409 -325.2V-379.4M-1.3409 -325.2H52.9545M-1.3409 -379.4V-433.6M-1.3409 -379.4H52.9545M-1.3409 -433.6V-487.8M-1.3409 -433.6H52.9545M-1.3409 -487.8V-542M-1.3409 -487.8H52.9545M-1.3409 -542H52.9545M52.9545 542V487.8M52.9545 542H107.25M52.9545 487.8V433.6M52.9545 487.8H107.25M52.9545 433.6V379.4M52.9545 433.6H107.25M52.9545 379.4V325.2M52.9545 379.4H107.25M52.9545 325.2V271M52.9545 325.2H107.25M52.9545 271V216.8M52.9545 271H107.25M52.9545 216.8V162.6M52.9545 216.8H107.25M52.9545 162.6V108.4M52.9545 162.6H107.25M52.9545 108.4V54.2M52.9545 108.4H107.25M52.9545 54.2V-2.38419e-07M52.9545 54.2H107.25M52.9545 -2.38419e-07V-54.2M52.9545 -2.38419e-07H107.25M52.9545 -54.2V-108.4M52.9545 -54.2H107.25M52.9545 -108.4V-162.6M52.9545 -108.4H107.25M52.9545 -162.6V-216.8M52.9545 -162.6H107.25M52.9545 -216.8V-271M52.9545 -216.8H107.25M52.9545 -271V-325.2M52.9545 -271H107.25M52.9545 -325.2V-379.4M52.9545 -325.2H107.25M52.9545 -379.4V-433.6M52.9545 -379.4H107.25M52.9545 -433.6V-487.8M52.9545 -433.6H107.25M52.9545 -487.8V-542M52.9545 -487.8H107.25M52.9545 -542H107.25M107.25 542V487.8M107.25 542H161.545M107.25 487.8V433.6M107.25 487.8H161.545M107.25 433.6V379.4M107.25 433.6H161.545M107.25 379.4V325.2M107.25 379.4H161.545M107.25 325.2V271M107.25 325.2H161.545M107.25 271V216.8M107.25 271H161.545M107.25 216.8V162.6M107.25 216.8H161.545M107.25 162.6V108.4M107.25 162.6H161.545M107.25 108.4V54.2M107.25 108.4H161.545M107.25 54.2V-2.38419e-07M107.25 54.2H161.545M107.25 -2.38419e-07V-54.2M107.25 -2.38419e-07H161.545M107.25 -54.2V-108.4M107.25 -54.2H161.545M107.25 -108.4V-162.6M107.25 -108.4H161.545M107.25 -162.6V-216.8M107.25 -162.6H161.545M107.25 -216.8V-271M107.25 -216.8H161.545M107.25 -271V-325.2M107.25 -271H161.545M107.25 -325.2V-379.4M107.25 -325.2H161.545M107.25 -379.4V-433.6M107.25 -379.4H161.545M107.25 -433.6V-487.8M107.25 -433.6H161.545M107.25 -487.8V-542M107.25 -487.8H161.545M107.25 -542H161.545M161.545 542V487.8M161.545 542H215.841M161.545 487.8V433.6M161.545 487.8H215.841M161.545 433.6V379.4M161.545 433.6H215.841M161.545 379.4V325.2M161.545 379.4H215.841M161.545 325.2V271M161.545 325.2H215.841M161.545 271V216.8M161.545 271H215.841M161.545 216.8V162.6M161.545 216.8H215.841M161.545 162.6V108.4M161.545 162.6H215.841M161.545 108.4V54.2M161.545 108.4H215.841M161.545 54.2V-2.38419e-07M161.545 54.2H215.841M161.545 -2.38419e-07V-54.2M161.545 -2.38419e-07H215.841M161.545 -54.2V-108.4M161.545 -54.2H215.841M161.545 -108.4V-162.6M161.545 -108.4H215.841M161.545 -162.6V-216.8M161.545 -162.6H215.841M161.545 -216.8V-271M161.545 -216.8H215.841M161.545 -271V-325.2M161.545 -271H215.841M161.545 -325.2V-379.4M161.545 -325.2H215.841M161.545 -379.4V-433.6M161.545 -379.4H215.841M161.545 -433.6V-487.8M161.545 -433.6H215.841M161.545 -487.8V-542M161.545 -487.8H215.841M161.545 -542H215.841M215.841 542V487.8M215.841 542H270.136M215.841 487.8V433.6M215.841 487.8H270.136M215.841 433.6V379.4M215.841 433.6H270.136M215.841 379.4V325.2M215.841 379.4H270.136M215.841 325.2V271M215.841 325.2H1193.16M215.841 271V216.8M215.841 271H1193.16M215.841 216.8V162.6M215.841 216.8H270.136M215.841 162.6V108.4M215.841 162.6H270.136M215.841 108.4V54.2M215.841 108.4H270.136M215.841 54.2V-2.38419e-07M215.841 54.2H270.136M215.841 -2.38419e-07V-54.2M215.841 -2.38419e-07H270.136M215.841 -54.2V-108.4M215.841 -54.2H270.136M215.841 -108.4V-162.6M215.841 -108.4H270.136M215.841 -162.6V-216.8M215.841 -162.6H270.136M215.841 -216.8V-271M215.841 -216.8H270.136M215.841 -271V-325.2M215.841 -271H270.136M215.841 -325.2V-379.4M215.841 -325.2H270.136M215.841 -379.4V-433.6M215.841 -379.4H270.136M215.841 -433.6V-487.8M215.841 -433.6H270.136M215.841 -487.8V-542M215.841 -487.8H270.136M215.841 -542H270.136M270.136 542V487.8M270.136 542H324.432M270.136 487.8V433.6M270.136 487.8H324.432M270.136 433.6V379.4M270.136 433.6H324.432M270.136 379.4H324.432M270.136 379.4V216.8M270.136 216.8V162.6M270.136 216.8H1138.86M270.136 162.6V108.4M270.136 162.6H1138.86M270.136 108.4V54.2M270.136 108.4H324.432M270.136 54.2V-2.38419e-07M270.136 54.2H324.432M270.136 -2.38419e-07V-54.2M270.136 -2.38419e-07H324.432M270.136 -54.2V-108.4M270.136 -54.2H324.432M270.136 -108.4V-162.6M270.136 -108.4H324.432M270.136 -162.6V-216.8M270.136 -162.6H324.432M270.136 -216.8V-271M270.136 -216.8H324.432M270.136 -271V-325.2M270.136 -271H324.432M270.136 -325.2V-379.4M270.136 -325.2H324.432M270.136 -379.4V-433.6M270.136 -379.4H324.432M270.136 -433.6V-487.8M270.136 -433.6H324.432M270.136 -487.8V-542M270.136 -487.8H324.432M270.136 -542H324.432M324.432 542V487.8M324.432 542H378.727M324.432 487.8V433.6M324.432 487.8H378.727M324.432 433.6V379.4M324.432 433.6H378.727M324.432 379.4H378.727M324.432 379.4V108.4M324.432 108.4V54.2M324.432 108.4H378.727M324.432 54.2V-2.38419e-07M324.432 54.2H378.727M324.432 -2.38419e-07V-54.2M324.432 -2.38419e-07H378.727M324.432 -54.2V-108.4M324.432 -54.2H378.727M324.432 -108.4V-162.6M324.432 -108.4H378.727M324.432 -162.6V-216.8M324.432 -162.6H378.727M324.432 -216.8V-271M324.432 -216.8H378.727M324.432 -271V-325.2M324.432 -271H378.727M324.432 -325.2V-379.4M324.432 -325.2H378.727M324.432 -379.4V-433.6M324.432 -379.4H378.727M324.432 -433.6V-487.8M324.432 -433.6H378.727M324.432 -487.8V-542M324.432 -487.8H378.727M324.432 -542H378.727M378.727 542V487.8M378.727 542H433.023M378.727 487.8V433.6M378.727 487.8H433.023M378.727 433.6V379.4M378.727 433.6H433.023M378.727 379.4H433.023M378.727 379.4V108.4M378.727 108.4V54.2M378.727 108.4H433.023M378.727 54.2V-2.38419e-07M378.727 54.2H433.023M378.727 -2.38419e-07V-54.2M378.727 -2.38419e-07H433.023M378.727 -54.2V-108.4M378.727 -54.2H433.023M378.727 -108.4V-162.6M378.727 -108.4H433.023M378.727 -162.6V-216.8M378.727 -162.6H433.023M378.727 -216.8V-271M378.727 -216.8H433.023M378.727 -271V-325.2M378.727 -271H433.023M378.727 -325.2V-379.4M378.727 -325.2H433.023M378.727 -379.4V-433.6M378.727 -379.4H433.023M378.727 -433.6V-487.8M378.727 -433.6H433.023M378.727 -487.8V-542M378.727 -487.8H433.023M378.727 -542H433.023M433.023 542V487.8M433.023 542H487.318M433.023 487.8V433.6M433.023 487.8H487.318M433.023 433.6V379.4M433.023 433.6H487.318M433.023 379.4H487.318M433.023 379.4V108.4M433.023 108.4V54.2M433.023 108.4H487.318M433.023 54.2V-2.38419e-07M433.023 54.2H487.318M433.023 -2.38419e-07V-54.2M433.023 -2.38419e-07H487.318M433.023 -54.2V-108.4M433.023 -54.2H487.318M433.023 -108.4V-162.6M433.023 -108.4H487.318M433.023 -162.6V-216.8M433.023 -162.6H487.318M433.023 -216.8V-271M433.023 -216.8H487.318M433.023 -271V-325.2M433.023 -271H487.318M433.023 -325.2V-379.4M433.023 -325.2H487.318M433.023 -379.4V-433.6M433.023 -379.4H487.318M433.023 -433.6V-487.8M433.023 -433.6H487.318M433.023 -487.8V-542M433.023 -487.8H487.318M433.023 -542H487.318M487.318 542V487.8M487.318 542H541.614M487.318 487.8V433.6M487.318 487.8H541.614M487.318 433.6V379.4M487.318 433.6H541.614M487.318 379.4H541.614M487.318 379.4V108.4M487.318 108.4V54.2M487.318 108.4H541.614M487.318 54.2V-2.38419e-07M487.318 54.2H541.614M487.318 -2.38419e-07V-54.2M487.318 -2.38419e-07H541.614M487.318 -54.2V-108.4M487.318 -54.2H541.614M487.318 -108.4V-162.6M487.318 -108.4H541.614M487.318 -162.6V-216.8M487.318 -162.6H541.614M487.318 -216.8V-271M487.318 -216.8H541.614M487.318 -271V-325.2M487.318 -271H541.614M487.318 -325.2V-379.4M487.318 -325.2H541.614M487.318 -379.4V-433.6M487.318 -379.4H541.614M487.318 -433.6V-487.8M487.318 -433.6H541.614M487.318 -487.8V-542M487.318 -487.8H541.614M487.318 -542H541.614M541.614 542V487.8M541.614 542H595.909M541.614 487.8V433.6M541.614 487.8H595.909M541.614 433.6V379.4M541.614 433.6H595.909M541.614 379.4H595.909M541.614 379.4V108.4M541.614 108.4V54.2M541.614 108.4H595.909M541.614 54.2V-2.38419e-07M541.614 54.2H595.909M541.614 -2.38419e-07V-54.2M541.614 -2.38419e-07H595.909M541.614 -54.2V-108.4M541.614 -54.2H595.909M541.614 -108.4V-162.6M541.614 -108.4H595.909M541.614 -162.6V-216.8M541.614 -162.6H595.909M541.614 -216.8V-271M541.614 -216.8H595.909M541.614 -271V-325.2M541.614 -271H595.909M541.614 -325.2V-379.4M541.614 -325.2H595.909M541.614 -379.4V-433.6M541.614 -379.4H595.909M541.614 -433.6V-487.8M541.614 -433.6H595.909M541.614 -487.8V-542M541.614 -487.8H595.909M541.614 -542H595.909M595.909 542V487.8M595.909 542H650.205M595.909 487.8V433.6M595.909 487.8H650.205M595.909 433.6V379.4M595.909 433.6H650.205M595.909 379.4H650.205M595.909 379.4V108.4M595.909 108.4V54.2M595.909 108.4H650.205M595.909 54.2V-2.38419e-07M595.909 54.2H650.205M595.909 -2.38419e-07V-54.2M595.909 -2.38419e-07H650.205M595.909 -54.2V-108.4M595.909 -54.2H650.205M595.909 -108.4V-162.6M595.909 -108.4H650.205M595.909 -162.6V-216.8M595.909 -162.6H650.205M595.909 -216.8V-271M595.909 -216.8H650.205M595.909 -271V-325.2M595.909 -271H650.205M595.909 -325.2V-379.4M595.909 -325.2H650.205M595.909 -379.4V-433.6M595.909 -379.4H650.205M595.909 -433.6V-487.8M595.909 -433.6H650.205M595.909 -487.8V-542M595.909 -487.8H650.205M595.909 -542H650.205M650.205 542V487.8M650.205 542H704.5M650.205 487.8H704.5M650.205 487.8V433.6M650.205 433.6V379.4M650.205 433.6H704.5M650.205 379.4H704.5M650.205 379.4V108.4M650.205 108.4V54.2M650.205 108.4H704.5M650.205 54.2V-2.38419e-07M650.205 54.2H704.5M650.205 -2.38419e-07V-54.2M650.205 -2.38419e-07H704.5M650.205 -54.2V-108.4M650.205 -54.2H704.5M650.205 -108.4V-162.6M650.205 -108.4H704.5M650.205 -162.6V-216.8M650.205 -162.6H704.5M650.205 -216.8V-271M650.205 -216.8H704.5M650.205 -271V-325.2M650.205 -271H704.5M650.205 -325.2V-379.4M650.205 -325.2H704.5M650.205 -379.4V-433.6M650.205 -379.4H704.5M650.205 -433.6V-487.8M650.205 -433.6H704.5M650.205 -487.8V-542M650.205 -487.8H704.5M650.205 -542H704.5M704.5 542V487.8M704.5 542H758.795M704.5 487.8H758.795M704.5 487.8V433.6M704.5 433.6V379.4M704.5 433.6H758.795M704.5 379.4H758.795M704.5 379.4V108.4M704.5 108.4V54.2M704.5 108.4H758.795M704.5 54.2V-2.38419e-07M704.5 54.2H758.795M704.5 -2.38419e-07V-54.2M704.5 -2.38419e-07H758.795M704.5 -54.2V-108.4M704.5 -54.2H758.795M704.5 -108.4V-162.6M704.5 -108.4H758.795M704.5 -162.6V-216.8M704.5 -162.6H758.795M704.5 -216.8V-271M704.5 -216.8H758.795M704.5 -271V-325.2M704.5 -271H758.795M704.5 -325.2V-379.4M704.5 -325.2H758.795M704.5 -379.4V-433.6M704.5 -379.4H758.795M704.5 -433.6V-487.8M704.5 -433.6H758.795M704.5 -487.8V-542M704.5 -487.8H758.795M704.5 -542H758.795M758.795 542V487.8M758.795 542H813.091M758.795 487.8H813.091M758.795 487.8V433.6M758.795 433.6V379.4M758.795 433.6H813.091M758.795 379.4H813.091M758.795 379.4V108.4M758.795 108.4V54.2M758.795 108.4H813.091M758.795 54.2V-2.38419e-07M758.795 54.2H813.091M758.795 -2.38419e-07V-54.2M758.795 -2.38419e-07H813.091M758.795 -54.2V-108.4M758.795 -54.2H813.091M758.795 -108.4V-162.6M758.795 -108.4H813.091M758.795 -162.6V-216.8M758.795 -162.6H813.091M758.795 -216.8V-271M758.795 -216.8H813.091M758.795 -271V-325.2M758.795 -271H813.091M758.795 -325.2V-379.4M758.795 -325.2H813.091M758.795 -379.4V-433.6M758.795 -379.4H813.091M758.795 -433.6V-487.8M758.795 -433.6H813.091M758.795 -487.8V-542M758.795 -487.8H813.091M758.795 -542H813.091M813.091 542V487.8M813.091 542H867.386M813.091 487.8H867.386M813.091 487.8V433.6M813.091 433.6V379.4M813.091 433.6H867.386M813.091 379.4H867.386M813.091 379.4V108.4M813.091 108.4V54.2M813.091 108.4H867.386M813.091 54.2V-2.38419e-07M813.091 54.2H867.386M813.091 -2.38419e-07V-54.2M813.091 -2.38419e-07H867.386M813.091 -54.2V-108.4M813.091 -54.2H867.386M813.091 -108.4V-162.6M813.091 -108.4H867.386M813.091 -162.6V-216.8M813.091 -162.6H867.386M813.091 -216.8V-271M813.091 -216.8H867.386M813.091 -271V-325.2M813.091 -271H867.386M813.091 -325.2V-379.4M813.091 -325.2H867.386M813.091 -379.4V-433.6M813.091 -379.4H867.386M813.091 -433.6V-487.8M813.091 -433.6H867.386M813.091 -487.8V-542M813.091 -487.8H867.386M813.091 -542H867.386M867.386 542V487.8M867.386 542H921.682M867.386 487.8V433.6M867.386 487.8H921.682M867.386 433.6V379.4M867.386 433.6H921.682M867.386 379.4H921.682M867.386 379.4V108.4M867.386 108.4V54.2M867.386 108.4H921.682M867.386 54.2V-2.38419e-07M867.386 54.2H921.682M867.386 -2.38419e-07V-54.2M867.386 -2.38419e-07H921.682M867.386 -54.2V-108.4M867.386 -54.2H921.682M867.386 -108.4V-162.6M867.386 -108.4H921.682M867.386 -162.6V-216.8M867.386 -162.6H921.682M867.386 -216.8V-271M867.386 -216.8H921.682M867.386 -271V-325.2M867.386 -271H921.682M867.386 -325.2V-379.4M867.386 -325.2H921.682M867.386 -379.4V-433.6M867.386 -379.4H921.682M867.386 -433.6V-487.8M867.386 -433.6H921.682M867.386 -487.8V-542M867.386 -487.8H921.682M867.386 -542H921.682M921.682 542V487.8M921.682 542H975.977M921.682 487.8V433.6M921.682 487.8H975.977M921.682 433.6V379.4M921.682 433.6H975.977M921.682 379.4H975.977M921.682 379.4V108.4M921.682 108.4V54.2M921.682 108.4H975.977M921.682 54.2V-2.38419e-07M921.682 54.2H975.977M921.682 -2.38419e-07V-54.2M921.682 -2.38419e-07H975.977M921.682 -54.2V-108.4M921.682 -54.2H975.977M921.682 -108.4V-162.6M921.682 -108.4H975.977M921.682 -162.6V-216.8M921.682 -162.6H975.977M921.682 -216.8V-271M921.682 -216.8H975.977M921.682 -271V-325.2M921.682 -271H975.977M921.682 -325.2V-379.4M921.682 -325.2H975.977M921.682 -379.4V-433.6M921.682 -379.4H975.977M921.682 -433.6V-487.8M921.682 -433.6H975.977M921.682 -487.8V-542M921.682 -487.8H975.977M921.682 -542H975.977M975.977 542V487.8M975.977 542H1030.27M975.977 487.8V433.6M975.977 487.8H1030.27M975.977 433.6V379.4M975.977 433.6H1030.27M975.977 379.4H1030.27M975.977 379.4V108.4M975.977 108.4V54.2M975.977 108.4H1030.27M975.977 54.2V-2.38419e-07M975.977 54.2H1030.27M975.977 -2.38419e-07V-54.2M975.977 -2.38419e-07H1030.27M975.977 -54.2V-108.4M975.977 -54.2H1030.27M975.977 -108.4V-162.6M975.977 -108.4H1030.27M975.977 -162.6V-216.8M975.977 -162.6H1030.27M975.977 -216.8V-271M975.977 -216.8H1030.27M975.977 -271V-325.2M975.977 -271H1030.27M975.977 -325.2V-379.4M975.977 -325.2H1030.27M975.977 -379.4V-433.6M975.977 -379.4H1030.27M975.977 -433.6V-487.8M975.977 -433.6H1030.27M975.977 -487.8V-542M975.977 -487.8H1030.27M975.977 -542H1030.27M1030.27 542V487.8M1030.27 542H1084.57M1030.27 487.8V433.6M1030.27 487.8H1084.57M1030.27 433.6V379.4M1030.27 433.6H1084.57M1030.27 379.4H1084.57M1030.27 379.4V108.4M1030.27 108.4V54.2M1030.27 108.4H1084.57M1030.27 54.2V-2.38419e-07M1030.27 54.2H1084.57M1030.27 -2.38419e-07V-54.2M1030.27 -2.38419e-07H1084.57M1030.27 -54.2V-108.4M1030.27 -54.2H1084.57M1030.27 -108.4V-162.6M1030.27 -108.4H1084.57M1030.27 -162.6V-216.8M1030.27 -162.6H1084.57M1030.27 -216.8V-271M1030.27 -216.8H1084.57M1030.27 -271V-325.2M1030.27 -271H1084.57M1030.27 -325.2V-379.4M1030.27 -325.2H1084.57M1030.27 -379.4V-433.6M1030.27 -379.4H1084.57M1030.27 -433.6V-487.8M1030.27 -433.6H1084.57M1030.27 -487.8V-542M1030.27 -487.8H1084.57M1030.27 -542H1084.57M1084.57 542V487.8M1084.57 542H1138.86M1084.57 487.8V433.6M1084.57 487.8H1138.86M1084.57 433.6V379.4M1084.57 433.6H1138.86M1084.57 379.4H1138.86M1084.57 379.4V108.4M1084.57 108.4V54.2M1084.57 108.4H1138.86M1084.57 54.2V-2.38419e-07M1084.57 54.2H1138.86M1084.57 -2.38419e-07V-54.2M1084.57 -2.38419e-07H1138.86M1084.57 -54.2V-108.4M1084.57 -54.2H1138.86M1084.57 -108.4V-162.6M1084.57 -108.4H1138.86M1084.57 -162.6V-216.8M1084.57 -162.6H1138.86M1084.57 -216.8V-271M1084.57 -216.8H1138.86M1084.57 -271V-325.2M1084.57 -271H1138.86M1084.57 -325.2V-379.4M1084.57 -325.2H1138.86M1084.57 -379.4V-433.6M1084.57 -379.4H1138.86M1084.57 -433.6V-487.8M1084.57 -433.6H1138.86M1084.57 -487.8V-542M1084.57 -487.8H1138.86M1084.57 -542H1138.86M1138.86 542V487.8M1138.86 542H1193.16M1138.86 487.8V433.6M1138.86 487.8H1193.16M1138.86 433.6V379.4M1138.86 433.6H1193.16M1138.86 379.4H1193.16M1138.86 379.4V216.8M1138.86 216.8V162.6M1138.86 216.8H1193.16M1138.86 162.6V108.4M1138.86 162.6H1193.16M1138.86 108.4V54.2M1138.86 108.4H1193.16M1138.86 54.2V-2.38419e-07M1138.86 54.2H1193.16M1138.86 -2.38419e-07V-54.2M1138.86 -2.38419e-07H1193.16M1138.86 -54.2V-108.4M1138.86 -54.2H1193.16M1138.86 -108.4V-162.6M1138.86 -108.4H1193.16M1138.86 -162.6V-216.8M1138.86 -162.6H1193.16M1138.86 -216.8V-271M1138.86 -216.8H1193.16M1138.86 -271V-325.2M1138.86 -271H1193.16M1138.86 -325.2V-379.4M1138.86 -325.2H1193.16M1138.86 -379.4V-433.6M1138.86 -379.4H1193.16M1138.86 -433.6V-487.8M1138.86 -433.6H1193.16M1138.86 -487.8V-542M1138.86 -487.8H1193.16M1138.86 -542H1193.16M1193.16 542V487.8M1193.16 542H1247.45M1193.16 487.8V433.6M1193.16 487.8H1247.45M1193.16 433.6V379.4M1193.16 433.6H1247.45M1193.16 379.4V325.2M1193.16 379.4H1247.45M1193.16 325.2V271M1193.16 325.2H1247.45M1193.16 271V216.8M1193.16 271H1247.45M1193.16 216.8V162.6M1193.16 216.8H1247.45M1193.16 162.6V108.4M1193.16 162.6H1247.45M1193.16 108.4V54.2M1193.16 108.4H1247.45M1193.16 54.2V-2.38419e-07M1193.16 54.2H1247.45M1193.16 -2.38419e-07V-54.2M1193.16 -2.38419e-07H1247.45M1193.16 -54.2V-108.4M1193.16 -54.2H1247.45M1193.16 -108.4V-162.6M1193.16 -108.4H1247.45M1193.16 -162.6V-216.8M1193.16 -162.6H1247.45M1193.16 -216.8V-271M1193.16 -216.8H1247.45M1193.16 -271V-325.2M1193.16 -271H1247.45M1193.16 -325.2V-379.4M1193.16 -325.2H1247.45M1193.16 -379.4V-433.6M1193.16 -379.4H1247.45M1193.16 -433.6V-487.8M1193.16 -433.6H1247.45M1193.16 -487.8V-542M1193.16 -487.8H1247.45M1193.16 -542H1247.45M1247.45 542V487.8M1247.45 542H1301.75M1247.45 487.8V433.6M1247.45 487.8H1301.75M1247.45 433.6V379.4M1247.45 433.6H1301.75M1247.45 379.4V325.2M1247.45 379.4H1301.75M1247.45 325.2V271M1247.45 325.2H1301.75M1247.45 271V216.8M1247.45 271H1301.75M1247.45 216.8V162.6M1247.45 216.8H1301.75M1247.45 162.6V108.4M1247.45 162.6H1301.75M1247.45 108.4V54.2M1247.45 108.4H1301.75M1247.45 54.2V-2.38419e-07M1247.45 54.2H1301.75M1247.45 -2.38419e-07V-54.2M1247.45 -2.38419e-07H1301.75M1247.45 -54.2V-108.4M1247.45 -54.2H1301.75M1247.45 -108.4V-162.6M1247.45 -108.4H1301.75M1247.45 -162.6V-216.8M1247.45 -162.6H1301.75M1247.45 -216.8V-271M1247.45 -216.8H1301.75M1247.45 -271V-325.2M1247.45 -271H1301.75M1247.45 -325.2V-379.4M1247.45 -325.2H1301.75M1247.45 -379.4V-433.6M1247.45 -379.4H1301.75M1247.45 -433.6V-487.8M1247.45 -433.6H1301.75M1247.45 -487.8V-542M1247.45 -487.8H1301.75M1247.45 -542H1301.75M1301.75 542V487.8M1301.75 542H1356.05M1301.75 487.8V433.6M1301.75 487.8H1356.05M1301.75 433.6V379.4M1301.75 433.6H1356.05M1301.75 379.4V325.2M1301.75 379.4H1356.05M1301.75 325.2V271M1301.75 325.2H1356.05M1301.75 271V216.8M1301.75 271H1356.05M1301.75 216.8V162.6M1301.75 216.8H1356.05M1301.75 162.6V108.4M1301.75 162.6H1356.05M1301.75 108.4V54.2M1301.75 108.4H1356.05M1301.75 54.2V-2.38419e-07M1301.75 54.2H1356.05M1301.75 -2.38419e-07V-54.2M1301.75 -2.38419e-07H1356.05M1301.75 -54.2V-108.4M1301.75 -54.2H1356.05M1301.75 -108.4V-162.6M1301.75 -108.4H1356.05M1301.75 -162.6V-216.8M1301.75 -162.6H1356.05M1301.75 -216.8V-271M1301.75 -216.8H1356.05M1301.75 -271V-325.2M1301.75 -271H1356.05M1301.75 -325.2V-379.4M1301.75 -325.2H1356.05M1301.75 -379.4V-433.6M1301.75 -379.4H1356.05M1301.75 -433.6V-487.8M1301.75 -433.6H1356.05M1301.75 -487.8V-542M1301.75 -487.8H1356.05M1301.75 -542H1356.05M1356.05 542V487.8M1356.05 542H1410.34M1356.05 487.8V433.6M1356.05 487.8H1410.34M1356.05 433.6V379.4M1356.05 433.6H1410.34M1356.05 379.4V325.2M1356.05 379.4H1410.34M1356.05 325.2V271M1356.05 325.2H1410.34M1356.05 271V216.8M1356.05 271H1410.34M1356.05 216.8V162.6M1356.05 216.8H1410.34M1356.05 162.6V108.4M1356.05 162.6H1410.34M1356.05 108.4V54.2M1356.05 108.4H1410.34M1356.05 54.2V-2.38419e-07M1356.05 54.2H1410.34M1356.05 -2.38419e-07V-54.2M1356.05 -2.38419e-07H1410.34M1356.05 -54.2V-108.4M1356.05 -54.2H1410.34M1356.05 -108.4V-162.6M1356.05 -108.4H1410.34M1356.05 -162.6V-216.8M1356.05 -162.6H1410.34M1356.05 -216.8V-271M1356.05 -216.8H1410.34M1356.05 -271V-325.2M1356.05 -271H1410.34M1356.05 -325.2V-379.4M1356.05 -325.2H1410.34M1356.05 -379.4V-433.6M1356.05 -379.4H1410.34M1356.05 -433.6V-487.8M1356.05 -433.6H1410.34M1356.05 -487.8V-542M1356.05 -487.8H1410.34M1356.05 -542H1410.34M1410.34 542V487.8M1410.34 542H1464.64M1410.34 487.8V433.6M1410.34 487.8H1464.64M1410.34 433.6V379.4M1410.34 433.6H1464.64M1410.34 379.4V325.2M1410.34 379.4H1464.64M1410.34 325.2V271M1410.34 325.2H1464.64M1410.34 271V216.8M1410.34 271H1464.64M1410.34 216.8V162.6M1410.34 216.8H1464.64M1410.34 162.6V108.4M1410.34 162.6H1464.64M1410.34 108.4V54.2M1410.34 108.4H1464.64M1410.34 54.2V-2.38419e-07M1410.34 54.2H1464.64M1410.34 -2.38419e-07V-54.2M1410.34 -2.38419e-07H1464.64M1410.34 -54.2V-108.4M1410.34 -54.2H1464.64M1410.34 -108.4V-162.6M1410.34 -108.4H1464.64M1410.34 -162.6V-216.8M1410.34 -162.6H1464.64M1410.34 -216.8V-271M1410.34 -216.8H1464.64M1410.34 -271V-325.2M1410.34 -271H1464.64M1410.34 -325.2V-379.4M1410.34 -325.2H1464.64M1410.34 -379.4V-433.6M1410.34 -379.4H1464.64M1410.34 -433.6V-487.8M1410.34 -433.6H1464.64M1410.34 -487.8V-542M1410.34 -487.8H1464.64M1410.34 -542H1464.64M1464.64 542V487.8M1464.64 542H1518.93M1464.64 487.8V433.6M1464.64 487.8H1518.93M1464.64 433.6V379.4M1464.64 433.6H1518.93M1464.64 379.4V325.2M1464.64 379.4H1518.93M1464.64 325.2V271M1464.64 325.2H1518.93M1464.64 271V216.8M1464.64 271H1518.93M1464.64 216.8V162.6M1464.64 216.8H1518.93M1464.64 162.6V108.4M1464.64 162.6H1518.93M1464.64 108.4V54.2M1464.64 108.4H1518.93M1464.64 54.2V-2.38419e-07M1464.64 54.2H1518.93M1464.64 -2.38419e-07V-54.2M1464.64 -2.38419e-07H1518.93M1464.64 -54.2V-108.4M1464.64 -54.2H1518.93M1464.64 -108.4V-162.6M1464.64 -108.4H1518.93M1464.64 -162.6V-216.8M1464.64 -162.6H1518.93M1464.64 -216.8V-271M1464.64 -216.8H1518.93M1464.64 -271V-325.2M1464.64 -271H1518.93M1464.64 -325.2V-379.4M1464.64 -325.2H1518.93M1464.64 -379.4V-433.6M1464.64 -379.4H1518.93M1464.64 -433.6V-487.8M1464.64 -433.6H1518.93M1464.64 -487.8V-542M1464.64 -487.8H1518.93M1464.64 -542H1518.93M1518.93 542V487.8M1518.93 542H1573.23M1518.93 487.8V433.6M1518.93 487.8H1573.23M1518.93 433.6V379.4M1518.93 433.6H1573.23M1518.93 379.4V325.2M1518.93 379.4H1573.23M1518.93 325.2V271M1518.93 325.2H1573.23M1518.93 271V216.8M1518.93 271H1573.23M1518.93 216.8V162.6M1518.93 216.8H1573.23M1518.93 162.6H1573.23M1518.93 162.6V108.4M1518.93 108.4V54.2M1518.93 108.4H1573.23M1518.93 54.2V-2.38419e-07M1518.93 54.2H1573.23M1518.93 -2.38419e-07V-54.2M1518.93 -2.38419e-07H1573.23M1518.93 -54.2V-108.4M1518.93 -54.2H1573.23M1518.93 -108.4V-162.6M1518.93 -108.4H1573.23M1518.93 -162.6V-216.8M1518.93 -162.6H1573.23M1518.93 -216.8V-271M1518.93 -216.8H1573.23M1518.93 -271V-325.2M1518.93 -271H1573.23M1518.93 -325.2V-379.4M1518.93 -325.2H1573.23M1518.93 -379.4V-433.6M1518.93 -379.4H1573.23M1518.93 -433.6V-487.8M1518.93 -433.6H1573.23M1518.93 -487.8V-542M1518.93 -487.8H1573.23M1518.93 -542H1573.23M1573.23 542V487.8M1573.23 542H1627.52M1573.23 487.8V433.6M1573.23 487.8H1627.52M1573.23 433.6V379.4M1573.23 433.6H1627.52M1573.23 379.4V325.2M1573.23 379.4H1627.52M1573.23 325.2V271M1573.23 325.2H1627.52M1573.23 271V216.8M1573.23 271H1627.52M1573.23 216.8V162.6M1573.23 216.8H1627.52M1573.23 162.6V108.4M1573.23 162.6H1627.52M1573.23 108.4V54.2M1573.23 108.4H1627.52M1573.23 54.2V-2.38419e-07M1573.23 54.2H1627.52M1573.23 -2.38419e-07V-54.2M1573.23 -2.38419e-07H1627.52M1573.23 -54.2V-108.4M1573.23 -54.2H1627.52M1573.23 -108.4V-162.6M1573.23 -108.4H1627.52M1573.23 -162.6V-216.8M1573.23 -162.6H1627.52M1573.23 -216.8V-271M1573.23 -216.8H1627.52M1573.23 -271V-325.2M1573.23 -271H1627.52M1573.23 -325.2V-379.4M1573.23 -325.2H1627.52M1573.23 -379.4V-433.6M1573.23 -379.4H1627.52M1573.23 -433.6V-487.8M1573.23 -433.6H1627.52M1573.23 -487.8V-542M1573.23 -487.8H1627.52M1573.23 -542H1627.52M1627.52 542V487.8M1627.52 542H1681.82M1627.52 487.8V433.6M1627.52 487.8H1681.82M1627.52 433.6V379.4M1627.52 433.6H1681.82M1627.52 379.4V325.2M1627.52 379.4H1681.82M1627.52 325.2V271M1627.52 325.2H1681.82M1627.52 271V216.8M1627.52 271H1681.82M1627.52 216.8V162.6M1627.52 216.8H1681.82M1627.52 162.6V108.4M1627.52 162.6H1681.82M1627.52 108.4V54.2M1627.52 108.4H1681.82M1627.52 54.2V-2.38419e-07M1627.52 54.2H1681.82M1627.52 -2.38419e-07V-54.2M1627.52 -2.38419e-07H1681.82M1627.52 -54.2V-108.4M1627.52 -54.2H1681.82M1627.52 -108.4V-162.6M1627.52 -108.4H1681.82M1627.52 -162.6V-216.8M1627.52 -162.6H1681.82M1627.52 -216.8V-271M1627.52 -216.8H1681.82M1627.52 -271V-325.2M1627.52 -271H1681.82M1627.52 -325.2V-379.4M1627.52 -325.2H1681.82M1627.52 -379.4V-433.6M1627.52 -379.4H1681.82M1627.52 -433.6V-487.8M1627.52 -433.6H1681.82M1627.52 -487.8V-542M1627.52 -487.8H1681.82M1627.52 -542H1681.82M1681.82 542V487.8M1681.82 542H1736.11M1681.82 487.8V433.6M1681.82 487.8H1736.11M1681.82 433.6V379.4M1681.82 433.6H1736.11M1681.82 379.4V325.2M1681.82 379.4H1736.11M1681.82 325.2V271M1681.82 325.2H1736.11M1681.82 271V216.8M1681.82 271H1736.11M1681.82 216.8V162.6M1681.82 216.8H1736.11M1681.82 162.6V108.4M1681.82 162.6H1736.11M1681.82 108.4V54.2M1681.82 108.4H1736.11M1681.82 54.2V-2.38419e-07M1681.82 54.2H1736.11M1681.82 -2.38419e-07V-54.2M1681.82 -2.38419e-07H1736.11M1681.82 -54.2V-108.4M1681.82 -54.2H1736.11M1681.82 -108.4V-162.6M1681.82 -108.4H1736.11M1681.82 -162.6V-216.8M1681.82 -162.6H1736.11M1681.82 -216.8V-271M1681.82 -216.8H1736.11M1681.82 -271V-325.2M1681.82 -271H1736.11M1681.82 -325.2V-379.4M1681.82 -325.2H1736.11M1681.82 -379.4V-433.6M1681.82 -379.4H1736.11M1681.82 -433.6V-487.8M1681.82 -433.6H1736.11M1681.82 -487.8V-542M1681.82 -487.8H1736.11M1681.82 -542H1736.11M1736.11 542V487.8M1736.11 542H1790.41M1736.11 487.8V433.6M1736.11 487.8H1790.41M1736.11 433.6V379.4M1736.11 433.6H1790.41M1736.11 379.4V325.2M1736.11 379.4H1790.41M1736.11 325.2V271M1736.11 325.2H1790.41M1736.11 271V216.8M1736.11 271H1790.41M1736.11 216.8V162.6M1736.11 216.8H1790.41M1736.11 162.6V108.4M1736.11 162.6H1790.41M1736.11 108.4V54.2M1736.11 108.4H1790.41M1736.11 54.2V-2.38419e-07M1736.11 54.2H1790.41M1736.11 -2.38419e-07V-54.2M1736.11 -2.38419e-07H1790.41M1736.11 -54.2V-108.4M1736.11 -54.2H1790.41M1736.11 -108.4V-162.6M1736.11 -108.4H1790.41M1736.11 -162.6V-216.8M1736.11 -162.6H1790.41M1736.11 -216.8V-271M1736.11 -216.8H1790.41M1736.11 -271V-325.2M1736.11 -271H1790.41M1736.11 -325.2V-379.4M1736.11 -325.2H1790.41M1736.11 -379.4V-433.6M1736.11 -379.4H1790.41M1736.11 -433.6V-487.8M1736.11 -433.6H1790.41M1736.11 -487.8V-542M1736.11 -487.8H1790.41M1736.11 -542H1790.41M1790.41 542V487.8M1790.41 542H1844.7M1790.41 487.8V433.6M1790.41 487.8H1844.7M1790.41 433.6V379.4M1790.41 433.6H1844.7M1790.41 379.4V325.2M1790.41 379.4H1844.7M1790.41 325.2V271M1790.41 325.2H1844.7M1790.41 271V216.8M1790.41 271H1844.7M1790.41 216.8V162.6M1790.41 216.8H1844.7M1790.41 162.6V108.4M1790.41 162.6H1844.7M1790.41 108.4V54.2M1790.41 108.4H1844.7M1790.41 54.2V-2.38419e-07M1790.41 54.2H1844.7M1790.41 -2.38419e-07V-54.2M1790.41 -2.38419e-07H1844.7M1790.41 -54.2V-108.4M1790.41 -54.2H1844.7M1790.41 -108.4V-162.6M1790.41 -108.4H1844.7M1790.41 -162.6V-216.8M1790.41 -162.6H1844.7M1790.41 -216.8V-271M1790.41 -216.8H1844.7M1790.41 -271V-325.2M1790.41 -271H1844.7M1790.41 -325.2V-379.4M1790.41 -325.2H1844.7M1790.41 -379.4V-433.6M1790.41 -379.4H1844.7M1790.41 -433.6V-487.8M1790.41 -433.6H1844.7M1790.41 -487.8V-542M1790.41 -487.8H1844.7M1790.41 -542H1844.7M1844.7 542V487.8M1844.7 542H1899V487.8M1844.7 487.8V433.6M1844.7 487.8H1899M1844.7 433.6V379.4M1844.7 433.6H1899M1844.7 379.4V325.2M1844.7 379.4H1899M1844.7 325.2V271M1844.7 325.2H1899M1844.7 271V216.8M1844.7 271H1899M1844.7 216.8V162.6M1844.7 216.8H1899M1844.7 162.6V108.4M1844.7 162.6H1899M1844.7 108.4V54.2M1844.7 108.4H1899M1844.7 54.2V-2.38419e-07M1844.7 54.2H1899M1844.7 -2.38419e-07V-54.2M1844.7 -2.38419e-07H1899M1844.7 -54.2V-108.4M1844.7 -54.2H1899M1844.7 -108.4V-162.6M1844.7 -108.4H1899M1844.7 -162.6V-216.8M1844.7 -162.6H1899M1844.7 -216.8V-271M1844.7 -216.8H1899M1844.7 -271V-325.2M1844.7 -271H1899M1844.7 -325.2V-379.4M1844.7 -325.2H1899M1844.7 -379.4V-433.6M1844.7 -379.4H1899M1844.7 -433.6V-487.8M1844.7 -433.6H1899M1844.7 -487.8V-542M1844.7 -487.8H1899M1844.7 -542H1899V-487.8M1899 487.8V433.6M1899 433.6V379.4M1899 379.4V325.2M1899 325.2V271M1899 271V216.8M1899 216.8V162.6M1899 162.6V108.4M1899 108.4V54.2M1899 54.2V-2.38419e-07M1899 -2.38419e-07V-54.2M1899 -54.2V-108.4M1899 -108.4V-162.6M1899 -162.6V-216.8M1899 -216.8V-271M1899 -271V-325.2M1899 -325.2V-379.4M1899 -379.4V-433.6M1899 -433.6V-487.8" stroke="url(#paint0_radial_772_11162)"/>
</g>
<defs>
<radialGradient id="paint0_radial_772_11162" cx="0" cy="0" r="1" gradientUnits="userSpaceOnUse" gradientTransform="translate(704.5 -21.0025) rotate(-90) scale(344.954 905.094)">
<stop stop-color="white" stop-opacity="0.65"/>
<stop offset="1" stop-color="white" stop-opacity="0"/>
</radialGradient>
<clipPath id="clip0_772_11162">
<rect width="1440" height="520" fill="white"/>
</clipPath>
</defs>
</svg>
