<svg width="580" height="364" viewBox="0 0 580 364" fill="none" xmlns="http://www.w3.org/2000/svg">
<g filter="url(#filter0_b_1315_6163)">
<rect width="580" height="364" fill="white" fill-opacity="0.01"/>
<circle cx="476" cy="134" r="8" fill="#8768FF" fill-opacity="0.16"/>
<circle cx="476" cy="134" r="3" fill="#8768FF"/>
<path d="M497.598 139V130.236H497.374L495.764 133.54H494.21L496.38 129.2H499.068V139H497.598ZM500.576 139V137.894C500.576 137.213 500.693 136.653 500.926 136.214C501.159 135.775 501.491 135.421 501.92 135.15C502.359 134.87 502.886 134.637 503.502 134.45L504.356 134.184C504.739 134.063 505.065 133.913 505.336 133.736C505.616 133.559 505.831 133.339 505.98 133.078C506.129 132.807 506.204 132.495 506.204 132.14V132.084C506.204 131.533 506.017 131.104 505.644 130.796C505.271 130.479 504.781 130.32 504.174 130.32C503.549 130.32 503.04 130.488 502.648 130.824C502.265 131.16 502.074 131.655 502.074 132.308V132.532H500.618V132.322C500.618 131.613 500.772 131.015 501.08 130.53C501.388 130.035 501.813 129.657 502.354 129.396C502.895 129.135 503.502 129.004 504.174 129.004C504.846 129.004 505.443 129.13 505.966 129.382C506.498 129.634 506.913 129.989 507.212 130.446C507.52 130.903 507.674 131.44 507.674 132.056V132.182C507.674 132.817 507.548 133.344 507.296 133.764C507.044 134.184 506.694 134.529 506.246 134.8C505.807 135.071 505.299 135.299 504.72 135.486L503.894 135.738C503.455 135.869 503.101 136.013 502.83 136.172C502.569 136.321 502.373 136.503 502.242 136.718C502.121 136.933 502.06 137.208 502.06 137.544V137.684H507.59V139H500.576ZM510.065 139.182L509.169 138.454L516.827 129.018L517.723 129.746L510.065 139.182ZM516.127 139.154C515.437 139.154 514.891 138.963 514.489 138.58C514.088 138.188 513.887 137.661 513.887 136.998V136.914C513.887 136.242 514.088 135.715 514.489 135.332C514.891 134.94 515.437 134.744 516.127 134.744C516.809 134.744 517.355 134.94 517.765 135.332C518.176 135.715 518.381 136.242 518.381 136.914V136.998C518.381 137.661 518.176 138.188 517.765 138.58C517.364 138.963 516.818 139.154 516.127 139.154ZM516.127 138.174C516.463 138.174 516.725 138.071 516.911 137.866C517.107 137.661 517.205 137.39 517.205 137.054V136.858C517.205 136.513 517.107 136.237 516.911 136.032C516.725 135.827 516.463 135.724 516.127 135.724C515.801 135.724 515.539 135.827 515.343 136.032C515.157 136.237 515.063 136.513 515.063 136.858V137.054C515.063 137.39 515.157 137.661 515.343 137.866C515.539 138.071 515.801 138.174 516.127 138.174ZM510.765 133.456C510.075 133.456 509.524 133.265 509.113 132.882C508.712 132.49 508.511 131.963 508.511 131.3V131.202C508.511 130.53 508.712 130.003 509.113 129.62C509.524 129.237 510.075 129.046 510.765 129.046C511.447 129.046 511.988 129.237 512.389 129.62C512.8 130.003 513.005 130.53 513.005 131.202V131.3C513.005 131.963 512.805 132.49 512.403 132.882C512.002 133.265 511.456 133.456 510.765 133.456ZM510.765 132.476C511.092 132.476 511.349 132.373 511.535 132.168C511.731 131.953 511.829 131.678 511.829 131.342V131.146C511.829 130.81 511.731 130.539 511.535 130.334C511.349 130.129 511.092 130.026 510.765 130.026C510.429 130.026 510.163 130.129 509.967 130.334C509.781 130.539 509.687 130.81 509.687 131.146V131.342C509.687 131.678 509.781 131.953 509.967 132.168C510.163 132.373 510.429 132.476 510.765 132.476Z" fill="#8768FF"/>
<circle cx="476" cy="182" r="8" fill="#E05151" fill-opacity="0.16"/>
<circle cx="476" cy="182" r="3" fill="#E98282"/>
<path d="M498.284 187.196C497.528 187.196 496.865 187.084 496.296 186.86C495.736 186.636 495.297 186.314 494.98 185.894C494.672 185.465 494.518 184.965 494.518 184.396V184.242C494.518 183.775 494.607 183.393 494.784 183.094C494.971 182.786 495.195 182.548 495.456 182.38C495.727 182.203 495.979 182.086 496.212 182.03V181.806C495.979 181.741 495.741 181.624 495.498 181.456C495.255 181.279 495.055 181.05 494.896 180.77C494.747 180.481 494.672 180.135 494.672 179.734V179.58C494.672 179.057 494.821 178.605 495.12 178.222C495.428 177.839 495.853 177.541 496.394 177.326C496.935 177.111 497.565 177.004 498.284 177.004C498.993 177.004 499.619 177.111 500.16 177.326C500.701 177.541 501.121 177.839 501.42 178.222C501.728 178.605 501.882 179.057 501.882 179.58V179.734C501.882 180.135 501.803 180.481 501.644 180.77C501.495 181.05 501.303 181.279 501.07 181.456C500.837 181.624 500.599 181.741 500.356 181.806V182.03C500.599 182.086 500.851 182.203 501.112 182.38C501.373 182.548 501.593 182.786 501.77 183.094C501.947 183.393 502.036 183.775 502.036 184.242V184.396C502.036 184.965 501.877 185.465 501.56 185.894C501.252 186.314 500.813 186.636 500.244 186.86C499.684 187.084 499.031 187.196 498.284 187.196ZM498.284 185.88C498.993 185.88 499.549 185.745 499.95 185.474C500.361 185.194 500.566 184.807 500.566 184.312V184.2C500.566 183.696 500.365 183.309 499.964 183.038C499.572 182.758 499.012 182.618 498.284 182.618C497.556 182.618 496.991 182.758 496.59 183.038C496.189 183.309 495.988 183.696 495.988 184.2V184.312C495.988 184.807 496.189 185.194 496.59 185.474C497.001 185.745 497.565 185.88 498.284 185.88ZM498.284 181.302C498.947 181.302 499.465 181.176 499.838 180.924C500.221 180.672 500.412 180.317 500.412 179.86V179.748C500.412 179.291 500.221 178.941 499.838 178.698C499.455 178.446 498.937 178.32 498.284 178.32C497.621 178.32 497.099 178.446 496.716 178.698C496.333 178.941 496.142 179.291 496.142 179.748V179.86C496.142 180.317 496.329 180.672 496.702 180.924C497.085 181.176 497.612 181.302 498.284 181.302ZM507.741 187V184.998H502.785V183.29L506.537 177.2H509.211V183.696H510.863V184.998H509.211V187H507.741ZM504.213 183.696H507.741V178.124H507.517L504.213 183.5V183.696ZM512.991 187.182L512.095 186.454L519.753 177.018L520.649 177.746L512.991 187.182ZM519.053 187.154C518.362 187.154 517.816 186.963 517.415 186.58C517.014 186.188 516.813 185.661 516.813 184.998V184.914C516.813 184.242 517.014 183.715 517.415 183.332C517.816 182.94 518.362 182.744 519.053 182.744C519.734 182.744 520.28 182.94 520.691 183.332C521.102 183.715 521.307 184.242 521.307 184.914V184.998C521.307 185.661 521.102 186.188 520.691 186.58C520.29 186.963 519.744 187.154 519.053 187.154ZM519.053 186.174C519.389 186.174 519.65 186.071 519.837 185.866C520.033 185.661 520.131 185.39 520.131 185.054V184.858C520.131 184.513 520.033 184.237 519.837 184.032C519.65 183.827 519.389 183.724 519.053 183.724C518.726 183.724 518.465 183.827 518.269 184.032C518.082 184.237 517.989 184.513 517.989 184.858V185.054C517.989 185.39 518.082 185.661 518.269 185.866C518.465 186.071 518.726 186.174 519.053 186.174ZM513.691 181.456C513 181.456 512.45 181.265 512.039 180.882C511.638 180.49 511.437 179.963 511.437 179.3V179.202C511.437 178.53 511.638 178.003 512.039 177.62C512.45 177.237 513 177.046 513.691 177.046C514.372 177.046 514.914 177.237 515.315 177.62C515.726 178.003 515.931 178.53 515.931 179.202V179.3C515.931 179.963 515.73 180.49 515.329 180.882C514.928 181.265 514.382 181.456 513.691 181.456ZM513.691 180.476C514.018 180.476 514.274 180.373 514.461 180.168C514.657 179.953 514.755 179.678 514.755 179.342V179.146C514.755 178.81 514.657 178.539 514.461 178.334C514.274 178.129 514.018 178.026 513.691 178.026C513.355 178.026 513.089 178.129 512.893 178.334C512.706 178.539 512.613 178.81 512.613 179.146V179.342C512.613 179.678 512.706 179.953 512.893 180.168C513.089 180.373 513.355 180.476 513.691 180.476Z" fill="#E98282"/>
<circle cx="476" cy="230" r="8" fill="#E8BF80" fill-opacity="0.16"/>
<circle cx="476" cy="230" r="3" fill="#E8BF80"/>
<path d="M498.2 235.196C497.472 235.196 496.847 235.075 496.324 234.832C495.801 234.58 495.4 234.23 495.12 233.782C494.84 233.325 494.7 232.793 494.7 232.186H496.198C496.198 232.671 496.357 233.077 496.674 233.404C497.001 233.721 497.509 233.88 498.2 233.88C498.9 233.88 499.437 233.693 499.81 233.32C500.183 232.947 500.37 232.438 500.37 231.794V230.618H500.146C499.987 230.842 499.731 231.057 499.376 231.262C499.021 231.467 498.508 231.57 497.836 231.57C497.267 231.57 496.739 231.444 496.254 231.192C495.769 230.94 495.377 230.581 495.078 230.114C494.789 229.638 494.644 229.073 494.644 228.42V228.252C494.644 227.599 494.793 227.029 495.092 226.544C495.4 226.059 495.825 225.681 496.366 225.41C496.917 225.139 497.547 225.004 498.256 225.004C498.975 225.004 499.6 225.144 500.132 225.424C500.673 225.695 501.093 226.077 501.392 226.572C501.691 227.057 501.84 227.631 501.84 228.294V231.682C501.84 232.447 501.686 233.091 501.378 233.614C501.079 234.137 500.655 234.533 500.104 234.804C499.563 235.065 498.928 235.196 498.2 235.196ZM498.242 230.38C498.671 230.38 499.045 230.296 499.362 230.128C499.679 229.96 499.927 229.731 500.104 229.442C500.281 229.143 500.37 228.793 500.37 228.392V228.28C500.37 227.673 500.174 227.197 499.782 226.852C499.399 226.497 498.886 226.32 498.242 226.32C497.598 226.32 497.08 226.497 496.688 226.852C496.305 227.197 496.114 227.673 496.114 228.28V228.392C496.114 228.793 496.198 229.143 496.366 229.442C496.543 229.731 496.791 229.96 497.108 230.128C497.435 230.296 497.813 230.38 498.242 230.38ZM506.633 235.196C505.905 235.196 505.28 235.075 504.757 234.832C504.235 234.58 503.833 234.23 503.553 233.782C503.273 233.325 503.133 232.793 503.133 232.186H504.631C504.631 232.671 504.79 233.077 505.107 233.404C505.434 233.721 505.943 233.88 506.633 233.88C507.333 233.88 507.87 233.693 508.243 233.32C508.617 232.947 508.803 232.438 508.803 231.794V230.618H508.579C508.421 230.842 508.164 231.057 507.809 231.262C507.455 231.467 506.941 231.57 506.269 231.57C505.7 231.57 505.173 231.444 504.687 231.192C504.202 230.94 503.81 230.581 503.511 230.114C503.222 229.638 503.077 229.073 503.077 228.42V228.252C503.077 227.599 503.227 227.029 503.525 226.544C503.833 226.059 504.258 225.681 504.799 225.41C505.35 225.139 505.98 225.004 506.689 225.004C507.408 225.004 508.033 225.144 508.565 225.424C509.107 225.695 509.527 226.077 509.825 226.572C510.124 227.057 510.273 227.631 510.273 228.294V231.682C510.273 232.447 510.119 233.091 509.811 233.614C509.513 234.137 509.088 234.533 508.537 234.804C507.996 235.065 507.361 235.196 506.633 235.196ZM506.675 230.38C507.105 230.38 507.478 230.296 507.795 230.128C508.113 229.96 508.36 229.731 508.537 229.442C508.715 229.143 508.803 228.793 508.803 228.392V228.28C508.803 227.673 508.607 227.197 508.215 226.852C507.833 226.497 507.319 226.32 506.675 226.32C506.031 226.32 505.513 226.497 505.121 226.852C504.739 227.197 504.547 227.673 504.547 228.28V228.392C504.547 228.793 504.631 229.143 504.799 229.442C504.977 229.731 505.224 229.96 505.541 230.128C505.868 230.296 506.246 230.38 506.675 230.38ZM512.841 235.182L511.945 234.454L519.603 225.018L520.499 225.746L512.841 235.182ZM518.903 235.154C518.212 235.154 517.666 234.963 517.265 234.58C516.863 234.188 516.663 233.661 516.663 232.998V232.914C516.663 232.242 516.863 231.715 517.265 231.332C517.666 230.94 518.212 230.744 518.903 230.744C519.584 230.744 520.13 230.94 520.541 231.332C520.951 231.715 521.157 232.242 521.157 232.914V232.998C521.157 233.661 520.951 234.188 520.541 234.58C520.139 234.963 519.593 235.154 518.903 235.154ZM518.903 234.174C519.239 234.174 519.5 234.071 519.687 233.866C519.883 233.661 519.981 233.39 519.981 233.054V232.858C519.981 232.513 519.883 232.237 519.687 232.032C519.5 231.827 519.239 231.724 518.903 231.724C518.576 231.724 518.315 231.827 518.119 232.032C517.932 232.237 517.839 232.513 517.839 232.858V233.054C517.839 233.39 517.932 233.661 518.119 233.866C518.315 234.071 518.576 234.174 518.903 234.174ZM513.541 229.456C512.85 229.456 512.299 229.265 511.889 228.882C511.487 228.49 511.287 227.963 511.287 227.3V227.202C511.287 226.53 511.487 226.003 511.889 225.62C512.299 225.237 512.85 225.046 513.541 225.046C514.222 225.046 514.763 225.237 515.165 225.62C515.575 226.003 515.781 226.53 515.781 227.202V227.3C515.781 227.963 515.58 228.49 515.179 228.882C514.777 229.265 514.231 229.456 513.541 229.456ZM513.541 228.476C513.867 228.476 514.124 228.373 514.311 228.168C514.507 227.953 514.605 227.678 514.605 227.342V227.146C514.605 226.81 514.507 226.539 514.311 226.334C514.124 226.129 513.867 226.026 513.541 226.026C513.205 226.026 512.939 226.129 512.743 226.334C512.556 226.539 512.463 226.81 512.463 227.146V227.342C512.463 227.678 512.556 227.953 512.743 228.168C512.939 228.373 513.205 228.476 513.541 228.476Z" fill="#E8BF80"/>
<g filter="url(#filter1_b_1315_6163)">
<path d="M342 182C342 209.317 331.148 235.516 311.832 254.832C292.516 274.148 266.317 285 239 285C211.683 285 185.484 274.148 166.168 254.832C146.852 235.516 136 209.317 136 182L197.8 182C197.8 192.927 202.141 203.406 209.867 211.133C217.594 218.859 228.073 223.2 239 223.2C249.927 223.2 260.406 218.859 268.133 211.133C275.859 203.406 280.2 192.927 280.2 182H342Z" fill="url(#paint0_linear_1315_6163)" fill-opacity="0.08"/>
</g>
<g filter="url(#filter2_b_1315_6163)">
<mask id="path-13-inside-1_1315_6163" fill="white">
<path d="M117.756 112C130.044 90.7173 147.717 73.044 169 60.7564C190.283 48.4689 214.425 42 239 42C263.575 42 287.717 48.4689 309 60.7565C330.283 73.044 347.956 90.7173 360.244 112L296.479 148.814C290.654 138.725 282.275 130.346 272.186 124.521C262.096 118.696 250.651 115.629 239 115.629C227.349 115.629 215.904 118.696 205.814 124.521C195.725 130.346 187.346 138.725 181.521 148.814L117.756 112Z"/>
</mask>
<path d="M117.756 112C130.044 90.7173 147.717 73.044 169 60.7564C190.283 48.4689 214.425 42 239 42C263.575 42 287.717 48.4689 309 60.7565C330.283 73.044 347.956 90.7173 360.244 112L296.479 148.814C290.654 138.725 282.275 130.346 272.186 124.521C262.096 118.696 250.651 115.629 239 115.629C227.349 115.629 215.904 118.696 205.814 124.521C195.725 130.346 187.346 138.725 181.521 148.814L117.756 112Z" fill="url(#paint1_linear_1315_6163)" fill-opacity="0.08"/>
<path d="M117.756 112C130.044 90.7173 147.717 73.044 169 60.7564C190.283 48.4689 214.425 42 239 42C263.575 42 287.717 48.4689 309 60.7565C330.283 73.044 347.956 90.7173 360.244 112L296.479 148.814C290.654 138.725 282.275 130.346 272.186 124.521C262.096 118.696 250.651 115.629 239 115.629C227.349 115.629 215.904 118.696 205.814 124.521C195.725 130.346 187.346 138.725 181.521 148.814L117.756 112Z" stroke="white" stroke-opacity="0.04" stroke-width="2" stroke-dasharray="8 8" mask="url(#path-13-inside-1_1315_6163)"/>
</g>
<g filter="url(#filter3_d_1315_6163)">
<path d="M331.89 273.386L328.567 256.109L343.186 264.748L335.877 266.741L331.89 273.386Z" fill="#E98282"/>
<path d="M328.822 255.679L327.867 255.115L328.076 256.204L331.399 273.481L331.646 274.765L332.319 273.643L336.202 267.171L343.318 265.23L344.459 264.919L343.441 264.317L328.822 255.679Z" stroke="#FFADAD" stroke-linecap="square"/>
</g>
<g filter="url(#filter4_bd_1315_6163)">
<rect x="342.831" y="277.373" width="75" height="24" rx="12" fill="white" fill-opacity="0.03"/>
<rect x="342.831" y="277.373" width="75" height="24" rx="12" fill="url(#paint2_radial_1315_6163)" fill-opacity="0.08"/>
<path d="M352.027 293.373V284.646H353.301V287.889H353.378C353.452 287.752 353.558 287.595 353.698 287.416C353.837 287.237 354.03 287.08 354.277 286.947C354.524 286.811 354.851 286.742 355.257 286.742C355.786 286.742 356.257 286.876 356.672 287.143C357.087 287.41 357.412 287.795 357.648 288.298C357.887 288.801 358.006 289.406 358.006 290.113C358.006 290.82 357.888 291.427 357.652 291.933C357.416 292.436 357.093 292.823 356.681 293.096C356.269 293.366 355.799 293.501 355.27 293.501C354.872 293.501 354.547 293.434 354.294 293.301C354.044 293.167 353.848 293.011 353.706 292.832C353.564 292.653 353.455 292.494 353.378 292.355H353.272V293.373H352.027ZM353.276 290.1C353.276 290.561 353.343 290.964 353.476 291.311C353.61 291.657 353.803 291.928 354.056 292.124C354.308 292.318 354.618 292.414 354.985 292.414C355.365 292.414 355.683 292.313 355.939 292.112C356.195 291.907 356.388 291.63 356.519 291.281C356.652 290.931 356.719 290.538 356.719 290.1C356.719 289.669 356.654 289.281 356.523 288.937C356.395 288.593 356.202 288.322 355.943 288.123C355.688 287.924 355.368 287.825 354.985 287.825C354.615 287.825 354.303 287.92 354.047 288.11C353.794 288.301 353.602 288.566 353.472 288.907C353.341 289.248 353.276 289.646 353.276 290.1ZM361.461 293.518C361.047 293.518 360.672 293.441 360.336 293.288C360.001 293.132 359.736 292.906 359.54 292.61C359.346 292.315 359.25 291.953 359.25 291.524C359.25 291.154 359.321 290.85 359.463 290.612C359.605 290.373 359.797 290.184 360.038 290.045C360.28 289.906 360.55 289.801 360.848 289.73C361.146 289.659 361.45 289.605 361.76 289.568C362.152 289.522 362.47 289.485 362.714 289.457C362.959 289.426 363.136 289.376 363.247 289.308C363.358 289.24 363.413 289.129 363.413 288.975V288.945C363.413 288.573 363.308 288.285 363.098 288.08C362.89 287.876 362.581 287.774 362.169 287.774C361.74 287.774 361.402 287.869 361.155 288.059C360.91 288.247 360.741 288.455 360.648 288.686L359.45 288.413C359.592 288.015 359.8 287.694 360.072 287.45C360.348 287.203 360.665 287.024 361.023 286.913C361.381 286.799 361.757 286.742 362.152 286.742C362.413 286.742 362.69 286.774 362.983 286.836C363.278 286.896 363.554 287.007 363.809 287.169C364.068 287.33 364.28 287.562 364.444 287.863C364.609 288.161 364.692 288.549 364.692 289.026V293.373H363.447V292.478H363.396C363.314 292.643 363.19 292.805 363.025 292.964C362.861 293.123 362.649 293.255 362.39 293.36C362.132 293.465 361.822 293.518 361.461 293.518ZM361.738 292.495C362.091 292.495 362.392 292.426 362.642 292.286C362.895 292.147 363.086 291.965 363.217 291.741C363.351 291.514 363.417 291.271 363.417 291.012V290.169C363.372 290.214 363.284 290.257 363.153 290.296C363.025 290.333 362.879 290.366 362.714 290.394C362.55 290.42 362.389 290.444 362.233 290.467C362.077 290.487 361.946 290.504 361.841 290.518C361.594 290.549 361.368 290.602 361.163 290.676C360.961 290.749 360.8 290.856 360.677 290.995C360.558 291.132 360.498 291.313 360.498 291.541C360.498 291.856 360.615 292.095 360.848 292.257C361.081 292.416 361.378 292.495 361.738 292.495ZM369.564 286.828V287.85H365.989V286.828H369.564ZM366.948 285.259H368.222V291.451C368.222 291.698 368.259 291.884 368.333 292.009C368.406 292.132 368.502 292.215 368.618 292.261C368.737 292.303 368.867 292.325 369.006 292.325C369.108 292.325 369.198 292.318 369.274 292.303C369.351 292.289 369.411 292.278 369.453 292.269L369.683 293.322C369.61 293.35 369.504 293.379 369.368 293.407C369.232 293.438 369.061 293.455 368.857 293.458C368.521 293.464 368.209 293.404 367.919 293.279C367.629 293.154 367.395 292.961 367.216 292.7C367.037 292.438 366.948 292.11 366.948 291.715V285.259ZM375.24 290.659V286.828H376.518V293.373H375.265V292.24H375.197C375.047 292.589 374.805 292.88 374.473 293.113C374.143 293.343 373.733 293.458 373.241 293.458C372.821 293.458 372.449 293.366 372.125 293.181C371.804 292.994 371.551 292.717 371.366 292.35C371.184 291.984 371.094 291.531 371.094 290.991V286.828H372.368V290.838C372.368 291.284 372.491 291.639 372.738 291.903C372.986 292.167 373.307 292.299 373.701 292.299C373.94 292.299 374.177 292.24 374.413 292.12C374.652 292.001 374.849 291.82 375.005 291.579C375.165 291.338 375.243 291.031 375.24 290.659ZM379.522 291.153L379.514 289.597H379.735L382.343 286.828H383.869L380.894 289.981H380.694L379.522 291.153ZM378.35 293.373V284.646H379.624V293.373H378.35ZM382.484 293.373L380.14 290.262L381.018 289.372L384.048 293.373H382.484ZM387.055 293.518C386.64 293.518 386.265 293.441 385.93 293.288C385.595 293.132 385.329 292.906 385.133 292.61C384.94 292.315 384.843 291.953 384.843 291.524C384.843 291.154 384.914 290.85 385.056 290.612C385.198 290.373 385.39 290.184 385.631 290.045C385.873 289.906 386.143 289.801 386.441 289.73C386.739 289.659 387.043 289.605 387.353 289.568C387.745 289.522 388.063 289.485 388.308 289.457C388.552 289.426 388.729 289.376 388.84 289.308C388.951 289.24 389.006 289.129 389.006 288.975V288.945C389.006 288.573 388.901 288.285 388.691 288.08C388.484 287.876 388.174 287.774 387.762 287.774C387.333 287.774 386.995 287.869 386.748 288.059C386.504 288.247 386.335 288.455 386.241 288.686L385.043 288.413C385.185 288.015 385.393 287.694 385.666 287.45C385.941 287.203 386.258 287.024 386.616 286.913C386.974 286.799 387.35 286.742 387.745 286.742C388.006 286.742 388.283 286.774 388.576 286.836C388.872 286.896 389.147 287.007 389.403 287.169C389.661 287.33 389.873 287.562 390.038 287.863C390.202 288.161 390.285 288.549 390.285 289.026V293.373H389.041V292.478H388.989C388.907 292.643 388.783 292.805 388.619 292.964C388.454 293.123 388.242 293.255 387.984 293.36C387.725 293.465 387.416 293.518 387.055 293.518ZM387.332 292.495C387.684 292.495 387.985 292.426 388.235 292.286C388.488 292.147 388.68 291.965 388.81 291.741C388.944 291.514 389.011 291.271 389.011 291.012V290.169C388.965 290.214 388.877 290.257 388.747 290.296C388.619 290.333 388.472 290.366 388.308 290.394C388.143 290.42 387.982 290.444 387.826 290.467C387.67 290.487 387.539 290.504 387.434 290.518C387.187 290.549 386.961 290.602 386.756 290.676C386.555 290.749 386.393 290.856 386.271 290.995C386.151 291.132 386.092 291.313 386.092 291.541C386.092 291.856 386.208 292.095 386.441 292.257C386.674 292.416 386.971 292.495 387.332 292.495ZM392.102 293.373V286.828H393.333V287.867H393.402C393.521 287.515 393.731 287.238 394.032 287.036C394.336 286.832 394.68 286.73 395.064 286.73C395.143 286.73 395.237 286.732 395.345 286.738C395.456 286.744 395.542 286.751 395.605 286.759V287.978C395.554 287.964 395.463 287.948 395.332 287.931C395.201 287.911 395.071 287.901 394.94 287.901C394.639 287.901 394.37 287.965 394.135 288.093C393.902 288.218 393.717 288.393 393.581 288.617C393.444 288.839 393.376 289.092 393.376 289.376V293.373H392.102ZM398.674 293.518C398.259 293.518 397.884 293.441 397.549 293.288C397.213 293.132 396.948 292.906 396.752 292.61C396.559 292.315 396.462 291.953 396.462 291.524C396.462 291.154 396.533 290.85 396.675 290.612C396.817 290.373 397.009 290.184 397.25 290.045C397.492 289.906 397.762 289.801 398.06 289.73C398.358 289.659 398.662 289.605 398.972 289.568C399.364 289.522 399.682 289.485 399.927 289.457C400.171 289.426 400.348 289.376 400.459 289.308C400.57 289.24 400.625 289.129 400.625 288.975V288.945C400.625 288.573 400.52 288.285 400.31 288.08C400.103 287.876 399.793 287.774 399.381 287.774C398.952 287.774 398.614 287.869 398.367 288.059C398.123 288.247 397.953 288.455 397.86 288.686L396.662 288.413C396.804 288.015 397.012 287.694 397.284 287.45C397.56 287.203 397.877 287.024 398.235 286.913C398.593 286.799 398.969 286.742 399.364 286.742C399.625 286.742 399.902 286.774 400.195 286.836C400.49 286.896 400.766 287.007 401.022 287.169C401.28 287.33 401.492 287.562 401.657 287.863C401.821 288.161 401.904 288.549 401.904 289.026V293.373H400.659V292.478H400.608C400.526 292.643 400.402 292.805 400.238 292.964C400.073 293.123 399.861 293.255 399.603 293.36C399.344 293.465 399.034 293.518 398.674 293.518ZM398.951 292.495C399.303 292.495 399.604 292.426 399.854 292.286C400.107 292.147 400.299 291.965 400.429 291.741C400.563 291.514 400.63 291.271 400.63 291.012V290.169C400.584 290.214 400.496 290.257 400.365 290.296C400.238 290.333 400.091 290.366 399.927 290.394C399.762 290.42 399.601 290.444 399.445 290.467C399.289 290.487 399.158 290.504 399.053 290.518C398.806 290.549 398.58 290.602 398.375 290.676C398.174 290.749 398.012 290.856 397.89 290.995C397.77 291.132 397.711 291.313 397.711 291.541C397.711 291.856 397.827 292.095 398.06 292.257C398.293 292.416 398.59 292.495 398.951 292.495ZM404.727 286.828L406.171 289.376L407.629 286.828H409.022L406.981 290.1L409.039 293.373H407.646L406.171 290.927L404.701 293.373H403.303L405.34 290.1L403.329 286.828H404.727Z" fill="white"/>
<rect x="343.331" y="277.873" width="74" height="23" rx="11.5" stroke="url(#paint3_linear_1315_6163)" stroke-opacity="0.08"/>
</g>
<rect x="99.5556" y="42.5556" width="278.889" height="278.889" rx="139.444" stroke="white" stroke-opacity="0.08" stroke-width="1.11111"/>
<rect x="136.434" y="79.4339" width="205.132" height="205.132" rx="102.566" stroke="white" stroke-opacity="0.08" stroke-width="0.867841"/>
<rect x="172.889" y="115.889" width="132.222" height="132.222" rx="66.1111" stroke="white" stroke-opacity="0.08" stroke-width="1.11111"/>
<rect x="199" y="142" width="80" height="80" rx="40" fill="#131818"/>
<path d="M238.074 196.815C245.745 196.815 251.963 190.597 251.963 182.926C251.963 182.164 251.902 181.416 251.784 180.686C250.909 185.187 246.946 188.585 242.19 188.585C236.792 188.585 232.416 184.209 232.416 178.811C232.416 174.055 235.814 170.092 240.314 169.217C239.585 169.099 238.837 169.038 238.074 169.038C230.404 169.038 224.186 175.256 224.186 182.926C224.186 190.597 230.404 196.815 238.074 196.815Z" fill="#51E0CF"/>
<path d="M238.074 196.815C245.745 196.815 251.963 190.597 251.963 182.926C251.963 182.164 251.902 181.416 251.784 180.686C250.909 185.187 246.946 188.585 242.19 188.585C236.792 188.585 232.416 184.209 232.416 178.811C232.416 174.055 235.814 170.092 240.314 169.217C239.585 169.099 238.837 169.038 238.074 169.038C230.404 169.038 224.186 175.256 224.186 182.926C224.186 190.597 230.404 196.815 238.074 196.815Z" fill="url(#paint4_linear_1315_6163)" fill-opacity="0.4"/>
<rect x="199.556" y="142.556" width="78.8889" height="78.8889" rx="39.4444" stroke="url(#paint5_linear_1315_6163)" stroke-opacity="0.08" stroke-width="1.11111"/>
<g filter="url(#filter5_d_1315_6163)">
<path d="M133.11 149.277L136.433 132L121.814 140.638L129.123 142.632L133.11 149.277Z" fill="#E8BF80"/>
<path d="M136.178 131.57L137.133 131.005L136.924 132.094L133.601 149.371L133.354 150.655L132.681 149.534L128.798 143.061L121.682 141.121L120.541 140.81L121.559 140.208L136.178 131.57Z" stroke="#F5E2BB" stroke-linecap="square"/>
</g>
<g filter="url(#filter6_bd_1315_6163)">
<rect x="48" y="153.373" width="74" height="24" rx="12" fill="white" fill-opacity="0.03"/>
<rect x="48" y="153.373" width="74" height="24" rx="12" fill="url(#paint6_radial_1315_6163)" fill-opacity="0.08"/>
<path d="M60.1122 162.828V163.85H56.5369V162.828H60.1122ZM57.4957 161.259H58.7698V167.451C58.7698 167.698 58.8068 167.884 58.8806 168.009C58.9545 168.132 59.0497 168.215 59.1661 168.261C59.2855 168.303 59.4147 168.325 59.5539 168.325C59.6562 168.325 59.7457 168.318 59.8224 168.303C59.8991 168.289 59.9588 168.278 60.0014 168.269L60.2315 169.322C60.1576 169.35 60.0525 169.379 59.9161 169.407C59.7798 169.438 59.6093 169.455 59.4048 169.458C59.0696 169.464 58.7571 169.404 58.4673 169.279C58.1775 169.154 57.9431 168.961 57.7642 168.7C57.5852 168.438 57.4957 168.11 57.4957 167.715V161.259ZM66.441 164.426L65.2861 164.63C65.2378 164.482 65.1611 164.342 65.056 164.208C64.9538 164.075 64.8146 163.965 64.6384 163.88C64.4623 163.795 64.2421 163.752 63.9779 163.752C63.6171 163.752 63.316 163.833 63.0745 163.995C62.833 164.154 62.7123 164.36 62.7123 164.613C62.7123 164.832 62.7932 165.008 62.9552 165.142C63.1171 165.275 63.3785 165.384 63.7393 165.47L64.779 165.708C65.3813 165.847 65.8302 166.062 66.1256 166.352C66.4211 166.642 66.5688 167.018 66.5688 167.481C66.5688 167.873 66.4552 168.222 66.2279 168.529C66.0035 168.833 65.6896 169.072 65.2861 169.245C64.8856 169.419 64.4211 169.505 63.8927 169.505C63.1597 169.505 62.5617 169.349 62.0986 169.036C61.6356 168.721 61.3515 168.274 61.2464 167.694L62.4779 167.507C62.5546 167.828 62.7123 168.07 62.9509 168.235C63.1896 168.397 63.5006 168.478 63.8842 168.478C64.3018 168.478 64.6356 168.392 64.8856 168.218C65.1356 168.042 65.2606 167.828 65.2606 167.575C65.2606 167.37 65.1839 167.198 65.0305 167.059C64.8799 166.92 64.6484 166.815 64.3359 166.744L63.2279 166.501C62.6171 166.362 62.1654 166.14 61.8728 165.836C61.583 165.532 61.4381 165.147 61.4381 164.681C61.4381 164.295 61.5461 163.957 61.762 163.667C61.9779 163.377 62.2762 163.151 62.6569 162.99C63.0376 162.825 63.4736 162.742 63.9651 162.742C64.6725 162.742 65.2293 162.896 65.6356 163.203C66.0418 163.507 66.3103 163.914 66.441 164.426ZM68.192 169.373V160.646H69.4662V163.889H69.5429C69.6167 163.752 69.7233 163.595 69.8625 163.416C70.0017 163.237 70.1948 163.08 70.442 162.947C70.6892 162.811 71.0159 162.742 71.4221 162.742C71.9505 162.742 72.4221 162.876 72.8369 163.143C73.2517 163.41 73.577 163.795 73.8127 164.298C74.0514 164.801 74.1707 165.406 74.1707 166.113C74.1707 166.82 74.0528 167.427 73.817 167.933C73.5812 168.436 73.2573 168.823 72.8454 169.096C72.4335 169.366 71.9633 169.501 71.4349 169.501C71.0372 169.501 70.7119 169.434 70.4591 169.301C70.2091 169.167 70.013 169.011 69.871 168.832C69.7289 168.653 69.6196 168.494 69.5429 168.355H69.4363V169.373H68.192ZM69.4406 166.1C69.4406 166.561 69.5073 166.964 69.6409 167.311C69.7744 167.657 69.9676 167.928 70.2204 168.124C70.4733 168.318 70.7829 168.414 71.1494 168.414C71.5301 168.414 71.8483 168.313 72.1039 168.112C72.3596 167.907 72.5528 167.63 72.6835 167.281C72.817 166.931 72.8838 166.538 72.8838 166.1C72.8838 165.669 72.8184 165.281 72.6877 164.937C72.5599 164.593 72.3667 164.322 72.1082 164.123C71.8525 163.924 71.5329 163.825 71.1494 163.825C70.7801 163.825 70.4676 163.92 70.2119 164.11C69.9591 164.301 69.7673 164.566 69.6366 164.907C69.5059 165.248 69.4406 165.646 69.4406 166.1ZM78.5425 169.505C77.8976 169.505 77.3422 169.367 76.8763 169.092C76.4132 168.813 76.0553 168.423 75.8024 167.92C75.5524 167.414 75.4274 166.822 75.4274 166.143C75.4274 165.472 75.5524 164.882 75.8024 164.37C76.0553 163.859 76.4075 163.46 76.8592 163.173C77.3138 162.886 77.845 162.742 78.453 162.742C78.8223 162.742 79.1803 162.803 79.5269 162.926C79.8734 163.048 80.1845 163.24 80.4601 163.501C80.7357 163.762 80.953 164.102 81.1121 164.519C81.2712 164.934 81.3507 165.438 81.3507 166.032V166.484H76.1476V165.529H80.1021C80.1021 165.194 80.034 164.897 79.8976 164.639C79.7612 164.377 79.5695 164.171 79.3223 164.021C79.078 163.87 78.7911 163.795 78.4615 163.795C78.1036 163.795 77.7911 163.883 77.524 164.059C77.2598 164.232 77.0553 164.46 76.9104 164.741C76.7683 165.019 76.6973 165.322 76.6973 165.649V166.394C76.6973 166.832 76.774 167.204 76.9274 167.511C77.0837 167.818 77.301 168.052 77.5794 168.214C77.8578 168.373 78.1831 168.453 78.5553 168.453C78.7967 168.453 79.0169 168.419 79.2158 168.35C79.4146 168.279 79.5865 168.174 79.7314 168.035C79.8763 167.896 79.9871 167.724 80.0638 167.519L81.2698 167.737C81.1732 168.092 80.9999 168.403 80.7499 168.67C80.5027 168.934 80.1916 169.14 79.8166 169.288C79.4445 169.433 79.0198 169.505 78.5425 169.505ZM84.0563 167.153L84.0478 165.597H84.2694L86.8773 162.828H88.4029L85.4285 165.981H85.2282L84.0563 167.153ZM82.8844 169.373V160.646H84.1586V169.373H82.8844ZM87.0179 169.373L84.6742 166.262L85.552 165.372L88.5819 169.373H87.0179ZM90.856 167.153L90.8475 165.597H91.0691L93.677 162.828H95.2026L92.2281 165.981H92.0279L90.856 167.153ZM89.6841 169.373V160.646H90.9583V169.373H89.6841ZM93.8176 169.373L91.4739 166.262L92.3517 165.372L95.3816 169.373H93.8176ZM99.0353 169.505C98.3904 169.505 97.835 169.367 97.3691 169.092C96.906 168.813 96.5481 168.423 96.2952 167.92C96.0452 167.414 95.9202 166.822 95.9202 166.143C95.9202 165.472 96.0452 164.882 96.2952 164.37C96.5481 163.859 96.9003 163.46 97.3521 163.173C97.8066 162.886 98.3378 162.742 98.9458 162.742C99.3151 162.742 99.6731 162.803 100.02 162.926C100.366 163.048 100.677 163.24 100.953 163.501C101.228 163.762 101.446 164.102 101.605 164.519C101.764 164.934 101.844 165.438 101.844 166.032V166.484H96.6404V165.529H100.595C100.595 165.194 100.527 164.897 100.39 164.639C100.254 164.377 100.062 164.171 99.8151 164.021C99.5708 163.87 99.2839 163.795 98.9543 163.795C98.5964 163.795 98.2839 163.883 98.0168 164.059C97.7526 164.232 97.5481 164.46 97.4032 164.741C97.2611 165.019 97.1901 165.322 97.1901 165.649V166.394C97.1901 166.832 97.2668 167.204 97.4202 167.511C97.5765 167.818 97.7938 168.052 98.0722 168.214C98.3506 168.373 98.6759 168.453 99.0481 168.453C99.2896 168.453 99.5097 168.419 99.7086 168.35C99.9075 168.279 100.079 168.174 100.224 168.035C100.369 167.896 100.48 167.724 100.557 167.519L101.763 167.737C101.666 168.092 101.493 168.403 101.243 168.67C100.996 168.934 100.684 169.14 100.309 169.288C99.9373 169.433 99.5126 169.505 99.0353 169.505ZM103.377 169.373V162.828H104.609V163.867H104.677C104.796 163.515 105.006 163.238 105.308 163.036C105.612 162.832 105.955 162.73 106.339 162.73C106.418 162.73 106.512 162.732 106.62 162.738C106.731 162.744 106.818 162.751 106.88 162.759V163.978C106.829 163.964 106.738 163.948 106.607 163.931C106.477 163.911 106.346 163.901 106.215 163.901C105.914 163.901 105.646 163.965 105.41 164.093C105.177 164.218 104.992 164.393 104.856 164.617C104.72 164.839 104.651 165.092 104.651 165.376V169.373H103.377ZM113.008 164.426L111.853 164.63C111.804 164.482 111.728 164.342 111.623 164.208C111.52 164.075 111.381 163.965 111.205 163.88C111.029 163.795 110.809 163.752 110.544 163.752C110.184 163.752 109.883 163.833 109.641 163.995C109.4 164.154 109.279 164.36 109.279 164.613C109.279 164.832 109.36 165.008 109.522 165.142C109.684 165.275 109.945 165.384 110.306 165.47L111.346 165.708C111.948 165.847 112.397 166.062 112.692 166.352C112.988 166.642 113.135 167.018 113.135 167.481C113.135 167.873 113.022 168.222 112.794 168.529C112.57 168.833 112.256 169.072 111.853 169.245C111.452 169.419 110.988 169.505 110.459 169.505C109.726 169.505 109.128 169.349 108.665 169.036C108.202 168.721 107.918 168.274 107.813 167.694L109.044 167.507C109.121 167.828 109.279 168.07 109.517 168.235C109.756 168.397 110.067 168.478 110.451 168.478C110.868 168.478 111.202 168.392 111.452 168.218C111.702 168.042 111.827 167.828 111.827 167.575C111.827 167.37 111.75 167.198 111.597 167.059C111.446 166.92 111.215 166.815 110.902 166.744L109.794 166.501C109.184 166.362 108.732 166.14 108.439 165.836C108.15 165.532 108.005 165.147 108.005 164.681C108.005 164.295 108.113 163.957 108.329 163.667C108.544 163.377 108.843 163.151 109.223 162.99C109.604 162.825 110.04 162.742 110.532 162.742C111.239 162.742 111.796 162.896 112.202 163.203C112.608 163.507 112.877 163.914 113.008 164.426Z" fill="white"/>
<rect x="48.5" y="153.873" width="73" height="23" rx="11.5" stroke="url(#paint7_linear_1315_6163)" stroke-opacity="0.08"/>
</g>
<g filter="url(#filter7_d_1315_6163)">
<path d="M325.322 99.7232L322 117L336.619 108.362L329.309 106.368L325.322 99.7232Z" fill="#8768FF"/>
<path d="M322.254 117.43L321.3 117.995L321.509 116.906L324.831 99.6288L325.078 98.3446L325.751 99.4659L329.635 105.939L336.75 107.879L337.891 108.19L336.873 108.792L322.254 117.43Z" stroke="#AA95FF" stroke-linecap="square"/>
</g>
<g filter="url(#filter8_bd_1315_6163)">
<rect x="336.264" y="71" width="48" height="24" rx="12" fill="white" fill-opacity="0.03"/>
<rect x="336.264" y="71" width="48" height="24" rx="12" fill="url(#paint8_radial_1315_6163)" fill-opacity="0.08"/>
<path d="M345.555 87V78.2727H346.872V82.0653H351.222V78.2727H352.543V87H351.222V83.1946H346.872V87H345.555ZM357.3 87.1321C356.655 87.1321 356.099 86.9943 355.634 86.7188C355.17 86.4403 354.813 86.0497 354.56 85.5469C354.31 85.0412 354.185 84.4489 354.185 83.7699C354.185 83.0994 354.31 82.5085 354.56 81.9972C354.813 81.4858 355.165 81.0866 355.617 80.7997C356.071 80.5128 356.602 80.3693 357.21 80.3693C357.58 80.3693 357.938 80.4304 358.284 80.5526C358.631 80.6747 358.942 80.8665 359.217 81.1278C359.493 81.3892 359.71 81.7287 359.869 82.1463C360.028 82.5611 360.108 83.0653 360.108 83.6591V84.1108H354.905V83.1562H358.859C358.859 82.821 358.791 82.5241 358.655 82.2656C358.518 82.0043 358.327 81.7983 358.08 81.6477C357.835 81.4972 357.548 81.4219 357.219 81.4219C356.861 81.4219 356.548 81.5099 356.281 81.6861C356.017 81.8594 355.813 82.0866 355.668 82.3679C355.526 82.6463 355.455 82.9489 355.455 83.2756V84.0213C355.455 84.4588 355.531 84.831 355.685 85.1378C355.841 85.4446 356.058 85.679 356.337 85.8409C356.615 86 356.94 86.0795 357.313 86.0795C357.554 86.0795 357.774 86.0455 357.973 85.9773C358.172 85.9062 358.344 85.8011 358.489 85.6619C358.634 85.5227 358.744 85.3509 358.821 85.1463L360.027 85.3636C359.93 85.7187 359.757 86.0298 359.507 86.2969C359.26 86.5611 358.949 86.767 358.574 86.9148C358.202 87.0597 357.777 87.1321 357.3 87.1321ZM362.916 83.1136V87H361.642V80.4545H362.865V81.5199H362.946C363.096 81.1733 363.332 80.8949 363.653 80.6847C363.977 80.4744 364.385 80.3693 364.876 80.3693C365.322 80.3693 365.713 80.4631 366.048 80.6506C366.383 80.8352 366.643 81.1108 366.828 81.4773C367.012 81.8437 367.105 82.2969 367.105 82.8366V87H365.831V82.9901C365.831 82.5156 365.707 82.1449 365.46 81.8778C365.213 81.608 364.873 81.473 364.441 81.473C364.146 81.473 363.883 81.5369 363.653 81.6648C363.426 81.7926 363.245 81.9801 363.112 82.2273C362.981 82.4716 362.916 82.767 362.916 83.1136ZM371.955 87.1193C371.37 87.1193 370.847 87.0185 370.387 86.8168C369.929 86.6151 369.567 86.3352 369.3 85.9773C369.036 85.6165 368.894 85.1989 368.874 84.7244H370.212C370.229 84.983 370.316 85.2074 370.472 85.3977C370.631 85.5852 370.838 85.7301 371.094 85.8324C371.35 85.9347 371.634 85.9858 371.946 85.9858C372.29 85.9858 372.594 85.9261 372.858 85.8068C373.125 85.6875 373.334 85.5213 373.485 85.3082C373.635 85.0923 373.711 84.8438 373.711 84.5625C373.711 84.2699 373.635 84.0128 373.485 83.7912C373.337 83.5668 373.12 83.3906 372.833 83.2628C372.549 83.1349 372.205 83.071 371.801 83.071H371.064V81.9972H371.801C372.125 81.9972 372.409 81.9389 372.654 81.8224C372.901 81.706 373.094 81.544 373.233 81.3366C373.372 81.1264 373.442 80.8807 373.442 80.5994C373.442 80.3295 373.381 80.0952 373.259 79.8963C373.14 79.6946 372.969 79.5369 372.747 79.4233C372.529 79.3097 372.27 79.2528 371.972 79.2528C371.688 79.2528 371.422 79.3054 371.175 79.4105C370.931 79.5128 370.732 79.6605 370.578 79.8537C370.425 80.044 370.343 80.2727 370.331 80.5398H369.057C369.071 80.0682 369.211 79.6534 369.475 79.2955C369.742 78.9375 370.094 78.6577 370.532 78.456C370.969 78.2543 371.455 78.1534 371.989 78.1534C372.549 78.1534 373.032 78.2628 373.438 78.4815C373.847 78.6974 374.162 78.9858 374.384 79.3466C374.608 79.7074 374.719 80.1023 374.716 80.5312C374.719 81.0199 374.583 81.4347 374.307 81.7756C374.034 82.1165 373.671 82.3452 373.216 82.4616V82.5298C373.796 82.6179 374.245 82.848 374.563 83.2202C374.884 83.5923 375.043 84.054 375.04 84.6051C375.043 85.0852 374.909 85.5156 374.64 85.8963C374.372 86.277 374.007 86.5767 373.544 86.7955C373.081 87.0114 372.551 87.1193 371.955 87.1193Z" fill="white"/>
<rect x="336.764" y="71.5" width="47" height="23" rx="11.5" stroke="url(#paint9_linear_1315_6163)" stroke-opacity="0.08"/>
</g>
</g>
<defs>
<filter id="filter0_b_1315_6163" x="-32" y="-32" width="644" height="428" filterUnits="userSpaceOnUse" color-interpolation-filters="sRGB">
<feFlood flood-opacity="0" result="BackgroundImageFix"/>
<feGaussianBlur in="BackgroundImageFix" stdDeviation="16"/>
<feComposite in2="SourceAlpha" operator="in" result="effect1_backgroundBlur_1315_6163"/>
<feBlend mode="normal" in="SourceGraphic" in2="effect1_backgroundBlur_1315_6163" result="shape"/>
</filter>
<filter id="filter1_b_1315_6163" x="-4" y="42" width="486" height="383" filterUnits="userSpaceOnUse" color-interpolation-filters="sRGB">
<feFlood flood-opacity="0" result="BackgroundImageFix"/>
<feGaussianBlur in="BackgroundImageFix" stdDeviation="70"/>
<feComposite in2="SourceAlpha" operator="in" result="effect1_backgroundBlur_1315_6163"/>
<feBlend mode="normal" in="SourceGraphic" in2="effect1_backgroundBlur_1315_6163" result="shape"/>
</filter>
<filter id="filter2_b_1315_6163" x="-22.2437" y="-98" width="522.487" height="386.814" filterUnits="userSpaceOnUse" color-interpolation-filters="sRGB">
<feFlood flood-opacity="0" result="BackgroundImageFix"/>
<feGaussianBlur in="BackgroundImageFix" stdDeviation="70"/>
<feComposite in2="SourceAlpha" operator="in" result="effect1_backgroundBlur_1315_6163"/>
<feBlend mode="normal" in="SourceGraphic" in2="effect1_backgroundBlur_1315_6163" result="shape"/>
</filter>
<filter id="filter3_d_1315_6163" x="323.18" y="251.462" width="26.5389" height="29.9972" filterUnits="userSpaceOnUse" color-interpolation-filters="sRGB">
<feFlood flood-opacity="0" result="BackgroundImageFix"/>
<feColorMatrix in="SourceAlpha" type="matrix" values="0 0 0 0 0 0 0 0 0 0 0 0 0 0 0 0 0 0 127 0" result="hardAlpha"/>
<feOffset dy="1.32898"/>
<feGaussianBlur stdDeviation="1.99348"/>
<feColorMatrix type="matrix" values="0 0 0 0 0 0 0 0 0 0 0 0 0 0 0 0 0 0 0.35 0"/>
<feBlend mode="normal" in2="BackgroundImageFix" result="effect1_dropShadow_1315_6163"/>
<feBlend mode="normal" in="SourceGraphic" in2="effect1_dropShadow_1315_6163" result="shape"/>
</filter>
<filter id="filter4_bd_1315_6163" x="334.831" y="269.373" width="91" height="40" filterUnits="userSpaceOnUse" color-interpolation-filters="sRGB">
<feFlood flood-opacity="0" result="BackgroundImageFix"/>
<feGaussianBlur in="BackgroundImageFix" stdDeviation="4"/>
<feComposite in2="SourceAlpha" operator="in" result="effect1_backgroundBlur_1315_6163"/>
<feColorMatrix in="SourceAlpha" type="matrix" values="0 0 0 0 0 0 0 0 0 0 0 0 0 0 0 0 0 0 127 0" result="hardAlpha"/>
<feOffset dy="1.32898"/>
<feGaussianBlur stdDeviation="2.65797"/>
<feColorMatrix type="matrix" values="0 0 0 0 0 0 0 0 0 0 0 0 0 0 0 0 0 0 0.16 0"/>
<feBlend mode="normal" in2="effect1_backgroundBlur_1315_6163" result="effect2_dropShadow_1315_6163"/>
<feBlend mode="normal" in="SourceGraphic" in2="effect2_dropShadow_1315_6163" result="shape"/>
</filter>
<filter id="filter5_d_1315_6163" x="115.282" y="127.353" width="26.5389" height="29.9971" filterUnits="userSpaceOnUse" color-interpolation-filters="sRGB">
<feFlood flood-opacity="0" result="BackgroundImageFix"/>
<feColorMatrix in="SourceAlpha" type="matrix" values="0 0 0 0 0 0 0 0 0 0 0 0 0 0 0 0 0 0 127 0" result="hardAlpha"/>
<feOffset dy="1.32898"/>
<feGaussianBlur stdDeviation="1.99348"/>
<feColorMatrix type="matrix" values="0 0 0 0 0 0 0 0 0 0 0 0 0 0 0 0 0 0 0.35 0"/>
<feBlend mode="normal" in2="BackgroundImageFix" result="effect1_dropShadow_1315_6163"/>
<feBlend mode="normal" in="SourceGraphic" in2="effect1_dropShadow_1315_6163" result="shape"/>
</filter>
<filter id="filter6_bd_1315_6163" x="40" y="145.373" width="90" height="40" filterUnits="userSpaceOnUse" color-interpolation-filters="sRGB">
<feFlood flood-opacity="0" result="BackgroundImageFix"/>
<feGaussianBlur in="BackgroundImageFix" stdDeviation="4"/>
<feComposite in2="SourceAlpha" operator="in" result="effect1_backgroundBlur_1315_6163"/>
<feColorMatrix in="SourceAlpha" type="matrix" values="0 0 0 0 0 0 0 0 0 0 0 0 0 0 0 0 0 0 127 0" result="hardAlpha"/>
<feOffset dy="1.32898"/>
<feGaussianBlur stdDeviation="2.65797"/>
<feColorMatrix type="matrix" values="0 0 0 0 0 0 0 0 0 0 0 0 0 0 0 0 0 0 0.16 0"/>
<feBlend mode="normal" in2="effect1_backgroundBlur_1315_6163" result="effect2_dropShadow_1315_6163"/>
<feBlend mode="normal" in="SourceGraphic" in2="effect2_dropShadow_1315_6163" result="shape"/>
</filter>
<filter id="filter7_d_1315_6163" x="316.612" y="94.3081" width="26.5389" height="29.9971" filterUnits="userSpaceOnUse" color-interpolation-filters="sRGB">
<feFlood flood-opacity="0" result="BackgroundImageFix"/>
<feColorMatrix in="SourceAlpha" type="matrix" values="0 0 0 0 0 0 0 0 0 0 0 0 0 0 0 0 0 0 127 0" result="hardAlpha"/>
<feOffset dy="1.32898"/>
<feGaussianBlur stdDeviation="1.99348"/>
<feColorMatrix type="matrix" values="0 0 0 0 0 0 0 0 0 0 0 0 0 0 0 0 0 0 0.35 0"/>
<feBlend mode="normal" in2="BackgroundImageFix" result="effect1_dropShadow_1315_6163"/>
<feBlend mode="normal" in="SourceGraphic" in2="effect1_dropShadow_1315_6163" result="shape"/>
</filter>
<filter id="filter8_bd_1315_6163" x="328.264" y="63" width="64" height="40" filterUnits="userSpaceOnUse" color-interpolation-filters="sRGB">
<feFlood flood-opacity="0" result="BackgroundImageFix"/>
<feGaussianBlur in="BackgroundImageFix" stdDeviation="4"/>
<feComposite in2="SourceAlpha" operator="in" result="effect1_backgroundBlur_1315_6163"/>
<feColorMatrix in="SourceAlpha" type="matrix" values="0 0 0 0 0 0 0 0 0 0 0 0 0 0 0 0 0 0 127 0" result="hardAlpha"/>
<feOffset dy="1.32898"/>
<feGaussianBlur stdDeviation="2.65797"/>
<feColorMatrix type="matrix" values="0 0 0 0 0 0 0 0 0 0 0 0 0 0 0 0 0 0 0.16 0"/>
<feBlend mode="normal" in2="effect1_backgroundBlur_1315_6163" result="effect2_dropShadow_1315_6163"/>
<feBlend mode="normal" in="SourceGraphic" in2="effect2_dropShadow_1315_6163" result="shape"/>
</filter>
<linearGradient id="paint0_linear_1315_6163" x1="239" y1="182" x2="239" y2="285" gradientUnits="userSpaceOnUse">
<stop stop-color="white" stop-opacity="0"/>
<stop offset="1" stop-color="white"/>
</linearGradient>
<linearGradient id="paint1_linear_1315_6163" x1="239" y1="42" x2="239" y2="188.667" gradientUnits="userSpaceOnUse">
<stop stop-color="white"/>
<stop offset="1" stop-color="white" stop-opacity="0"/>
</linearGradient>
<radialGradient id="paint2_radial_1315_6163" cx="0" cy="0" r="1" gradientUnits="userSpaceOnUse" gradientTransform="translate(380.331 289.373) rotate(90) scale(15.4286 37.5)">
<stop stop-color="white"/>
<stop offset="1" stop-color="white" stop-opacity="0"/>
<stop offset="1" stop-color="white" stop-opacity="0"/>
</radialGradient>
<linearGradient id="paint3_linear_1315_6163" x1="380.331" y1="277.373" x2="380.331" y2="301.373" gradientUnits="userSpaceOnUse">
<stop stop-color="white"/>
<stop offset="1" stop-color="white" stop-opacity="0"/>
</linearGradient>
<linearGradient id="paint4_linear_1315_6163" x1="238.074" y1="169.038" x2="238.074" y2="190.234" gradientUnits="userSpaceOnUse">
<stop stop-color="white"/>
<stop offset="1" stop-color="white" stop-opacity="0"/>
</linearGradient>
<linearGradient id="paint5_linear_1315_6163" x1="239" y1="142" x2="239" y2="222" gradientUnits="userSpaceOnUse">
<stop stop-color="white"/>
<stop offset="1" stop-color="white" stop-opacity="0"/>
</linearGradient>
<radialGradient id="paint6_radial_1315_6163" cx="0" cy="0" r="1" gradientUnits="userSpaceOnUse" gradientTransform="translate(85 165.373) rotate(90) scale(15.4286 37)">
<stop stop-color="white"/>
<stop offset="1" stop-color="white" stop-opacity="0"/>
<stop offset="1" stop-color="white" stop-opacity="0"/>
</radialGradient>
<linearGradient id="paint7_linear_1315_6163" x1="85" y1="153.373" x2="85" y2="177.373" gradientUnits="userSpaceOnUse">
<stop stop-color="white"/>
<stop offset="1" stop-color="white" stop-opacity="0"/>
</linearGradient>
<radialGradient id="paint8_radial_1315_6163" cx="0" cy="0" r="1" gradientUnits="userSpaceOnUse" gradientTransform="translate(360.264 83) rotate(90) scale(15.4286 24)">
<stop stop-color="white"/>
<stop offset="1" stop-color="white" stop-opacity="0"/>
<stop offset="1" stop-color="white" stop-opacity="0"/>
</radialGradient>
<linearGradient id="paint9_linear_1315_6163" x1="360.264" y1="71" x2="360.264" y2="95" gradientUnits="userSpaceOnUse">
<stop stop-color="white"/>
<stop offset="1" stop-color="white" stop-opacity="0"/>
</linearGradient>
</defs>
</svg>
