<svg width="580" height="364" viewBox="0 0 580 364" fill="none" xmlns="http://www.w3.org/2000/svg">
<g filter="url(#filter0_b_1315_6246)">
<rect width="580" height="364" fill="white" fill-opacity="0.01"/>
<g filter="url(#filter1_b_1315_6246)">
<g clip-path="url(#clip0_1315_6246)">
<path d="M192 96C192 73.9086 209.909 56 232 56H516C520.418 56 524 59.5817 524 64V364H192V96Z" fill="white" fill-opacity="0.02"/>
<path d="M228.012 99.0024H224.27V87.4422H228.131C229.264 87.4422 230.236 87.6737 231.049 88.1365C231.862 88.5956 232.485 89.256 232.918 90.1178C233.354 90.9758 233.572 92.005 233.572 93.2054C233.572 94.4096 233.352 95.4444 232.912 96.31C232.475 97.1755 231.843 97.8415 231.015 98.3082C230.187 98.771 229.187 99.0024 228.012 99.0024ZM226.014 97.4784H227.916C228.797 97.4784 229.529 97.3128 230.112 96.9817C230.696 96.6467 231.132 96.1632 231.422 95.531C231.712 94.895 231.856 94.1198 231.856 93.2054C231.856 92.2985 231.712 91.529 231.422 90.8968C231.136 90.2646 230.709 89.7848 230.14 89.4574C229.572 89.13 228.867 88.9663 228.024 88.9663H226.014V97.4784ZM238.693 99.1718C237.993 99.1718 237.368 98.993 236.819 98.6355C236.273 98.2743 235.844 97.7606 235.532 97.0946C235.223 96.4247 235.069 95.6213 235.069 94.6843C235.069 93.7473 235.225 92.9458 235.537 92.2797C235.853 91.6136 236.286 91.1037 236.835 90.75C237.385 90.3963 238.008 90.2194 238.704 90.2194C239.242 90.2194 239.675 90.3097 240.002 90.4903C240.333 90.6672 240.589 90.8742 240.77 91.1113C240.954 91.3483 241.097 91.5572 241.199 91.7378H241.3V90.3323H242.988V99.0024H241.34V97.6534H241.199C241.097 97.8378 240.95 98.0485 240.759 98.2856C240.57 98.5226 240.311 98.7296 239.98 98.9065C239.648 99.0833 239.219 99.1718 238.693 99.1718ZM239.065 97.7324C239.551 97.7324 239.961 97.6045 240.296 97.3486C240.634 97.0889 240.89 96.7295 241.063 96.2704C241.24 95.8113 241.329 95.277 241.329 94.6674C241.329 94.0653 241.242 93.5384 241.069 93.0869C240.896 92.6353 240.642 92.2835 240.307 92.0313C239.972 91.7792 239.558 91.6531 239.065 91.6531C238.557 91.6531 238.134 91.7848 237.795 92.0483C237.456 92.3117 237.201 92.671 237.027 93.1264C236.858 93.5817 236.773 94.0954 236.773 94.6674C236.773 95.2469 236.86 95.7681 237.033 96.2309C237.206 96.6938 237.462 97.0607 237.801 97.3316C238.143 97.5988 238.565 97.7324 239.065 97.7324ZM251.735 92.449L250.205 92.72C250.141 92.5243 250.04 92.338 249.9 92.1612C249.765 91.9843 249.581 91.8394 249.347 91.7265C249.114 91.6136 248.822 91.5572 248.472 91.5572C247.994 91.5572 247.596 91.6644 247.276 91.8789C246.956 92.0897 246.796 92.3625 246.796 92.6974C246.796 92.9871 246.903 93.2205 247.118 93.3973C247.332 93.5742 247.678 93.7191 248.156 93.832L249.534 94.1481C250.331 94.3325 250.926 94.6166 251.317 95.0004C251.709 95.3842 251.904 95.8828 251.904 96.4962C251.904 97.0155 251.754 97.4784 251.453 97.8848C251.155 98.2875 250.74 98.6036 250.205 98.8331C249.675 99.0627 249.059 99.1774 248.36 99.1774C247.389 99.1774 246.597 98.9705 245.983 98.5565C245.37 98.1388 244.993 97.5461 244.854 96.7785L246.485 96.5301C246.587 96.9553 246.796 97.2771 247.112 97.4953C247.428 97.7098 247.84 97.8171 248.348 97.8171C248.901 97.8171 249.344 97.7023 249.675 97.4727C250.006 97.2394 250.171 96.9553 250.171 96.6204C250.171 96.3495 250.07 96.1218 249.867 95.9374C249.667 95.753 249.36 95.6138 248.947 95.5197L247.479 95.198C246.67 95.0136 246.072 94.7201 245.684 94.3174C245.3 93.9147 245.108 93.4049 245.108 92.7877C245.108 92.2759 245.251 91.8281 245.537 91.4443C245.823 91.0604 246.218 90.7613 246.723 90.5468C247.227 90.3285 247.804 90.2194 248.455 90.2194C249.392 90.2194 250.13 90.4226 250.668 90.829C251.206 91.2317 251.562 91.7717 251.735 92.449ZM255.289 93.8545V99.0024H253.601V87.4422H255.266V91.7434H255.373C255.577 91.2768 255.887 90.9062 256.305 90.6315C256.723 90.3568 257.268 90.2194 257.942 90.2194C258.536 90.2194 259.056 90.3417 259.5 90.5863C259.947 90.8309 260.294 91.1959 260.538 91.6814C260.787 92.163 260.911 92.7651 260.911 93.4876V99.0024H259.223V93.6908C259.223 93.0549 259.059 92.5619 258.732 92.212C258.405 91.8582 257.949 91.6814 257.366 91.6814C256.967 91.6814 256.61 91.766 256.294 91.9354C255.981 92.1047 255.735 92.3531 255.554 92.6805C255.377 93.0041 255.289 93.3954 255.289 93.8545ZM263.14 99.0024V87.4422H264.827V91.7378H264.929C265.027 91.5572 265.168 91.3483 265.352 91.1113C265.537 90.8742 265.793 90.6672 266.12 90.4903C266.447 90.3097 266.88 90.2194 267.418 90.2194C268.118 90.2194 268.743 90.3963 269.292 90.75C269.842 91.1037 270.273 91.6136 270.585 92.2797C270.901 92.9458 271.059 93.7473 271.059 94.6843C271.059 95.6213 270.903 96.4247 270.59 97.0946C270.278 97.7606 269.849 98.2743 269.304 98.6355C268.758 98.993 268.135 99.1718 267.435 99.1718C266.908 99.1718 266.477 99.0833 266.143 98.9065C265.811 98.7296 265.552 98.5226 265.364 98.2856C265.175 98.0485 265.031 97.8378 264.929 97.6534H264.788V99.0024H263.14ZM264.793 94.6674C264.793 95.277 264.882 95.8113 265.059 96.2704C265.236 96.7295 265.491 97.0889 265.826 97.3486C266.161 97.6045 266.572 97.7324 267.057 97.7324C267.561 97.7324 267.983 97.5988 268.321 97.3316C268.66 97.0607 268.916 96.6938 269.089 96.2309C269.266 95.7681 269.354 95.2469 269.354 94.6674C269.354 94.0954 269.268 93.5817 269.095 93.1264C268.925 92.671 268.669 92.3117 268.327 92.0483C267.988 91.7848 267.565 91.6531 267.057 91.6531C266.568 91.6531 266.154 91.7792 265.815 92.0313C265.48 92.2835 265.226 92.6353 265.053 93.0869C264.88 93.5384 264.793 94.0653 264.793 94.6674ZM276.447 99.1774C275.634 99.1774 274.925 98.9912 274.319 98.6186C273.713 98.2461 273.243 97.7249 272.908 97.055C272.573 96.3852 272.406 95.6025 272.406 94.7069C272.406 93.8075 272.573 93.021 272.908 92.3474C273.243 91.6738 273.713 91.1508 274.319 90.7782C274.925 90.4057 275.634 90.2194 276.447 90.2194C277.26 90.2194 277.969 90.4057 278.575 90.7782C279.181 91.1508 279.652 91.6738 279.986 92.3474C280.321 93.021 280.489 93.8075 280.489 94.7069C280.489 95.6025 280.321 96.3852 279.986 97.055C279.652 97.7249 279.181 98.2461 278.575 98.6186C277.969 98.9912 277.26 99.1774 276.447 99.1774ZM276.453 97.7606C276.98 97.7606 277.416 97.6214 277.762 97.3429C278.109 97.0645 278.365 96.6938 278.53 96.2309C278.699 95.7681 278.784 95.2582 278.784 94.7012C278.784 94.1481 278.699 93.64 278.53 93.1772C278.365 92.7106 278.109 92.3361 277.762 92.0539C277.416 91.7717 276.98 91.6306 276.453 91.6306C275.922 91.6306 275.482 91.7717 275.132 92.0539C274.786 92.3361 274.528 92.7106 274.359 93.1772C274.193 93.64 274.11 94.1481 274.11 94.7012C274.11 95.2582 274.193 95.7681 274.359 96.2309C274.528 96.6938 274.786 97.0645 275.132 97.3429C275.482 97.6214 275.922 97.7606 276.453 97.7606ZM285.459 99.1718C284.76 99.1718 284.135 98.993 283.585 98.6355C283.04 98.2743 282.611 97.7606 282.298 97.0946C281.99 96.4247 281.836 95.6213 281.836 94.6843C281.836 93.7473 281.992 92.9458 282.304 92.2797C282.62 91.6136 283.053 91.1037 283.602 90.75C284.152 90.3963 284.775 90.2194 285.471 90.2194C286.009 90.2194 286.442 90.3097 286.769 90.4903C287.1 90.6672 287.356 90.8742 287.537 91.1113C287.721 91.3483 287.864 91.5572 287.966 91.7378H288.067V90.3323H289.755V99.0024H288.107V97.6534H287.966C287.864 97.8378 287.717 98.0485 287.525 98.2856C287.337 98.5226 287.078 98.7296 286.746 98.9065C286.415 99.0833 285.986 99.1718 285.459 99.1718ZM285.832 97.7324C286.317 97.7324 286.728 97.6045 287.063 97.3486C287.401 97.0889 287.657 96.7295 287.83 96.2704C288.007 95.8113 288.095 95.277 288.095 94.6674C288.095 94.0653 288.009 93.5384 287.836 93.0869C287.663 92.6353 287.409 92.2835 287.074 92.0313C286.739 91.7792 286.325 91.6531 285.832 91.6531C285.324 91.6531 284.901 91.7848 284.562 92.0483C284.223 92.3117 283.967 92.671 283.794 93.1264C283.625 93.5817 283.54 94.0954 283.54 94.6674C283.54 95.2469 283.627 95.7681 283.8 96.2309C283.973 96.6938 284.229 97.0607 284.568 97.3316C284.91 97.5988 285.332 97.7324 285.832 97.7324ZM292.005 99.0024V90.3323H293.636V91.7096H293.727C293.885 91.243 294.163 90.8761 294.562 90.6089C294.961 90.3379 295.416 90.2025 295.928 90.2025C296.165 90.2025 296.378 90.2307 296.566 90.2871C296.754 90.3436 296.919 90.4207 297.062 90.5186L296.521 91.9297C296.419 91.8808 296.304 91.8413 296.176 91.8112C296.048 91.7773 295.902 91.7604 295.736 91.7604C295.345 91.7604 294.995 91.8451 294.686 92.0144C294.381 92.18 294.139 92.4095 293.958 92.703C293.781 92.9966 293.693 93.3315 293.693 93.7078V99.0024H292.005ZM301.083 99.1718C300.383 99.1718 299.759 98.993 299.209 98.6355C298.664 98.2743 298.235 97.7606 297.922 97.0946C297.614 96.4247 297.46 95.6213 297.46 94.6843C297.46 93.7473 297.616 92.9458 297.928 92.2797C298.244 91.6136 298.677 91.1037 299.226 90.75C299.776 90.3963 300.399 90.2194 301.095 90.2194C301.633 90.2194 302.066 90.3097 302.393 90.4903C302.724 90.6672 302.98 90.8742 303.161 91.1113C303.345 91.3483 303.488 91.5572 303.59 91.7378H303.691V87.4422H305.379V99.0024H303.731V97.6534H303.59C303.488 97.8378 303.341 98.0485 303.149 98.2856C302.961 98.5226 302.702 98.7296 302.37 98.9065C302.039 99.0833 301.61 99.1718 301.083 99.1718ZM301.456 97.7324C301.941 97.7324 302.352 97.6045 302.686 97.3486C303.025 97.0889 303.281 96.7295 303.454 96.2704C303.631 95.8113 303.719 95.277 303.719 94.6674C303.719 94.0653 303.633 93.5384 303.46 93.0869C303.287 92.6353 303.033 92.2835 302.698 92.0313C302.363 91.7792 301.949 91.6531 301.456 91.6531C300.948 91.6531 300.525 91.7848 300.186 92.0483C299.847 92.3117 299.591 92.671 299.418 93.1264C299.249 93.5817 299.164 94.0954 299.164 94.6674C299.164 95.2469 299.251 95.7681 299.424 96.2309C299.597 96.6938 299.853 97.0607 300.192 97.3316C300.534 97.5988 300.955 97.7324 301.456 97.7324Z" fill="white"/>
<g filter="url(#filter2_i_1315_6246)">
<rect x="223" y="126.532" width="77.1468" height="33.5046" rx="16.7523" fill="white" fill-opacity="0.02"/>
<g filter="url(#filter3_i_1315_6246)">
<path d="M239.633 142.492H238.049V144.077H239.633V142.492ZM242.801 142.492H241.217V144.077H242.801V142.492ZM245.969 142.492H244.385V144.077H245.969V142.492ZM247.554 136.948H246.761V135.364H245.177V136.948H238.841V135.364H237.257V136.948H236.465C235.586 136.948 234.889 137.661 234.889 138.532L234.881 149.621C234.881 150.492 235.586 151.205 236.465 151.205H247.554C248.425 151.205 249.138 150.492 249.138 149.621V138.532C249.138 137.661 248.425 136.948 247.554 136.948ZM247.554 149.621H236.465V140.908H247.554V149.621Z" fill="#E0A751"/>
</g>
<path d="M260.866 148.284H257.667V137.916H261.008C262.014 137.916 262.875 138.123 263.59 138.539C264.306 138.95 264.854 139.543 265.236 140.316C265.617 141.085 265.808 142.007 265.808 143.08C265.808 144.16 265.615 145.09 265.231 145.869C264.846 146.646 264.286 147.243 263.55 147.662C262.814 148.077 261.92 148.284 260.866 148.284ZM258.922 147.171H260.785C261.643 147.171 262.353 147.005 262.917 146.674C263.481 146.344 263.901 145.873 264.178 145.262C264.454 144.651 264.593 143.924 264.593 143.08C264.593 142.243 264.456 141.522 264.183 140.918C263.909 140.31 263.501 139.845 262.957 139.521C262.414 139.193 261.737 139.03 260.927 139.03H258.922V147.171ZM270.052 148.467C269.559 148.467 269.112 148.374 268.711 148.188C268.309 147.999 267.99 147.728 267.754 147.373C267.517 147.015 267.399 146.583 267.399 146.077C267.399 145.632 267.487 145.27 267.663 144.994C267.838 144.713 268.073 144.494 268.366 144.335C268.66 144.177 268.984 144.059 269.338 143.981C269.696 143.9 270.056 143.836 270.417 143.789C270.889 143.728 271.272 143.682 271.566 143.652C271.863 143.618 272.079 143.563 272.214 143.485C272.352 143.407 272.422 143.272 272.422 143.08V143.039C272.422 142.54 272.285 142.152 272.011 141.875C271.741 141.598 271.331 141.46 270.781 141.46C270.211 141.46 269.764 141.585 269.44 141.834C269.116 142.084 268.888 142.351 268.756 142.634L267.622 142.229C267.825 141.757 268.095 141.389 268.432 141.126C268.773 140.859 269.144 140.673 269.546 140.569C269.951 140.461 270.349 140.407 270.741 140.407C270.99 140.407 271.277 140.437 271.601 140.498C271.929 140.555 272.244 140.675 272.548 140.857C272.855 141.04 273.11 141.315 273.313 141.683C273.515 142.05 273.616 142.543 273.616 143.161V148.284H272.422V147.231H272.361C272.28 147.4 272.145 147.581 271.956 147.773C271.767 147.965 271.515 148.129 271.201 148.264C270.888 148.399 270.504 148.467 270.052 148.467ZM270.234 147.393C270.707 147.393 271.105 147.301 271.429 147.115C271.757 146.929 272.003 146.69 272.168 146.396C272.337 146.102 272.422 145.794 272.422 145.469V144.376C272.371 144.437 272.26 144.492 272.087 144.543C271.919 144.59 271.723 144.632 271.5 144.67C271.281 144.703 271.066 144.734 270.857 144.761C270.651 144.784 270.484 144.805 270.356 144.821C270.045 144.862 269.755 144.928 269.485 145.019C269.218 145.107 269.002 145.24 268.837 145.419C268.675 145.594 268.594 145.834 268.594 146.138C268.594 146.553 268.748 146.867 269.055 147.079C269.365 147.289 269.759 147.393 270.234 147.393ZM279.191 140.508V141.521H275.161V140.508H279.191ZM276.336 138.645H277.53V146.057C277.53 146.394 277.579 146.647 277.677 146.816C277.778 146.982 277.907 147.093 278.062 147.15C278.221 147.204 278.388 147.231 278.563 147.231C278.695 147.231 278.803 147.225 278.887 147.211C278.972 147.194 279.039 147.181 279.09 147.171L279.333 148.244C279.252 148.274 279.139 148.305 278.994 148.335C278.848 148.369 278.664 148.386 278.442 148.386C278.104 148.386 277.773 148.313 277.449 148.168C277.129 148.023 276.862 147.802 276.649 147.505C276.44 147.208 276.336 146.833 276.336 146.381V138.645ZM284.177 148.446C283.428 148.446 282.781 148.281 282.238 147.95C281.698 147.616 281.281 147.15 280.988 146.553C280.697 145.952 280.552 145.253 280.552 144.457C280.552 143.66 280.697 142.958 280.988 142.351C281.281 141.74 281.69 141.264 282.213 140.923C282.739 140.579 283.354 140.407 284.056 140.407C284.461 140.407 284.861 140.474 285.255 140.609C285.65 140.744 286.01 140.964 286.334 141.267C286.658 141.568 286.916 141.966 287.108 142.462C287.301 142.958 287.397 143.569 287.397 144.295V144.801H281.403V143.768H286.182C286.182 143.33 286.094 142.938 285.919 142.594C285.747 142.25 285.5 141.978 285.18 141.779C284.862 141.58 284.488 141.48 284.056 141.48C283.58 141.48 283.168 141.598 282.82 141.834C282.476 142.067 282.211 142.371 282.025 142.746C281.84 143.12 281.747 143.522 281.747 143.951V144.639C281.747 145.226 281.848 145.724 282.051 146.133C282.257 146.538 282.542 146.847 282.906 147.059C283.271 147.268 283.694 147.373 284.177 147.373C284.491 147.373 284.775 147.329 285.028 147.241C285.284 147.15 285.505 147.015 285.691 146.836C285.877 146.654 286.02 146.428 286.121 146.158L287.276 146.482C287.154 146.874 286.95 147.218 286.663 147.515C286.376 147.809 286.022 148.038 285.6 148.203C285.178 148.365 284.704 148.446 284.177 148.446Z" fill="white"/>
<rect x="223.594" y="127.126" width="75.9587" height="32.3165" rx="16.1583" stroke="white" stroke-opacity="0.08" stroke-width="1.18807"/>
</g>
<g filter="url(#filter4_i_1315_6246)">
<rect x="309.651" y="126.532" width="73.1468" height="33.5046" rx="16.7523" fill="white" fill-opacity="0.02"/>
<g filter="url(#filter5_i_1315_6246)">
<path d="M323.314 137.938H334.007C334.164 137.938 334.316 138.001 334.427 138.112C334.538 138.224 334.601 138.375 334.601 138.532V148.037C334.601 148.194 334.538 148.346 334.427 148.457C334.316 148.568 334.164 148.631 334.007 148.631H323.314C323.157 148.631 323.006 148.568 322.894 148.457C322.783 148.346 322.72 148.194 322.72 148.037V138.532C322.72 138.375 322.783 138.224 322.894 138.112C323.006 138.001 323.157 137.938 323.314 137.938V137.938ZM328.696 143.096L324.887 139.862L324.118 140.767L328.704 144.661L333.207 140.764L332.43 139.865L328.697 143.096H328.696Z" fill="#E05151"/>
</g>
<path d="M344.26 137.916H345.759L349.283 146.523H349.404L352.928 137.916H354.426V148.284H353.252V140.407H353.151L349.91 148.284H348.776L345.536 140.407H345.435V148.284H344.26V137.916ZM359.082 148.467C358.589 148.467 358.142 148.374 357.741 148.188C357.339 147.999 357.02 147.728 356.784 147.373C356.547 147.015 356.429 146.583 356.429 146.077C356.429 145.632 356.517 145.27 356.693 144.994C356.868 144.713 357.103 144.494 357.396 144.335C357.69 144.177 358.014 144.059 358.368 143.981C358.726 143.9 359.086 143.836 359.447 143.789C359.919 143.728 360.302 143.682 360.596 143.652C360.893 143.618 361.109 143.563 361.244 143.485C361.382 143.407 361.452 143.272 361.452 143.08V143.039C361.452 142.54 361.315 142.152 361.042 141.875C360.772 141.598 360.361 141.46 359.811 141.46C359.241 141.46 358.794 141.585 358.47 141.834C358.146 142.084 357.918 142.351 357.786 142.634L356.652 142.229C356.855 141.757 357.125 141.389 357.462 141.126C357.803 140.859 358.174 140.673 358.576 140.569C358.981 140.461 359.379 140.407 359.771 140.407C360.021 140.407 360.307 140.437 360.631 140.498C360.959 140.555 361.274 140.675 361.578 140.857C361.885 141.04 362.14 141.315 362.343 141.683C362.545 142.05 362.646 142.543 362.646 143.161V148.284H361.452V147.231H361.391C361.31 147.4 361.175 147.581 360.986 147.773C360.797 147.965 360.545 148.129 360.231 148.264C359.918 148.399 359.534 148.467 359.082 148.467ZM359.264 147.393C359.737 147.393 360.135 147.301 360.459 147.115C360.787 146.929 361.033 146.69 361.198 146.396C361.367 146.102 361.452 145.794 361.452 145.469V144.376C361.401 144.437 361.29 144.492 361.117 144.543C360.949 144.59 360.753 144.632 360.53 144.67C360.311 144.703 360.096 144.734 359.887 144.761C359.681 144.784 359.514 144.805 359.386 144.821C359.075 144.862 358.785 144.928 358.515 145.019C358.249 145.107 358.033 145.24 357.867 145.419C357.705 145.594 357.624 145.834 357.624 146.138C357.624 146.553 357.778 146.867 358.085 147.079C358.395 147.289 358.789 147.393 359.264 147.393ZM364.839 148.284V140.508H366.034V148.284H364.839ZM365.447 139.212C365.214 139.212 365.013 139.133 364.844 138.974C364.679 138.815 364.596 138.625 364.596 138.402C364.596 138.179 364.679 137.988 364.844 137.83C365.013 137.671 365.214 137.592 365.447 137.592C365.68 137.592 365.879 137.671 366.044 137.83C366.213 137.988 366.297 138.179 366.297 138.402C366.297 138.625 366.213 138.815 366.044 138.974C365.879 139.133 365.68 139.212 365.447 139.212ZM368.234 137.916H369.429V146.259C369.429 146.637 369.471 146.902 369.556 147.054C369.64 147.206 369.814 147.279 370.077 147.272C370.219 147.265 370.323 147.255 370.391 147.241C370.462 147.225 370.526 147.208 370.583 147.191L370.826 148.224C370.722 148.254 370.59 148.281 370.431 148.305C370.273 148.332 370.107 148.345 369.935 148.345C369.368 148.345 368.943 148.19 368.66 147.879C368.376 147.569 368.234 147.137 368.234 146.583V137.916Z" fill="white"/>
<rect x="310.245" y="127.126" width="71.9587" height="32.3165" rx="16.1583" stroke="white" stroke-opacity="0.08" stroke-width="1.18807"/>
</g>
<g filter="url(#filter6_i_1315_6246)">
<rect x="392.303" y="126.532" width="101.147" height="33.5046" rx="16.7523" fill="white" fill-opacity="0.02"/>
<g filter="url(#filter7_i_1315_6246)">
<path d="M411.312 136.75L416.193 137.835C416.325 137.864 416.443 137.938 416.528 138.043C416.612 138.149 416.658 138.28 416.658 138.415V144.347C416.658 144.934 416.513 145.512 416.236 146.029C415.96 146.546 415.559 146.987 415.071 147.313L411.312 149.819L407.553 147.313C407.065 146.987 406.664 146.547 406.388 146.029C406.111 145.512 405.966 144.935 405.966 144.348V138.415C405.966 138.28 406.012 138.149 406.096 138.043C406.181 137.938 406.299 137.864 406.431 137.835L411.312 136.75ZM411.312 140.314C411.05 140.314 410.796 140.401 410.589 140.56C410.381 140.719 410.232 140.942 410.164 141.195C410.097 141.448 410.114 141.716 410.214 141.957C410.314 142.199 410.491 142.401 410.718 142.531V145.067H411.906L411.907 142.531C412.133 142.401 412.31 142.199 412.41 141.957C412.51 141.715 412.528 141.447 412.46 141.195C412.392 140.942 412.243 140.719 412.035 140.56C411.828 140.401 411.573 140.314 411.312 140.314Z" fill="#6E51E0"/>
</g>
<path d="M435.551 141.156H434.296C434.222 140.795 434.092 140.478 433.906 140.204C433.724 139.931 433.501 139.701 433.238 139.516C432.978 139.327 432.689 139.185 432.372 139.09C432.055 138.996 431.724 138.949 431.38 138.949C430.752 138.949 430.183 139.107 429.673 139.425C429.167 139.742 428.764 140.209 428.463 140.827C428.166 141.445 428.018 142.202 428.018 143.1C428.018 143.998 428.166 144.756 428.463 145.373C428.764 145.991 429.167 146.458 429.673 146.776C430.183 147.093 430.752 147.252 431.38 147.252C431.724 147.252 432.055 147.204 432.372 147.11C432.689 147.015 432.978 146.875 433.238 146.69C433.501 146.501 433.724 146.269 433.906 145.996C434.092 145.719 434.222 145.402 434.296 145.044H435.551C435.457 145.574 435.285 146.048 435.035 146.467C434.785 146.885 434.475 147.241 434.103 147.535C433.732 147.825 433.315 148.046 432.853 148.198C432.394 148.35 431.903 148.426 431.38 148.426C430.495 148.426 429.709 148.21 429.02 147.778C428.332 147.346 427.79 146.732 427.395 145.935C427 145.139 426.803 144.194 426.803 143.1C426.803 142.007 427 141.061 427.395 140.265C427.79 139.468 428.332 138.854 429.02 138.422C429.709 137.99 430.495 137.774 431.38 137.774C431.903 137.774 432.394 137.85 432.853 138.002C433.315 138.154 433.732 138.376 434.103 138.67C434.475 138.96 434.785 139.315 435.035 139.733C435.285 140.148 435.457 140.623 435.551 141.156ZM440.589 148.446C439.887 148.446 439.271 148.279 438.741 147.945C438.215 147.611 437.803 147.144 437.506 146.543C437.212 145.942 437.066 145.24 437.066 144.437C437.066 143.627 437.212 142.92 437.506 142.315C437.803 141.711 438.215 141.242 438.741 140.908C439.271 140.574 439.887 140.407 440.589 140.407C441.291 140.407 441.906 140.574 442.432 140.908C442.962 141.242 443.374 141.711 443.668 142.315C443.965 142.92 444.113 143.627 444.113 144.437C444.113 145.24 443.965 145.942 443.668 146.543C443.374 147.144 442.962 147.611 442.432 147.945C441.906 148.279 441.291 148.446 440.589 148.446ZM440.589 147.373C441.123 147.373 441.561 147.236 441.906 146.963C442.25 146.69 442.505 146.33 442.67 145.885C442.836 145.439 442.918 144.956 442.918 144.437C442.918 143.917 442.836 143.433 442.67 142.984C442.505 142.535 442.25 142.172 441.906 141.895C441.561 141.618 441.123 141.48 440.589 141.48C440.056 141.48 439.617 141.618 439.273 141.895C438.929 142.172 438.674 142.535 438.509 142.984C438.343 143.433 438.26 143.917 438.26 144.437C438.26 144.956 438.343 145.439 438.509 145.885C438.674 146.33 438.929 146.69 439.273 146.963C439.617 147.236 440.056 147.373 440.589 147.373ZM447.144 143.606V148.284H445.949V140.508H447.103V141.723H447.204C447.387 141.328 447.663 141.011 448.035 140.771C448.406 140.528 448.885 140.407 449.473 140.407C449.999 140.407 450.46 140.515 450.855 140.731C451.25 140.943 451.557 141.267 451.776 141.703C451.996 142.135 452.105 142.682 452.105 143.343V148.284H450.91V143.424C450.91 142.813 450.752 142.337 450.434 141.996C450.117 141.652 449.682 141.48 449.128 141.48C448.747 141.48 448.406 141.563 448.106 141.728C447.809 141.893 447.574 142.135 447.402 142.452C447.23 142.769 447.144 143.154 447.144 143.606ZM459.809 142.25L458.735 142.553C458.668 142.374 458.568 142.201 458.437 142.032C458.308 141.86 458.133 141.718 457.91 141.607C457.687 141.495 457.402 141.44 457.055 141.44C456.579 141.44 456.182 141.549 455.865 141.769C455.551 141.985 455.394 142.26 455.394 142.594C455.394 142.891 455.502 143.125 455.718 143.298C455.934 143.47 456.272 143.613 456.731 143.728L457.885 144.011C458.58 144.18 459.098 144.438 459.439 144.786C459.78 145.13 459.951 145.574 459.951 146.118C459.951 146.563 459.822 146.961 459.566 147.312C459.313 147.663 458.958 147.94 458.503 148.143C458.047 148.345 457.517 148.446 456.913 148.446C456.12 148.446 455.463 148.274 454.943 147.93C454.424 147.586 454.095 147.083 453.956 146.421L455.09 146.138C455.198 146.556 455.402 146.87 455.703 147.079C456.007 147.289 456.403 147.393 456.893 147.393C457.449 147.393 457.892 147.275 458.219 147.039C458.55 146.799 458.715 146.512 458.715 146.178C458.715 145.908 458.621 145.682 458.432 145.5C458.243 145.314 457.952 145.176 457.561 145.085L456.265 144.781C455.553 144.612 455.029 144.351 454.695 143.996C454.365 143.638 454.199 143.191 454.199 142.655C454.199 142.216 454.322 141.828 454.569 141.49C454.819 141.153 455.158 140.888 455.586 140.695C456.018 140.503 456.508 140.407 457.055 140.407C457.824 140.407 458.428 140.575 458.867 140.913C459.309 141.25 459.623 141.696 459.809 142.25ZM464.92 148.446C464.218 148.446 463.602 148.279 463.072 147.945C462.546 147.611 462.134 147.144 461.837 146.543C461.543 145.942 461.396 145.24 461.396 144.437C461.396 143.627 461.543 142.92 461.837 142.315C462.134 141.711 462.546 141.242 463.072 140.908C463.602 140.574 464.218 140.407 464.92 140.407C465.622 140.407 466.236 140.574 466.763 140.908C467.293 141.242 467.705 141.711 467.998 142.315C468.295 142.92 468.444 143.627 468.444 144.437C468.444 145.24 468.295 145.942 467.998 146.543C467.705 147.144 467.293 147.611 466.763 147.945C466.236 148.279 465.622 148.446 464.92 148.446ZM464.92 147.373C465.453 147.373 465.892 147.236 466.236 146.963C466.581 146.69 466.836 146.33 467.001 145.885C467.166 145.439 467.249 144.956 467.249 144.437C467.249 143.917 467.166 143.433 467.001 142.984C466.836 142.535 466.581 142.172 466.236 141.895C465.892 141.618 465.453 141.48 464.92 141.48C464.387 141.48 463.948 141.618 463.604 141.895C463.26 142.172 463.005 142.535 462.839 142.984C462.674 143.433 462.591 143.917 462.591 144.437C462.591 144.956 462.674 145.439 462.839 145.885C463.005 146.33 463.26 146.69 463.604 146.963C463.948 147.236 464.387 147.373 464.92 147.373ZM470.28 137.916H471.474V146.259C471.474 146.637 471.517 146.902 471.601 147.054C471.685 147.206 471.859 147.279 472.123 147.272C472.264 147.265 472.369 147.255 472.436 147.241C472.507 147.225 472.571 147.208 472.629 147.191L472.872 148.224C472.767 148.254 472.636 148.281 472.477 148.305C472.318 148.332 472.153 148.345 471.981 148.345C471.414 148.345 470.988 148.19 470.705 147.879C470.421 147.569 470.28 147.137 470.28 146.583V137.916ZM477.242 148.446C476.492 148.446 475.846 148.281 475.302 147.95C474.762 147.616 474.346 147.15 474.052 146.553C473.762 145.952 473.617 145.253 473.617 144.457C473.617 143.66 473.762 142.958 474.052 142.351C474.346 141.74 474.754 141.264 475.277 140.923C475.804 140.579 476.418 140.407 477.12 140.407C477.525 140.407 477.925 140.474 478.32 140.609C478.715 140.744 479.074 140.964 479.398 141.267C479.722 141.568 479.98 141.966 480.173 142.462C480.365 142.958 480.461 143.569 480.461 144.295V144.801H474.467V143.768H479.246C479.246 143.33 479.159 142.938 478.983 142.594C478.811 142.25 478.565 141.978 478.244 141.779C477.927 141.58 477.552 141.48 477.12 141.48C476.644 141.48 476.232 141.598 475.885 141.834C475.54 142.067 475.275 142.371 475.09 142.746C474.904 143.12 474.811 143.522 474.811 143.951V144.639C474.811 145.226 474.913 145.724 475.115 146.133C475.321 146.538 475.606 146.847 475.971 147.059C476.335 147.268 476.759 147.373 477.242 147.373C477.555 147.373 477.839 147.329 478.092 147.241C478.349 147.15 478.57 147.015 478.755 146.836C478.941 146.654 479.084 146.428 479.186 146.158L480.34 146.482C480.218 146.874 480.014 147.218 479.727 147.515C479.44 147.809 479.086 148.038 478.664 148.203C478.242 148.365 477.768 148.446 477.242 148.446Z" fill="white"/>
<rect x="392.897" y="127.126" width="99.9587" height="32.3165" rx="16.1583" stroke="white" stroke-opacity="0.08" stroke-width="1.18807"/>
</g>
<rect x="223" y="207.321" width="270.881" height="263.752" rx="12" fill="white" fill-opacity="0.02"/>
<path d="M244.713 232.962V243.33H243.148V232.962H244.713ZM246.727 243.33V235.554H248.18V236.82H248.276C248.438 236.391 248.703 236.057 249.071 235.817C249.439 235.574 249.879 235.453 250.392 235.453C250.912 235.453 251.348 235.574 251.699 235.817C252.053 236.06 252.315 236.394 252.483 236.82H252.564C252.75 236.404 253.045 236.074 253.45 235.827C253.855 235.577 254.338 235.453 254.898 235.453C255.604 235.453 256.179 235.674 256.625 236.116C257.074 236.558 257.298 237.225 257.298 238.116V243.33H255.784V238.257C255.784 237.731 255.641 237.349 255.354 237.113C255.067 236.877 254.724 236.759 254.326 236.759C253.833 236.759 253.45 236.911 253.177 237.214C252.904 237.515 252.767 237.901 252.767 238.374V243.33H251.258V238.161C251.258 237.739 251.126 237.4 250.863 237.144C250.6 236.887 250.257 236.759 249.835 236.759C249.549 236.759 249.284 236.835 249.041 236.987C248.801 237.135 248.607 237.343 248.458 237.609C248.313 237.876 248.241 238.185 248.241 238.536V243.33H246.727ZM259.184 246.247V235.554H260.663V236.814H260.789C260.877 236.652 261.004 236.465 261.169 236.253C261.334 236.04 261.564 235.854 261.858 235.696C262.151 235.534 262.539 235.453 263.022 235.453C263.65 235.453 264.21 235.611 264.703 235.928C265.196 236.246 265.582 236.703 265.862 237.301C266.146 237.898 266.288 238.617 266.288 239.457C266.288 240.298 266.147 241.018 265.867 241.619C265.587 242.217 265.202 242.677 264.713 243.001C264.224 243.322 263.665 243.482 263.037 243.482C262.565 243.482 262.178 243.403 261.878 243.244C261.581 243.086 261.348 242.9 261.179 242.687C261.01 242.475 260.88 242.286 260.789 242.12H260.698V246.247H259.184ZM260.668 239.442C260.668 239.989 260.747 240.468 260.906 240.88C261.064 241.292 261.294 241.614 261.594 241.847C261.895 242.076 262.263 242.191 262.698 242.191C263.15 242.191 263.528 242.071 263.832 241.832C264.136 241.589 264.365 241.26 264.521 240.844C264.679 240.429 264.759 239.962 264.759 239.442C264.759 238.929 264.681 238.468 264.526 238.06C264.374 237.652 264.144 237.329 263.837 237.093C263.533 236.857 263.154 236.739 262.698 236.739C262.259 236.739 261.888 236.852 261.584 237.078C261.284 237.304 261.056 237.619 260.901 238.024C260.745 238.43 260.668 238.902 260.668 239.442ZM271.117 243.487C270.388 243.487 269.751 243.32 269.208 242.986C268.665 242.652 268.243 242.184 267.942 241.584C267.642 240.983 267.492 240.281 267.492 239.478C267.492 238.671 267.642 237.965 267.942 237.361C268.243 236.757 268.665 236.288 269.208 235.954C269.751 235.62 270.388 235.453 271.117 235.453C271.846 235.453 272.482 235.62 273.025 235.954C273.569 236.288 273.991 236.757 274.291 237.361C274.591 237.965 274.742 238.671 274.742 239.478C274.742 240.281 274.591 240.983 274.291 241.584C273.991 242.184 273.569 242.652 273.025 242.986C272.482 243.32 271.846 243.487 271.117 243.487ZM271.122 242.217C271.594 242.217 271.986 242.092 272.296 241.842C272.607 241.592 272.836 241.26 272.985 240.844C273.137 240.429 273.213 239.972 273.213 239.472C273.213 238.976 273.137 238.521 272.985 238.105C272.836 237.687 272.607 237.351 272.296 237.098C271.986 236.845 271.594 236.718 271.122 236.718C270.646 236.718 270.251 236.845 269.937 237.098C269.626 237.351 269.395 237.687 269.243 238.105C269.095 238.521 269.021 238.976 269.021 239.472C269.021 239.972 269.095 240.429 269.243 240.844C269.395 241.26 269.626 241.592 269.937 241.842C270.251 242.092 270.646 242.217 271.122 242.217ZM276.289 243.33V235.554H277.752V236.789H277.833C277.975 236.371 278.224 236.042 278.582 235.802C278.94 235.559 279.348 235.437 279.807 235.437C280.02 235.437 280.211 235.463 280.38 235.513C280.548 235.564 280.697 235.633 280.825 235.721L280.339 236.987C280.248 236.943 280.145 236.907 280.03 236.88C279.915 236.85 279.784 236.835 279.635 236.835C279.284 236.835 278.97 236.911 278.694 237.063C278.42 237.211 278.202 237.417 278.04 237.68C277.882 237.943 277.803 238.244 277.803 238.581V243.33H276.289ZM285.888 235.554V236.769H281.641V235.554H285.888ZM282.78 233.691H284.294V241.047C284.294 241.341 284.337 241.562 284.425 241.71C284.513 241.855 284.626 241.955 284.764 242.009C284.906 242.06 285.06 242.085 285.225 242.085C285.347 242.085 285.453 242.076 285.544 242.06C285.635 242.043 285.706 242.029 285.757 242.019L286.03 243.27C285.942 243.303 285.817 243.337 285.655 243.371C285.493 243.408 285.291 243.428 285.048 243.432C284.65 243.438 284.278 243.367 283.934 243.219C283.59 243.07 283.311 242.841 283.099 242.53C282.886 242.22 282.78 241.83 282.78 241.361V233.691ZM299.784 236.334H298.205C298.144 235.996 298.031 235.699 297.865 235.442C297.7 235.186 297.497 234.968 297.258 234.789C297.018 234.61 296.75 234.475 296.453 234.384C296.159 234.293 295.847 234.248 295.516 234.248C294.919 234.248 294.384 234.398 293.911 234.698C293.442 234.999 293.071 235.439 292.797 236.02C292.527 236.6 292.392 237.309 292.392 238.146C292.392 238.99 292.527 239.702 292.797 240.283C293.071 240.863 293.444 241.302 293.916 241.599C294.389 241.896 294.92 242.044 295.511 242.044C295.838 242.044 296.149 242 296.443 241.913C296.74 241.822 297.008 241.688 297.248 241.513C297.487 241.337 297.69 241.123 297.855 240.87C298.024 240.613 298.14 240.32 298.205 239.989L299.784 239.994C299.7 240.504 299.536 240.973 299.293 241.401C299.053 241.827 298.745 242.195 298.367 242.505C297.992 242.812 297.563 243.05 297.081 243.219C296.598 243.388 296.071 243.472 295.501 243.472C294.603 243.472 293.803 243.259 293.101 242.834C292.399 242.406 291.846 241.793 291.441 240.996C291.039 240.2 290.838 239.25 290.838 238.146C290.838 237.039 291.041 236.089 291.446 235.296C291.851 234.499 292.404 233.888 293.106 233.463C293.808 233.034 294.607 232.82 295.501 232.82C296.051 232.82 296.564 232.899 297.04 233.058C297.519 233.213 297.95 233.443 298.331 233.746C298.712 234.047 299.028 234.415 299.278 234.85C299.528 235.282 299.696 235.777 299.784 236.334ZM307.169 235.685C307.115 235.206 306.892 234.835 306.5 234.572C306.109 234.305 305.616 234.172 305.022 234.172C304.597 234.172 304.229 234.239 303.918 234.374C303.608 234.506 303.366 234.688 303.194 234.921C303.026 235.151 302.941 235.412 302.941 235.706C302.941 235.952 302.999 236.165 303.113 236.344C303.231 236.523 303.385 236.673 303.574 236.794C303.766 236.912 303.972 237.012 304.192 237.093C304.411 237.171 304.622 237.235 304.825 237.285L305.837 237.549C306.168 237.63 306.507 237.739 306.855 237.878C307.202 238.016 307.525 238.198 307.822 238.424C308.119 238.651 308.358 238.931 308.541 239.265C308.726 239.599 308.819 239.999 308.819 240.465C308.819 241.052 308.667 241.574 308.363 242.029C308.063 242.485 307.626 242.844 307.052 243.108C306.482 243.371 305.792 243.502 304.982 243.502C304.205 243.502 303.534 243.379 302.967 243.133C302.399 242.886 301.956 242.537 301.635 242.085C301.314 241.629 301.137 241.089 301.103 240.465H302.673C302.703 240.839 302.825 241.152 303.037 241.401C303.253 241.648 303.529 241.832 303.863 241.953C304.2 242.071 304.57 242.13 304.971 242.13C305.414 242.13 305.807 242.061 306.151 241.923C306.499 241.781 306.772 241.585 306.971 241.336C307.17 241.082 307.27 240.787 307.27 240.45C307.27 240.142 307.182 239.891 307.007 239.695C306.835 239.499 306.6 239.337 306.303 239.209C306.009 239.081 305.677 238.968 305.306 238.87L304.08 238.536C303.25 238.31 302.592 237.977 302.106 237.538C301.623 237.1 301.382 236.519 301.382 235.797C301.382 235.199 301.544 234.678 301.868 234.232C302.192 233.787 302.631 233.441 303.184 233.195C303.738 232.945 304.362 232.82 305.057 232.82C305.76 232.82 306.379 232.943 306.916 233.19C307.456 233.436 307.881 233.775 308.191 234.207C308.502 234.636 308.664 235.129 308.677 235.685H307.169ZM311.452 232.962L314.338 241.406H314.455L317.34 232.962H319.031L315.3 243.33H313.493L309.761 232.962H311.452Z" fill="white" fill-opacity="0.8"/>
<path d="M248.104 269.844H242.948V260.779H244.041V268.858H248.104V269.844ZM251.914 269.963C251.296 269.963 250.741 269.816 250.25 269.523C249.767 269.23 249.387 268.822 249.11 268.299C248.84 267.777 248.706 267.187 248.706 266.529C248.706 265.888 248.84 265.31 249.11 264.795C249.387 264.28 249.767 263.88 250.25 263.595C250.741 263.302 251.296 263.155 251.914 263.155C252.531 263.155 253.086 263.302 253.577 263.595C254.068 263.88 254.452 264.28 254.729 264.795C255.006 265.31 255.145 265.888 255.145 266.529C255.145 267.187 255.006 267.777 254.729 268.299C254.46 268.814 254.08 269.222 253.589 269.523C253.098 269.816 252.539 269.963 251.914 269.963ZM251.914 269.072C252.325 269.072 252.698 268.961 253.03 268.739C253.371 268.517 253.636 268.216 253.826 267.836C254.024 267.448 254.123 267.012 254.123 266.529C254.123 266.07 254.028 265.65 253.838 265.27C253.648 264.89 253.383 264.593 253.042 264.379C252.71 264.157 252.333 264.046 251.914 264.046C251.502 264.046 251.125 264.153 250.785 264.367C250.452 264.581 250.191 264.878 250.001 265.258C249.811 265.638 249.716 266.062 249.716 266.529C249.716 267.012 249.811 267.448 250.001 267.836C250.191 268.224 250.452 268.529 250.785 268.751C251.125 268.965 251.502 269.072 251.914 269.072ZM256.579 269.844V263.274H257.589V263.702C257.589 263.813 257.577 263.908 257.553 263.987C257.537 264.058 257.501 264.129 257.446 264.201L257.612 264.308C257.882 263.904 258.179 263.611 258.503 263.428C258.836 263.246 259.248 263.155 259.739 263.155H259.787V264.165H259.442C258.911 264.165 258.488 264.323 258.171 264.64C257.783 265.012 257.589 265.595 257.589 266.387V269.844H256.579ZM263.574 269.963C262.956 269.963 262.402 269.816 261.911 269.523C261.428 269.23 261.051 268.826 260.782 268.311C260.513 267.797 260.378 267.218 260.378 266.577C260.378 265.967 260.505 265.405 260.758 264.89C261.012 264.367 261.376 263.947 261.851 263.63C262.335 263.314 262.901 263.155 263.55 263.155C264.113 263.155 264.635 263.282 265.119 263.535C265.602 263.789 265.99 264.161 266.283 264.652C266.576 265.135 266.722 265.717 266.722 266.399V266.755H262.03C261.974 266.755 261.863 266.755 261.697 266.755C261.539 266.755 261.392 266.747 261.257 266.731L261.222 266.921C261.293 266.937 261.341 266.965 261.364 267.004C261.396 267.036 261.42 267.096 261.436 267.183C261.459 267.262 261.483 267.337 261.507 267.408C261.673 267.915 261.938 268.319 262.303 268.62C262.675 268.921 263.095 269.072 263.562 269.072C264.037 269.072 264.445 268.945 264.786 268.692C265.126 268.438 265.372 268.117 265.523 267.729H266.604C266.39 268.395 266.025 268.933 265.511 269.345C264.996 269.757 264.35 269.963 263.574 269.963ZM261.459 266.09C261.546 266.01 261.634 265.955 261.721 265.923C261.816 265.884 261.931 265.864 262.065 265.864H265.012C265.162 265.864 265.289 265.884 265.392 265.923C265.495 265.955 265.594 266.01 265.689 266.09L265.82 265.947C265.74 265.892 265.689 265.844 265.665 265.805C265.649 265.757 265.633 265.698 265.618 265.626C265.594 265.484 265.554 265.349 265.499 265.222C265.332 264.85 265.075 264.561 264.727 264.355C264.386 264.149 264.002 264.046 263.574 264.046C263.138 264.046 262.754 264.149 262.422 264.355C262.097 264.561 261.843 264.85 261.661 265.222C261.59 265.373 261.546 265.508 261.531 265.626C261.523 265.698 261.507 265.753 261.483 265.793C261.459 265.832 261.408 265.884 261.329 265.947L261.459 266.09ZM268.135 269.844V263.274H269.145V263.702C269.145 263.813 269.133 263.908 269.109 263.987C269.094 264.058 269.058 264.129 269.002 264.201L269.169 264.308C269.47 263.896 269.767 263.603 270.06 263.428C270.353 263.246 270.697 263.155 271.093 263.155C271.545 263.155 271.933 263.262 272.258 263.476C272.583 263.682 272.773 263.979 272.828 264.367H272.983C273.339 263.559 274.008 263.155 274.99 263.155C275.719 263.155 276.266 263.365 276.63 263.785C276.994 264.197 277.176 264.791 277.176 265.567V269.844H276.167V265.805C276.167 265.242 276.048 264.811 275.81 264.51C275.58 264.201 275.256 264.046 274.836 264.046C274.4 264.046 274.044 264.193 273.767 264.486C273.545 264.723 273.386 265.032 273.291 265.412C273.204 265.793 273.161 266.28 273.161 266.874V269.844H272.151V265.805C272.151 265.25 272.028 264.818 271.783 264.51C271.545 264.201 271.22 264.046 270.808 264.046C270.373 264.046 270.016 264.205 269.739 264.521C269.541 264.743 269.391 265.04 269.288 265.412C269.193 265.777 269.145 266.264 269.145 266.874V269.844H268.135ZM283.184 269.844H282.174V263.274H283.184V269.844ZM282.685 262.145C282.471 262.145 282.289 262.074 282.139 261.931C281.988 261.781 281.913 261.603 281.913 261.397C281.913 261.191 281.988 261.017 282.139 260.874C282.289 260.731 282.471 260.66 282.685 260.66C282.899 260.66 283.081 260.731 283.232 260.874C283.382 261.017 283.458 261.191 283.458 261.397C283.458 261.603 283.382 261.781 283.232 261.931C283.081 262.074 282.899 262.145 282.685 262.145ZM288.05 263.155C288.628 263.155 289.139 263.298 289.583 263.583C290.026 263.868 290.367 264.268 290.605 264.783C290.85 265.298 290.973 265.888 290.973 266.553C290.973 267.218 290.85 267.812 290.605 268.335C290.367 268.85 290.026 269.25 289.583 269.535C289.147 269.82 288.636 269.963 288.05 269.963C287.567 269.963 287.167 269.876 286.85 269.701C286.541 269.527 286.232 269.23 285.924 268.81L285.757 268.917C285.813 268.989 285.848 269.064 285.864 269.143C285.888 269.214 285.9 269.305 285.9 269.416V272.339H284.89V263.274H285.9V263.702C285.9 263.813 285.888 263.908 285.864 263.987C285.848 264.058 285.813 264.129 285.757 264.201L285.924 264.308C286.232 263.888 286.541 263.591 286.85 263.417C287.167 263.242 287.567 263.155 288.05 263.155ZM287.955 264.046C287.551 264.046 287.191 264.153 286.874 264.367C286.557 264.581 286.308 264.882 286.126 265.27C285.951 265.65 285.864 266.078 285.864 266.553C285.864 267.036 285.951 267.468 286.126 267.848C286.308 268.228 286.557 268.529 286.874 268.751C287.191 268.965 287.551 269.072 287.955 269.072C288.359 269.072 288.712 268.965 289.013 268.751C289.321 268.529 289.555 268.228 289.714 267.848C289.88 267.468 289.963 267.036 289.963 266.553C289.963 266.078 289.88 265.65 289.714 265.27C289.555 264.89 289.321 264.593 289.013 264.379C288.712 264.157 288.359 264.046 287.955 264.046ZM295.069 269.963C294.238 269.963 293.56 269.765 293.038 269.369C292.515 268.973 292.198 268.426 292.087 267.729H293.145C293.232 268.149 293.434 268.478 293.75 268.715C294.075 268.953 294.519 269.072 295.081 269.072C295.541 269.072 295.905 268.985 296.174 268.81C296.451 268.636 296.59 268.387 296.59 268.062C296.59 267.808 296.507 267.606 296.34 267.456C296.182 267.298 295.976 267.179 295.723 267.1C295.477 267.02 295.148 266.941 294.737 266.862C294.222 266.759 293.806 266.656 293.489 266.553C293.18 266.442 292.915 266.268 292.693 266.03C292.471 265.793 292.36 265.464 292.36 265.044C292.36 264.45 292.582 263.987 293.026 263.654C293.477 263.321 294.051 263.155 294.748 263.155C295.461 263.155 296.055 263.341 296.531 263.714C297.006 264.086 297.299 264.597 297.41 265.246H296.471C296.376 264.842 296.178 264.541 295.877 264.343C295.576 264.145 295.2 264.046 294.748 264.046C294.313 264.046 293.972 264.129 293.727 264.296C293.489 264.454 293.37 264.676 293.37 264.961C293.37 265.183 293.446 265.357 293.596 265.484C293.747 265.61 293.933 265.709 294.154 265.781C294.376 265.844 294.689 265.915 295.093 265.995C295.624 266.098 296.055 266.208 296.388 266.327C296.721 266.438 297.006 266.624 297.243 266.886C297.481 267.139 297.6 267.496 297.6 267.955C297.6 268.573 297.378 269.064 296.935 269.428C296.491 269.785 295.869 269.963 295.069 269.963ZM301.267 269.963C300.34 269.963 299.695 269.618 299.33 268.929C299.196 268.668 299.108 268.402 299.069 268.133C299.037 267.856 299.021 267.555 299.021 267.23V263.274H300.031V267.23C300.031 267.927 300.158 268.418 300.411 268.703C300.633 268.949 300.97 269.072 301.421 269.072C301.92 269.072 302.32 268.909 302.621 268.585C302.835 268.363 302.985 268.058 303.073 267.67C303.168 267.282 303.215 266.751 303.215 266.078V263.274H304.225V269.844H303.215V269.416C303.215 269.305 303.223 269.214 303.239 269.143C303.263 269.064 303.302 268.989 303.358 268.917L303.191 268.81C302.89 269.222 302.593 269.519 302.3 269.701C302.007 269.876 301.663 269.963 301.267 269.963ZM305.925 269.844V263.274H306.935V263.702C306.935 263.813 306.923 263.908 306.9 263.987C306.884 264.058 306.848 264.129 306.793 264.201L306.959 264.308C307.26 263.896 307.557 263.603 307.85 263.428C308.143 263.246 308.488 263.155 308.884 263.155C309.335 263.155 309.723 263.262 310.048 263.476C310.373 263.682 310.563 263.979 310.618 264.367H310.773C311.129 263.559 311.799 263.155 312.781 263.155C313.509 263.155 314.056 263.365 314.42 263.785C314.785 264.197 314.967 264.791 314.967 265.567V269.844H313.957V265.805C313.957 265.242 313.838 264.811 313.6 264.51C313.371 264.201 313.046 264.046 312.626 264.046C312.191 264.046 311.834 264.193 311.557 264.486C311.335 264.723 311.177 265.032 311.082 265.412C310.995 265.793 310.951 266.28 310.951 266.874V269.844H309.941V265.805C309.941 265.25 309.818 264.818 309.573 264.51C309.335 264.201 309.01 264.046 308.599 264.046C308.163 264.046 307.807 264.205 307.529 264.521C307.331 264.743 307.181 265.04 307.078 265.412C306.983 265.777 306.935 266.264 306.935 266.874V269.844H305.925ZM322.638 269.963C322.06 269.963 321.549 269.82 321.105 269.535C320.662 269.25 320.317 268.85 320.072 268.335C319.834 267.82 319.715 267.23 319.715 266.565C319.715 265.9 319.834 265.31 320.072 264.795C320.317 264.272 320.658 263.868 321.093 263.583C321.537 263.298 322.052 263.155 322.638 263.155C323.121 263.155 323.517 263.242 323.826 263.417C324.143 263.591 324.456 263.888 324.765 264.308L324.931 264.201C324.875 264.129 324.836 264.058 324.812 263.987C324.796 263.908 324.788 263.813 324.788 263.702V260.779H325.798V269.844H324.788V269.416C324.788 269.305 324.796 269.214 324.812 269.143C324.836 269.064 324.875 268.989 324.931 268.917L324.765 268.81C324.456 269.23 324.143 269.527 323.826 269.701C323.517 269.876 323.121 269.963 322.638 269.963ZM322.733 269.072C323.137 269.072 323.497 268.965 323.814 268.751C324.131 268.537 324.376 268.24 324.551 267.86C324.733 267.472 324.824 267.04 324.824 266.565C324.824 266.082 324.733 265.65 324.551 265.27C324.376 264.89 324.131 264.593 323.814 264.379C323.497 264.157 323.137 264.046 322.733 264.046C322.329 264.046 321.973 264.157 321.664 264.379C321.363 264.593 321.129 264.89 320.963 265.27C320.804 265.65 320.725 266.082 320.725 266.565C320.725 267.04 320.804 267.468 320.963 267.848C321.129 268.228 321.363 268.529 321.664 268.751C321.973 268.965 322.329 269.072 322.733 269.072ZM330.128 269.963C329.51 269.963 328.956 269.816 328.465 269.523C327.981 269.23 327.601 268.822 327.324 268.299C327.055 267.777 326.92 267.187 326.92 266.529C326.92 265.888 327.055 265.31 327.324 264.795C327.601 264.28 327.981 263.88 328.465 263.595C328.956 263.302 329.51 263.155 330.128 263.155C330.746 263.155 331.3 263.302 331.791 263.595C332.282 263.88 332.666 264.28 332.944 264.795C333.221 265.31 333.359 265.888 333.359 266.529C333.359 267.187 333.221 267.777 332.944 268.299C332.674 268.814 332.294 269.222 331.803 269.523C331.312 269.816 330.754 269.963 330.128 269.963ZM330.128 269.072C330.54 269.072 330.912 268.961 331.245 268.739C331.585 268.517 331.851 268.216 332.041 267.836C332.239 267.448 332.338 267.012 332.338 266.529C332.338 266.07 332.243 265.65 332.052 265.27C331.862 264.89 331.597 264.593 331.256 264.379C330.924 264.157 330.548 264.046 330.128 264.046C329.716 264.046 329.34 264.153 328.999 264.367C328.666 264.581 328.405 264.878 328.215 265.258C328.025 265.638 327.93 266.062 327.93 266.529C327.93 267.012 328.025 267.448 328.215 267.836C328.405 268.224 328.666 268.529 328.999 268.751C329.34 268.965 329.716 269.072 330.128 269.072ZM336.326 269.844C335.795 269.844 335.403 269.725 335.149 269.488C334.896 269.25 334.769 268.818 334.769 268.193V260.779H335.779V268.038C335.779 268.268 335.795 268.446 335.827 268.573C335.858 268.692 335.93 268.787 336.041 268.858C336.151 268.921 336.326 268.953 336.563 268.953H336.884V269.844H336.326ZM340.721 269.963C340.103 269.963 339.549 269.816 339.058 269.523C338.575 269.23 338.195 268.822 337.917 268.299C337.648 267.777 337.513 267.187 337.513 266.529C337.513 265.888 337.648 265.31 337.917 264.795C338.195 264.28 338.575 263.88 339.058 263.595C339.549 263.302 340.103 263.155 340.721 263.155C341.339 263.155 341.893 263.302 342.385 263.595C342.876 263.88 343.26 264.28 343.537 264.795C343.814 265.31 343.953 265.888 343.953 266.529C343.953 267.187 343.814 267.777 343.537 268.299C343.268 268.814 342.888 269.222 342.396 269.523C341.905 269.816 341.347 269.963 340.721 269.963ZM340.721 269.072C341.133 269.072 341.505 268.961 341.838 268.739C342.179 268.517 342.444 268.216 342.634 267.836C342.832 267.448 342.931 267.012 342.931 266.529C342.931 266.07 342.836 265.65 342.646 265.27C342.456 264.89 342.191 264.593 341.85 264.379C341.517 264.157 341.141 264.046 340.721 264.046C340.309 264.046 339.933 264.153 339.593 264.367C339.26 264.581 338.999 264.878 338.808 265.258C338.618 265.638 338.523 266.062 338.523 266.529C338.523 267.012 338.618 267.448 338.808 267.836C338.999 268.224 339.26 268.529 339.593 268.751C339.933 268.965 340.309 269.072 340.721 269.072ZM345.386 269.844V263.274H346.396V263.702C346.396 263.813 346.384 263.908 346.361 263.987C346.345 264.058 346.309 264.129 346.254 264.201L346.42 264.308C346.689 263.904 346.986 263.611 347.311 263.428C347.644 263.246 348.056 263.155 348.547 263.155H348.594V264.165H348.25C347.719 264.165 347.295 264.323 346.978 264.64C346.59 265.012 346.396 265.595 346.396 266.387V269.844H345.386ZM355.706 269.963C354.874 269.963 354.197 269.765 353.674 269.369C353.151 268.973 352.834 268.426 352.723 267.729H353.781C353.868 268.149 354.07 268.478 354.387 268.715C354.712 268.953 355.155 269.072 355.717 269.072C356.177 269.072 356.541 268.985 356.81 268.81C357.088 268.636 357.226 268.387 357.226 268.062C357.226 267.808 357.143 267.606 356.977 267.456C356.818 267.298 356.612 267.179 356.359 267.1C356.113 267.02 355.785 266.941 355.373 266.862C354.858 266.759 354.442 266.656 354.125 266.553C353.817 266.442 353.551 266.268 353.329 266.03C353.108 265.793 352.997 265.464 352.997 265.044C352.997 264.45 353.219 263.987 353.662 263.654C354.114 263.321 354.688 263.155 355.385 263.155C356.098 263.155 356.692 263.341 357.167 263.714C357.642 264.086 357.935 264.597 358.046 265.246H357.107C357.012 264.842 356.814 264.541 356.513 264.343C356.212 264.145 355.836 264.046 355.385 264.046C354.949 264.046 354.609 264.129 354.363 264.296C354.125 264.454 354.007 264.676 354.007 264.961C354.007 265.183 354.082 265.357 354.232 265.484C354.383 265.61 354.569 265.709 354.791 265.781C355.013 265.844 355.325 265.915 355.729 265.995C356.26 266.098 356.692 266.208 357.024 266.327C357.357 266.438 357.642 266.624 357.88 266.886C358.117 267.139 358.236 267.496 358.236 267.955C358.236 268.573 358.014 269.064 357.571 269.428C357.127 269.785 356.506 269.963 355.706 269.963ZM360.691 269.844H359.681V263.274H360.691V269.844ZM360.192 262.145C359.978 262.145 359.796 262.074 359.646 261.931C359.495 261.781 359.42 261.603 359.42 261.397C359.42 261.191 359.495 261.017 359.646 260.874C359.796 260.731 359.978 260.66 360.192 260.66C360.406 260.66 360.588 260.731 360.739 260.874C360.889 261.017 360.964 261.191 360.964 261.397C360.964 261.603 360.889 261.781 360.739 261.931C360.588 262.074 360.406 262.145 360.192 262.145ZM364.476 269.844C363.945 269.844 363.553 269.725 363.3 269.488C363.046 269.25 362.92 268.818 362.92 268.193V264.165H361.862V263.274H362.92V260.779H363.929V263.274H365.403V264.165H363.929V267.991C363.929 268.22 363.945 268.402 363.977 268.537C364.009 268.664 364.08 268.767 364.191 268.846C364.302 268.917 364.476 268.953 364.714 268.953H365.391V269.844H364.476ZM371.897 269.963C371.239 269.963 370.717 269.796 370.328 269.464C369.948 269.131 369.758 268.676 369.758 268.098C369.758 267.527 369.972 267.076 370.4 266.743C370.748 266.466 371.251 266.26 371.909 266.125L374.249 265.674C374.257 265.167 374.122 264.775 373.845 264.498C373.544 264.197 373.14 264.046 372.633 264.046C372.229 264.046 371.877 264.157 371.576 264.379C371.283 264.593 371.097 264.882 371.017 265.246H370.008C370.119 264.589 370.419 264.078 370.911 263.714C371.41 263.341 371.988 263.155 372.645 263.155C373.033 263.155 373.394 263.215 373.726 263.333C374.059 263.444 374.34 263.611 374.57 263.832C374.871 264.117 375.061 264.446 375.14 264.818C375.219 265.191 375.259 265.575 375.259 265.971V269.844H374.249V269.535C374.249 269.337 374.289 269.111 374.368 268.858L374.202 268.787C373.988 269.127 373.738 269.393 373.453 269.583C373.255 269.717 373.029 269.812 372.776 269.868C372.53 269.931 372.237 269.963 371.897 269.963ZM372.015 269.072C372.396 269.072 372.744 268.997 373.061 268.846C373.449 268.648 373.734 268.383 373.916 268.05C374.051 267.812 374.138 267.587 374.178 267.373C374.225 267.159 374.253 267.028 374.261 266.981C374.285 266.862 374.316 266.775 374.356 266.719C374.396 266.664 374.455 266.632 374.534 266.624L374.499 266.434L372.966 266.755L372.122 266.921C371.631 267.016 371.271 267.171 371.041 267.385C370.859 267.567 370.768 267.797 370.768 268.074C370.768 268.375 370.879 268.616 371.101 268.798C371.33 268.981 371.635 269.072 372.015 269.072ZM376.889 269.844V263.274H377.898V263.702C377.898 263.813 377.887 263.908 377.863 263.987C377.847 264.058 377.811 264.129 377.756 264.201L377.922 264.308C378.223 263.896 378.52 263.603 378.813 263.428C379.106 263.246 379.451 263.155 379.847 263.155C380.298 263.155 380.686 263.262 381.011 263.476C381.336 263.682 381.526 263.979 381.582 264.367H381.736C382.092 263.559 382.762 263.155 383.744 263.155C384.472 263.155 385.019 263.365 385.383 263.785C385.748 264.197 385.93 264.791 385.93 265.567V269.844H384.92V265.805C384.92 265.242 384.801 264.811 384.564 264.51C384.334 264.201 384.009 264.046 383.589 264.046C383.154 264.046 382.797 264.193 382.52 264.486C382.298 264.723 382.14 265.032 382.045 265.412C381.958 265.793 381.914 266.28 381.914 266.874V269.844H380.904V265.805C380.904 265.25 380.782 264.818 380.536 264.51C380.298 264.201 379.974 264.046 379.562 264.046C379.126 264.046 378.77 264.205 378.493 264.521C378.295 264.743 378.144 265.04 378.041 265.412C377.946 265.777 377.898 266.264 377.898 266.874V269.844H376.889ZM390.509 269.963C389.891 269.963 389.337 269.816 388.846 269.523C388.362 269.23 387.986 268.826 387.717 268.311C387.448 267.797 387.313 267.218 387.313 266.577C387.313 265.967 387.44 265.405 387.693 264.89C387.947 264.367 388.311 263.947 388.786 263.63C389.269 263.314 389.836 263.155 390.485 263.155C391.047 263.155 391.57 263.282 392.053 263.535C392.536 263.789 392.925 264.161 393.218 264.652C393.511 265.135 393.657 265.717 393.657 266.399V266.755H388.964C388.909 266.755 388.798 266.755 388.632 266.755C388.473 266.755 388.327 266.747 388.192 266.731L388.156 266.921C388.228 266.937 388.275 266.965 388.299 267.004C388.331 267.036 388.354 267.096 388.37 267.183C388.394 267.262 388.418 267.337 388.442 267.408C388.608 267.915 388.873 268.319 389.238 268.62C389.61 268.921 390.03 269.072 390.497 269.072C390.972 269.072 391.38 268.945 391.721 268.692C392.061 268.438 392.307 268.117 392.457 267.729H393.538C393.325 268.395 392.96 268.933 392.445 269.345C391.931 269.757 391.285 269.963 390.509 269.963ZM388.394 266.09C388.481 266.01 388.568 265.955 388.655 265.923C388.751 265.884 388.865 265.864 389 265.864H391.946C392.097 265.864 392.224 265.884 392.327 265.923C392.43 265.955 392.529 266.01 392.624 266.09L392.754 265.947C392.675 265.892 392.624 265.844 392.6 265.805C392.584 265.757 392.568 265.698 392.552 265.626C392.529 265.484 392.489 265.349 392.434 265.222C392.267 264.85 392.01 264.561 391.661 264.355C391.321 264.149 390.937 264.046 390.509 264.046C390.073 264.046 389.689 264.149 389.356 264.355C389.032 264.561 388.778 264.85 388.596 265.222C388.525 265.373 388.481 265.508 388.465 265.626C388.457 265.698 388.442 265.753 388.418 265.793C388.394 265.832 388.343 265.884 388.263 265.947L388.394 266.09ZM396.987 269.844C396.456 269.844 396.064 269.725 395.811 269.488C395.557 269.25 395.431 268.818 395.431 268.193V264.165H394.373V263.274H395.431V260.779H396.44V263.274H397.914V264.165H396.44V267.991C396.44 268.22 396.456 268.402 396.488 268.537C396.52 268.664 396.591 268.767 396.702 268.846C396.813 268.917 396.987 268.953 397.225 268.953H397.902V269.844H396.987ZM398.915 271.341C399.28 271.286 399.561 271.143 399.759 270.913C399.957 270.684 400.056 270.398 400.056 270.058C400.056 269.939 400.044 269.82 400.02 269.701H399.878C399.87 269.789 399.826 269.852 399.747 269.892C399.676 269.939 399.589 269.963 399.486 269.963C399.312 269.963 399.165 269.903 399.046 269.785C398.927 269.658 398.868 269.492 398.868 269.286C398.868 269.072 398.935 268.897 399.07 268.763C399.213 268.628 399.399 268.561 399.628 268.561C399.937 268.561 400.183 268.688 400.365 268.941C400.555 269.195 400.65 269.527 400.65 269.939C400.65 270.422 400.504 270.85 400.21 271.222C399.925 271.594 399.494 271.812 398.915 271.876V271.341ZM408.203 269.963C407.585 269.963 407.035 269.816 406.552 269.523C406.069 269.23 405.692 268.822 405.423 268.299C405.154 267.777 405.019 267.187 405.019 266.529C405.019 265.888 405.154 265.31 405.423 264.795C405.692 264.28 406.069 263.88 406.552 263.595C407.035 263.302 407.585 263.155 408.203 263.155C408.94 263.155 409.562 263.345 410.068 263.725C410.583 264.098 410.916 264.605 411.066 265.246H409.985C409.859 264.882 409.633 264.593 409.308 264.379C408.991 264.157 408.623 264.046 408.203 264.046C407.791 264.046 407.419 264.153 407.086 264.367C406.762 264.581 406.504 264.878 406.314 265.258C406.124 265.63 406.029 266.054 406.029 266.529C406.029 267.02 406.12 267.46 406.302 267.848C406.492 268.228 406.754 268.529 407.086 268.751C407.419 268.965 407.791 269.072 408.203 269.072C408.655 269.072 409.043 268.949 409.367 268.703C409.7 268.458 409.922 268.133 410.033 267.729H411.114C410.971 268.426 410.635 268.973 410.104 269.369C409.581 269.765 408.948 269.963 408.203 269.963ZM415.386 269.963C414.768 269.963 414.214 269.816 413.723 269.523C413.239 269.23 412.859 268.822 412.582 268.299C412.313 267.777 412.178 267.187 412.178 266.529C412.178 265.888 412.313 265.31 412.582 264.795C412.859 264.28 413.239 263.88 413.723 263.595C414.214 263.302 414.768 263.155 415.386 263.155C416.004 263.155 416.558 263.302 417.049 263.595C417.54 263.88 417.924 264.28 418.202 264.795C418.479 265.31 418.617 265.888 418.617 266.529C418.617 267.187 418.479 267.777 418.202 268.299C417.932 268.814 417.552 269.222 417.061 269.523C416.57 269.816 416.012 269.963 415.386 269.963ZM415.386 269.072C415.798 269.072 416.17 268.961 416.503 268.739C416.843 268.517 417.109 268.216 417.299 267.836C417.497 267.448 417.596 267.012 417.596 266.529C417.596 266.07 417.501 265.65 417.31 265.27C417.12 264.89 416.855 264.593 416.514 264.379C416.182 264.157 415.806 264.046 415.386 264.046C414.974 264.046 414.598 264.153 414.257 264.367C413.924 264.581 413.663 264.878 413.473 265.258C413.283 265.638 413.188 266.062 413.188 266.529C413.188 267.012 413.283 267.448 413.473 267.836C413.663 268.224 413.924 268.529 414.257 268.751C414.598 268.965 414.974 269.072 415.386 269.072ZM420.051 269.844V263.274H421.061V263.702C421.061 263.813 421.049 263.908 421.025 263.987C421.009 264.058 420.974 264.129 420.918 264.201L421.085 264.308C421.386 263.896 421.683 263.603 421.976 263.428C422.269 263.246 422.613 263.155 423.009 263.155C423.936 263.155 424.582 263.5 424.946 264.189C425.081 264.45 425.164 264.719 425.195 264.997C425.235 265.266 425.255 265.563 425.255 265.888V269.844H424.245V265.888C424.245 265.191 424.118 264.7 423.865 264.414C423.643 264.169 423.306 264.046 422.855 264.046C422.356 264.046 421.956 264.209 421.655 264.533C421.441 264.755 421.287 265.06 421.192 265.448C421.104 265.836 421.061 266.367 421.061 267.04V269.844H420.051ZM429.558 269.963C428.726 269.963 428.049 269.765 427.526 269.369C427.003 268.973 426.686 268.426 426.576 267.729H427.633C427.72 268.149 427.922 268.478 428.239 268.715C428.564 268.953 429.007 269.072 429.57 269.072C430.029 269.072 430.393 268.985 430.663 268.81C430.94 268.636 431.078 268.387 431.078 268.062C431.078 267.808 430.995 267.606 430.829 267.456C430.67 267.298 430.465 267.179 430.211 267.1C429.966 267.02 429.637 266.941 429.225 266.862C428.71 266.759 428.294 266.656 427.978 266.553C427.669 266.442 427.403 266.268 427.182 266.03C426.96 265.793 426.849 265.464 426.849 265.044C426.849 264.45 427.071 263.987 427.514 263.654C427.966 263.321 428.54 263.155 429.237 263.155C429.95 263.155 430.544 263.341 431.019 263.714C431.494 264.086 431.787 264.597 431.898 265.246H430.96C430.865 264.842 430.667 264.541 430.366 264.343C430.065 264.145 429.688 264.046 429.237 264.046C428.801 264.046 428.461 264.129 428.215 264.296C427.978 264.454 427.859 264.676 427.859 264.961C427.859 265.183 427.934 265.357 428.084 265.484C428.235 265.61 428.421 265.709 428.643 265.781C428.865 265.844 429.177 265.915 429.581 265.995C430.112 266.098 430.544 266.208 430.876 266.327C431.209 266.438 431.494 266.624 431.732 266.886C431.969 267.139 432.088 267.496 432.088 267.955C432.088 268.573 431.866 269.064 431.423 269.428C430.979 269.785 430.358 269.963 429.558 269.963ZM436.456 269.963C435.838 269.963 435.284 269.816 434.793 269.523C434.31 269.23 433.933 268.826 433.664 268.311C433.395 267.797 433.26 267.218 433.26 266.577C433.26 265.967 433.387 265.405 433.64 264.89C433.894 264.367 434.258 263.947 434.733 263.63C435.217 263.314 435.783 263.155 436.432 263.155C436.995 263.155 437.517 263.282 438.001 263.535C438.484 263.789 438.872 264.161 439.165 264.652C439.458 265.135 439.604 265.717 439.604 266.399V266.755H434.912C434.856 266.755 434.745 266.755 434.579 266.755C434.421 266.755 434.274 266.747 434.139 266.731L434.104 266.921C434.175 266.937 434.223 266.965 434.246 267.004C434.278 267.036 434.302 267.096 434.318 267.183C434.341 267.262 434.365 267.337 434.389 267.408C434.555 267.915 434.821 268.319 435.185 268.62C435.557 268.921 435.977 269.072 436.444 269.072C436.919 269.072 437.327 268.945 437.668 268.692C438.009 268.438 438.254 268.117 438.405 267.729H439.486C439.272 268.395 438.907 268.933 438.393 269.345C437.878 269.757 437.232 269.963 436.456 269.963ZM434.341 266.09C434.428 266.01 434.516 265.955 434.603 265.923C434.698 265.884 434.813 265.864 434.947 265.864H437.894C438.044 265.864 438.171 265.884 438.274 265.923C438.377 265.955 438.476 266.01 438.571 266.09L438.702 265.947C438.622 265.892 438.571 265.844 438.547 265.805C438.531 265.757 438.515 265.698 438.5 265.626C438.476 265.484 438.436 265.349 438.381 265.222C438.214 264.85 437.957 264.561 437.609 264.355C437.268 264.149 436.884 264.046 436.456 264.046C436.02 264.046 435.636 264.149 435.304 264.355C434.979 264.561 434.725 264.85 434.543 265.222C434.472 265.373 434.428 265.508 434.413 265.626C434.405 265.698 434.389 265.753 434.365 265.793C434.341 265.832 434.29 265.884 434.211 265.947L434.341 266.09ZM441.564 269.963C441.366 269.963 441.195 269.895 441.053 269.761C440.91 269.618 440.839 269.448 440.839 269.25C440.839 269.06 440.91 268.897 441.053 268.763C441.195 268.628 441.366 268.561 441.564 268.561C441.746 268.561 441.904 268.632 442.039 268.775C442.174 268.909 442.241 269.068 442.241 269.25C442.241 269.448 442.174 269.618 442.039 269.761C441.904 269.895 441.746 269.963 441.564 269.963Z" fill="white" fill-opacity="0.56"/>
<g clip-path="url(#clip1_1315_6246)">
<rect x="242.009" y="290.486" width="232.862" height="97.422" rx="8" fill="url(#paint0_linear_1315_6246)" fill-opacity="0.02"/>
<rect x="258" y="308" width="96" height="12" rx="6" fill="white" fill-opacity="0.03"/>
<rect x="258.5" y="308.5" width="95" height="11" rx="5.5" stroke="url(#paint1_linear_1315_6246)" stroke-opacity="0.04"/>
<rect x="258" y="332" width="200" height="85" rx="8" fill="white" fill-opacity="0.02"/>
<rect x="258.5" y="332.5" width="199" height="84" rx="7.5" stroke="url(#paint2_linear_1315_6246)" stroke-opacity="0.03"/>
<rect x="434" y="308" width="24" height="12" rx="6" fill="white" fill-opacity="0.03"/>
<rect x="434.5" y="308.5" width="23" height="11" rx="5.5" stroke="url(#paint3_linear_1315_6246)" stroke-opacity="0.04"/>
<rect x="402" y="308" width="24" height="12" rx="6" fill="white" fill-opacity="0.03"/>
<rect x="402.5" y="308.5" width="23" height="11" rx="5.5" stroke="url(#paint4_linear_1315_6246)" stroke-opacity="0.04"/>
</g>
<rect x="242.509" y="290.986" width="231.862" height="96.422" rx="7.5" stroke="url(#paint5_linear_1315_6246)" stroke-opacity="0.04"/>
<rect x="223.5" y="207.821" width="269.881" height="262.752" rx="11.5" stroke="url(#paint6_linear_1315_6246)" stroke-opacity="0.06"/>
<rect x="223.5" y="207.821" width="269.881" height="262.752" rx="11.5" stroke="white" stroke-opacity="0.02"/>
<line x1="223" y1="182.96" x2="493.881" y2="182.96" stroke="white" stroke-opacity="0.06" stroke-width="1.2"/>
</g>
<path d="M191.5 96C191.5 73.6325 209.632 55.5 232 55.5H516C520.694 55.5 524.5 59.3056 524.5 64H523.5C523.5 59.8579 520.142 56.5 516 56.5H232C210.185 56.5 192.5 74.1848 192.5 96H191.5ZM524 364H192H524ZM191.5 364V96C191.5 73.6325 209.632 55.5 232 55.5V56.5C210.185 56.5 192.5 74.1848 192.5 96V364H191.5ZM516 55.5C520.694 55.5 524.5 59.3056 524.5 64V364H523.5V64C523.5 59.8579 520.142 56.5 516 56.5V55.5Z" fill="url(#paint7_linear_1315_6246)" fill-opacity="0.08"/>
<path d="M191.5 96C191.5 73.6325 209.632 55.5 232 55.5H516C520.694 55.5 524.5 59.3056 524.5 64H523.5C523.5 59.8579 520.142 56.5 516 56.5H232C210.185 56.5 192.5 74.1848 192.5 96H191.5ZM524 364H192H524ZM191.5 364V96C191.5 73.6325 209.632 55.5 232 55.5V56.5C210.185 56.5 192.5 74.1848 192.5 96V364H191.5ZM516 55.5C520.694 55.5 524.5 59.3056 524.5 64V364H523.5V64C523.5 59.8579 520.142 56.5 516 56.5V55.5Z" fill="white" fill-opacity="0.02"/>
</g>
<g filter="url(#filter8_b_1315_6246)">
<rect x="56" y="228" width="79.9999" height="80" rx="40" fill="white" fill-opacity="0.03"/>
<path d="M96 280C102.627 280 108 274.627 108 268C108 267.341 107.947 266.695 107.845 266.065C107.089 269.953 103.665 272.889 99.5556 272.889C94.8918 272.889 91.1111 269.108 91.1111 264.444C91.1111 260.335 94.0468 256.911 97.9354 256.155C97.3054 256.053 96.6589 256 96 256C89.3726 256 84 261.373 84 268C84 274.627 89.3726 280 96 280Z" fill="#51E0CF"/>
<path d="M96 280C102.627 280 108 274.627 108 268C108 267.341 107.947 266.695 107.845 266.065C107.089 269.953 103.665 272.889 99.5556 272.889C94.8918 272.889 91.1111 269.108 91.1111 264.444C91.1111 260.335 94.0468 256.911 97.9354 256.155C97.3054 256.053 96.6589 256 96 256C89.3726 256 84 261.373 84 268C84 274.627 89.3726 280 96 280Z" fill="url(#paint8_linear_1315_6246)" fill-opacity="0.4"/>
<rect x="56" y="228" width="79.9999" height="80" rx="40" stroke="url(#paint9_linear_1315_6246)" stroke-opacity="0.08" stroke-width="0.90909"/>
<rect x="56" y="228" width="79.9999" height="80" rx="40" stroke="white" stroke-opacity="0.02" stroke-width="0.90909"/>
</g>
</g>
<defs>
<filter id="filter0_b_1315_6246" x="-32" y="-32" width="644" height="428" filterUnits="userSpaceOnUse" color-interpolation-filters="sRGB">
<feFlood flood-opacity="0" result="BackgroundImageFix"/>
<feGaussianBlur in="BackgroundImageFix" stdDeviation="16"/>
<feComposite in2="SourceAlpha" operator="in" result="effect1_backgroundBlur_1315_6246"/>
<feBlend mode="normal" in="SourceGraphic" in2="effect1_backgroundBlur_1315_6246" result="shape"/>
</filter>
<filter id="filter1_b_1315_6246" x="96.4541" y="-39.5459" width="523.092" height="498.592" filterUnits="userSpaceOnUse" color-interpolation-filters="sRGB">
<feFlood flood-opacity="0" result="BackgroundImageFix"/>
<feGaussianBlur in="BackgroundImageFix" stdDeviation="47.5229"/>
<feComposite in2="SourceAlpha" operator="in" result="effect1_backgroundBlur_1315_6246"/>
<feBlend mode="normal" in="SourceGraphic" in2="effect1_backgroundBlur_1315_6246" result="shape"/>
</filter>
<filter id="filter2_i_1315_6246" x="223" y="126.532" width="77.1467" height="35.8808" filterUnits="userSpaceOnUse" color-interpolation-filters="sRGB">
<feFlood flood-opacity="0" result="BackgroundImageFix"/>
<feBlend mode="normal" in="SourceGraphic" in2="BackgroundImageFix" result="shape"/>
<feColorMatrix in="SourceAlpha" type="matrix" values="0 0 0 0 0 0 0 0 0 0 0 0 0 0 0 0 0 0 127 0" result="hardAlpha"/>
<feOffset dy="2.37615"/>
<feGaussianBlur stdDeviation="7.12844"/>
<feComposite in2="hardAlpha" operator="arithmetic" k2="-1" k3="1"/>
<feColorMatrix type="matrix" values="0 0 0 0 1 0 0 0 0 1 0 0 0 0 1 0 0 0 0.08 0"/>
<feBlend mode="normal" in2="shape" result="effect1_innerShadow_1315_6246"/>
</filter>
<filter id="filter3_i_1315_6246" x="234.881" y="135.364" width="14.2568" height="17.0291" filterUnits="userSpaceOnUse" color-interpolation-filters="sRGB">
<feFlood flood-opacity="0" result="BackgroundImageFix"/>
<feBlend mode="normal" in="SourceGraphic" in2="BackgroundImageFix" result="shape"/>
<feColorMatrix in="SourceAlpha" type="matrix" values="0 0 0 0 0 0 0 0 0 0 0 0 0 0 0 0 0 0 127 0" result="hardAlpha"/>
<feOffset dy="1.18807"/>
<feGaussianBlur stdDeviation="3.56422"/>
<feComposite in2="hardAlpha" operator="arithmetic" k2="-1" k3="1"/>
<feColorMatrix type="matrix" values="0 0 0 0 1 0 0 0 0 1 0 0 0 0 1 0 0 0 0.48 0"/>
<feBlend mode="normal" in2="shape" result="effect1_innerShadow_1315_6246"/>
</filter>
<filter id="filter4_i_1315_6246" x="309.651" y="126.532" width="73.1467" height="35.8808" filterUnits="userSpaceOnUse" color-interpolation-filters="sRGB">
<feFlood flood-opacity="0" result="BackgroundImageFix"/>
<feBlend mode="normal" in="SourceGraphic" in2="BackgroundImageFix" result="shape"/>
<feColorMatrix in="SourceAlpha" type="matrix" values="0 0 0 0 0 0 0 0 0 0 0 0 0 0 0 0 0 0 127 0" result="hardAlpha"/>
<feOffset dy="2.37615"/>
<feGaussianBlur stdDeviation="7.12844"/>
<feComposite in2="hardAlpha" operator="arithmetic" k2="-1" k3="1"/>
<feColorMatrix type="matrix" values="0 0 0 0 1 0 0 0 0 1 0 0 0 0 1 0 0 0 0.08 0"/>
<feBlend mode="normal" in2="shape" result="effect1_innerShadow_1315_6246"/>
</filter>
<filter id="filter5_i_1315_6246" x="322.72" y="137.938" width="11.8807" height="11.8807" filterUnits="userSpaceOnUse" color-interpolation-filters="sRGB">
<feFlood flood-opacity="0" result="BackgroundImageFix"/>
<feBlend mode="normal" in="SourceGraphic" in2="BackgroundImageFix" result="shape"/>
<feColorMatrix in="SourceAlpha" type="matrix" values="0 0 0 0 0 0 0 0 0 0 0 0 0 0 0 0 0 0 127 0" result="hardAlpha"/>
<feOffset dy="1.18807"/>
<feGaussianBlur stdDeviation="3.56422"/>
<feComposite in2="hardAlpha" operator="arithmetic" k2="-1" k3="1"/>
<feColorMatrix type="matrix" values="0 0 0 0 1 0 0 0 0 1 0 0 0 0 1 0 0 0 0.48 0"/>
<feBlend mode="normal" in2="shape" result="effect1_innerShadow_1315_6246"/>
</filter>
<filter id="filter6_i_1315_6246" x="392.303" y="126.532" width="101.147" height="35.8808" filterUnits="userSpaceOnUse" color-interpolation-filters="sRGB">
<feFlood flood-opacity="0" result="BackgroundImageFix"/>
<feBlend mode="normal" in="SourceGraphic" in2="BackgroundImageFix" result="shape"/>
<feColorMatrix in="SourceAlpha" type="matrix" values="0 0 0 0 0 0 0 0 0 0 0 0 0 0 0 0 0 0 127 0" result="hardAlpha"/>
<feOffset dy="2.37615"/>
<feGaussianBlur stdDeviation="7.12844"/>
<feComposite in2="hardAlpha" operator="arithmetic" k2="-1" k3="1"/>
<feColorMatrix type="matrix" values="0 0 0 0 1 0 0 0 0 1 0 0 0 0 1 0 0 0 0.08 0"/>
<feBlend mode="normal" in2="shape" result="effect1_innerShadow_1315_6246"/>
</filter>
<filter id="filter7_i_1315_6246" x="405.966" y="136.75" width="10.6926" height="14.2569" filterUnits="userSpaceOnUse" color-interpolation-filters="sRGB">
<feFlood flood-opacity="0" result="BackgroundImageFix"/>
<feBlend mode="normal" in="SourceGraphic" in2="BackgroundImageFix" result="shape"/>
<feColorMatrix in="SourceAlpha" type="matrix" values="0 0 0 0 0 0 0 0 0 0 0 0 0 0 0 0 0 0 127 0" result="hardAlpha"/>
<feOffset dy="1.18807"/>
<feGaussianBlur stdDeviation="3.56422"/>
<feComposite in2="hardAlpha" operator="arithmetic" k2="-1" k3="1"/>
<feColorMatrix type="matrix" values="0 0 0 0 1 0 0 0 0 1 0 0 0 0 1 0 0 0 0.48 0"/>
<feBlend mode="normal" in2="shape" result="effect1_innerShadow_1315_6246"/>
</filter>
<filter id="filter8_b_1315_6246" x="-17.1818" y="154.818" width="226.364" height="226.364" filterUnits="userSpaceOnUse" color-interpolation-filters="sRGB">
<feFlood flood-opacity="0" result="BackgroundImageFix"/>
<feGaussianBlur in="BackgroundImageFix" stdDeviation="36.3636"/>
<feComposite in2="SourceAlpha" operator="in" result="effect1_backgroundBlur_1315_6246"/>
<feBlend mode="normal" in="SourceGraphic" in2="effect1_backgroundBlur_1315_6246" result="shape"/>
</filter>
<linearGradient id="paint0_linear_1315_6246" x1="358.44" y1="290.486" x2="358.44" y2="368" gradientUnits="userSpaceOnUse">
<stop stop-color="white"/>
<stop offset="1" stop-color="white" stop-opacity="0"/>
</linearGradient>
<linearGradient id="paint1_linear_1315_6246" x1="306" y1="308" x2="306" y2="311.585" gradientUnits="userSpaceOnUse">
<stop stop-color="white"/>
<stop offset="1" stop-color="white" stop-opacity="0"/>
</linearGradient>
<linearGradient id="paint2_linear_1315_6246" x1="358" y1="332" x2="358" y2="357.396" gradientUnits="userSpaceOnUse">
<stop stop-color="white"/>
<stop offset="1" stop-color="white" stop-opacity="0"/>
</linearGradient>
<linearGradient id="paint3_linear_1315_6246" x1="446" y1="308" x2="446" y2="311.585" gradientUnits="userSpaceOnUse">
<stop stop-color="white"/>
<stop offset="1" stop-color="white" stop-opacity="0"/>
</linearGradient>
<linearGradient id="paint4_linear_1315_6246" x1="414" y1="308" x2="414" y2="311.585" gradientUnits="userSpaceOnUse">
<stop stop-color="white"/>
<stop offset="1" stop-color="white" stop-opacity="0"/>
</linearGradient>
<linearGradient id="paint5_linear_1315_6246" x1="358.44" y1="290.486" x2="358.44" y2="319.594" gradientUnits="userSpaceOnUse">
<stop stop-color="white"/>
<stop offset="1" stop-color="white" stop-opacity="0"/>
</linearGradient>
<linearGradient id="paint6_linear_1315_6246" x1="358.44" y1="207.321" x2="358.44" y2="323.158" gradientUnits="userSpaceOnUse">
<stop stop-color="white"/>
<stop offset="1" stop-color="white" stop-opacity="0"/>
</linearGradient>
<linearGradient id="paint7_linear_1315_6246" x1="358" y1="56" x2="358" y2="364" gradientUnits="userSpaceOnUse">
<stop stop-color="white"/>
<stop offset="1" stop-color="white" stop-opacity="0"/>
</linearGradient>
<linearGradient id="paint8_linear_1315_6246" x1="96" y1="256" x2="96" y2="274.314" gradientUnits="userSpaceOnUse">
<stop stop-color="white"/>
<stop offset="1" stop-color="white" stop-opacity="0"/>
</linearGradient>
<linearGradient id="paint9_linear_1315_6246" x1="96" y1="228" x2="96" y2="308" gradientUnits="userSpaceOnUse">
<stop stop-color="white"/>
<stop offset="1" stop-color="white" stop-opacity="0"/>
</linearGradient>
<clipPath id="clip0_1315_6246">
<path d="M192 96C192 73.9086 209.909 56 232 56H516C520.418 56 524 59.5817 524 64V364H192V96Z" fill="white"/>
</clipPath>
<clipPath id="clip1_1315_6246">
<rect x="242.009" y="290.486" width="232.862" height="97.422" rx="8" fill="white"/>
</clipPath>
</defs>
</svg>
