<svg width="580" height="364" viewBox="0 0 580 364" fill="none" xmlns="http://www.w3.org/2000/svg">
<g clip-path="url(#clip0_1315_6204)" filter="url(#filter0_b_1315_6204)">
<rect width="580" height="364" fill="white" fill-opacity="0.01"/>
<g filter="url(#filter1_b_1315_6204)">
<rect x="162.943" y="-63" width="254.114" height="78.7156" rx="8.55604" fill="white" fill-opacity="0.02"/>
<g filter="url(#filter2_i_1315_6204)">
<path d="M177.862 -48.1962V0.991306" stroke="#E05151" stroke-width="1.7567" stroke-linecap="round"/>
</g>
<rect x="162.943" y="-63" width="254.114" height="78.7156" rx="8.55604" stroke="url(#paint0_linear_1315_6204)" stroke-opacity="0.08" stroke-width="0.919115"/>
<rect x="162.943" y="-63" width="254.114" height="78.7156" rx="8.55604" stroke="white" stroke-opacity="0.02" stroke-width="0.919115"/>
</g>
<g filter="url(#filter3_b_1315_6204)">
<rect x="162.943" y="36.2502" width="254.114" height="78.7156" rx="8.55604" fill="white" fill-opacity="0.02"/>
<g filter="url(#filter4_i_1315_6204)">
<path d="M177.862 51.0541V100.242" stroke="#E05151" stroke-width="1.7567" stroke-linecap="round"/>
</g>
<path d="M192.899 66.2633V57.3201H196.086C196.782 57.3201 197.358 57.4468 197.816 57.7C198.273 57.9533 198.615 58.2997 198.842 58.7393C199.069 59.176 199.182 59.668 199.182 60.2153C199.182 60.7655 199.067 61.2604 198.837 61.7C198.61 62.1367 198.267 62.4831 197.807 62.7393C197.35 62.9926 196.775 63.1192 196.082 63.1192H193.89V61.9751H195.96C196.399 61.9751 196.756 61.8994 197.03 61.748C197.303 61.5938 197.504 61.3842 197.632 61.1192C197.76 60.8543 197.824 60.553 197.824 60.2153C197.824 59.8776 197.76 59.5778 197.632 59.3157C197.504 59.0537 197.302 58.8485 197.025 58.7C196.752 58.5516 196.391 58.4773 195.942 58.4773H194.248V66.2633H192.899ZM200.536 66.2633V59.5559H201.798V60.6214H201.868C201.991 60.2604 202.206 59.9766 202.515 59.7699C202.823 59.5603 203.175 59.4555 203.571 59.4555C203.755 59.4555 203.919 59.4773 204.065 59.521C204.21 59.5647 204.338 59.6243 204.449 59.7L204.03 60.7917C203.951 60.7539 203.862 60.7233 203.763 60.7C203.665 60.6738 203.551 60.6607 203.423 60.6607C203.12 60.6607 202.849 60.7262 202.611 60.8572C202.375 60.9853 202.187 61.1629 202.047 61.39C201.911 61.617 201.842 61.8761 201.842 62.1673V66.2633H200.536ZM207.874 66.3987C207.245 66.3987 206.697 66.2546 206.228 65.9664C205.759 65.6782 205.395 65.275 205.136 64.7568C204.877 64.2386 204.748 63.633 204.748 62.9402C204.748 62.2444 204.877 61.636 205.136 61.1149C205.395 60.5938 205.759 60.1891 206.228 59.9009C206.697 59.6127 207.245 59.4686 207.874 59.4686C208.503 59.4686 209.052 59.6127 209.52 59.9009C209.989 60.1891 210.353 60.5938 210.612 61.1149C210.871 61.636 211.001 62.2444 211.001 62.9402C211.001 63.633 210.871 64.2386 210.612 64.7568C210.353 65.275 209.989 65.6782 209.52 65.9664C209.052 66.2546 208.503 66.3987 207.874 66.3987ZM207.878 65.3026C208.286 65.3026 208.624 65.1949 208.892 64.9795C209.159 64.764 209.357 64.4773 209.485 64.1192C209.616 63.7611 209.682 63.3667 209.682 62.9358C209.682 62.5079 209.616 62.1149 209.485 61.7568C209.357 61.3958 209.159 61.1061 208.892 60.8878C208.624 60.6695 208.286 60.5603 207.878 60.5603C207.468 60.5603 207.127 60.6695 206.857 60.8878C206.589 61.1061 206.389 61.3958 206.258 61.7568C206.13 62.1149 206.066 62.5079 206.066 62.9358C206.066 63.3667 206.13 63.7611 206.258 64.1192C206.389 64.4773 206.589 64.764 206.857 64.9795C207.127 65.1949 207.468 65.3026 207.878 65.3026ZM215.466 59.5559V60.604H211.802V59.5559H215.466ZM212.785 57.9489H214.091V64.2939C214.091 64.5472 214.128 64.7378 214.204 64.8659C214.28 64.9911 214.377 65.077 214.497 65.1236C214.619 65.1672 214.751 65.1891 214.894 65.1891C214.999 65.1891 215.091 65.1818 215.169 65.1672C215.248 65.1527 215.309 65.141 215.353 65.1323L215.588 66.2109C215.513 66.24 215.405 66.2691 215.265 66.2982C215.126 66.3303 214.951 66.3477 214.741 66.3506C214.398 66.3565 214.078 66.2953 213.781 66.1672C213.484 66.0391 213.243 65.8412 213.06 65.5734C212.877 65.3055 212.785 64.9693 212.785 64.5646V57.9489ZM219.541 66.3987C218.912 66.3987 218.363 66.2546 217.895 65.9664C217.426 65.6782 217.062 65.275 216.803 64.7568C216.544 64.2386 216.414 63.633 216.414 62.9402C216.414 62.2444 216.544 61.636 216.803 61.1149C217.062 60.5938 217.426 60.1891 217.895 59.9009C218.363 59.6127 218.912 59.4686 219.541 59.4686C220.17 59.4686 220.718 59.6127 221.187 59.9009C221.656 60.1891 222.02 60.5938 222.279 61.1149C222.538 61.636 222.667 62.2444 222.667 62.9402C222.667 63.633 222.538 64.2386 222.279 64.7568C222.02 65.275 221.656 65.6782 221.187 65.9664C220.718 66.2546 220.17 66.3987 219.541 66.3987ZM219.545 65.3026C219.953 65.3026 220.29 65.1949 220.558 64.9795C220.826 64.764 221.024 64.4773 221.152 64.1192C221.283 63.7611 221.349 63.3667 221.349 62.9358C221.349 62.5079 221.283 62.1149 221.152 61.7568C221.024 61.3958 220.826 61.1061 220.558 60.8878C220.29 60.6695 219.953 60.5603 219.545 60.5603C219.135 60.5603 218.794 60.6695 218.523 60.8878C218.255 61.1061 218.056 61.3958 217.925 61.7568C217.797 62.1149 217.733 62.5079 217.733 62.9358C217.733 63.3667 217.797 63.7611 217.925 64.1192C218.056 64.4773 218.255 64.764 218.523 64.9795C218.794 65.1949 219.135 65.3026 219.545 65.3026ZM227.133 59.5559V60.604H223.469V59.5559H227.133ZM224.452 57.9489H225.757V64.2939C225.757 64.5472 225.795 64.7378 225.871 64.8659C225.947 64.9911 226.044 65.077 226.163 65.1236C226.286 65.1672 226.418 65.1891 226.561 65.1891C226.666 65.1891 226.757 65.1818 226.836 65.1672C226.914 65.1527 226.976 65.141 227.019 65.1323L227.255 66.2109C227.179 66.24 227.072 66.2691 226.932 66.2982C226.792 66.3303 226.618 66.3477 226.408 66.3506C226.064 66.3565 225.744 66.2953 225.447 66.1672C225.15 66.0391 224.91 65.8412 224.727 65.5734C224.543 65.3055 224.452 64.9693 224.452 64.5646V57.9489ZM229.28 68.7786C229.084 68.7786 228.907 68.7626 228.747 68.7305C228.587 68.7014 228.467 68.6694 228.389 68.6345L228.703 67.5646C228.942 67.6287 229.154 67.6563 229.341 67.6476C229.527 67.6388 229.691 67.569 229.834 67.438C229.98 67.307 230.108 67.093 230.218 66.7961L230.38 66.3506L227.926 59.5559H229.323L231.022 64.7611H231.092L232.79 59.5559H234.192L231.428 67.1585C231.3 67.5078 231.137 67.8033 230.939 68.045C230.741 68.2895 230.505 68.4729 230.231 68.5952C229.958 68.7174 229.64 68.7786 229.28 68.7786ZM235.296 68.7786V59.5559H236.571V60.6433H236.681C236.756 60.5035 236.865 60.3419 237.008 60.1585C237.151 59.9751 237.349 59.815 237.602 59.6782C237.855 59.5385 238.19 59.4686 238.606 59.4686C239.148 59.4686 239.631 59.6054 240.056 59.8791C240.481 60.1527 240.814 60.5472 241.056 61.0625C241.301 61.5777 241.423 62.1978 241.423 62.9227C241.423 63.6476 241.302 64.2691 241.06 64.7873C240.819 65.3026 240.487 65.7 240.065 65.9795C239.643 66.256 239.161 66.3943 238.619 66.3943C238.212 66.3943 237.878 66.3259 237.619 66.1891C237.363 66.0522 237.162 65.8921 237.017 65.7087C236.871 65.5253 236.759 65.3623 236.681 65.2196H236.602V68.7786H235.296ZM236.576 62.9096C236.576 63.3812 236.644 63.7946 236.781 64.1498C236.918 64.5049 237.116 64.783 237.375 64.9838C237.634 65.1818 237.951 65.2808 238.327 65.2808C238.717 65.2808 239.043 65.1774 239.305 64.9707C239.567 64.7611 239.765 64.4773 239.899 64.1192C240.036 63.7611 240.104 63.3579 240.104 62.9096C240.104 62.4671 240.037 62.0697 239.903 61.7175C239.772 61.3652 239.574 61.0872 239.309 60.8834C239.047 60.6796 238.72 60.5778 238.327 60.5778C237.948 60.5778 237.628 60.6753 237.366 60.8703C237.107 61.0654 236.91 61.3376 236.777 61.6869C236.643 62.0363 236.576 62.4438 236.576 62.9096ZM242.763 66.2633V59.5559H244.068V66.2633H242.763ZM243.422 58.521C243.195 58.521 243 58.4453 242.837 58.2939C242.677 58.1396 242.597 57.9562 242.597 57.7437C242.597 57.5283 242.677 57.3449 242.837 57.1935C243 57.0392 243.195 56.9621 243.422 56.9621C243.649 56.9621 243.843 57.0392 244.003 57.1935C244.166 57.3449 244.247 57.5283 244.247 57.7437C244.247 57.9562 244.166 58.1396 244.003 58.2939C243.843 58.4453 243.649 58.521 243.422 58.521ZM247.008 62.2808V66.2633H245.702V59.5559H246.955V60.6476H247.038C247.193 60.2925 247.434 60.0072 247.763 59.7917C248.095 59.5763 248.513 59.4686 249.016 59.4686C249.473 59.4686 249.874 59.5647 250.217 59.7568C250.561 59.946 250.827 60.2284 251.016 60.604C251.206 60.9795 251.3 61.4438 251.3 61.997V66.2633H249.995V62.1542C249.995 61.668 249.868 61.2881 249.615 61.0144C249.361 60.7379 249.013 60.5996 248.571 60.5996C248.268 60.5996 247.999 60.6651 247.763 60.7961C247.53 60.9271 247.345 61.1192 247.209 61.3725C247.075 61.6229 247.008 61.9256 247.008 62.2808ZM255.741 68.9183C255.208 68.9183 254.749 68.8484 254.365 68.7087C253.984 68.569 253.672 68.3841 253.43 68.1541C253.189 67.9241 253.008 67.6723 252.889 67.3987L254.011 66.9358C254.09 67.0639 254.195 67.1993 254.326 67.3419C254.46 67.4875 254.64 67.6112 254.867 67.7131C255.097 67.815 255.393 67.8659 255.754 67.8659C256.249 67.8659 256.658 67.7451 256.981 67.5035C257.304 67.2648 257.465 66.8834 257.465 66.3594V65.0406H257.382C257.304 65.1833 257.19 65.3419 257.042 65.5166C256.896 65.6913 256.695 65.8426 256.439 65.9707C256.183 66.0988 255.85 66.1629 255.439 66.1629C254.909 66.1629 254.432 66.0391 254.007 65.7917C253.585 65.5413 253.25 65.1731 253.003 64.6869C252.758 64.1978 252.636 63.5967 252.636 62.8834C252.636 62.1702 252.757 61.5588 252.998 61.0494C253.243 60.5399 253.578 60.1498 254.003 59.8791C254.428 59.6054 254.909 59.4686 255.448 59.4686C255.864 59.4686 256.2 59.5385 256.457 59.6782C256.713 59.815 256.912 59.9751 257.055 60.1585C257.2 60.3419 257.313 60.5035 257.391 60.6433H257.487V59.5559H258.767V66.4118C258.767 66.9882 258.633 67.4613 258.365 67.831C258.097 68.2007 257.735 68.4744 257.278 68.6519C256.823 68.8295 256.311 68.9183 255.741 68.9183ZM255.727 65.0799C256.103 65.0799 256.42 64.9926 256.679 64.8179C256.941 64.6403 257.139 64.387 257.273 64.0581C257.41 63.7262 257.479 63.3288 257.479 62.8659C257.479 62.4147 257.412 62.0173 257.278 61.6738C257.144 61.3303 256.947 61.0625 256.688 60.8703C256.429 60.6753 256.109 60.5778 255.727 60.5778C255.334 60.5778 255.007 60.6796 254.745 60.8834C254.483 61.0843 254.285 61.3579 254.151 61.7044C254.02 62.0508 253.955 62.438 253.955 62.8659C253.955 63.3055 254.021 63.6913 254.155 64.0231C254.289 64.355 254.487 64.6141 254.749 64.8004C255.014 64.9867 255.34 65.0799 255.727 65.0799ZM266.129 66.3899C265.529 66.3899 265.012 66.2808 264.579 66.0624C264.148 65.8441 263.816 65.5472 263.583 65.1716C263.35 64.7932 263.234 64.3652 263.234 63.8878C263.234 63.5239 263.309 63.2007 263.461 62.9183C263.612 62.6331 263.823 62.3696 264.094 62.128C264.365 61.8863 264.678 61.6432 265.033 61.3987L266.474 60.3812C266.718 60.2211 266.909 60.0523 267.046 59.8747C267.183 59.6942 267.251 59.4715 267.251 59.2066C267.251 58.997 267.161 58.7961 266.98 58.604C266.8 58.4118 266.558 58.3158 266.255 58.3158C266.046 58.3158 265.861 58.3667 265.701 58.4686C265.544 58.5705 265.42 58.7015 265.33 58.8616C265.242 59.0188 265.199 59.1847 265.199 59.3594C265.199 59.5632 265.254 59.7684 265.365 59.9751C265.478 60.1818 265.624 60.3958 265.801 60.6171C265.979 60.8354 266.165 61.0625 266.36 61.2983L270.513 66.2633H269.037L265.6 62.224C265.312 61.8834 265.044 61.5632 264.797 61.2633C264.549 60.9606 264.349 60.6549 264.194 60.3463C264.043 60.0348 263.967 59.6986 263.967 59.3376C263.967 58.9271 264.06 58.5632 264.247 58.2459C264.436 57.9257 264.699 57.6753 265.037 57.4948C265.375 57.3143 265.771 57.2241 266.225 57.2241C266.685 57.2241 267.079 57.3143 267.408 57.4948C267.74 57.6724 267.995 57.9096 268.172 58.2066C268.353 58.5006 268.443 58.8223 268.443 59.1716C268.443 59.5967 268.337 59.9722 268.124 60.2983C267.915 60.6214 267.625 60.9184 267.255 61.1891L265.461 62.5122C265.111 62.7684 264.868 63.0217 264.731 63.2721C264.598 63.5195 264.531 63.7131 264.531 63.8528C264.531 64.109 264.596 64.3463 264.727 64.5646C264.861 64.783 265.047 64.9576 265.286 65.0886C265.528 65.2196 265.81 65.2851 266.133 65.2851C266.465 65.2851 266.788 65.2138 267.103 65.0712C267.42 64.9256 267.707 64.7175 267.963 64.4467C268.222 64.176 268.427 63.8514 268.579 63.4729C268.73 63.0945 268.806 62.6709 268.806 62.2022H269.985C269.985 62.7786 269.919 63.2662 269.788 63.6651C269.657 64.061 269.499 64.3841 269.312 64.6345C269.129 64.8819 268.956 65.0755 268.793 65.2153C268.74 65.2619 268.691 65.3084 268.644 65.355C268.597 65.4016 268.548 65.4482 268.496 65.4948C268.193 65.8004 267.826 66.026 267.395 66.1716C266.967 66.3172 266.545 66.3899 266.129 66.3899ZM274.208 58.4817V57.3201H281.129V58.4817H278.339V66.2633H276.994V58.4817H274.208ZM284.349 66.3987C283.688 66.3987 283.119 66.2575 282.642 65.9751C282.167 65.6898 281.801 65.2895 281.541 64.7742C281.285 64.256 281.157 63.6491 281.157 62.9533C281.157 62.2662 281.285 61.6607 281.541 61.1367C281.801 60.6127 282.162 60.2037 282.624 59.9096C283.09 59.6156 283.635 59.4686 284.258 59.4686C284.636 59.4686 285.003 59.5312 285.358 59.6564C285.713 59.7815 286.032 59.978 286.314 60.2459C286.597 60.5137 286.819 60.8616 286.982 61.2895C287.146 61.7146 287.227 62.2313 287.227 62.8397V63.3026H281.895V62.3245H285.948C285.948 61.9809 285.878 61.6767 285.738 61.4118C285.598 61.144 285.402 60.9329 285.148 60.7786C284.898 60.6243 284.604 60.5472 284.266 60.5472C283.9 60.5472 283.579 60.6374 283.306 60.8179C283.035 60.9955 282.825 61.2284 282.677 61.5166C282.531 61.8019 282.458 62.1119 282.458 62.4467V63.2109C282.458 63.6592 282.537 64.0406 282.694 64.355C282.854 64.6694 283.077 64.9096 283.362 65.0755C283.648 65.2386 283.981 65.3201 284.362 65.3201C284.61 65.3201 284.835 65.2851 285.039 65.2153C285.243 65.1425 285.419 65.0348 285.568 64.8921C285.716 64.7495 285.83 64.5734 285.908 64.3638L287.144 64.5865C287.045 64.9504 286.867 65.2691 286.611 65.5428C286.358 65.8135 286.039 66.0246 285.655 66.176C285.274 66.3244 284.838 66.3987 284.349 66.3987ZM293.579 61.1935L292.395 61.4031C292.346 61.2517 292.267 61.1076 292.16 60.9708C292.055 60.8339 291.912 60.7219 291.732 60.6345C291.551 60.5472 291.326 60.5035 291.055 60.5035C290.685 60.5035 290.377 60.5865 290.129 60.7524C289.882 60.9154 289.758 61.1265 289.758 61.3856C289.758 61.6098 289.841 61.7903 290.007 61.9271C290.173 62.0639 290.441 62.176 290.81 62.2633L291.876 62.5079C292.493 62.6505 292.953 62.8703 293.256 63.1673C293.559 63.4642 293.71 63.8499 293.71 64.3245C293.71 64.7262 293.593 65.0843 293.361 65.3987C293.131 65.7102 292.809 65.9547 292.395 66.1323C291.985 66.3099 291.509 66.3987 290.968 66.3987C290.216 66.3987 289.604 66.2386 289.129 65.9183C288.655 65.5952 288.363 65.1367 288.256 64.5428L289.518 64.3507C289.596 64.6796 289.758 64.9285 290.003 65.0974C290.247 65.2633 290.566 65.3463 290.959 65.3463C291.387 65.3463 291.729 65.2575 291.985 65.0799C292.241 64.8994 292.369 64.6796 292.369 64.4205C292.369 64.2109 292.291 64.0348 292.133 63.8921C291.979 63.7495 291.742 63.6418 291.422 63.569L290.286 63.3201C289.66 63.1774 289.198 62.9504 288.898 62.6389C288.601 62.3274 288.452 61.9329 288.452 61.4555C288.452 61.0596 288.563 60.7131 288.784 60.4162C289.005 60.1192 289.311 59.8878 289.701 59.7219C290.091 59.553 290.538 59.4686 291.042 59.4686C291.767 59.4686 292.337 59.6258 292.754 59.9402C293.17 60.2517 293.445 60.6695 293.579 61.1935ZM298.154 59.5559V60.604H294.49V59.5559H298.154ZM295.472 57.9489H296.778V64.2939C296.778 64.5472 296.816 64.7378 296.891 64.8659C296.967 64.9911 297.065 65.077 297.184 65.1236C297.306 65.1672 297.439 65.1891 297.581 65.1891C297.686 65.1891 297.778 65.1818 297.857 65.1672C297.935 65.1527 297.996 65.141 298.04 65.1323L298.276 66.2109C298.2 66.24 298.092 66.2691 297.953 66.2982C297.813 66.3303 297.638 66.3477 297.429 66.3506C297.085 66.3565 296.765 66.2953 296.468 66.1672C296.171 66.0391 295.931 65.8412 295.747 65.5734C295.564 65.3055 295.472 64.9693 295.472 64.5646V57.9489ZM299.475 66.2633V59.5559H300.781V66.2633H299.475ZM300.134 58.521C299.907 58.521 299.712 58.4453 299.549 58.2939C299.389 58.1396 299.309 57.9562 299.309 57.7437C299.309 57.5283 299.389 57.3449 299.549 57.1935C299.712 57.0392 299.907 56.9621 300.134 56.9621C300.361 56.9621 300.555 57.0392 300.715 57.1935C300.878 57.3449 300.96 57.5283 300.96 57.7437C300.96 57.9562 300.878 58.1396 300.715 58.2939C300.555 58.4453 300.361 58.521 300.134 58.521ZM303.72 62.2808V66.2633H302.414V59.5559H303.667V60.6476H303.75C303.905 60.2925 304.146 60.0072 304.475 59.7917C304.807 59.5763 305.225 59.4686 305.728 59.4686C306.186 59.4686 306.586 59.5647 306.929 59.7568C307.273 59.946 307.539 60.2284 307.728 60.604C307.918 60.9795 308.012 61.4438 308.012 61.997V66.2633H306.707V62.1542C306.707 61.668 306.58 61.2881 306.327 61.0144C306.073 60.7379 305.726 60.5996 305.283 60.5996C304.98 60.5996 304.711 60.6651 304.475 60.7961C304.242 60.9271 304.057 61.1192 303.921 61.3725C303.787 61.6229 303.72 61.9256 303.72 62.2808ZM312.453 68.9183C311.92 68.9183 311.461 68.8484 311.077 68.7087C310.696 68.569 310.384 68.3841 310.143 68.1541C309.901 67.9241 309.72 67.6723 309.601 67.3987L310.723 66.9358C310.802 67.0639 310.907 67.1993 311.038 67.3419C311.172 67.4875 311.352 67.6112 311.579 67.7131C311.809 67.815 312.105 67.8659 312.466 67.8659C312.961 67.8659 313.37 67.7451 313.693 67.5035C314.016 67.2648 314.178 66.8834 314.178 66.3594V65.0406H314.095C314.016 65.1833 313.902 65.3419 313.754 65.5166C313.608 65.6913 313.408 65.8426 313.151 65.9707C312.895 66.0988 312.562 66.1629 312.151 66.1629C311.621 66.1629 311.144 66.0391 310.719 65.7917C310.297 65.5413 309.962 65.1731 309.715 64.6869C309.47 64.1978 309.348 63.5967 309.348 62.8834C309.348 62.1702 309.469 61.5588 309.71 61.0494C309.955 60.5399 310.29 60.1498 310.715 59.8791C311.14 59.6054 311.621 59.4686 312.16 59.4686C312.576 59.4686 312.913 59.5385 313.169 59.6782C313.425 59.815 313.624 59.9751 313.767 60.1585C313.913 60.3419 314.025 60.5035 314.103 60.6433H314.199V59.5559H315.479V66.4118C315.479 66.9882 315.345 67.4613 315.077 67.831C314.809 68.2007 314.447 68.4744 313.99 68.6519C313.536 68.8295 313.023 68.9183 312.453 68.9183ZM312.44 65.0799C312.815 65.0799 313.132 64.9926 313.391 64.8179C313.653 64.6403 313.851 64.387 313.985 64.0581C314.122 63.7262 314.191 63.3288 314.191 62.8659C314.191 62.4147 314.124 62.0173 313.99 61.6738C313.856 61.3303 313.659 61.0625 313.4 60.8703C313.141 60.6753 312.821 60.5778 312.44 60.5778C312.047 60.5778 311.719 60.6796 311.457 60.8834C311.195 61.0843 310.997 61.3579 310.863 61.7044C310.732 62.0508 310.667 62.438 310.667 62.8659C310.667 63.3055 310.734 63.6913 310.867 64.0231C311.001 64.355 311.199 64.6141 311.461 64.8004C311.726 64.9867 312.052 65.0799 312.44 65.0799Z" fill="white" fill-opacity="0.88"/>
<path d="M192.899 82.9966H194.536L197.383 89.9486H197.488L200.335 82.9966H201.973V91.9398H200.689V85.4682H200.606L197.968 91.9267H196.903L194.265 85.4639H194.182V91.9398H192.899V82.9966ZM206.218 92.0708C205.676 92.0708 205.193 91.9325 204.768 91.656C204.346 91.3765 204.014 90.9791 203.772 90.4638C203.534 89.9457 203.414 89.3241 203.414 88.5992C203.414 87.8743 203.535 87.2543 203.777 86.739C204.021 86.2237 204.356 85.8292 204.781 85.5556C205.206 85.2819 205.688 85.1451 206.226 85.1451C206.643 85.1451 206.977 85.215 207.231 85.3547C207.487 85.4915 207.685 85.6516 207.825 85.8351C207.967 86.0185 208.078 86.18 208.156 86.3198H208.235V85.2324H209.541V91.9398H208.266V90.8962H208.156C208.078 91.0388 207.964 91.2018 207.816 91.3852C207.67 91.5686 207.469 91.7288 207.213 91.8656C206.957 92.0024 206.625 92.0708 206.218 92.0708ZM206.506 90.9573C206.881 90.9573 207.199 90.8583 207.458 90.6604C207.72 90.4595 207.918 90.1815 208.052 89.8263C208.189 89.4711 208.257 89.0577 208.257 88.5861C208.257 88.1203 208.19 87.7128 208.056 87.3634C207.922 87.0141 207.726 86.7419 207.467 86.5468C207.207 86.3518 206.887 86.2543 206.506 86.2543C206.113 86.2543 205.785 86.3562 205.523 86.5599C205.261 86.7637 205.063 87.0417 204.929 87.394C204.798 87.7462 204.733 88.1436 204.733 88.5861C204.733 89.0345 204.8 89.4377 204.934 89.7957C205.068 90.1538 205.266 90.4376 205.528 90.6473C205.793 90.8539 206.119 90.9573 206.506 90.9573ZM211.281 91.9398V85.2324H212.543V86.2979H212.613C212.735 85.9369 212.951 85.6531 213.259 85.4464C213.568 85.2368 213.92 85.132 214.316 85.132C214.5 85.132 214.664 85.1538 214.81 85.1975C214.955 85.2412 215.083 85.3008 215.194 85.3765L214.775 86.4682C214.696 86.4304 214.607 86.3998 214.508 86.3765C214.409 86.3503 214.296 86.3372 214.168 86.3372C213.865 86.3372 213.594 86.4027 213.356 86.5337C213.12 86.6618 212.932 86.8394 212.792 87.0665C212.655 87.2936 212.587 87.5527 212.587 87.8438V91.9398H211.281ZM222.261 92.0883C221.571 92.0854 220.982 91.9034 220.493 91.5424C220.004 91.1815 219.63 90.656 219.37 89.966C219.111 89.2761 218.982 88.4449 218.982 87.4726C218.982 86.5032 219.111 85.6749 219.37 84.9879C219.632 84.3009 220.008 83.7768 220.497 83.4159C220.989 83.0549 221.577 82.8744 222.261 82.8744C222.945 82.8744 223.532 83.0563 224.021 83.4202C224.51 83.7812 224.884 84.3052 225.143 84.9923C225.405 85.6764 225.536 86.5032 225.536 87.4726C225.536 88.4478 225.407 89.2804 225.148 89.9704C224.889 90.6574 224.515 91.1829 224.025 91.5468C223.536 91.9078 222.948 92.0883 222.261 92.0883ZM222.261 90.9224C222.867 90.9224 223.34 90.6269 223.68 90.0359C224.024 89.4449 224.196 88.5905 224.196 87.4726C224.196 86.7302 224.117 86.1029 223.96 85.5905C223.806 85.0752 223.583 84.6851 223.292 84.4202C223.004 84.1524 222.66 84.0185 222.261 84.0185C221.659 84.0185 221.186 84.3154 220.842 84.9093C220.499 85.5032 220.325 86.3576 220.322 87.4726C220.322 88.2179 220.4 88.8481 220.554 89.3634C220.711 89.8758 220.934 90.2644 221.222 90.5293C221.51 90.7914 221.857 90.9224 222.261 90.9224ZM230.107 82.9966V91.9398H228.753V84.8176H228.679C228.632 84.9049 228.524 84.9995 228.356 85.1014C228.19 85.2033 227.976 85.2921 227.714 85.3678C227.455 85.4435 227.155 85.4813 226.814 85.4813V84.3722C227.143 84.3722 227.43 84.314 227.674 84.1975C227.922 84.0811 228.131 83.9413 228.303 83.7783C228.475 83.6124 228.606 83.4566 228.696 83.3111C228.786 83.1626 228.837 83.0578 228.849 82.9966H230.107ZM238.531 85.2324V86.1058H235.055V85.2324H238.531ZM236.068 83.6255H237.099V90.0184C237.099 90.3096 237.141 90.5279 237.225 90.6735C237.313 90.8161 237.423 90.9122 237.557 90.9617C237.694 91.0082 237.838 91.0315 237.989 91.0315C238.103 91.0315 238.196 91.0257 238.269 91.0141C238.342 90.9995 238.4 90.9879 238.444 90.9791L238.653 91.9049C238.583 91.9311 238.486 91.9573 238.361 91.9835C238.235 92.0126 238.077 92.0272 237.885 92.0272C237.594 92.0272 237.308 91.9646 237.029 91.8394C236.752 91.7142 236.522 91.5235 236.339 91.2673C236.158 91.0111 236.068 90.688 236.068 90.2979V83.6255ZM242.611 92.0796C242.005 92.0796 241.474 91.9355 241.017 91.6472C240.563 91.359 240.208 90.9558 239.952 90.4376C239.698 89.9195 239.572 89.3139 239.572 88.6211C239.572 87.9224 239.698 87.3125 239.952 86.7914C240.208 86.2703 240.563 85.8656 241.017 85.5774C241.474 85.2892 242.005 85.1451 242.611 85.1451C243.217 85.1451 243.746 85.2892 244.201 85.5774C244.658 85.8656 245.013 86.2703 245.266 86.7914C245.522 87.3125 245.65 87.9224 245.65 88.6211C245.65 89.3139 245.522 89.9195 245.266 90.4376C245.013 90.9558 244.658 91.359 244.201 91.6472C243.746 91.9355 243.217 92.0796 242.611 92.0796ZM242.611 91.1538C243.071 91.1538 243.449 91.0359 243.746 90.8001C244.043 90.5643 244.263 90.2542 244.406 89.87C244.548 89.4857 244.62 89.0694 244.62 88.6211C244.62 88.1727 244.548 87.755 244.406 87.3678C244.263 86.9806 244.043 86.6677 243.746 86.4289C243.449 86.1902 243.071 86.0709 242.611 86.0709C242.151 86.0709 241.773 86.1902 241.476 86.4289C241.179 86.6677 240.959 86.9806 240.816 87.3678C240.674 87.755 240.602 88.1727 240.602 88.6211C240.602 89.0694 240.674 89.4857 240.816 89.87C240.959 90.2542 241.179 90.5643 241.476 90.8001C241.773 91.0359 242.151 91.1538 242.611 91.1538ZM251.027 91.9398H249.594L252.813 82.9966H254.372L257.59 91.9398H256.158L253.629 84.6211H253.559L251.027 91.9398ZM251.267 88.4377H255.913V89.573H251.267V88.4377ZM262.902 89.1582V85.2324H264.212V91.9398H262.929V90.7783H262.859C262.704 91.1363 262.457 91.4347 262.116 91.6734C261.779 91.9093 261.358 92.0272 260.854 92.0272C260.424 92.0272 260.042 91.9325 259.71 91.7433C259.381 91.5512 259.122 91.2673 258.933 90.8918C258.747 90.5162 258.654 90.0519 258.654 89.4988V85.2324H259.959V89.3416C259.959 89.7986 260.086 90.1625 260.339 90.4333C260.592 90.704 260.921 90.8394 261.326 90.8394C261.571 90.8394 261.814 90.7783 262.055 90.656C262.3 90.5337 262.502 90.3489 262.662 90.1014C262.825 89.854 262.905 89.5395 262.902 89.1582ZM268.656 94.5948C268.123 94.5948 267.665 94.525 267.281 94.3852C266.899 94.2455 266.588 94.0606 266.346 93.8306C266.104 93.6007 265.924 93.3488 265.805 93.0752L266.927 92.6123C267.005 92.7404 267.11 92.8758 267.241 93.0184C267.375 93.164 267.556 93.2877 267.783 93.3896C268.013 93.4915 268.308 93.5424 268.669 93.5424C269.164 93.5424 269.573 93.4216 269.896 93.18C270.219 92.9413 270.381 92.5599 270.381 92.0359V90.7171H270.298C270.219 90.8598 270.106 91.0184 269.957 91.1931C269.812 91.3678 269.611 91.5192 269.355 91.6472C269.099 91.7753 268.765 91.8394 268.355 91.8394C267.825 91.8394 267.348 91.7157 266.922 91.4682C266.5 91.2178 266.166 90.8496 265.918 90.3634C265.674 89.8743 265.551 89.2732 265.551 88.5599C265.551 87.8467 265.672 87.2353 265.914 86.7259C266.158 86.2164 266.493 85.8263 266.918 85.5556C267.343 85.2819 267.825 85.1451 268.364 85.1451C268.78 85.1451 269.116 85.215 269.372 85.3547C269.628 85.4915 269.828 85.6516 269.97 85.8351C270.116 86.0185 270.228 86.18 270.307 86.3198H270.403V85.2324H271.682V92.0883C271.682 92.6647 271.548 93.1378 271.281 93.5075C271.013 93.8772 270.65 94.1509 270.193 94.3285C269.739 94.506 269.227 94.5948 268.656 94.5948ZM268.643 90.7564C269.019 90.7564 269.336 90.6691 269.595 90.4944C269.857 90.3168 270.055 90.0636 270.189 89.7346C270.326 89.4027 270.394 89.0053 270.394 88.5425C270.394 88.0912 270.327 87.6938 270.193 87.3503C270.059 87.0068 269.863 86.739 269.604 86.5468C269.345 86.3518 269.024 86.2543 268.643 86.2543C268.25 86.2543 267.922 86.3562 267.66 86.5599C267.398 86.7608 267.2 87.0345 267.067 87.3809C266.936 87.7273 266.87 88.1145 266.87 88.5425C266.87 88.982 266.937 89.3678 267.071 89.6997C267.205 90.0315 267.403 90.2906 267.665 90.4769C267.93 90.6633 268.256 90.7564 268.643 90.7564ZM279.538 92.0883C278.848 92.0854 278.258 91.9034 277.769 91.5424C277.28 91.1815 276.906 90.656 276.647 89.966C276.388 89.2761 276.258 88.4449 276.258 87.4726C276.258 86.5032 276.388 85.6749 276.647 84.9879C276.909 84.3009 277.285 83.7768 277.774 83.4159C278.266 83.0549 278.854 82.8744 279.538 82.8744C280.222 82.8744 280.809 83.0563 281.298 83.4202C281.787 83.7812 282.161 84.3052 282.42 84.9923C282.682 85.6764 282.813 86.5032 282.813 87.4726C282.813 88.4478 282.683 89.2804 282.424 89.9704C282.165 90.6574 281.791 91.1829 281.302 91.5468C280.813 91.9078 280.225 92.0883 279.538 92.0883ZM279.538 90.9224C280.143 90.9224 280.616 90.6269 280.957 90.0359C281.301 89.4449 281.472 88.5905 281.472 87.4726C281.472 86.7302 281.394 86.1029 281.236 85.5905C281.082 85.0752 280.859 84.6851 280.568 84.4202C280.28 84.1524 279.937 84.0185 279.538 84.0185C278.935 84.0185 278.462 84.3154 278.119 84.9093C277.775 85.5032 277.602 86.3576 277.599 87.4726C277.599 88.2179 277.676 88.8481 277.83 89.3634C277.988 89.8758 278.21 90.2644 278.499 90.5293C278.787 90.7914 279.133 90.9224 279.538 90.9224ZM287.383 82.9966V91.9398H286.029V84.8176H285.955C285.909 84.9049 285.801 84.9995 285.632 85.1014C285.466 85.2033 285.252 85.2921 284.99 85.3678C284.731 85.4435 284.431 85.4813 284.091 85.4813V84.3722C284.42 84.3722 284.706 84.314 284.951 84.1975C285.198 84.0811 285.408 83.9413 285.58 83.7783C285.751 83.6124 285.882 83.4566 285.973 83.3111C286.063 83.1626 286.114 83.0578 286.125 82.9966H287.383Z" fill="white" fill-opacity="0.72"/>
<path d="M387.052 68.5394C386.168 68.5394 385.445 69.2628 385.445 70.1469C385.445 71.0309 386.168 71.7543 387.052 71.7543C387.936 71.7543 388.659 71.0309 388.659 70.1469C388.659 69.2628 387.936 68.5394 387.052 68.5394ZM387.052 79.7915C386.168 79.7915 385.445 80.5148 385.445 81.3989C385.445 82.283 386.168 83.0063 387.052 83.0063C387.936 83.0063 388.659 82.283 388.659 81.3989C388.659 80.5148 387.936 79.7915 387.052 79.7915ZM387.052 74.1654C386.168 74.1654 385.445 74.8888 385.445 75.7729C385.445 76.657 386.168 77.3803 387.052 77.3803C387.936 77.3803 388.659 76.657 388.659 75.7729C388.659 74.8888 387.936 74.1654 387.052 74.1654Z" fill="white" fill-opacity="0.4"/>
<rect x="162.943" y="36.2502" width="254.114" height="78.7156" rx="8.55604" stroke="url(#paint1_linear_1315_6204)" stroke-opacity="0.08" stroke-width="0.919115"/>
<rect x="162.943" y="36.2502" width="254.114" height="78.7156" rx="8.55604" stroke="white" stroke-opacity="0.02" stroke-width="0.919115"/>
</g>
<g filter="url(#filter5_b_1315_6204)">
<rect x="140" y="135.5" width="300" height="92.4053" rx="10.1066" fill="white" fill-opacity="0.02"/>
<g filter="url(#filter6_i_1315_6204)">
<path d="M157.458 153.137V211.239" stroke="#51E0CF" stroke-width="2.07505" stroke-linecap="round"/>
<path d="M157.458 153.137V211.239" stroke="#E0A751" stroke-width="2.07505" stroke-linecap="round"/>
</g>
<path d="M178.639 172.371H175.219V161.807H178.747C179.782 161.807 180.671 162.018 181.414 162.441C182.157 162.861 182.726 163.464 183.121 164.252C183.52 165.036 183.72 165.976 183.72 167.073C183.72 168.174 183.518 169.119 183.116 169.91C182.717 170.701 182.139 171.31 181.383 171.736C180.626 172.159 179.712 172.371 178.639 172.371ZM176.813 170.978H178.551C179.356 170.978 180.025 170.827 180.558 170.524C181.091 170.218 181.49 169.776 181.754 169.199C182.019 168.617 182.151 167.909 182.151 167.073C182.151 166.245 182.019 165.541 181.754 164.964C181.493 164.386 181.103 163.948 180.583 163.648C180.064 163.349 179.419 163.2 178.649 163.2H176.813V170.978ZM188.847 172.531C188.067 172.531 187.394 172.364 186.83 172.03C186.27 171.693 185.837 171.221 185.531 170.612C185.228 170 185.077 169.283 185.077 168.461C185.077 167.649 185.228 166.934 185.531 166.315C185.837 165.696 186.263 165.213 186.81 164.866C187.36 164.518 188.003 164.345 188.739 164.345C189.186 164.345 189.619 164.419 190.039 164.567C190.458 164.714 190.835 164.947 191.168 165.263C191.502 165.579 191.765 165.99 191.958 166.496C192.15 166.998 192.246 167.608 192.246 168.327V168.874H185.948V167.718H190.735C190.735 167.312 190.653 166.953 190.488 166.64C190.322 166.324 190.09 166.074 189.791 165.892C189.495 165.71 189.148 165.619 188.749 165.619C188.316 165.619 187.938 165.725 187.614 165.939C187.295 166.148 187.047 166.424 186.872 166.764C186.7 167.101 186.614 167.467 186.614 167.863V168.765C186.614 169.295 186.707 169.745 186.892 170.117C187.081 170.488 187.344 170.772 187.681 170.968C188.018 171.16 188.412 171.257 188.863 171.257C189.155 171.257 189.422 171.215 189.662 171.133C189.903 171.047 190.111 170.92 190.286 170.751C190.462 170.583 190.596 170.375 190.689 170.127L192.148 170.39C192.032 170.82 191.822 171.197 191.519 171.52C191.22 171.84 190.843 172.089 190.39 172.268C189.939 172.443 189.425 172.531 188.847 172.531ZM199.749 166.382L198.352 166.63C198.293 166.451 198.2 166.281 198.073 166.119C197.949 165.958 197.781 165.825 197.568 165.722C197.354 165.619 197.088 165.567 196.768 165.567C196.331 165.567 195.967 165.665 195.675 165.861C195.382 166.054 195.236 166.303 195.236 166.609C195.236 166.874 195.334 167.087 195.53 167.249C195.726 167.41 196.042 167.543 196.479 167.646L197.738 167.935C198.467 168.103 199.01 168.363 199.368 168.714C199.725 169.064 199.904 169.52 199.904 170.081C199.904 170.555 199.767 170.978 199.492 171.35C199.22 171.717 198.84 172.006 198.352 172.216C197.867 172.426 197.304 172.531 196.665 172.531C195.778 172.531 195.054 172.342 194.493 171.963C193.933 171.582 193.589 171.04 193.462 170.339L194.952 170.112C195.045 170.5 195.236 170.794 195.525 170.994C195.814 171.19 196.19 171.288 196.655 171.288C197.16 171.288 197.564 171.183 197.867 170.973C198.169 170.76 198.321 170.5 198.321 170.194C198.321 169.947 198.228 169.738 198.042 169.57C197.86 169.401 197.58 169.274 197.201 169.188L195.86 168.894C195.121 168.726 194.574 168.458 194.22 168.09C193.869 167.722 193.694 167.256 193.694 166.692C193.694 166.224 193.824 165.815 194.086 165.464C194.347 165.113 194.708 164.84 195.169 164.644C195.63 164.444 196.158 164.345 196.753 164.345C197.609 164.345 198.283 164.53 198.775 164.902C199.266 165.27 199.591 165.763 199.749 166.382ZM201.455 172.371V164.448H202.997V172.371H201.455ZM202.234 163.225C201.965 163.225 201.735 163.136 201.542 162.957C201.353 162.775 201.259 162.558 201.259 162.307C201.259 162.053 201.353 161.836 201.542 161.657C201.735 161.475 201.965 161.384 202.234 161.384C202.502 161.384 202.73 161.475 202.92 161.657C203.112 161.836 203.208 162.053 203.208 162.307C203.208 162.558 203.112 162.775 202.92 162.957C202.73 163.136 202.502 163.225 202.234 163.225ZM208.248 175.507C207.619 175.507 207.078 175.424 206.624 175.259C206.173 175.094 205.805 174.876 205.52 174.604C205.234 174.333 205.021 174.035 204.88 173.712L206.206 173.165C206.299 173.317 206.422 173.476 206.577 173.645C206.735 173.817 206.949 173.963 207.217 174.083C207.488 174.204 207.837 174.264 208.264 174.264C208.848 174.264 209.332 174.121 209.713 173.836C210.095 173.554 210.286 173.103 210.286 172.484V170.927H210.188C210.095 171.095 209.961 171.282 209.786 171.489C209.614 171.695 209.376 171.874 209.074 172.025C208.771 172.177 208.377 172.252 207.893 172.252C207.267 172.252 206.703 172.106 206.201 171.814C205.702 171.518 205.307 171.083 205.014 170.509C204.725 169.931 204.581 169.221 204.581 168.378C204.581 167.536 204.724 166.814 205.009 166.212C205.298 165.61 205.693 165.149 206.195 164.83C206.698 164.506 207.267 164.345 207.903 164.345C208.395 164.345 208.792 164.427 209.094 164.592C209.397 164.754 209.633 164.943 209.801 165.16C209.973 165.376 210.105 165.567 210.198 165.732H210.312V164.448H211.823V172.546C211.823 173.227 211.665 173.786 211.348 174.223C211.032 174.659 210.604 174.983 210.064 175.192C209.528 175.402 208.922 175.507 208.248 175.507ZM208.233 170.973C208.677 170.973 209.051 170.87 209.357 170.664C209.667 170.454 209.901 170.155 210.059 169.766C210.221 169.374 210.301 168.905 210.301 168.358C210.301 167.825 210.222 167.355 210.064 166.95C209.906 166.544 209.674 166.227 209.368 166.001C209.062 165.77 208.683 165.655 208.233 165.655C207.769 165.655 207.382 165.775 207.072 166.016C206.763 166.253 206.529 166.577 206.371 166.986C206.216 167.395 206.139 167.852 206.139 168.358C206.139 168.877 206.218 169.333 206.376 169.725C206.534 170.117 206.768 170.423 207.078 170.643C207.39 170.863 207.776 170.973 208.233 170.973ZM215.288 167.667V172.371H213.746V164.448H215.227V165.737H215.325C215.507 165.318 215.792 164.981 216.181 164.726C216.573 164.472 217.066 164.345 217.661 164.345C218.201 164.345 218.674 164.458 219.08 164.685C219.485 164.909 219.8 165.242 220.024 165.686C220.247 166.129 220.359 166.678 220.359 167.331V172.371H218.817V167.517C218.817 166.943 218.667 166.494 218.368 166.171C218.069 165.844 217.658 165.681 217.135 165.681C216.777 165.681 216.459 165.758 216.181 165.913C215.906 166.068 215.687 166.295 215.526 166.594C215.368 166.889 215.288 167.247 215.288 167.667ZM229.055 172.52C228.347 172.52 227.736 172.391 227.224 172.134C226.715 171.876 226.323 171.525 226.048 171.081C225.773 170.634 225.635 170.129 225.635 169.565C225.635 169.135 225.725 168.753 225.904 168.42C226.082 168.083 226.332 167.771 226.652 167.486C226.971 167.201 227.341 166.914 227.761 166.625L229.463 165.423C229.752 165.234 229.977 165.034 230.138 164.824C230.3 164.611 230.381 164.348 230.381 164.035C230.381 163.788 230.274 163.55 230.061 163.323C229.848 163.096 229.562 162.983 229.205 162.983C228.957 162.983 228.739 163.043 228.55 163.164C228.364 163.284 228.218 163.439 228.111 163.628C228.008 163.813 227.957 164.009 227.957 164.216C227.957 164.457 228.022 164.699 228.153 164.943C228.287 165.187 228.459 165.44 228.668 165.701C228.878 165.959 229.098 166.227 229.329 166.506L234.234 172.371H232.491L228.431 167.6C228.091 167.197 227.774 166.819 227.482 166.465C227.19 166.107 226.952 165.746 226.77 165.382C226.591 165.014 226.502 164.616 226.502 164.19C226.502 163.705 226.612 163.275 226.832 162.9C227.056 162.522 227.367 162.226 227.766 162.013C228.165 161.8 228.632 161.693 229.169 161.693C229.712 161.693 230.178 161.8 230.567 162.013C230.959 162.223 231.259 162.503 231.469 162.854C231.682 163.201 231.789 163.581 231.789 163.994C231.789 164.496 231.664 164.94 231.412 165.325C231.165 165.707 230.823 166.057 230.386 166.377L228.266 167.94C227.853 168.243 227.566 168.542 227.405 168.838C227.246 169.13 227.167 169.358 227.167 169.524C227.167 169.826 227.245 170.106 227.399 170.364C227.558 170.622 227.778 170.829 228.06 170.983C228.345 171.138 228.679 171.215 229.06 171.215C229.452 171.215 229.834 171.131 230.205 170.963C230.58 170.791 230.919 170.545 231.222 170.225C231.528 169.905 231.77 169.522 231.949 169.075C232.128 168.628 232.217 168.127 232.217 167.574H233.61C233.61 168.255 233.532 168.831 233.378 169.302C233.223 169.769 233.036 170.151 232.815 170.447C232.599 170.739 232.394 170.968 232.202 171.133C232.14 171.188 232.081 171.243 232.026 171.298C231.971 171.353 231.913 171.408 231.851 171.463C231.493 171.824 231.06 172.091 230.551 172.263C230.046 172.434 229.547 172.52 229.055 172.52ZM242.54 172.371H239.12V161.807H242.648C243.683 161.807 244.572 162.018 245.315 162.441C246.057 162.861 246.627 163.464 247.022 164.252C247.421 165.036 247.62 165.976 247.62 167.073C247.62 168.174 247.419 169.119 247.017 169.91C246.618 170.701 246.04 171.31 245.284 171.736C244.527 172.159 243.612 172.371 242.54 172.371ZM240.714 170.978H242.452C243.257 170.978 243.925 170.827 244.458 170.524C244.991 170.218 245.39 169.776 245.655 169.199C245.92 168.617 246.052 167.909 246.052 167.073C246.052 166.245 245.92 165.541 245.655 164.964C245.394 164.386 245.003 163.948 244.484 163.648C243.965 163.349 243.32 163.2 242.55 163.2H240.714V170.978ZM252.748 172.531C251.967 172.531 251.295 172.364 250.731 172.03C250.171 171.693 249.737 171.221 249.431 170.612C249.129 170 248.977 169.283 248.977 168.461C248.977 167.649 249.129 166.934 249.431 166.315C249.737 165.696 250.164 165.213 250.711 164.866C251.261 164.518 251.904 164.345 252.64 164.345C253.087 164.345 253.52 164.419 253.94 164.567C254.359 164.714 254.736 164.947 255.069 165.263C255.403 165.579 255.666 165.99 255.858 166.496C256.051 166.998 256.147 167.608 256.147 168.327V168.874H249.849V167.718H254.636C254.636 167.312 254.553 166.953 254.388 166.64C254.223 166.324 253.991 166.074 253.692 165.892C253.396 165.71 253.049 165.619 252.65 165.619C252.217 165.619 251.838 165.725 251.515 165.939C251.195 166.148 250.948 166.424 250.772 166.764C250.6 167.101 250.514 167.467 250.514 167.863V168.765C250.514 169.295 250.607 169.745 250.793 170.117C250.982 170.488 251.245 170.772 251.582 170.968C251.919 171.16 252.313 171.257 252.763 171.257C253.056 171.257 253.322 171.215 253.563 171.133C253.804 171.047 254.012 170.92 254.187 170.751C254.362 170.583 254.497 170.375 254.589 170.127L256.049 170.39C255.932 170.82 255.723 171.197 255.42 171.52C255.121 171.84 254.744 172.089 254.29 172.268C253.84 172.443 253.326 172.531 252.748 172.531ZM264.264 164.448L261.391 172.371H259.74L256.862 164.448H258.518L260.524 170.545H260.607L262.608 164.448H264.264ZM268.713 172.531C267.933 172.531 267.26 172.364 266.697 172.03C266.136 171.693 265.703 171.221 265.397 170.612C265.094 170 264.943 169.283 264.943 168.461C264.943 167.649 265.094 166.934 265.397 166.315C265.703 165.696 266.129 165.213 266.676 164.866C267.226 164.518 267.869 164.345 268.605 164.345C269.052 164.345 269.485 164.419 269.905 164.567C270.324 164.714 270.701 164.947 271.035 165.263C271.368 165.579 271.631 165.99 271.824 166.496C272.016 166.998 272.113 167.608 272.113 168.327V168.874H265.814V167.718H270.601C270.601 167.312 270.519 166.953 270.354 166.64C270.189 166.324 269.956 166.074 269.657 165.892C269.362 165.71 269.014 165.619 268.615 165.619C268.182 165.619 267.804 165.725 267.481 165.939C267.161 166.148 266.913 166.424 266.738 166.764C266.566 167.101 266.48 167.467 266.48 167.863V168.765C266.48 169.295 266.573 169.745 266.758 170.117C266.948 170.488 267.211 170.772 267.548 170.968C267.885 171.16 268.278 171.257 268.729 171.257C269.021 171.257 269.288 171.215 269.528 171.133C269.769 171.047 269.977 170.92 270.153 170.751C270.328 170.583 270.462 170.375 270.555 170.127L272.015 170.39C271.898 170.82 271.688 171.197 271.385 171.52C271.086 171.84 270.71 172.089 270.256 172.268C269.805 172.443 269.291 172.531 268.713 172.531ZM275.221 161.807V172.371H273.679V161.807H275.221ZM280.488 172.531C279.745 172.531 279.097 172.361 278.543 172.02C277.99 171.68 277.56 171.203 277.254 170.591C276.948 169.979 276.795 169.264 276.795 168.445C276.795 167.624 276.948 166.905 277.254 166.289C277.56 165.674 277.99 165.196 278.543 164.855C279.097 164.515 279.745 164.345 280.488 164.345C281.231 164.345 281.879 164.515 282.432 164.855C282.986 165.196 283.416 165.674 283.722 166.289C284.028 166.905 284.181 167.624 284.181 168.445C284.181 169.264 284.028 169.979 283.722 170.591C283.416 171.203 282.986 171.68 282.432 172.02C281.879 172.361 281.231 172.531 280.488 172.531ZM280.493 171.236C280.974 171.236 281.373 171.109 281.69 170.854C282.006 170.6 282.24 170.261 282.391 169.838C282.546 169.415 282.623 168.949 282.623 168.44C282.623 167.935 282.546 167.471 282.391 167.048C282.24 166.621 282.006 166.279 281.69 166.021C281.373 165.763 280.974 165.634 280.493 165.634C280.008 165.634 279.606 165.763 279.286 166.021C278.97 166.279 278.734 166.621 278.579 167.048C278.428 167.471 278.352 167.935 278.352 168.44C278.352 168.949 278.428 169.415 278.579 169.838C278.734 170.261 278.97 170.6 279.286 170.854C279.606 171.109 280.008 171.236 280.493 171.236ZM285.757 175.342V164.448H287.263V165.732H287.392C287.482 165.567 287.611 165.376 287.779 165.16C287.948 164.943 288.182 164.754 288.481 164.592C288.78 164.427 289.175 164.345 289.667 164.345C290.307 164.345 290.878 164.506 291.38 164.83C291.882 165.153 292.275 165.619 292.561 166.227C292.85 166.836 292.994 167.569 292.994 168.425C292.994 169.281 292.851 170.015 292.566 170.627C292.281 171.236 291.889 171.705 291.39 172.036C290.891 172.362 290.322 172.526 289.683 172.526C289.201 172.526 288.807 172.445 288.501 172.283C288.199 172.122 287.962 171.932 287.79 171.716C287.618 171.499 287.485 171.307 287.392 171.138H287.3V175.342H285.757ZM287.269 168.409C287.269 168.966 287.349 169.455 287.511 169.874C287.673 170.294 287.907 170.622 288.213 170.86C288.519 171.093 288.893 171.21 289.337 171.21C289.798 171.21 290.183 171.088 290.492 170.844C290.802 170.596 291.036 170.261 291.194 169.838C291.356 169.415 291.436 168.939 291.436 168.409C291.436 167.887 291.357 167.417 291.199 167.001C291.044 166.585 290.811 166.257 290.498 166.016C290.188 165.775 289.801 165.655 289.337 165.655C288.89 165.655 288.512 165.77 288.202 166.001C287.896 166.231 287.664 166.552 287.506 166.965C287.348 167.378 287.269 167.859 287.269 168.409ZM294.577 172.371V164.448H296.057V165.737H296.155C296.32 165.301 296.59 164.96 296.965 164.716C297.34 164.469 297.789 164.345 298.311 164.345C298.841 164.345 299.285 164.469 299.642 164.716C300.003 164.964 300.27 165.304 300.442 165.737H300.524C300.713 165.315 301.014 164.978 301.427 164.726C301.84 164.472 302.331 164.345 302.902 164.345C303.621 164.345 304.207 164.57 304.661 165.02C305.118 165.471 305.347 166.15 305.347 167.058V172.371H303.805V167.202C303.805 166.666 303.659 166.277 303.366 166.037C303.074 165.796 302.725 165.676 302.319 165.676C301.817 165.676 301.427 165.83 301.148 166.14C300.87 166.446 300.731 166.84 300.731 167.321V172.371H299.193V167.104C299.193 166.675 299.059 166.329 298.791 166.068C298.523 165.806 298.174 165.676 297.744 165.676C297.452 165.676 297.182 165.753 296.934 165.908C296.69 166.059 296.492 166.27 296.341 166.542C296.193 166.814 296.119 167.128 296.119 167.486V172.371H294.577ZM310.684 172.531C309.903 172.531 309.231 172.364 308.667 172.03C308.106 171.693 307.673 171.221 307.367 170.612C307.064 170 306.913 169.283 306.913 168.461C306.913 167.649 307.064 166.934 307.367 166.315C307.673 165.696 308.099 165.213 308.646 164.866C309.196 164.518 309.839 164.345 310.575 164.345C311.022 164.345 311.456 164.419 311.875 164.567C312.295 164.714 312.671 164.947 313.005 165.263C313.338 165.579 313.601 165.99 313.794 166.496C313.987 166.998 314.083 167.608 314.083 168.327V168.874H307.785V167.718H312.572C312.572 167.312 312.489 166.953 312.324 166.64C312.159 166.324 311.927 166.074 311.628 165.892C311.332 165.71 310.985 165.619 310.586 165.619C310.152 165.619 309.774 165.725 309.451 165.939C309.131 166.148 308.883 166.424 308.708 166.764C308.536 167.101 308.45 167.467 308.45 167.863V168.765C308.45 169.295 308.543 169.745 308.729 170.117C308.918 170.488 309.181 170.772 309.518 170.968C309.855 171.16 310.249 171.257 310.699 171.257C310.991 171.257 311.258 171.215 311.499 171.133C311.739 171.047 311.947 170.92 312.123 170.751C312.298 170.583 312.432 170.375 312.525 170.127L313.985 170.39C313.868 170.82 313.658 171.197 313.356 171.52C313.056 171.84 312.68 172.089 312.226 172.268C311.775 172.443 311.261 172.531 310.684 172.531ZM317.191 167.667V172.371H315.649V164.448H317.129V165.737H317.227C317.41 165.318 317.695 164.981 318.084 164.726C318.476 164.472 318.969 164.345 319.564 164.345C320.104 164.345 320.577 164.458 320.982 164.685C321.388 164.909 321.703 165.242 321.926 165.686C322.15 166.129 322.262 166.678 322.262 167.331V172.371H320.719V167.517C320.719 166.943 320.57 166.494 320.271 166.171C319.971 165.844 319.56 165.681 319.038 165.681C318.68 165.681 318.362 165.758 318.084 165.913C317.808 166.068 317.59 166.295 317.428 166.594C317.27 166.889 317.191 167.247 317.191 167.667ZM327.883 164.448V165.686H323.555V164.448H327.883ZM324.716 162.55H326.258V170.045C326.258 170.344 326.303 170.569 326.392 170.72C326.482 170.868 326.597 170.97 326.738 171.025C326.882 171.076 327.039 171.102 327.207 171.102C327.331 171.102 327.44 171.093 327.532 171.076C327.625 171.059 327.697 171.045 327.749 171.035L328.028 172.309C327.938 172.343 327.811 172.378 327.646 172.412C327.481 172.45 327.275 172.471 327.027 172.474C326.621 172.481 326.243 172.409 325.892 172.257C325.541 172.106 325.258 171.872 325.041 171.556C324.824 171.239 324.716 170.842 324.716 170.364V162.55Z" fill="white" fill-opacity="0.88"/>
<path d="M179.325 191.15H180.914V198.639C180.914 199.317 180.779 199.896 180.511 200.378C180.246 200.859 179.873 201.227 179.392 201.482C178.91 201.733 178.346 201.858 177.7 201.858C177.105 201.858 176.57 201.75 176.096 201.533C175.625 201.316 175.252 201.002 174.977 200.589C174.705 200.173 174.569 199.668 174.569 199.073H176.153C176.153 199.365 176.22 199.618 176.354 199.831C176.491 200.044 176.679 200.211 176.916 200.331C177.157 200.448 177.432 200.507 177.741 200.507C178.078 200.507 178.364 200.436 178.598 200.295C178.835 200.151 179.015 199.939 179.139 199.661C179.263 199.382 179.325 199.042 179.325 198.639V191.15ZM185.93 201.868C185.291 201.868 184.72 201.705 184.218 201.378C183.719 201.048 183.327 200.579 183.042 199.97C182.76 199.358 182.619 198.624 182.619 197.768C182.619 196.911 182.761 196.179 183.047 195.57C183.336 194.962 183.731 194.496 184.233 194.172C184.735 193.849 185.304 193.688 185.941 193.688C186.432 193.688 186.828 193.77 187.127 193.935C187.43 194.097 187.663 194.286 187.828 194.503C187.997 194.719 188.128 194.91 188.221 195.075H188.313V193.791H189.856V201.714H188.349V200.481H188.221C188.128 200.649 187.994 200.842 187.818 201.059C187.646 201.275 187.409 201.464 187.106 201.626C186.804 201.788 186.412 201.868 185.93 201.868ZM186.271 200.553C186.714 200.553 187.089 200.436 187.395 200.202C187.705 199.965 187.939 199.637 188.097 199.217C188.258 198.798 188.339 198.309 188.339 197.752C188.339 197.202 188.26 196.721 188.102 196.308C187.944 195.895 187.712 195.574 187.406 195.343C187.099 195.113 186.721 194.998 186.271 194.998C185.806 194.998 185.42 195.118 185.11 195.359C184.801 195.599 184.567 195.928 184.409 196.344C184.254 196.76 184.177 197.229 184.177 197.752C184.177 198.282 184.256 198.758 184.414 199.181C184.572 199.604 184.806 199.939 185.115 200.187C185.428 200.431 185.813 200.553 186.271 200.553ZM193.454 197.009V201.714H191.912V193.791H193.392V195.08H193.49C193.672 194.661 193.958 194.324 194.346 194.069C194.738 193.815 195.232 193.688 195.827 193.688C196.367 193.688 196.839 193.801 197.245 194.028C197.651 194.252 197.966 194.585 198.189 195.029C198.413 195.472 198.524 196.021 198.524 196.674V201.714H196.982V196.86C196.982 196.286 196.833 195.837 196.533 195.514C196.234 195.187 195.823 195.024 195.301 195.024C194.943 195.024 194.625 195.101 194.346 195.256C194.071 195.41 193.853 195.637 193.691 195.936C193.533 196.232 193.454 196.59 193.454 197.009ZM207.804 201.889C206.989 201.886 206.292 201.671 205.714 201.244C205.137 200.818 204.695 200.197 204.389 199.382C204.083 198.567 203.93 197.585 203.93 196.437C203.93 195.292 204.083 194.313 204.389 193.502C204.698 192.69 205.142 192.071 205.72 191.645C206.301 191.219 206.995 191.005 207.804 191.005C208.612 191.005 209.305 191.22 209.882 191.65C210.46 192.076 210.902 192.695 211.208 193.507C211.517 194.315 211.672 195.292 211.672 196.437C211.672 197.589 211.519 198.572 211.213 199.387C210.907 200.199 210.465 200.82 209.887 201.249C209.31 201.676 208.615 201.889 207.804 201.889ZM207.804 200.512C208.519 200.512 209.078 200.163 209.48 199.465C209.886 198.767 210.089 197.757 210.089 196.437C210.089 195.56 209.996 194.819 209.81 194.214C209.628 193.605 209.365 193.144 209.021 192.831C208.68 192.515 208.275 192.357 207.804 192.357C207.092 192.357 206.533 192.707 206.127 193.409C205.721 194.111 205.517 195.12 205.513 196.437C205.513 197.317 205.604 198.062 205.787 198.67C205.972 199.276 206.235 199.735 206.576 200.048C206.916 200.357 207.326 200.512 207.804 200.512ZM217.071 191.15V201.714H215.472V193.301H215.384C215.329 193.404 215.202 193.516 215.002 193.636C214.806 193.756 214.553 193.861 214.244 193.951C213.938 194.04 213.584 194.085 213.181 194.085V192.775C213.57 192.775 213.909 192.706 214.198 192.568C214.49 192.431 214.737 192.266 214.94 192.073C215.143 191.877 215.298 191.693 215.405 191.521C215.511 191.346 215.571 191.222 215.585 191.15H217.071ZM244.995 191.15H246.584V198.639C246.584 199.317 246.45 199.896 246.182 200.378C245.917 200.859 245.544 201.227 245.062 201.482C244.581 201.733 244.017 201.858 243.37 201.858C242.776 201.858 242.241 201.75 241.766 201.533C241.295 201.316 240.922 201.002 240.647 200.589C240.375 200.173 240.239 199.668 240.239 199.073H241.823C241.823 199.365 241.89 199.618 242.024 199.831C242.162 200.044 242.349 200.211 242.586 200.331C242.827 200.448 243.102 200.507 243.412 200.507C243.749 200.507 244.034 200.436 244.268 200.295C244.505 200.151 244.686 199.939 244.81 199.661C244.933 199.382 244.995 199.042 244.995 198.639V191.15ZM253.654 198.428V193.791H255.201V201.714H253.685V200.342H253.602C253.42 200.765 253.128 201.117 252.725 201.399C252.326 201.678 251.829 201.817 251.235 201.817C250.726 201.817 250.275 201.705 249.883 201.482C249.495 201.255 249.188 200.919 248.965 200.476C248.745 200.032 248.635 199.484 248.635 198.83V193.791H250.177V198.645C250.177 199.184 250.327 199.614 250.626 199.934C250.925 200.254 251.314 200.414 251.792 200.414C252.08 200.414 252.368 200.342 252.653 200.197C252.942 200.053 253.181 199.834 253.37 199.542C253.563 199.25 253.657 198.878 253.654 198.428ZM258.67 197.009V201.714H257.128V193.791H258.609V195.08H258.707C258.889 194.661 259.174 194.324 259.563 194.069C259.955 193.815 260.448 193.688 261.043 193.688C261.583 193.688 262.056 193.801 262.462 194.028C262.867 194.252 263.182 194.585 263.406 195.029C263.629 195.472 263.741 196.021 263.741 196.674V201.714H262.199V196.86C262.199 196.286 262.049 195.837 261.75 195.514C261.451 195.187 261.04 195.024 260.517 195.024C260.159 195.024 259.841 195.101 259.563 195.256C259.288 195.41 259.069 195.637 258.908 195.936C258.75 196.232 258.67 196.59 258.67 197.009ZM269.079 201.874C268.298 201.874 267.626 201.707 267.062 201.373C266.501 201.036 266.068 200.563 265.762 199.955C265.459 199.343 265.308 198.626 265.308 197.804C265.308 196.992 265.459 196.277 265.762 195.658C266.068 195.039 266.495 194.556 267.041 194.209C267.592 193.861 268.235 193.688 268.97 193.688C269.417 193.688 269.851 193.761 270.27 193.909C270.69 194.057 271.066 194.289 271.4 194.606C271.734 194.922 271.997 195.333 272.189 195.838C272.382 196.341 272.478 196.951 272.478 197.67V198.216H266.18V197.061H270.967C270.967 196.655 270.884 196.296 270.719 195.983C270.554 195.667 270.322 195.417 270.023 195.235C269.727 195.053 269.38 194.962 268.981 194.962C268.547 194.962 268.169 195.068 267.846 195.281C267.526 195.491 267.279 195.766 267.103 196.107C266.931 196.444 266.845 196.81 266.845 197.205V198.108C266.845 198.638 266.938 199.088 267.124 199.46C267.313 199.831 267.576 200.115 267.913 200.311C268.25 200.503 268.644 200.599 269.094 200.599C269.387 200.599 269.653 200.558 269.894 200.476C270.134 200.39 270.343 200.262 270.518 200.094C270.693 199.925 270.827 199.717 270.92 199.47L272.38 199.733C272.263 200.163 272.053 200.539 271.751 200.863C271.452 201.182 271.075 201.432 270.621 201.61C270.171 201.786 269.656 201.874 269.079 201.874ZM281.4 201.889C280.585 201.886 279.889 201.671 279.311 201.244C278.733 200.818 278.291 200.197 277.985 199.382C277.679 198.567 277.526 197.585 277.526 196.437C277.526 195.292 277.679 194.313 277.985 193.502C278.295 192.69 278.738 192.071 279.316 191.645C279.897 191.219 280.592 191.005 281.4 191.005C282.208 191.005 282.901 191.22 283.479 191.65C284.056 192.076 284.498 192.695 284.804 193.507C285.114 194.315 285.269 195.292 285.269 196.437C285.269 197.589 285.116 198.572 284.809 199.387C284.503 200.199 284.062 200.82 283.484 201.249C282.906 201.676 282.211 201.889 281.4 201.889ZM281.4 200.512C282.115 200.512 282.674 200.163 283.076 199.465C283.482 198.767 283.685 197.757 283.685 196.437C283.685 195.56 283.592 194.819 283.406 194.214C283.224 193.605 282.961 193.144 282.617 192.831C282.277 192.515 281.871 192.357 281.4 192.357C280.688 192.357 280.129 192.707 279.724 193.409C279.318 194.111 279.113 195.12 279.11 196.437C279.11 197.317 279.201 198.062 279.383 198.67C279.569 199.276 279.832 199.735 280.172 200.048C280.513 200.357 280.922 200.512 281.4 200.512ZM290.667 191.15V201.714H289.068V193.301H288.98C288.925 193.404 288.798 193.516 288.599 193.636C288.403 193.756 288.15 193.861 287.84 193.951C287.534 194.04 287.18 194.085 286.778 194.085V192.775C287.166 192.775 287.505 192.706 287.794 192.568C288.086 192.431 288.334 192.266 288.537 192.073C288.74 191.877 288.894 191.693 289.001 191.521C289.108 191.346 289.168 191.222 289.181 191.15H290.667Z" fill="white" fill-opacity="0.72"/>
<path d="M227.022 193.791V194.822H222.916V193.791H227.022ZM224.112 191.893H225.33V199.444C225.33 199.788 225.38 200.046 225.479 200.218C225.582 200.386 225.713 200.5 225.871 200.558C226.033 200.613 226.203 200.641 226.382 200.641C226.516 200.641 226.626 200.634 226.712 200.62C226.798 200.603 226.867 200.589 226.918 200.579L227.166 201.672C227.084 201.703 226.968 201.734 226.82 201.765C226.673 201.8 226.485 201.817 226.258 201.817C225.914 201.817 225.577 201.743 225.247 201.595C224.921 201.447 224.649 201.222 224.432 200.919C224.219 200.617 224.112 200.235 224.112 199.774V191.893ZM231.841 201.879C231.126 201.879 230.498 201.708 229.958 201.368C229.422 201.028 229.002 200.551 228.7 199.939C228.401 199.327 228.251 198.612 228.251 197.793C228.251 196.968 228.401 196.248 228.7 195.632C229.002 195.017 229.422 194.539 229.958 194.198C230.498 193.858 231.126 193.688 231.841 193.688C232.556 193.688 233.182 193.858 233.719 194.198C234.259 194.539 234.678 195.017 234.977 195.632C235.28 196.248 235.431 196.968 235.431 197.793C235.431 198.612 235.28 199.327 234.977 199.939C234.678 200.551 234.259 201.028 233.719 201.368C233.182 201.708 232.556 201.879 231.841 201.879ZM231.841 200.785C232.384 200.785 232.831 200.646 233.182 200.367C233.533 200.089 233.793 199.723 233.961 199.269C234.13 198.815 234.214 198.323 234.214 197.793C234.214 197.264 234.13 196.77 233.961 196.313C233.793 195.856 233.533 195.486 233.182 195.204C232.831 194.922 232.384 194.781 231.841 194.781C231.298 194.781 230.851 194.922 230.5 195.204C230.149 195.486 229.89 195.856 229.721 196.313C229.553 196.77 229.468 197.264 229.468 197.793C229.468 198.323 229.553 198.815 229.721 199.269C229.89 199.723 230.149 200.089 230.5 200.367C230.851 200.646 231.298 200.785 231.841 200.785Z" fill="white" fill-opacity="0.48"/>
<path d="M404.557 173.792C403.513 173.792 402.658 174.646 402.658 175.69C402.658 176.735 403.513 177.589 404.557 177.589C405.601 177.589 406.456 176.735 406.456 175.69C406.456 174.646 405.601 173.792 404.557 173.792ZM404.557 187.083C403.513 187.083 402.658 187.937 402.658 188.982C402.658 190.026 403.513 190.88 404.557 190.88C405.601 190.88 406.456 190.026 406.456 188.982C406.456 187.937 405.601 187.083 404.557 187.083ZM404.557 180.437C403.513 180.437 402.658 181.292 402.658 182.336C402.658 183.38 403.513 184.235 404.557 184.235C405.601 184.235 406.456 183.38 406.456 182.336C406.456 181.292 405.601 180.437 404.557 180.437Z" fill="white" fill-opacity="0.4"/>
<rect x="140" y="135.5" width="300" height="92.4053" rx="10.1066" stroke="url(#paint2_linear_1315_6204)" stroke-opacity="0.08" stroke-width="1.08568"/>
<rect x="140" y="135.5" width="300" height="92.4053" rx="10.1066" stroke="white" stroke-opacity="0.02" stroke-width="1.08568"/>
</g>
<g filter="url(#filter7_b_1315_6204)">
<rect x="162.943" y="248.44" width="254.114" height="78.7156" rx="8.55604" fill="white" fill-opacity="0.02"/>
<g filter="url(#filter8_i_1315_6204)">
<path d="M177.862 263.243V312.431" stroke="#8768FF" stroke-width="1.7567" stroke-linecap="round"/>
</g>
<path d="M192.899 278.453V269.509H196.086C196.782 269.509 197.358 269.636 197.816 269.889C198.273 270.143 198.615 270.489 198.842 270.929C199.069 271.365 199.182 271.857 199.182 272.405C199.182 272.955 199.067 273.45 198.837 273.889C198.61 274.326 198.267 274.672 197.807 274.929C197.35 275.182 196.775 275.309 196.082 275.309H193.89V274.164H195.96C196.399 274.164 196.756 274.089 197.03 273.937C197.303 273.783 197.504 273.573 197.632 273.309C197.76 273.044 197.824 272.742 197.824 272.405C197.824 272.067 197.76 271.767 197.632 271.505C197.504 271.243 197.302 271.038 197.025 270.889C196.752 270.741 196.391 270.667 195.942 270.667H194.248V278.453H192.899ZM200.536 278.453V271.745H201.798V272.811H201.868C201.991 272.45 202.206 272.166 202.515 271.959C202.823 271.75 203.175 271.645 203.571 271.645C203.755 271.645 203.919 271.667 204.065 271.71C204.21 271.754 204.338 271.814 204.449 271.889L204.03 272.981C203.951 272.943 203.862 272.913 203.763 272.889C203.665 272.863 203.551 272.85 203.423 272.85C203.12 272.85 202.849 272.916 202.611 273.047C202.375 273.175 202.187 273.352 202.047 273.579C201.911 273.806 201.842 274.065 201.842 274.357V278.453H200.536ZM207.874 278.588C207.245 278.588 206.697 278.444 206.228 278.156C205.759 277.867 205.395 277.464 205.136 276.946C204.877 276.428 204.748 275.822 204.748 275.13C204.748 274.434 204.877 273.825 205.136 273.304C205.395 272.783 205.759 272.378 206.228 272.09C206.697 271.802 207.245 271.658 207.874 271.658C208.503 271.658 209.052 271.802 209.52 272.09C209.989 272.378 210.353 272.783 210.612 273.304C210.871 273.825 211.001 274.434 211.001 275.13C211.001 275.822 210.871 276.428 210.612 276.946C210.353 277.464 209.989 277.867 209.52 278.156C209.052 278.444 208.503 278.588 207.874 278.588ZM207.878 277.492C208.286 277.492 208.624 277.384 208.892 277.169C209.159 276.953 209.357 276.667 209.485 276.309C209.616 275.95 209.682 275.556 209.682 275.125C209.682 274.697 209.616 274.304 209.485 273.946C209.357 273.585 209.159 273.295 208.892 273.077C208.624 272.859 208.286 272.75 207.878 272.75C207.468 272.75 207.127 272.859 206.857 273.077C206.589 273.295 206.389 273.585 206.258 273.946C206.13 274.304 206.066 274.697 206.066 275.125C206.066 275.556 206.13 275.95 206.258 276.309C206.389 276.667 206.589 276.953 206.857 277.169C207.127 277.384 207.468 277.492 207.878 277.492ZM215.466 271.745V272.793H211.802V271.745H215.466ZM212.785 270.138H214.091V276.483C214.091 276.736 214.128 276.927 214.204 277.055C214.28 277.18 214.377 277.266 214.497 277.313C214.619 277.357 214.751 277.378 214.894 277.378C214.999 277.378 215.091 277.371 215.169 277.357C215.248 277.342 215.309 277.33 215.353 277.322L215.588 278.4C215.513 278.429 215.405 278.458 215.265 278.488C215.126 278.52 214.951 278.537 214.741 278.54C214.398 278.546 214.078 278.485 213.781 278.357C213.484 278.228 213.243 278.031 213.06 277.763C212.877 277.495 212.785 277.159 212.785 276.754V270.138ZM219.541 278.588C218.912 278.588 218.363 278.444 217.895 278.156C217.426 277.867 217.062 277.464 216.803 276.946C216.544 276.428 216.414 275.822 216.414 275.13C216.414 274.434 216.544 273.825 216.803 273.304C217.062 272.783 217.426 272.378 217.895 272.09C218.363 271.802 218.912 271.658 219.541 271.658C220.17 271.658 220.718 271.802 221.187 272.09C221.656 272.378 222.02 272.783 222.279 273.304C222.538 273.825 222.667 274.434 222.667 275.13C222.667 275.822 222.538 276.428 222.279 276.946C222.02 277.464 221.656 277.867 221.187 278.156C220.718 278.444 220.17 278.588 219.541 278.588ZM219.545 277.492C219.953 277.492 220.29 277.384 220.558 277.169C220.826 276.953 221.024 276.667 221.152 276.309C221.283 275.95 221.349 275.556 221.349 275.125C221.349 274.697 221.283 274.304 221.152 273.946C221.024 273.585 220.826 273.295 220.558 273.077C220.29 272.859 219.953 272.75 219.545 272.75C219.135 272.75 218.794 272.859 218.523 273.077C218.255 273.295 218.056 273.585 217.925 273.946C217.797 274.304 217.733 274.697 217.733 275.125C217.733 275.556 217.797 275.95 217.925 276.309C218.056 276.667 218.255 276.953 218.523 277.169C218.794 277.384 219.135 277.492 219.545 277.492ZM227.133 271.745V272.793H223.469V271.745H227.133ZM224.452 270.138H225.757V276.483C225.757 276.736 225.795 276.927 225.871 277.055C225.947 277.18 226.044 277.266 226.163 277.313C226.286 277.357 226.418 277.378 226.561 277.378C226.666 277.378 226.757 277.371 226.836 277.357C226.914 277.342 226.976 277.33 227.019 277.322L227.255 278.4C227.179 278.429 227.072 278.458 226.932 278.488C226.792 278.52 226.618 278.537 226.408 278.54C226.064 278.546 225.744 278.485 225.447 278.357C225.15 278.228 224.91 278.031 224.727 277.763C224.543 277.495 224.452 277.159 224.452 276.754V270.138ZM229.28 280.968C229.084 280.968 228.907 280.952 228.747 280.92C228.587 280.891 228.467 280.859 228.389 280.824L228.703 279.754C228.942 279.818 229.154 279.846 229.341 279.837C229.527 279.828 229.691 279.758 229.834 279.627C229.98 279.496 230.108 279.282 230.218 278.985L230.38 278.54L227.926 271.745H229.323L231.022 276.95H231.092L232.79 271.745H234.192L231.428 279.348C231.3 279.697 231.137 279.993 230.939 280.234C230.741 280.479 230.505 280.662 230.231 280.785C229.958 280.907 229.64 280.968 229.28 280.968ZM235.296 280.968V271.745H236.571V272.833H236.681C236.756 272.693 236.865 272.531 237.008 272.348C237.151 272.164 237.349 272.004 237.602 271.868C237.855 271.728 238.19 271.658 238.606 271.658C239.148 271.658 239.631 271.795 240.056 272.068C240.481 272.342 240.814 272.737 241.056 273.252C241.301 273.767 241.423 274.387 241.423 275.112C241.423 275.837 241.302 276.458 241.06 276.977C240.819 277.492 240.487 277.889 240.065 278.169C239.643 278.445 239.161 278.584 238.619 278.584C238.212 278.584 237.878 278.515 237.619 278.378C237.363 278.242 237.162 278.081 237.017 277.898C236.871 277.715 236.759 277.552 236.681 277.409H236.602V280.968H235.296ZM236.576 275.099C236.576 275.571 236.644 275.984 236.781 276.339C236.918 276.694 237.116 276.972 237.375 277.173C237.634 277.371 237.951 277.47 238.327 277.47C238.717 277.47 239.043 277.367 239.305 277.16C239.567 276.95 239.765 276.667 239.899 276.309C240.036 275.95 240.104 275.547 240.104 275.099C240.104 274.656 240.037 274.259 239.903 273.907C239.772 273.555 239.574 273.277 239.309 273.073C239.047 272.869 238.72 272.767 238.327 272.767C237.948 272.767 237.628 272.865 237.366 273.06C237.107 273.255 236.91 273.527 236.777 273.876C236.643 274.226 236.576 274.633 236.576 275.099ZM242.763 278.453V271.745H244.068V278.453H242.763ZM243.422 270.71C243.195 270.71 243 270.635 242.837 270.483C242.677 270.329 242.597 270.146 242.597 269.933C242.597 269.718 242.677 269.534 242.837 269.383C243 269.229 243.195 269.151 243.422 269.151C243.649 269.151 243.843 269.229 244.003 269.383C244.166 269.534 244.247 269.718 244.247 269.933C244.247 270.146 244.166 270.329 244.003 270.483C243.843 270.635 243.649 270.71 243.422 270.71ZM247.008 274.47V278.453H245.702V271.745H246.955V272.837H247.038C247.193 272.482 247.434 272.196 247.763 271.981C248.095 271.766 248.513 271.658 249.016 271.658C249.473 271.658 249.874 271.754 250.217 271.946C250.561 272.135 250.827 272.418 251.016 272.793C251.206 273.169 251.3 273.633 251.3 274.186V278.453H249.995V274.343C249.995 273.857 249.868 273.477 249.615 273.204C249.361 272.927 249.013 272.789 248.571 272.789C248.268 272.789 247.999 272.854 247.763 272.985C247.53 273.116 247.345 273.309 247.209 273.562C247.075 273.812 247.008 274.115 247.008 274.47ZM255.741 281.108C255.208 281.108 254.749 281.038 254.365 280.898C253.984 280.758 253.672 280.573 253.43 280.343C253.189 280.113 253.008 279.862 252.889 279.588L254.011 279.125C254.09 279.253 254.195 279.389 254.326 279.531C254.46 279.677 254.64 279.801 254.867 279.902C255.097 280.004 255.393 280.055 255.754 280.055C256.249 280.055 256.658 279.934 256.981 279.693C257.304 279.454 257.465 279.073 257.465 278.549V277.23H257.382C257.304 277.373 257.19 277.531 257.042 277.706C256.896 277.881 256.695 278.032 256.439 278.16C256.183 278.288 255.85 278.352 255.439 278.352C254.909 278.352 254.432 278.228 254.007 277.981C253.585 277.731 253.25 277.362 253.003 276.876C252.758 276.387 252.636 275.786 252.636 275.073C252.636 274.36 252.757 273.748 252.998 273.239C253.243 272.729 253.578 272.339 254.003 272.068C254.428 271.795 254.909 271.658 255.448 271.658C255.864 271.658 256.2 271.728 256.457 271.868C256.713 272.004 256.912 272.164 257.055 272.348C257.2 272.531 257.313 272.693 257.391 272.833H257.487V271.745H258.767V278.601C258.767 279.178 258.633 279.651 258.365 280.02C258.097 280.39 257.735 280.664 257.278 280.841C256.823 281.019 256.311 281.108 255.741 281.108ZM255.727 277.269C256.103 277.269 256.42 277.182 256.679 277.007C256.941 276.83 257.139 276.576 257.273 276.247C257.41 275.916 257.479 275.518 257.479 275.055C257.479 274.604 257.412 274.207 257.278 273.863C257.144 273.52 256.947 273.252 256.688 273.06C256.429 272.865 256.109 272.767 255.727 272.767C255.334 272.767 255.007 272.869 254.745 273.073C254.483 273.274 254.285 273.547 254.151 273.894C254.02 274.24 253.955 274.627 253.955 275.055C253.955 275.495 254.021 275.881 254.155 276.212C254.289 276.544 254.487 276.803 254.749 276.99C255.014 277.176 255.34 277.269 255.727 277.269ZM266.129 278.579C265.529 278.579 265.012 278.47 264.579 278.252C264.148 278.033 263.816 277.736 263.583 277.361C263.35 276.982 263.234 276.555 263.234 276.077C263.234 275.713 263.309 275.39 263.461 275.108C263.612 274.822 263.823 274.559 264.094 274.317C264.365 274.076 264.678 273.833 265.033 273.588L266.474 272.571C266.718 272.41 266.909 272.242 267.046 272.064C267.183 271.884 267.251 271.661 267.251 271.396C267.251 271.186 267.161 270.985 266.98 270.793C266.8 270.601 266.558 270.505 266.255 270.505C266.046 270.505 265.861 270.556 265.701 270.658C265.544 270.76 265.42 270.891 265.33 271.051C265.242 271.208 265.199 271.374 265.199 271.549C265.199 271.753 265.254 271.958 265.365 272.164C265.478 272.371 265.624 272.585 265.801 272.806C265.979 273.025 266.165 273.252 266.36 273.488L270.513 278.453H269.037L265.6 274.413C265.312 274.073 265.044 273.753 264.797 273.453C264.549 273.15 264.349 272.844 264.194 272.536C264.043 272.224 263.967 271.888 263.967 271.527C263.967 271.116 264.06 270.753 264.247 270.435C264.436 270.115 264.699 269.865 265.037 269.684C265.375 269.504 265.771 269.413 266.225 269.413C266.685 269.413 267.079 269.504 267.408 269.684C267.74 269.862 267.995 270.099 268.172 270.396C268.353 270.69 268.443 271.012 268.443 271.361C268.443 271.786 268.337 272.162 268.124 272.488C267.915 272.811 267.625 273.108 267.255 273.378L265.461 274.702C265.111 274.958 264.868 275.211 264.731 275.461C264.598 275.709 264.531 275.902 264.531 276.042C264.531 276.298 264.596 276.536 264.727 276.754C264.861 276.972 265.047 277.147 265.286 277.278C265.528 277.409 265.81 277.474 266.133 277.474C266.465 277.474 266.788 277.403 267.103 277.261C267.42 277.115 267.707 276.907 267.963 276.636C268.222 276.365 268.427 276.041 268.579 275.662C268.73 275.284 268.806 274.86 268.806 274.392H269.985C269.985 274.968 269.919 275.456 269.788 275.854C269.657 276.25 269.499 276.573 269.312 276.824C269.129 277.071 268.956 277.265 268.793 277.405C268.74 277.451 268.691 277.498 268.644 277.544C268.597 277.591 268.548 277.638 268.496 277.684C268.193 277.99 267.826 278.215 267.395 278.361C266.967 278.506 266.545 278.579 266.129 278.579ZM274.208 270.671V269.509H281.129V270.671H278.339V278.453H276.994V270.671H274.208ZM284.349 278.588C283.688 278.588 283.119 278.447 282.642 278.164C282.167 277.879 281.801 277.479 281.541 276.964C281.285 276.445 281.157 275.838 281.157 275.143C281.157 274.456 281.285 273.85 281.541 273.326C281.801 272.802 282.162 272.393 282.624 272.099C283.09 271.805 283.635 271.658 284.258 271.658C284.636 271.658 285.003 271.721 285.358 271.846C285.713 271.971 286.032 272.167 286.314 272.435C286.597 272.703 286.819 273.051 286.982 273.479C287.146 273.904 287.227 274.421 287.227 275.029V275.492H281.895V274.514H285.948C285.948 274.17 285.878 273.866 285.738 273.601C285.598 273.333 285.402 273.122 285.148 272.968C284.898 272.814 284.604 272.737 284.266 272.737C283.9 272.737 283.579 272.827 283.306 273.007C283.035 273.185 282.825 273.418 282.677 273.706C282.531 273.991 282.458 274.301 282.458 274.636V275.4C282.458 275.849 282.537 276.23 282.694 276.544C282.854 276.859 283.077 277.099 283.362 277.265C283.648 277.428 283.981 277.509 284.362 277.509C284.61 277.509 284.835 277.474 285.039 277.405C285.243 277.332 285.419 277.224 285.568 277.081C285.716 276.939 285.83 276.763 285.908 276.553L287.144 276.776C287.045 277.14 286.867 277.458 286.611 277.732C286.358 278.003 286.039 278.214 285.655 278.365C285.274 278.514 284.838 278.588 284.349 278.588ZM293.579 273.383L292.395 273.592C292.346 273.441 292.267 273.297 292.16 273.16C292.055 273.023 291.912 272.911 291.732 272.824C291.551 272.737 291.326 272.693 291.055 272.693C290.685 272.693 290.377 272.776 290.129 272.942C289.882 273.105 289.758 273.316 289.758 273.575C289.758 273.799 289.841 273.98 290.007 274.116C290.173 274.253 290.441 274.365 290.81 274.453L291.876 274.697C292.493 274.84 292.953 275.06 293.256 275.357C293.559 275.654 293.71 276.039 293.71 276.514C293.71 276.916 293.593 277.274 293.361 277.588C293.131 277.9 292.809 278.144 292.395 278.322C291.985 278.499 291.509 278.588 290.968 278.588C290.216 278.588 289.604 278.428 289.129 278.108C288.655 277.785 288.363 277.326 288.256 276.732L289.518 276.54C289.596 276.869 289.758 277.118 290.003 277.287C290.247 277.453 290.566 277.536 290.959 277.536C291.387 277.536 291.729 277.447 291.985 277.269C292.241 277.089 292.369 276.869 292.369 276.61C292.369 276.4 292.291 276.224 292.133 276.081C291.979 275.939 291.742 275.831 291.422 275.758L290.286 275.509C289.66 275.367 289.198 275.14 288.898 274.828C288.601 274.517 288.452 274.122 288.452 273.645C288.452 273.249 288.563 272.902 288.784 272.606C289.005 272.309 289.311 272.077 289.701 271.911C290.091 271.742 290.538 271.658 291.042 271.658C291.767 271.658 292.337 271.815 292.754 272.13C293.17 272.441 293.445 272.859 293.579 273.383ZM298.154 271.745V272.793H294.49V271.745H298.154ZM295.472 270.138H296.778V276.483C296.778 276.736 296.816 276.927 296.891 277.055C296.967 277.18 297.065 277.266 297.184 277.313C297.306 277.357 297.439 277.378 297.581 277.378C297.686 277.378 297.778 277.371 297.857 277.357C297.935 277.342 297.996 277.33 298.04 277.322L298.276 278.4C298.2 278.429 298.092 278.458 297.953 278.488C297.813 278.52 297.638 278.537 297.429 278.54C297.085 278.546 296.765 278.485 296.468 278.357C296.171 278.228 295.931 278.031 295.747 277.763C295.564 277.495 295.472 277.159 295.472 276.754V270.138ZM299.475 278.453V271.745H300.781V278.453H299.475ZM300.134 270.71C299.907 270.71 299.712 270.635 299.549 270.483C299.389 270.329 299.309 270.146 299.309 269.933C299.309 269.718 299.389 269.534 299.549 269.383C299.712 269.229 299.907 269.151 300.134 269.151C300.361 269.151 300.555 269.229 300.715 269.383C300.878 269.534 300.96 269.718 300.96 269.933C300.96 270.146 300.878 270.329 300.715 270.483C300.555 270.635 300.361 270.71 300.134 270.71ZM303.72 274.47V278.453H302.414V271.745H303.667V272.837H303.75C303.905 272.482 304.146 272.196 304.475 271.981C304.807 271.766 305.225 271.658 305.728 271.658C306.186 271.658 306.586 271.754 306.929 271.946C307.273 272.135 307.539 272.418 307.728 272.793C307.918 273.169 308.012 273.633 308.012 274.186V278.453H306.707V274.343C306.707 273.857 306.58 273.477 306.327 273.204C306.073 272.927 305.726 272.789 305.283 272.789C304.98 272.789 304.711 272.854 304.475 272.985C304.242 273.116 304.057 273.309 303.921 273.562C303.787 273.812 303.72 274.115 303.72 274.47ZM312.453 281.108C311.92 281.108 311.461 281.038 311.077 280.898C310.696 280.758 310.384 280.573 310.143 280.343C309.901 280.113 309.72 279.862 309.601 279.588L310.723 279.125C310.802 279.253 310.907 279.389 311.038 279.531C311.172 279.677 311.352 279.801 311.579 279.902C311.809 280.004 312.105 280.055 312.466 280.055C312.961 280.055 313.37 279.934 313.693 279.693C314.016 279.454 314.178 279.073 314.178 278.549V277.23H314.095C314.016 277.373 313.902 277.531 313.754 277.706C313.608 277.881 313.408 278.032 313.151 278.16C312.895 278.288 312.562 278.352 312.151 278.352C311.621 278.352 311.144 278.228 310.719 277.981C310.297 277.731 309.962 277.362 309.715 276.876C309.47 276.387 309.348 275.786 309.348 275.073C309.348 274.36 309.469 273.748 309.71 273.239C309.955 272.729 310.29 272.339 310.715 272.068C311.14 271.795 311.621 271.658 312.16 271.658C312.576 271.658 312.913 271.728 313.169 271.868C313.425 272.004 313.624 272.164 313.767 272.348C313.913 272.531 314.025 272.693 314.103 272.833H314.199V271.745H315.479V278.601C315.479 279.178 315.345 279.651 315.077 280.02C314.809 280.39 314.447 280.664 313.99 280.841C313.536 281.019 313.023 281.108 312.453 281.108ZM312.44 277.269C312.815 277.269 313.132 277.182 313.391 277.007C313.653 276.83 313.851 276.576 313.985 276.247C314.122 275.916 314.191 275.518 314.191 275.055C314.191 274.604 314.124 274.207 313.99 273.863C313.856 273.52 313.659 273.252 313.4 273.06C313.141 272.865 312.821 272.767 312.44 272.767C312.047 272.767 311.719 272.869 311.457 273.073C311.195 273.274 310.997 273.547 310.863 273.894C310.732 274.24 310.667 274.627 310.667 275.055C310.667 275.495 310.734 275.881 310.867 276.212C311.001 276.544 311.199 276.803 311.461 276.99C311.726 277.176 312.052 277.269 312.44 277.269Z" fill="white" fill-opacity="0.88"/>
<path d="M192.899 295.186H194.536L197.383 302.138H197.488L200.335 295.186H201.973V304.129H200.689V297.658H200.606L197.968 304.116H196.903L194.265 297.653H194.182V304.129H192.899V295.186ZM206.218 304.26C205.676 304.26 205.193 304.122 204.768 303.845C204.346 303.566 204.014 303.168 203.772 302.653C203.534 302.135 203.414 301.513 203.414 300.789C203.414 300.064 203.535 299.444 203.777 298.928C204.021 298.413 204.356 298.019 204.781 297.745C205.206 297.471 205.688 297.334 206.226 297.334C206.643 297.334 206.977 297.404 207.231 297.544C207.487 297.681 207.685 297.841 207.825 298.024C207.967 298.208 208.078 298.369 208.156 298.509H208.235V297.422H209.541V304.129H208.266V303.085H208.156C208.078 303.228 207.964 303.391 207.816 303.575C207.67 303.758 207.469 303.918 207.213 304.055C206.957 304.192 206.625 304.26 206.218 304.26ZM206.506 303.147C206.881 303.147 207.199 303.048 207.458 302.85C207.72 302.649 207.918 302.371 208.052 302.016C208.189 301.66 208.257 301.247 208.257 300.775C208.257 300.31 208.19 299.902 208.056 299.553C207.922 299.203 207.726 298.931 207.467 298.736C207.207 298.541 206.887 298.444 206.506 298.444C206.113 298.444 205.785 298.545 205.523 298.749C205.261 298.953 205.063 299.231 204.929 299.583C204.798 299.936 204.733 300.333 204.733 300.775C204.733 301.224 204.8 301.627 204.934 301.985C205.068 302.343 205.266 302.627 205.528 302.837C205.793 303.043 206.119 303.147 206.506 303.147ZM211.281 304.129V297.422H212.543V298.487H212.613C212.735 298.126 212.951 297.842 213.259 297.636C213.568 297.426 213.92 297.321 214.316 297.321C214.5 297.321 214.664 297.343 214.81 297.387C214.955 297.431 215.083 297.49 215.194 297.566L214.775 298.658C214.696 298.62 214.607 298.589 214.508 298.566C214.409 298.54 214.296 298.527 214.168 298.527C213.865 298.527 213.594 298.592 213.356 298.723C213.12 298.851 212.932 299.029 212.792 299.256C212.655 299.483 212.587 299.742 212.587 300.033V304.129H211.281ZM222.261 304.278C221.571 304.275 220.982 304.093 220.493 303.732C220.004 303.371 219.63 302.845 219.37 302.155C219.111 301.465 218.982 300.634 218.982 299.662C218.982 298.693 219.111 297.864 219.37 297.177C219.632 296.49 220.008 295.966 220.497 295.605C220.989 295.244 221.577 295.064 222.261 295.064C222.945 295.064 223.532 295.246 224.021 295.61C224.51 295.971 224.884 296.495 225.143 297.182C225.405 297.866 225.536 298.693 225.536 299.662C225.536 300.637 225.407 301.47 225.148 302.16C224.889 302.847 224.515 303.372 224.025 303.736C223.536 304.097 222.948 304.278 222.261 304.278ZM222.261 303.112C222.867 303.112 223.34 302.816 223.68 302.225C224.024 301.634 224.196 300.78 224.196 299.662C224.196 298.92 224.117 298.292 223.96 297.78C223.806 297.265 223.583 296.874 223.292 296.61C223.004 296.342 222.66 296.208 222.261 296.208C221.659 296.208 221.186 296.505 220.842 297.099C220.499 297.693 220.325 298.547 220.322 299.662C220.322 300.407 220.4 301.037 220.554 301.553C220.711 302.065 220.934 302.454 221.222 302.719C221.51 302.981 221.857 303.112 222.261 303.112ZM230.107 295.186V304.129H228.753V297.007H228.679C228.632 297.094 228.524 297.189 228.356 297.291C228.19 297.393 227.976 297.481 227.714 297.557C227.455 297.633 227.155 297.671 226.814 297.671V296.562C227.143 296.562 227.43 296.503 227.674 296.387C227.922 296.27 228.131 296.131 228.303 295.968C228.475 295.802 228.606 295.646 228.696 295.5C228.786 295.352 228.837 295.247 228.849 295.186H230.107ZM238.531 297.422V298.295H235.055V297.422H238.531ZM236.068 295.815H237.099V302.208C237.099 302.499 237.141 302.717 237.225 302.863C237.313 303.005 237.423 303.102 237.557 303.151C237.694 303.198 237.838 303.221 237.989 303.221C238.103 303.221 238.196 303.215 238.269 303.203C238.342 303.189 238.4 303.177 238.444 303.168L238.653 304.094C238.583 304.12 238.486 304.147 238.361 304.173C238.235 304.202 238.077 304.216 237.885 304.216C237.594 304.216 237.308 304.154 237.029 304.029C236.752 303.904 236.522 303.713 236.339 303.457C236.158 303.2 236.068 302.877 236.068 302.487V295.815ZM242.611 304.269C242.005 304.269 241.474 304.125 241.017 303.837C240.563 303.548 240.208 303.145 239.952 302.627C239.698 302.109 239.572 301.503 239.572 300.81C239.572 300.112 239.698 299.502 239.952 298.981C240.208 298.46 240.563 298.055 241.017 297.767C241.474 297.479 242.005 297.334 242.611 297.334C243.217 297.334 243.746 297.479 244.201 297.767C244.658 298.055 245.013 298.46 245.266 298.981C245.522 299.502 245.65 300.112 245.65 300.81C245.65 301.503 245.522 302.109 245.266 302.627C245.013 303.145 244.658 303.548 244.201 303.837C243.746 304.125 243.217 304.269 242.611 304.269ZM242.611 303.343C243.071 303.343 243.449 303.225 243.746 302.989C244.043 302.754 244.263 302.444 244.406 302.059C244.548 301.675 244.62 301.259 244.62 300.81C244.62 300.362 244.548 299.944 244.406 299.557C244.263 299.17 244.043 298.857 243.746 298.618C243.449 298.38 243.071 298.26 242.611 298.26C242.151 298.26 241.773 298.38 241.476 298.618C241.179 298.857 240.959 299.17 240.816 299.557C240.674 299.944 240.602 300.362 240.602 300.81C240.602 301.259 240.674 301.675 240.816 302.059C240.959 302.444 241.179 302.754 241.476 302.989C241.773 303.225 242.151 303.343 242.611 303.343ZM251.027 304.129H249.594L252.813 295.186H254.372L257.59 304.129H256.158L253.629 296.81H253.559L251.027 304.129ZM251.267 300.627H255.913V301.762H251.267V300.627ZM262.902 301.348V297.422H264.212V304.129H262.929V302.968H262.859C262.704 303.326 262.457 303.624 262.116 303.863C261.779 304.099 261.358 304.216 260.854 304.216C260.424 304.216 260.042 304.122 259.71 303.933C259.381 303.741 259.122 303.457 258.933 303.081C258.747 302.706 258.654 302.241 258.654 301.688V297.422H259.959V301.531C259.959 301.988 260.086 302.352 260.339 302.623C260.592 302.893 260.921 303.029 261.326 303.029C261.571 303.029 261.814 302.968 262.055 302.845C262.3 302.723 262.502 302.538 262.662 302.291C262.825 302.043 262.905 301.729 262.902 301.348ZM268.656 306.784C268.123 306.784 267.665 306.714 267.281 306.575C266.899 306.435 266.588 306.25 266.346 306.02C266.104 305.79 265.924 305.538 265.805 305.265L266.927 304.802C267.005 304.93 267.11 305.065 267.241 305.208C267.375 305.353 267.556 305.477 267.783 305.579C268.013 305.681 268.308 305.732 268.669 305.732C269.164 305.732 269.573 305.611 269.896 305.369C270.219 305.131 270.381 304.749 270.381 304.225V302.906H270.298C270.219 303.049 270.106 303.208 269.957 303.382C269.812 303.557 269.611 303.708 269.355 303.837C269.099 303.965 268.765 304.029 268.355 304.029C267.825 304.029 267.348 303.905 266.922 303.658C266.5 303.407 266.166 303.039 265.918 302.553C265.674 302.064 265.551 301.462 265.551 300.749C265.551 300.036 265.672 299.425 265.914 298.915C266.158 298.406 266.493 298.016 266.918 297.745C267.343 297.471 267.825 297.334 268.364 297.334C268.78 297.334 269.116 297.404 269.372 297.544C269.628 297.681 269.828 297.841 269.97 298.024C270.116 298.208 270.228 298.369 270.307 298.509H270.403V297.422H271.682V304.278C271.682 304.854 271.548 305.327 271.281 305.697C271.013 306.067 270.65 306.34 270.193 306.518C269.739 306.695 269.227 306.784 268.656 306.784ZM268.643 302.946C269.019 302.946 269.336 302.858 269.595 302.684C269.857 302.506 270.055 302.253 270.189 301.924C270.326 301.592 270.394 301.195 270.394 300.732C270.394 300.281 270.327 299.883 270.193 299.54C270.059 299.196 269.863 298.928 269.604 298.736C269.345 298.541 269.024 298.444 268.643 298.444C268.25 298.444 267.922 298.545 267.66 298.749C267.398 298.95 267.2 299.224 267.067 299.57C266.936 299.917 266.87 300.304 266.87 300.732C266.87 301.171 266.937 301.557 267.071 301.889C267.205 302.221 267.403 302.48 267.665 302.666C267.93 302.853 268.256 302.946 268.643 302.946ZM279.538 304.278C278.848 304.275 278.258 304.093 277.769 303.732C277.28 303.371 276.906 302.845 276.647 302.155C276.388 301.465 276.258 300.634 276.258 299.662C276.258 298.693 276.388 297.864 276.647 297.177C276.909 296.49 277.285 295.966 277.774 295.605C278.266 295.244 278.854 295.064 279.538 295.064C280.222 295.064 280.809 295.246 281.298 295.61C281.787 295.971 282.161 296.495 282.42 297.182C282.682 297.866 282.813 298.693 282.813 299.662C282.813 300.637 282.683 301.47 282.424 302.16C282.165 302.847 281.791 303.372 281.302 303.736C280.813 304.097 280.225 304.278 279.538 304.278ZM279.538 303.112C280.143 303.112 280.616 302.816 280.957 302.225C281.301 301.634 281.472 300.78 281.472 299.662C281.472 298.92 281.394 298.292 281.236 297.78C281.082 297.265 280.859 296.874 280.568 296.61C280.28 296.342 279.937 296.208 279.538 296.208C278.935 296.208 278.462 296.505 278.119 297.099C277.775 297.693 277.602 298.547 277.599 299.662C277.599 300.407 277.676 301.037 277.83 301.553C277.988 302.065 278.21 302.454 278.499 302.719C278.787 302.981 279.133 303.112 279.538 303.112ZM287.383 295.186V304.129H286.029V297.007H285.955C285.909 297.094 285.801 297.189 285.632 297.291C285.466 297.393 285.252 297.481 284.99 297.557C284.731 297.633 284.431 297.671 284.091 297.671V296.562C284.42 296.562 284.706 296.503 284.951 296.387C285.198 296.27 285.408 296.131 285.58 295.968C285.751 295.802 285.882 295.646 285.973 295.5C286.063 295.352 286.114 295.247 286.125 295.186H287.383Z" fill="white" fill-opacity="0.72"/>
<path d="M387.052 280.729C386.168 280.729 385.445 281.452 385.445 282.336C385.445 283.221 386.168 283.944 387.052 283.944C387.936 283.944 388.659 283.221 388.659 282.336C388.659 281.452 387.936 280.729 387.052 280.729ZM387.052 291.981C386.168 291.981 385.445 292.704 385.445 293.588C385.445 294.473 386.168 295.196 387.052 295.196C387.936 295.196 388.659 294.473 388.659 293.588C388.659 292.704 387.936 291.981 387.052 291.981ZM387.052 286.355C386.168 286.355 385.445 287.078 385.445 287.962C385.445 288.847 386.168 289.57 387.052 289.57C387.936 289.57 388.659 288.847 388.659 287.962C388.659 287.078 387.936 286.355 387.052 286.355Z" fill="white" fill-opacity="0.4"/>
<rect x="162.943" y="248.44" width="254.114" height="78.7156" rx="8.55604" stroke="url(#paint3_linear_1315_6204)" stroke-opacity="0.08" stroke-width="0.919115"/>
<rect x="162.943" y="248.44" width="254.114" height="78.7156" rx="8.55604" stroke="white" stroke-opacity="0.02" stroke-width="0.919115"/>
</g>
<g filter="url(#filter9_b_1315_6204)">
<rect x="162.943" y="347.69" width="254.114" height="78.7156" rx="8.55604" fill="white" fill-opacity="0.02"/>
<g filter="url(#filter10_i_1315_6204)">
<path d="M177.862 362.494V411.681" stroke="#8768FF" stroke-width="1.7567" stroke-linecap="round"/>
</g>
<rect x="162.943" y="347.69" width="254.114" height="78.7156" rx="8.55604" stroke="url(#paint4_linear_1315_6204)" stroke-opacity="0.08" stroke-width="0.919115"/>
<rect x="162.943" y="347.69" width="254.114" height="78.7156" rx="8.55604" stroke="white" stroke-opacity="0.02" stroke-width="0.919115"/>
</g>
</g>
<defs>
<filter id="filter0_b_1315_6204" x="-32" y="-32" width="644" height="428" filterUnits="userSpaceOnUse" color-interpolation-filters="sRGB">
<feFlood flood-opacity="0" result="BackgroundImageFix"/>
<feGaussianBlur in="BackgroundImageFix" stdDeviation="16"/>
<feComposite in2="SourceAlpha" operator="in" result="effect1_backgroundBlur_1315_6204"/>
<feBlend mode="normal" in="SourceGraphic" in2="effect1_backgroundBlur_1315_6204" result="shape"/>
</filter>
<filter id="filter1_b_1315_6204" x="102.473" y="-123.47" width="375.055" height="199.656" filterUnits="userSpaceOnUse" color-interpolation-filters="sRGB">
<feFlood flood-opacity="0" result="BackgroundImageFix"/>
<feGaussianBlur in="BackgroundImageFix" stdDeviation="30.0054"/>
<feComposite in2="SourceAlpha" operator="in" result="effect1_backgroundBlur_1315_6204"/>
<feBlend mode="normal" in="SourceGraphic" in2="effect1_backgroundBlur_1315_6204" result="shape"/>
</filter>
<filter id="filter2_i_1315_6204" x="176.984" y="-49.0745" width="1.75684" height="51.8632" filterUnits="userSpaceOnUse" color-interpolation-filters="sRGB">
<feFlood flood-opacity="0" result="BackgroundImageFix"/>
<feBlend mode="normal" in="SourceGraphic" in2="BackgroundImageFix" result="shape"/>
<feColorMatrix in="SourceAlpha" type="matrix" values="0 0 0 0 0 0 0 0 0 0 0 0 0 0 0 0 0 0 127 0" result="hardAlpha"/>
<feOffset dy="0.919115"/>
<feGaussianBlur stdDeviation="5.51469"/>
<feComposite in2="hardAlpha" operator="arithmetic" k2="-1" k3="1"/>
<feColorMatrix type="matrix" values="0 0 0 0 1 0 0 0 0 1 0 0 0 0 1 0 0 0 0.32 0"/>
<feBlend mode="normal" in2="shape" result="effect1_innerShadow_1315_6204"/>
</filter>
<filter id="filter3_b_1315_6204" x="102.473" y="-24.2201" width="375.055" height="199.656" filterUnits="userSpaceOnUse" color-interpolation-filters="sRGB">
<feFlood flood-opacity="0" result="BackgroundImageFix"/>
<feGaussianBlur in="BackgroundImageFix" stdDeviation="30.0054"/>
<feComposite in2="SourceAlpha" operator="in" result="effect1_backgroundBlur_1315_6204"/>
<feBlend mode="normal" in="SourceGraphic" in2="effect1_backgroundBlur_1315_6204" result="shape"/>
</filter>
<filter id="filter4_i_1315_6204" x="176.984" y="50.1758" width="1.75684" height="51.8632" filterUnits="userSpaceOnUse" color-interpolation-filters="sRGB">
<feFlood flood-opacity="0" result="BackgroundImageFix"/>
<feBlend mode="normal" in="SourceGraphic" in2="BackgroundImageFix" result="shape"/>
<feColorMatrix in="SourceAlpha" type="matrix" values="0 0 0 0 0 0 0 0 0 0 0 0 0 0 0 0 0 0 127 0" result="hardAlpha"/>
<feOffset dy="0.919115"/>
<feGaussianBlur stdDeviation="5.51469"/>
<feComposite in2="hardAlpha" operator="arithmetic" k2="-1" k3="1"/>
<feColorMatrix type="matrix" values="0 0 0 0 1 0 0 0 0 1 0 0 0 0 1 0 0 0 0.32 0"/>
<feBlend mode="normal" in2="shape" result="effect1_innerShadow_1315_6204"/>
</filter>
<filter id="filter5_b_1315_6204" x="68.5711" y="64.0711" width="442.858" height="235.263" filterUnits="userSpaceOnUse" color-interpolation-filters="sRGB">
<feFlood flood-opacity="0" result="BackgroundImageFix"/>
<feGaussianBlur in="BackgroundImageFix" stdDeviation="35.4431"/>
<feComposite in2="SourceAlpha" operator="in" result="effect1_backgroundBlur_1315_6204"/>
<feBlend mode="normal" in="SourceGraphic" in2="effect1_backgroundBlur_1315_6204" result="shape"/>
</filter>
<filter id="filter6_i_1315_6204" x="156.42" y="152.1" width="2.0752" height="61.2621" filterUnits="userSpaceOnUse" color-interpolation-filters="sRGB">
<feFlood flood-opacity="0" result="BackgroundImageFix"/>
<feBlend mode="normal" in="SourceGraphic" in2="BackgroundImageFix" result="shape"/>
<feColorMatrix in="SourceAlpha" type="matrix" values="0 0 0 0 0 0 0 0 0 0 0 0 0 0 0 0 0 0 127 0" result="hardAlpha"/>
<feOffset dy="1.08568"/>
<feGaussianBlur stdDeviation="6.51408"/>
<feComposite in2="hardAlpha" operator="arithmetic" k2="-1" k3="1"/>
<feColorMatrix type="matrix" values="0 0 0 0 1 0 0 0 0 1 0 0 0 0 1 0 0 0 0.32 0"/>
<feBlend mode="normal" in2="shape" result="effect1_innerShadow_1315_6204"/>
</filter>
<filter id="filter7_b_1315_6204" x="102.473" y="187.969" width="375.055" height="199.656" filterUnits="userSpaceOnUse" color-interpolation-filters="sRGB">
<feFlood flood-opacity="0" result="BackgroundImageFix"/>
<feGaussianBlur in="BackgroundImageFix" stdDeviation="30.0054"/>
<feComposite in2="SourceAlpha" operator="in" result="effect1_backgroundBlur_1315_6204"/>
<feBlend mode="normal" in="SourceGraphic" in2="effect1_backgroundBlur_1315_6204" result="shape"/>
</filter>
<filter id="filter8_i_1315_6204" x="176.984" y="262.365" width="1.75684" height="51.8632" filterUnits="userSpaceOnUse" color-interpolation-filters="sRGB">
<feFlood flood-opacity="0" result="BackgroundImageFix"/>
<feBlend mode="normal" in="SourceGraphic" in2="BackgroundImageFix" result="shape"/>
<feColorMatrix in="SourceAlpha" type="matrix" values="0 0 0 0 0 0 0 0 0 0 0 0 0 0 0 0 0 0 127 0" result="hardAlpha"/>
<feOffset dy="0.919115"/>
<feGaussianBlur stdDeviation="5.51469"/>
<feComposite in2="hardAlpha" operator="arithmetic" k2="-1" k3="1"/>
<feColorMatrix type="matrix" values="0 0 0 0 1 0 0 0 0 1 0 0 0 0 1 0 0 0 0.32 0"/>
<feBlend mode="normal" in2="shape" result="effect1_innerShadow_1315_6204"/>
</filter>
<filter id="filter9_b_1315_6204" x="102.473" y="287.22" width="375.055" height="199.656" filterUnits="userSpaceOnUse" color-interpolation-filters="sRGB">
<feFlood flood-opacity="0" result="BackgroundImageFix"/>
<feGaussianBlur in="BackgroundImageFix" stdDeviation="30.0054"/>
<feComposite in2="SourceAlpha" operator="in" result="effect1_backgroundBlur_1315_6204"/>
<feBlend mode="normal" in="SourceGraphic" in2="effect1_backgroundBlur_1315_6204" result="shape"/>
</filter>
<filter id="filter10_i_1315_6204" x="176.984" y="361.615" width="1.75684" height="51.8632" filterUnits="userSpaceOnUse" color-interpolation-filters="sRGB">
<feFlood flood-opacity="0" result="BackgroundImageFix"/>
<feBlend mode="normal" in="SourceGraphic" in2="BackgroundImageFix" result="shape"/>
<feColorMatrix in="SourceAlpha" type="matrix" values="0 0 0 0 0 0 0 0 0 0 0 0 0 0 0 0 0 0 127 0" result="hardAlpha"/>
<feOffset dy="0.919115"/>
<feGaussianBlur stdDeviation="5.51469"/>
<feComposite in2="hardAlpha" operator="arithmetic" k2="-1" k3="1"/>
<feColorMatrix type="matrix" values="0 0 0 0 1 0 0 0 0 1 0 0 0 0 1 0 0 0 0.32 0"/>
<feBlend mode="normal" in2="shape" result="effect1_innerShadow_1315_6204"/>
</filter>
<linearGradient id="paint0_linear_1315_6204" x1="290" y1="-63" x2="290" y2="15.7156" gradientUnits="userSpaceOnUse">
<stop stop-color="white"/>
<stop offset="1" stop-color="white" stop-opacity="0"/>
</linearGradient>
<linearGradient id="paint1_linear_1315_6204" x1="290" y1="36.2502" x2="290" y2="114.966" gradientUnits="userSpaceOnUse">
<stop stop-color="white"/>
<stop offset="1" stop-color="white" stop-opacity="0"/>
</linearGradient>
<linearGradient id="paint2_linear_1315_6204" x1="290" y1="135.5" x2="290" y2="227.905" gradientUnits="userSpaceOnUse">
<stop stop-color="white"/>
<stop offset="1" stop-color="white" stop-opacity="0"/>
</linearGradient>
<linearGradient id="paint3_linear_1315_6204" x1="290" y1="248.44" x2="290" y2="327.155" gradientUnits="userSpaceOnUse">
<stop stop-color="white"/>
<stop offset="1" stop-color="white" stop-opacity="0"/>
</linearGradient>
<linearGradient id="paint4_linear_1315_6204" x1="290" y1="347.69" x2="290" y2="426.406" gradientUnits="userSpaceOnUse">
<stop stop-color="white"/>
<stop offset="1" stop-color="white" stop-opacity="0"/>
</linearGradient>
<clipPath id="clip0_1315_6204">
<rect width="580" height="364" fill="white"/>
</clipPath>
</defs>
</svg>
