<svg width="1440" height="764" viewBox="0 0 1440 764" fill="none" xmlns="http://www.w3.org/2000/svg">
<g clip-path="url(#clip0_1337_6222)">
<g style="mix-blend-mode:soft-light" opacity="0.64">
<path d="M924.675 30.1164V43.3252M924.675 43.3252V56.5339M924.675 43.3252H937.883M924.675 43.3252H911.466M924.675 382.35V395.558M924.675 395.558V408.767M924.675 395.558H937.883M924.675 395.558H911.466M924.675 734.582V747.791M924.675 747.791V761M924.675 747.791H937.883M924.675 747.791H911.466M572.441 30.1164V43.3252M572.441 43.3252V56.5339M572.441 43.3252H585.65M572.441 43.3252H559.233M572.441 382.35V395.558M572.441 395.558V408.767M572.441 395.558H585.65M572.441 395.558H559.233M572.441 734.582V747.791M572.441 747.791V761M572.441 747.791H585.65M572.441 747.791H559.233M220.208 30.1164V43.3252M220.208 43.3252V56.5339M220.208 43.3252H233.417M220.208 43.3252H207M220.208 382.35V395.558M220.208 395.558V408.767M220.208 395.558H233.417M220.208 395.558H207M220.208 734.582V747.791M220.208 747.791V761M220.208 747.791H233.417M220.208 747.791H207M-132.025 30.1164V43.3252M-132.025 43.3252V56.5339M-132.025 43.3252H-118.816M-132.025 43.3252H-145.234M-132.025 382.35V395.558M-132.025 395.558V408.767M-132.025 395.558H-118.816M-132.025 395.558H-145.234M-132.025 734.582V747.791M-132.025 747.791V761M-132.025 747.791H-118.816M-132.025 747.791H-145.234M-484.258 30.1164V43.3252M-484.258 43.3252V56.5339M-484.258 43.3252H-471.049M-484.258 43.3252H-497.467M-484.258 382.35V395.558M-484.258 395.558V408.767M-484.258 395.558H-471.049M-484.258 395.558H-497.467M-484.258 734.582V747.791M-484.258 747.791V761M-484.258 747.791H-471.049M-484.258 747.791H-497.467M-836.491 30.1164V43.3252M-836.491 43.3252V56.5339M-836.491 43.3252H-823.282M-836.491 43.3252H-849.7M-836.491 382.35V395.558M-836.491 395.558V408.767M-836.491 395.558H-823.282M-836.491 395.558H-849.7M-836.491 734.582V747.791M-836.491 747.791V761M-836.491 747.791H-823.282M-836.491 747.791H-849.7M924.675 -146V-132.791M924.675 -132.791V-119.583M924.675 -132.791H937.883M924.675 -132.791H911.466M924.675 206.233V219.442M924.675 219.442V232.651M924.675 219.442H937.883M924.675 219.442H911.466M924.675 558.466V571.675M924.675 571.675V584.883M924.675 571.675H937.883M924.675 571.675H911.466M572.441 -146V-132.791M572.441 -132.791V-119.583M572.441 -132.791H585.65M572.441 -132.791H559.233M572.441 206.233V219.442M572.441 219.442V232.651M572.441 219.442H585.65M572.441 219.442H559.233M572.441 558.466V571.675M572.441 571.675V584.883M572.441 571.675H585.65M572.441 571.675H559.233M220.208 -146V-132.791M220.208 -132.791V-119.583M220.208 -132.791H233.417M220.208 -132.791H207M220.208 206.233V219.442M220.208 219.442V232.651M220.208 219.442H233.417M220.208 219.442H207M220.208 558.466V571.675M220.208 571.675V584.883M220.208 571.675H233.417M220.208 571.675H207M-132.025 -146V-132.791M-132.025 -132.791V-119.583M-132.025 -132.791H-118.816M-132.025 -132.791H-145.234M-132.025 206.233V219.442M-132.025 219.442V232.651M-132.025 219.442H-118.816M-132.025 219.442H-145.234M-132.025 558.466V571.675M-132.025 571.675V584.883M-132.025 571.675H-118.816M-132.025 571.675H-145.234M-484.258 -146V-132.791M-484.258 -132.791V-119.583M-484.258 -132.791H-471.049M-484.258 -132.791H-497.467M-484.258 206.233V219.442M-484.258 219.442V232.651M-484.258 219.442H-471.049M-484.258 219.442H-497.467M-484.258 558.466V571.675M-484.258 571.675V584.883M-484.258 571.675H-471.049M-484.258 571.675H-497.467M-836.491 -146V-132.791M-836.491 -132.791V-119.583M-836.491 -132.791H-823.282M-836.491 -132.791H-849.7M-836.491 206.233V219.442M-836.491 219.442V232.651M-836.491 219.442H-823.282M-836.491 219.442H-849.7M-836.491 558.466V571.675M-836.491 571.675V584.883M-836.491 571.675H-823.282M-836.491 571.675H-849.7M1100.79 30.1164V43.3252M1100.79 43.3252V56.5339M1100.79 43.3252H1114M1100.79 43.3252H1087.58M1100.79 382.35V395.558M1100.79 395.558V408.767M1100.79 395.558H1114M1100.79 395.558H1087.58M1100.79 734.582V747.791M1100.79 747.791V761M1100.79 747.791H1114M1100.79 747.791H1087.58M748.558 30.1164V43.3252M748.558 43.3252V56.5339M748.558 43.3252H761.767M748.558 43.3252H735.349M748.558 382.35V395.558M748.558 395.558V408.767M748.558 395.558H761.767M748.558 395.558H735.349M748.558 734.582V747.791M748.558 747.791V761M748.558 747.791H761.767M748.558 747.791H735.349M396.325 30.1164V43.3252M396.325 43.3252V56.5339M396.325 43.3252H409.534M396.325 43.3252H383.116M396.325 382.35V395.558M396.325 395.558V408.767M396.325 395.558H409.534M396.325 395.558H383.116M396.325 734.582V747.791M396.325 747.791V761M396.325 747.791H409.534M396.325 747.791H383.116M44.0917 30.1164V43.3252M44.0917 43.3252V56.5339M44.0917 43.3252H57.3004M44.0917 43.3252H30.8829M44.0917 382.35V395.558M44.0917 395.558V408.767M44.0917 395.558H57.3004M44.0917 395.558H30.8829M44.0917 734.582V747.791M44.0917 747.791V761M44.0917 747.791H57.3004M44.0917 747.791H30.8829M-308.141 30.1164V43.3252M-308.141 43.3252V56.5339M-308.141 43.3252H-294.933M-308.141 43.3252H-321.35M-308.141 382.35V395.558M-308.141 395.558V408.767M-308.141 395.558H-294.933M-308.141 395.558H-321.35M-308.141 734.582V747.791M-308.141 747.791V761M-308.141 747.791H-294.933M-308.141 747.791H-321.35M-660.374 30.1164V43.3252M-660.374 43.3252V56.5339M-660.374 43.3252H-647.166M-660.374 43.3252H-673.583M-660.374 382.35V395.558M-660.374 395.558V408.767M-660.374 395.558H-647.166M-660.374 395.558H-673.583M-660.374 734.582V747.791M-660.374 747.791V761M-660.374 747.791H-647.166M-660.374 747.791H-673.583M1100.79 -146V-132.791M1100.79 -132.791V-119.582M1100.79 -132.791H1114M1100.79 -132.791H1087.58M1100.79 206.233V219.442M1100.79 219.442V232.651M1100.79 219.442H1114M1100.79 219.442H1087.58M1100.79 558.466V571.675M1100.79 571.675V584.883M1100.79 571.675H1114M1100.79 571.675H1087.58M748.558 -146V-132.791M748.558 -132.791V-119.583M748.558 -132.791H761.767M748.558 -132.791H735.349M748.558 206.233V219.442M748.558 219.442V232.651M748.558 219.442H761.767M748.558 219.442H735.349M748.558 558.466V571.675M748.558 571.675V584.883M748.558 571.675H761.767M748.558 571.675H735.349M396.325 -146V-132.791M396.325 -132.791V-119.583M396.325 -132.791H409.534M396.325 -132.791H383.116M396.325 206.233V219.442M396.325 219.442V232.651M396.325 219.442H409.534M396.325 219.442H383.116M396.325 558.466V571.675M396.325 571.675V584.883M396.325 571.675H409.534M396.325 571.675H383.116M44.0917 -146V-132.791M44.0917 -132.791V-119.583M44.0917 -132.791H57.3004M44.0917 -132.791H30.8829M44.0917 206.233V219.442M44.0917 219.442V232.651M44.0917 219.442H57.3004M44.0917 219.442H30.8829M44.0917 558.466V571.675M44.0917 571.675V584.883M44.0917 571.675H57.3004M44.0917 571.675H30.8829M-308.141 -146V-132.791M-308.141 -132.791V-119.583M-308.141 -132.791H-294.933M-308.141 -132.791H-321.35M-308.141 206.233V219.442M-308.141 219.442V232.651M-308.141 219.442H-294.933M-308.141 219.442H-321.35M-308.141 558.466V571.675M-308.141 571.675V584.883M-308.141 571.675H-294.933M-308.141 571.675H-321.35M-660.374 -146V-132.791M-660.374 -132.791V-119.583M-660.374 -132.791H-647.166M-660.374 -132.791H-673.583M-660.374 206.233V219.442M-660.374 219.442V232.651M-660.374 219.442H-647.166M-660.374 219.442H-673.583M-660.374 558.466V571.675M-660.374 571.675V584.883M-660.374 571.675H-647.166M-660.374 571.675H-673.583" stroke="url(#paint0_radial_1337_6222)" stroke-width="0.8"/>
</g>
<g style="mix-blend-mode:soft-light" opacity="0.64">
<path d="M1056.76 -132.791H1100.79V-88.7615M1056.76 -132.791V-88.7615M1056.76 -132.791H1012.73M1056.76 -88.7615H1100.79M1056.76 -88.7615V-44.7324M1056.76 -88.7615H1012.73M1100.79 -88.7615V-44.7324M1056.76 -44.7324H1100.79M1056.76 -44.7324V-0.703242M1056.76 -44.7324H1012.73M1100.79 -44.7324V-0.703242M1056.76 -0.703242H1100.79M1056.76 -0.703242V43.3259M1056.76 -0.703242H1012.73M1100.79 -0.703242V43.3259M1056.76 43.3259H1100.79M1056.76 43.3259V87.355M1056.76 43.3259H1012.73M1100.79 43.3259V87.355M1056.76 87.355H1100.79M1056.76 87.355V131.384M1056.76 87.355H1012.73M1100.79 87.355V131.384M1056.76 131.384H1100.79M1056.76 131.384V175.413M1056.76 131.384H1012.73M1100.79 131.384V175.413M1056.76 175.413H1100.79M1056.76 175.413V219.442M1056.76 175.413H1012.73M1100.79 175.413V219.442M1056.76 219.442H1100.79M1056.76 219.442V263.472M1056.76 219.442H1012.73M1100.79 219.442V263.472M1056.76 263.472H1100.79M1056.76 263.472V307.501M1056.76 263.472H1012.73M1100.79 263.472V307.501M1056.76 307.501H1100.79M1056.76 307.501V351.53M1056.76 307.501H1012.73M1100.79 307.501V351.53M1056.76 351.53H1100.79M1056.76 351.53V395.559M1056.76 351.53H1012.73M1100.79 351.53V395.559M1056.76 395.559H1100.79M1056.76 395.559V439.588M1056.76 395.559H1012.73M1100.79 395.559V439.588M1056.76 439.588H1100.79M1056.76 439.588V483.617M1056.76 439.588H1012.73M1100.79 439.588V483.617M1056.76 483.617H1100.79M1056.76 483.617V527.646M1056.76 483.617H1012.73M1100.79 483.617V527.646M1056.76 527.646H1100.79M1056.76 527.646V571.676M1056.76 527.646H1012.73M1100.79 527.646V571.676M1056.76 571.676H1100.79M1056.76 571.676V615.705M1056.76 571.676H1012.73M1100.79 571.676V615.705M1056.76 615.705H1100.79M1056.76 615.705V659.734M1056.76 615.705H1012.73M1100.79 615.705V659.734M1056.76 659.734H1100.79M1056.76 659.734V703.763M1056.76 659.734H1012.73M1100.79 659.734V703.763M1056.76 703.763H1100.79M1056.76 703.763V747.792M1056.76 703.763H1012.73M1100.79 703.763V747.792H1056.76M1056.76 747.792H1012.73M1012.73 -132.791V-88.7615M1012.73 -132.791H968.703M1012.73 -88.7615V-44.7324M1012.73 -88.7615H968.703M1012.73 -44.7324V-0.703242M1012.73 -44.7324H968.703M1012.73 -0.703242V43.3259M1012.73 -0.703242H968.703M1012.73 43.3259V87.355M1012.73 43.3259H968.703M1012.73 87.355V131.384M1012.73 87.355H968.703M1012.73 131.384V175.413M1012.73 131.384H968.703M1012.73 175.413V219.442M1012.73 175.413H968.703M1012.73 219.442V263.472M1012.73 219.442H968.703M1012.73 263.472V307.501M1012.73 263.472H968.703M1012.73 307.501V351.53M1012.73 307.501H968.703M1012.73 351.53V395.559M1012.73 351.53H968.703M1012.73 395.559V439.588M1012.73 395.559H968.703M1012.73 439.588V483.617M1012.73 439.588H968.703M1012.73 483.617V527.646M1012.73 483.617H968.703M1012.73 527.646V571.676M1012.73 527.646H968.703M1012.73 571.676V615.705M1012.73 571.676H968.703M1012.73 615.705V659.734M1012.73 615.705H968.703M1012.73 659.734V703.763M1012.73 659.734H968.703M1012.73 703.763V747.792M1012.73 703.763H968.703M1012.73 747.792H968.703M968.703 -132.791V-88.7615M968.703 -132.791H924.674M968.703 -88.7615V-44.7324M968.703 -88.7615H924.674M968.703 -44.7324V-0.703242M968.703 -44.7324H924.674M968.703 -0.703242V43.3259M968.703 -0.703242H924.674M968.703 43.3259V87.355M968.703 43.3259H924.674M968.703 87.355V131.384M968.703 87.355H924.674M968.703 131.384V175.413M968.703 131.384H924.674M968.703 175.413V219.442M968.703 175.413H924.674M968.703 219.442V263.472M968.703 219.442H924.674M968.703 263.472V307.501M968.703 263.472H924.674M968.703 307.501V351.53M968.703 307.501H924.674M968.703 351.53V395.559M968.703 351.53H924.674M968.703 395.559V439.588M968.703 395.559H924.674M968.703 439.588V483.617M968.703 439.588H924.674M968.703 483.617V527.646M968.703 483.617H924.674M968.703 527.646V571.676M968.703 527.646H924.674M968.703 571.676V615.705M968.703 571.676H924.674M968.703 615.705V659.734M968.703 615.705H924.674M968.703 659.734V703.763M968.703 659.734H924.674M968.703 703.763V747.792M968.703 703.763H924.674M968.703 747.792H924.674M924.674 -132.791V-88.7615M924.674 -132.791H880.645M924.674 -88.7615V-44.7324M924.674 -88.7615H880.645M924.674 -44.7324V-0.703242M924.674 -44.7324H880.645M924.674 -0.703242V43.3259M924.674 -0.703242H880.645M924.674 43.3259V87.355M924.674 43.3259H880.645M924.674 87.355V131.384M924.674 87.355H880.645M924.674 131.384V175.413M924.674 131.384H880.645M924.674 175.413V219.442M924.674 175.413H880.645M924.674 219.442V263.472M924.674 219.442H880.645M924.674 263.472V307.501M924.674 263.472H880.645M924.674 307.501V351.53M924.674 307.501H880.645M924.674 351.53V395.559M924.674 351.53H880.645M924.674 395.559V439.588M924.674 395.559H880.645M924.674 439.588V483.617M924.674 439.588H880.645M924.674 483.617V527.646M924.674 483.617H880.645M924.674 527.646V571.676M924.674 527.646H880.645M924.674 571.676V615.705M924.674 571.676H880.645M924.674 615.705V659.734M924.674 615.705H880.645M924.674 659.734V703.763M924.674 659.734H880.645M924.674 703.763V747.792M924.674 703.763H880.645M924.674 747.792H880.645M880.645 -132.791V-88.7615M880.645 -132.791H836.616M880.645 -88.7615V-44.7324M880.645 -88.7615H836.616M880.645 -44.7324V-0.703242M880.645 -44.7324H836.616M880.645 -0.703242V43.3259M880.645 -0.703242H836.616M880.645 43.3259V87.355M880.645 43.3259H836.616M880.645 87.355V131.384M880.645 87.355H836.616M880.645 131.384V175.413M880.645 131.384H836.616M880.645 175.413V219.442M880.645 175.413H836.616M880.645 219.442V263.472M880.645 219.442H836.616M880.645 263.472V307.501M880.645 263.472H836.616M880.645 307.501V351.53M880.645 307.501H836.616M880.645 351.53V395.559M880.645 351.53H836.616M880.645 395.559V439.588M880.645 395.559H836.616M880.645 439.588V483.617M880.645 439.588H836.616M880.645 483.617V527.646M880.645 483.617H836.616M880.645 527.646V571.676M880.645 527.646H836.616M880.645 571.676V615.705M880.645 571.676H836.616M880.645 615.705V659.734M880.645 615.705H836.616M880.645 659.734V703.763M880.645 659.734H836.616M880.645 703.763V747.792M880.645 703.763H836.616M880.645 747.792H836.616M836.616 -132.791V-88.7615M836.616 -132.791H792.587M836.616 -88.7615V-44.7324M836.616 -88.7615H792.587M836.616 -44.7324V-0.703242M836.616 -44.7324H792.587M836.616 -0.703242V43.3259M836.616 -0.703242H792.587M836.616 43.3259V87.355M836.616 43.3259H792.587M836.616 87.355V131.384M836.616 87.355H792.587M836.616 131.384V175.413M836.616 131.384H792.587M836.616 175.413V219.442M836.616 175.413H792.587M836.616 219.442V263.472M836.616 219.442H792.587M836.616 263.472V307.501M836.616 263.472H792.587M836.616 307.501V351.53M836.616 307.501H792.587M836.616 351.53V395.559M836.616 351.53H792.587M836.616 395.559V439.588M836.616 395.559H792.587M836.616 439.588V483.617M836.616 439.588H792.587M836.616 483.617V527.646M836.616 483.617H792.587M836.616 527.646V571.676M836.616 527.646H792.587M836.616 571.676V615.705M836.616 571.676H792.587M836.616 615.705V659.734M836.616 615.705H792.587M836.616 659.734V703.763M836.616 659.734H792.587M836.616 703.763V747.792M836.616 703.763H792.587M836.616 747.792H792.587M792.587 -132.791V-88.7615M792.587 -132.791H748.558M792.587 -88.7615V-44.7324M792.587 -88.7615H748.558M792.587 -44.7324V-0.703242M792.587 -44.7324H748.558M792.587 -0.703242V43.3259M792.587 -0.703242H748.558M792.587 43.3259V87.355M792.587 43.3259H748.558M792.587 87.355V131.384M792.587 87.355H748.558M792.587 131.384V175.413M792.587 131.384H748.558M792.587 175.413V219.442M792.587 175.413H748.558M792.587 219.442V263.472M792.587 219.442H748.558M792.587 263.472V307.501M792.587 263.472H748.558M792.587 307.501V351.53M792.587 307.501H748.558M792.587 351.53V395.559M792.587 351.53H748.558M792.587 395.559V439.588M792.587 395.559H748.558M792.587 439.588V483.617M792.587 439.588H748.558M792.587 483.617V527.646M792.587 483.617H748.558M792.587 527.646V571.676M792.587 527.646H748.558M792.587 571.676V615.705M792.587 571.676H748.558M792.587 615.705V659.734M792.587 615.705H748.558M792.587 659.734V703.763M792.587 659.734H748.558M792.587 703.763V747.792M792.587 703.763H748.558M792.587 747.792H748.558M748.558 -132.791V-88.7615M748.558 -132.791H704.529M748.558 -88.7615V-44.7324M748.558 -88.7615H704.529M748.558 -44.7324V-0.703242M748.558 -44.7324H704.529M748.558 -0.703242V43.3259M748.558 -0.703242H704.529M748.558 43.3259V87.355M748.558 43.3259H704.529M748.558 87.355V131.384M748.558 87.355H704.529M748.558 131.384V175.413M748.558 131.384H704.529M748.558 175.413V219.442M748.558 175.413H704.529M748.558 219.442V263.472M748.558 219.442H704.529M748.558 263.472V307.501M748.558 263.472H704.529M748.558 307.501V351.53M748.558 307.501H704.529M748.558 351.53V395.559M748.558 351.53H704.529M748.558 395.559V439.588M748.558 395.559H704.529M748.558 439.588V483.617M748.558 439.588H704.529M748.558 483.617V527.646M748.558 483.617H704.529M748.558 527.646V571.676M748.558 527.646H704.529M748.558 571.676V615.705M748.558 571.676H704.529M748.558 615.705V659.734M748.558 615.705H704.529M748.558 659.734V703.763M748.558 659.734H704.529M748.558 703.763V747.792M748.558 703.763H704.529M748.558 747.792H704.529M704.529 -132.791V-88.7615M704.529 -132.791H660.499M704.529 -88.7615V-44.7324M704.529 -88.7615H660.499M704.529 -44.7324V-0.703242M704.529 -44.7324H660.499M704.529 -0.703242V43.3259M704.529 -0.703242H660.499M704.529 43.3259V87.355M704.529 43.3259H660.499M704.529 87.355V131.384M704.529 87.355H660.499M704.529 131.384V175.413M704.529 131.384H660.499M704.529 175.413V219.442M704.529 175.413H660.499M704.529 219.442V263.472M704.529 219.442H660.499M704.529 263.472V307.501M704.529 263.472H660.499M704.529 307.501V351.53M704.529 307.501H660.499M704.529 351.53V395.559M704.529 351.53H660.499M704.529 395.559V439.588M704.529 395.559H660.499M704.529 439.588V483.617M704.529 439.588H660.499M704.529 483.617V527.646M704.529 483.617H660.499M704.529 527.646V571.676M704.529 527.646H660.499M704.529 571.676V615.705M704.529 571.676H660.499M704.529 615.705V659.734M704.529 615.705H660.499M704.529 659.734V703.763M704.529 659.734H660.499M704.529 703.763V747.792M704.529 703.763H660.499M704.529 747.792H660.499M660.499 -132.791V-88.7615M660.499 -132.791H616.47M660.499 -88.7615V-44.7324M660.499 -88.7615H616.47M660.499 -44.7324V-0.703242M660.499 -44.7324H616.47M660.499 -0.703242V43.3259M660.499 -0.703242H616.47M660.499 43.3259V87.355M660.499 43.3259H616.47M660.499 87.355V131.384M660.499 87.355H616.47M660.499 131.384V175.413M660.499 131.384H616.47M660.499 175.413V219.442M660.499 175.413H616.47M660.499 219.442V263.472M660.499 219.442H616.47M660.499 263.472V307.501M660.499 263.472H616.47M660.499 307.501V351.53M660.499 307.501H616.47M660.499 351.53V395.559M660.499 351.53H616.47M660.499 395.559V439.588M660.499 395.559H616.47M660.499 439.588V483.617M660.499 439.588H616.47M660.499 483.617V527.646M660.499 483.617H616.47M660.499 527.646V571.676M660.499 527.646H616.47M660.499 571.676V615.705M660.499 571.676H616.47M660.499 615.705V659.734M660.499 615.705H616.47M660.499 659.734V703.763M660.499 659.734H616.47M660.499 703.763V747.792M660.499 703.763H616.47M660.499 747.792H616.47M616.47 -132.791V-88.7615M616.47 -132.791H572.441M616.47 -88.7615V-44.7324M616.47 -88.7615H572.441M616.47 -44.7324V-0.703242M616.47 -44.7324H572.441M616.47 -0.703242V43.3259M616.47 -0.703242H572.441M616.47 43.3259V87.355M616.47 43.3259H572.441M616.47 87.355V131.384M616.47 87.355H572.441M616.47 131.384V175.413M616.47 131.384H572.441M616.47 175.413V219.442M616.47 175.413H572.441M616.47 219.442V263.472M616.47 219.442H572.441M616.47 263.472V307.501M616.47 263.472H572.441M616.47 307.501V351.53M616.47 307.501H572.441M616.47 351.53V395.559M616.47 351.53H572.441M616.47 395.559V439.588M616.47 395.559H572.441M616.47 439.588V483.617M616.47 439.588H572.441M616.47 483.617V527.646M616.47 483.617H572.441M616.47 527.646V571.676M616.47 527.646H572.441M616.47 571.676V615.705M616.47 571.676H572.441M616.47 615.705V659.734M616.47 615.705H572.441M616.47 659.734V703.763M616.47 659.734H572.441M616.47 703.763V747.792M616.47 703.763H572.441M616.47 747.792H572.441M572.441 -132.791V-88.7615M572.441 -132.791H528.412M572.441 -88.7615V-44.7324M572.441 -88.7615H528.412M572.441 -44.7324V-0.703242M572.441 -44.7324H528.412M572.441 -0.703242V43.3259M572.441 -0.703242H528.412M572.441 43.3259V87.355M572.441 43.3259H528.412M572.441 87.355V131.384M572.441 87.355H528.412M572.441 131.384V175.413M572.441 131.384H528.412M572.441 175.413V219.442M572.441 175.413H528.412M572.441 219.442V263.472M572.441 219.442H528.412M572.441 263.472V307.501M572.441 263.472H528.412M572.441 307.501V351.53M572.441 307.501H528.412M572.441 351.53V395.559M572.441 351.53H528.412M572.441 395.559V439.588M572.441 395.559H528.412M572.441 439.588V483.617M572.441 439.588H528.412M572.441 483.617V527.646M572.441 483.617H528.412M572.441 527.646V571.676M572.441 527.646H528.412M572.441 571.676V615.705M572.441 571.676H528.412M572.441 615.705V659.734M572.441 615.705H528.412M572.441 659.734V703.763M572.441 659.734H528.412M572.441 703.763V747.792M572.441 703.763H528.412M572.441 747.792H528.412M528.412 -132.791V-88.7615M528.412 -132.791H484.383M528.412 -88.7615V-44.7324M528.412 -88.7615H484.383M528.412 -44.7324V-0.703242M528.412 -44.7324H484.383M528.412 -0.703242V43.3259M528.412 -0.703242H484.383M528.412 43.3259V87.355M528.412 43.3259H484.383M528.412 87.355V131.384M528.412 87.355H484.383M528.412 131.384V175.413M528.412 131.384H484.383M528.412 175.413V219.442M528.412 175.413H484.383M528.412 219.442V263.472M528.412 219.442H484.383M528.412 263.472V307.501M528.412 263.472H484.383M528.412 307.501V351.53M528.412 307.501H484.383M528.412 351.53V395.559M528.412 351.53H484.383M528.412 395.559V439.588M528.412 395.559H484.383M528.412 439.588V483.617M528.412 439.588H484.383M528.412 483.617V527.646M528.412 483.617H484.383M528.412 527.646V571.676M528.412 527.646H484.383M528.412 571.676V615.705M528.412 571.676H484.383M528.412 615.705V659.734M528.412 615.705H484.383M528.412 659.734V703.763M528.412 659.734H484.383M528.412 703.763V747.792M528.412 703.763H484.383M528.412 747.792H484.383M484.383 -132.791V-88.7615M484.383 -132.791H440.354M484.383 -88.7615V-44.7324M484.383 -88.7615H440.354M484.383 -44.7324V-0.703242M484.383 -44.7324H440.354M484.383 -0.703242V43.3259M484.383 -0.703242H440.354M484.383 43.3259V87.355M484.383 43.3259H440.354M484.383 87.355V131.384M484.383 87.355H440.354M484.383 131.384V175.413M484.383 131.384H440.354M484.383 175.413V219.442M484.383 175.413H440.354M484.383 219.442V263.472M484.383 219.442H440.354M484.383 263.472V307.501M484.383 263.472H440.354M484.383 307.501V351.53M484.383 307.501H440.354M484.383 351.53V395.559M484.383 351.53H440.354M484.383 395.559V439.588M484.383 395.559H440.354M484.383 439.588V483.617M484.383 439.588H440.354M484.383 483.617V527.646M484.383 483.617H440.354M484.383 527.646V571.676M484.383 527.646H440.354M484.383 571.676V615.705M484.383 571.676H440.354M484.383 615.705V659.734M484.383 615.705H440.354M484.383 659.734V703.763M484.383 659.734H440.354M484.383 703.763V747.792M484.383 703.763H440.354M484.383 747.792H440.354M440.354 -132.791V-88.7615M440.354 -132.791H396.325M440.354 -88.7615V-44.7324M440.354 -88.7615H396.325M440.354 -44.7324V-0.703242M440.354 -44.7324H396.325M440.354 -0.703242V43.3259M440.354 -0.703242H396.325M440.354 43.3259V87.355M440.354 43.3259H396.325M440.354 87.355V131.384M440.354 87.355H396.325M440.354 131.384V175.413M440.354 131.384H396.325M440.354 175.413V219.442M440.354 175.413H396.325M440.354 219.442V263.472M440.354 219.442H396.325M440.354 263.472V307.501M440.354 263.472H396.325M440.354 307.501V351.53M440.354 307.501H396.325M440.354 351.53V395.559M440.354 351.53H396.325M440.354 395.559V439.588M440.354 395.559H396.325M440.354 439.588V483.617M440.354 439.588H396.325M440.354 483.617V527.646M440.354 483.617H396.325M440.354 527.646V571.676M440.354 527.646H396.325M440.354 571.676V615.705M440.354 571.676H396.325M440.354 615.705V659.734M440.354 615.705H396.325M440.354 659.734V703.763M440.354 659.734H396.325M440.354 703.763V747.792M440.354 703.763H396.325M440.354 747.792H396.325M396.325 -132.791V-88.7615M396.325 -132.791H352.295M396.325 -88.7615V-44.7324M396.325 -88.7615H352.295M396.325 -44.7324V-0.703242M396.325 -44.7324H352.295M396.325 -0.703242V43.3259M396.325 -0.703242H352.295M396.325 43.3259V87.355M396.325 43.3259H352.295M396.325 87.355V131.384M396.325 87.355H352.295M396.325 131.384V175.413M396.325 131.384H352.295M396.325 175.413V219.442M396.325 175.413H352.295M396.325 219.442V263.472M396.325 219.442H352.295M396.325 263.472V307.501M396.325 263.472H352.295M396.325 307.501V351.53M396.325 307.501H352.295M396.325 351.53V395.559M396.325 351.53H352.295M396.325 395.559V439.588M396.325 395.559H352.295M396.325 439.588V483.617M396.325 439.588H352.295M396.325 483.617V527.646M396.325 483.617H352.295M396.325 527.646V571.676M396.325 527.646H352.295M396.325 571.676V615.705M396.325 571.676H352.295M396.325 615.705V659.734M396.325 615.705H352.295M396.325 659.734V703.763M396.325 659.734H352.295M396.325 703.763V747.792M396.325 703.763H352.295M396.325 747.792H352.295M352.295 -132.791V-88.7615M352.295 -132.791H308.266M352.295 -88.7615V-44.7324M352.295 -88.7615H308.266M352.295 -44.7324V-0.703242M352.295 -44.7324H308.266M352.295 -0.703242V43.3259M352.295 -0.703242H308.266M352.295 43.3259V87.355M352.295 43.3259H308.266M352.295 87.355V131.384M352.295 87.355H308.266M352.295 131.384V175.413M352.295 131.384H308.266M352.295 175.413V219.442M352.295 175.413H308.266M352.295 219.442V263.472M352.295 219.442H308.266M352.295 263.472V307.501M352.295 263.472H308.266M352.295 307.501V351.53M352.295 307.501H308.266M352.295 351.53V395.559M352.295 351.53H308.266M352.295 395.559V439.588M352.295 395.559H308.266M352.295 439.588V483.617M352.295 439.588H308.266M352.295 483.617V527.646M352.295 483.617H308.266M352.295 527.646V571.676M352.295 527.646H308.266M352.295 571.676V615.705M352.295 571.676H308.266M352.295 615.705V659.734M352.295 615.705H308.266M352.295 659.734V703.763M352.295 659.734H308.266M352.295 703.763V747.792M352.295 703.763H308.266M352.295 747.792H308.266M308.266 -132.791V-88.7615M308.266 -132.791H264.237M308.266 -88.7615V-44.7324M308.266 -88.7615H264.237M308.266 -44.7324V-0.703242M308.266 -44.7324H264.237M308.266 -0.703242V43.3259M308.266 -0.703242H264.237M308.266 43.3259V87.355M308.266 43.3259H264.237M308.266 87.355V131.384M308.266 87.355H264.237M308.266 131.384V175.413M308.266 131.384H264.237M308.266 175.413V219.442M308.266 175.413H264.237M308.266 219.442V263.472M308.266 219.442H264.237M308.266 263.472V307.501M308.266 263.472H264.237M308.266 307.501V351.53M308.266 307.501H264.237M308.266 351.53V395.559M308.266 351.53H264.237M308.266 395.559V439.588M308.266 395.559H264.237M308.266 439.588V483.617M308.266 439.588H264.237M308.266 483.617V527.646M308.266 483.617H264.237M308.266 527.646V571.676M308.266 527.646H264.237M308.266 571.676V615.705M308.266 571.676H264.237M308.266 615.705V659.734M308.266 615.705H264.237M308.266 659.734V703.763M308.266 659.734H264.237M308.266 703.763V747.792M308.266 703.763H264.237M308.266 747.792H264.237M264.237 -132.791V-88.7615M264.237 -132.791H220.208M264.237 -88.7615V-44.7324M264.237 -88.7615H220.208M264.237 -44.7324V-0.703242M264.237 -44.7324H220.208M264.237 -0.703242V43.3259M264.237 -0.703242H220.208M264.237 43.3259V87.355M264.237 43.3259H220.208M264.237 87.355V131.384M264.237 87.355H220.208M264.237 131.384V175.413M264.237 131.384H220.208M264.237 175.413V219.442M264.237 175.413H220.208M264.237 219.442V263.472M264.237 219.442H220.208M264.237 263.472V307.501M264.237 263.472H220.208M264.237 307.501V351.53M264.237 307.501H220.208M264.237 351.53V395.559M264.237 351.53H220.208M264.237 395.559V439.588M264.237 395.559H220.208M264.237 439.588V483.617M264.237 439.588H220.208M264.237 483.617V527.646M264.237 483.617H220.208M264.237 527.646V571.676M264.237 527.646H220.208M264.237 571.676V615.705M264.237 571.676H220.208M264.237 615.705V659.734M264.237 615.705H220.208M264.237 659.734V703.763M264.237 659.734H220.208M264.237 703.763V747.792M264.237 703.763H220.208M264.237 747.792H220.208M220.208 -132.791V-88.7615M220.208 -132.791H176.179M220.208 -88.7615V-44.7324M220.208 -88.7615H176.179M220.208 -44.7324V-0.703242M220.208 -44.7324H176.179M220.208 -0.703242V43.3259M220.208 -0.703242H176.179M220.208 43.3259V87.355M220.208 43.3259H176.179M220.208 87.355V131.384M220.208 87.355H176.179M220.208 131.384V175.413M220.208 131.384H176.179M220.208 175.413V219.442M220.208 175.413H176.179M220.208 219.442V263.472M220.208 219.442H176.179M220.208 263.472V307.501M220.208 263.472H176.179M220.208 307.501V351.53M220.208 307.501H176.179M220.208 351.53V395.559M220.208 351.53H176.179M220.208 395.559V439.588M220.208 395.559H176.179M220.208 439.588V483.617M220.208 439.588H176.179M220.208 483.617V527.646M220.208 483.617H176.179M220.208 527.646V571.676M220.208 527.646H176.179M220.208 571.676V615.705M220.208 571.676H176.179M220.208 615.705V659.734M220.208 615.705H176.179M220.208 659.734V703.763M220.208 659.734H176.179M220.208 703.763V747.792M220.208 703.763H176.179M220.208 747.792H176.179M176.179 -132.791V-88.7615M176.179 -132.791H132.15M176.179 -88.7615V-44.7324M176.179 -88.7615H132.15M176.179 -44.7324V-0.703242M176.179 -44.7324H132.15M176.179 -0.703242V43.3259M176.179 -0.703242H132.15M176.179 43.3259V87.355M176.179 43.3259H132.15M176.179 87.355V131.384M176.179 87.355H132.15M176.179 131.384V175.413M176.179 131.384H132.15M176.179 175.413V219.442M176.179 175.413H132.15M176.179 219.442V263.472M176.179 219.442H132.15M176.179 263.472V307.501M176.179 263.472H132.15M176.179 307.501V351.53M176.179 307.501H132.15M176.179 351.53V395.559M176.179 351.53H132.15M176.179 395.559V439.588M176.179 395.559H132.15M176.179 439.588V483.617M176.179 439.588H132.15M176.179 483.617V527.646M176.179 483.617H132.15M176.179 527.646V571.676M176.179 527.646H132.15M176.179 571.676V615.705M176.179 571.676H132.15M176.179 615.705V659.734M176.179 615.705H132.15M176.179 659.734V703.763M176.179 659.734H132.15M176.179 703.763V747.792M176.179 703.763H132.15M176.179 747.792H132.15M132.15 -132.791V-88.7615M132.15 -132.791H88.1206M132.15 -88.7615V-44.7324M132.15 -88.7615H88.1206M132.15 -44.7324V-0.703242M132.15 -44.7324H88.1206M132.15 -0.703242V43.3259M132.15 -0.703242H88.1206M132.15 43.3259V87.355M132.15 43.3259H88.1206M132.15 87.355V131.384M132.15 87.355H88.1206M132.15 131.384V175.413M132.15 131.384H88.1206M132.15 175.413V219.442M132.15 175.413H88.1206M132.15 219.442V263.472M132.15 219.442H88.1206M132.15 263.472V307.501M132.15 263.472H88.1206M132.15 307.501V351.53M132.15 307.501H88.1206M132.15 351.53V395.559M132.15 351.53H88.1206M132.15 395.559V439.588M132.15 395.559H88.1206M132.15 439.588V483.617M132.15 439.588H88.1206M132.15 483.617V527.646M132.15 483.617H88.1206M132.15 527.646V571.676M132.15 527.646H88.1206M132.15 571.676V615.705M132.15 571.676H88.1206M132.15 615.705V659.734M132.15 615.705H88.1206M132.15 659.734V703.763M132.15 659.734H88.1206M132.15 703.763V747.792M132.15 703.763H88.1206M132.15 747.792H88.1206M88.1206 -132.791V-88.7615M88.1206 -132.791H44.0914M88.1206 -88.7615V-44.7324M88.1206 -88.7615H44.0914M88.1206 -44.7324V-0.703242M88.1206 -44.7324H44.0914M88.1206 -0.703242V43.3259M88.1206 -0.703242H44.0914M88.1206 43.3259V87.355M88.1206 43.3259H44.0914M88.1206 87.355V131.384M88.1206 87.355H44.0914M88.1206 131.384V175.413M88.1206 131.384H44.0914M88.1206 175.413V219.442M88.1206 175.413H44.0914M88.1206 219.442V263.472M88.1206 219.442H44.0914M88.1206 263.472V307.501M88.1206 263.472H44.0914M88.1206 307.501V351.53M88.1206 307.501H44.0914M88.1206 351.53V395.559M88.1206 351.53H44.0914M88.1206 395.559V439.588M88.1206 395.559H44.0914M88.1206 439.588V483.617M88.1206 439.588H44.0914M88.1206 483.617V527.646M88.1206 483.617H44.0914M88.1206 527.646V571.676M88.1206 527.646H44.0914M88.1206 571.676V615.705M88.1206 571.676H44.0914M88.1206 615.705V659.734M88.1206 615.705H44.0914M88.1206 659.734V703.763M88.1206 659.734H44.0914M88.1206 703.763V747.792M88.1206 703.763H44.0914M88.1206 747.792H44.0914M44.0914 -132.791V-88.7615M44.0914 -132.791H0.0622625M44.0914 -88.7615V-44.7324M44.0914 -88.7615H0.0622625M44.0914 -44.7324V-0.703242M44.0914 -44.7324H0.0622625M44.0914 -0.703242V43.3259M44.0914 -0.703242H0.0622625M44.0914 43.3259V87.355M44.0914 43.3259H0.0622625M44.0914 87.355V131.384M44.0914 87.355H0.0622625M44.0914 131.384V175.413M44.0914 131.384H0.0622625M44.0914 175.413V219.442M44.0914 175.413H0.0622625M44.0914 219.442V263.472M44.0914 219.442H0.0622625M44.0914 263.472V307.501M44.0914 263.472H0.0622625M44.0914 307.501V351.53M44.0914 307.501H0.0622625M44.0914 351.53V395.559M44.0914 351.53H0.0622625M44.0914 395.559V439.588M44.0914 395.559H0.0622625M44.0914 439.588V483.617M44.0914 439.588H0.0622625M44.0914 483.617V527.646M44.0914 483.617H0.0622625M44.0914 527.646V571.676M44.0914 527.646H0.0622625M44.0914 571.676V615.705M44.0914 571.676H0.0622625M44.0914 615.705V659.734M44.0914 615.705H0.0622625M44.0914 659.734V703.763M44.0914 659.734H0.0622625M44.0914 703.763V747.792M44.0914 703.763H0.0622625M44.0914 747.792H0.0622625M0.0622625 -132.791V-88.7615M0.0622625 -132.791H-43.9669M0.0622625 -88.7615V-44.7324M0.0622625 -88.7615H-43.9669M0.0622625 -44.7324V-0.703242M0.0622625 -44.7324H-43.9669M0.0622625 -0.703242V43.3259M0.0622625 -0.703242H-43.9669M0.0622625 43.3259V87.355M0.0622625 43.3259H-43.9669M0.0622625 87.355V131.384M0.0622625 87.355H-43.9669M0.0622625 131.384V175.413M0.0622625 131.384H-43.9669M0.0622625 175.413V219.442M0.0622625 175.413H-43.9669M0.0622625 219.442V263.472M0.0622625 219.442H-43.9669M0.0622625 263.472V307.501M0.0622625 263.472H-43.9669M0.0622625 307.501V351.53M0.0622625 307.501H-43.9669M0.0622625 351.53V395.559M0.0622625 351.53H-43.9669M0.0622625 395.559V439.588M0.0622625 395.559H-43.9669M0.0622625 439.588V483.617M0.0622625 439.588H-43.9669M0.0622625 483.617V527.646M0.0622625 483.617H-43.9669M0.0622625 527.646V571.676M0.0622625 527.646H-43.9669M0.0622625 571.676V615.705M0.0622625 571.676H-43.9669M0.0622625 615.705V659.734M0.0622625 615.705H-43.9669M0.0622625 659.734V703.763M0.0622625 659.734H-43.9669M0.0622625 703.763V747.792M0.0622625 703.763H-43.9669M0.0622625 747.792H-43.9669M-43.9669 -132.791V-88.7615M-43.9669 -132.791H-87.996M-43.9669 -88.7615V-44.7324M-43.9669 -88.7615H-87.996M-43.9669 -44.7324V-0.703242M-43.9669 -44.7324H-87.996M-43.9669 -0.703242V43.3259M-43.9669 -0.703242H-87.996M-43.9669 43.3259V87.355M-43.9669 43.3259H-87.996M-43.9669 87.355V131.384M-43.9669 87.355H-87.996M-43.9669 131.384V175.413M-43.9669 131.384H-87.996M-43.9669 175.413V219.442M-43.9669 175.413H-87.996M-43.9669 219.442V263.472M-43.9669 219.442H-87.996M-43.9669 263.472V307.501M-43.9669 263.472H-87.996M-43.9669 307.501V351.53M-43.9669 307.501H-87.996M-43.9669 351.53V395.559M-43.9669 351.53H-87.996M-43.9669 395.559V439.588M-43.9669 395.559H-87.996M-43.9669 439.588V483.617M-43.9669 439.588H-87.996M-43.9669 483.617V527.646M-43.9669 483.617H-87.996M-43.9669 527.646V571.676M-43.9669 527.646H-87.996M-43.9669 571.676V615.705M-43.9669 571.676H-87.996M-43.9669 615.705V659.734M-43.9669 615.705H-87.996M-43.9669 659.734V703.763M-43.9669 659.734H-87.996M-43.9669 703.763V747.792M-43.9669 703.763H-87.996M-43.9669 747.792H-87.996M-87.996 -132.791V-88.7615M-87.996 -132.791H-132.025M-87.996 -88.7615V-44.7324M-87.996 -88.7615H-132.025M-87.996 -44.7324V-0.703242M-87.996 -44.7324H-132.025M-87.996 -0.703242V43.3259M-87.996 -0.703242H-132.025M-87.996 43.3259V87.355M-87.996 43.3259H-132.025M-87.996 87.355V131.384M-87.996 87.355H-132.025M-87.996 131.384V175.413M-87.996 131.384H-132.025M-87.996 175.413V219.442M-87.996 175.413H-132.025M-87.996 219.442V263.472M-87.996 219.442H-132.025M-87.996 263.472V307.501M-87.996 263.472H-132.025M-87.996 307.501V351.53M-87.996 307.501H-132.025M-87.996 351.53V395.559M-87.996 351.53H-132.025M-87.996 395.559V439.588M-87.996 395.559H-132.025M-87.996 439.588V483.617M-87.996 439.588H-132.025M-87.996 483.617V527.646M-87.996 483.617H-132.025M-87.996 527.646V571.676M-87.996 527.646H-132.025M-87.996 571.676V615.705M-87.996 571.676H-132.025M-87.996 615.705V659.734M-87.996 615.705H-132.025M-87.996 659.734V703.763M-87.996 659.734H-132.025M-87.996 703.763V747.792M-87.996 703.763H-132.025M-87.996 747.792H-132.025M-132.025 -132.791V-88.7615M-132.025 -132.791H-176.054M-132.025 -88.7615V-44.7324M-132.025 -88.7615H-176.054M-132.025 -44.7324V-0.703242M-132.025 -44.7324H-176.054M-132.025 -0.703242V43.3259M-132.025 -0.703242H-176.054M-132.025 43.3259V87.355M-132.025 43.3259H-176.054M-132.025 87.355V131.384M-132.025 87.355H-176.054M-132.025 131.384V175.413M-132.025 131.384H-176.054M-132.025 175.413V219.442M-132.025 175.413H-176.054M-132.025 219.442V263.472M-132.025 219.442H-176.054M-132.025 263.472V307.501M-132.025 263.472H-176.054M-132.025 307.501V351.53M-132.025 307.501H-176.054M-132.025 351.53V395.559M-132.025 351.53H-176.054M-132.025 395.559V439.588M-132.025 395.559H-176.054M-132.025 439.588V483.617M-132.025 439.588H-176.054M-132.025 483.617V527.646M-132.025 483.617H-176.054M-132.025 527.646V571.676M-132.025 527.646H-176.054M-132.025 571.676V615.705M-132.025 571.676H-176.054M-132.025 615.705V659.734M-132.025 615.705H-176.054M-132.025 659.734V703.763M-132.025 659.734H-176.054M-132.025 703.763V747.792M-132.025 703.763H-176.054M-132.025 747.792H-176.054M-176.054 -132.791V-88.7615M-176.054 -132.791H-220.083M-176.054 -88.7615V-44.7324M-176.054 -88.7615H-220.083M-176.054 -44.7324V-0.703242M-176.054 -44.7324H-220.083M-176.054 -0.703242V43.3259M-176.054 -0.703242H-220.083M-176.054 43.3259V87.355M-176.054 43.3259H-220.083M-176.054 87.355V131.384M-176.054 87.355H-220.083M-176.054 131.384V175.413M-176.054 131.384H-220.083M-176.054 175.413V219.442M-176.054 175.413H-220.083M-176.054 219.442V263.472M-176.054 219.442H-220.083M-176.054 263.472V307.501M-176.054 263.472H-220.083M-176.054 307.501V351.53M-176.054 307.501H-220.083M-176.054 351.53V395.559M-176.054 351.53H-220.083M-176.054 395.559V439.588M-176.054 395.559H-220.083M-176.054 439.588V483.617M-176.054 439.588H-220.083M-176.054 483.617V527.646M-176.054 483.617H-220.083M-176.054 527.646V571.676M-176.054 527.646H-220.083M-176.054 571.676V615.705M-176.054 571.676H-220.083M-176.054 615.705V659.734M-176.054 615.705H-220.083M-176.054 659.734V703.763M-176.054 659.734H-220.083M-176.054 703.763V747.792M-176.054 703.763H-220.083M-176.054 747.792H-220.083M-220.083 -132.791V-88.7615M-220.083 -132.791H-264.113M-220.083 -88.7615V-44.7324M-220.083 -88.7615H-264.113M-220.083 -44.7324V-0.703242M-220.083 -44.7324H-264.113M-220.083 -0.703242V43.3259M-220.083 -0.703242H-264.113M-220.083 43.3259V87.355M-220.083 43.3259H-264.113M-220.083 87.355V131.384M-220.083 87.355H-264.113M-220.083 131.384V175.413M-220.083 131.384H-264.113M-220.083 175.413V219.442M-220.083 175.413H-264.113M-220.083 219.442V263.472M-220.083 219.442H-264.113M-220.083 263.472V307.501M-220.083 263.472H-264.113M-220.083 307.501V351.53M-220.083 307.501H-264.113M-220.083 351.53V395.559M-220.083 351.53H-264.113M-220.083 395.559V439.588M-220.083 395.559H-264.113M-220.083 439.588V483.617M-220.083 439.588H-264.113M-220.083 483.617V527.646M-220.083 483.617H-264.113M-220.083 527.646V571.676M-220.083 527.646H-264.113M-220.083 571.676V615.705M-220.083 571.676H-264.113M-220.083 615.705V659.734M-220.083 615.705H-264.113M-220.083 659.734V703.763M-220.083 659.734H-264.113M-220.083 703.763V747.792M-220.083 703.763H-264.113M-220.083 747.792H-264.113M-264.113 -132.791V-88.7615M-264.113 -132.791H-308.142M-264.113 -88.7615V-44.7324M-264.113 -88.7615H-308.142M-264.113 -44.7324V-0.703242M-264.113 -44.7324H-308.142M-264.113 -0.703242V43.3259M-264.113 -0.703242H-308.142M-264.113 43.3259V87.355M-264.113 43.3259H-308.142M-264.113 87.355V131.384M-264.113 87.355H-308.142M-264.113 131.384V175.413M-264.113 131.384H-308.142M-264.113 175.413V219.442M-264.113 175.413H-308.142M-264.113 219.442V263.472M-264.113 219.442H-308.142M-264.113 263.472V307.501M-264.113 263.472H-308.142M-264.113 307.501V351.53M-264.113 307.501H-308.142M-264.113 351.53V395.559M-264.113 351.53H-308.142M-264.113 395.559V439.588M-264.113 395.559H-308.142M-264.113 439.588V483.617M-264.113 439.588H-308.142M-264.113 483.617V527.646M-264.113 483.617H-308.142M-264.113 527.646V571.676M-264.113 527.646H-308.142M-264.113 571.676V615.705M-264.113 571.676H-308.142M-264.113 615.705V659.734M-264.113 615.705H-308.142M-264.113 659.734V703.763M-264.113 659.734H-308.142M-264.113 703.763V747.792M-264.113 703.763H-308.142M-264.113 747.792H-308.142M-308.142 -132.791V-88.7615M-308.142 -132.791H-352.171M-308.142 -88.7615V-44.7324M-308.142 -88.7615H-352.171M-308.142 -44.7324V-0.703242M-308.142 -44.7324H-352.171M-308.142 -0.703242V43.3259M-308.142 -0.703242H-352.171M-308.142 43.3259V87.355M-308.142 43.3259H-352.171M-308.142 87.355V131.384M-308.142 87.355H-352.171M-308.142 131.384V175.413M-308.142 131.384H-352.171M-308.142 175.413V219.442M-308.142 175.413H-352.171M-308.142 219.442V263.472M-308.142 219.442H-352.171M-308.142 263.472V307.501M-308.142 263.472H-352.171M-308.142 307.501V351.53M-308.142 307.501H-352.171M-308.142 351.53V395.559M-308.142 351.53H-352.171M-308.142 395.559V439.588M-308.142 395.559H-352.171M-308.142 439.588V483.617M-308.142 439.588H-352.171M-308.142 483.617V527.646M-308.142 483.617H-352.171M-308.142 527.646V571.676M-308.142 527.646H-352.171M-308.142 571.676V615.705M-308.142 571.676H-352.171M-308.142 615.705V659.734M-308.142 615.705H-352.171M-308.142 659.734V703.763M-308.142 659.734H-352.171M-308.142 703.763V747.792M-308.142 703.763H-352.171M-308.142 747.792H-352.171M-352.171 -132.791V-88.7615M-352.171 -132.791H-396.2M-352.171 -88.7615V-44.7324M-352.171 -88.7615H-396.2M-352.171 -44.7324V-0.703242M-352.171 -44.7324H-396.2M-352.171 -0.703242V43.3259M-352.171 -0.703242H-396.2M-352.171 43.3259V87.355M-352.171 43.3259H-396.2M-352.171 87.355V131.384M-352.171 87.355H-396.2M-352.171 131.384V175.413M-352.171 131.384H-396.2M-352.171 175.413V219.442M-352.171 175.413H-396.2M-352.171 219.442V263.472M-352.171 219.442H-396.2M-352.171 263.472V307.501M-352.171 263.472H-396.2M-352.171 307.501V351.53M-352.171 307.501H-396.2M-352.171 351.53V395.559M-352.171 351.53H-396.2M-352.171 395.559V439.588M-352.171 395.559H-396.2M-352.171 439.588V483.617M-352.171 439.588H-396.2M-352.171 483.617V527.646M-352.171 483.617H-396.2M-352.171 527.646V571.676M-352.171 527.646H-396.2M-352.171 571.676V615.705M-352.171 571.676H-396.2M-352.171 615.705V659.734M-352.171 615.705H-396.2M-352.171 659.734V703.763M-352.171 659.734H-396.2M-352.171 703.763V747.792M-352.171 703.763H-396.2M-352.171 747.792H-396.2M-396.2 -132.791V-88.7615M-396.2 -132.791H-440.229M-396.2 -88.7615V-44.7324M-396.2 -88.7615H-440.229M-396.2 -44.7324V-0.703242M-396.2 -44.7324H-440.229M-396.2 -0.703242V43.3259M-396.2 -0.703242H-440.229M-396.2 43.3259V87.355M-396.2 43.3259H-440.229M-396.2 87.355V131.384M-396.2 87.355H-440.229M-396.2 131.384V175.413M-396.2 131.384H-440.229M-396.2 175.413V219.442M-396.2 175.413H-440.229M-396.2 219.442V263.472M-396.2 219.442H-440.229M-396.2 263.472V307.501M-396.2 263.472H-440.229M-396.2 307.501V351.53M-396.2 307.501H-440.229M-396.2 351.53V395.559M-396.2 351.53H-440.229M-396.2 395.559V439.588M-396.2 395.559H-440.229M-396.2 439.588V483.617M-396.2 439.588H-440.229M-396.2 483.617V527.646M-396.2 483.617H-440.229M-396.2 527.646V571.676M-396.2 527.646H-440.229M-396.2 571.676V615.705M-396.2 571.676H-440.229M-396.2 615.705V659.734M-396.2 615.705H-440.229M-396.2 659.734V703.763M-396.2 659.734H-440.229M-396.2 703.763V747.792M-396.2 703.763H-440.229M-396.2 747.792H-440.229M-440.229 -132.791V-88.7615M-440.229 -132.791H-484.258M-440.229 -88.7615V-44.7324M-440.229 -88.7615H-484.258M-440.229 -44.7324V-0.703242M-440.229 -44.7324H-484.258M-440.229 -0.703242V43.3259M-440.229 -0.703242H-484.258M-440.229 43.3259V87.355M-440.229 43.3259H-484.258M-440.229 87.355V131.384M-440.229 87.355H-484.258M-440.229 131.384V175.413M-440.229 131.384H-484.258M-440.229 175.413V219.442M-440.229 175.413H-484.258M-440.229 219.442V263.472M-440.229 219.442H-484.258M-440.229 263.472V307.501M-440.229 263.472H-484.258M-440.229 307.501V351.53M-440.229 307.501H-484.258M-440.229 351.53V395.559M-440.229 351.53H-484.258M-440.229 395.559V439.588M-440.229 395.559H-484.258M-440.229 439.588V483.617M-440.229 439.588H-484.258M-440.229 483.617V527.646M-440.229 483.617H-484.258M-440.229 527.646V571.676M-440.229 527.646H-484.258M-440.229 571.676V615.705M-440.229 571.676H-484.258M-440.229 615.705V659.734M-440.229 615.705H-484.258M-440.229 659.734V703.763M-440.229 659.734H-484.258M-440.229 703.763V747.792M-440.229 703.763H-484.258M-440.229 747.792H-484.258M-484.258 -132.791V-88.7615M-484.258 -132.791H-528.287M-484.258 -88.7615V-44.7324M-484.258 -88.7615H-528.287M-484.258 -44.7324V-0.703242M-484.258 -44.7324H-528.287M-484.258 -0.703242V43.3259M-484.258 -0.703242H-528.287M-484.258 43.3259V87.355M-484.258 43.3259H-528.287M-484.258 87.355V131.384M-484.258 87.355H-528.287M-484.258 131.384V175.413M-484.258 131.384H-528.287M-484.258 175.413V219.442M-484.258 175.413H-528.287M-484.258 219.442V263.472M-484.258 219.442H-528.287M-484.258 263.472V307.501M-484.258 263.472H-528.287M-484.258 307.501V351.53M-484.258 307.501H-528.287M-484.258 351.53V395.559M-484.258 351.53H-528.287M-484.258 395.559V439.588M-484.258 395.559H-528.287M-484.258 439.588V483.617M-484.258 439.588H-528.287M-484.258 483.617V527.646M-484.258 483.617H-528.287M-484.258 527.646V571.676M-484.258 527.646H-528.287M-484.258 571.676V615.705M-484.258 571.676H-528.287M-484.258 615.705V659.734M-484.258 615.705H-528.287M-484.258 659.734V703.763M-484.258 659.734H-528.287M-484.258 703.763V747.792M-484.258 703.763H-528.287M-484.258 747.792H-528.287M-528.287 -132.791V-88.7615M-528.287 -132.791H-572.317M-528.287 -88.7615V-44.7324M-528.287 -88.7615H-572.317M-528.287 -44.7324V-0.703242M-528.287 -44.7324H-572.317M-528.287 -0.703242V43.3259M-528.287 -0.703242H-572.317M-528.287 43.3259V87.355M-528.287 43.3259H-572.317M-528.287 87.355V131.384M-528.287 87.355H-572.317M-528.287 131.384V175.413M-528.287 131.384H-572.317M-528.287 175.413V219.442M-528.287 175.413H-572.317M-528.287 219.442V263.472M-528.287 219.442H-572.317M-528.287 263.472V307.501M-528.287 263.472H-572.317M-528.287 307.501V351.53M-528.287 307.501H-572.317M-528.287 351.53V395.559M-528.287 351.53H-572.317M-528.287 395.559V439.588M-528.287 395.559H-572.317M-528.287 439.588V483.617M-528.287 439.588H-572.317M-528.287 483.617V527.646M-528.287 483.617H-572.317M-528.287 527.646V571.676M-528.287 527.646H-572.317M-528.287 571.676V615.705M-528.287 571.676H-572.317M-528.287 615.705V659.734M-528.287 615.705H-572.317M-528.287 659.734V703.763M-528.287 659.734H-572.317M-528.287 703.763V747.792M-528.287 703.763H-572.317M-528.287 747.792H-572.317M-572.317 -132.791V-88.7615M-572.317 -132.791H-616.346M-572.317 -88.7615V-44.7324M-572.317 -88.7615H-616.346M-572.317 -44.7324V-0.703242M-572.317 -44.7324H-616.346M-572.317 -0.703242V43.3259M-572.317 -0.703242H-616.346M-572.317 43.3259V87.355M-572.317 43.3259H-616.346M-572.317 87.355V131.384M-572.317 87.355H-616.346M-572.317 131.384V175.413M-572.317 131.384H-616.346M-572.317 175.413V219.442M-572.317 175.413H-616.346M-572.317 219.442V263.472M-572.317 219.442H-616.346M-572.317 263.472V307.501M-572.317 263.472H-616.346M-572.317 307.501V351.53M-572.317 307.501H-616.346M-572.317 351.53V395.559M-572.317 351.53H-616.346M-572.317 395.559V439.588M-572.317 395.559H-616.346M-572.317 439.588V483.617M-572.317 439.588H-616.346M-572.317 483.617V527.646M-572.317 483.617H-616.346M-572.317 527.646V571.676M-572.317 527.646H-616.346M-572.317 571.676V615.705M-572.317 571.676H-616.346M-572.317 615.705V659.734M-572.317 615.705H-616.346M-572.317 659.734V703.763M-572.317 659.734H-616.346M-572.317 703.763V747.792M-572.317 703.763H-616.346M-572.317 747.792H-616.346M-616.346 -132.791V-88.7615M-616.346 -132.791H-660.375M-616.346 -88.7615V-44.7324M-616.346 -88.7615H-660.375M-616.346 -44.7324V-0.703242M-616.346 -44.7324H-660.375M-616.346 -0.703242V43.3259M-616.346 -0.703242H-660.375M-616.346 43.3259V87.355M-616.346 43.3259H-660.375M-616.346 87.355V131.384M-616.346 87.355H-660.375M-616.346 131.384V175.413M-616.346 131.384H-660.375M-616.346 175.413V219.442M-616.346 175.413H-660.375M-616.346 219.442V263.472M-616.346 219.442H-660.375M-616.346 263.472V307.501M-616.346 263.472H-660.375M-616.346 307.501V351.53M-616.346 307.501H-660.375M-616.346 351.53V395.559M-616.346 351.53H-660.375M-616.346 395.559V439.588M-616.346 395.559H-660.375M-616.346 439.588V483.617M-616.346 439.588H-660.375M-616.346 483.617V527.646M-616.346 483.617H-660.375M-616.346 527.646V571.676M-616.346 527.646H-660.375M-616.346 571.676V615.705M-616.346 571.676H-660.375M-616.346 615.705V659.734M-616.346 615.705H-660.375M-616.346 659.734V703.763M-616.346 659.734H-660.375M-616.346 703.763V747.792M-616.346 703.763H-660.375M-616.346 747.792H-660.375M-660.375 -132.791V-88.7615M-660.375 -132.791H-704.404M-660.375 -88.7615V-44.7324M-660.375 -88.7615H-704.404M-660.375 -44.7324V-0.703242M-660.375 -44.7324H-704.404M-660.375 -0.703242V43.3259M-660.375 -0.703242H-704.404M-660.375 43.3259V87.355M-660.375 43.3259H-704.404M-660.375 87.355V131.384M-660.375 87.355H-704.404M-660.375 131.384V175.413M-660.375 131.384H-704.404M-660.375 175.413V219.442M-660.375 175.413H-704.404M-660.375 219.442V263.472M-660.375 219.442H-704.404M-660.375 263.472V307.501M-660.375 263.472H-704.404M-660.375 307.501V351.53M-660.375 307.501H-704.404M-660.375 351.53V395.559M-660.375 351.53H-704.404M-660.375 395.559V439.588M-660.375 395.559H-704.404M-660.375 439.588V483.617M-660.375 439.588H-704.404M-660.375 483.617V527.646M-660.375 483.617H-704.404M-660.375 527.646V571.676M-660.375 527.646H-704.404M-660.375 571.676V615.705M-660.375 571.676H-704.404M-660.375 615.705V659.734M-660.375 615.705H-704.404M-660.375 659.734V703.763M-660.375 659.734H-704.404M-660.375 703.763V747.792M-660.375 703.763H-704.404M-660.375 747.792H-704.404M-704.404 -132.791V-88.7615M-704.404 -132.791H-748.433M-704.404 -88.7615V-44.7324M-704.404 -88.7615H-748.433M-704.404 -44.7324V-0.703242M-704.404 -44.7324H-748.433M-704.404 -0.703242V43.3259M-704.404 -0.703242H-748.433M-704.404 43.3259V87.355M-704.404 43.3259H-748.433M-704.404 87.355V131.384M-704.404 87.355H-748.433M-704.404 131.384V175.413M-704.404 131.384H-748.433M-704.404 175.413V219.442M-704.404 175.413H-748.433M-704.404 219.442V263.472M-704.404 219.442H-748.433M-704.404 263.472V307.501M-704.404 263.472H-748.433M-704.404 307.501V351.53M-704.404 307.501H-748.433M-704.404 351.53V395.559M-704.404 351.53H-748.433M-704.404 395.559V439.588M-704.404 395.559H-748.433M-704.404 439.588V483.617M-704.404 439.588H-748.433M-704.404 483.617V527.646M-704.404 483.617H-748.433M-704.404 527.646V571.676M-704.404 527.646H-748.433M-704.404 571.676V615.705M-704.404 571.676H-748.433M-704.404 615.705V659.734M-704.404 615.705H-748.433M-704.404 659.734V703.763M-704.404 659.734H-748.433M-704.404 703.763V747.792M-704.404 703.763H-748.433M-704.404 747.792H-748.433M-748.433 -132.791V-88.7615M-748.433 -132.791H-792.462M-748.433 -88.7615V-44.7324M-748.433 -88.7615H-792.462M-748.433 -44.7324V-0.703242M-748.433 -44.7324H-792.462M-748.433 -0.703242V43.3259M-748.433 -0.703242H-792.462M-748.433 43.3259V87.355M-748.433 43.3259H-792.462M-748.433 87.355V131.384M-748.433 87.355H-792.462M-748.433 131.384V175.413M-748.433 131.384H-792.462M-748.433 175.413V219.442M-748.433 175.413H-792.462M-748.433 219.442V263.472M-748.433 219.442H-792.462M-748.433 263.472V307.501M-748.433 263.472H-792.462M-748.433 307.501V351.53M-748.433 307.501H-792.462M-748.433 351.53V395.559M-748.433 351.53H-792.462M-748.433 395.559V439.588M-748.433 395.559H-792.462M-748.433 439.588V483.617M-748.433 439.588H-792.462M-748.433 483.617V527.646M-748.433 483.617H-792.462M-748.433 527.646V571.676M-748.433 527.646H-792.462M-748.433 571.676V615.705M-748.433 571.676H-792.462M-748.433 615.705V659.734M-748.433 615.705H-792.462M-748.433 659.734V703.763M-748.433 659.734H-792.462M-748.433 703.763V747.792M-748.433 703.763H-792.462M-748.433 747.792H-792.462M-792.462 -132.791V-88.7615M-792.462 -132.791H-836.491V-88.7615M-792.462 -88.7615V-44.7324M-792.462 -88.7615H-836.491M-792.462 -44.7324V-0.703242M-792.462 -44.7324H-836.491M-792.462 -0.703242V43.3259M-792.462 -0.703242H-836.491M-792.462 43.3259V87.355M-792.462 43.3259H-836.491M-792.462 87.355V131.384M-792.462 87.355H-836.491M-792.462 131.384V175.413M-792.462 131.384H-836.491M-792.462 175.413V219.442M-792.462 175.413H-836.491M-792.462 219.442V263.472M-792.462 219.442H-836.491M-792.462 263.472V307.501M-792.462 263.472H-836.491M-792.462 307.501V351.53M-792.462 307.501H-836.491M-792.462 351.53V395.559M-792.462 351.53H-836.491M-792.462 395.559V439.588M-792.462 395.559H-836.491M-792.462 439.588V483.617M-792.462 439.588H-836.491M-792.462 483.617V527.646M-792.462 483.617H-836.491M-792.462 527.646V571.676M-792.462 527.646H-836.491M-792.462 571.676V615.705M-792.462 571.676H-836.491M-792.462 615.705V659.734M-792.462 615.705H-836.491M-792.462 659.734V703.763M-792.462 659.734H-836.491M-792.462 703.763V747.792M-792.462 703.763H-836.491M-792.462 747.792H-836.491V703.763M-836.491 -88.7615V-44.7324M-836.491 -44.7324V-0.703242M-836.491 -0.703242V43.3259M-836.491 43.3259V87.355M-836.491 87.355V131.384M-836.491 131.384V175.413M-836.491 175.413V219.442M-836.491 219.442V263.472M-836.491 263.472V307.501M-836.491 307.501V351.53M-836.491 351.53V395.559M-836.491 395.559V439.588M-836.491 439.588V483.617M-836.491 483.617V527.646M-836.491 527.646V571.676M-836.491 571.676V615.705M-836.491 615.705V659.734M-836.491 659.734V703.763" stroke="url(#paint1_radial_1337_6222)" stroke-width="0.8"/>
</g>
</g>
<path d="M0 0H-1V-1H0V0ZM1440 1H0V-1H1440V1ZM1 0V764H-1V0H1Z" fill="url(#paint2_linear_1337_6222)" fill-opacity="0.24" mask="url(#path-1-inside-1_1337_6222)"/>
<defs>
<radialGradient id="paint0_radial_1337_6222" cx="0" cy="0" r="1" gradientUnits="userSpaceOnUse" gradientTransform="translate(132.15 307.5) rotate(90) scale(453.5 792.861)">
<stop offset="0.665789" stop-color="white"/>
<stop offset="1" stop-color="white" stop-opacity="0.2"/>
</radialGradient>
<radialGradient id="paint1_radial_1337_6222" cx="0" cy="0" r="1" gradientUnits="userSpaceOnUse" gradientTransform="translate(132.15 279.342) rotate(90) scale(497.408 883.664)">
<stop offset="0.665789" stop-color="white"/>
<stop offset="1" stop-color="white" stop-opacity="0.2"/>
</radialGradient>
<linearGradient id="paint2_linear_1337_6222" x1="-363.5" y1="-249.5" x2="291" y2="180" gradientUnits="userSpaceOnUse">
<stop stop-color="white"/>
<stop offset="1" stop-color="white" stop-opacity="0"/>
</linearGradient>
<clipPath id="clip0_1337_6222">
<path d="M1440 0H0V764H1440V0Z" fill="white"/>
</clipPath>
</defs>
</svg>
