<svg width="1440" height="764" viewBox="0 0 1440 764" fill="none" xmlns="http://www.w3.org/2000/svg">
<g clip-path="url(#clip0_1318_6452)">
<g style="mix-blend-mode:soft-light" opacity="0.64">
<path d="M515.325 30.1164V43.3252M515.325 43.3252V56.5339M515.325 43.3252H502.117M515.325 43.3252H528.534M515.325 382.35V395.558M515.325 395.558V408.767M515.325 395.558H502.117M515.325 395.558H528.534M515.325 734.582V747.791M515.325 747.791V761M515.325 747.791H502.117M515.325 747.791H528.534M867.559 30.1164V43.3252M867.559 43.3252V56.5339M867.559 43.3252H854.35M867.559 43.3252H880.767M867.559 382.35V395.558M867.559 395.558V408.767M867.559 395.558H854.35M867.559 395.558H880.767M867.559 734.582V747.791M867.559 747.791V761M867.559 747.791H854.35M867.559 747.791H880.767M1219.79 30.1164V43.3252M1219.79 43.3252V56.5339M1219.79 43.3252H1206.58M1219.79 43.3252H1233M1219.79 382.35V395.558M1219.79 395.558V408.767M1219.79 395.558H1206.58M1219.79 395.558H1233M1219.79 734.582V747.791M1219.79 747.791V761M1219.79 747.791H1206.58M1219.79 747.791H1233M1572.02 30.1164V43.3252M1572.02 43.3252V56.5339M1572.02 43.3252H1558.82M1572.02 43.3252H1585.23M1572.02 382.35V395.558M1572.02 395.558V408.767M1572.02 395.558H1558.82M1572.02 395.558H1585.23M1572.02 734.582V747.791M1572.02 747.791V761M1572.02 747.791H1558.82M1572.02 747.791H1585.23M1924.26 30.1164V43.3252M1924.26 43.3252V56.5339M1924.26 43.3252H1911.05M1924.26 43.3252H1937.47M1924.26 382.35V395.558M1924.26 395.558V408.767M1924.26 395.558H1911.05M1924.26 395.558H1937.47M1924.26 734.582V747.791M1924.26 747.791V761M1924.26 747.791H1911.05M1924.26 747.791H1937.47M2276.49 30.1164V43.3252M2276.49 43.3252V56.5339M2276.49 43.3252H2263.28M2276.49 43.3252H2289.7M2276.49 382.35V395.558M2276.49 395.558V408.767M2276.49 395.558H2263.28M2276.49 395.558H2289.7M2276.49 734.582V747.791M2276.49 747.791V761M2276.49 747.791H2263.28M2276.49 747.791H2289.7M515.325 -146V-132.791M515.325 -132.791V-119.583M515.325 -132.791H502.117M515.325 -132.791H528.534M515.325 206.233V219.442M515.325 219.442V232.651M515.325 219.442H502.117M515.325 219.442H528.534M515.325 558.466V571.675M515.325 571.675V584.883M515.325 571.675H502.117M515.325 571.675H528.534M867.559 -146V-132.791M867.559 -132.791V-119.583M867.559 -132.791H854.35M867.559 -132.791H880.767M867.559 206.233V219.442M867.559 219.442V232.651M867.559 219.442H854.35M867.559 219.442H880.767M867.559 558.466V571.675M867.559 571.675V584.883M867.559 571.675H854.35M867.559 571.675H880.767M1219.79 -146V-132.791M1219.79 -132.791V-119.583M1219.79 -132.791H1206.58M1219.79 -132.791H1233M1219.79 206.233V219.442M1219.79 219.442V232.651M1219.79 219.442H1206.58M1219.79 219.442H1233M1219.79 558.466V571.675M1219.79 571.675V584.883M1219.79 571.675H1206.58M1219.79 571.675H1233M1572.02 -146V-132.791M1572.02 -132.791V-119.583M1572.02 -132.791H1558.82M1572.02 -132.791H1585.23M1572.02 206.233V219.442M1572.02 219.442V232.651M1572.02 219.442H1558.82M1572.02 219.442H1585.23M1572.02 558.466V571.675M1572.02 571.675V584.883M1572.02 571.675H1558.82M1572.02 571.675H1585.23M1924.26 -146V-132.791M1924.26 -132.791V-119.583M1924.26 -132.791H1911.05M1924.26 -132.791H1937.47M1924.26 206.233V219.442M1924.26 219.442V232.651M1924.26 219.442H1911.05M1924.26 219.442H1937.47M1924.26 558.466V571.675M1924.26 571.675V584.883M1924.26 571.675H1911.05M1924.26 571.675H1937.47M2276.49 -146V-132.791M2276.49 -132.791V-119.583M2276.49 -132.791H2263.28M2276.49 -132.791H2289.7M2276.49 206.233V219.442M2276.49 219.442V232.651M2276.49 219.442H2263.28M2276.49 219.442H2289.7M2276.49 558.466V571.675M2276.49 571.675V584.883M2276.49 571.675H2263.28M2276.49 571.675H2289.7M339.209 30.1164V43.3252M339.209 43.3252V56.5339M339.209 43.3252H326M339.209 43.3252H352.417M339.209 382.35V395.558M339.209 395.558V408.767M339.209 395.558H326M339.209 395.558H352.417M339.209 734.582V747.791M339.209 747.791V761M339.209 747.791H326M339.209 747.791H352.417M691.442 30.1164V43.3252M691.442 43.3252V56.5339M691.442 43.3252H678.233M691.442 43.3252H704.651M691.442 382.35V395.558M691.442 395.558V408.767M691.442 395.558H678.233M691.442 395.558H704.651M691.442 734.582V747.791M691.442 747.791V761M691.442 747.791H678.233M691.442 747.791H704.651M1043.68 30.1164V43.3252M1043.68 43.3252V56.5339M1043.68 43.3252H1030.47M1043.68 43.3252H1056.88M1043.68 382.35V395.558M1043.68 395.558V408.767M1043.68 395.558H1030.47M1043.68 395.558H1056.88M1043.68 734.582V747.791M1043.68 747.791V761M1043.68 747.791H1030.47M1043.68 747.791H1056.88M1395.91 30.1164V43.3252M1395.91 43.3252V56.5339M1395.91 43.3252H1382.7M1395.91 43.3252H1409.12M1395.91 382.35V395.558M1395.91 395.558V408.767M1395.91 395.558H1382.7M1395.91 395.558H1409.12M1395.91 734.582V747.791M1395.91 747.791V761M1395.91 747.791H1382.7M1395.91 747.791H1409.12M1748.14 30.1164V43.3252M1748.14 43.3252V56.5339M1748.14 43.3252H1734.93M1748.14 43.3252H1761.35M1748.14 382.35V395.558M1748.14 395.558V408.767M1748.14 395.558H1734.93M1748.14 395.558H1761.35M1748.14 734.582V747.791M1748.14 747.791V761M1748.14 747.791H1734.93M1748.14 747.791H1761.35M2100.37 30.1164V43.3252M2100.37 43.3252V56.5339M2100.37 43.3252H2087.17M2100.37 43.3252H2113.58M2100.37 382.35V395.558M2100.37 395.558V408.767M2100.37 395.558H2087.17M2100.37 395.558H2113.58M2100.37 734.582V747.791M2100.37 747.791V761M2100.37 747.791H2087.17M2100.37 747.791H2113.58M339.209 -146V-132.791M339.209 -132.791V-119.582M339.209 -132.791H326M339.209 -132.791H352.417M339.209 206.233V219.442M339.209 219.442V232.651M339.209 219.442H326M339.209 219.442H352.417M339.209 558.466V571.675M339.209 571.675V584.883M339.209 571.675H326M339.209 571.675H352.417M691.442 -146V-132.791M691.442 -132.791V-119.583M691.442 -132.791H678.233M691.442 -132.791H704.651M691.442 206.233V219.442M691.442 219.442V232.651M691.442 219.442H678.233M691.442 219.442H704.651M691.442 558.466V571.675M691.442 571.675V584.883M691.442 571.675H678.233M691.442 571.675H704.651M1043.68 -146V-132.791M1043.68 -132.791V-119.583M1043.68 -132.791H1030.47M1043.68 -132.791H1056.88M1043.68 206.233V219.442M1043.68 219.442V232.651M1043.68 219.442H1030.47M1043.68 219.442H1056.88M1043.68 558.466V571.675M1043.68 571.675V584.883M1043.68 571.675H1030.47M1043.68 571.675H1056.88M1395.91 -146V-132.791M1395.91 -132.791V-119.583M1395.91 -132.791H1382.7M1395.91 -132.791H1409.12M1395.91 206.233V219.442M1395.91 219.442V232.651M1395.91 219.442H1382.7M1395.91 219.442H1409.12M1395.91 558.466V571.675M1395.91 571.675V584.883M1395.91 571.675H1382.7M1395.91 571.675H1409.12M1748.14 -146V-132.791M1748.14 -132.791V-119.583M1748.14 -132.791H1734.93M1748.14 -132.791H1761.35M1748.14 206.233V219.442M1748.14 219.442V232.651M1748.14 219.442H1734.93M1748.14 219.442H1761.35M1748.14 558.466V571.675M1748.14 571.675V584.883M1748.14 571.675H1734.93M1748.14 571.675H1761.35M2100.37 -146V-132.791M2100.37 -132.791V-119.583M2100.37 -132.791H2087.17M2100.37 -132.791H2113.58M2100.37 206.233V219.442M2100.37 219.442V232.651M2100.37 219.442H2087.17M2100.37 219.442H2113.58M2100.37 558.466V571.675M2100.37 571.675V584.883M2100.37 571.675H2087.17M2100.37 571.675H2113.58" stroke="url(#paint0_radial_1318_6452)" stroke-width="0.8"/>
</g>
<g style="mix-blend-mode:soft-light" opacity="0.64">
<path d="M383.238 -132.791H339.209V-88.7615M383.238 -132.791V-88.7615M383.238 -132.791H427.267M383.238 -88.7615H339.209M383.238 -88.7615V-44.7324M383.238 -88.7615H427.267M339.209 -88.7615V-44.7324M383.238 -44.7324H339.209M383.238 -44.7324V-0.703242M383.238 -44.7324H427.267M339.209 -44.7324V-0.703242M383.238 -0.703242H339.209M383.238 -0.703242V43.3259M383.238 -0.703242H427.267M339.209 -0.703242V43.3259M383.238 43.3259H339.209M383.238 43.3259V87.355M383.238 43.3259H427.267M339.209 43.3259V87.355M383.238 87.355H339.209M383.238 87.355V131.384M383.238 87.355H427.267M339.209 87.355V131.384M383.238 131.384H339.209M383.238 131.384V175.413M383.238 131.384H427.267M339.209 131.384V175.413M383.238 175.413H339.209M383.238 175.413V219.442M383.238 175.413H427.267M339.209 175.413V219.442M383.238 219.442H339.209M383.238 219.442V263.472M383.238 219.442H427.267M339.209 219.442V263.472M383.238 263.472H339.209M383.238 263.472V307.501M383.238 263.472H427.267M339.209 263.472V307.501M383.238 307.501H339.209M383.238 307.501V351.53M383.238 307.501H427.267M339.209 307.501V351.53M383.238 351.53H339.209M383.238 351.53V395.559M383.238 351.53H427.267M339.209 351.53V395.559M383.238 395.559H339.209M383.238 395.559V439.588M383.238 395.559H427.267M339.209 395.559V439.588M383.238 439.588H339.209M383.238 439.588V483.617M383.238 439.588H427.267M339.209 439.588V483.617M383.238 483.617H339.209M383.238 483.617V527.646M383.238 483.617H427.267M339.209 483.617V527.646M383.238 527.646H339.209M383.238 527.646V571.676M383.238 527.646H427.267M339.209 527.646V571.676M383.238 571.676H339.209M383.238 571.676V615.705M383.238 571.676H427.267M339.209 571.676V615.705M383.238 615.705H339.209M383.238 615.705V659.734M383.238 615.705H427.267M339.209 615.705V659.734M383.238 659.734H339.209M383.238 659.734V703.763M383.238 659.734H427.267M339.209 659.734V703.763M383.238 703.763H339.209M383.238 703.763V747.792M383.238 703.763H427.267M339.209 703.763V747.792H383.238M383.238 747.792H427.267M427.267 -132.791V-88.7615M427.267 -132.791H471.297M427.267 -88.7615V-44.7324M427.267 -88.7615H471.297M427.267 -44.7324V-0.703242M427.267 -44.7324H471.297M427.267 -0.703242V43.3259M427.267 -0.703242H471.297M427.267 43.3259V87.355M427.267 43.3259H471.297M427.267 87.355V131.384M427.267 87.355H471.297M427.267 131.384V175.413M427.267 131.384H471.297M427.267 175.413V219.442M427.267 175.413H471.297M427.267 219.442V263.472M427.267 219.442H471.297M427.267 263.472V307.501M427.267 263.472H471.297M427.267 307.501V351.53M427.267 307.501H471.297M427.267 351.53V395.559M427.267 351.53H471.297M427.267 395.559V439.588M427.267 395.559H471.297M427.267 439.588V483.617M427.267 439.588H471.297M427.267 483.617V527.646M427.267 483.617H471.297M427.267 527.646V571.676M427.267 527.646H471.297M427.267 571.676V615.705M427.267 571.676H471.297M427.267 615.705V659.734M427.267 615.705H471.297M427.267 659.734V703.763M427.267 659.734H471.297M427.267 703.763V747.792M427.267 703.763H471.297M427.267 747.792H471.297M471.297 -132.791V-88.7615M471.297 -132.791H515.326M471.297 -88.7615V-44.7324M471.297 -88.7615H515.326M471.297 -44.7324V-0.703242M471.297 -44.7324H515.326M471.297 -0.703242V43.3259M471.297 -0.703242H515.326M471.297 43.3259V87.355M471.297 43.3259H515.326M471.297 87.355V131.384M471.297 87.355H515.326M471.297 131.384V175.413M471.297 131.384H515.326M471.297 175.413V219.442M471.297 175.413H515.326M471.297 219.442V263.472M471.297 219.442H515.326M471.297 263.472V307.501M471.297 263.472H515.326M471.297 307.501V351.53M471.297 307.501H515.326M471.297 351.53V395.559M471.297 351.53H515.326M471.297 395.559V439.588M471.297 395.559H515.326M471.297 439.588V483.617M471.297 439.588H515.326M471.297 483.617V527.646M471.297 483.617H515.326M471.297 527.646V571.676M471.297 527.646H515.326M471.297 571.676V615.705M471.297 571.676H515.326M471.297 615.705V659.734M471.297 615.705H515.326M471.297 659.734V703.763M471.297 659.734H515.326M471.297 703.763V747.792M471.297 703.763H515.326M471.297 747.792H515.326M515.326 -132.791V-88.7615M515.326 -132.791H559.355M515.326 -88.7615V-44.7324M515.326 -88.7615H559.355M515.326 -44.7324V-0.703242M515.326 -44.7324H559.355M515.326 -0.703242V43.3259M515.326 -0.703242H559.355M515.326 43.3259V87.355M515.326 43.3259H559.355M515.326 87.355V131.384M515.326 87.355H559.355M515.326 131.384V175.413M515.326 131.384H559.355M515.326 175.413V219.442M515.326 175.413H559.355M515.326 219.442V263.472M515.326 219.442H559.355M515.326 263.472V307.501M515.326 263.472H559.355M515.326 307.501V351.53M515.326 307.501H559.355M515.326 351.53V395.559M515.326 351.53H559.355M515.326 395.559V439.588M515.326 395.559H559.355M515.326 439.588V483.617M515.326 439.588H559.355M515.326 483.617V527.646M515.326 483.617H559.355M515.326 527.646V571.676M515.326 527.646H559.355M515.326 571.676V615.705M515.326 571.676H559.355M515.326 615.705V659.734M515.326 615.705H559.355M515.326 659.734V703.763M515.326 659.734H559.355M515.326 703.763V747.792M515.326 703.763H559.355M515.326 747.792H559.355M559.355 -132.791V-88.7615M559.355 -132.791H603.384M559.355 -88.7615V-44.7324M559.355 -88.7615H603.384M559.355 -44.7324V-0.703242M559.355 -44.7324H603.384M559.355 -0.703242V43.3259M559.355 -0.703242H603.384M559.355 43.3259V87.355M559.355 43.3259H603.384M559.355 87.355V131.384M559.355 87.355H603.384M559.355 131.384V175.413M559.355 131.384H603.384M559.355 175.413V219.442M559.355 175.413H603.384M559.355 219.442V263.472M559.355 219.442H603.384M559.355 263.472V307.501M559.355 263.472H603.384M559.355 307.501V351.53M559.355 307.501H603.384M559.355 351.53V395.559M559.355 351.53H603.384M559.355 395.559V439.588M559.355 395.559H603.384M559.355 439.588V483.617M559.355 439.588H603.384M559.355 483.617V527.646M559.355 483.617H603.384M559.355 527.646V571.676M559.355 527.646H603.384M559.355 571.676V615.705M559.355 571.676H603.384M559.355 615.705V659.734M559.355 615.705H603.384M559.355 659.734V703.763M559.355 659.734H603.384M559.355 703.763V747.792M559.355 703.763H603.384M559.355 747.792H603.384M603.384 -132.791V-88.7615M603.384 -132.791H647.413M603.384 -88.7615V-44.7324M603.384 -88.7615H647.413M603.384 -44.7324V-0.703242M603.384 -44.7324H647.413M603.384 -0.703242V43.3259M603.384 -0.703242H647.413M603.384 43.3259V87.355M603.384 43.3259H647.413M603.384 87.355V131.384M603.384 87.355H647.413M603.384 131.384V175.413M603.384 131.384H647.413M603.384 175.413V219.442M603.384 175.413H647.413M603.384 219.442V263.472M603.384 219.442H647.413M603.384 263.472V307.501M603.384 263.472H647.413M603.384 307.501V351.53M603.384 307.501H647.413M603.384 351.53V395.559M603.384 351.53H647.413M603.384 395.559V439.588M603.384 395.559H647.413M603.384 439.588V483.617M603.384 439.588H647.413M603.384 483.617V527.646M603.384 483.617H647.413M603.384 527.646V571.676M603.384 527.646H647.413M603.384 571.676V615.705M603.384 571.676H647.413M603.384 615.705V659.734M603.384 615.705H647.413M603.384 659.734V703.763M603.384 659.734H647.413M603.384 703.763V747.792M603.384 703.763H647.413M603.384 747.792H647.413M647.413 -132.791V-88.7615M647.413 -132.791H691.442M647.413 -88.7615V-44.7324M647.413 -88.7615H691.442M647.413 -44.7324V-0.703242M647.413 -44.7324H691.442M647.413 -0.703242V43.3259M647.413 -0.703242H691.442M647.413 43.3259V87.355M647.413 43.3259H691.442M647.413 87.355V131.384M647.413 87.355H691.442M647.413 131.384V175.413M647.413 131.384H691.442M647.413 175.413V219.442M647.413 175.413H691.442M647.413 219.442V263.472M647.413 219.442H691.442M647.413 263.472V307.501M647.413 263.472H691.442M647.413 307.501V351.53M647.413 307.501H691.442M647.413 351.53V395.559M647.413 351.53H691.442M647.413 395.559V439.588M647.413 395.559H691.442M647.413 439.588V483.617M647.413 439.588H691.442M647.413 483.617V527.646M647.413 483.617H691.442M647.413 527.646V571.676M647.413 527.646H691.442M647.413 571.676V615.705M647.413 571.676H691.442M647.413 615.705V659.734M647.413 615.705H691.442M647.413 659.734V703.763M647.413 659.734H691.442M647.413 703.763V747.792M647.413 703.763H691.442M647.413 747.792H691.442M691.442 -132.791V-88.7615M691.442 -132.791H735.471M691.442 -88.7615V-44.7324M691.442 -88.7615H735.471M691.442 -44.7324V-0.703242M691.442 -44.7324H735.471M691.442 -0.703242V43.3259M691.442 -0.703242H735.471M691.442 43.3259V87.355M691.442 43.3259H735.471M691.442 87.355V131.384M691.442 87.355H735.471M691.442 131.384V175.413M691.442 131.384H735.471M691.442 175.413V219.442M691.442 175.413H735.471M691.442 219.442V263.472M691.442 219.442H735.471M691.442 263.472V307.501M691.442 263.472H735.471M691.442 307.501V351.53M691.442 307.501H735.471M691.442 351.53V395.559M691.442 351.53H735.471M691.442 395.559V439.588M691.442 395.559H735.471M691.442 439.588V483.617M691.442 439.588H735.471M691.442 483.617V527.646M691.442 483.617H735.471M691.442 527.646V571.676M691.442 527.646H735.471M691.442 571.676V615.705M691.442 571.676H735.471M691.442 615.705V659.734M691.442 615.705H735.471M691.442 659.734V703.763M691.442 659.734H735.471M691.442 703.763V747.792M691.442 703.763H735.471M691.442 747.792H735.471M735.471 -132.791V-88.7615M735.471 -132.791H779.501M735.471 -88.7615V-44.7324M735.471 -88.7615H779.501M735.471 -44.7324V-0.703242M735.471 -44.7324H779.501M735.471 -0.703242V43.3259M735.471 -0.703242H779.501M735.471 43.3259V87.355M735.471 43.3259H779.501M735.471 87.355V131.384M735.471 87.355H779.501M735.471 131.384V175.413M735.471 131.384H779.501M735.471 175.413V219.442M735.471 175.413H779.501M735.471 219.442V263.472M735.471 219.442H779.501M735.471 263.472V307.501M735.471 263.472H779.501M735.471 307.501V351.53M735.471 307.501H779.501M735.471 351.53V395.559M735.471 351.53H779.501M735.471 395.559V439.588M735.471 395.559H779.501M735.471 439.588V483.617M735.471 439.588H779.501M735.471 483.617V527.646M735.471 483.617H779.501M735.471 527.646V571.676M735.471 527.646H779.501M735.471 571.676V615.705M735.471 571.676H779.501M735.471 615.705V659.734M735.471 615.705H779.501M735.471 659.734V703.763M735.471 659.734H779.501M735.471 703.763V747.792M735.471 703.763H779.501M735.471 747.792H779.501M779.501 -132.791V-88.7615M779.501 -132.791H823.53M779.501 -88.7615V-44.7324M779.501 -88.7615H823.53M779.501 -44.7324V-0.703242M779.501 -44.7324H823.53M779.501 -0.703242V43.3259M779.501 -0.703242H823.53M779.501 43.3259V87.355M779.501 43.3259H823.53M779.501 87.355V131.384M779.501 87.355H823.53M779.501 131.384V175.413M779.501 131.384H823.53M779.501 175.413V219.442M779.501 175.413H823.53M779.501 219.442V263.472M779.501 219.442H823.53M779.501 263.472V307.501M779.501 263.472H823.53M779.501 307.501V351.53M779.501 307.501H823.53M779.501 351.53V395.559M779.501 351.53H823.53M779.501 395.559V439.588M779.501 395.559H823.53M779.501 439.588V483.617M779.501 439.588H823.53M779.501 483.617V527.646M779.501 483.617H823.53M779.501 527.646V571.676M779.501 527.646H823.53M779.501 571.676V615.705M779.501 571.676H823.53M779.501 615.705V659.734M779.501 615.705H823.53M779.501 659.734V703.763M779.501 659.734H823.53M779.501 703.763V747.792M779.501 703.763H823.53M779.501 747.792H823.53M823.53 -132.791V-88.7615M823.53 -132.791H867.559M823.53 -88.7615V-44.7324M823.53 -88.7615H867.559M823.53 -44.7324V-0.703242M823.53 -44.7324H867.559M823.53 -0.703242V43.3259M823.53 -0.703242H867.559M823.53 43.3259V87.355M823.53 43.3259H867.559M823.53 87.355V131.384M823.53 87.355H867.559M823.53 131.384V175.413M823.53 131.384H867.559M823.53 175.413V219.442M823.53 175.413H867.559M823.53 219.442V263.472M823.53 219.442H867.559M823.53 263.472V307.501M823.53 263.472H867.559M823.53 307.501V351.53M823.53 307.501H867.559M823.53 351.53V395.559M823.53 351.53H867.559M823.53 395.559V439.588M823.53 395.559H867.559M823.53 439.588V483.617M823.53 439.588H867.559M823.53 483.617V527.646M823.53 483.617H867.559M823.53 527.646V571.676M823.53 527.646H867.559M823.53 571.676V615.705M823.53 571.676H867.559M823.53 615.705V659.734M823.53 615.705H867.559M823.53 659.734V703.763M823.53 659.734H867.559M823.53 703.763V747.792M823.53 703.763H867.559M823.53 747.792H867.559M867.559 -132.791V-88.7615M867.559 -132.791H911.588M867.559 -88.7615V-44.7324M867.559 -88.7615H911.588M867.559 -44.7324V-0.703242M867.559 -44.7324H911.588M867.559 -0.703242V43.3259M867.559 -0.703242H911.588M867.559 43.3259V87.355M867.559 43.3259H911.588M867.559 87.355V131.384M867.559 87.355H911.588M867.559 131.384V175.413M867.559 131.384H911.588M867.559 175.413V219.442M867.559 175.413H911.588M867.559 219.442V263.472M867.559 219.442H911.588M867.559 263.472V307.501M867.559 263.472H911.588M867.559 307.501V351.53M867.559 307.501H911.588M867.559 351.53V395.559M867.559 351.53H911.588M867.559 395.559V439.588M867.559 395.559H911.588M867.559 439.588V483.617M867.559 439.588H911.588M867.559 483.617V527.646M867.559 483.617H911.588M867.559 527.646V571.676M867.559 527.646H911.588M867.559 571.676V615.705M867.559 571.676H911.588M867.559 615.705V659.734M867.559 615.705H911.588M867.559 659.734V703.763M867.559 659.734H911.588M867.559 703.763V747.792M867.559 703.763H911.588M867.559 747.792H911.588M911.588 -132.791V-88.7615M911.588 -132.791H955.617M911.588 -88.7615V-44.7324M911.588 -88.7615H955.617M911.588 -44.7324V-0.703242M911.588 -44.7324H955.617M911.588 -0.703242V43.3259M911.588 -0.703242H955.617M911.588 43.3259V87.355M911.588 43.3259H955.617M911.588 87.355V131.384M911.588 87.355H955.617M911.588 131.384V175.413M911.588 131.384H955.617M911.588 175.413V219.442M911.588 175.413H955.617M911.588 219.442V263.472M911.588 219.442H955.617M911.588 263.472V307.501M911.588 263.472H955.617M911.588 307.501V351.53M911.588 307.501H955.617M911.588 351.53V395.559M911.588 351.53H955.617M911.588 395.559V439.588M911.588 395.559H955.617M911.588 439.588V483.617M911.588 439.588H955.617M911.588 483.617V527.646M911.588 483.617H955.617M911.588 527.646V571.676M911.588 527.646H955.617M911.588 571.676V615.705M911.588 571.676H955.617M911.588 615.705V659.734M911.588 615.705H955.617M911.588 659.734V703.763M911.588 659.734H955.617M911.588 703.763V747.792M911.588 703.763H955.617M911.588 747.792H955.617M955.617 -132.791V-88.7615M955.617 -132.791H999.646M955.617 -88.7615V-44.7324M955.617 -88.7615H999.646M955.617 -44.7324V-0.703242M955.617 -44.7324H999.646M955.617 -0.703242V43.3259M955.617 -0.703242H999.646M955.617 43.3259V87.355M955.617 43.3259H999.646M955.617 87.355V131.384M955.617 87.355H999.646M955.617 131.384V175.413M955.617 131.384H999.646M955.617 175.413V219.442M955.617 175.413H999.646M955.617 219.442V263.472M955.617 219.442H999.646M955.617 263.472V307.501M955.617 263.472H999.646M955.617 307.501V351.53M955.617 307.501H999.646M955.617 351.53V395.559M955.617 351.53H999.646M955.617 395.559V439.588M955.617 395.559H999.646M955.617 439.588V483.617M955.617 439.588H999.646M955.617 483.617V527.646M955.617 483.617H999.646M955.617 527.646V571.676M955.617 527.646H999.646M955.617 571.676V615.705M955.617 571.676H999.646M955.617 615.705V659.734M955.617 615.705H999.646M955.617 659.734V703.763M955.617 659.734H999.646M955.617 703.763V747.792M955.617 703.763H999.646M955.617 747.792H999.646M999.646 -132.791V-88.7615M999.646 -132.791H1043.68M999.646 -88.7615V-44.7324M999.646 -88.7615H1043.68M999.646 -44.7324V-0.703242M999.646 -44.7324H1043.68M999.646 -0.703242V43.3259M999.646 -0.703242H1043.68M999.646 43.3259V87.355M999.646 43.3259H1043.68M999.646 87.355V131.384M999.646 87.355H1043.68M999.646 131.384V175.413M999.646 131.384H1043.68M999.646 175.413V219.442M999.646 175.413H1043.68M999.646 219.442V263.472M999.646 219.442H1043.68M999.646 263.472V307.501M999.646 263.472H1043.68M999.646 307.501V351.53M999.646 307.501H1043.68M999.646 351.53V395.559M999.646 351.53H1043.68M999.646 395.559V439.588M999.646 395.559H1043.68M999.646 439.588V483.617M999.646 439.588H1043.68M999.646 483.617V527.646M999.646 483.617H1043.68M999.646 527.646V571.676M999.646 527.646H1043.68M999.646 571.676V615.705M999.646 571.676H1043.68M999.646 615.705V659.734M999.646 615.705H1043.68M999.646 659.734V703.763M999.646 659.734H1043.68M999.646 703.763V747.792M999.646 703.763H1043.68M999.646 747.792H1043.68M1043.68 -132.791V-88.7615M1043.68 -132.791H1087.7M1043.68 -88.7615V-44.7324M1043.68 -88.7615H1087.7M1043.68 -44.7324V-0.703242M1043.68 -44.7324H1087.7M1043.68 -0.703242V43.3259M1043.68 -0.703242H1087.7M1043.68 43.3259V87.355M1043.68 43.3259H1087.7M1043.68 87.355V131.384M1043.68 87.355H1087.7M1043.68 131.384V175.413M1043.68 131.384H1087.7M1043.68 175.413V219.442M1043.68 175.413H1087.7M1043.68 219.442V263.472M1043.68 219.442H1087.7M1043.68 263.472V307.501M1043.68 263.472H1087.7M1043.68 307.501V351.53M1043.68 307.501H1087.7M1043.68 351.53V395.559M1043.68 351.53H1087.7M1043.68 395.559V439.588M1043.68 395.559H1087.7M1043.68 439.588V483.617M1043.68 439.588H1087.7M1043.68 483.617V527.646M1043.68 483.617H1087.7M1043.68 527.646V571.676M1043.68 527.646H1087.7M1043.68 571.676V615.705M1043.68 571.676H1087.7M1043.68 615.705V659.734M1043.68 615.705H1087.7M1043.68 659.734V703.763M1043.68 659.734H1087.7M1043.68 703.763V747.792M1043.68 703.763H1087.7M1043.68 747.792H1087.7M1087.7 -132.791V-88.7615M1087.7 -132.791H1131.73M1087.7 -88.7615V-44.7324M1087.7 -88.7615H1131.73M1087.7 -44.7324V-0.703242M1087.7 -44.7324H1131.73M1087.7 -0.703242V43.3259M1087.7 -0.703242H1131.73M1087.7 43.3259V87.355M1087.7 43.3259H1131.73M1087.7 87.355V131.384M1087.7 87.355H1131.73M1087.7 131.384V175.413M1087.7 131.384H1131.73M1087.7 175.413V219.442M1087.7 175.413H1131.73M1087.7 219.442V263.472M1087.7 219.442H1131.73M1087.7 263.472V307.501M1087.7 263.472H1131.73M1087.7 307.501V351.53M1087.7 307.501H1131.73M1087.7 351.53V395.559M1087.7 351.53H1131.73M1087.7 395.559V439.588M1087.7 395.559H1131.73M1087.7 439.588V483.617M1087.7 439.588H1131.73M1087.7 483.617V527.646M1087.7 483.617H1131.73M1087.7 527.646V571.676M1087.7 527.646H1131.73M1087.7 571.676V615.705M1087.7 571.676H1131.73M1087.7 615.705V659.734M1087.7 615.705H1131.73M1087.7 659.734V703.763M1087.7 659.734H1131.73M1087.7 703.763V747.792M1087.7 703.763H1131.73M1087.7 747.792H1131.73M1131.73 -132.791V-88.7615M1131.73 -132.791H1175.76M1131.73 -88.7615V-44.7324M1131.73 -88.7615H1175.76M1131.73 -44.7324V-0.703242M1131.73 -44.7324H1175.76M1131.73 -0.703242V43.3259M1131.73 -0.703242H1175.76M1131.73 43.3259V87.355M1131.73 43.3259H1175.76M1131.73 87.355V131.384M1131.73 87.355H1175.76M1131.73 131.384V175.413M1131.73 131.384H1175.76M1131.73 175.413V219.442M1131.73 175.413H1175.76M1131.73 219.442V263.472M1131.73 219.442H1175.76M1131.73 263.472V307.501M1131.73 263.472H1175.76M1131.73 307.501V351.53M1131.73 307.501H1175.76M1131.73 351.53V395.559M1131.73 351.53H1175.76M1131.73 395.559V439.588M1131.73 395.559H1175.76M1131.73 439.588V483.617M1131.73 439.588H1175.76M1131.73 483.617V527.646M1131.73 483.617H1175.76M1131.73 527.646V571.676M1131.73 527.646H1175.76M1131.73 571.676V615.705M1131.73 571.676H1175.76M1131.73 615.705V659.734M1131.73 615.705H1175.76M1131.73 659.734V703.763M1131.73 659.734H1175.76M1131.73 703.763V747.792M1131.73 703.763H1175.76M1131.73 747.792H1175.76M1175.76 -132.791V-88.7615M1175.76 -132.791H1219.79M1175.76 -88.7615V-44.7324M1175.76 -88.7615H1219.79M1175.76 -44.7324V-0.703242M1175.76 -44.7324H1219.79M1175.76 -0.703242V43.3259M1175.76 -0.703242H1219.79M1175.76 43.3259V87.355M1175.76 43.3259H1219.79M1175.76 87.355V131.384M1175.76 87.355H1219.79M1175.76 131.384V175.413M1175.76 131.384H1219.79M1175.76 175.413V219.442M1175.76 175.413H1219.79M1175.76 219.442V263.472M1175.76 219.442H1219.79M1175.76 263.472V307.501M1175.76 263.472H1219.79M1175.76 307.501V351.53M1175.76 307.501H1219.79M1175.76 351.53V395.559M1175.76 351.53H1219.79M1175.76 395.559V439.588M1175.76 395.559H1219.79M1175.76 439.588V483.617M1175.76 439.588H1219.79M1175.76 483.617V527.646M1175.76 483.617H1219.79M1175.76 527.646V571.676M1175.76 527.646H1219.79M1175.76 571.676V615.705M1175.76 571.676H1219.79M1175.76 615.705V659.734M1175.76 615.705H1219.79M1175.76 659.734V703.763M1175.76 659.734H1219.79M1175.76 703.763V747.792M1175.76 703.763H1219.79M1175.76 747.792H1219.79M1219.79 -132.791V-88.7615M1219.79 -132.791H1263.82M1219.79 -88.7615V-44.7324M1219.79 -88.7615H1263.82M1219.79 -44.7324V-0.703242M1219.79 -44.7324H1263.82M1219.79 -0.703242V43.3259M1219.79 -0.703242H1263.82M1219.79 43.3259V87.355M1219.79 43.3259H1263.82M1219.79 87.355V131.384M1219.79 87.355H1263.82M1219.79 131.384V175.413M1219.79 131.384H1263.82M1219.79 175.413V219.442M1219.79 175.413H1263.82M1219.79 219.442V263.472M1219.79 219.442H1263.82M1219.79 263.472V307.501M1219.79 263.472H1263.82M1219.79 307.501V351.53M1219.79 307.501H1263.82M1219.79 351.53V395.559M1219.79 351.53H1263.82M1219.79 395.559V439.588M1219.79 395.559H1263.82M1219.79 439.588V483.617M1219.79 439.588H1263.82M1219.79 483.617V527.646M1219.79 483.617H1263.82M1219.79 527.646V571.676M1219.79 527.646H1263.82M1219.79 571.676V615.705M1219.79 571.676H1263.82M1219.79 615.705V659.734M1219.79 615.705H1263.82M1219.79 659.734V703.763M1219.79 659.734H1263.82M1219.79 703.763V747.792M1219.79 703.763H1263.82M1219.79 747.792H1263.82M1263.82 -132.791V-88.7615M1263.82 -132.791H1307.85M1263.82 -88.7615V-44.7324M1263.82 -88.7615H1307.85M1263.82 -44.7324V-0.703242M1263.82 -44.7324H1307.85M1263.82 -0.703242V43.3259M1263.82 -0.703242H1307.85M1263.82 43.3259V87.355M1263.82 43.3259H1307.85M1263.82 87.355V131.384M1263.82 87.355H1307.85M1263.82 131.384V175.413M1263.82 131.384H1307.85M1263.82 175.413V219.442M1263.82 175.413H1307.85M1263.82 219.442V263.472M1263.82 219.442H1307.85M1263.82 263.472V307.501M1263.82 263.472H1307.85M1263.82 307.501V351.53M1263.82 307.501H1307.85M1263.82 351.53V395.559M1263.82 351.53H1307.85M1263.82 395.559V439.588M1263.82 395.559H1307.85M1263.82 439.588V483.617M1263.82 439.588H1307.85M1263.82 483.617V527.646M1263.82 483.617H1307.85M1263.82 527.646V571.676M1263.82 527.646H1307.85M1263.82 571.676V615.705M1263.82 571.676H1307.85M1263.82 615.705V659.734M1263.82 615.705H1307.85M1263.82 659.734V703.763M1263.82 659.734H1307.85M1263.82 703.763V747.792M1263.82 703.763H1307.85M1263.82 747.792H1307.85M1307.85 -132.791V-88.7615M1307.85 -132.791H1351.88M1307.85 -88.7615V-44.7324M1307.85 -88.7615H1351.88M1307.85 -44.7324V-0.703242M1307.85 -44.7324H1351.88M1307.85 -0.703242V43.3259M1307.85 -0.703242H1351.88M1307.85 43.3259V87.355M1307.85 43.3259H1351.88M1307.85 87.355V131.384M1307.85 87.355H1351.88M1307.85 131.384V175.413M1307.85 131.384H1351.88M1307.85 175.413V219.442M1307.85 175.413H1351.88M1307.85 219.442V263.472M1307.85 219.442H1351.88M1307.85 263.472V307.501M1307.85 263.472H1351.88M1307.85 307.501V351.53M1307.85 307.501H1351.88M1307.85 351.53V395.559M1307.85 351.53H1351.88M1307.85 395.559V439.588M1307.85 395.559H1351.88M1307.85 439.588V483.617M1307.85 439.588H1351.88M1307.85 483.617V527.646M1307.85 483.617H1351.88M1307.85 527.646V571.676M1307.85 527.646H1351.88M1307.85 571.676V615.705M1307.85 571.676H1351.88M1307.85 615.705V659.734M1307.85 615.705H1351.88M1307.85 659.734V703.763M1307.85 659.734H1351.88M1307.85 703.763V747.792M1307.85 703.763H1351.88M1307.85 747.792H1351.88M1351.88 -132.791V-88.7615M1351.88 -132.791H1395.91M1351.88 -88.7615V-44.7324M1351.88 -88.7615H1395.91M1351.88 -44.7324V-0.703242M1351.88 -44.7324H1395.91M1351.88 -0.703242V43.3259M1351.88 -0.703242H1395.91M1351.88 43.3259V87.355M1351.88 43.3259H1395.91M1351.88 87.355V131.384M1351.88 87.355H1395.91M1351.88 131.384V175.413M1351.88 131.384H1395.91M1351.88 175.413V219.442M1351.88 175.413H1395.91M1351.88 219.442V263.472M1351.88 219.442H1395.91M1351.88 263.472V307.501M1351.88 263.472H1395.91M1351.88 307.501V351.53M1351.88 307.501H1395.91M1351.88 351.53V395.559M1351.88 351.53H1395.91M1351.88 395.559V439.588M1351.88 395.559H1395.91M1351.88 439.588V483.617M1351.88 439.588H1395.91M1351.88 483.617V527.646M1351.88 483.617H1395.91M1351.88 527.646V571.676M1351.88 527.646H1395.91M1351.88 571.676V615.705M1351.88 571.676H1395.91M1351.88 615.705V659.734M1351.88 615.705H1395.91M1351.88 659.734V703.763M1351.88 659.734H1395.91M1351.88 703.763V747.792M1351.88 703.763H1395.91M1351.88 747.792H1395.91M1395.91 -132.791V-88.7615M1395.91 -132.791H1439.94M1395.91 -88.7615V-44.7324M1395.91 -88.7615H1439.94M1395.91 -44.7324V-0.703242M1395.91 -44.7324H1439.94M1395.91 -0.703242V43.3259M1395.91 -0.703242H1439.94M1395.91 43.3259V87.355M1395.91 43.3259H1439.94M1395.91 87.355V131.384M1395.91 87.355H1439.94M1395.91 131.384V175.413M1395.91 131.384H1439.94M1395.91 175.413V219.442M1395.91 175.413H1439.94M1395.91 219.442V263.472M1395.91 219.442H1439.94M1395.91 263.472V307.501M1395.91 263.472H1439.94M1395.91 307.501V351.53M1395.91 307.501H1439.94M1395.91 351.53V395.559M1395.91 351.53H1439.94M1395.91 395.559V439.588M1395.91 395.559H1439.94M1395.91 439.588V483.617M1395.91 439.588H1439.94M1395.91 483.617V527.646M1395.91 483.617H1439.94M1395.91 527.646V571.676M1395.91 527.646H1439.94M1395.91 571.676V615.705M1395.91 571.676H1439.94M1395.91 615.705V659.734M1395.91 615.705H1439.94M1395.91 659.734V703.763M1395.91 659.734H1439.94M1395.91 703.763V747.792M1395.91 703.763H1439.94M1395.91 747.792H1439.94M1439.94 -132.791V-88.7615M1439.94 -132.791H1483.97M1439.94 -88.7615V-44.7324M1439.94 -88.7615H1483.97M1439.94 -44.7324V-0.703242M1439.94 -44.7324H1483.97M1439.94 -0.703242V43.3259M1439.94 -0.703242H1483.97M1439.94 43.3259V87.355M1439.94 43.3259H1483.97M1439.94 87.355V131.384M1439.94 87.355H1483.97M1439.94 131.384V175.413M1439.94 131.384H1483.97M1439.94 175.413V219.442M1439.94 175.413H1483.97M1439.94 219.442V263.472M1439.94 219.442H1483.97M1439.94 263.472V307.501M1439.94 263.472H1483.97M1439.94 307.501V351.53M1439.94 307.501H1483.97M1439.94 351.53V395.559M1439.94 351.53H1483.97M1439.94 395.559V439.588M1439.94 395.559H1483.97M1439.94 439.588V483.617M1439.94 439.588H1483.97M1439.94 483.617V527.646M1439.94 483.617H1483.97M1439.94 527.646V571.676M1439.94 527.646H1483.97M1439.94 571.676V615.705M1439.94 571.676H1483.97M1439.94 615.705V659.734M1439.94 615.705H1483.97M1439.94 659.734V703.763M1439.94 659.734H1483.97M1439.94 703.763V747.792M1439.94 703.763H1483.97M1439.94 747.792H1483.97M1483.97 -132.791V-88.7615M1483.97 -132.791H1528M1483.97 -88.7615V-44.7324M1483.97 -88.7615H1528M1483.97 -44.7324V-0.703242M1483.97 -44.7324H1528M1483.97 -0.703242V43.3259M1483.97 -0.703242H1528M1483.97 43.3259V87.355M1483.97 43.3259H1528M1483.97 87.355V131.384M1483.97 87.355H1528M1483.97 131.384V175.413M1483.97 131.384H1528M1483.97 175.413V219.442M1483.97 175.413H1528M1483.97 219.442V263.472M1483.97 219.442H1528M1483.97 263.472V307.501M1483.97 263.472H1528M1483.97 307.501V351.53M1483.97 307.501H1528M1483.97 351.53V395.559M1483.97 351.53H1528M1483.97 395.559V439.588M1483.97 395.559H1528M1483.97 439.588V483.617M1483.97 439.588H1528M1483.97 483.617V527.646M1483.97 483.617H1528M1483.97 527.646V571.676M1483.97 527.646H1528M1483.97 571.676V615.705M1483.97 571.676H1528M1483.97 615.705V659.734M1483.97 615.705H1528M1483.97 659.734V703.763M1483.97 659.734H1528M1483.97 703.763V747.792M1483.97 703.763H1528M1483.97 747.792H1528M1528 -132.791V-88.7615M1528 -132.791H1572.03M1528 -88.7615V-44.7324M1528 -88.7615H1572.03M1528 -44.7324V-0.703242M1528 -44.7324H1572.03M1528 -0.703242V43.3259M1528 -0.703242H1572.03M1528 43.3259V87.355M1528 43.3259H1572.03M1528 87.355V131.384M1528 87.355H1572.03M1528 131.384V175.413M1528 131.384H1572.03M1528 175.413V219.442M1528 175.413H1572.03M1528 219.442V263.472M1528 219.442H1572.03M1528 263.472V307.501M1528 263.472H1572.03M1528 307.501V351.53M1528 307.501H1572.03M1528 351.53V395.559M1528 351.53H1572.03M1528 395.559V439.588M1528 395.559H1572.03M1528 439.588V483.617M1528 439.588H1572.03M1528 483.617V527.646M1528 483.617H1572.03M1528 527.646V571.676M1528 527.646H1572.03M1528 571.676V615.705M1528 571.676H1572.03M1528 615.705V659.734M1528 615.705H1572.03M1528 659.734V703.763M1528 659.734H1572.03M1528 703.763V747.792M1528 703.763H1572.03M1528 747.792H1572.03M1572.03 -132.791V-88.7615M1572.03 -132.791H1616.05M1572.03 -88.7615V-44.7324M1572.03 -88.7615H1616.05M1572.03 -44.7324V-0.703242M1572.03 -44.7324H1616.05M1572.03 -0.703242V43.3259M1572.03 -0.703242H1616.05M1572.03 43.3259V87.355M1572.03 43.3259H1616.05M1572.03 87.355V131.384M1572.03 87.355H1616.05M1572.03 131.384V175.413M1572.03 131.384H1616.05M1572.03 175.413V219.442M1572.03 175.413H1616.05M1572.03 219.442V263.472M1572.03 219.442H1616.05M1572.03 263.472V307.501M1572.03 263.472H1616.05M1572.03 307.501V351.53M1572.03 307.501H1616.05M1572.03 351.53V395.559M1572.03 351.53H1616.05M1572.03 395.559V439.588M1572.03 395.559H1616.05M1572.03 439.588V483.617M1572.03 439.588H1616.05M1572.03 483.617V527.646M1572.03 483.617H1616.05M1572.03 527.646V571.676M1572.03 527.646H1616.05M1572.03 571.676V615.705M1572.03 571.676H1616.05M1572.03 615.705V659.734M1572.03 615.705H1616.05M1572.03 659.734V703.763M1572.03 659.734H1616.05M1572.03 703.763V747.792M1572.03 703.763H1616.05M1572.03 747.792H1616.05M1616.05 -132.791V-88.7615M1616.05 -132.791H1660.08M1616.05 -88.7615V-44.7324M1616.05 -88.7615H1660.08M1616.05 -44.7324V-0.703242M1616.05 -44.7324H1660.08M1616.05 -0.703242V43.3259M1616.05 -0.703242H1660.08M1616.05 43.3259V87.355M1616.05 43.3259H1660.08M1616.05 87.355V131.384M1616.05 87.355H1660.08M1616.05 131.384V175.413M1616.05 131.384H1660.08M1616.05 175.413V219.442M1616.05 175.413H1660.08M1616.05 219.442V263.472M1616.05 219.442H1660.08M1616.05 263.472V307.501M1616.05 263.472H1660.08M1616.05 307.501V351.53M1616.05 307.501H1660.08M1616.05 351.53V395.559M1616.05 351.53H1660.08M1616.05 395.559V439.588M1616.05 395.559H1660.08M1616.05 439.588V483.617M1616.05 439.588H1660.08M1616.05 483.617V527.646M1616.05 483.617H1660.08M1616.05 527.646V571.676M1616.05 527.646H1660.08M1616.05 571.676V615.705M1616.05 571.676H1660.08M1616.05 615.705V659.734M1616.05 615.705H1660.08M1616.05 659.734V703.763M1616.05 659.734H1660.08M1616.05 703.763V747.792M1616.05 703.763H1660.08M1616.05 747.792H1660.08M1660.08 -132.791V-88.7615M1660.08 -132.791H1704.11M1660.08 -88.7615V-44.7324M1660.08 -88.7615H1704.11M1660.08 -44.7324V-0.703242M1660.08 -44.7324H1704.11M1660.08 -0.703242V43.3259M1660.08 -0.703242H1704.11M1660.08 43.3259V87.355M1660.08 43.3259H1704.11M1660.08 87.355V131.384M1660.08 87.355H1704.11M1660.08 131.384V175.413M1660.08 131.384H1704.11M1660.08 175.413V219.442M1660.08 175.413H1704.11M1660.08 219.442V263.472M1660.08 219.442H1704.11M1660.08 263.472V307.501M1660.08 263.472H1704.11M1660.08 307.501V351.53M1660.08 307.501H1704.11M1660.08 351.53V395.559M1660.08 351.53H1704.11M1660.08 395.559V439.588M1660.08 395.559H1704.11M1660.08 439.588V483.617M1660.08 439.588H1704.11M1660.08 483.617V527.646M1660.08 483.617H1704.11M1660.08 527.646V571.676M1660.08 527.646H1704.11M1660.08 571.676V615.705M1660.08 571.676H1704.11M1660.08 615.705V659.734M1660.08 615.705H1704.11M1660.08 659.734V703.763M1660.08 659.734H1704.11M1660.08 703.763V747.792M1660.08 703.763H1704.11M1660.08 747.792H1704.11M1704.11 -132.791V-88.7615M1704.11 -132.791H1748.14M1704.11 -88.7615V-44.7324M1704.11 -88.7615H1748.14M1704.11 -44.7324V-0.703242M1704.11 -44.7324H1748.14M1704.11 -0.703242V43.3259M1704.11 -0.703242H1748.14M1704.11 43.3259V87.355M1704.11 43.3259H1748.14M1704.11 87.355V131.384M1704.11 87.355H1748.14M1704.11 131.384V175.413M1704.11 131.384H1748.14M1704.11 175.413V219.442M1704.11 175.413H1748.14M1704.11 219.442V263.472M1704.11 219.442H1748.14M1704.11 263.472V307.501M1704.11 263.472H1748.14M1704.11 307.501V351.53M1704.11 307.501H1748.14M1704.11 351.53V395.559M1704.11 351.53H1748.14M1704.11 395.559V439.588M1704.11 395.559H1748.14M1704.11 439.588V483.617M1704.11 439.588H1748.14M1704.11 483.617V527.646M1704.11 483.617H1748.14M1704.11 527.646V571.676M1704.11 527.646H1748.14M1704.11 571.676V615.705M1704.11 571.676H1748.14M1704.11 615.705V659.734M1704.11 615.705H1748.14M1704.11 659.734V703.763M1704.11 659.734H1748.14M1704.11 703.763V747.792M1704.11 703.763H1748.14M1704.11 747.792H1748.14M1748.14 -132.791V-88.7615M1748.14 -132.791H1792.17M1748.14 -88.7615V-44.7324M1748.14 -88.7615H1792.17M1748.14 -44.7324V-0.703242M1748.14 -44.7324H1792.17M1748.14 -0.703242V43.3259M1748.14 -0.703242H1792.17M1748.14 43.3259V87.355M1748.14 43.3259H1792.17M1748.14 87.355V131.384M1748.14 87.355H1792.17M1748.14 131.384V175.413M1748.14 131.384H1792.17M1748.14 175.413V219.442M1748.14 175.413H1792.17M1748.14 219.442V263.472M1748.14 219.442H1792.17M1748.14 263.472V307.501M1748.14 263.472H1792.17M1748.14 307.501V351.53M1748.14 307.501H1792.17M1748.14 351.53V395.559M1748.14 351.53H1792.17M1748.14 395.559V439.588M1748.14 395.559H1792.17M1748.14 439.588V483.617M1748.14 439.588H1792.17M1748.14 483.617V527.646M1748.14 483.617H1792.17M1748.14 527.646V571.676M1748.14 527.646H1792.17M1748.14 571.676V615.705M1748.14 571.676H1792.17M1748.14 615.705V659.734M1748.14 615.705H1792.17M1748.14 659.734V703.763M1748.14 659.734H1792.17M1748.14 703.763V747.792M1748.14 703.763H1792.17M1748.14 747.792H1792.17M1792.17 -132.791V-88.7615M1792.17 -132.791H1836.2M1792.17 -88.7615V-44.7324M1792.17 -88.7615H1836.2M1792.17 -44.7324V-0.703242M1792.17 -44.7324H1836.2M1792.17 -0.703242V43.3259M1792.17 -0.703242H1836.2M1792.17 43.3259V87.355M1792.17 43.3259H1836.2M1792.17 87.355V131.384M1792.17 87.355H1836.2M1792.17 131.384V175.413M1792.17 131.384H1836.2M1792.17 175.413V219.442M1792.17 175.413H1836.2M1792.17 219.442V263.472M1792.17 219.442H1836.2M1792.17 263.472V307.501M1792.17 263.472H1836.2M1792.17 307.501V351.53M1792.17 307.501H1836.2M1792.17 351.53V395.559M1792.17 351.53H1836.2M1792.17 395.559V439.588M1792.17 395.559H1836.2M1792.17 439.588V483.617M1792.17 439.588H1836.2M1792.17 483.617V527.646M1792.17 483.617H1836.2M1792.17 527.646V571.676M1792.17 527.646H1836.2M1792.17 571.676V615.705M1792.17 571.676H1836.2M1792.17 615.705V659.734M1792.17 615.705H1836.2M1792.17 659.734V703.763M1792.17 659.734H1836.2M1792.17 703.763V747.792M1792.17 703.763H1836.2M1792.17 747.792H1836.2M1836.2 -132.791V-88.7615M1836.2 -132.791H1880.23M1836.2 -88.7615V-44.7324M1836.2 -88.7615H1880.23M1836.2 -44.7324V-0.703242M1836.2 -44.7324H1880.23M1836.2 -0.703242V43.3259M1836.2 -0.703242H1880.23M1836.2 43.3259V87.355M1836.2 43.3259H1880.23M1836.2 87.355V131.384M1836.2 87.355H1880.23M1836.2 131.384V175.413M1836.2 131.384H1880.23M1836.2 175.413V219.442M1836.2 175.413H1880.23M1836.2 219.442V263.472M1836.2 219.442H1880.23M1836.2 263.472V307.501M1836.2 263.472H1880.23M1836.2 307.501V351.53M1836.2 307.501H1880.23M1836.2 351.53V395.559M1836.2 351.53H1880.23M1836.2 395.559V439.588M1836.2 395.559H1880.23M1836.2 439.588V483.617M1836.2 439.588H1880.23M1836.2 483.617V527.646M1836.2 483.617H1880.23M1836.2 527.646V571.676M1836.2 527.646H1880.23M1836.2 571.676V615.705M1836.2 571.676H1880.23M1836.2 615.705V659.734M1836.2 615.705H1880.23M1836.2 659.734V703.763M1836.2 659.734H1880.23M1836.2 703.763V747.792M1836.2 703.763H1880.23M1836.2 747.792H1880.23M1880.23 -132.791V-88.7615M1880.23 -132.791H1924.26M1880.23 -88.7615V-44.7324M1880.23 -88.7615H1924.26M1880.23 -44.7324V-0.703242M1880.23 -44.7324H1924.26M1880.23 -0.703242V43.3259M1880.23 -0.703242H1924.26M1880.23 43.3259V87.355M1880.23 43.3259H1924.26M1880.23 87.355V131.384M1880.23 87.355H1924.26M1880.23 131.384V175.413M1880.23 131.384H1924.26M1880.23 175.413V219.442M1880.23 175.413H1924.26M1880.23 219.442V263.472M1880.23 219.442H1924.26M1880.23 263.472V307.501M1880.23 263.472H1924.26M1880.23 307.501V351.53M1880.23 307.501H1924.26M1880.23 351.53V395.559M1880.23 351.53H1924.26M1880.23 395.559V439.588M1880.23 395.559H1924.26M1880.23 439.588V483.617M1880.23 439.588H1924.26M1880.23 483.617V527.646M1880.23 483.617H1924.26M1880.23 527.646V571.676M1880.23 527.646H1924.26M1880.23 571.676V615.705M1880.23 571.676H1924.26M1880.23 615.705V659.734M1880.23 615.705H1924.26M1880.23 659.734V703.763M1880.23 659.734H1924.26M1880.23 703.763V747.792M1880.23 703.763H1924.26M1880.23 747.792H1924.26M1924.26 -132.791V-88.7615M1924.26 -132.791H1968.29M1924.26 -88.7615V-44.7324M1924.26 -88.7615H1968.29M1924.26 -44.7324V-0.703242M1924.26 -44.7324H1968.29M1924.26 -0.703242V43.3259M1924.26 -0.703242H1968.29M1924.26 43.3259V87.355M1924.26 43.3259H1968.29M1924.26 87.355V131.384M1924.26 87.355H1968.29M1924.26 131.384V175.413M1924.26 131.384H1968.29M1924.26 175.413V219.442M1924.26 175.413H1968.29M1924.26 219.442V263.472M1924.26 219.442H1968.29M1924.26 263.472V307.501M1924.26 263.472H1968.29M1924.26 307.501V351.53M1924.26 307.501H1968.29M1924.26 351.53V395.559M1924.26 351.53H1968.29M1924.26 395.559V439.588M1924.26 395.559H1968.29M1924.26 439.588V483.617M1924.26 439.588H1968.29M1924.26 483.617V527.646M1924.26 483.617H1968.29M1924.26 527.646V571.676M1924.26 527.646H1968.29M1924.26 571.676V615.705M1924.26 571.676H1968.29M1924.26 615.705V659.734M1924.26 615.705H1968.29M1924.26 659.734V703.763M1924.26 659.734H1968.29M1924.26 703.763V747.792M1924.26 703.763H1968.29M1924.26 747.792H1968.29M1968.29 -132.791V-88.7615M1968.29 -132.791H2012.32M1968.29 -88.7615V-44.7324M1968.29 -88.7615H2012.32M1968.29 -44.7324V-0.703242M1968.29 -44.7324H2012.32M1968.29 -0.703242V43.3259M1968.29 -0.703242H2012.32M1968.29 43.3259V87.355M1968.29 43.3259H2012.32M1968.29 87.355V131.384M1968.29 87.355H2012.32M1968.29 131.384V175.413M1968.29 131.384H2012.32M1968.29 175.413V219.442M1968.29 175.413H2012.32M1968.29 219.442V263.472M1968.29 219.442H2012.32M1968.29 263.472V307.501M1968.29 263.472H2012.32M1968.29 307.501V351.53M1968.29 307.501H2012.32M1968.29 351.53V395.559M1968.29 351.53H2012.32M1968.29 395.559V439.588M1968.29 395.559H2012.32M1968.29 439.588V483.617M1968.29 439.588H2012.32M1968.29 483.617V527.646M1968.29 483.617H2012.32M1968.29 527.646V571.676M1968.29 527.646H2012.32M1968.29 571.676V615.705M1968.29 571.676H2012.32M1968.29 615.705V659.734M1968.29 615.705H2012.32M1968.29 659.734V703.763M1968.29 659.734H2012.32M1968.29 703.763V747.792M1968.29 703.763H2012.32M1968.29 747.792H2012.32M2012.32 -132.791V-88.7615M2012.32 -132.791H2056.35M2012.32 -88.7615V-44.7324M2012.32 -88.7615H2056.35M2012.32 -44.7324V-0.703242M2012.32 -44.7324H2056.35M2012.32 -0.703242V43.3259M2012.32 -0.703242H2056.35M2012.32 43.3259V87.355M2012.32 43.3259H2056.35M2012.32 87.355V131.384M2012.32 87.355H2056.35M2012.32 131.384V175.413M2012.32 131.384H2056.35M2012.32 175.413V219.442M2012.32 175.413H2056.35M2012.32 219.442V263.472M2012.32 219.442H2056.35M2012.32 263.472V307.501M2012.32 263.472H2056.35M2012.32 307.501V351.53M2012.32 307.501H2056.35M2012.32 351.53V395.559M2012.32 351.53H2056.35M2012.32 395.559V439.588M2012.32 395.559H2056.35M2012.32 439.588V483.617M2012.32 439.588H2056.35M2012.32 483.617V527.646M2012.32 483.617H2056.35M2012.32 527.646V571.676M2012.32 527.646H2056.35M2012.32 571.676V615.705M2012.32 571.676H2056.35M2012.32 615.705V659.734M2012.32 615.705H2056.35M2012.32 659.734V703.763M2012.32 659.734H2056.35M2012.32 703.763V747.792M2012.32 703.763H2056.35M2012.32 747.792H2056.35M2056.35 -132.791V-88.7615M2056.35 -132.791H2100.37M2056.35 -88.7615V-44.7324M2056.35 -88.7615H2100.37M2056.35 -44.7324V-0.703242M2056.35 -44.7324H2100.37M2056.35 -0.703242V43.3259M2056.35 -0.703242H2100.37M2056.35 43.3259V87.355M2056.35 43.3259H2100.37M2056.35 87.355V131.384M2056.35 87.355H2100.37M2056.35 131.384V175.413M2056.35 131.384H2100.37M2056.35 175.413V219.442M2056.35 175.413H2100.37M2056.35 219.442V263.472M2056.35 219.442H2100.37M2056.35 263.472V307.501M2056.35 263.472H2100.37M2056.35 307.501V351.53M2056.35 307.501H2100.37M2056.35 351.53V395.559M2056.35 351.53H2100.37M2056.35 395.559V439.588M2056.35 395.559H2100.37M2056.35 439.588V483.617M2056.35 439.588H2100.37M2056.35 483.617V527.646M2056.35 483.617H2100.37M2056.35 527.646V571.676M2056.35 527.646H2100.37M2056.35 571.676V615.705M2056.35 571.676H2100.37M2056.35 615.705V659.734M2056.35 615.705H2100.37M2056.35 659.734V703.763M2056.35 659.734H2100.37M2056.35 703.763V747.792M2056.35 703.763H2100.37M2056.35 747.792H2100.37M2100.37 -132.791V-88.7615M2100.37 -132.791H2144.4M2100.37 -88.7615V-44.7324M2100.37 -88.7615H2144.4M2100.37 -44.7324V-0.703242M2100.37 -44.7324H2144.4M2100.37 -0.703242V43.3259M2100.37 -0.703242H2144.4M2100.37 43.3259V87.355M2100.37 43.3259H2144.4M2100.37 87.355V131.384M2100.37 87.355H2144.4M2100.37 131.384V175.413M2100.37 131.384H2144.4M2100.37 175.413V219.442M2100.37 175.413H2144.4M2100.37 219.442V263.472M2100.37 219.442H2144.4M2100.37 263.472V307.501M2100.37 263.472H2144.4M2100.37 307.501V351.53M2100.37 307.501H2144.4M2100.37 351.53V395.559M2100.37 351.53H2144.4M2100.37 395.559V439.588M2100.37 395.559H2144.4M2100.37 439.588V483.617M2100.37 439.588H2144.4M2100.37 483.617V527.646M2100.37 483.617H2144.4M2100.37 527.646V571.676M2100.37 527.646H2144.4M2100.37 571.676V615.705M2100.37 571.676H2144.4M2100.37 615.705V659.734M2100.37 615.705H2144.4M2100.37 659.734V703.763M2100.37 659.734H2144.4M2100.37 703.763V747.792M2100.37 703.763H2144.4M2100.37 747.792H2144.4M2144.4 -132.791V-88.7615M2144.4 -132.791H2188.43M2144.4 -88.7615V-44.7324M2144.4 -88.7615H2188.43M2144.4 -44.7324V-0.703242M2144.4 -44.7324H2188.43M2144.4 -0.703242V43.3259M2144.4 -0.703242H2188.43M2144.4 43.3259V87.355M2144.4 43.3259H2188.43M2144.4 87.355V131.384M2144.4 87.355H2188.43M2144.4 131.384V175.413M2144.4 131.384H2188.43M2144.4 175.413V219.442M2144.4 175.413H2188.43M2144.4 219.442V263.472M2144.4 219.442H2188.43M2144.4 263.472V307.501M2144.4 263.472H2188.43M2144.4 307.501V351.53M2144.4 307.501H2188.43M2144.4 351.53V395.559M2144.4 351.53H2188.43M2144.4 395.559V439.588M2144.4 395.559H2188.43M2144.4 439.588V483.617M2144.4 439.588H2188.43M2144.4 483.617V527.646M2144.4 483.617H2188.43M2144.4 527.646V571.676M2144.4 527.646H2188.43M2144.4 571.676V615.705M2144.4 571.676H2188.43M2144.4 615.705V659.734M2144.4 615.705H2188.43M2144.4 659.734V703.763M2144.4 659.734H2188.43M2144.4 703.763V747.792M2144.4 703.763H2188.43M2144.4 747.792H2188.43M2188.43 -132.791V-88.7615M2188.43 -132.791H2232.46M2188.43 -88.7615V-44.7324M2188.43 -88.7615H2232.46M2188.43 -44.7324V-0.703242M2188.43 -44.7324H2232.46M2188.43 -0.703242V43.3259M2188.43 -0.703242H2232.46M2188.43 43.3259V87.355M2188.43 43.3259H2232.46M2188.43 87.355V131.384M2188.43 87.355H2232.46M2188.43 131.384V175.413M2188.43 131.384H2232.46M2188.43 175.413V219.442M2188.43 175.413H2232.46M2188.43 219.442V263.472M2188.43 219.442H2232.46M2188.43 263.472V307.501M2188.43 263.472H2232.46M2188.43 307.501V351.53M2188.43 307.501H2232.46M2188.43 351.53V395.559M2188.43 351.53H2232.46M2188.43 395.559V439.588M2188.43 395.559H2232.46M2188.43 439.588V483.617M2188.43 439.588H2232.46M2188.43 483.617V527.646M2188.43 483.617H2232.46M2188.43 527.646V571.676M2188.43 527.646H2232.46M2188.43 571.676V615.705M2188.43 571.676H2232.46M2188.43 615.705V659.734M2188.43 615.705H2232.46M2188.43 659.734V703.763M2188.43 659.734H2232.46M2188.43 703.763V747.792M2188.43 703.763H2232.46M2188.43 747.792H2232.46M2232.46 -132.791V-88.7615M2232.46 -132.791H2276.49V-88.7615M2232.46 -88.7615V-44.7324M2232.46 -88.7615H2276.49M2232.46 -44.7324V-0.703242M2232.46 -44.7324H2276.49M2232.46 -0.703242V43.3259M2232.46 -0.703242H2276.49M2232.46 43.3259V87.355M2232.46 43.3259H2276.49M2232.46 87.355V131.384M2232.46 87.355H2276.49M2232.46 131.384V175.413M2232.46 131.384H2276.49M2232.46 175.413V219.442M2232.46 175.413H2276.49M2232.46 219.442V263.472M2232.46 219.442H2276.49M2232.46 263.472V307.501M2232.46 263.472H2276.49M2232.46 307.501V351.53M2232.46 307.501H2276.49M2232.46 351.53V395.559M2232.46 351.53H2276.49M2232.46 395.559V439.588M2232.46 395.559H2276.49M2232.46 439.588V483.617M2232.46 439.588H2276.49M2232.46 483.617V527.646M2232.46 483.617H2276.49M2232.46 527.646V571.676M2232.46 527.646H2276.49M2232.46 571.676V615.705M2232.46 571.676H2276.49M2232.46 615.705V659.734M2232.46 615.705H2276.49M2232.46 659.734V703.763M2232.46 659.734H2276.49M2232.46 703.763V747.792M2232.46 703.763H2276.49M2232.46 747.792H2276.49V703.763M2276.49 -88.7615V-44.7324M2276.49 -44.7324V-0.703242M2276.49 -0.703242V43.3259M2276.49 43.3259V87.355M2276.49 87.355V131.384M2276.49 131.384V175.413M2276.49 175.413V219.442M2276.49 219.442V263.472M2276.49 263.472V307.501M2276.49 307.501V351.53M2276.49 351.53V395.559M2276.49 395.559V439.588M2276.49 439.588V483.617M2276.49 483.617V527.646M2276.49 527.646V571.676M2276.49 571.676V615.705M2276.49 615.705V659.734M2276.49 659.734V703.763" stroke="url(#paint1_radial_1318_6452)" stroke-width="0.8"/>
</g>
</g>
<path d="M1440 0H1441V-1H1440V0ZM0 1H1440V-1H0V1ZM1439 0V764H1441V0H1439Z" fill="url(#paint2_linear_1318_6452)" fill-opacity="0.24" mask="url(#path-1-inside-1_1318_6452)"/>
<defs>
<radialGradient id="paint0_radial_1318_6452" cx="0" cy="0" r="1" gradientUnits="userSpaceOnUse" gradientTransform="translate(1307.85 307.5) rotate(90) scale(453.5 792.861)">
<stop offset="0.665789" stop-color="white"/>
<stop offset="1" stop-color="white" stop-opacity="0.2"/>
</radialGradient>
<radialGradient id="paint1_radial_1318_6452" cx="0" cy="0" r="1" gradientUnits="userSpaceOnUse" gradientTransform="translate(1307.85 279.342) rotate(90) scale(497.408 883.664)">
<stop offset="0.665789" stop-color="white"/>
<stop offset="1" stop-color="white" stop-opacity="0.2"/>
</radialGradient>
<linearGradient id="paint2_linear_1318_6452" x1="1803.5" y1="-249.5" x2="1149" y2="180" gradientUnits="userSpaceOnUse">
<stop stop-color="white"/>
<stop offset="1" stop-color="white" stop-opacity="0"/>
</linearGradient>
<clipPath id="clip0_1318_6452">
<path d="M0 0H1440V764H0V0Z" fill="white"/>
</clipPath>
</defs>
</svg>
