<svg width="2440" height="937" viewBox="0 0 2440 937" fill="none" xmlns="http://www.w3.org/2000/svg">
<g clip-path="url(#clip0_1466_9384)">
<g style="mix-blend-mode:soft-light" opacity="0.64">
<path d="M513.325 30.1164V43.3252M513.325 43.3252V56.5339M513.325 43.3252H500.117M513.325 43.3252H526.534M513.325 382.35V395.558M513.325 395.558V408.767M513.325 395.558H500.117M513.325 395.558H526.534M513.325 734.582V747.791M513.325 747.791V761M513.325 747.791H500.117M513.325 747.791H526.534M865.559 30.1164V43.3252M865.559 43.3252V56.5339M865.559 43.3252H852.35M865.559 43.3252H878.767M865.559 382.35V395.558M865.559 395.558V408.767M865.559 395.558H852.35M865.559 395.558H878.767M865.559 734.582V747.791M865.559 747.791V761M865.559 747.791H852.35M865.559 747.791H878.767M1217.79 30.1164V43.3252M1217.79 43.3252V56.5339M1217.79 43.3252H1204.58M1217.79 43.3252H1231M1217.79 382.35V395.558M1217.79 395.558V408.767M1217.79 395.558H1204.58M1217.79 395.558H1231M1217.79 734.582V747.791M1217.79 747.791V761M1217.79 747.791H1204.58M1217.79 747.791H1231M1570.02 30.1164V43.3252M1570.02 43.3252V56.5339M1570.02 43.3252H1556.82M1570.02 43.3252H1583.23M1570.02 382.35V395.558M1570.02 395.558V408.767M1570.02 395.558H1556.82M1570.02 395.558H1583.23M1570.02 734.582V747.791M1570.02 747.791V761M1570.02 747.791H1556.82M1570.02 747.791H1583.23M1922.26 30.1164V43.3252M1922.26 43.3252V56.5339M1922.26 43.3252H1909.05M1922.26 43.3252H1935.47M1922.26 382.35V395.558M1922.26 395.558V408.767M1922.26 395.558H1909.05M1922.26 395.558H1935.47M1922.26 734.582V747.791M1922.26 747.791V761M1922.26 747.791H1909.05M1922.26 747.791H1935.47M2274.49 30.1164V43.3252M2274.49 43.3252V56.5339M2274.49 43.3252H2261.28M2274.49 43.3252H2287.7M2274.49 382.35V395.558M2274.49 395.558V408.767M2274.49 395.558H2261.28M2274.49 395.558H2287.7M2274.49 734.582V747.791M2274.49 747.791V761M2274.49 747.791H2261.28M2274.49 747.791H2287.7M513.325 -146V-132.791M513.325 -132.791V-119.583M513.325 -132.791H500.117M513.325 -132.791H526.534M513.325 206.233V219.442M513.325 219.442V232.651M513.325 219.442H500.117M513.325 219.442H526.534M513.325 558.466V571.675M513.325 571.675V584.883M513.325 571.675H500.117M513.325 571.675H526.534M865.559 -146V-132.791M865.559 -132.791V-119.583M865.559 -132.791H852.35M865.559 -132.791H878.767M865.559 206.233V219.442M865.559 219.442V232.651M865.559 219.442H852.35M865.559 219.442H878.767M865.559 558.466V571.675M865.559 571.675V584.883M865.559 571.675H852.35M865.559 571.675H878.767M1217.79 -146V-132.791M1217.79 -132.791V-119.583M1217.79 -132.791H1204.58M1217.79 -132.791H1231M1217.79 206.233V219.442M1217.79 219.442V232.651M1217.79 219.442H1204.58M1217.79 219.442H1231M1217.79 558.466V571.675M1217.79 571.675V584.883M1217.79 571.675H1204.58M1217.79 571.675H1231M1570.02 -146V-132.791M1570.02 -132.791V-119.583M1570.02 -132.791H1556.82M1570.02 -132.791H1583.23M1570.02 206.233V219.442M1570.02 219.442V232.651M1570.02 219.442H1556.82M1570.02 219.442H1583.23M1570.02 558.466V571.675M1570.02 571.675V584.883M1570.02 571.675H1556.82M1570.02 571.675H1583.23M1922.26 -146V-132.791M1922.26 -132.791V-119.583M1922.26 -132.791H1909.05M1922.26 -132.791H1935.47M1922.26 206.233V219.442M1922.26 219.442V232.651M1922.26 219.442H1909.05M1922.26 219.442H1935.47M1922.26 558.466V571.675M1922.26 571.675V584.883M1922.26 571.675H1909.05M1922.26 571.675H1935.47M2274.49 -146V-132.791M2274.49 -132.791V-119.583M2274.49 -132.791H2261.28M2274.49 -132.791H2287.7M2274.49 206.233V219.442M2274.49 219.442V232.651M2274.49 219.442H2261.28M2274.49 219.442H2287.7M2274.49 558.466V571.675M2274.49 571.675V584.883M2274.49 571.675H2261.28M2274.49 571.675H2287.7M337.209 30.1164V43.3252M337.209 43.3252V56.5339M337.209 43.3252H324M337.209 43.3252H350.417M337.209 382.35V395.558M337.209 395.558V408.767M337.209 395.558H324M337.209 395.558H350.417M337.209 734.582V747.791M337.209 747.791V761M337.209 747.791H324M337.209 747.791H350.417M689.442 30.1164V43.3252M689.442 43.3252V56.5339M689.442 43.3252H676.233M689.442 43.3252H702.651M689.442 382.35V395.558M689.442 395.558V408.767M689.442 395.558H676.233M689.442 395.558H702.651M689.442 734.582V747.791M689.442 747.791V761M689.442 747.791H676.233M689.442 747.791H702.651M1041.68 30.1164V43.3252M1041.68 43.3252V56.5339M1041.68 43.3252H1028.47M1041.68 43.3252H1054.88M1041.68 382.35V395.558M1041.68 395.558V408.767M1041.68 395.558H1028.47M1041.68 395.558H1054.88M1041.68 734.582V747.791M1041.68 747.791V761M1041.68 747.791H1028.47M1041.68 747.791H1054.88M1393.91 30.1164V43.3252M1393.91 43.3252V56.5339M1393.91 43.3252H1380.7M1393.91 43.3252H1407.12M1393.91 382.35V395.558M1393.91 395.558V408.767M1393.91 395.558H1380.7M1393.91 395.558H1407.12M1393.91 734.582V747.791M1393.91 747.791V761M1393.91 747.791H1380.7M1393.91 747.791H1407.12M1746.14 30.1164V43.3252M1746.14 43.3252V56.5339M1746.14 43.3252H1732.93M1746.14 43.3252H1759.35M1746.14 382.35V395.558M1746.14 395.558V408.767M1746.14 395.558H1732.93M1746.14 395.558H1759.35M1746.14 734.582V747.791M1746.14 747.791V761M1746.14 747.791H1732.93M1746.14 747.791H1759.35M2098.37 30.1164V43.3252M2098.37 43.3252V56.5339M2098.37 43.3252H2085.17M2098.37 43.3252H2111.58M2098.37 382.35V395.558M2098.37 395.558V408.767M2098.37 395.558H2085.17M2098.37 395.558H2111.58M2098.37 734.582V747.791M2098.37 747.791V761M2098.37 747.791H2085.17M2098.37 747.791H2111.58M337.209 -146V-132.791M337.209 -132.791V-119.582M337.209 -132.791H324M337.209 -132.791H350.417M337.209 206.233V219.442M337.209 219.442V232.651M337.209 219.442H324M337.209 219.442H350.417M337.209 558.466V571.675M337.209 571.675V584.883M337.209 571.675H324M337.209 571.675H350.417M689.442 -146V-132.791M689.442 -132.791V-119.583M689.442 -132.791H676.233M689.442 -132.791H702.651M689.442 206.233V219.442M689.442 219.442V232.651M689.442 219.442H676.233M689.442 219.442H702.651M689.442 558.466V571.675M689.442 571.675V584.883M689.442 571.675H676.233M689.442 571.675H702.651M1041.68 -146V-132.791M1041.68 -132.791V-119.583M1041.68 -132.791H1028.47M1041.68 -132.791H1054.88M1041.68 206.233V219.442M1041.68 219.442V232.651M1041.68 219.442H1028.47M1041.68 219.442H1054.88M1041.68 558.466V571.675M1041.68 571.675V584.883M1041.68 571.675H1028.47M1041.68 571.675H1054.88M1393.91 -146V-132.791M1393.91 -132.791V-119.583M1393.91 -132.791H1380.7M1393.91 -132.791H1407.12M1393.91 206.233V219.442M1393.91 219.442V232.651M1393.91 219.442H1380.7M1393.91 219.442H1407.12M1393.91 558.466V571.675M1393.91 571.675V584.883M1393.91 571.675H1380.7M1393.91 571.675H1407.12M1746.14 -146V-132.791M1746.14 -132.791V-119.583M1746.14 -132.791H1732.93M1746.14 -132.791H1759.35M1746.14 206.233V219.442M1746.14 219.442V232.651M1746.14 219.442H1732.93M1746.14 219.442H1759.35M1746.14 558.466V571.675M1746.14 571.675V584.883M1746.14 571.675H1732.93M1746.14 571.675H1759.35M2098.37 -146V-132.791M2098.37 -132.791V-119.583M2098.37 -132.791H2085.17M2098.37 -132.791H2111.58M2098.37 206.233V219.442M2098.37 219.442V232.651M2098.37 219.442H2085.17M2098.37 219.442H2111.58M2098.37 558.466V571.675M2098.37 571.675V584.883M2098.37 571.675H2085.17M2098.37 571.675H2111.58" stroke="url(#paint0_radial_1466_9384)" stroke-width="0.8"/>
</g>
<g style="mix-blend-mode:soft-light" opacity="0.64">
<path d="M381.238 -132.791H337.209V-88.7619M381.238 -132.791V-88.7619M381.238 -132.791H425.267M381.238 -88.7619H337.209M381.238 -88.7619V-44.7327M381.238 -88.7619H425.267M337.209 -88.7619V-44.7327M381.238 -44.7327H337.209M381.238 -44.7327V-0.703609M381.238 -44.7327H425.267M337.209 -44.7327V-0.703609M381.238 -0.703609H337.209M381.238 -0.703609V43.3255M381.238 -0.703609H425.267M337.209 -0.703609V43.3255M381.238 43.3255H337.209M381.238 43.3255V87.3547M381.238 43.3255H425.267M337.209 43.3255V87.3547M381.238 87.3547H337.209M381.238 87.3547V131.384M381.238 87.3547H425.267M337.209 87.3547V131.384M381.238 131.384H337.209M381.238 131.384V175.413M381.238 131.384H425.267M337.209 131.384V175.413M381.238 175.413H337.209M381.238 175.413V219.442M381.238 175.413H425.267M337.209 175.413V219.442M381.238 219.442H337.209M381.238 219.442V263.471M381.238 219.442H425.267M337.209 219.442V263.471M381.238 263.471H337.209M381.238 263.471V307.5M381.238 263.471H425.267M337.209 263.471V307.5M381.238 307.5H337.209M381.238 307.5V351.529M381.238 307.5H425.267M337.209 307.5V351.529M381.238 351.529H337.209M381.238 351.529V395.559M381.238 351.529H425.267M337.209 351.529V395.559M381.238 395.559H337.209M381.238 395.559V439.588M381.238 395.559H425.267M337.209 395.559V439.588M381.238 439.588H337.209M381.238 439.588V483.617M381.238 439.588H425.267M337.209 439.588V483.617M381.238 483.617H337.209M381.238 483.617V527.646M381.238 483.617H425.267M337.209 483.617V527.646M381.238 527.646H337.209M381.238 527.646V571.675M381.238 527.646H425.267M337.209 527.646V571.675M381.238 571.675H337.209M381.238 571.675V615.704M381.238 571.675H425.267M337.209 571.675V615.704M381.238 615.704H337.209M381.238 615.704V659.733M381.238 615.704H425.267M337.209 615.704V659.733M381.238 659.733H337.209M381.238 659.733V703.763M381.238 659.733H425.267M337.209 659.733V703.763M381.238 703.763H337.209M381.238 703.763V747.792M381.238 703.763H425.267M337.209 703.763V747.792H381.238M381.238 747.792H425.267M425.267 -132.791V-88.7619M425.267 -132.791H469.296M425.267 -88.7619V-44.7327M425.267 -88.7619H469.296M425.267 -44.7327V-0.703609M425.267 -44.7327H469.296M425.267 -0.703609V43.3255M425.267 -0.703609H469.296M425.267 43.3255V87.3547M425.267 43.3255H469.296M425.267 87.3547V131.384M425.267 87.3547H469.296M425.267 131.384V175.413M425.267 131.384H469.296M425.267 175.413V219.442M425.267 175.413H469.296M425.267 219.442V263.471M425.267 219.442H469.296M425.267 263.471V307.5M425.267 263.471H469.296M425.267 307.5V351.529M425.267 307.5H469.296M425.267 351.529V395.559M425.267 351.529H469.296M425.267 395.559V439.588M425.267 395.559H469.296M425.267 439.588V483.617M425.267 439.588H469.296M425.267 483.617V527.646M425.267 483.617H469.296M425.267 527.646V571.675M425.267 527.646H469.296M425.267 571.675V615.704M425.267 571.675H469.296M425.267 615.704V659.733M425.267 615.704H469.296M425.267 659.733V703.763M425.267 659.733H469.296M425.267 703.763V747.792M425.267 703.763H469.296M425.267 747.792H469.296M469.296 -132.791V-88.7619M469.296 -132.791H513.326M469.296 -88.7619V-44.7327M469.296 -88.7619H513.326M469.296 -44.7327V-0.703609M469.296 -44.7327H513.326M469.296 -0.703609V43.3255M469.296 -0.703609H513.326M469.296 43.3255V87.3547M469.296 43.3255H513.326M469.296 87.3547V131.384M469.296 87.3547H513.326M469.296 131.384V175.413M469.296 131.384H513.326M469.296 175.413V219.442M469.296 175.413H513.326M469.296 219.442V263.471M469.296 219.442H513.326M469.296 263.471V307.5M469.296 263.471H513.326M469.296 307.5V351.529M469.296 307.5H513.326M469.296 351.529V395.559M469.296 351.529H513.326M469.296 395.559V439.588M469.296 395.559H513.326M469.296 439.588V483.617M469.296 439.588H513.326M469.296 483.617V527.646M469.296 483.617H513.326M469.296 527.646V571.675M469.296 527.646H513.326M469.296 571.675V615.704M469.296 571.675H513.326M469.296 615.704V659.733M469.296 615.704H513.326M469.296 659.733V703.763M469.296 659.733H513.326M469.296 703.763V747.792M469.296 703.763H513.326M469.296 747.792H513.326M513.326 -132.791V-88.7619M513.326 -132.791H557.355M513.326 -88.7619V-44.7327M513.326 -88.7619H557.355M513.326 -44.7327V-0.703609M513.326 -44.7327H557.355M513.326 -0.703609V43.3255M513.326 -0.703609H557.355M513.326 43.3255V87.3547M513.326 43.3255H557.355M513.326 87.3547V131.384M513.326 87.3547H557.355M513.326 131.384V175.413M513.326 131.384H557.355M513.326 175.413V219.442M513.326 175.413H557.355M513.326 219.442V263.471M513.326 219.442H557.355M513.326 263.471V307.5M513.326 263.471H557.355M513.326 307.5V351.529M513.326 307.5H557.355M513.326 351.529V395.559M513.326 351.529H557.355M513.326 395.559V439.588M513.326 395.559H557.355M513.326 439.588V483.617M513.326 439.588H557.355M513.326 483.617V527.646M513.326 483.617H557.355M513.326 527.646V571.675M513.326 527.646H557.355M513.326 571.675V615.704M513.326 571.675H557.355M513.326 615.704V659.733M513.326 615.704H557.355M513.326 659.733V703.763M513.326 659.733H557.355M513.326 703.763V747.792M513.326 703.763H557.355M513.326 747.792H557.355M557.355 -132.791V-88.7619M557.355 -132.791H601.384M557.355 -88.7619V-44.7327M557.355 -88.7619H601.384M557.355 -44.7327V-0.703609M557.355 -44.7327H601.384M557.355 -0.703609V43.3255M557.355 -0.703609H601.384M557.355 43.3255V87.3547M557.355 43.3255H601.384M557.355 87.3547V131.384M557.355 87.3547H601.384M557.355 131.384V175.413M557.355 131.384H601.384M557.355 175.413V219.442M557.355 175.413H601.384M557.355 219.442V263.471M557.355 219.442H601.384M557.355 263.471V307.5M557.355 263.471H601.384M557.355 307.5V351.529M557.355 307.5H601.384M557.355 351.529V395.559M557.355 351.529H601.384M557.355 395.559V439.588M557.355 395.559H601.384M557.355 439.588V483.617M557.355 439.588H601.384M557.355 483.617V527.646M557.355 483.617H601.384M557.355 527.646V571.675M557.355 527.646H601.384M557.355 571.675V615.704M557.355 571.675H601.384M557.355 615.704V659.733M557.355 615.704H601.384M557.355 659.733V703.763M557.355 659.733H601.384M557.355 703.763V747.792M557.355 703.763H601.384M557.355 747.792H601.384M601.384 -132.791V-88.7619M601.384 -132.791H645.413M601.384 -88.7619V-44.7327M601.384 -88.7619H645.413M601.384 -44.7327V-0.703609M601.384 -44.7327H645.413M601.384 -0.703609V43.3255M601.384 -0.703609H645.413M601.384 43.3255V87.3547M601.384 43.3255H645.413M601.384 87.3547V131.384M601.384 87.3547H645.413M601.384 131.384V175.413M601.384 131.384H645.413M601.384 175.413V219.442M601.384 175.413H645.413M601.384 219.442V263.471M601.384 219.442H645.413M601.384 263.471V307.5M601.384 263.471H645.413M601.384 307.5V351.529M601.384 307.5H645.413M601.384 351.529V395.559M601.384 351.529H645.413M601.384 395.559V439.588M601.384 395.559H645.413M601.384 439.588V483.617M601.384 439.588H645.413M601.384 483.617V527.646M601.384 483.617H645.413M601.384 527.646V571.675M601.384 527.646H645.413M601.384 571.675V615.704M601.384 571.675H645.413M601.384 615.704V659.733M601.384 615.704H645.413M601.384 659.733V703.763M601.384 659.733H645.413M601.384 703.763V747.792M601.384 703.763H645.413M601.384 747.792H645.413M645.413 -132.791V-88.7619M645.413 -132.791H689.442M645.413 -88.7619V-44.7327M645.413 -88.7619H689.442M645.413 -44.7327V-0.703609M645.413 -44.7327H689.442M645.413 -0.703609V43.3255M645.413 -0.703609H689.442M645.413 43.3255V87.3547M645.413 43.3255H689.442M645.413 87.3547V131.384M645.413 87.3547H689.442M645.413 131.384V175.413M645.413 131.384H689.442M645.413 175.413V219.442M645.413 175.413H689.442M645.413 219.442V263.471M645.413 219.442H689.442M645.413 263.471V307.5M645.413 263.471H689.442M645.413 307.5V351.529M645.413 307.5H689.442M645.413 351.529V395.559M645.413 351.529H689.442M645.413 395.559V439.588M645.413 395.559H689.442M645.413 439.588V483.617M645.413 439.588H689.442M645.413 483.617V527.646M645.413 483.617H689.442M645.413 527.646V571.675M645.413 527.646H689.442M645.413 571.675V615.704M645.413 571.675H689.442M645.413 615.704V659.733M645.413 615.704H689.442M645.413 659.733V703.763M645.413 659.733H689.442M645.413 703.763V747.792M645.413 703.763H689.442M645.413 747.792H689.442M689.442 -132.791V-88.7619M689.442 -132.791H733.471M689.442 -88.7619V-44.7327M689.442 -88.7619H733.471M689.442 -44.7327V-0.703609M689.442 -44.7327H733.471M689.442 -0.703609V43.3255M689.442 -0.703609H733.471M689.442 43.3255V87.3547M689.442 43.3255H733.471M689.442 87.3547V131.384M689.442 87.3547H733.471M689.442 131.384V175.413M689.442 131.384H733.471M689.442 175.413V219.442M689.442 175.413H733.471M689.442 219.442V263.471M689.442 219.442H733.471M689.442 263.471V307.5M689.442 263.471H733.471M689.442 307.5V351.529M689.442 307.5H733.471M689.442 351.529V395.559M689.442 351.529H733.471M689.442 395.559V439.588M689.442 395.559H733.471M689.442 439.588V483.617M689.442 439.588H733.471M689.442 483.617V527.646M689.442 483.617H733.471M689.442 527.646V571.675M689.442 527.646H733.471M689.442 571.675V615.704M689.442 571.675H733.471M689.442 615.704V659.733M689.442 615.704H733.471M689.442 659.733V703.763M689.442 659.733H733.471M689.442 703.763V747.792M689.442 703.763H733.471M689.442 747.792H733.471M733.471 -132.791V-88.7619M733.471 -132.791H777.5M733.471 -88.7619V-44.7327M733.471 -88.7619H777.5M733.471 -44.7327V-0.703609M733.471 -44.7327H777.5M733.471 -0.703609V43.3255M733.471 -0.703609H777.5M733.471 43.3255V87.3547M733.471 43.3255H777.5M733.471 87.3547V131.384M733.471 87.3547H777.5M733.471 131.384V175.413M733.471 131.384H777.5M733.471 175.413V219.442M733.471 175.413H777.5M733.471 219.442V263.471M733.471 219.442H777.5M733.471 263.471V307.5M733.471 263.471H777.5M733.471 307.5V351.529M733.471 307.5H777.5M733.471 351.529V395.559M733.471 351.529H777.5M733.471 395.559V439.588M733.471 395.559H777.5M733.471 439.588V483.617M733.471 439.588H777.5M733.471 483.617V527.646M733.471 483.617H777.5M733.471 527.646V571.675M733.471 527.646H777.5M733.471 571.675V615.704M733.471 571.675H777.5M733.471 615.704V659.733M733.471 615.704H777.5M733.471 659.733V703.763M733.471 659.733H777.5M733.471 703.763V747.792M733.471 703.763H777.5M733.471 747.792H777.5M777.5 -132.791V-88.7619M777.5 -132.791H821.53M777.5 -88.7619V-44.7327M777.5 -88.7619H821.53M777.5 -44.7327V-0.703609M777.5 -44.7327H821.53M777.5 -0.703609V43.3255M777.5 -0.703609H821.53M777.5 43.3255V87.3547M777.5 43.3255H821.53M777.5 87.3547V131.384M777.5 87.3547H821.53M777.5 131.384V175.413M777.5 131.384H821.53M777.5 175.413V219.442M777.5 175.413H821.53M777.5 219.442V263.471M777.5 219.442H821.53M777.5 263.471V307.5M777.5 263.471H821.53M777.5 307.5V351.529M777.5 307.5H821.53M777.5 351.529V395.559M777.5 351.529H821.53M777.5 395.559V439.588M777.5 395.559H821.53M777.5 439.588V483.617M777.5 439.588H821.53M777.5 483.617V527.646M777.5 483.617H821.53M777.5 527.646V571.675M777.5 527.646H821.53M777.5 571.675V615.704M777.5 571.675H821.53M777.5 615.704V659.733M777.5 615.704H821.53M777.5 659.733V703.763M777.5 659.733H821.53M777.5 703.763V747.792M777.5 703.763H821.53M777.5 747.792H821.53M821.53 -132.791V-88.7619M821.53 -132.791H865.559M821.53 -88.7619V-44.7327M821.53 -88.7619H865.559M821.53 -44.7327V-0.703609M821.53 -44.7327H865.559M821.53 -0.703609V43.3255M821.53 -0.703609H865.559M821.53 43.3255V87.3547M821.53 43.3255H865.559M821.53 87.3547V131.384M821.53 87.3547H865.559M821.53 131.384V175.413M821.53 131.384H865.559M821.53 175.413V219.442M821.53 175.413H865.559M821.53 219.442V263.471M821.53 219.442H865.559M821.53 263.471V307.5M821.53 263.471H865.559M821.53 307.5V351.529M821.53 307.5H865.559M821.53 351.529V395.559M821.53 351.529H865.559M821.53 395.559V439.588M821.53 395.559H865.559M821.53 439.588V483.617M821.53 439.588H865.559M821.53 483.617V527.646M821.53 483.617H865.559M821.53 527.646V571.675M821.53 527.646H865.559M821.53 571.675V615.704M821.53 571.675H865.559M821.53 615.704V659.733M821.53 615.704H865.559M821.53 659.733V703.763M821.53 659.733H865.559M821.53 703.763V747.792M821.53 703.763H865.559M821.53 747.792H865.559M865.559 -132.791V-88.7619M865.559 -132.791H909.588M865.559 -88.7619V-44.7327M865.559 -88.7619H909.588M865.559 -44.7327V-0.703609M865.559 -44.7327H909.588M865.559 -0.703609V43.3255M865.559 -0.703609H909.588M865.559 43.3255V87.3547M865.559 43.3255H909.588M865.559 87.3547V131.384M865.559 87.3547H909.588M865.559 131.384V175.413M865.559 131.384H909.588M865.559 175.413V219.442M865.559 175.413H909.588M865.559 219.442V263.471M865.559 219.442H909.588M865.559 263.471V307.5M865.559 263.471H909.588M865.559 307.5V351.529M865.559 307.5H909.588M865.559 351.529V395.559M865.559 351.529H909.588M865.559 395.559V439.588M865.559 395.559H909.588M865.559 439.588V483.617M865.559 439.588H909.588M865.559 483.617V527.646M865.559 483.617H909.588M865.559 527.646V571.675M865.559 527.646H909.588M865.559 571.675V615.704M865.559 571.675H909.588M865.559 615.704V659.733M865.559 615.704H909.588M865.559 659.733V703.763M865.559 659.733H909.588M865.559 703.763V747.792M865.559 703.763H909.588M865.559 747.792H909.588M909.588 -132.791V-88.7619M909.588 -132.791H953.617M909.588 -88.7619V-44.7327M909.588 -88.7619H953.617M909.588 -44.7327V-0.703609M909.588 -44.7327H953.617M909.588 -0.703609V43.3255M909.588 -0.703609H953.617M909.588 43.3255V87.3547M909.588 43.3255H953.617M909.588 87.3547V131.384M909.588 87.3547H953.617M909.588 131.384V175.413M909.588 131.384H953.617M909.588 175.413V219.442M909.588 175.413H953.617M909.588 219.442V263.471M909.588 219.442H953.617M909.588 263.471V307.5M909.588 263.471H953.617M909.588 307.5V351.529M909.588 307.5H953.617M909.588 351.529V395.559M909.588 351.529H953.617M909.588 395.559V439.588M909.588 395.559H953.617M909.588 439.588V483.617M909.588 439.588H953.617M909.588 483.617V527.646M909.588 483.617H953.617M909.588 527.646V571.675M909.588 527.646H953.617M909.588 571.675V615.704M909.588 571.675H953.617M909.588 615.704V659.733M909.588 615.704H953.617M909.588 659.733V703.763M909.588 659.733H953.617M909.588 703.763V747.792M909.588 703.763H953.617M909.588 747.792H953.617M953.617 -132.791V-88.7619M953.617 -132.791H997.646M953.617 -88.7619V-44.7327M953.617 -88.7619H997.646M953.617 -44.7327V-0.703609M953.617 -44.7327H997.646M953.617 -0.703609V43.3255M953.617 -0.703609H997.646M953.617 43.3255V87.3547M953.617 43.3255H997.646M953.617 87.3547V131.384M953.617 87.3547H997.646M953.617 131.384V175.413M953.617 131.384H997.646M953.617 175.413V219.442M953.617 175.413H997.646M953.617 219.442V263.471M953.617 219.442H997.646M953.617 263.471V307.5M953.617 263.471H997.646M953.617 307.5V351.529M953.617 307.5H997.646M953.617 351.529V395.559M953.617 351.529H997.646M953.617 395.559V439.588M953.617 395.559H997.646M953.617 439.588V483.617M953.617 439.588H997.646M953.617 483.617V527.646M953.617 483.617H997.646M953.617 527.646V571.675M953.617 527.646H997.646M953.617 571.675V615.704M953.617 571.675H997.646M953.617 615.704V659.733M953.617 615.704H997.646M953.617 659.733V703.763M953.617 659.733H997.646M953.617 703.763V747.792M953.617 703.763H997.646M953.617 747.792H997.646M997.646 -132.791V-88.7619M997.646 -132.791H1041.68M997.646 -88.7619V-44.7327M997.646 -88.7619H1041.68M997.646 -44.7327V-0.703609M997.646 -44.7327H1041.68M997.646 -0.703609V43.3255M997.646 -0.703609H1041.68M997.646 43.3255V87.3547M997.646 43.3255H1041.68M997.646 87.3547V131.384M997.646 87.3547H1041.68M997.646 131.384V175.413M997.646 131.384H1041.68M997.646 175.413V219.442M997.646 175.413H1041.68M997.646 219.442V263.471M997.646 219.442H1041.68M997.646 263.471V307.5M997.646 263.471H1041.68M997.646 307.5V351.529M997.646 307.5H1041.68M997.646 351.529V395.559M997.646 351.529H1041.68M997.646 395.559V439.588M997.646 395.559H1041.68M997.646 439.588V483.617M997.646 439.588H1041.68M997.646 483.617V527.646M997.646 483.617H1041.68M997.646 527.646V571.675M997.646 527.646H1041.68M997.646 571.675V615.704M997.646 571.675H1041.68M997.646 615.704V659.733M997.646 615.704H1041.68M997.646 659.733V703.763M997.646 659.733H1041.68M997.646 703.763V747.792M997.646 703.763H1041.68M997.646 747.792H1041.68M1041.68 -132.791V-88.7619M1041.68 -132.791H1085.7M1041.68 -88.7619V-44.7327M1041.68 -88.7619H1085.7M1041.68 -44.7327V-0.703609M1041.68 -44.7327H1085.7M1041.68 -0.703609V43.3255M1041.68 -0.703609H1085.7M1041.68 43.3255V87.3547M1041.68 43.3255H1085.7M1041.68 87.3547V131.384M1041.68 87.3547H1085.7M1041.68 131.384V175.413M1041.68 131.384H1085.7M1041.68 175.413V219.442M1041.68 175.413H1085.7M1041.68 219.442V263.471M1041.68 219.442H1085.7M1041.68 263.471V307.5M1041.68 263.471H1085.7M1041.68 307.5V351.529M1041.68 307.5H1085.7M1041.68 351.529V395.559M1041.68 351.529H1085.7M1041.68 395.559V439.588M1041.68 395.559H1085.7M1041.68 439.588V483.617M1041.68 439.588H1085.7M1041.68 483.617V527.646M1041.68 483.617H1085.7M1041.68 527.646V571.675M1041.68 527.646H1085.7M1041.68 571.675V615.704M1041.68 571.675H1085.7M1041.68 615.704V659.733M1041.68 615.704H1085.7M1041.68 659.733V703.763M1041.68 659.733H1085.7M1041.68 703.763V747.792M1041.68 703.763H1085.7M1041.68 747.792H1085.7M1085.7 -132.791V-88.7619M1085.7 -132.791H1129.73M1085.7 -88.7619V-44.7327M1085.7 -88.7619H1129.73M1085.7 -44.7327V-0.703609M1085.7 -44.7327H1129.73M1085.7 -0.703609V43.3255M1085.7 -0.703609H1129.73M1085.7 43.3255V87.3547M1085.7 43.3255H1129.73M1085.7 87.3547V131.384M1085.7 87.3547H1129.73M1085.7 131.384V175.413M1085.7 131.384H1129.73M1085.7 175.413V219.442M1085.7 175.413H1129.73M1085.7 219.442V263.471M1085.7 219.442H1129.73M1085.7 263.471V307.5M1085.7 263.471H1129.73M1085.7 307.5V351.529M1085.7 307.5H1129.73M1085.7 351.529V395.559M1085.7 351.529H1129.73M1085.7 395.559V439.588M1085.7 395.559H1129.73M1085.7 439.588V483.617M1085.7 439.588H1129.73M1085.7 483.617V527.646M1085.7 483.617H1129.73M1085.7 527.646V571.675M1085.7 527.646H1129.73M1085.7 571.675V615.704M1085.7 571.675H1129.73M1085.7 615.704V659.733M1085.7 615.704H1129.73M1085.7 659.733V703.763M1085.7 659.733H1129.73M1085.7 703.763V747.792M1085.7 703.763H1129.73M1085.7 747.792H1129.73M1129.73 -132.791V-88.7619M1129.73 -132.791H1173.76M1129.73 -88.7619V-44.7327M1129.73 -88.7619H1173.76M1129.73 -44.7327V-0.703609M1129.73 -44.7327H1173.76M1129.73 -0.703609V43.3255M1129.73 -0.703609H1173.76M1129.73 43.3255V87.3547M1129.73 43.3255H1173.76M1129.73 87.3547V131.384M1129.73 87.3547H1173.76M1129.73 131.384V175.413M1129.73 131.384H1173.76M1129.73 175.413V219.442M1129.73 175.413H1173.76M1129.73 219.442V263.471M1129.73 219.442H1173.76M1129.73 263.471V307.5M1129.73 263.471H1173.76M1129.73 307.5V351.529M1129.73 307.5H1173.76M1129.73 351.529V395.559M1129.73 351.529H1173.76M1129.73 395.559V439.588M1129.73 395.559H1173.76M1129.73 439.588V483.617M1129.73 439.588H1173.76M1129.73 483.617V527.646M1129.73 483.617H1173.76M1129.73 527.646V571.675M1129.73 527.646H1173.76M1129.73 571.675V615.704M1129.73 571.675H1173.76M1129.73 615.704V659.733M1129.73 615.704H1173.76M1129.73 659.733V703.763M1129.73 659.733H1173.76M1129.73 703.763V747.792M1129.73 703.763H1173.76M1129.73 747.792H1173.76M1173.76 -132.791V-88.7619M1173.76 -132.791H1217.79M1173.76 -88.7619V-44.7327M1173.76 -88.7619H1217.79M1173.76 -44.7327V-0.703609M1173.76 -44.7327H1217.79M1173.76 -0.703609V43.3255M1173.76 -0.703609H1217.79M1173.76 43.3255V87.3547M1173.76 43.3255H1217.79M1173.76 87.3547V131.384M1173.76 87.3547H1217.79M1173.76 131.384V175.413M1173.76 131.384H1217.79M1173.76 175.413V219.442M1173.76 175.413H1217.79M1173.76 219.442V263.471M1173.76 219.442H1217.79M1173.76 263.471V307.5M1173.76 263.471H1217.79M1173.76 307.5V351.529M1173.76 307.5H1217.79M1173.76 351.529V395.559M1173.76 351.529H1217.79M1173.76 395.559V439.588M1173.76 395.559H1217.79M1173.76 439.588V483.617M1173.76 439.588H1217.79M1173.76 483.617V527.646M1173.76 483.617H1217.79M1173.76 527.646V571.675M1173.76 527.646H1217.79M1173.76 571.675V615.704M1173.76 571.675H1217.79M1173.76 615.704V659.733M1173.76 615.704H1217.79M1173.76 659.733V703.763M1173.76 659.733H1217.79M1173.76 703.763V747.792M1173.76 703.763H1217.79M1173.76 747.792H1217.79M1217.79 -132.791V-88.7619M1217.79 -132.791H1261.82M1217.79 -88.7619V-44.7327M1217.79 -88.7619H1261.82M1217.79 -44.7327V-0.703609M1217.79 -44.7327H1261.82M1217.79 -0.703609V43.3255M1217.79 -0.703609H1261.82M1217.79 43.3255V87.3547M1217.79 43.3255H1261.82M1217.79 87.3547V131.384M1217.79 87.3547H1261.82M1217.79 131.384V175.413M1217.79 131.384H1261.82M1217.79 175.413V219.442M1217.79 175.413H1261.82M1217.79 219.442V263.471M1217.79 219.442H1261.82M1217.79 263.471V307.5M1217.79 263.471H1261.82M1217.79 307.5V351.529M1217.79 307.5H1261.82M1217.79 351.529V395.559M1217.79 351.529H1261.82M1217.79 395.559V439.588M1217.79 395.559H1261.82M1217.79 439.588V483.617M1217.79 439.588H1261.82M1217.79 483.617V527.646M1217.79 483.617H1261.82M1217.79 527.646V571.675M1217.79 527.646H1261.82M1217.79 571.675V615.704M1217.79 571.675H1261.82M1217.79 615.704V659.733M1217.79 615.704H1261.82M1217.79 659.733V703.763M1217.79 659.733H1261.82M1217.79 703.763V747.792M1217.79 703.763H1261.82M1217.79 747.792H1261.82M1261.82 -132.791V-88.7619M1261.82 -132.791H1305.85M1261.82 -88.7619V-44.7327M1261.82 -88.7619H1305.85M1261.82 -44.7327V-0.703609M1261.82 -44.7327H1305.85M1261.82 -0.703609V43.3255M1261.82 -0.703609H1305.85M1261.82 43.3255V87.3547M1261.82 43.3255H1305.85M1261.82 87.3547V131.384M1261.82 87.3547H1305.85M1261.82 131.384V175.413M1261.82 131.384H1305.85M1261.82 175.413V219.442M1261.82 175.413H1305.85M1261.82 219.442V263.471M1261.82 219.442H1305.85M1261.82 263.471V307.5M1261.82 263.471H1305.85M1261.82 307.5V351.529M1261.82 307.5H1305.85M1261.82 351.529V395.559M1261.82 351.529H1305.85M1261.82 395.559V439.588M1261.82 395.559H1305.85M1261.82 439.588V483.617M1261.82 439.588H1305.85M1261.82 483.617V527.646M1261.82 483.617H1305.85M1261.82 527.646V571.675M1261.82 527.646H1305.85M1261.82 571.675V615.704M1261.82 571.675H1305.85M1261.82 615.704V659.733M1261.82 615.704H1305.85M1261.82 659.733V703.763M1261.82 659.733H1305.85M1261.82 703.763V747.792M1261.82 703.763H1305.85M1261.82 747.792H1305.85M1305.85 -132.791V-88.7619M1305.85 -132.791H1349.88M1305.85 -88.7619V-44.7327M1305.85 -88.7619H1349.88M1305.85 -44.7327V-0.703609M1305.85 -44.7327H1349.88M1305.85 -0.703609V43.3255M1305.85 -0.703609H1349.88M1305.85 43.3255V87.3547M1305.85 43.3255H1349.88M1305.85 87.3547V131.384M1305.85 87.3547H1349.88M1305.85 131.384V175.413M1305.85 131.384H1349.88M1305.85 175.413V219.442M1305.85 175.413H1349.88M1305.85 219.442V263.471M1305.85 219.442H1349.88M1305.85 263.471V307.5M1305.85 263.471H1349.88M1305.85 307.5V351.529M1305.85 307.5H1349.88M1305.85 351.529V395.559M1305.85 351.529H1349.88M1305.85 395.559V439.588M1305.85 395.559H1349.88M1305.85 439.588V483.617M1305.85 439.588H1349.88M1305.85 483.617V527.646M1305.85 483.617H1349.88M1305.85 527.646V571.675M1305.85 527.646H1349.88M1305.85 571.675V615.704M1305.85 571.675H1349.88M1305.85 615.704V659.733M1305.85 615.704H1349.88M1305.85 659.733V703.763M1305.85 659.733H1349.88M1305.85 703.763V747.792M1305.85 703.763H1349.88M1305.85 747.792H1349.88M1349.88 -132.791V-88.7619M1349.88 -132.791H1393.91M1349.88 -88.7619V-44.7327M1349.88 -88.7619H1393.91M1349.88 -44.7327V-0.703609M1349.88 -44.7327H1393.91M1349.88 -0.703609V43.3255M1349.88 -0.703609H1393.91M1349.88 43.3255V87.3547M1349.88 43.3255H1393.91M1349.88 87.3547V131.384M1349.88 87.3547H1393.91M1349.88 131.384V175.413M1349.88 131.384H1393.91M1349.88 175.413V219.442M1349.88 175.413H1393.91M1349.88 219.442V263.471M1349.88 219.442H1393.91M1349.88 263.471V307.5M1349.88 263.471H1393.91M1349.88 307.5V351.529M1349.88 307.5H1393.91M1349.88 351.529V395.559M1349.88 351.529H1393.91M1349.88 395.559V439.588M1349.88 395.559H1393.91M1349.88 439.588V483.617M1349.88 439.588H1393.91M1349.88 483.617V527.646M1349.88 483.617H1393.91M1349.88 527.646V571.675M1349.88 527.646H1393.91M1349.88 571.675V615.704M1349.88 571.675H1393.91M1349.88 615.704V659.733M1349.88 615.704H1393.91M1349.88 659.733V703.763M1349.88 659.733H1393.91M1349.88 703.763V747.792M1349.88 703.763H1393.91M1349.88 747.792H1393.91M1393.91 -132.791V-88.7619M1393.91 -132.791H1437.94M1393.91 -88.7619V-44.7327M1393.91 -88.7619H1437.94M1393.91 -44.7327V-0.703609M1393.91 -44.7327H1437.94M1393.91 -0.703609V43.3255M1393.91 -0.703609H1437.94M1393.91 43.3255V87.3547M1393.91 43.3255H1437.94M1393.91 87.3547V131.384M1393.91 87.3547H1437.94M1393.91 131.384V175.413M1393.91 131.384H1437.94M1393.91 175.413V219.442M1393.91 175.413H1437.94M1393.91 219.442V263.471M1393.91 219.442H1437.94M1393.91 263.471V307.5M1393.91 263.471H1437.94M1393.91 307.5V351.529M1393.91 307.5H1437.94M1393.91 351.529V395.559M1393.91 351.529H1437.94M1393.91 395.559V439.588M1393.91 395.559H1437.94M1393.91 439.588V483.617M1393.91 439.588H1437.94M1393.91 483.617V527.646M1393.91 483.617H1437.94M1393.91 527.646V571.675M1393.91 527.646H1437.94M1393.91 571.675V615.704M1393.91 571.675H1437.94M1393.91 615.704V659.733M1393.91 615.704H1437.94M1393.91 659.733V703.763M1393.91 659.733H1437.94M1393.91 703.763V747.792M1393.91 703.763H1437.94M1393.91 747.792H1437.94M1437.94 -132.791V-88.7619M1437.94 -132.791H1481.97M1437.94 -88.7619V-44.7327M1437.94 -88.7619H1481.97M1437.94 -44.7327V-0.703609M1437.94 -44.7327H1481.97M1437.94 -0.703609V43.3255M1437.94 -0.703609H1481.97M1437.94 43.3255V87.3547M1437.94 43.3255H1481.97M1437.94 87.3547V131.384M1437.94 87.3547H1481.97M1437.94 131.384V175.413M1437.94 131.384H1481.97M1437.94 175.413V219.442M1437.94 175.413H1481.97M1437.94 219.442V263.471M1437.94 219.442H1481.97M1437.94 263.471V307.5M1437.94 263.471H1481.97M1437.94 307.5V351.529M1437.94 307.5H1481.97M1437.94 351.529V395.559M1437.94 351.529H1481.97M1437.94 395.559V439.588M1437.94 395.559H1481.97M1437.94 439.588V483.617M1437.94 439.588H1481.97M1437.94 483.617V527.646M1437.94 483.617H1481.97M1437.94 527.646V571.675M1437.94 527.646H1481.97M1437.94 571.675V615.704M1437.94 571.675H1481.97M1437.94 615.704V659.733M1437.94 615.704H1481.97M1437.94 659.733V703.763M1437.94 659.733H1481.97M1437.94 703.763V747.792M1437.94 703.763H1481.97M1437.94 747.792H1481.97M1481.97 -132.791V-88.7619M1481.97 -132.791H1526M1481.97 -88.7619V-44.7327M1481.97 -88.7619H1526M1481.97 -44.7327V-0.703609M1481.97 -44.7327H1526M1481.97 -0.703609V43.3255M1481.97 -0.703609H1526M1481.97 43.3255V87.3547M1481.97 43.3255H1526M1481.97 87.3547V131.384M1481.97 87.3547H1526M1481.97 131.384V175.413M1481.97 131.384H1526M1481.97 175.413V219.442M1481.97 175.413H1526M1481.97 219.442V263.471M1481.97 219.442H1526M1481.97 263.471V307.5M1481.97 263.471H1526M1481.97 307.5V351.529M1481.97 307.5H1526M1481.97 351.529V395.559M1481.97 351.529H1526M1481.97 395.559V439.588M1481.97 395.559H1526M1481.97 439.588V483.617M1481.97 439.588H1526M1481.97 483.617V527.646M1481.97 483.617H1526M1481.97 527.646V571.675M1481.97 527.646H1526M1481.97 571.675V615.704M1481.97 571.675H1526M1481.97 615.704V659.733M1481.97 615.704H1526M1481.97 659.733V703.763M1481.97 659.733H1526M1481.97 703.763V747.792M1481.97 703.763H1526M1481.97 747.792H1526M1526 -132.791V-88.7619M1526 -132.791H1570.03M1526 -88.7619V-44.7327M1526 -88.7619H1570.03M1526 -44.7327V-0.703609M1526 -44.7327H1570.03M1526 -0.703609V43.3255M1526 -0.703609H1570.03M1526 43.3255V87.3547M1526 43.3255H1570.03M1526 87.3547V131.384M1526 87.3547H1570.03M1526 131.384V175.413M1526 131.384H1570.03M1526 175.413V219.442M1526 175.413H1570.03M1526 219.442V263.471M1526 219.442H1570.03M1526 263.471V307.5M1526 263.471H1570.03M1526 307.5V351.529M1526 307.5H1570.03M1526 351.529V395.559M1526 351.529H1570.03M1526 395.559V439.588M1526 395.559H1570.03M1526 439.588V483.617M1526 439.588H1570.03M1526 483.617V527.646M1526 483.617H1570.03M1526 527.646V571.675M1526 527.646H1570.03M1526 571.675V615.704M1526 571.675H1570.03M1526 615.704V659.733M1526 615.704H1570.03M1526 659.733V703.763M1526 659.733H1570.03M1526 703.763V747.792M1526 703.763H1570.03M1526 747.792H1570.03M1570.03 -132.791V-88.7619M1570.03 -132.791H1614.05M1570.03 -88.7619V-44.7327M1570.03 -88.7619H1614.05M1570.03 -44.7327V-0.703609M1570.03 -44.7327H1614.05M1570.03 -0.703609V43.3255M1570.03 -0.703609H1614.05M1570.03 43.3255V87.3547M1570.03 43.3255H1614.05M1570.03 87.3547V131.384M1570.03 87.3547H1614.05M1570.03 131.384V175.413M1570.03 131.384H1614.05M1570.03 175.413V219.442M1570.03 175.413H1614.05M1570.03 219.442V263.471M1570.03 219.442H1614.05M1570.03 263.471V307.5M1570.03 263.471H1614.05M1570.03 307.5V351.529M1570.03 307.5H1614.05M1570.03 351.529V395.559M1570.03 351.529H1614.05M1570.03 395.559V439.588M1570.03 395.559H1614.05M1570.03 439.588V483.617M1570.03 439.588H1614.05M1570.03 483.617V527.646M1570.03 483.617H1614.05M1570.03 527.646V571.675M1570.03 527.646H1614.05M1570.03 571.675V615.704M1570.03 571.675H1614.05M1570.03 615.704V659.733M1570.03 615.704H1614.05M1570.03 659.733V703.763M1570.03 659.733H1614.05M1570.03 703.763V747.792M1570.03 703.763H1614.05M1570.03 747.792H1614.05M1614.05 -132.791V-88.7619M1614.05 -132.791H1658.08M1614.05 -88.7619V-44.7327M1614.05 -88.7619H1658.08M1614.05 -44.7327V-0.703609M1614.05 -44.7327H1658.08M1614.05 -0.703609V43.3255M1614.05 -0.703609H1658.08M1614.05 43.3255V87.3547M1614.05 43.3255H1658.08M1614.05 87.3547V131.384M1614.05 87.3547H1658.08M1614.05 131.384V175.413M1614.05 131.384H1658.08M1614.05 175.413V219.442M1614.05 175.413H1658.08M1614.05 219.442V263.471M1614.05 219.442H1658.08M1614.05 263.471V307.5M1614.05 263.471H1658.08M1614.05 307.5V351.529M1614.05 307.5H1658.08M1614.05 351.529V395.559M1614.05 351.529H1658.08M1614.05 395.559V439.588M1614.05 395.559H1658.08M1614.05 439.588V483.617M1614.05 439.588H1658.08M1614.05 483.617V527.646M1614.05 483.617H1658.08M1614.05 527.646V571.675M1614.05 527.646H1658.08M1614.05 571.675V615.704M1614.05 571.675H1658.08M1614.05 615.704V659.733M1614.05 615.704H1658.08M1614.05 659.733V703.763M1614.05 659.733H1658.08M1614.05 703.763V747.792M1614.05 703.763H1658.08M1614.05 747.792H1658.08M1658.08 -132.791V-88.7619M1658.08 -132.791H1702.11M1658.08 -88.7619V-44.7327M1658.08 -88.7619H1702.11M1658.08 -44.7327V-0.703609M1658.08 -44.7327H1702.11M1658.08 -0.703609V43.3255M1658.08 -0.703609H1702.11M1658.08 43.3255V87.3547M1658.08 43.3255H1702.11M1658.08 87.3547V131.384M1658.08 87.3547H1702.11M1658.08 131.384V175.413M1658.08 131.384H1702.11M1658.08 175.413V219.442M1658.08 175.413H1702.11M1658.08 219.442V263.471M1658.08 219.442H1702.11M1658.08 263.471V307.5M1658.08 263.471H1702.11M1658.08 307.5V351.529M1658.08 307.5H1702.11M1658.08 351.529V395.559M1658.08 351.529H1702.11M1658.08 395.559V439.588M1658.08 395.559H1702.11M1658.08 439.588V483.617M1658.08 439.588H1702.11M1658.08 483.617V527.646M1658.08 483.617H1702.11M1658.08 527.646V571.675M1658.08 527.646H1702.11M1658.08 571.675V615.704M1658.08 571.675H1702.11M1658.08 615.704V659.733M1658.08 615.704H1702.11M1658.08 659.733V703.763M1658.08 659.733H1702.11M1658.08 703.763V747.792M1658.08 703.763H1702.11M1658.08 747.792H1702.11M1702.11 -132.791V-88.7619M1702.11 -132.791H1746.14M1702.11 -88.7619V-44.7327M1702.11 -88.7619H1746.14M1702.11 -44.7327V-0.703609M1702.11 -44.7327H1746.14M1702.11 -0.703609V43.3255M1702.11 -0.703609H1746.14M1702.11 43.3255V87.3547M1702.11 43.3255H1746.14M1702.11 87.3547V131.384M1702.11 87.3547H1746.14M1702.11 131.384V175.413M1702.11 131.384H1746.14M1702.11 175.413V219.442M1702.11 175.413H1746.14M1702.11 219.442V263.471M1702.11 219.442H1746.14M1702.11 263.471V307.5M1702.11 263.471H1746.14M1702.11 307.5V351.529M1702.11 307.5H1746.14M1702.11 351.529V395.559M1702.11 351.529H1746.14M1702.11 395.559V439.588M1702.11 395.559H1746.14M1702.11 439.588V483.617M1702.11 439.588H1746.14M1702.11 483.617V527.646M1702.11 483.617H1746.14M1702.11 527.646V571.675M1702.11 527.646H1746.14M1702.11 571.675V615.704M1702.11 571.675H1746.14M1702.11 615.704V659.733M1702.11 615.704H1746.14M1702.11 659.733V703.763M1702.11 659.733H1746.14M1702.11 703.763V747.792M1702.11 703.763H1746.14M1702.11 747.792H1746.14M1746.14 -132.791V-88.7619M1746.14 -132.791H1790.17M1746.14 -88.7619V-44.7327M1746.14 -88.7619H1790.17M1746.14 -44.7327V-0.703609M1746.14 -44.7327H1790.17M1746.14 -0.703609V43.3255M1746.14 -0.703609H1790.17M1746.14 43.3255V87.3547M1746.14 43.3255H1790.17M1746.14 87.3547V131.384M1746.14 87.3547H1790.17M1746.14 131.384V175.413M1746.14 131.384H1790.17M1746.14 175.413V219.442M1746.14 175.413H1790.17M1746.14 219.442V263.471M1746.14 219.442H1790.17M1746.14 263.471V307.5M1746.14 263.471H1790.17M1746.14 307.5V351.529M1746.14 307.5H1790.17M1746.14 351.529V395.559M1746.14 351.529H1790.17M1746.14 395.559V439.588M1746.14 395.559H1790.17M1746.14 439.588V483.617M1746.14 439.588H1790.17M1746.14 483.617V527.646M1746.14 483.617H1790.17M1746.14 527.646V571.675M1746.14 527.646H1790.17M1746.14 571.675V615.704M1746.14 571.675H1790.17M1746.14 615.704V659.733M1746.14 615.704H1790.17M1746.14 659.733V703.763M1746.14 659.733H1790.17M1746.14 703.763V747.792M1746.14 703.763H1790.17M1746.14 747.792H1790.17M1790.17 -132.791V-88.7619M1790.17 -132.791H1834.2M1790.17 -88.7619V-44.7327M1790.17 -88.7619H1834.2M1790.17 -44.7327V-0.703609M1790.17 -44.7327H1834.2M1790.17 -0.703609V43.3255M1790.17 -0.703609H1834.2M1790.17 43.3255V87.3547M1790.17 43.3255H1834.2M1790.17 87.3547V131.384M1790.17 87.3547H1834.2M1790.17 131.384V175.413M1790.17 131.384H1834.2M1790.17 175.413V219.442M1790.17 175.413H1834.2M1790.17 219.442V263.471M1790.17 219.442H1834.2M1790.17 263.471V307.5M1790.17 263.471H1834.2M1790.17 307.5V351.529M1790.17 307.5H1834.2M1790.17 351.529V395.559M1790.17 351.529H1834.2M1790.17 395.559V439.588M1790.17 395.559H1834.2M1790.17 439.588V483.617M1790.17 439.588H1834.2M1790.17 483.617V527.646M1790.17 483.617H1834.2M1790.17 527.646V571.675M1790.17 527.646H1834.2M1790.17 571.675V615.704M1790.17 571.675H1834.2M1790.17 615.704V659.733M1790.17 615.704H1834.2M1790.17 659.733V703.763M1790.17 659.733H1834.2M1790.17 703.763V747.792M1790.17 703.763H1834.2M1790.17 747.792H1834.2M1834.2 -132.791V-88.7619M1834.2 -132.791H1878.23M1834.2 -88.7619V-44.7327M1834.2 -88.7619H1878.23M1834.2 -44.7327V-0.703609M1834.2 -44.7327H1878.23M1834.2 -0.703609V43.3255M1834.2 -0.703609H1878.23M1834.2 43.3255V87.3547M1834.2 43.3255H1878.23M1834.2 87.3547V131.384M1834.2 87.3547H1878.23M1834.2 131.384V175.413M1834.2 131.384H1878.23M1834.2 175.413V219.442M1834.2 175.413H1878.23M1834.2 219.442V263.471M1834.2 219.442H1878.23M1834.2 263.471V307.5M1834.2 263.471H1878.23M1834.2 307.5V351.529M1834.2 307.5H1878.23M1834.2 351.529V395.559M1834.2 351.529H1878.23M1834.2 395.559V439.588M1834.2 395.559H1878.23M1834.2 439.588V483.617M1834.2 439.588H1878.23M1834.2 483.617V527.646M1834.2 483.617H1878.23M1834.2 527.646V571.675M1834.2 527.646H1878.23M1834.2 571.675V615.704M1834.2 571.675H1878.23M1834.2 615.704V659.733M1834.2 615.704H1878.23M1834.2 659.733V703.763M1834.2 659.733H1878.23M1834.2 703.763V747.792M1834.2 703.763H1878.23M1834.2 747.792H1878.23M1878.23 -132.791V-88.7619M1878.23 -132.791H1922.26M1878.23 -88.7619V-44.7327M1878.23 -88.7619H1922.26M1878.23 -44.7327V-0.703609M1878.23 -44.7327H1922.26M1878.23 -0.703609V43.3255M1878.23 -0.703609H1922.26M1878.23 43.3255V87.3547M1878.23 43.3255H1922.26M1878.23 87.3547V131.384M1878.23 87.3547H1922.26M1878.23 131.384V175.413M1878.23 131.384H1922.26M1878.23 175.413V219.442M1878.23 175.413H1922.26M1878.23 219.442V263.471M1878.23 219.442H1922.26M1878.23 263.471V307.5M1878.23 263.471H1922.26M1878.23 307.5V351.529M1878.23 307.5H1922.26M1878.23 351.529V395.559M1878.23 351.529H1922.26M1878.23 395.559V439.588M1878.23 395.559H1922.26M1878.23 439.588V483.617M1878.23 439.588H1922.26M1878.23 483.617V527.646M1878.23 483.617H1922.26M1878.23 527.646V571.675M1878.23 527.646H1922.26M1878.23 571.675V615.704M1878.23 571.675H1922.26M1878.23 615.704V659.733M1878.23 615.704H1922.26M1878.23 659.733V703.763M1878.23 659.733H1922.26M1878.23 703.763V747.792M1878.23 703.763H1922.26M1878.23 747.792H1922.26M1922.26 -132.791V-88.7619M1922.26 -132.791H1966.29M1922.26 -88.7619V-44.7327M1922.26 -88.7619H1966.29M1922.26 -44.7327V-0.703609M1922.26 -44.7327H1966.29M1922.26 -0.703609V43.3255M1922.26 -0.703609H1966.29M1922.26 43.3255V87.3547M1922.26 43.3255H1966.29M1922.26 87.3547V131.384M1922.26 87.3547H1966.29M1922.26 131.384V175.413M1922.26 131.384H1966.29M1922.26 175.413V219.442M1922.26 175.413H1966.29M1922.26 219.442V263.471M1922.26 219.442H1966.29M1922.26 263.471V307.5M1922.26 263.471H1966.29M1922.26 307.5V351.529M1922.26 307.5H1966.29M1922.26 351.529V395.559M1922.26 351.529H1966.29M1922.26 395.559V439.588M1922.26 395.559H1966.29M1922.26 439.588V483.617M1922.26 439.588H1966.29M1922.26 483.617V527.646M1922.26 483.617H1966.29M1922.26 527.646V571.675M1922.26 527.646H1966.29M1922.26 571.675V615.704M1922.26 571.675H1966.29M1922.26 615.704V659.733M1922.26 615.704H1966.29M1922.26 659.733V703.763M1922.26 659.733H1966.29M1922.26 703.763V747.792M1922.26 703.763H1966.29M1922.26 747.792H1966.29M1966.29 -132.791V-88.7619M1966.29 -132.791H2010.32M1966.29 -88.7619V-44.7327M1966.29 -88.7619H2010.32M1966.29 -44.7327V-0.703609M1966.29 -44.7327H2010.32M1966.29 -0.703609V43.3255M1966.29 -0.703609H2010.32M1966.29 43.3255V87.3547M1966.29 43.3255H2010.32M1966.29 87.3547V131.384M1966.29 87.3547H2010.32M1966.29 131.384V175.413M1966.29 131.384H2010.32M1966.29 175.413V219.442M1966.29 175.413H2010.32M1966.29 219.442V263.471M1966.29 219.442H2010.32M1966.29 263.471V307.5M1966.29 263.471H2010.32M1966.29 307.5V351.529M1966.29 307.5H2010.32M1966.29 351.529V395.559M1966.29 351.529H2010.32M1966.29 395.559V439.588M1966.29 395.559H2010.32M1966.29 439.588V483.617M1966.29 439.588H2010.32M1966.29 483.617V527.646M1966.29 483.617H2010.32M1966.29 527.646V571.675M1966.29 527.646H2010.32M1966.29 571.675V615.704M1966.29 571.675H2010.32M1966.29 615.704V659.733M1966.29 615.704H2010.32M1966.29 659.733V703.763M1966.29 659.733H2010.32M1966.29 703.763V747.792M1966.29 703.763H2010.32M1966.29 747.792H2010.32M2010.32 -132.791V-88.7619M2010.32 -132.791H2054.35M2010.32 -88.7619V-44.7327M2010.32 -88.7619H2054.35M2010.32 -44.7327V-0.703609M2010.32 -44.7327H2054.35M2010.32 -0.703609V43.3255M2010.32 -0.703609H2054.35M2010.32 43.3255V87.3547M2010.32 43.3255H2054.35M2010.32 87.3547V131.384M2010.32 87.3547H2054.35M2010.32 131.384V175.413M2010.32 131.384H2054.35M2010.32 175.413V219.442M2010.32 175.413H2054.35M2010.32 219.442V263.471M2010.32 219.442H2054.35M2010.32 263.471V307.5M2010.32 263.471H2054.35M2010.32 307.5V351.529M2010.32 307.5H2054.35M2010.32 351.529V395.559M2010.32 351.529H2054.35M2010.32 395.559V439.588M2010.32 395.559H2054.35M2010.32 439.588V483.617M2010.32 439.588H2054.35M2010.32 483.617V527.646M2010.32 483.617H2054.35M2010.32 527.646V571.675M2010.32 527.646H2054.35M2010.32 571.675V615.704M2010.32 571.675H2054.35M2010.32 615.704V659.733M2010.32 615.704H2054.35M2010.32 659.733V703.763M2010.32 659.733H2054.35M2010.32 703.763V747.792M2010.32 703.763H2054.35M2010.32 747.792H2054.35M2054.35 -132.791V-88.7619M2054.35 -132.791H2098.37M2054.35 -88.7619V-44.7327M2054.35 -88.7619H2098.37M2054.35 -44.7327V-0.703609M2054.35 -44.7327H2098.37M2054.35 -0.703609V43.3255M2054.35 -0.703609H2098.37M2054.35 43.3255V87.3547M2054.35 43.3255H2098.37M2054.35 87.3547V131.384M2054.35 87.3547H2098.37M2054.35 131.384V175.413M2054.35 131.384H2098.37M2054.35 175.413V219.442M2054.35 175.413H2098.37M2054.35 219.442V263.471M2054.35 219.442H2098.37M2054.35 263.471V307.5M2054.35 263.471H2098.37M2054.35 307.5V351.529M2054.35 307.5H2098.37M2054.35 351.529V395.559M2054.35 351.529H2098.37M2054.35 395.559V439.588M2054.35 395.559H2098.37M2054.35 439.588V483.617M2054.35 439.588H2098.37M2054.35 483.617V527.646M2054.35 483.617H2098.37M2054.35 527.646V571.675M2054.35 527.646H2098.37M2054.35 571.675V615.704M2054.35 571.675H2098.37M2054.35 615.704V659.733M2054.35 615.704H2098.37M2054.35 659.733V703.763M2054.35 659.733H2098.37M2054.35 703.763V747.792M2054.35 703.763H2098.37M2054.35 747.792H2098.37M2098.37 -132.791V-88.7619M2098.37 -132.791H2142.4M2098.37 -88.7619V-44.7327M2098.37 -88.7619H2142.4M2098.37 -44.7327V-0.703609M2098.37 -44.7327H2142.4M2098.37 -0.703609V43.3255M2098.37 -0.703609H2142.4M2098.37 43.3255V87.3547M2098.37 43.3255H2142.4M2098.37 87.3547V131.384M2098.37 87.3547H2142.4M2098.37 131.384V175.413M2098.37 131.384H2142.4M2098.37 175.413V219.442M2098.37 175.413H2142.4M2098.37 219.442V263.471M2098.37 219.442H2142.4M2098.37 263.471V307.5M2098.37 263.471H2142.4M2098.37 307.5V351.529M2098.37 307.5H2142.4M2098.37 351.529V395.559M2098.37 351.529H2142.4M2098.37 395.559V439.588M2098.37 395.559H2142.4M2098.37 439.588V483.617M2098.37 439.588H2142.4M2098.37 483.617V527.646M2098.37 483.617H2142.4M2098.37 527.646V571.675M2098.37 527.646H2142.4M2098.37 571.675V615.704M2098.37 571.675H2142.4M2098.37 615.704V659.733M2098.37 615.704H2142.4M2098.37 659.733V703.763M2098.37 659.733H2142.4M2098.37 703.763V747.792M2098.37 703.763H2142.4M2098.37 747.792H2142.4M2142.4 -132.791V-88.7619M2142.4 -132.791H2186.43M2142.4 -88.7619V-44.7327M2142.4 -88.7619H2186.43M2142.4 -44.7327V-0.703609M2142.4 -44.7327H2186.43M2142.4 -0.703609V43.3255M2142.4 -0.703609H2186.43M2142.4 43.3255V87.3547M2142.4 43.3255H2186.43M2142.4 87.3547V131.384M2142.4 87.3547H2186.43M2142.4 131.384V175.413M2142.4 131.384H2186.43M2142.4 175.413V219.442M2142.4 175.413H2186.43M2142.4 219.442V263.471M2142.4 219.442H2186.43M2142.4 263.471V307.5M2142.4 263.471H2186.43M2142.4 307.5V351.529M2142.4 307.5H2186.43M2142.4 351.529V395.559M2142.4 351.529H2186.43M2142.4 395.559V439.588M2142.4 395.559H2186.43M2142.4 439.588V483.617M2142.4 439.588H2186.43M2142.4 483.617V527.646M2142.4 483.617H2186.43M2142.4 527.646V571.675M2142.4 527.646H2186.43M2142.4 571.675V615.704M2142.4 571.675H2186.43M2142.4 615.704V659.733M2142.4 615.704H2186.43M2142.4 659.733V703.763M2142.4 659.733H2186.43M2142.4 703.763V747.792M2142.4 703.763H2186.43M2142.4 747.792H2186.43M2186.43 -132.791V-88.7619M2186.43 -132.791H2230.46M2186.43 -88.7619V-44.7327M2186.43 -88.7619H2230.46M2186.43 -44.7327V-0.703609M2186.43 -44.7327H2230.46M2186.43 -0.703609V43.3255M2186.43 -0.703609H2230.46M2186.43 43.3255V87.3547M2186.43 43.3255H2230.46M2186.43 87.3547V131.384M2186.43 87.3547H2230.46M2186.43 131.384V175.413M2186.43 131.384H2230.46M2186.43 175.413V219.442M2186.43 175.413H2230.46M2186.43 219.442V263.471M2186.43 219.442H2230.46M2186.43 263.471V307.5M2186.43 263.471H2230.46M2186.43 307.5V351.529M2186.43 307.5H2230.46M2186.43 351.529V395.559M2186.43 351.529H2230.46M2186.43 395.559V439.588M2186.43 395.559H2230.46M2186.43 439.588V483.617M2186.43 439.588H2230.46M2186.43 483.617V527.646M2186.43 483.617H2230.46M2186.43 527.646V571.675M2186.43 527.646H2230.46M2186.43 571.675V615.704M2186.43 571.675H2230.46M2186.43 615.704V659.733M2186.43 615.704H2230.46M2186.43 659.733V703.763M2186.43 659.733H2230.46M2186.43 703.763V747.792M2186.43 703.763H2230.46M2186.43 747.792H2230.46M2230.46 -132.791V-88.7619M2230.46 -132.791H2274.49V-88.7619M2230.46 -88.7619V-44.7327M2230.46 -88.7619H2274.49M2230.46 -44.7327V-0.703609M2230.46 -44.7327H2274.49M2230.46 -0.703609V43.3255M2230.46 -0.703609H2274.49M2230.46 43.3255V87.3547M2230.46 43.3255H2274.49M2230.46 87.3547V131.384M2230.46 87.3547H2274.49M2230.46 131.384V175.413M2230.46 131.384H2274.49M2230.46 175.413V219.442M2230.46 175.413H2274.49M2230.46 219.442V263.471M2230.46 219.442H2274.49M2230.46 263.471V307.5M2230.46 263.471H2274.49M2230.46 307.5V351.529M2230.46 307.5H2274.49M2230.46 351.529V395.559M2230.46 351.529H2274.49M2230.46 395.559V439.588M2230.46 395.559H2274.49M2230.46 439.588V483.617M2230.46 439.588H2274.49M2230.46 483.617V527.646M2230.46 483.617H2274.49M2230.46 527.646V571.675M2230.46 527.646H2274.49M2230.46 571.675V615.704M2230.46 571.675H2274.49M2230.46 615.704V659.733M2230.46 615.704H2274.49M2230.46 659.733V703.763M2230.46 659.733H2274.49M2230.46 703.763V747.792M2230.46 703.763H2274.49M2230.46 747.792H2274.49V703.763M2274.49 -88.7619V-44.7327M2274.49 -44.7327V-0.703609M2274.49 -0.703609V43.3255M2274.49 43.3255V87.3547M2274.49 87.3547V131.384M2274.49 131.384V175.413M2274.49 175.413V219.442M2274.49 219.442V263.471M2274.49 263.471V307.5M2274.49 307.5V351.529M2274.49 351.529V395.559M2274.49 395.559V439.588M2274.49 439.588V483.617M2274.49 483.617V527.646M2274.49 527.646V571.675M2274.49 571.675V615.704M2274.49 615.704V659.733M2274.49 659.733V703.763" stroke="url(#paint1_radial_1466_9384)" stroke-width="0.8"/>
</g>
</g>
<path d="M2440 0H2441V-1H2440V0ZM0 1H2440V-1H0V1ZM2439 0V937H2441V0H2439Z" fill="url(#paint2_linear_1466_9384)" fill-opacity="0.24" mask="url(#path-1-inside-1_1466_9384)"/>
<defs>
<radialGradient id="paint0_radial_1466_9384" cx="0" cy="0" r="1" gradientUnits="userSpaceOnUse" gradientTransform="translate(1305.85 307.5) rotate(90) scale(453.5 792.861)">
<stop offset="0.665789" stop-color="white"/>
<stop offset="1" stop-color="white" stop-opacity="0.2"/>
</radialGradient>
<radialGradient id="paint1_radial_1466_9384" cx="0" cy="0" r="1" gradientUnits="userSpaceOnUse" gradientTransform="translate(1305.85 279.341) rotate(90) scale(497.408 883.664)">
<stop offset="0.665789" stop-color="white"/>
<stop offset="1" stop-color="white" stop-opacity="0.2"/>
</radialGradient>
<linearGradient id="paint2_linear_1466_9384" x1="3055.93" y1="-305.997" x2="2185.13" y2="483.504" gradientUnits="userSpaceOnUse">
<stop stop-color="white"/>
<stop offset="1" stop-color="white" stop-opacity="0"/>
</linearGradient>
<clipPath id="clip0_1466_9384">
<path d="M0 0H2440V937H0V0Z" fill="white"/>
</clipPath>
</defs>
</svg>
