<svg width="766" height="833" viewBox="0 0 766 833" fill="none" xmlns="http://www.w3.org/2000/svg">
<path d="M473.791 380.484H310.409L134 203.532H653.457L473.791 380.484Z" fill="url(#paint0_linear_765_6134)" fill-opacity="0.16"/>
<g filter="url(#filter0_f_765_6134)">
<circle cx="416.5" cy="416.5" r="236.5" fill="url(#paint1_radial_765_6134)" fill-opacity="0.05"/>
</g>
<g filter="url(#filter1_b_765_6134)">
<path d="M473.504 547.123L522.644 501.08L522.643 334.347L473.504 380.389V501.081V547.123Z" fill="url(#paint2_linear_765_6134)" fill-opacity="0.06"/>
<path d="M359.006 501.081L309.867 547.123V380.389L359.006 334.347V380.389V501.081Z" fill="url(#paint3_linear_765_6134)" fill-opacity="0.06"/>
<path d="M359.006 501.081L309.867 547.123H473.504V501.081L359.006 501.081Z" fill="url(#paint4_linear_765_6134)" fill-opacity="0.06"/>
<path d="M359.006 380.389V501.081L473.504 501.081V380.389H359.006Z" fill="url(#paint5_linear_765_6134)" fill-opacity="0.06"/>
<path d="M473.504 380.389L522.643 334.347H359.006V380.389H473.504Z" fill="url(#paint6_linear_765_6134)" fill-opacity="0.06"/>
<path d="M522.644 501.08L473.504 547.123M522.644 501.08L522.643 334.347M522.644 501.08L473.504 501.081M473.504 547.123H309.867M473.504 547.123V501.081M309.867 547.123L359.006 501.081M309.867 547.123V380.389M359.006 501.081L473.504 501.081M359.006 501.081V380.389M522.643 334.347L473.504 380.389M522.643 334.347H359.006M473.504 380.389V501.081M473.504 380.389H359.006M309.867 380.389L359.006 334.347M309.867 380.389H359.006M359.006 334.347V380.389" stroke="white" stroke-opacity="0.24" stroke-width="1.2" stroke-linejoin="round"/>
</g>
<path d="M359.006 501.081L309.867 547.123H473.504V501.081L359.006 501.081Z" fill="url(#paint7_linear_765_6134)" fill-opacity="0.16"/>
<path d="M473.504 380.389L522.643 334.347H359.006V380.389H473.504Z" fill="url(#paint8_linear_765_6134)" fill-opacity="0.16"/>
<path d="M359.006 334.347L309.867 380.389H359.006V334.347Z" fill="url(#paint9_linear_765_6134)" fill-opacity="0.16"/>
<path d="M473.504 547.123L522.644 501.08L473.504 501.081V547.123Z" fill="url(#paint10_linear_765_6134)" fill-opacity="0.16"/>
<path d="M355.807 501.081C355.807 502.849 357.24 504.281 359.007 504.281C360.774 504.281 362.207 502.849 362.207 501.081C362.207 499.314 360.774 497.881 359.007 497.881C357.24 497.881 355.807 499.314 355.807 501.081ZM519.444 501.081C519.444 502.849 520.877 504.281 522.644 504.281C524.411 504.281 525.844 502.849 525.844 501.081C525.844 499.314 524.411 497.881 522.644 497.881C520.877 497.881 519.444 499.314 519.444 501.081ZM359.007 501.681H522.644V500.481H359.007V501.681Z" fill="white" fill-opacity="0.64"/>
<path d="M355.807 334.347C355.807 336.114 357.24 337.547 359.007 337.547C360.774 337.547 362.207 336.114 362.207 334.347C362.207 332.579 360.774 331.147 359.007 331.147C357.24 331.147 355.807 332.579 355.807 334.347ZM519.444 334.347C519.444 336.114 520.877 337.547 522.644 337.547C524.411 337.547 525.844 336.114 525.844 334.347C525.844 332.579 524.411 331.147 522.644 331.147C520.877 331.147 519.444 332.579 519.444 334.347ZM359.007 334.947H522.644V333.747H359.007V334.947Z" fill="white" fill-opacity="0.64"/>
<path d="M470.304 547.123C470.304 548.89 471.736 550.323 473.504 550.323C475.271 550.323 476.704 548.89 476.704 547.123C476.704 545.356 475.271 543.923 473.504 543.923C471.736 543.923 470.304 545.356 470.304 547.123ZM306.667 547.123C306.667 548.89 308.099 550.323 309.867 550.323C311.634 550.323 313.067 548.89 313.067 547.123C313.067 545.356 311.634 543.923 309.867 543.923C308.099 543.923 306.667 545.356 306.667 547.123ZM473.504 546.523H309.867V547.723H473.504V546.523Z" fill="white" fill-opacity="0.64"/>
<path d="M470.304 380.388C470.304 382.156 471.737 383.588 473.504 383.588C475.271 383.588 476.704 382.156 476.704 380.388C476.704 378.621 475.271 377.188 473.504 377.188C471.737 377.188 470.304 378.621 470.304 380.388ZM306.667 380.388C306.667 382.156 308.099 383.588 309.867 383.588C311.634 383.588 313.067 382.156 313.067 380.388C313.067 378.621 311.634 377.188 309.867 377.188C308.099 377.188 306.667 378.621 306.667 380.388ZM473.504 379.788H309.867V380.988H473.504V379.788Z" fill="white" fill-opacity="0.64"/>
<g filter="url(#filter2_bf_765_6134)">
<path d="M576.168 301.653C578.107 295.532 563.643 285.491 543.863 279.226C524.082 272.961 506.476 272.843 504.537 278.963L503.356 282.691C503.161 283.309 503.132 283.966 503.259 284.656C504.391 290.799 517.877 299.485 535.661 305.118C553.446 310.751 569.473 311.415 573.936 307.043C574.436 306.552 574.792 305.998 574.987 305.38L576.168 301.653Z" fill="url(#paint11_linear_765_6134)" fill-opacity="0.16"/>
<path d="M504.537 278.963C506.476 272.843 524.082 272.961 543.863 279.226C563.643 285.491 578.107 295.532 576.168 301.653M504.537 278.963C504.341 279.581 504.313 280.239 504.44 280.928C504.443 280.948 504.447 280.967 504.451 280.987C505.658 287.127 519.115 295.775 536.842 301.39C554.57 307.006 570.551 307.683 575.073 303.357C575.088 303.343 575.102 303.329 575.116 303.315C575.617 302.824 575.972 302.27 576.168 301.653M504.537 278.963L503.356 282.691C503.161 283.309 503.132 283.966 503.259 284.656C504.391 290.799 517.877 299.485 535.661 305.118C553.446 310.751 569.473 311.415 573.936 307.043C574.436 306.552 574.792 305.998 574.987 305.38L576.168 301.653" stroke="white" stroke-opacity="0.16" stroke-width="0.587832" stroke-linejoin="round"/>
<path d="M575.116 303.315C575.617 302.825 575.972 302.27 576.167 301.653L574.987 305.381C574.791 305.998 574.436 306.552 573.935 307.043C569.473 311.415 553.445 310.751 535.661 305.118C517.877 299.485 504.39 290.8 503.259 284.656C503.132 283.966 503.16 283.309 503.356 282.691L504.537 278.964C504.341 279.581 504.312 280.239 504.439 280.928C504.443 280.948 504.447 280.967 504.451 280.987C505.657 287.127 519.114 295.775 536.842 301.39C554.569 307.006 570.551 307.683 575.073 303.357C575.087 303.343 575.102 303.329 575.116 303.315Z" fill="url(#paint12_linear_765_6134)" fill-opacity="0.16" stroke="white" stroke-opacity="0.16" stroke-width="0.587832" stroke-linejoin="round"/>
<path d="M543.863 279.226C563.643 285.491 578.107 295.532 576.168 301.653C575.972 302.27 575.617 302.824 575.116 303.315C575.102 303.329 575.088 303.343 575.073 303.357C570.551 307.683 554.57 307.006 536.842 301.39C519.115 295.775 505.658 287.127 504.451 280.987C504.447 280.967 504.443 280.948 504.44 280.928C504.313 280.239 504.341 279.581 504.537 278.963C506.476 272.843 524.082 272.961 543.863 279.226Z" fill="url(#paint13_linear_765_6134)" fill-opacity="0.16" stroke="white" stroke-opacity="0.16" stroke-width="0.587832" stroke-linejoin="round"/>
</g>
<g filter="url(#filter3_f_765_6134)">
<path d="M499.861 199.26C501.488 194.123 489.347 185.694 472.743 180.435C456.139 175.176 441.36 175.077 439.733 180.215L438.742 183.344C438.577 183.862 438.553 184.414 438.66 184.993C439.61 190.15 450.931 197.44 465.859 202.169C480.787 206.898 494.241 207.455 497.987 203.785C498.407 203.373 498.705 202.908 498.869 202.389L499.861 199.26Z" fill="url(#paint14_linear_765_6134)" fill-opacity="0.16"/>
<path d="M439.733 180.215C441.36 175.077 456.139 175.176 472.743 180.435C489.347 185.694 501.488 194.123 499.861 199.26M439.733 180.215C439.569 180.733 439.545 181.285 439.651 181.864C439.654 181.88 439.657 181.897 439.661 181.913C440.673 187.068 451.969 194.326 466.85 199.04C481.731 203.754 495.146 204.322 498.942 200.691C498.954 200.679 498.966 200.667 498.978 200.656C499.398 200.244 499.696 199.779 499.861 199.26M439.733 180.215L438.742 183.344C438.577 183.862 438.553 184.414 438.66 184.993C439.61 190.15 450.931 197.44 465.859 202.169C480.787 206.898 494.241 207.455 497.987 203.785C498.407 203.373 498.705 202.908 498.869 202.389L499.861 199.26" stroke="white" stroke-opacity="0.16" stroke-width="0.493432" stroke-linejoin="round"/>
<path d="M498.978 200.656C499.398 200.244 499.696 199.779 499.86 199.26L498.869 202.389C498.705 202.908 498.407 203.373 497.987 203.785C494.241 207.455 480.787 206.898 465.859 202.169C450.93 197.44 439.61 190.15 438.66 184.993C438.553 184.414 438.577 183.862 438.742 183.344L439.733 180.215C439.568 180.733 439.544 181.285 439.651 181.864C439.654 181.88 439.657 181.897 439.66 181.913C440.673 187.068 451.969 194.327 466.85 199.04C481.731 203.754 495.146 204.322 498.941 200.691C498.954 200.679 498.966 200.668 498.978 200.656Z" fill="url(#paint15_linear_765_6134)" fill-opacity="0.16" stroke="white" stroke-opacity="0.16" stroke-width="0.493432" stroke-linejoin="round"/>
<path d="M472.743 180.435C489.347 185.694 501.488 194.123 499.861 199.26C499.696 199.779 499.398 200.244 498.978 200.656C498.966 200.667 498.954 200.679 498.942 200.691C495.146 204.322 481.731 203.754 466.85 199.04C451.969 194.326 440.673 187.068 439.661 181.913C439.657 181.897 439.654 181.88 439.651 181.864C439.545 181.285 439.569 180.733 439.733 180.215C441.36 175.077 456.139 175.176 472.743 180.435Z" fill="url(#paint16_linear_765_6134)" fill-opacity="0.16" stroke="white" stroke-opacity="0.16" stroke-width="0.493432" stroke-linejoin="round"/>
</g>
<g filter="url(#filter4_b_765_6134)">
<path d="M274.37 278.446C270.362 265.791 300.266 245.031 341.164 232.076C382.061 219.122 418.465 218.879 422.473 231.534L424.915 239.241C425.319 240.518 425.378 241.877 425.116 243.303C422.776 256.006 394.892 273.963 358.121 285.61C321.35 297.258 288.212 298.629 278.986 289.59C277.95 288.576 277.216 287.43 276.811 286.153L274.37 278.446Z" fill="url(#paint17_linear_765_6134)" fill-opacity="0.16"/>
<path d="M422.473 231.534C418.465 218.879 382.061 219.122 341.164 232.076C300.266 245.031 270.362 265.791 274.37 278.446M422.473 231.534C422.878 232.811 422.937 234.17 422.674 235.596C422.667 235.636 422.659 235.677 422.651 235.718C420.157 248.413 392.333 266.293 355.68 277.903C319.026 289.513 285.983 290.913 276.634 281.969C276.604 281.941 276.574 281.912 276.544 281.883C275.509 280.868 274.775 279.723 274.37 278.446M422.473 231.534L424.915 239.241C425.319 240.518 425.378 241.877 425.116 243.303C422.776 256.006 394.892 273.963 358.121 285.61C321.35 297.258 288.212 298.629 278.986 289.59C277.95 288.576 277.216 287.43 276.811 286.153L274.37 278.446" stroke="white" stroke-opacity="0.16" stroke-width="1.21539" stroke-linejoin="round"/>
<path d="M276.545 281.883C275.509 280.869 274.775 279.723 274.371 278.446L276.812 286.153C277.216 287.43 277.951 288.576 278.986 289.59C288.213 298.63 321.351 297.258 358.121 285.611C394.892 273.963 422.777 256.006 425.116 243.303C425.379 241.877 425.32 240.518 424.915 239.241L422.474 231.534C422.878 232.811 422.937 234.17 422.675 235.596C422.667 235.636 422.66 235.677 422.652 235.718C420.157 248.413 392.333 266.293 355.68 277.903C319.027 289.513 285.983 290.913 276.634 281.969C276.604 281.941 276.574 281.912 276.545 281.883Z" fill="url(#paint18_linear_765_6134)" fill-opacity="0.16" stroke="white" stroke-opacity="0.16" stroke-width="1.21539" stroke-linejoin="round"/>
<path d="M341.164 232.076C300.266 245.031 270.362 265.791 274.37 278.446C274.775 279.723 275.509 280.868 276.544 281.883C276.574 281.912 276.604 281.941 276.634 281.969C285.983 290.913 319.026 289.513 355.68 277.903C392.333 266.293 420.157 248.413 422.651 235.718C422.659 235.677 422.667 235.636 422.674 235.596C422.937 234.17 422.878 232.811 422.473 231.534C418.465 218.879 382.061 219.122 341.164 232.076Z" fill="url(#paint19_linear_765_6134)" fill-opacity="0.16" stroke="white" stroke-opacity="0.16" stroke-width="1.21539" stroke-linejoin="round"/>
</g>
<defs>
<filter id="filter0_f_765_6134" x="0" y="0" width="833" height="833" filterUnits="userSpaceOnUse" color-interpolation-filters="sRGB">
<feFlood flood-opacity="0" result="BackgroundImageFix"/>
<feBlend mode="normal" in="SourceGraphic" in2="BackgroundImageFix" result="shape"/>
<feGaussianBlur stdDeviation="90" result="effect1_foregroundBlur_765_6134"/>
</filter>
<filter id="filter1_b_765_6134" x="222.419" y="246.899" width="387.672" height="387.672" filterUnits="userSpaceOnUse" color-interpolation-filters="sRGB">
<feFlood flood-opacity="0" result="BackgroundImageFix"/>
<feGaussianBlur in="BackgroundImageFix" stdDeviation="43.4238"/>
<feComposite in2="SourceAlpha" operator="in" result="effect1_backgroundBlur_765_6134"/>
<feBlend mode="normal" in="SourceGraphic" in2="effect1_backgroundBlur_765_6134" result="shape"/>
</filter>
<filter id="filter2_bf_765_6134" x="420.597" y="190.635" width="235.503" height="212.577" filterUnits="userSpaceOnUse" color-interpolation-filters="sRGB">
<feFlood flood-opacity="0" result="BackgroundImageFix"/>
<feGaussianBlur in="BackgroundImageFix" stdDeviation="39.6242"/>
<feComposite in2="SourceAlpha" operator="in" result="effect1_backgroundBlur_765_6134"/>
<feBlend mode="normal" in="SourceGraphic" in2="effect1_backgroundBlur_765_6134" result="shape"/>
<feGaussianBlur stdDeviation="0.325679" result="effect2_foregroundBlur_765_6134"/>
</filter>
<filter id="filter3_f_765_6134" x="434.493" y="171.29" width="67.2451" height="48.0012" filterUnits="userSpaceOnUse" color-interpolation-filters="sRGB">
<feFlood flood-opacity="0" result="BackgroundImageFix"/>
<feBlend mode="normal" in="SourceGraphic" in2="BackgroundImageFix" result="shape"/>
<feGaussianBlur stdDeviation="0.651357" result="effect1_foregroundBlur_765_6134"/>
</filter>
<filter id="filter4_b_765_6134" x="268.614" y="208.418" width="167.902" height="120.501" filterUnits="userSpaceOnUse" color-interpolation-filters="sRGB">
<feFlood flood-opacity="0" result="BackgroundImageFix"/>
<feGaussianBlur in="BackgroundImageFix" stdDeviation="2.17119"/>
<feComposite in2="SourceAlpha" operator="in" result="effect1_backgroundBlur_765_6134"/>
<feBlend mode="normal" in="SourceGraphic" in2="effect1_backgroundBlur_765_6134" result="shape"/>
</filter>
<linearGradient id="paint0_linear_765_6134" x1="393.729" y1="204" x2="393.729" y2="459.5" gradientUnits="userSpaceOnUse">
<stop stop-color="#030D0C" stop-opacity="0"/>
<stop offset="1" stop-color="white"/>
</linearGradient>
<radialGradient id="paint1_radial_765_6134" cx="0" cy="0" r="1" gradientUnits="userSpaceOnUse" gradientTransform="translate(416.5 421.101) rotate(90) scale(554.441)">
<stop stop-color="#51E0CF"/>
<stop offset="1" stop-color="#51E0CF" stop-opacity="0"/>
</radialGradient>
<linearGradient id="paint2_linear_765_6134" x1="416.255" y1="334.347" x2="416.255" y2="547.123" gradientUnits="userSpaceOnUse">
<stop stop-color="white"/>
<stop offset="1" stop-color="white" stop-opacity="0"/>
</linearGradient>
<linearGradient id="paint3_linear_765_6134" x1="416.255" y1="334.347" x2="416.255" y2="547.123" gradientUnits="userSpaceOnUse">
<stop stop-color="white"/>
<stop offset="1" stop-color="white" stop-opacity="0"/>
</linearGradient>
<linearGradient id="paint4_linear_765_6134" x1="416.255" y1="334.347" x2="416.255" y2="547.123" gradientUnits="userSpaceOnUse">
<stop stop-color="white"/>
<stop offset="1" stop-color="white" stop-opacity="0"/>
</linearGradient>
<linearGradient id="paint5_linear_765_6134" x1="416.255" y1="334.347" x2="416.255" y2="547.123" gradientUnits="userSpaceOnUse">
<stop stop-color="white"/>
<stop offset="1" stop-color="white" stop-opacity="0"/>
</linearGradient>
<linearGradient id="paint6_linear_765_6134" x1="416.255" y1="334.347" x2="416.255" y2="547.123" gradientUnits="userSpaceOnUse">
<stop stop-color="white"/>
<stop offset="1" stop-color="white" stop-opacity="0"/>
</linearGradient>
<linearGradient id="paint7_linear_765_6134" x1="528.614" y1="334.347" x2="309.867" y2="381.57" gradientUnits="userSpaceOnUse">
<stop stop-color="white"/>
<stop offset="1" stop-color="white" stop-opacity="0"/>
</linearGradient>
<linearGradient id="paint8_linear_765_6134" x1="528.614" y1="334.347" x2="309.867" y2="381.57" gradientUnits="userSpaceOnUse">
<stop stop-color="white"/>
<stop offset="1" stop-color="white" stop-opacity="0"/>
</linearGradient>
<linearGradient id="paint9_linear_765_6134" x1="528.614" y1="334.347" x2="309.867" y2="381.57" gradientUnits="userSpaceOnUse">
<stop stop-color="white"/>
<stop offset="1" stop-color="white" stop-opacity="0"/>
</linearGradient>
<linearGradient id="paint10_linear_765_6134" x1="528.614" y1="334.347" x2="309.867" y2="381.57" gradientUnits="userSpaceOnUse">
<stop stop-color="white"/>
<stop offset="1" stop-color="white" stop-opacity="0"/>
</linearGradient>
<linearGradient id="paint11_linear_765_6134" x1="506.037" y1="267.245" x2="552.099" y2="319.168" gradientUnits="userSpaceOnUse">
<stop stop-color="white"/>
<stop offset="1" stop-color="white" stop-opacity="0"/>
</linearGradient>
<linearGradient id="paint12_linear_765_6134" x1="502.527" y1="278.327" x2="527.204" y2="328.507" gradientUnits="userSpaceOnUse">
<stop stop-color="white"/>
<stop offset="1" stop-color="white" stop-opacity="0"/>
</linearGradient>
<linearGradient id="paint13_linear_765_6134" x1="506.037" y1="267.245" x2="546.42" y2="319.832" gradientUnits="userSpaceOnUse">
<stop stop-color="white"/>
<stop offset="1" stop-color="white" stop-opacity="0"/>
</linearGradient>
<linearGradient id="paint14_linear_765_6134" x1="440.992" y1="170.378" x2="479.657" y2="213.963" gradientUnits="userSpaceOnUse">
<stop stop-color="white"/>
<stop offset="1" stop-color="white" stop-opacity="0"/>
</linearGradient>
<linearGradient id="paint15_linear_765_6134" x1="438.045" y1="179.68" x2="458.76" y2="221.802" gradientUnits="userSpaceOnUse">
<stop stop-color="white"/>
<stop offset="1" stop-color="white" stop-opacity="0"/>
</linearGradient>
<linearGradient id="paint16_linear_765_6134" x1="440.992" y1="170.378" x2="474.89" y2="214.521" gradientUnits="userSpaceOnUse">
<stop stop-color="white"/>
<stop offset="1" stop-color="white" stop-opacity="0"/>
</linearGradient>
<linearGradient id="paint17_linear_765_6134" x1="419.371" y1="207.304" x2="324.134" y2="314.66" gradientUnits="userSpaceOnUse">
<stop stop-color="white"/>
<stop offset="1" stop-color="white" stop-opacity="0"/>
</linearGradient>
<linearGradient id="paint18_linear_765_6134" x1="426.63" y1="230.218" x2="375.607" y2="333.969" gradientUnits="userSpaceOnUse">
<stop stop-color="white"/>
<stop offset="1" stop-color="white" stop-opacity="0"/>
</linearGradient>
<linearGradient id="paint19_linear_765_6134" x1="419.371" y1="207.304" x2="335.876" y2="316.034" gradientUnits="userSpaceOnUse">
<stop stop-color="white"/>
<stop offset="1" stop-color="white" stop-opacity="0"/>
</linearGradient>
</defs>
</svg>
