<svg width="610" height="550" viewBox="0 0 610 550" fill="none" xmlns="http://www.w3.org/2000/svg">
<g clip-path="url(#clip0_765_6134)">
<path d="M339.791 227.484H176.409L0 50.5324H519.457L339.791 227.484Z" fill="url(#paint0_linear_765_6134)" fill-opacity="0.16"/>
<g filter="url(#filter0_f_765_6134)">
<circle cx="282.5" cy="263.5" r="236.5" fill="url(#paint1_radial_765_6134)" fill-opacity="0.05"/>
</g>
<g filter="url(#filter1_b_765_6134)">
<path d="M339.504 394.123L388.644 348.08L388.643 181.347L339.504 227.389V348.081V394.123Z" fill="url(#paint2_linear_765_6134)" fill-opacity="0.06"/>
<path d="M225.006 348.081L175.867 394.123V227.389L225.006 181.347V227.389V348.081Z" fill="url(#paint3_linear_765_6134)" fill-opacity="0.06"/>
<path d="M225.006 348.081L175.867 394.123H339.504V348.081L225.006 348.081Z" fill="url(#paint4_linear_765_6134)" fill-opacity="0.06"/>
<path d="M225.006 227.389V348.081L339.504 348.081V227.389H225.006Z" fill="url(#paint5_linear_765_6134)" fill-opacity="0.06"/>
<path d="M339.504 227.389L388.643 181.347H225.006V227.389H339.504Z" fill="url(#paint6_linear_765_6134)" fill-opacity="0.06"/>
<path d="M388.644 348.08L339.504 394.123M388.644 348.08L388.643 181.347M388.644 348.08L339.504 348.081M339.504 394.123H175.867M339.504 394.123V348.081M175.867 394.123L225.006 348.081M175.867 394.123V227.389M225.006 348.081L339.504 348.081M225.006 348.081V227.389M388.643 181.347L339.504 227.389M388.643 181.347H225.006M339.504 227.389V348.081M339.504 227.389H225.006M175.867 227.389L225.006 181.347M175.867 227.389H225.006M225.006 181.347V227.389" stroke="white" stroke-opacity="0.24" stroke-width="1.2" stroke-linejoin="round"/>
</g>
<path d="M225.006 348.081L175.867 394.123H339.504V348.081L225.006 348.081Z" fill="url(#paint7_linear_765_6134)" fill-opacity="0.16"/>
<path d="M339.504 227.389L388.643 181.347H225.006V227.389H339.504Z" fill="url(#paint8_linear_765_6134)" fill-opacity="0.16"/>
<path d="M225.006 181.347L175.867 227.389H225.006V181.347Z" fill="url(#paint9_linear_765_6134)" fill-opacity="0.16"/>
<path d="M339.504 394.123L388.644 348.08L339.504 348.081V394.123Z" fill="url(#paint10_linear_765_6134)" fill-opacity="0.16"/>
<path d="M221.807 348.081C221.807 349.849 223.24 351.281 225.007 351.281C226.774 351.281 228.207 349.849 228.207 348.081C228.207 346.314 226.774 344.881 225.007 344.881C223.24 344.881 221.807 346.314 221.807 348.081ZM385.444 348.081C385.444 349.849 386.877 351.281 388.644 351.281C390.411 351.281 391.844 349.849 391.844 348.081C391.844 346.314 390.411 344.881 388.644 344.881C386.877 344.881 385.444 346.314 385.444 348.081ZM225.007 348.681H388.644V347.481H225.007V348.681Z" fill="white" fill-opacity="0.64"/>
<path d="M221.807 181.347C221.807 183.114 223.24 184.547 225.007 184.547C226.774 184.547 228.207 183.114 228.207 181.347C228.207 179.579 226.774 178.147 225.007 178.147C223.24 178.147 221.807 179.579 221.807 181.347ZM385.444 181.347C385.444 183.114 386.877 184.547 388.644 184.547C390.411 184.547 391.844 183.114 391.844 181.347C391.844 179.579 390.411 178.147 388.644 178.147C386.877 178.147 385.444 179.579 385.444 181.347ZM225.007 181.947H388.644V180.747H225.007V181.947Z" fill="white" fill-opacity="0.64"/>
<path d="M336.304 394.123C336.304 395.89 337.736 397.323 339.504 397.323C341.271 397.323 342.704 395.89 342.704 394.123C342.704 392.356 341.271 390.923 339.504 390.923C337.736 390.923 336.304 392.356 336.304 394.123ZM172.667 394.123C172.667 395.89 174.099 397.323 175.867 397.323C177.634 397.323 179.067 395.89 179.067 394.123C179.067 392.356 177.634 390.923 175.867 390.923C174.099 390.923 172.667 392.356 172.667 394.123ZM339.504 393.523H175.867V394.723H339.504V393.523Z" fill="white" fill-opacity="0.64"/>
<path d="M336.304 227.388C336.304 229.156 337.737 230.588 339.504 230.588C341.271 230.588 342.704 229.156 342.704 227.388C342.704 225.621 341.271 224.188 339.504 224.188C337.737 224.188 336.304 225.621 336.304 227.388ZM172.667 227.388C172.667 229.156 174.099 230.588 175.867 230.588C177.634 230.588 179.067 229.156 179.067 227.388C179.067 225.621 177.634 224.188 175.867 224.188C174.099 224.188 172.667 225.621 172.667 227.388ZM339.504 226.788H175.867V227.988H339.504V226.788Z" fill="white" fill-opacity="0.64"/>
<g filter="url(#filter2_bf_765_6134)">
<path d="M442.168 148.653C444.107 142.532 429.643 132.491 409.863 126.226C390.082 119.961 372.476 119.843 370.537 125.963L369.356 129.691C369.161 130.309 369.132 130.966 369.259 131.656C370.391 137.799 383.877 146.485 401.661 152.118C419.446 157.751 435.473 158.415 439.936 154.043C440.436 153.552 440.792 152.998 440.987 152.38L442.168 148.653Z" fill="url(#paint11_linear_765_6134)" fill-opacity="0.16"/>
<path d="M370.537 125.963C372.476 119.843 390.082 119.961 409.863 126.226C429.643 132.491 444.107 142.532 442.168 148.653M370.537 125.963C370.341 126.581 370.313 127.239 370.44 127.928C370.443 127.948 370.447 127.967 370.451 127.987C371.658 134.127 385.115 142.775 402.842 148.39C420.57 154.006 436.551 154.683 441.073 150.357C441.088 150.343 441.102 150.329 441.116 150.315C441.617 149.824 441.972 149.27 442.168 148.653M370.537 125.963L369.356 129.691C369.161 130.309 369.132 130.966 369.259 131.656C370.391 137.799 383.877 146.485 401.661 152.118C419.446 157.751 435.473 158.415 439.936 154.043C440.436 153.552 440.792 152.998 440.987 152.38L442.168 148.653" stroke="white" stroke-opacity="0.16" stroke-width="0.587832" stroke-linejoin="round"/>
<path d="M441.116 150.315C441.617 149.825 441.972 149.27 442.167 148.653L440.987 152.381C440.791 152.998 440.436 153.552 439.935 154.043C435.473 158.415 419.445 157.751 401.661 152.118C383.877 146.485 370.39 137.8 369.259 131.656C369.132 130.966 369.16 130.309 369.356 129.691L370.537 125.964C370.341 126.581 370.312 127.239 370.439 127.928C370.443 127.948 370.447 127.967 370.451 127.987C371.657 134.127 385.114 142.775 402.842 148.39C420.569 154.006 436.551 154.683 441.073 150.357C441.087 150.343 441.102 150.329 441.116 150.315Z" fill="url(#paint12_linear_765_6134)" fill-opacity="0.16" stroke="white" stroke-opacity="0.16" stroke-width="0.587832" stroke-linejoin="round"/>
<path d="M409.863 126.226C429.643 132.491 444.107 142.532 442.168 148.653C441.972 149.27 441.617 149.824 441.116 150.315C441.102 150.329 441.088 150.343 441.073 150.357C436.551 154.683 420.57 154.006 402.842 148.39C385.115 142.775 371.658 134.127 370.451 127.987C370.447 127.967 370.443 127.948 370.44 127.928C370.313 127.239 370.341 126.581 370.537 125.963C372.476 119.843 390.082 119.961 409.863 126.226Z" fill="url(#paint13_linear_765_6134)" fill-opacity="0.16" stroke="white" stroke-opacity="0.16" stroke-width="0.587832" stroke-linejoin="round"/>
</g>
<g filter="url(#filter3_f_765_6134)">
<path d="M365.861 46.2604C367.488 41.1228 355.347 32.6944 338.743 27.4351C322.139 22.1758 307.36 22.0771 305.733 27.2147L304.742 30.3437C304.577 30.8621 304.553 31.414 304.66 31.9928C305.61 37.15 316.931 44.4404 331.859 49.169C346.787 53.8976 360.241 54.4545 363.987 50.7847C364.407 50.3729 364.705 49.9078 364.869 49.3894L365.861 46.2604Z" fill="url(#paint14_linear_765_6134)" fill-opacity="0.16"/>
<path d="M305.733 27.2147C307.36 22.0771 322.139 22.1758 338.743 27.4351C355.347 32.6944 367.488 41.1228 365.861 46.2604M305.733 27.2147C305.569 27.7331 305.545 28.285 305.651 28.8638C305.654 28.8803 305.657 28.8968 305.661 28.9133C306.673 34.0675 317.969 41.3265 332.85 46.04C347.731 50.7535 361.146 51.3219 364.942 47.6908C364.954 47.6791 364.966 47.6674 364.978 47.6557C365.398 47.2439 365.696 46.7788 365.861 46.2604M305.733 27.2147L304.742 30.3437C304.577 30.8621 304.553 31.414 304.66 31.9928C305.61 37.15 316.931 44.4404 331.859 49.169C346.787 53.8976 360.241 54.4545 363.987 50.7847C364.407 50.3729 364.705 49.9078 364.869 49.3894L365.861 46.2604" stroke="white" stroke-opacity="0.16" stroke-width="0.493432" stroke-linejoin="round"/>
<path d="M364.978 47.6558C365.398 47.244 365.696 46.7789 365.86 46.2605L364.869 49.3895C364.705 49.9079 364.407 50.373 363.987 50.7848C360.241 54.4546 346.787 53.8977 331.859 49.1691C316.93 44.4405 305.61 37.1501 304.66 31.9929C304.553 31.4141 304.577 30.8622 304.742 30.3438L305.733 27.2148C305.568 27.7332 305.544 28.2851 305.651 28.8639C305.654 28.8804 305.657 28.8969 305.66 28.9134C306.673 34.0676 317.969 41.3266 332.85 46.0401C347.731 50.7536 361.146 51.322 364.941 47.6909C364.954 47.6792 364.966 47.6675 364.978 47.6558Z" fill="url(#paint15_linear_765_6134)" fill-opacity="0.16" stroke="white" stroke-opacity="0.16" stroke-width="0.493432" stroke-linejoin="round"/>
<path d="M338.743 27.4351C355.347 32.6944 367.488 41.1228 365.861 46.2604C365.696 46.7788 365.398 47.2439 364.978 47.6557C364.966 47.6674 364.954 47.6791 364.942 47.6908C361.146 51.3219 347.731 50.7535 332.85 46.04C317.969 41.3265 306.673 34.0675 305.661 28.9133C305.657 28.8968 305.654 28.8803 305.651 28.8638C305.545 28.285 305.569 27.7331 305.733 27.2147C307.36 22.0771 322.139 22.1758 338.743 27.4351Z" fill="url(#paint16_linear_765_6134)" fill-opacity="0.16" stroke="white" stroke-opacity="0.16" stroke-width="0.493432" stroke-linejoin="round"/>
</g>
<g filter="url(#filter4_b_765_6134)">
<path d="M140.37 125.446C136.362 112.791 166.266 92.0309 207.164 79.0765C248.061 66.122 284.465 65.879 288.473 78.5337L290.915 86.2409C291.319 87.5178 291.378 88.8772 291.116 90.3028C288.776 103.006 260.892 120.963 224.121 132.61C187.35 144.258 154.212 145.629 144.986 136.59C143.95 135.576 143.216 134.43 142.811 133.153L140.37 125.446Z" fill="url(#paint17_linear_765_6134)" fill-opacity="0.16"/>
<path d="M288.473 78.5337C284.465 65.879 248.061 66.122 207.164 79.0765C166.266 92.0309 136.362 112.791 140.37 125.446M288.473 78.5337C288.878 79.8106 288.937 81.17 288.674 82.5956C288.667 82.6362 288.659 82.6769 288.651 82.7176C286.157 95.4132 258.333 113.293 221.68 124.903C185.026 136.513 151.983 137.913 142.634 128.969C142.604 128.941 142.574 128.912 142.544 128.883C141.509 127.868 140.775 126.723 140.37 125.446M288.473 78.5337L290.915 86.2409C291.319 87.5178 291.378 88.8772 291.116 90.3028C288.776 103.006 260.892 120.963 224.121 132.61C187.35 144.258 154.212 145.629 144.986 136.59C143.95 135.576 143.216 134.43 142.811 133.153L140.37 125.446" stroke="white" stroke-opacity="0.16" stroke-width="1.21539" stroke-linejoin="round"/>
<path d="M142.545 128.883C141.509 127.869 140.775 126.723 140.371 125.446L142.812 133.153C143.216 134.43 143.951 135.576 144.986 136.59C154.213 145.63 187.351 144.258 224.121 132.611C260.892 120.963 288.777 103.006 291.116 90.3031C291.379 88.8774 291.32 87.518 290.915 86.2411L288.474 78.5339C288.878 79.8108 288.937 81.1702 288.675 82.5959C288.667 82.6365 288.66 82.6771 288.652 82.7178C286.157 95.4134 258.333 113.293 221.68 124.903C185.027 136.513 151.983 137.913 142.634 128.969C142.604 128.941 142.574 128.912 142.545 128.883Z" fill="url(#paint18_linear_765_6134)" fill-opacity="0.16" stroke="white" stroke-opacity="0.16" stroke-width="1.21539" stroke-linejoin="round"/>
<path d="M207.164 79.0765C166.266 92.0309 136.362 112.791 140.37 125.446C140.775 126.723 141.509 127.868 142.544 128.883C142.574 128.912 142.604 128.941 142.634 128.969C151.983 137.913 185.026 136.513 221.68 124.903C258.333 113.293 286.157 95.4132 288.651 82.7176C288.659 82.6769 288.667 82.6362 288.674 82.5956C288.937 81.17 288.878 79.8106 288.473 78.5337C284.465 65.879 248.061 66.122 207.164 79.0765Z" fill="url(#paint19_linear_765_6134)" fill-opacity="0.16" stroke="white" stroke-opacity="0.16" stroke-width="1.21539" stroke-linejoin="round"/>
</g>
</g>
<defs>
<filter id="filter0_f_765_6134" x="-134" y="-153" width="833" height="833" filterUnits="userSpaceOnUse" color-interpolation-filters="sRGB">
<feFlood flood-opacity="0" result="BackgroundImageFix"/>
<feBlend mode="normal" in="SourceGraphic" in2="BackgroundImageFix" result="shape"/>
<feGaussianBlur stdDeviation="90" result="effect1_foregroundBlur_765_6134"/>
</filter>
<filter id="filter1_b_765_6134" x="88.419" y="93.8989" width="387.672" height="387.672" filterUnits="userSpaceOnUse" color-interpolation-filters="sRGB">
<feFlood flood-opacity="0" result="BackgroundImageFix"/>
<feGaussianBlur in="BackgroundImageFix" stdDeviation="43.4238"/>
<feComposite in2="SourceAlpha" operator="in" result="effect1_backgroundBlur_765_6134"/>
<feBlend mode="normal" in="SourceGraphic" in2="effect1_backgroundBlur_765_6134" result="shape"/>
</filter>
<filter id="filter2_bf_765_6134" x="286.597" y="37.6351" width="235.503" height="212.577" filterUnits="userSpaceOnUse" color-interpolation-filters="sRGB">
<feFlood flood-opacity="0" result="BackgroundImageFix"/>
<feGaussianBlur in="BackgroundImageFix" stdDeviation="39.6242"/>
<feComposite in2="SourceAlpha" operator="in" result="effect1_backgroundBlur_765_6134"/>
<feBlend mode="normal" in="SourceGraphic" in2="effect1_backgroundBlur_765_6134" result="shape"/>
<feGaussianBlur stdDeviation="0.325679" result="effect2_foregroundBlur_765_6134"/>
</filter>
<filter id="filter3_f_765_6134" x="300.493" y="18.2902" width="67.2451" height="48.0012" filterUnits="userSpaceOnUse" color-interpolation-filters="sRGB">
<feFlood flood-opacity="0" result="BackgroundImageFix"/>
<feBlend mode="normal" in="SourceGraphic" in2="BackgroundImageFix" result="shape"/>
<feGaussianBlur stdDeviation="0.651357" result="effect1_foregroundBlur_765_6134"/>
</filter>
<filter id="filter4_b_765_6134" x="134.614" y="55.4175" width="167.902" height="120.501" filterUnits="userSpaceOnUse" color-interpolation-filters="sRGB">
<feFlood flood-opacity="0" result="BackgroundImageFix"/>
<feGaussianBlur in="BackgroundImageFix" stdDeviation="2.17119"/>
<feComposite in2="SourceAlpha" operator="in" result="effect1_backgroundBlur_765_6134"/>
<feBlend mode="normal" in="SourceGraphic" in2="effect1_backgroundBlur_765_6134" result="shape"/>
</filter>
<linearGradient id="paint0_linear_765_6134" x1="259.729" y1="51" x2="259.729" y2="306.5" gradientUnits="userSpaceOnUse">
<stop stop-color="#030D0C" stop-opacity="0"/>
<stop offset="1" stop-color="white"/>
</linearGradient>
<radialGradient id="paint1_radial_765_6134" cx="0" cy="0" r="1" gradientUnits="userSpaceOnUse" gradientTransform="translate(282.5 268.101) rotate(90) scale(554.441)">
<stop stop-color="#51E0CF"/>
<stop offset="1" stop-color="#51E0CF" stop-opacity="0"/>
</radialGradient>
<linearGradient id="paint2_linear_765_6134" x1="282.255" y1="181.347" x2="282.255" y2="394.123" gradientUnits="userSpaceOnUse">
<stop stop-color="white"/>
<stop offset="1" stop-color="white" stop-opacity="0"/>
</linearGradient>
<linearGradient id="paint3_linear_765_6134" x1="282.255" y1="181.347" x2="282.255" y2="394.123" gradientUnits="userSpaceOnUse">
<stop stop-color="white"/>
<stop offset="1" stop-color="white" stop-opacity="0"/>
</linearGradient>
<linearGradient id="paint4_linear_765_6134" x1="282.255" y1="181.347" x2="282.255" y2="394.123" gradientUnits="userSpaceOnUse">
<stop stop-color="white"/>
<stop offset="1" stop-color="white" stop-opacity="0"/>
</linearGradient>
<linearGradient id="paint5_linear_765_6134" x1="282.255" y1="181.347" x2="282.255" y2="394.123" gradientUnits="userSpaceOnUse">
<stop stop-color="white"/>
<stop offset="1" stop-color="white" stop-opacity="0"/>
</linearGradient>
<linearGradient id="paint6_linear_765_6134" x1="282.255" y1="181.347" x2="282.255" y2="394.123" gradientUnits="userSpaceOnUse">
<stop stop-color="white"/>
<stop offset="1" stop-color="white" stop-opacity="0"/>
</linearGradient>
<linearGradient id="paint7_linear_765_6134" x1="394.614" y1="181.347" x2="175.867" y2="228.57" gradientUnits="userSpaceOnUse">
<stop stop-color="white"/>
<stop offset="1" stop-color="white" stop-opacity="0"/>
</linearGradient>
<linearGradient id="paint8_linear_765_6134" x1="394.614" y1="181.347" x2="175.867" y2="228.57" gradientUnits="userSpaceOnUse">
<stop stop-color="white"/>
<stop offset="1" stop-color="white" stop-opacity="0"/>
</linearGradient>
<linearGradient id="paint9_linear_765_6134" x1="394.614" y1="181.347" x2="175.867" y2="228.57" gradientUnits="userSpaceOnUse">
<stop stop-color="white"/>
<stop offset="1" stop-color="white" stop-opacity="0"/>
</linearGradient>
<linearGradient id="paint10_linear_765_6134" x1="394.614" y1="181.347" x2="175.867" y2="228.57" gradientUnits="userSpaceOnUse">
<stop stop-color="white"/>
<stop offset="1" stop-color="white" stop-opacity="0"/>
</linearGradient>
<linearGradient id="paint11_linear_765_6134" x1="372.037" y1="114.245" x2="418.099" y2="166.168" gradientUnits="userSpaceOnUse">
<stop stop-color="white"/>
<stop offset="1" stop-color="white" stop-opacity="0"/>
</linearGradient>
<linearGradient id="paint12_linear_765_6134" x1="368.527" y1="125.327" x2="393.204" y2="175.507" gradientUnits="userSpaceOnUse">
<stop stop-color="white"/>
<stop offset="1" stop-color="white" stop-opacity="0"/>
</linearGradient>
<linearGradient id="paint13_linear_765_6134" x1="372.037" y1="114.245" x2="412.42" y2="166.832" gradientUnits="userSpaceOnUse">
<stop stop-color="white"/>
<stop offset="1" stop-color="white" stop-opacity="0"/>
</linearGradient>
<linearGradient id="paint14_linear_765_6134" x1="306.992" y1="17.3778" x2="345.657" y2="60.9628" gradientUnits="userSpaceOnUse">
<stop stop-color="white"/>
<stop offset="1" stop-color="white" stop-opacity="0"/>
</linearGradient>
<linearGradient id="paint15_linear_765_6134" x1="304.045" y1="26.6804" x2="324.76" y2="68.8019" gradientUnits="userSpaceOnUse">
<stop stop-color="white"/>
<stop offset="1" stop-color="white" stop-opacity="0"/>
</linearGradient>
<linearGradient id="paint16_linear_765_6134" x1="306.992" y1="17.3778" x2="340.89" y2="61.5206" gradientUnits="userSpaceOnUse">
<stop stop-color="white"/>
<stop offset="1" stop-color="white" stop-opacity="0"/>
</linearGradient>
<linearGradient id="paint17_linear_765_6134" x1="285.371" y1="54.304" x2="190.134" y2="161.66" gradientUnits="userSpaceOnUse">
<stop stop-color="white"/>
<stop offset="1" stop-color="white" stop-opacity="0"/>
</linearGradient>
<linearGradient id="paint18_linear_765_6134" x1="292.63" y1="77.2175" x2="241.607" y2="180.969" gradientUnits="userSpaceOnUse">
<stop stop-color="white"/>
<stop offset="1" stop-color="white" stop-opacity="0"/>
</linearGradient>
<linearGradient id="paint19_linear_765_6134" x1="285.371" y1="54.304" x2="201.876" y2="163.034" gradientUnits="userSpaceOnUse">
<stop stop-color="white"/>
<stop offset="1" stop-color="white" stop-opacity="0"/>
</linearGradient>
<clipPath id="clip0_765_6134">
<rect width="610" height="550" fill="white"/>
</clipPath>
</defs>
</svg>
