<svg width="33" height="32" viewBox="0 0 33 32" fill="none" xmlns="http://www.w3.org/2000/svg">
<path d="M20.5 6L25.5 11V25.008C25.4997 25.2712 25.395 25.5235 25.2088 25.7095C25.0226 25.8955 24.7702 26 24.507 26H8.493C8.23038 25.9982 7.97902 25.8931 7.79322 25.7075C7.60742 25.5219 7.50209 25.2706 7.5 25.008V6.992C7.5 6.444 7.945 6 8.493 6H20.5ZM15.5 11V13H17.5V11H15.5ZM15.5 15V21H17.5V15H15.5Z" fill="#51E0CF"/>
<path d="M20.5 6L25.5 11V25.008C25.4997 25.2712 25.395 25.5235 25.2088 25.7095C25.0226 25.8955 24.7702 26 24.507 26H8.493C8.23038 25.9982 7.97902 25.8931 7.79322 25.7075C7.60742 25.5219 7.50209 25.2706 7.5 25.008V6.992C7.5 6.444 7.945 6 8.493 6H20.5ZM15.5 11V13H17.5V11H15.5ZM15.5 15V21H17.5V15H15.5Z" fill="url(#paint0_linear_913_3796)" fill-opacity="0.24"/>
<defs>
<linearGradient id="paint0_linear_913_3796" x1="16.5" y1="6" x2="16.5" y2="26" gradientUnits="userSpaceOnUse">
<stop stop-color="white"/>
<stop offset="1" stop-color="white" stop-opacity="0"/>
</linearGradient>
</defs>
</svg>
