<svg width="1708" height="789" viewBox="0 0 1708 789" fill="none" xmlns="http://www.w3.org/2000/svg">
<g clip-path="url(#clip0_1426_6705)">
<g style="mix-blend-mode:soft-light" opacity="0.72">
<path d="M164.673 153.204V164.694M164.673 164.694V176.184M164.673 164.694H153.184M164.673 164.694H176.161M164.673 459.612V471.102M164.673 471.102V482.592M164.673 471.102H153.184M164.673 471.102H176.161M164.673 766.019V777.51M164.673 777.51V789M164.673 777.51H153.184M164.673 777.51H176.161M471.04 153.204V164.694M471.04 164.694V176.184M471.04 164.694H459.552M471.04 164.694H482.529M471.04 459.612V471.102M471.04 471.102V482.592M471.04 471.102H459.552M471.04 471.102H482.529M471.04 766.019V777.51M471.04 777.51V789M471.04 777.51H459.552M471.04 777.51H482.529M777.408 153.204V164.694M777.408 164.694V176.184M777.408 164.694H765.919M777.408 164.694H788.897M777.408 459.612V471.102M777.408 471.102V482.592M777.408 471.102H765.919M777.408 471.102H788.897M777.408 766.019V777.51M777.408 777.51V789M777.408 777.51H765.919M777.408 777.51H788.897M1083.78 153.204V164.694M1083.78 164.694V176.184M1083.78 164.694H1072.29M1083.78 164.694H1095.26M1083.78 459.612V471.102M1083.78 471.102V482.592M1083.78 471.102H1072.29M1083.78 471.102H1095.26M1083.78 766.019V777.51M1083.78 777.51V789M1083.78 777.51H1072.29M1083.78 777.51H1095.26M1390.14 153.204V164.694M1390.14 164.694V176.184M1390.14 164.694H1378.65M1390.14 164.694H1401.63M1390.14 459.612V471.102M1390.14 471.102V482.592M1390.14 471.102H1378.65M1390.14 471.102H1401.63M1390.14 766.019V777.51M1390.14 777.51V789M1390.14 777.51H1378.65M1390.14 777.51H1401.63M1696.51 153.204V164.694M1696.51 164.694V176.184M1696.51 164.694H1685.02M1696.51 164.694H1708M1696.51 459.612V471.102M1696.51 471.102V482.592M1696.51 471.102H1685.02M1696.51 471.102H1708M1696.51 766.019V777.51M1696.51 777.51V789M1696.51 777.51H1685.02M1696.51 777.51H1708M164.673 0V11.4903M164.673 11.4903V22.9806M164.673 11.4903H153.184M164.673 11.4903H176.161M164.673 306.408V317.898M164.673 317.898V329.388M164.673 317.898H153.184M164.673 317.898H176.161M164.673 612.815V624.306M164.673 624.306V635.796M164.673 624.306H153.184M164.673 624.306H176.161M471.04 0V11.4903M471.04 11.4903V22.9806M471.04 11.4903H459.552M471.04 11.4903H482.529M471.04 306.408V317.898M471.04 317.898V329.388M471.04 317.898H459.552M471.04 317.898H482.529M471.04 612.815V624.306M471.04 624.306V635.796M471.04 624.306H459.552M471.04 624.306H482.529M777.408 0V11.4903M777.408 11.4903V22.9806M777.408 11.4903H765.919M777.408 11.4903H788.897M777.408 306.408V317.898M777.408 317.898V329.388M777.408 317.898H765.919M777.408 317.898H788.897M777.408 612.815V624.306M777.408 624.306V635.796M777.408 624.306H765.919M777.408 624.306H788.897M1083.78 0V11.4903M1083.78 11.4903V22.9806M1083.78 11.4903H1072.29M1083.78 11.4903H1095.26M1083.78 306.408V317.898M1083.78 317.898V329.388M1083.78 317.898H1072.29M1083.78 317.898H1095.26M1083.78 612.815V624.306M1083.78 624.306V635.796M1083.78 624.306H1072.29M1083.78 624.306H1095.26M1390.14 0V11.4903M1390.14 11.4903V22.9806M1390.14 11.4903H1378.65M1390.14 11.4903H1401.63M1390.14 306.408V317.898M1390.14 317.898V329.388M1390.14 317.898H1378.65M1390.14 317.898H1401.63M1390.14 612.815V624.306M1390.14 624.306V635.796M1390.14 624.306H1378.65M1390.14 624.306H1401.63M1696.51 0V11.4903M1696.51 11.4903V22.9806M1696.51 11.4903H1685.02M1696.51 11.4903H1708M1696.51 306.408V317.898M1696.51 317.898V329.388M1696.51 317.898H1685.02M1696.51 317.898H1708M1696.51 612.815V624.306M1696.51 624.306V635.796M1696.51 624.306H1685.02M1696.51 624.306H1708M11.4888 153.204V164.694M11.4888 164.694V176.184M11.4888 164.694H0M11.4888 164.694H22.9776M11.4888 459.612V471.102M11.4888 471.102V482.592M11.4888 471.102H0M11.4888 471.102H22.9776M11.4888 766.019V777.51M11.4888 777.51V789M11.4888 777.51H0M11.4888 777.51H22.9776M317.857 153.204V164.694M317.857 164.694V176.184M317.857 164.694H306.368M317.857 164.694H329.345M317.857 459.612V471.102M317.857 471.102V482.592M317.857 471.102H306.368M317.857 471.102H329.345M317.857 766.019V777.51M317.857 777.51V789M317.857 777.51H306.368M317.857 777.51H329.345M624.224 153.204V164.694M624.224 164.694V176.184M624.224 164.694H612.735M624.224 164.694H635.713M624.224 459.612V471.102M624.224 471.102V482.592M624.224 471.102H612.735M624.224 471.102H635.713M624.224 766.019V777.51M624.224 777.51V789M624.224 777.51H612.735M624.224 777.51H635.713M930.592 153.204V164.694M930.592 164.694V176.184M930.592 164.694H919.103M930.592 164.694H942.081M930.592 459.612V471.102M930.592 471.102V482.592M930.592 471.102H919.103M930.592 471.102H942.081M930.592 766.019V777.51M930.592 777.51V789M930.592 777.51H919.103M930.592 777.51H942.081M1236.96 153.204V164.694M1236.96 164.694V176.184M1236.96 164.694H1225.47M1236.96 164.694H1248.45M1236.96 459.612V471.102M1236.96 471.102V482.592M1236.96 471.102H1225.47M1236.96 471.102H1248.45M1236.96 766.019V777.51M1236.96 777.51V789M1236.96 777.51H1225.47M1236.96 777.51H1248.45M1543.33 153.204V164.694M1543.33 164.694V176.184M1543.33 164.694H1531.84M1543.33 164.694H1554.82M1543.33 459.612V471.102M1543.33 471.102V482.592M1543.33 471.102H1531.84M1543.33 471.102H1554.82M1543.33 766.019V777.51M1543.33 777.51V789M1543.33 777.51H1531.84M1543.33 777.51H1554.82M11.4888 5.64864e-05V11.4904M11.4888 11.4904V22.9806M11.4888 11.4904H0M11.4888 11.4904H22.9776M11.4888 306.408V317.898M11.4888 317.898V329.388M11.4888 317.898H0M11.4888 317.898H22.9776M11.4888 612.815V624.306M11.4888 624.306V635.796M11.4888 624.306H0M11.4888 624.306H22.9776M317.857 0V11.4903M317.857 11.4903V22.9806M317.857 11.4903H306.368M317.857 11.4903H329.345M317.857 306.408V317.898M317.857 317.898V329.388M317.857 317.898H306.368M317.857 317.898H329.345M317.857 612.815V624.306M317.857 624.306V635.796M317.857 624.306H306.368M317.857 624.306H329.345M624.224 0V11.4903M624.224 11.4903V22.9806M624.224 11.4903H612.735M624.224 11.4903H635.713M624.224 306.408V317.898M624.224 317.898V329.388M624.224 317.898H612.735M624.224 317.898H635.713M624.224 612.815V624.306M624.224 624.306V635.796M624.224 624.306H612.735M624.224 624.306H635.713M930.592 0V11.4903M930.592 11.4903V22.9806M930.592 11.4903H919.103M930.592 11.4903H942.081M930.592 306.408V317.898M930.592 317.898V329.388M930.592 317.898H919.103M930.592 317.898H942.081M930.592 612.815V624.306M930.592 624.306V635.796M930.592 624.306H919.103M930.592 624.306H942.081M1236.96 0V11.4903M1236.96 11.4903V22.9806M1236.96 11.4903H1225.47M1236.96 11.4903H1248.45M1236.96 306.408V317.898M1236.96 317.898V329.388M1236.96 317.898H1225.47M1236.96 317.898H1248.45M1236.96 612.815V624.306M1236.96 624.306V635.796M1236.96 624.306H1225.47M1236.96 624.306H1248.45M1543.33 0V11.4903M1543.33 11.4903V22.9806M1543.33 11.4903H1531.84M1543.33 11.4903H1554.82M1543.33 306.408V317.898M1543.33 317.898V329.388M1543.33 317.898H1531.84M1543.33 317.898H1554.82M1543.33 612.815V624.306M1543.33 624.306V635.796M1543.33 624.306H1531.84M1543.33 624.306H1554.82" stroke="url(#paint0_radial_1426_6705)" stroke-width="0.876789"/>
</g>
<g style="mix-blend-mode:soft-light" opacity="0.56">
<path d="M49.7852 11.4912H11.4893V49.7922M49.7852 11.4912V49.7922M49.7852 11.4912H88.0812M49.7852 49.7922H11.4893M49.7852 49.7922V88.0932M49.7852 49.7922H88.0812M11.4893 49.7922V88.0932M49.7852 88.0932H11.4893M49.7852 88.0932V126.394M49.7852 88.0932H88.0812M11.4893 88.0932V126.394M49.7852 126.394H11.4893M49.7852 126.394V164.695M49.7852 126.394H88.0812M11.4893 126.394V164.695M49.7852 164.695H11.4893M49.7852 164.695V202.996M49.7852 164.695H88.0812M11.4893 164.695V202.996M49.7852 202.996H11.4893M49.7852 202.996V241.297M49.7852 202.996H88.0812M11.4893 202.996V241.297M49.7852 241.297H11.4893M49.7852 241.297V279.598M49.7852 241.297H88.0812M11.4893 241.297V279.598M49.7852 279.598H11.4893M49.7852 279.598V317.899M49.7852 279.598H88.0812M11.4893 279.598V317.899M49.7852 317.899H11.4893M49.7852 317.899V356.2M49.7852 317.899H88.0812M11.4893 317.899V356.2M49.7852 356.2H11.4893M49.7852 356.2V394.501M49.7852 356.2H88.0812M11.4893 356.2V394.501M49.7852 394.501H11.4893M49.7852 394.501V432.802M49.7852 394.501H88.0812M11.4893 394.501V432.802M49.7852 432.802H11.4893M49.7852 432.802V471.103M49.7852 432.802H88.0812M11.4893 432.802V471.103M49.7852 471.103H11.4893M49.7852 471.103V509.404M49.7852 471.103H88.0812M11.4893 471.103V509.404M49.7852 509.404H11.4893M49.7852 509.404V547.705M49.7852 509.404H88.0812M11.4893 509.404V547.705M49.7852 547.705H11.4893M49.7852 547.705V586.006M49.7852 547.705H88.0812M11.4893 547.705V586.006M49.7852 586.006H11.4893M49.7852 586.006V624.307M49.7852 586.006H88.0812M11.4893 586.006V624.307M49.7852 624.307H11.4893M49.7852 624.307V662.608M49.7852 624.307H88.0812M11.4893 624.307V662.608M49.7852 662.608H11.4893M49.7852 662.608V700.909M49.7852 662.608H88.0812M11.4893 662.608V700.909M49.7852 700.909H11.4893M49.7852 700.909V739.21M49.7852 700.909H88.0812M11.4893 700.909V739.21M49.7852 739.21H11.4893M49.7852 739.21V777.511M49.7852 739.21H88.0812M11.4893 739.21V777.511H49.7852M49.7852 777.511H88.0812M88.0812 11.4912V49.7922M88.0812 11.4912H126.377M88.0812 49.7922V88.0932M88.0812 49.7922H126.377M88.0812 88.0932V126.394M88.0812 88.0932H126.377M88.0812 126.394V164.695M88.0812 126.394H126.377M88.0812 164.695V202.996M88.0812 164.695H126.377M88.0812 202.996V241.297M88.0812 202.996H126.377M88.0812 241.297V279.598M88.0812 241.297H126.377M88.0812 279.598V317.899M88.0812 279.598H126.377M88.0812 317.899V356.2M88.0812 317.899H126.377M88.0812 356.2V394.501M88.0812 356.2H126.377M88.0812 394.501V432.802M88.0812 394.501H126.377M88.0812 432.802V471.103M88.0812 432.802H126.377M88.0812 471.103V509.404M88.0812 471.103H126.377M88.0812 509.404V547.705M88.0812 509.404H126.377M88.0812 547.705V586.006M88.0812 547.705H126.377M88.0812 586.006V624.307M88.0812 586.006H126.377M88.0812 624.307V662.608M88.0812 624.307H126.377M88.0812 662.608V700.909M88.0812 662.608H126.377M88.0812 700.909V739.21M88.0812 700.909H126.377M88.0812 739.21V777.511M88.0812 739.21H126.377M88.0812 777.511H126.377M126.377 11.4912V49.7922M126.377 11.4912H164.673M126.377 49.7922V88.0932M126.377 49.7922H164.673M126.377 88.0932V126.394M126.377 88.0932H164.673M126.377 126.394V164.695M126.377 126.394H164.673M126.377 164.695V202.996M126.377 164.695H164.673M126.377 202.996V241.297M126.377 202.996H164.673M126.377 241.297V279.598M126.377 241.297H164.673M126.377 279.598V317.899M126.377 279.598H164.673M126.377 317.899V356.2M126.377 317.899H164.673M126.377 356.2V394.501M126.377 356.2H164.673M126.377 394.501V432.802M126.377 394.501H164.673M126.377 432.802V471.103M126.377 432.802H164.673M126.377 471.103V509.404M126.377 471.103H164.673M126.377 509.404V547.705M126.377 509.404H164.673M126.377 547.705V586.006M126.377 547.705H164.673M126.377 586.006V624.307M126.377 586.006H164.673M126.377 624.307V662.608M126.377 624.307H164.673M126.377 662.608V700.909M126.377 662.608H164.673M126.377 700.909V739.21M126.377 700.909H164.673M126.377 739.21V777.511M126.377 739.21H164.673M126.377 777.511H164.673M164.673 11.4912V49.7922M164.673 11.4912H202.969M164.673 49.7922V88.0932M164.673 49.7922H202.969M164.673 88.0932V126.394M164.673 88.0932H202.969M164.673 126.394V164.695M164.673 126.394H202.969M164.673 164.695V202.996M164.673 164.695H202.969M164.673 202.996V241.297M164.673 202.996H202.969M164.673 241.297V279.598M164.673 241.297H202.969M164.673 279.598V317.899M164.673 279.598H202.969M164.673 317.899V356.2M164.673 317.899H202.969M164.673 356.2V394.501M164.673 356.2H202.969M164.673 394.501V432.802M164.673 394.501H202.969M164.673 432.802V471.103M164.673 432.802H202.969M164.673 471.103V509.404M164.673 471.103H202.969M164.673 509.404V547.705M164.673 509.404H202.969M164.673 547.705V586.006M164.673 547.705H202.969M164.673 586.006V624.307M164.673 586.006H202.969M164.673 624.307V662.608M164.673 624.307H202.969M164.673 662.608V700.909M164.673 662.608H202.969M164.673 700.909V739.21M164.673 700.909H202.969M164.673 739.21V777.511M164.673 739.21H202.969M164.673 777.511H202.969M202.969 11.4912V49.7922M202.969 11.4912H241.265M202.969 49.7922V88.0932M202.969 49.7922H241.265M202.969 88.0932V126.394M202.969 88.0932H241.265M202.969 126.394V164.695M202.969 126.394H241.265M202.969 164.695V202.996M202.969 164.695H241.265M202.969 202.996V241.297M202.969 202.996H241.265M202.969 241.297V279.598M202.969 241.297H241.265M202.969 279.598V317.899M202.969 279.598H241.265M202.969 317.899V356.2M202.969 317.899H241.265M202.969 356.2V394.501M202.969 356.2H241.265M202.969 394.501V432.802M202.969 394.501H241.265M202.969 432.802V471.103M202.969 432.802H241.265M202.969 471.103V509.404M202.969 471.103H241.265M202.969 509.404V547.705M202.969 509.404H241.265M202.969 547.705V586.006M202.969 547.705H241.265M202.969 586.006V624.307M202.969 586.006H241.265M202.969 624.307V662.608M202.969 624.307H241.265M202.969 662.608V700.909M202.969 662.608H241.265M202.969 700.909V739.21M202.969 700.909H241.265M202.969 739.21V777.511M202.969 739.21H241.265M202.969 777.511H241.265M241.265 11.4912V49.7922M241.265 11.4912H279.561M241.265 49.7922V88.0932M241.265 49.7922H279.561M241.265 88.0932V126.394M241.265 88.0932H279.561M241.265 126.394V164.695M241.265 126.394H279.561M241.265 164.695V202.996M241.265 164.695H279.561M241.265 202.996V241.297M241.265 202.996H279.561M241.265 241.297V279.598M241.265 241.297H279.561M241.265 279.598V317.899M241.265 279.598H279.561M241.265 317.899V356.2M241.265 317.899H279.561M241.265 356.2V394.501M241.265 356.2H279.561M241.265 394.501V432.802M241.265 394.501H279.561M241.265 432.802V471.103M241.265 432.802H279.561M241.265 471.103V509.404M241.265 471.103H279.561M241.265 509.404V547.705M241.265 509.404H279.561M241.265 547.705V586.006M241.265 547.705H279.561M241.265 586.006V624.307M241.265 586.006H279.561M241.265 624.307V662.608M241.265 624.307H279.561M241.265 662.608V700.909M241.265 662.608H279.561M241.265 700.909V739.21M241.265 700.909H279.561M241.265 739.21V777.511M241.265 739.21H279.561M241.265 777.511H279.561M279.561 11.4912V49.7922M279.561 11.4912H317.857M279.561 49.7922V88.0932M279.561 49.7922H317.857M279.561 88.0932V126.394M279.561 88.0932H317.857M279.561 126.394V164.695M279.561 126.394H317.857M279.561 164.695V202.996M279.561 164.695H317.857M279.561 202.996V241.297M279.561 202.996H317.857M279.561 241.297V279.598M279.561 241.297H317.857M279.561 279.598V317.899M279.561 279.598H317.857M279.561 317.899V356.2M279.561 317.899H317.857M279.561 356.2V394.501M279.561 356.2H317.857M279.561 394.501V432.802M279.561 394.501H317.857M279.561 432.802V471.103M279.561 432.802H317.857M279.561 471.103V509.404M279.561 471.103H317.857M279.561 509.404V547.705M279.561 509.404H317.857M279.561 547.705V586.006M279.561 547.705H317.857M279.561 586.006V624.307M279.561 586.006H317.857M279.561 624.307V662.608M279.561 624.307H317.857M279.561 662.608V700.909M279.561 662.608H317.857M279.561 700.909V739.21M279.561 700.909H317.857M279.561 739.21V777.511M279.561 739.21H317.857M279.561 777.511H317.857M317.857 11.4912V49.7922M317.857 11.4912H356.153M317.857 49.7922V88.0932M317.857 49.7922H356.153M317.857 88.0932V126.394M317.857 88.0932H356.153M317.857 126.394V164.695M317.857 126.394H356.153M317.857 164.695V202.996M317.857 164.695H356.153M317.857 202.996V241.297M317.857 202.996H356.153M317.857 241.297V279.598M317.857 241.297H356.153M317.857 279.598V317.899M317.857 279.598H356.153M317.857 317.899V356.2M317.857 317.899H356.153M317.857 356.2V394.501M317.857 356.2H356.153M317.857 394.501V432.802M317.857 394.501H356.153M317.857 432.802V471.103M317.857 432.802H356.153M317.857 471.103V509.404M317.857 471.103H356.153M317.857 509.404V547.705M317.857 509.404H356.153M317.857 547.705V586.006M317.857 547.705H356.153M317.857 586.006V624.307M317.857 586.006H356.153M317.857 624.307V662.608M317.857 624.307H356.153M317.857 662.608V700.909M317.857 662.608H356.153M317.857 700.909V739.21M317.857 700.909H356.153M317.857 739.21V777.511M317.857 739.21H356.153M317.857 777.511H356.153M356.153 11.4912V49.7922M356.153 11.4912H394.449M356.153 49.7922V88.0932M356.153 49.7922H394.449M356.153 88.0932V126.394M356.153 88.0932H394.449M356.153 126.394V164.695M356.153 126.394H394.449M356.153 164.695V202.996M356.153 164.695H394.449M356.153 202.996V241.297M356.153 202.996H394.449M356.153 241.297V279.598M356.153 241.297H394.449M356.153 279.598V317.899M356.153 279.598H394.449M356.153 317.899V356.2M356.153 317.899H394.449M356.153 356.2V394.501M356.153 356.2H394.449M356.153 394.501V432.802M356.153 394.501H394.449M356.153 432.802V471.103M356.153 432.802H394.449M356.153 471.103V509.404M356.153 471.103H394.449M356.153 509.404V547.705M356.153 509.404H394.449M356.153 547.705V586.006M356.153 547.705H394.449M356.153 586.006V624.307M356.153 586.006H394.449M356.153 624.307V662.608M356.153 624.307H394.449M356.153 662.608V700.909M356.153 662.608H394.449M356.153 700.909V739.21M356.153 700.909H394.449M356.153 739.21V777.511M356.153 739.21H394.449M356.153 777.511H394.449M394.449 11.4912V49.7922M394.449 11.4912H432.745M394.449 49.7922V88.0932M394.449 49.7922H432.745M394.449 88.0932V126.394M394.449 88.0932H432.745M394.449 126.394V164.695M394.449 126.394H432.745M394.449 164.695V202.996M394.449 164.695H432.745M394.449 202.996V241.297M394.449 202.996H432.745M394.449 241.297V279.598M394.449 241.297H432.745M394.449 279.598V317.899M394.449 279.598H432.745M394.449 317.899V356.2M394.449 317.899H432.745M394.449 356.2V394.501M394.449 356.2H432.745M394.449 394.501V432.802M394.449 394.501H432.745M394.449 432.802V471.103M394.449 432.802H432.745M394.449 471.103V509.404M394.449 471.103H432.745M394.449 509.404V547.705M394.449 509.404H432.745M394.449 547.705V586.006M394.449 547.705H432.745M394.449 586.006V624.307M394.449 586.006H432.745M394.449 624.307V662.608M394.449 624.307H432.745M394.449 662.608V700.909M394.449 662.608H432.745M394.449 700.909V739.21M394.449 700.909H432.745M394.449 739.21V777.511M394.449 739.21H432.745M394.449 777.511H432.745M432.745 11.4912V49.7922M432.745 11.4912H471.041M432.745 49.7922V88.0932M432.745 49.7922H471.041M432.745 88.0932V126.394M432.745 88.0932H471.041M432.745 126.394V164.695M432.745 126.394H471.041M432.745 164.695V202.996M432.745 164.695H471.041M432.745 202.996V241.297M432.745 202.996H471.041M432.745 241.297V279.598M432.745 241.297H471.041M432.745 279.598V317.899M432.745 279.598H471.041M432.745 317.899V356.2M432.745 317.899H471.041M432.745 356.2V394.501M432.745 356.2H471.041M432.745 394.501V432.802M432.745 394.501H471.041M432.745 432.802V471.103M432.745 432.802H471.041M432.745 471.103V509.404M432.745 471.103H471.041M432.745 509.404V547.705M432.745 509.404H471.041M432.745 547.705V586.006M432.745 547.705H471.041M432.745 586.006V624.307M432.745 586.006H471.041M432.745 624.307V662.608M432.745 624.307H471.041M432.745 662.608V700.909M432.745 662.608H471.041M432.745 700.909V739.21M432.745 700.909H471.041M432.745 739.21V777.511M432.745 739.21H471.041M432.745 777.511H471.041M471.041 11.4912V49.7922M471.041 11.4912H509.337M471.041 49.7922V88.0932M471.041 49.7922H509.337M471.041 88.0932V126.394M471.041 88.0932H509.337M471.041 126.394V164.695M471.041 126.394H509.337M471.041 164.695V202.996M471.041 164.695H509.337M471.041 202.996V241.297M471.041 202.996H509.337M471.041 241.297V279.598M471.041 241.297H509.337M471.041 279.598V317.899M471.041 279.598H509.337M471.041 317.899V356.2M471.041 317.899H509.337M471.041 356.2V394.501M471.041 356.2H509.337M471.041 394.501V432.802M471.041 394.501H509.337M471.041 432.802V471.103M471.041 432.802H509.337M471.041 471.103V509.404M471.041 471.103H509.337M471.041 509.404V547.705M471.041 509.404H509.337M471.041 547.705V586.006M471.041 547.705H509.337M471.041 586.006V624.307M471.041 586.006H509.337M471.041 624.307V662.608M471.041 624.307H509.337M471.041 662.608V700.909M471.041 662.608H509.337M471.041 700.909V739.21M471.041 700.909H509.337M471.041 739.21V777.511M471.041 739.21H509.337M471.041 777.511H509.337M509.337 11.4912V49.7922M509.337 11.4912H547.633M509.337 49.7922V88.0932M509.337 49.7922H547.633M509.337 88.0932V126.394M509.337 88.0932H547.633M509.337 126.394V164.695M509.337 126.394H547.633M509.337 164.695V202.996M509.337 164.695H547.633M509.337 202.996V241.297M509.337 202.996H547.633M509.337 241.297V279.598M509.337 241.297H547.633M509.337 279.598V317.899M509.337 279.598H547.633M509.337 317.899V356.2M509.337 317.899H547.633M509.337 356.2V394.501M509.337 356.2H547.633M509.337 394.501V432.802M509.337 394.501H547.633M509.337 432.802V471.103M509.337 432.802H547.633M509.337 471.103V509.404M509.337 471.103H547.633M509.337 509.404V547.705M509.337 509.404H547.633M509.337 547.705V586.006M509.337 547.705H547.633M509.337 586.006V624.307M509.337 586.006H547.633M509.337 624.307V662.608M509.337 624.307H547.633M509.337 662.608V700.909M509.337 662.608H547.633M509.337 700.909V739.21M509.337 700.909H547.633M509.337 739.21V777.511M509.337 739.21H547.633M509.337 777.511H547.633M547.633 11.4912V49.7922M547.633 11.4912H585.929M547.633 49.7922V88.0932M547.633 49.7922H585.929M547.633 88.0932V126.394M547.633 88.0932H585.929M547.633 126.394V164.695M547.633 126.394H585.929M547.633 164.695V202.996M547.633 164.695H585.929M547.633 202.996V241.297M547.633 202.996H585.929M547.633 241.297V279.598M547.633 241.297H585.929M547.633 279.598V317.899M547.633 279.598H585.929M547.633 317.899V356.2M547.633 317.899H585.929M547.633 356.2V394.501M547.633 356.2H585.929M547.633 394.501V432.802M547.633 394.501H585.929M547.633 432.802V471.103M547.633 432.802H585.929M547.633 471.103V509.404M547.633 471.103H585.929M547.633 509.404V547.705M547.633 509.404H585.929M547.633 547.705V586.006M547.633 547.705H585.929M547.633 586.006V624.307M547.633 586.006H585.929M547.633 624.307V662.608M547.633 624.307H585.929M547.633 662.608V700.909M547.633 662.608H585.929M547.633 700.909V739.21M547.633 700.909H585.929M547.633 739.21V777.511M547.633 739.21H585.929M547.633 777.511H585.929M585.929 11.4912V49.7922M585.929 11.4912H624.225M585.929 49.7922V88.0932M585.929 49.7922H624.225M585.929 88.0932V126.394M585.929 88.0932H624.225M585.929 126.394V164.695M585.929 126.394H624.225M585.929 164.695V202.996M585.929 164.695H624.225M585.929 202.996V241.297M585.929 202.996H624.225M585.929 241.297V279.598M585.929 241.297H624.225M585.929 279.598V317.899M585.929 279.598H624.225M585.929 317.899V356.2M585.929 317.899H624.225M585.929 356.2V394.501M585.929 356.2H624.225M585.929 394.501V432.802M585.929 394.501H624.225M585.929 432.802V471.103M585.929 432.802H624.225M585.929 471.103V509.404M585.929 471.103H624.225M585.929 509.404V547.705M585.929 509.404H624.225M585.929 547.705V586.006M585.929 547.705H624.225M585.929 586.006V624.307M585.929 586.006H624.225M585.929 624.307V662.608M585.929 624.307H624.225M585.929 662.608V700.909M585.929 662.608H624.225M585.929 700.909V739.21M585.929 700.909H624.225M585.929 739.21V777.511M585.929 739.21H624.225M585.929 777.511H624.225M624.225 11.4912V49.7922M624.225 11.4912H662.521M624.225 49.7922V88.0932M624.225 49.7922H662.521M624.225 88.0932V126.394M624.225 88.0932H662.521M624.225 126.394V164.695M624.225 126.394H662.521M624.225 164.695V202.996M624.225 164.695H662.521M624.225 202.996V241.297M624.225 202.996H662.521M624.225 241.297V279.598M624.225 241.297H662.521M624.225 279.598V317.899M624.225 279.598H662.521M624.225 317.899V356.2M624.225 317.899H662.521M624.225 356.2V394.501M624.225 356.2H662.521M624.225 394.501V432.802M624.225 394.501H662.521M624.225 432.802V471.103M624.225 432.802H662.521M624.225 471.103V509.404M624.225 471.103H662.521M624.225 509.404V547.705M624.225 509.404H662.521M624.225 547.705V586.006M624.225 547.705H662.521M624.225 586.006V624.307M624.225 586.006H662.521M624.225 624.307V662.608M624.225 624.307H662.521M624.225 662.608V700.909M624.225 662.608H662.521M624.225 700.909V739.21M624.225 700.909H662.521M624.225 739.21V777.511M624.225 739.21H662.521M624.225 777.511H662.521M662.521 11.4912V49.7922M662.521 11.4912H700.817M662.521 49.7922V88.0932M662.521 49.7922H700.817M662.521 88.0932V126.394M662.521 88.0932H700.817M662.521 126.394V164.695M662.521 126.394H700.817M662.521 164.695V202.996M662.521 164.695H700.817M662.521 202.996V241.297M662.521 202.996H700.817M662.521 241.297V279.598M662.521 241.297H700.817M662.521 279.598V317.899M662.521 279.598H700.817M662.521 317.899V356.2M662.521 317.899H700.817M662.521 356.2V394.501M662.521 356.2H700.817M662.521 394.501V432.802M662.521 394.501H700.817M662.521 432.802V471.103M662.521 432.802H700.817M662.521 471.103V509.404M662.521 471.103H700.817M662.521 509.404V547.705M662.521 509.404H700.817M662.521 547.705V586.006M662.521 547.705H700.817M662.521 586.006V624.307M662.521 586.006H700.817M662.521 624.307V662.608M662.521 624.307H700.817M662.521 662.608V700.909M662.521 662.608H700.817M662.521 700.909V739.21M662.521 700.909H700.817M662.521 739.21V777.511M662.521 739.21H700.817M662.521 777.511H700.817M700.817 11.4912V49.7922M700.817 11.4912H739.113M700.817 49.7922V88.0932M700.817 49.7922H739.113M700.817 88.0932V126.394M700.817 88.0932H739.113M700.817 126.394V164.695M700.817 126.394H739.113M700.817 164.695V202.996M700.817 164.695H739.113M700.817 202.996V241.297M700.817 202.996H739.113M700.817 241.297V279.598M700.817 241.297H739.113M700.817 279.598V317.899M700.817 279.598H739.113M700.817 317.899V356.2M700.817 317.899H739.113M700.817 356.2V394.501M700.817 356.2H739.113M700.817 394.501V432.802M700.817 394.501H739.113M700.817 432.802V471.103M700.817 432.802H739.113M700.817 471.103V509.404M700.817 471.103H739.113M700.817 509.404V547.705M700.817 509.404H739.113M700.817 547.705V586.006M700.817 547.705H739.113M700.817 586.006V624.307M700.817 586.006H739.113M700.817 624.307V662.608M700.817 624.307H739.113M700.817 662.608V700.909M700.817 662.608H739.113M700.817 700.909V739.21M700.817 700.909H739.113M700.817 739.21V777.511M700.817 739.21H739.113M700.817 777.511H739.113M739.113 11.4912V49.7922M739.113 11.4912H777.409M739.113 49.7922V88.0932M739.113 49.7922H777.409M739.113 88.0932V126.394M739.113 88.0932H777.409M739.113 126.394V164.695M739.113 126.394H777.409M739.113 164.695V202.996M739.113 164.695H777.409M739.113 202.996V241.297M739.113 202.996H777.409M739.113 241.297V279.598M739.113 241.297H777.409M739.113 279.598V317.899M739.113 279.598H777.409M739.113 317.899V356.2M739.113 317.899H777.409M739.113 356.2V394.501M739.113 356.2H777.409M739.113 394.501V432.802M739.113 394.501H777.409M739.113 432.802V471.103M739.113 432.802H777.409M739.113 471.103V509.404M739.113 471.103H777.409M739.113 509.404V547.705M739.113 509.404H777.409M739.113 547.705V586.006M739.113 547.705H777.409M739.113 586.006V624.307M739.113 586.006H777.409M739.113 624.307V662.608M739.113 624.307H777.409M739.113 662.608V700.909M739.113 662.608H777.409M739.113 700.909V739.21M739.113 700.909H777.409M739.113 739.21V777.511M739.113 739.21H777.409M739.113 777.511H777.409M777.409 11.4912V49.7922M777.409 11.4912H815.704M777.409 49.7922V88.0932M777.409 49.7922H815.704M777.409 88.0932V126.394M777.409 88.0932H815.704M777.409 126.394V164.695M777.409 126.394H815.704M777.409 164.695V202.996M777.409 164.695H815.704M777.409 202.996V241.297M777.409 202.996H815.704M777.409 241.297V279.598M777.409 241.297H815.704M777.409 279.598V317.899M777.409 279.598H815.704M777.409 317.899V356.2M777.409 317.899H815.704M777.409 356.2V394.501M777.409 356.2H815.704M777.409 394.501V432.802M777.409 394.501H815.704M777.409 432.802V471.103M777.409 432.802H815.704M777.409 471.103V509.404M777.409 471.103H815.704M777.409 509.404V547.705M777.409 509.404H815.704M777.409 547.705V586.006M777.409 547.705H815.704M777.409 586.006V624.307M777.409 586.006H815.704M777.409 624.307V662.608M777.409 624.307H815.704M777.409 662.608V700.909M777.409 662.608H815.704M777.409 700.909V739.21M777.409 700.909H815.704M777.409 739.21V777.511M777.409 739.21H815.704M777.409 777.511H815.704M815.704 11.4912V49.7922M815.704 11.4912H854M815.704 49.7922V88.0932M815.704 49.7922H854M815.704 88.0932V126.394M815.704 88.0932H854M815.704 126.394V164.695M815.704 126.394H854M815.704 164.695V202.996M815.704 164.695H854M815.704 202.996V241.297M815.704 202.996H854M815.704 241.297V279.598M815.704 241.297H854M815.704 279.598V317.899M815.704 279.598H854M815.704 317.899V356.2M815.704 317.899H854M815.704 356.2V394.501M815.704 356.2H854M815.704 394.501V432.802M815.704 394.501H854M815.704 432.802V471.103M815.704 432.802H854M815.704 471.103V509.404M815.704 471.103H854M815.704 509.404V547.705M815.704 509.404H854M815.704 547.705V586.006M815.704 547.705H854M815.704 586.006V624.307M815.704 586.006H854M815.704 624.307V662.608M815.704 624.307H854M815.704 662.608V700.909M815.704 662.608H854M815.704 700.909V739.21M815.704 700.909H854M815.704 739.21V777.511M815.704 739.21H854M815.704 777.511H854M854 11.4912V49.7922M854 11.4912H892.296M854 49.7922V88.0932M854 49.7922H892.296M854 88.0932V126.394M854 88.0932H892.296M854 126.394V164.695M854 126.394H892.296M854 164.695V202.996M854 164.695H892.296M854 202.996V241.297M854 202.996H892.296M854 241.297V279.598M854 241.297H892.296M854 279.598V317.899M854 279.598H892.296M854 317.899V356.2M854 317.899H892.296M854 356.2V394.501M854 356.2H892.296M854 394.501V432.802M854 394.501H892.296M854 432.802V471.103M854 432.802H892.296M854 471.103V509.404M854 471.103H892.296M854 509.404V547.705M854 509.404H892.296M854 547.705V586.006M854 547.705H892.296M854 586.006V624.307M854 586.006H892.296M854 624.307V662.608M854 624.307H892.296M854 662.608V700.909M854 662.608H892.296M854 700.909V739.21M854 700.909H892.296M854 739.21V777.511M854 739.21H892.296M854 777.511H892.296M892.296 11.4912V49.7922M892.296 11.4912H930.592M892.296 49.7922V88.0932M892.296 49.7922H930.592M892.296 88.0932V126.394M892.296 88.0932H930.592M892.296 126.394V164.695M892.296 126.394H930.592M892.296 164.695V202.996M892.296 164.695H930.592M892.296 202.996V241.297M892.296 202.996H930.592M892.296 241.297V279.598M892.296 241.297H930.592M892.296 279.598V317.899M892.296 279.598H930.592M892.296 317.899V356.2M892.296 317.899H930.592M892.296 356.2V394.501M892.296 356.2H930.592M892.296 394.501V432.802M892.296 394.501H930.592M892.296 432.802V471.103M892.296 432.802H930.592M892.296 471.103V509.404M892.296 471.103H930.592M892.296 509.404V547.705M892.296 509.404H930.592M892.296 547.705V586.006M892.296 547.705H930.592M892.296 586.006V624.307M892.296 586.006H930.592M892.296 624.307V662.608M892.296 624.307H930.592M892.296 662.608V700.909M892.296 662.608H930.592M892.296 700.909V739.21M892.296 700.909H930.592M892.296 739.21V777.511M892.296 739.21H930.592M892.296 777.511H930.592M930.592 11.4912V49.7922M930.592 11.4912H968.888M930.592 49.7922V88.0932M930.592 49.7922H968.888M930.592 88.0932V126.394M930.592 88.0932H968.888M930.592 126.394V164.695M930.592 126.394H968.888M930.592 164.695V202.996M930.592 164.695H968.888M930.592 202.996V241.297M930.592 202.996H968.888M930.592 241.297V279.598M930.592 241.297H968.888M930.592 279.598V317.899M930.592 279.598H968.888M930.592 317.899V356.2M930.592 317.899H968.888M930.592 356.2V394.501M930.592 356.2H968.888M930.592 394.501V432.802M930.592 394.501H968.888M930.592 432.802V471.103M930.592 432.802H968.888M930.592 471.103V509.404M930.592 471.103H968.888M930.592 509.404V547.705M930.592 509.404H968.888M930.592 547.705V586.006M930.592 547.705H968.888M930.592 586.006V624.307M930.592 586.006H968.888M930.592 624.307V662.608M930.592 624.307H968.888M930.592 662.608V700.909M930.592 662.608H968.888M930.592 700.909V739.21M930.592 700.909H968.888M930.592 739.21V777.511M930.592 739.21H968.888M930.592 777.511H968.888M968.888 11.4912V49.7922M968.888 11.4912H1007.18M968.888 49.7922V88.0932M968.888 49.7922H1007.18M968.888 88.0932V126.394M968.888 88.0932H1007.18M968.888 126.394V164.695M968.888 126.394H1007.18M968.888 164.695V202.996M968.888 164.695H1007.18M968.888 202.996V241.297M968.888 202.996H1007.18M968.888 241.297V279.598M968.888 241.297H1007.18M968.888 279.598V317.899M968.888 279.598H1007.18M968.888 317.899V356.2M968.888 317.899H1007.18M968.888 356.2V394.501M968.888 356.2H1007.18M968.888 394.501V432.802M968.888 394.501H1007.18M968.888 432.802V471.103M968.888 432.802H1007.18M968.888 471.103V509.404M968.888 471.103H1007.18M968.888 509.404V547.705M968.888 509.404H1007.18M968.888 547.705V586.006M968.888 547.705H1007.18M968.888 586.006V624.307M968.888 586.006H1007.18M968.888 624.307V662.608M968.888 624.307H1007.18M968.888 662.608V700.909M968.888 662.608H1007.18M968.888 700.909V739.21M968.888 700.909H1007.18M968.888 739.21V777.511M968.888 739.21H1007.18M968.888 777.511H1007.18M1007.18 11.4912V49.7922M1007.18 11.4912H1045.48M1007.18 49.7922V88.0932M1007.18 49.7922H1045.48M1007.18 88.0932V126.394M1007.18 88.0932H1045.48M1007.18 126.394V164.695M1007.18 126.394H1045.48M1007.18 164.695V202.996M1007.18 164.695H1045.48M1007.18 202.996V241.297M1007.18 202.996H1045.48M1007.18 241.297V279.598M1007.18 241.297H1045.48M1007.18 279.598V317.899M1007.18 279.598H1045.48M1007.18 317.899V356.2M1007.18 317.899H1045.48M1007.18 356.2V394.501M1007.18 356.2H1045.48M1007.18 394.501V432.802M1007.18 394.501H1045.48M1007.18 432.802V471.103M1007.18 432.802H1045.48M1007.18 471.103V509.404M1007.18 471.103H1045.48M1007.18 509.404V547.705M1007.18 509.404H1045.48M1007.18 547.705V586.006M1007.18 547.705H1045.48M1007.18 586.006V624.307M1007.18 586.006H1045.48M1007.18 624.307V662.608M1007.18 624.307H1045.48M1007.18 662.608V700.909M1007.18 662.608H1045.48M1007.18 700.909V739.21M1007.18 700.909H1045.48M1007.18 739.21V777.511M1007.18 739.21H1045.48M1007.18 777.511H1045.48M1045.48 11.4912V49.7922M1045.48 11.4912H1083.78M1045.48 49.7922V88.0932M1045.48 49.7922H1083.78M1045.48 88.0932V126.394M1045.48 88.0932H1083.78M1045.48 126.394V164.695M1045.48 126.394H1083.78M1045.48 164.695V202.996M1045.48 164.695H1083.78M1045.48 202.996V241.297M1045.48 202.996H1083.78M1045.48 241.297V279.598M1045.48 241.297H1083.78M1045.48 279.598V317.899M1045.48 279.598H1083.78M1045.48 317.899V356.2M1045.48 317.899H1083.78M1045.48 356.2V394.501M1045.48 356.2H1083.78M1045.48 394.501V432.802M1045.48 394.501H1083.78M1045.48 432.802V471.103M1045.48 432.802H1083.78M1045.48 471.103V509.404M1045.48 471.103H1083.78M1045.48 509.404V547.705M1045.48 509.404H1083.78M1045.48 547.705V586.006M1045.48 547.705H1083.78M1045.48 586.006V624.307M1045.48 586.006H1083.78M1045.48 624.307V662.608M1045.48 624.307H1083.78M1045.48 662.608V700.909M1045.48 662.608H1083.78M1045.48 700.909V739.21M1045.48 700.909H1083.78M1045.48 739.21V777.511M1045.48 739.21H1083.78M1045.48 777.511H1083.78M1083.78 11.4912V49.7922M1083.78 11.4912H1122.07M1083.78 49.7922V88.0932M1083.78 49.7922H1122.07M1083.78 88.0932V126.394M1083.78 88.0932H1122.07M1083.78 126.394V164.695M1083.78 126.394H1122.07M1083.78 164.695V202.996M1083.78 164.695H1122.07M1083.78 202.996V241.297M1083.78 202.996H1122.07M1083.78 241.297V279.598M1083.78 241.297H1122.07M1083.78 279.598V317.899M1083.78 279.598H1122.07M1083.78 317.899V356.2M1083.78 317.899H1122.07M1083.78 356.2V394.501M1083.78 356.2H1122.07M1083.78 394.501V432.802M1083.78 394.501H1122.07M1083.78 432.802V471.103M1083.78 432.802H1122.07M1083.78 471.103V509.404M1083.78 471.103H1122.07M1083.78 509.404V547.705M1083.78 509.404H1122.07M1083.78 547.705V586.006M1083.78 547.705H1122.07M1083.78 586.006V624.307M1083.78 586.006H1122.07M1083.78 624.307V662.608M1083.78 624.307H1122.07M1083.78 662.608V700.909M1083.78 662.608H1122.07M1083.78 700.909V739.21M1083.78 700.909H1122.07M1083.78 739.21V777.511M1083.78 739.21H1122.07M1083.78 777.511H1122.07M1122.07 11.4912V49.7922M1122.07 11.4912H1160.37M1122.07 49.7922V88.0932M1122.07 49.7922H1160.37M1122.07 88.0932V126.394M1122.07 88.0932H1160.37M1122.07 126.394V164.695M1122.07 126.394H1160.37M1122.07 164.695V202.996M1122.07 164.695H1160.37M1122.07 202.996V241.297M1122.07 202.996H1160.37M1122.07 241.297V279.598M1122.07 241.297H1160.37M1122.07 279.598V317.899M1122.07 279.598H1160.37M1122.07 317.899V356.2M1122.07 317.899H1160.37M1122.07 356.2V394.501M1122.07 356.2H1160.37M1122.07 394.501V432.802M1122.07 394.501H1160.37M1122.07 432.802V471.103M1122.07 432.802H1160.37M1122.07 471.103V509.404M1122.07 471.103H1160.37M1122.07 509.404V547.705M1122.07 509.404H1160.37M1122.07 547.705V586.006M1122.07 547.705H1160.37M1122.07 586.006V624.307M1122.07 586.006H1160.37M1122.07 624.307V662.608M1122.07 624.307H1160.37M1122.07 662.608V700.909M1122.07 662.608H1160.37M1122.07 700.909V739.21M1122.07 700.909H1160.37M1122.07 739.21V777.511M1122.07 739.21H1160.37M1122.07 777.511H1160.37M1160.37 11.4912V49.7922M1160.37 11.4912H1198.66M1160.37 49.7922V88.0932M1160.37 49.7922H1198.66M1160.37 88.0932V126.394M1160.37 88.0932H1198.66M1160.37 126.394V164.695M1160.37 126.394H1198.66M1160.37 164.695V202.996M1160.37 164.695H1198.66M1160.37 202.996V241.297M1160.37 202.996H1198.66M1160.37 241.297V279.598M1160.37 241.297H1198.66M1160.37 279.598V317.899M1160.37 279.598H1198.66M1160.37 317.899V356.2M1160.37 317.899H1198.66M1160.37 356.2V394.501M1160.37 356.2H1198.66M1160.37 394.501V432.802M1160.37 394.501H1198.66M1160.37 432.802V471.103M1160.37 432.802H1198.66M1160.37 471.103V509.404M1160.37 471.103H1198.66M1160.37 509.404V547.705M1160.37 509.404H1198.66M1160.37 547.705V586.006M1160.37 547.705H1198.66M1160.37 586.006V624.307M1160.37 586.006H1198.66M1160.37 624.307V662.608M1160.37 624.307H1198.66M1160.37 662.608V700.909M1160.37 662.608H1198.66M1160.37 700.909V739.21M1160.37 700.909H1198.66M1160.37 739.21V777.511M1160.37 739.21H1198.66M1160.37 777.511H1198.66M1198.66 11.4912V49.7922M1198.66 11.4912H1236.96M1198.66 49.7922V88.0932M1198.66 49.7922H1236.96M1198.66 88.0932V126.394M1198.66 88.0932H1236.96M1198.66 126.394V164.695M1198.66 126.394H1236.96M1198.66 164.695V202.996M1198.66 164.695H1236.96M1198.66 202.996V241.297M1198.66 202.996H1236.96M1198.66 241.297V279.598M1198.66 241.297H1236.96M1198.66 279.598V317.899M1198.66 279.598H1236.96M1198.66 317.899V356.2M1198.66 317.899H1236.96M1198.66 356.2V394.501M1198.66 356.2H1236.96M1198.66 394.501V432.802M1198.66 394.501H1236.96M1198.66 432.802V471.103M1198.66 432.802H1236.96M1198.66 471.103V509.404M1198.66 471.103H1236.96M1198.66 509.404V547.705M1198.66 509.404H1236.96M1198.66 547.705V586.006M1198.66 547.705H1236.96M1198.66 586.006V624.307M1198.66 586.006H1236.96M1198.66 624.307V662.608M1198.66 624.307H1236.96M1198.66 662.608V700.909M1198.66 662.608H1236.96M1198.66 700.909V739.21M1198.66 700.909H1236.96M1198.66 739.21V777.511M1198.66 739.21H1236.96M1198.66 777.511H1236.96M1236.96 11.4912V49.7922M1236.96 11.4912H1275.26M1236.96 49.7922V88.0932M1236.96 49.7922H1275.26M1236.96 88.0932V126.394M1236.96 88.0932H1275.26M1236.96 126.394V164.695M1236.96 126.394H1275.26M1236.96 164.695V202.996M1236.96 164.695H1275.26M1236.96 202.996V241.297M1236.96 202.996H1275.26M1236.96 241.297V279.598M1236.96 241.297H1275.26M1236.96 279.598V317.899M1236.96 279.598H1275.26M1236.96 317.899V356.2M1236.96 317.899H1275.26M1236.96 356.2V394.501M1236.96 356.2H1275.26M1236.96 394.501V432.802M1236.96 394.501H1275.26M1236.96 432.802V471.103M1236.96 432.802H1275.26M1236.96 471.103V509.404M1236.96 471.103H1275.26M1236.96 509.404V547.705M1236.96 509.404H1275.26M1236.96 547.705V586.006M1236.96 547.705H1275.26M1236.96 586.006V624.307M1236.96 586.006H1275.26M1236.96 624.307V662.608M1236.96 624.307H1275.26M1236.96 662.608V700.909M1236.96 662.608H1275.26M1236.96 700.909V739.21M1236.96 700.909H1275.26M1236.96 739.21V777.511M1236.96 739.21H1275.26M1236.96 777.511H1275.26M1275.26 11.4912V49.7922M1275.26 11.4912H1313.55M1275.26 49.7922V88.0932M1275.26 49.7922H1313.55M1275.26 88.0932V126.394M1275.26 88.0932H1313.55M1275.26 126.394V164.695M1275.26 126.394H1313.55M1275.26 164.695V202.996M1275.26 164.695H1313.55M1275.26 202.996V241.297M1275.26 202.996H1313.55M1275.26 241.297V279.598M1275.26 241.297H1313.55M1275.26 279.598V317.899M1275.26 279.598H1313.55M1275.26 317.899V356.2M1275.26 317.899H1313.55M1275.26 356.2V394.501M1275.26 356.2H1313.55M1275.26 394.501V432.802M1275.26 394.501H1313.55M1275.26 432.802V471.103M1275.26 432.802H1313.55M1275.26 471.103V509.404M1275.26 471.103H1313.55M1275.26 509.404V547.705M1275.26 509.404H1313.55M1275.26 547.705V586.006M1275.26 547.705H1313.55M1275.26 586.006V624.307M1275.26 586.006H1313.55M1275.26 624.307V662.608M1275.26 624.307H1313.55M1275.26 662.608V700.909M1275.26 662.608H1313.55M1275.26 700.909V739.21M1275.26 700.909H1313.55M1275.26 739.21V777.511M1275.26 739.21H1313.55M1275.26 777.511H1313.55M1313.55 11.4912V49.7922M1313.55 11.4912H1351.85M1313.55 49.7922V88.0932M1313.55 49.7922H1351.85M1313.55 88.0932V126.394M1313.55 88.0932H1351.85M1313.55 126.394V164.695M1313.55 126.394H1351.85M1313.55 164.695V202.996M1313.55 164.695H1351.85M1313.55 202.996V241.297M1313.55 202.996H1351.85M1313.55 241.297V279.598M1313.55 241.297H1351.85M1313.55 279.598V317.899M1313.55 279.598H1351.85M1313.55 317.899V356.2M1313.55 317.899H1351.85M1313.55 356.2V394.501M1313.55 356.2H1351.85M1313.55 394.501V432.802M1313.55 394.501H1351.85M1313.55 432.802V471.103M1313.55 432.802H1351.85M1313.55 471.103V509.404M1313.55 471.103H1351.85M1313.55 509.404V547.705M1313.55 509.404H1351.85M1313.55 547.705V586.006M1313.55 547.705H1351.85M1313.55 586.006V624.307M1313.55 586.006H1351.85M1313.55 624.307V662.608M1313.55 624.307H1351.85M1313.55 662.608V700.909M1313.55 662.608H1351.85M1313.55 700.909V739.21M1313.55 700.909H1351.85M1313.55 739.21V777.511M1313.55 739.21H1351.85M1313.55 777.511H1351.85M1351.85 11.4912V49.7922M1351.85 11.4912H1390.14M1351.85 49.7922V88.0932M1351.85 49.7922H1390.14M1351.85 88.0932V126.394M1351.85 88.0932H1390.14M1351.85 126.394V164.695M1351.85 126.394H1390.14M1351.85 164.695V202.996M1351.85 164.695H1390.14M1351.85 202.996V241.297M1351.85 202.996H1390.14M1351.85 241.297V279.598M1351.85 241.297H1390.14M1351.85 279.598V317.899M1351.85 279.598H1390.14M1351.85 317.899V356.2M1351.85 317.899H1390.14M1351.85 356.2V394.501M1351.85 356.2H1390.14M1351.85 394.501V432.802M1351.85 394.501H1390.14M1351.85 432.802V471.103M1351.85 432.802H1390.14M1351.85 471.103V509.404M1351.85 471.103H1390.14M1351.85 509.404V547.705M1351.85 509.404H1390.14M1351.85 547.705V586.006M1351.85 547.705H1390.14M1351.85 586.006V624.307M1351.85 586.006H1390.14M1351.85 624.307V662.608M1351.85 624.307H1390.14M1351.85 662.608V700.909M1351.85 662.608H1390.14M1351.85 700.909V739.21M1351.85 700.909H1390.14M1351.85 739.21V777.511M1351.85 739.21H1390.14M1351.85 777.511H1390.14M1390.14 11.4912V49.7922M1390.14 11.4912H1428.44M1390.14 49.7922V88.0932M1390.14 49.7922H1428.44M1390.14 88.0932V126.394M1390.14 88.0932H1428.44M1390.14 126.394V164.695M1390.14 126.394H1428.44M1390.14 164.695V202.996M1390.14 164.695H1428.44M1390.14 202.996V241.297M1390.14 202.996H1428.44M1390.14 241.297V279.598M1390.14 241.297H1428.44M1390.14 279.598V317.899M1390.14 279.598H1428.44M1390.14 317.899V356.2M1390.14 317.899H1428.44M1390.14 356.2V394.501M1390.14 356.2H1428.44M1390.14 394.501V432.802M1390.14 394.501H1428.44M1390.14 432.802V471.103M1390.14 432.802H1428.44M1390.14 471.103V509.404M1390.14 471.103H1428.44M1390.14 509.404V547.705M1390.14 509.404H1428.44M1390.14 547.705V586.006M1390.14 547.705H1428.44M1390.14 586.006V624.307M1390.14 586.006H1428.44M1390.14 624.307V662.608M1390.14 624.307H1428.44M1390.14 662.608V700.909M1390.14 662.608H1428.44M1390.14 700.909V739.21M1390.14 700.909H1428.44M1390.14 739.21V777.511M1390.14 739.21H1428.44M1390.14 777.511H1428.44M1428.44 11.4912V49.7922M1428.44 11.4912H1466.74M1428.44 49.7922V88.0932M1428.44 49.7922H1466.74M1428.44 88.0932V126.394M1428.44 88.0932H1466.74M1428.44 126.394V164.695M1428.44 126.394H1466.74M1428.44 164.695V202.996M1428.44 164.695H1466.74M1428.44 202.996V241.297M1428.44 202.996H1466.74M1428.44 241.297V279.598M1428.44 241.297H1466.74M1428.44 279.598V317.899M1428.44 279.598H1466.74M1428.44 317.899V356.2M1428.44 317.899H1466.74M1428.44 356.2V394.501M1428.44 356.2H1466.74M1428.44 394.501V432.802M1428.44 394.501H1466.74M1428.44 432.802V471.103M1428.44 432.802H1466.74M1428.44 471.103V509.404M1428.44 471.103H1466.74M1428.44 509.404V547.705M1428.44 509.404H1466.74M1428.44 547.705V586.006M1428.44 547.705H1466.74M1428.44 586.006V624.307M1428.44 586.006H1466.74M1428.44 624.307V662.608M1428.44 624.307H1466.74M1428.44 662.608V700.909M1428.44 662.608H1466.74M1428.44 700.909V739.21M1428.44 700.909H1466.74M1428.44 739.21V777.511M1428.44 739.21H1466.74M1428.44 777.511H1466.74M1466.74 11.4912V49.7922M1466.74 11.4912H1505.03M1466.74 49.7922V88.0932M1466.74 49.7922H1505.03M1466.74 88.0932V126.394M1466.74 88.0932H1505.03M1466.74 126.394V164.695M1466.74 126.394H1505.03M1466.74 164.695V202.996M1466.74 164.695H1505.03M1466.74 202.996V241.297M1466.74 202.996H1505.03M1466.74 241.297V279.598M1466.74 241.297H1505.03M1466.74 279.598V317.899M1466.74 279.598H1505.03M1466.74 317.899V356.2M1466.74 317.899H1505.03M1466.74 356.2V394.501M1466.74 356.2H1505.03M1466.74 394.501V432.802M1466.74 394.501H1505.03M1466.74 432.802V471.103M1466.74 432.802H1505.03M1466.74 471.103V509.404M1466.74 471.103H1505.03M1466.74 509.404V547.705M1466.74 509.404H1505.03M1466.74 547.705V586.006M1466.74 547.705H1505.03M1466.74 586.006V624.307M1466.74 586.006H1505.03M1466.74 624.307V662.608M1466.74 624.307H1505.03M1466.74 662.608V700.909M1466.74 662.608H1505.03M1466.74 700.909V739.21M1466.74 700.909H1505.03M1466.74 739.21V777.511M1466.74 739.21H1505.03M1466.74 777.511H1505.03M1505.03 11.4912V49.7922M1505.03 11.4912H1543.33M1505.03 49.7922V88.0932M1505.03 49.7922H1543.33M1505.03 88.0932V126.394M1505.03 88.0932H1543.33M1505.03 126.394V164.695M1505.03 126.394H1543.33M1505.03 164.695V202.996M1505.03 164.695H1543.33M1505.03 202.996V241.297M1505.03 202.996H1543.33M1505.03 241.297V279.598M1505.03 241.297H1543.33M1505.03 279.598V317.899M1505.03 279.598H1543.33M1505.03 317.899V356.2M1505.03 317.899H1543.33M1505.03 356.2V394.501M1505.03 356.2H1543.33M1505.03 394.501V432.802M1505.03 394.501H1543.33M1505.03 432.802V471.103M1505.03 432.802H1543.33M1505.03 471.103V509.404M1505.03 471.103H1543.33M1505.03 509.404V547.705M1505.03 509.404H1543.33M1505.03 547.705V586.006M1505.03 547.705H1543.33M1505.03 586.006V624.307M1505.03 586.006H1543.33M1505.03 624.307V662.608M1505.03 624.307H1543.33M1505.03 662.608V700.909M1505.03 662.608H1543.33M1505.03 700.909V739.21M1505.03 700.909H1543.33M1505.03 739.21V777.511M1505.03 739.21H1543.33M1505.03 777.511H1543.33M1543.33 11.4912V49.7922M1543.33 11.4912H1581.62M1543.33 49.7922V88.0932M1543.33 49.7922H1581.62M1543.33 88.0932V126.394M1543.33 88.0932H1581.62M1543.33 126.394V164.695M1543.33 126.394H1581.62M1543.33 164.695V202.996M1543.33 164.695H1581.62M1543.33 202.996V241.297M1543.33 202.996H1581.62M1543.33 241.297V279.598M1543.33 241.297H1581.62M1543.33 279.598V317.899M1543.33 279.598H1581.62M1543.33 317.899V356.2M1543.33 317.899H1581.62M1543.33 356.2V394.501M1543.33 356.2H1581.62M1543.33 394.501V432.802M1543.33 394.501H1581.62M1543.33 432.802V471.103M1543.33 432.802H1581.62M1543.33 471.103V509.404M1543.33 471.103H1581.62M1543.33 509.404V547.705M1543.33 509.404H1581.62M1543.33 547.705V586.006M1543.33 547.705H1581.62M1543.33 586.006V624.307M1543.33 586.006H1581.62M1543.33 624.307V662.608M1543.33 624.307H1581.62M1543.33 662.608V700.909M1543.33 662.608H1581.62M1543.33 700.909V739.21M1543.33 700.909H1581.62M1543.33 739.21V777.511M1543.33 739.21H1581.62M1543.33 777.511H1581.62M1581.62 11.4912V49.7922M1581.62 11.4912H1619.92M1581.62 49.7922V88.0932M1581.62 49.7922H1619.92M1581.62 88.0932V126.394M1581.62 88.0932H1619.92M1581.62 126.394V164.695M1581.62 126.394H1619.92M1581.62 164.695V202.996M1581.62 164.695H1619.92M1581.62 202.996V241.297M1581.62 202.996H1619.92M1581.62 241.297V279.598M1581.62 241.297H1619.92M1581.62 279.598V317.899M1581.62 279.598H1619.92M1581.62 317.899V356.2M1581.62 317.899H1619.92M1581.62 356.2V394.501M1581.62 356.2H1619.92M1581.62 394.501V432.802M1581.62 394.501H1619.92M1581.62 432.802V471.103M1581.62 432.802H1619.92M1581.62 471.103V509.404M1581.62 471.103H1619.92M1581.62 509.404V547.705M1581.62 509.404H1619.92M1581.62 547.705V586.006M1581.62 547.705H1619.92M1581.62 586.006V624.307M1581.62 586.006H1619.92M1581.62 624.307V662.608M1581.62 624.307H1619.92M1581.62 662.608V700.909M1581.62 662.608H1619.92M1581.62 700.909V739.21M1581.62 700.909H1619.92M1581.62 739.21V777.511M1581.62 739.21H1619.92M1581.62 777.511H1619.92M1619.92 11.4912V49.7922M1619.92 11.4912H1658.22M1619.92 49.7922V88.0932M1619.92 49.7922H1658.22M1619.92 88.0932V126.394M1619.92 88.0932H1658.22M1619.92 126.394V164.695M1619.92 126.394H1658.22M1619.92 164.695V202.996M1619.92 164.695H1658.22M1619.92 202.996V241.297M1619.92 202.996H1658.22M1619.92 241.297V279.598M1619.92 241.297H1658.22M1619.92 279.598V317.899M1619.92 279.598H1658.22M1619.92 317.899V356.2M1619.92 317.899H1658.22M1619.92 356.2V394.501M1619.92 356.2H1658.22M1619.92 394.501V432.802M1619.92 394.501H1658.22M1619.92 432.802V471.103M1619.92 432.802H1658.22M1619.92 471.103V509.404M1619.92 471.103H1658.22M1619.92 509.404V547.705M1619.92 509.404H1658.22M1619.92 547.705V586.006M1619.92 547.705H1658.22M1619.92 586.006V624.307M1619.92 586.006H1658.22M1619.92 624.307V662.608M1619.92 624.307H1658.22M1619.92 662.608V700.909M1619.92 662.608H1658.22M1619.92 700.909V739.21M1619.92 700.909H1658.22M1619.92 739.21V777.511M1619.92 739.21H1658.22M1619.92 777.511H1658.22M1658.22 11.4912V49.7922M1658.22 11.4912H1696.51V49.7922M1658.22 49.7922V88.0932M1658.22 49.7922H1696.51M1658.22 88.0932V126.394M1658.22 88.0932H1696.51M1658.22 126.394V164.695M1658.22 126.394H1696.51M1658.22 164.695V202.996M1658.22 164.695H1696.51M1658.22 202.996V241.297M1658.22 202.996H1696.51M1658.22 241.297V279.598M1658.22 241.297H1696.51M1658.22 279.598V317.899M1658.22 279.598H1696.51M1658.22 317.899V356.2M1658.22 317.899H1696.51M1658.22 356.2V394.501M1658.22 356.2H1696.51M1658.22 394.501V432.802M1658.22 394.501H1696.51M1658.22 432.802V471.103M1658.22 432.802H1696.51M1658.22 471.103V509.404M1658.22 471.103H1696.51M1658.22 509.404V547.705M1658.22 509.404H1696.51M1658.22 547.705V586.006M1658.22 547.705H1696.51M1658.22 586.006V624.307M1658.22 586.006H1696.51M1658.22 624.307V662.608M1658.22 624.307H1696.51M1658.22 662.608V700.909M1658.22 662.608H1696.51M1658.22 700.909V739.21M1658.22 700.909H1696.51M1658.22 739.21V777.511M1658.22 739.21H1696.51M1658.22 777.511H1696.51V739.21M1696.51 49.7922V88.0932M1696.51 88.0932V126.394M1696.51 126.394V164.695M1696.51 164.695V202.996M1696.51 202.996V241.297M1696.51 241.297V279.598M1696.51 279.598V317.899M1696.51 317.899V356.2M1696.51 356.2V394.501M1696.51 394.501V432.802M1696.51 432.802V471.103M1696.51 471.103V509.404M1696.51 509.404V547.705M1696.51 547.705V586.006M1696.51 586.006V624.307M1696.51 624.307V662.608M1696.51 662.608V700.909M1696.51 700.909V739.21" stroke="url(#paint1_radial_1426_6705)" stroke-width="0.8"/>
</g>
</g>
<defs>
<radialGradient id="paint0_radial_1426_6705" cx="0" cy="0" r="1" gradientUnits="userSpaceOnUse" gradientTransform="translate(854 394.5) rotate(90) scale(394.5 689.62)">
<stop offset="0.665789" stop-color="white"/>
<stop offset="1" stop-color="white" stop-opacity="0.2"/>
</radialGradient>
<radialGradient id="paint1_radial_1426_6705" cx="0" cy="0" r="1" gradientUnits="userSpaceOnUse" gradientTransform="translate(854.001 370.006) rotate(90) scale(432.695 768.599)">
<stop offset="0.665789" stop-color="white"/>
<stop offset="1" stop-color="white" stop-opacity="0.2"/>
</radialGradient>
<clipPath id="clip0_1426_6705">
<rect width="1708" height="789" fill="white"/>
</clipPath>
</defs>
</svg>
