<svg width="1408" height="724" viewBox="0 0 1408 724" fill="none" xmlns="http://www.w3.org/2000/svg">
<g clip-path="url(#clip0_1426_6688)">
<g clip-path="url(#clip1_1426_6688)">
<g style="mix-blend-mode:soft-light" opacity="0.72">
<path d="M743.386 118.997V130.83M743.386 130.83V142.664M743.386 130.83H755.22M743.386 130.83H731.553M743.386 434.557V446.39M743.386 446.39V458.224M743.386 446.39H755.22M743.386 446.39H731.553M743.386 750.117V761.95M743.386 761.95V773.784M743.386 761.95H755.22M743.386 761.95H731.553M427.826 118.997V130.83M427.826 130.83V142.664M427.826 130.83H439.66M427.826 130.83H415.993M427.826 434.557V446.39M427.826 446.39V458.224M427.826 446.39H439.66M427.826 446.39H415.993M427.826 750.117V761.95M427.826 761.95V773.784M427.826 761.95H439.66M427.826 761.95H415.993M112.266 118.997V130.83M112.266 130.83V142.664M112.266 130.83H124.1M112.266 130.83H100.433M112.266 434.557V446.39M112.266 446.39V458.224M112.266 446.39H124.1M112.266 446.39H100.433M112.266 750.117V761.95M112.266 761.95V773.784M112.266 761.95H124.1M112.266 761.95H100.433M-203.294 118.997V130.83M-203.294 130.83V142.664M-203.294 130.83H-191.46M-203.294 130.83H-215.127M-203.294 434.557V446.39M-203.294 446.39V458.224M-203.294 446.39H-191.46M-203.294 446.39H-215.127M-203.294 750.117V761.95M-203.294 761.95V773.784M-203.294 761.95H-191.46M-203.294 761.95H-215.127M-518.854 118.997V130.83M-518.854 130.83V142.664M-518.854 130.83H-507.02M-518.854 130.83H-530.687M-518.854 434.557V446.39M-518.854 446.39V458.224M-518.854 446.39H-507.02M-518.854 446.39H-530.687M-518.854 750.117V761.95M-518.854 761.95V773.784M-518.854 761.95H-507.02M-518.854 761.95H-530.687M-834.414 118.997V130.83M-834.414 130.83V142.664M-834.414 130.83H-822.581M-834.414 130.83H-846.248M-834.414 434.557V446.39M-834.414 446.39V458.224M-834.414 446.39H-822.581M-834.414 446.39H-846.248M-834.414 750.117V761.95M-834.414 761.95V773.784M-834.414 761.95H-822.581M-834.414 761.95H-846.248M743.386 -38.7832V-26.9497M743.386 -26.9497V-15.1162M743.386 -26.9497H755.22M743.386 -26.9497H731.553M743.386 276.777V288.61M743.386 288.61V300.444M743.386 288.61H755.22M743.386 288.61H731.553M743.386 592.337V604.17M743.386 604.17V616.004M743.386 604.17H755.22M743.386 604.17H731.553M427.826 -38.7832V-26.9497M427.826 -26.9497V-15.1162M427.826 -26.9497H439.66M427.826 -26.9497H415.993M427.826 276.777V288.61M427.826 288.61V300.444M427.826 288.61H439.66M427.826 288.61H415.993M427.826 592.337V604.17M427.826 604.17V616.004M427.826 604.17H439.66M427.826 604.17H415.993M112.266 -38.7832V-26.9497M112.266 -26.9497V-15.1162M112.266 -26.9497H124.1M112.266 -26.9497H100.433M112.266 276.777V288.61M112.266 288.61V300.444M112.266 288.61H124.1M112.266 288.61H100.433M112.266 592.337V604.17M112.266 604.17V616.004M112.266 604.17H124.1M112.266 604.17H100.433M-203.294 -38.7832V-26.9497M-203.294 -26.9497V-15.1162M-203.294 -26.9497H-191.46M-203.294 -26.9497H-215.127M-203.294 276.777V288.61M-203.294 288.61V300.444M-203.294 288.61H-191.46M-203.294 288.61H-215.127M-203.294 592.337V604.17M-203.294 604.17V616.004M-203.294 604.17H-191.46M-203.294 604.17H-215.127M-518.854 -38.7832V-26.9497M-518.854 -26.9497V-15.1162M-518.854 -26.9497H-507.02M-518.854 -26.9497H-530.687M-518.854 276.777V288.61M-518.854 288.61V300.444M-518.854 288.61H-507.02M-518.854 288.61H-530.687M-518.854 592.337V604.17M-518.854 604.17V616.004M-518.854 604.17H-507.02M-518.854 604.17H-530.687M-834.414 -38.7832V-26.9497M-834.414 -26.9497V-15.1162M-834.414 -26.9497H-822.581M-834.414 -26.9497H-846.248M-834.414 276.777V288.61M-834.414 288.61V300.444M-834.414 288.61H-822.581M-834.414 288.61H-846.248M-834.414 592.337V604.17M-834.414 604.17V616.004M-834.414 604.17H-822.581M-834.414 604.17H-846.248M901.166 118.997V130.83M901.166 130.83V142.664M901.166 130.83H913M901.166 130.83H889.333M901.166 434.557V446.39M901.166 446.39V458.224M901.166 446.39H913M901.166 446.39H889.333M901.166 750.117V761.95M901.166 761.95V773.784M901.166 761.95H913M901.166 761.95H889.333M585.606 118.997V130.83M585.606 130.83V142.664M585.606 130.83H597.44M585.606 130.83H573.773M585.606 434.557V446.39M585.606 446.39V458.224M585.606 446.39H597.44M585.606 446.39H573.773M585.606 750.117V761.95M585.606 761.95V773.784M585.606 761.95H597.44M585.606 761.95H573.773M270.046 118.997V130.83M270.046 130.83V142.664M270.046 130.83H281.88M270.046 130.83H258.213M270.046 434.557V446.39M270.046 446.39V458.224M270.046 446.39H281.88M270.046 446.39H258.213M270.046 750.117V761.95M270.046 761.95V773.784M270.046 761.95H281.88M270.046 761.95H258.213M-45.5139 118.997V130.83M-45.5139 130.83V142.664M-45.5139 130.83H-33.6803M-45.5139 130.83H-57.3474M-45.5139 434.557V446.39M-45.5139 446.39V458.224M-45.5139 446.39H-33.6803M-45.5139 446.39H-57.3474M-45.5139 750.117V761.95M-45.5139 761.95V773.784M-45.5139 761.95H-33.6803M-45.5139 761.95H-57.3474M-361.074 118.997V130.83M-361.074 130.83V142.664M-361.074 130.83H-349.24M-361.074 130.83H-372.907M-361.074 434.557V446.39M-361.074 446.39V458.224M-361.074 446.39H-349.24M-361.074 446.39H-372.907M-361.074 750.117V761.95M-361.074 761.95V773.784M-361.074 761.95H-349.24M-361.074 761.95H-372.907M-676.634 118.997V130.83M-676.634 130.83V142.664M-676.634 130.83H-664.8M-676.634 130.83H-688.467M-676.634 434.557V446.39M-676.634 446.39V458.224M-676.634 446.39H-664.8M-676.634 446.39H-688.467M-676.634 750.117V761.95M-676.634 761.95V773.784M-676.634 761.95H-664.8M-676.634 761.95H-688.467M901.166 -38.7831V-26.9496M901.166 -26.9496V-15.1161M901.166 -26.9496H913M901.166 -26.9496H889.333M901.166 276.777V288.61M901.166 288.61V300.444M901.166 288.61H913M901.166 288.61H889.333M901.166 592.337V604.17M901.166 604.17V616.004M901.166 604.17H913M901.166 604.17H889.333M585.606 -38.7832V-26.9497M585.606 -26.9497V-15.1162M585.606 -26.9497H597.44M585.606 -26.9497H573.773M585.606 276.777V288.61M585.606 288.61V300.444M585.606 288.61H597.44M585.606 288.61H573.773M585.606 592.337V604.17M585.606 604.17V616.004M585.606 604.17H597.44M585.606 604.17H573.773M270.046 -38.7832V-26.9497M270.046 -26.9497V-15.1162M270.046 -26.9497H281.88M270.046 -26.9497H258.213M270.046 276.777V288.61M270.046 288.61V300.444M270.046 288.61H281.88M270.046 288.61H258.213M270.046 592.337V604.17M270.046 604.17V616.004M270.046 604.17H281.88M270.046 604.17H258.213M-45.5139 -38.7832V-26.9497M-45.5139 -26.9497V-15.1162M-45.5139 -26.9497H-33.6803M-45.5139 -26.9497H-57.3474M-45.5139 276.777V288.61M-45.5139 288.61V300.444M-45.5139 288.61H-33.6803M-45.5139 288.61H-57.3474M-45.5139 592.337V604.17M-45.5139 604.17V616.004M-45.5139 604.17H-33.6803M-45.5139 604.17H-57.3474M-361.074 -38.7832V-26.9497M-361.074 -26.9497V-15.1162M-361.074 -26.9497H-349.24M-361.074 -26.9497H-372.907M-361.074 276.777V288.61M-361.074 288.61V300.444M-361.074 288.61H-349.24M-361.074 288.61H-372.907M-361.074 592.337V604.17M-361.074 604.17V616.004M-361.074 604.17H-349.24M-361.074 604.17H-372.907M-676.634 -38.7832V-26.9497M-676.634 -26.9497V-15.1162M-676.634 -26.9497H-664.8M-676.634 -26.9497H-688.467M-676.634 276.777V288.61M-676.634 288.61V300.444M-676.634 288.61H-664.8M-676.634 288.61H-688.467M-676.634 592.337V604.17M-676.634 604.17V616.004M-676.634 604.17H-664.8M-676.634 604.17H-688.467" stroke="url(#paint0_radial_1426_6688)"/>
</g>
</g>
<g clip-path="url(#clip2_1426_6688)">
<g style="mix-blend-mode:soft-light" opacity="0.72">
<path d="M664.614 118.997V130.83M664.614 130.83V142.664M664.614 130.83H652.78M664.614 130.83H676.447M664.614 434.557V446.39M664.614 446.39V458.224M664.614 446.39H652.78M664.614 446.39H676.447M664.614 750.117V761.95M664.614 761.95V773.784M664.614 761.95H652.78M664.614 761.95H676.447M980.174 118.997V130.83M980.174 130.83V142.664M980.174 130.83H968.34M980.174 130.83H992.007M980.174 434.557V446.39M980.174 446.39V458.224M980.174 446.39H968.34M980.174 446.39H992.007M980.174 750.117V761.95M980.174 761.95V773.784M980.174 761.95H968.34M980.174 761.95H992.007M1295.73 118.997V130.83M1295.73 130.83V142.664M1295.73 130.83H1283.9M1295.73 130.83H1307.57M1295.73 434.557V446.39M1295.73 446.39V458.224M1295.73 446.39H1283.9M1295.73 446.39H1307.57M1295.73 750.117V761.95M1295.73 761.95V773.784M1295.73 761.95H1283.9M1295.73 761.95H1307.57M1611.29 118.997V130.83M1611.29 130.83V142.664M1611.29 130.83H1599.46M1611.29 130.83H1623.13M1611.29 434.557V446.39M1611.29 446.39V458.224M1611.29 446.39H1599.46M1611.29 446.39H1623.13M1611.29 750.117V761.95M1611.29 761.95V773.784M1611.29 761.95H1599.46M1611.29 761.95H1623.13M1926.85 118.997V130.83M1926.85 130.83V142.664M1926.85 130.83H1915.02M1926.85 130.83H1938.69M1926.85 434.557V446.39M1926.85 446.39V458.224M1926.85 446.39H1915.02M1926.85 446.39H1938.69M1926.85 750.117V761.95M1926.85 761.95V773.784M1926.85 761.95H1915.02M1926.85 761.95H1938.69M2242.41 118.997V130.83M2242.41 130.83V142.664M2242.41 130.83H2230.58M2242.41 130.83H2254.25M2242.41 434.557V446.39M2242.41 446.39V458.224M2242.41 446.39H2230.58M2242.41 446.39H2254.25M2242.41 750.117V761.95M2242.41 761.95V773.784M2242.41 761.95H2230.58M2242.41 761.95H2254.25M664.614 -38.7832V-26.9497M664.614 -26.9497V-15.1162M664.614 -26.9497H652.78M664.614 -26.9497H676.447M664.614 276.777V288.61M664.614 288.61V300.444M664.614 288.61H652.78M664.614 288.61H676.447M664.614 592.337V604.17M664.614 604.17V616.004M664.614 604.17H652.78M664.614 604.17H676.447M980.174 -38.7832V-26.9497M980.174 -26.9497V-15.1162M980.174 -26.9497H968.34M980.174 -26.9497H992.007M980.174 276.777V288.61M980.174 288.61V300.444M980.174 288.61H968.34M980.174 288.61H992.007M980.174 592.337V604.17M980.174 604.17V616.004M980.174 604.17H968.34M980.174 604.17H992.007M1295.73 -38.7832V-26.9497M1295.73 -26.9497V-15.1162M1295.73 -26.9497H1283.9M1295.73 -26.9497H1307.57M1295.73 276.777V288.61M1295.73 288.61V300.444M1295.73 288.61H1283.9M1295.73 288.61H1307.57M1295.73 592.337V604.17M1295.73 604.17V616.004M1295.73 604.17H1283.9M1295.73 604.17H1307.57M1611.29 -38.7832V-26.9497M1611.29 -26.9497V-15.1162M1611.29 -26.9497H1599.46M1611.29 -26.9497H1623.13M1611.29 276.777V288.61M1611.29 288.61V300.444M1611.29 288.61H1599.46M1611.29 288.61H1623.13M1611.29 592.337V604.17M1611.29 604.17V616.004M1611.29 604.17H1599.46M1611.29 604.17H1623.13M1926.85 -38.7832V-26.9497M1926.85 -26.9497V-15.1162M1926.85 -26.9497H1915.02M1926.85 -26.9497H1938.69M1926.85 276.777V288.61M1926.85 288.61V300.444M1926.85 288.61H1915.02M1926.85 288.61H1938.69M1926.85 592.337V604.17M1926.85 604.17V616.004M1926.85 604.17H1915.02M1926.85 604.17H1938.69M2242.41 -38.7832V-26.9497M2242.41 -26.9497V-15.1162M2242.41 -26.9497H2230.58M2242.41 -26.9497H2254.25M2242.41 276.777V288.61M2242.41 288.61V300.444M2242.41 288.61H2230.58M2242.41 288.61H2254.25M2242.41 592.337V604.17M2242.41 604.17V616.004M2242.41 604.17H2230.58M2242.41 604.17H2254.25M506.834 118.997V130.83M506.834 130.83V142.664M506.834 130.83H495M506.834 130.83H518.667M506.834 434.557V446.39M506.834 446.39V458.224M506.834 446.39H495M506.834 446.39H518.667M506.834 750.117V761.95M506.834 761.95V773.784M506.834 761.95H495M506.834 761.95H518.667M822.394 118.997V130.83M822.394 130.83V142.664M822.394 130.83H810.56M822.394 130.83H834.227M822.394 434.557V446.39M822.394 446.39V458.224M822.394 446.39H810.56M822.394 446.39H834.227M822.394 750.117V761.95M822.394 761.95V773.784M822.394 761.95H810.56M822.394 761.95H834.227M1137.95 118.997V130.83M1137.95 130.83V142.664M1137.95 130.83H1126.12M1137.95 130.83H1149.79M1137.95 434.557V446.39M1137.95 446.39V458.224M1137.95 446.39H1126.12M1137.95 446.39H1149.79M1137.95 750.117V761.95M1137.95 761.95V773.784M1137.95 761.95H1126.12M1137.95 761.95H1149.79M1453.51 118.997V130.83M1453.51 130.83V142.664M1453.51 130.83H1441.68M1453.51 130.83H1465.35M1453.51 434.557V446.39M1453.51 446.39V458.224M1453.51 446.39H1441.68M1453.51 446.39H1465.35M1453.51 750.117V761.95M1453.51 761.95V773.784M1453.51 761.95H1441.68M1453.51 761.95H1465.35M1769.07 118.997V130.83M1769.07 130.83V142.664M1769.07 130.83H1757.24M1769.07 130.83H1780.91M1769.07 434.557V446.39M1769.07 446.39V458.224M1769.07 446.39H1757.24M1769.07 446.39H1780.91M1769.07 750.117V761.95M1769.07 761.95V773.784M1769.07 761.95H1757.24M1769.07 761.95H1780.91M2084.63 118.997V130.83M2084.63 130.83V142.664M2084.63 130.83H2072.8M2084.63 130.83H2096.47M2084.63 434.557V446.39M2084.63 446.39V458.224M2084.63 446.39H2072.8M2084.63 446.39H2096.47M2084.63 750.117V761.95M2084.63 761.95V773.784M2084.63 761.95H2072.8M2084.63 761.95H2096.47M506.834 -38.7831V-26.9496M506.834 -26.9496V-15.1161M506.834 -26.9496H495M506.834 -26.9496H518.667M506.834 276.777V288.61M506.834 288.61V300.444M506.834 288.61H495M506.834 288.61H518.667M506.834 592.337V604.17M506.834 604.17V616.004M506.834 604.17H495M506.834 604.17H518.667M822.394 -38.7832V-26.9497M822.394 -26.9497V-15.1162M822.394 -26.9497H810.56M822.394 -26.9497H834.227M822.394 276.777V288.61M822.394 288.61V300.444M822.394 288.61H810.56M822.394 288.61H834.227M822.394 592.337V604.17M822.394 604.17V616.004M822.394 604.17H810.56M822.394 604.17H834.227M1137.95 -38.7832V-26.9497M1137.95 -26.9497V-15.1162M1137.95 -26.9497H1126.12M1137.95 -26.9497H1149.79M1137.95 276.777V288.61M1137.95 288.61V300.444M1137.95 288.61H1126.12M1137.95 288.61H1149.79M1137.95 592.337V604.17M1137.95 604.17V616.004M1137.95 604.17H1126.12M1137.95 604.17H1149.79M1453.51 -38.7832V-26.9497M1453.51 -26.9497V-15.1162M1453.51 -26.9497H1441.68M1453.51 -26.9497H1465.35M1453.51 276.777V288.61M1453.51 288.61V300.444M1453.51 288.61H1441.68M1453.51 288.61H1465.35M1453.51 592.337V604.17M1453.51 604.17V616.004M1453.51 604.17H1441.68M1453.51 604.17H1465.35M1769.07 -38.7832V-26.9497M1769.07 -26.9497V-15.1162M1769.07 -26.9497H1757.24M1769.07 -26.9497H1780.91M1769.07 276.777V288.61M1769.07 288.61V300.444M1769.07 288.61H1757.24M1769.07 288.61H1780.91M1769.07 592.337V604.17M1769.07 604.17V616.004M1769.07 604.17H1757.24M1769.07 604.17H1780.91M2084.63 -38.7832V-26.9497M2084.63 -26.9497V-15.1162M2084.63 -26.9497H2072.8M2084.63 -26.9497H2096.47M2084.63 276.777V288.61M2084.63 288.61V300.444M2084.63 288.61H2072.8M2084.63 288.61H2096.47M2084.63 592.337V604.17M2084.63 604.17V616.004M2084.63 604.17H2072.8M2084.63 604.17H2096.47" stroke="url(#paint1_radial_1426_6688)"/>
</g>
</g>
</g>
<defs>
<radialGradient id="paint0_radial_1426_6688" cx="0" cy="0" r="1" gradientUnits="userSpaceOnUse" gradientTransform="translate(650.5 99.0001) rotate(134.861) scale(1601.25 2799.49)">
<stop stop-color="white"/>
<stop offset="1" stop-color="#000505" stop-opacity="0"/>
</radialGradient>
<radialGradient id="paint1_radial_1426_6688" cx="0" cy="0" r="1" gradientUnits="userSpaceOnUse" gradientTransform="translate(757.5 99.0001) rotate(45.1392) scale(1601.25 2799.49)">
<stop stop-color="white"/>
<stop offset="1" stop-color="#000505" stop-opacity="0"/>
</radialGradient>
<clipPath id="clip0_1426_6688">
<rect width="1408" height="724" fill="white"/>
</clipPath>
<clipPath id="clip1_1426_6688">
<rect width="704" height="724" fill="white" transform="matrix(-1 0 0 1 704 0)"/>
</clipPath>
<clipPath id="clip2_1426_6688">
<rect width="704" height="724" fill="white" transform="translate(704)"/>
</clipPath>
</defs>
</svg>
