<svg width="1408" height="724" viewBox="0 0 1408 724" fill="none" xmlns="http://www.w3.org/2000/svg">
<g clip-path="url(#clip0_1426_6695)">
<g clip-path="url(#clip1_1426_6695)">
<g style="mix-blend-mode:soft-light" opacity="0.72" filter="url(#filter0_d_1426_6695)">
<path d="M861.722 -26.9502H901.167V12.4948M861.722 -26.9502V12.4948M861.722 -26.9502H822.277M861.722 12.4948H901.167M861.722 12.4948V51.9398M861.722 12.4948H822.277M901.167 12.4948V51.9398M861.722 51.9398H901.167M861.722 51.9398V91.3848M861.722 51.9398H822.277M901.167 51.9398V91.3848M861.722 91.3848H901.167M861.722 91.3848V130.83M861.722 91.3848H822.277M901.167 91.3848V130.83M861.722 130.83H901.167M861.722 130.83V170.275M861.722 130.83H822.277M901.167 130.83V170.275M861.722 170.275H901.167M861.722 170.275V209.72M861.722 170.275H822.277M901.167 170.275V209.72M861.722 209.72H901.167M861.722 209.72V249.165M861.722 209.72H822.277M901.167 209.72V249.165M861.722 249.165H901.167M861.722 249.165V288.61M861.722 249.165H822.277M901.167 249.165V288.61M861.722 288.61H901.167M861.722 288.61V328.055M861.722 288.61H822.277M901.167 288.61V328.055M861.722 328.055H901.167M861.722 328.055V367.5M861.722 328.055H822.277M901.167 328.055V367.5M861.722 367.5H901.167M861.722 367.5V406.945M861.722 367.5H822.277M901.167 367.5V406.945M861.722 406.945H901.167M861.722 406.945V446.39M861.722 406.945H822.277M901.167 406.945V446.39M861.722 446.39H901.167M861.722 446.39V485.835M861.722 446.39H822.277M901.167 446.39V485.835M861.722 485.835H901.167M861.722 485.835V525.28M861.722 485.835H822.277M901.167 485.835V525.28M861.722 525.28H901.167M861.722 525.28V564.725M861.722 525.28H822.277M901.167 525.28V564.725M861.722 564.725H901.167M861.722 564.725V604.17M861.722 564.725H822.277M901.167 564.725V604.17M861.722 604.17H901.167M861.722 604.17V643.615M861.722 604.17H822.277M901.167 604.17V643.615M861.722 643.615H901.167M861.722 643.615V683.06M861.722 643.615H822.277M901.167 643.615V683.06M861.722 683.06H901.167M861.722 683.06V722.505M861.722 683.06H822.277M901.167 683.06V722.505M861.722 722.505H901.167M861.722 722.505V761.95M861.722 722.505H822.277M901.167 722.505V761.95H861.722M861.722 761.95H822.277M822.277 -26.9502V12.4948M822.277 -26.9502H782.832M822.277 12.4948V51.9398M822.277 12.4948H782.832M822.277 51.9398V91.3848M822.277 51.9398H782.832M822.277 91.3848V130.83M822.277 91.3848H782.832M822.277 130.83V170.275M822.277 130.83H782.832M822.277 170.275V209.72M822.277 170.275H782.832M822.277 209.72V249.165M822.277 209.72H782.832M822.277 249.165V288.61M822.277 249.165H782.832M822.277 288.61V328.055M822.277 288.61H782.832M822.277 328.055V367.5M822.277 328.055H782.832M822.277 367.5V406.945M822.277 367.5H782.832M822.277 406.945V446.39M822.277 406.945H782.832M822.277 446.39V485.835M822.277 446.39H782.832M822.277 485.835V525.28M822.277 485.835H782.832M822.277 525.28V564.725M822.277 525.28H782.832M822.277 564.725V604.17M822.277 564.725H782.832M822.277 604.17V643.615M822.277 604.17H782.832M822.277 643.615V683.06M822.277 643.615H782.832M822.277 683.06V722.505M822.277 683.06H782.832M822.277 722.505V761.95M822.277 722.505H782.832M822.277 761.95H782.832M782.832 -26.9502V12.4948M782.832 -26.9502H743.387M782.832 12.4948V51.9398M782.832 12.4948H743.387M782.832 51.9398V91.3848M782.832 51.9398H743.387M782.832 91.3848V130.83M782.832 91.3848H743.387M782.832 130.83V170.275M782.832 130.83H743.387M782.832 170.275V209.72M782.832 170.275H743.387M782.832 209.72V249.165M782.832 209.72H743.387M782.832 249.165V288.61M782.832 249.165H743.387M782.832 288.61V328.055M782.832 288.61H743.387M782.832 328.055V367.5M782.832 328.055H743.387M782.832 367.5V406.945M782.832 367.5H743.387M782.832 406.945V446.39M782.832 406.945H743.387M782.832 446.39V485.835M782.832 446.39H743.387M782.832 485.835V525.28M782.832 485.835H743.387M782.832 525.28V564.725M782.832 525.28H743.387M782.832 564.725V604.17M782.832 564.725H743.387M782.832 604.17V643.615M782.832 604.17H743.387M782.832 643.615V683.06M782.832 643.615H743.387M782.832 683.06V722.505M782.832 683.06H743.387M782.832 722.505V761.95M782.832 722.505H743.387M782.832 761.95H743.387M743.387 -26.9502V12.4948M743.387 -26.9502H703.942M743.387 12.4948V51.9398M743.387 12.4948H703.942M743.387 51.9398V91.3848M743.387 51.9398H703.942M743.387 91.3848V130.83M743.387 91.3848H703.942M743.387 130.83V170.275M743.387 130.83H703.942M743.387 170.275V209.72M743.387 170.275H703.942M743.387 209.72V249.165M743.387 209.72H703.942M743.387 249.165V288.61M743.387 249.165H703.942M743.387 288.61V328.055M743.387 288.61H703.942M743.387 328.055V367.5M743.387 328.055H703.942M743.387 367.5V406.945M743.387 367.5H703.942M743.387 406.945V446.39M743.387 406.945H703.942M743.387 446.39V485.835M743.387 446.39H703.942M743.387 485.835V525.28M743.387 485.835H703.942M743.387 525.28V564.725M743.387 525.28H703.942M743.387 564.725V604.17M743.387 564.725H703.942M743.387 604.17V643.615M743.387 604.17H703.942M743.387 643.615V683.06M743.387 643.615H703.942M743.387 683.06V722.505M743.387 683.06H703.942M743.387 722.505V761.95M743.387 722.505H703.942M743.387 761.95H703.942M703.942 -26.9502V12.4948M703.942 -26.9502H664.497M703.942 12.4948V51.9398M703.942 12.4948H664.497M703.942 51.9398V91.3848M703.942 51.9398H664.497M703.942 91.3848V130.83M703.942 91.3848H664.497M703.942 130.83V170.275M703.942 130.83H664.497M703.942 170.275V209.72M703.942 170.275H664.497M703.942 209.72V249.165M703.942 209.72H664.497M703.942 249.165V288.61M703.942 249.165H664.497M703.942 288.61V328.055M703.942 288.61H664.497M703.942 328.055V367.5M703.942 328.055H664.497M703.942 367.5V406.945M703.942 367.5H664.497M703.942 406.945V446.39M703.942 406.945H664.497M703.942 446.39V485.835M703.942 446.39H664.497M703.942 485.835V525.28M703.942 485.835H664.497M703.942 525.28V564.725M703.942 525.28H664.497M703.942 564.725V604.17M703.942 564.725H664.497M703.942 604.17V643.615M703.942 604.17H664.497M703.942 643.615V683.06M703.942 643.615H664.497M703.942 683.06V722.505M703.942 683.06H664.497M703.942 722.505V761.95M703.942 722.505H664.497M703.942 761.95H664.497M664.497 -26.9502V12.4948M664.497 -26.9502H625.052M664.497 12.4948V51.9398M664.497 12.4948H625.052M664.497 51.9398V91.3848M664.497 51.9398H625.052M664.497 91.3848V130.83M664.497 91.3848H625.052M664.497 130.83V170.275M664.497 130.83H625.052M664.497 170.275V209.72M664.497 170.275H625.052M664.497 209.72V249.165M664.497 209.72H625.052M664.497 249.165V288.61M664.497 249.165H625.052M664.497 288.61V328.055M664.497 288.61H625.052M664.497 328.055V367.5M664.497 328.055H625.052M664.497 367.5V406.945M664.497 367.5H625.052M664.497 406.945V446.39M664.497 406.945H625.052M664.497 446.39V485.835M664.497 446.39H625.052M664.497 485.835V525.28M664.497 485.835H625.052M664.497 525.28V564.725M664.497 525.28H625.052M664.497 564.725V604.17M664.497 564.725H625.052M664.497 604.17V643.615M664.497 604.17H625.052M664.497 643.615V683.06M664.497 643.615H625.052M664.497 683.06V722.505M664.497 683.06H625.052M664.497 722.505V761.95M664.497 722.505H625.052M664.497 761.95H625.052M625.052 -26.9502V12.4948M625.052 -26.9502H585.607M625.052 12.4948V51.9398M625.052 12.4948H585.607M625.052 51.9398V91.3848M625.052 51.9398H585.607M625.052 91.3848V130.83M625.052 91.3848H585.607M625.052 130.83V170.275M625.052 130.83H585.607M625.052 170.275V209.72M625.052 170.275H585.607M625.052 209.72V249.165M625.052 209.72H585.607M625.052 249.165V288.61M625.052 249.165H585.607M625.052 288.61V328.055M625.052 288.61H585.607M625.052 328.055V367.5M625.052 328.055H585.607M625.052 367.5V406.945M625.052 367.5H585.607M625.052 406.945V446.39M625.052 406.945H585.607M625.052 446.39V485.835M625.052 446.39H585.607M625.052 485.835V525.28M625.052 485.835H585.607M625.052 525.28V564.725M625.052 525.28H585.607M625.052 564.725V604.17M625.052 564.725H585.607M625.052 604.17V643.615M625.052 604.17H585.607M625.052 643.615V683.06M625.052 643.615H585.607M625.052 683.06V722.505M625.052 683.06H585.607M625.052 722.505V761.95M625.052 722.505H585.607M625.052 761.95H585.607M585.607 -26.9502V12.4948M585.607 -26.9502H546.162M585.607 12.4948V51.9398M585.607 12.4948H546.162M585.607 51.9398V91.3848M585.607 51.9398H546.162M585.607 91.3848V130.83M585.607 91.3848H546.162M585.607 130.83V170.275M585.607 130.83H546.162M585.607 170.275V209.72M585.607 170.275H546.162M585.607 209.72V249.165M585.607 209.72H546.162M585.607 249.165V288.61M585.607 249.165H546.162M585.607 288.61V328.055M585.607 288.61H546.162M585.607 328.055V367.5M585.607 328.055H546.162M585.607 367.5V406.945M585.607 367.5H546.162M585.607 406.945V446.39M585.607 406.945H546.162M585.607 446.39V485.835M585.607 446.39H546.162M585.607 485.835V525.28M585.607 485.835H546.162M585.607 525.28V564.725M585.607 525.28H546.162M585.607 564.725V604.17M585.607 564.725H546.162M585.607 604.17V643.615M585.607 604.17H546.162M585.607 643.615V683.06M585.607 643.615H546.162M585.607 683.06V722.505M585.607 683.06H546.162M585.607 722.505V761.95M585.607 722.505H546.162M585.607 761.95H546.162M546.162 -26.9502V12.4948M546.162 -26.9502H506.717M546.162 12.4948V51.9398M546.162 12.4948H506.717M546.162 51.9398V91.3848M546.162 51.9398H506.717M546.162 91.3848V130.83M546.162 91.3848H506.717M546.162 130.83V170.275M546.162 130.83H506.717M546.162 170.275V209.72M546.162 170.275H506.717M546.162 209.72V249.165M546.162 209.72H506.717M546.162 249.165V288.61M546.162 249.165H506.717M546.162 288.61V328.055M546.162 288.61H506.717M546.162 328.055V367.5M546.162 328.055H506.717M546.162 367.5V406.945M546.162 367.5H506.717M546.162 406.945V446.39M546.162 406.945H506.717M546.162 446.39V485.835M546.162 446.39H506.717M546.162 485.835V525.28M546.162 485.835H506.717M546.162 525.28V564.725M546.162 525.28H506.717M546.162 564.725V604.17M546.162 564.725H506.717M546.162 604.17V643.615M546.162 604.17H506.717M546.162 643.615V683.06M546.162 643.615H506.717M546.162 683.06V722.505M546.162 683.06H506.717M546.162 722.505V761.95M546.162 722.505H506.717M546.162 761.95H506.717M506.717 -26.9502V12.4948M506.717 -26.9502H467.272M506.717 12.4948V51.9398M506.717 12.4948H467.272M506.717 51.9398V91.3848M506.717 51.9398H467.272M506.717 91.3848V130.83M506.717 91.3848H467.272M506.717 130.83V170.275M506.717 130.83H467.272M506.717 170.275V209.72M506.717 170.275H467.272M506.717 209.72V249.165M506.717 209.72H467.272M506.717 249.165V288.61M506.717 249.165H467.272M506.717 288.61V328.055M506.717 288.61H467.272M506.717 328.055V367.5M506.717 328.055H467.272M506.717 367.5V406.945M506.717 367.5H467.272M506.717 406.945V446.39M506.717 406.945H467.272M506.717 446.39V485.835M506.717 446.39H467.272M506.717 485.835V525.28M506.717 485.835H467.272M506.717 525.28V564.725M506.717 525.28H467.272M506.717 564.725V604.17M506.717 564.725H467.272M506.717 604.17V643.615M506.717 604.17H467.272M506.717 643.615V683.06M506.717 643.615H467.272M506.717 683.06V722.505M506.717 683.06H467.272M506.717 722.505V761.95M506.717 722.505H467.272M506.717 761.95H467.272M467.272 -26.9502V12.4948M467.272 -26.9502H427.827M467.272 12.4948V51.9398M467.272 12.4948H427.827M467.272 51.9398V91.3848M467.272 51.9398H427.827M467.272 91.3848V130.83M467.272 91.3848H427.827M467.272 130.83V170.275M467.272 130.83H427.827M467.272 170.275V209.72M467.272 170.275H427.827M467.272 209.72V249.165M467.272 209.72H427.827M467.272 249.165V288.61M467.272 249.165H427.827M467.272 288.61V328.055M467.272 288.61H427.827M467.272 328.055V367.5M467.272 328.055H427.827M467.272 367.5V406.945M467.272 367.5H427.827M467.272 406.945V446.39M467.272 406.945H427.827M467.272 446.39V485.835M467.272 446.39H427.827M467.272 485.835V525.28M467.272 485.835H427.827M467.272 525.28V564.725M467.272 525.28H427.827M467.272 564.725V604.17M467.272 564.725H427.827M467.272 604.17V643.615M467.272 604.17H427.827M467.272 643.615V683.06M467.272 643.615H427.827M467.272 683.06V722.505M467.272 683.06H427.827M467.272 722.505V761.95M467.272 722.505H427.827M467.272 761.95H427.827M427.827 -26.9502V12.4948M427.827 -26.9502H388.382M427.827 12.4948V51.9398M427.827 12.4948H388.382M427.827 51.9398V91.3848M427.827 51.9398H388.382M427.827 91.3848V130.83M427.827 91.3848H388.382M427.827 130.83V170.275M427.827 130.83H388.382M427.827 170.275V209.72M427.827 170.275H388.382M427.827 209.72V249.165M427.827 209.72H388.382M427.827 249.165V288.61M427.827 249.165H388.382M427.827 288.61V328.055M427.827 288.61H388.382M427.827 328.055V367.5M427.827 328.055H388.382M427.827 367.5V406.945M427.827 367.5H388.382M427.827 406.945V446.39M427.827 406.945H388.382M427.827 446.39V485.835M427.827 446.39H388.382M427.827 485.835V525.28M427.827 485.835H388.382M427.827 525.28V564.725M427.827 525.28H388.382M427.827 564.725V604.17M427.827 564.725H388.382M427.827 604.17V643.615M427.827 604.17H388.382M427.827 643.615V683.06M427.827 643.615H388.382M427.827 683.06V722.505M427.827 683.06H388.382M427.827 722.505V761.95M427.827 722.505H388.382M427.827 761.95H388.382M388.382 -26.9502V12.4948M388.382 -26.9502H348.937M388.382 12.4948V51.9398M388.382 12.4948H348.937M388.382 51.9398V91.3848M388.382 51.9398H348.937M388.382 91.3848V130.83M388.382 91.3848H348.937M388.382 130.83V170.275M388.382 130.83H348.937M388.382 170.275V209.72M388.382 170.275H348.937M388.382 209.72V249.165M388.382 209.72H348.937M388.382 249.165V288.61M388.382 249.165H348.937M388.382 288.61V328.055M388.382 288.61H348.937M388.382 328.055V367.5M388.382 328.055H348.937M388.382 367.5V406.945M388.382 367.5H348.937M388.382 406.945V446.39M388.382 406.945H348.937M388.382 446.39V485.835M388.382 446.39H348.937M388.382 485.835V525.28M388.382 485.835H348.937M388.382 525.28V564.725M388.382 525.28H348.937M388.382 564.725V604.17M388.382 564.725H348.937M388.382 604.17V643.615M388.382 604.17H348.937M388.382 643.615V683.06M388.382 643.615H348.937M388.382 683.06V722.505M388.382 683.06H348.937M388.382 722.505V761.95M388.382 722.505H348.937M388.382 761.95H348.937M348.937 -26.9502V12.4948M348.937 -26.9502H309.492M348.937 12.4948V51.9398M348.937 12.4948H309.492M348.937 51.9398V91.3848M348.937 51.9398H309.492M348.937 91.3848V130.83M348.937 91.3848H309.492M348.937 130.83V170.275M348.937 130.83H309.492M348.937 170.275V209.72M348.937 170.275H309.492M348.937 209.72V249.165M348.937 209.72H309.492M348.937 249.165V288.61M348.937 249.165H309.492M348.937 288.61V328.055M348.937 288.61H309.492M348.937 328.055V367.5M348.937 328.055H309.492M348.937 367.5V406.945M348.937 367.5H309.492M348.937 406.945V446.39M348.937 406.945H309.492M348.937 446.39V485.835M348.937 446.39H309.492M348.937 485.835V525.28M348.937 485.835H309.492M348.937 525.28V564.725M348.937 525.28H309.492M348.937 564.725V604.17M348.937 564.725H309.492M348.937 604.17V643.615M348.937 604.17H309.492M348.937 643.615V683.06M348.937 643.615H309.492M348.937 683.06V722.505M348.937 683.06H309.492M348.937 722.505V761.95M348.937 722.505H309.492M348.937 761.95H309.492M309.492 -26.9502V12.4948M309.492 -26.9502H270.047M309.492 12.4948V51.9398M309.492 12.4948H270.047M309.492 51.9398V91.3848M309.492 51.9398H270.047M309.492 91.3848V130.83M309.492 91.3848H270.047M309.492 130.83V170.275M309.492 130.83H270.047M309.492 170.275V209.72M309.492 170.275H270.047M309.492 209.72V249.165M309.492 209.72H270.047M309.492 249.165V288.61M309.492 249.165H270.047M309.492 288.61V328.055M309.492 288.61H270.047M309.492 328.055V367.5M309.492 328.055H270.047M309.492 367.5V406.945M309.492 367.5H270.047M309.492 406.945V446.39M309.492 406.945H270.047M309.492 446.39V485.835M309.492 446.39H270.047M309.492 485.835V525.28M309.492 485.835H270.047M309.492 525.28V564.725M309.492 525.28H270.047M309.492 564.725V604.17M309.492 564.725H270.047M309.492 604.17V643.615M309.492 604.17H270.047M309.492 643.615V683.06M309.492 643.615H270.047M309.492 683.06V722.505M309.492 683.06H270.047M309.492 722.505V761.95M309.492 722.505H270.047M309.492 761.95H270.047M270.047 -26.9502V12.4948M270.047 -26.9502H230.602M270.047 12.4948V51.9398M270.047 12.4948H230.602M270.047 51.9398V91.3848M270.047 51.9398H230.602M270.047 91.3848V130.83M270.047 91.3848H230.602M270.047 130.83V170.275M270.047 130.83H230.602M270.047 170.275V209.72M270.047 170.275H230.602M270.047 209.72V249.165M270.047 209.72H230.602M270.047 249.165V288.61M270.047 249.165H230.602M270.047 288.61V328.055M270.047 288.61H230.602M270.047 328.055V367.5M270.047 328.055H230.602M270.047 367.5V406.945M270.047 367.5H230.602M270.047 406.945V446.39M270.047 406.945H230.602M270.047 446.39V485.835M270.047 446.39H230.602M270.047 485.835V525.28M270.047 485.835H230.602M270.047 525.28V564.725M270.047 525.28H230.602M270.047 564.725V604.17M270.047 564.725H230.602M270.047 604.17V643.615M270.047 604.17H230.602M270.047 643.615V683.06M270.047 643.615H230.602M270.047 683.06V722.505M270.047 683.06H230.602M270.047 722.505V761.95M270.047 722.505H230.602M270.047 761.95H230.602M230.602 -26.9502V12.4948M230.602 -26.9502H191.157M230.602 12.4948V51.9398M230.602 12.4948H191.157M230.602 51.9398V91.3848M230.602 51.9398H191.157M230.602 91.3848V130.83M230.602 91.3848H191.157M230.602 130.83V170.275M230.602 130.83H191.157M230.602 170.275V209.72M230.602 170.275H191.157M230.602 209.72V249.165M230.602 209.72H191.157M230.602 249.165V288.61M230.602 249.165H191.157M230.602 288.61V328.055M230.602 288.61H191.157M230.602 328.055V367.5M230.602 328.055H191.157M230.602 367.5V406.945M230.602 367.5H191.157M230.602 406.945V446.39M230.602 406.945H191.157M230.602 446.39V485.835M230.602 446.39H191.157M230.602 485.835V525.28M230.602 485.835H191.157M230.602 525.28V564.725M230.602 525.28H191.157M230.602 564.725V604.17M230.602 564.725H191.157M230.602 604.17V643.615M230.602 604.17H191.157M230.602 643.615V683.06M230.602 643.615H191.157M230.602 683.06V722.505M230.602 683.06H191.157M230.602 722.505V761.95M230.602 722.505H191.157M230.602 761.95H191.157M191.157 -26.9502V12.4948M191.157 -26.9502H151.712M191.157 12.4948V51.9398M191.157 12.4948H151.712M191.157 51.9398V91.3848M191.157 51.9398H151.712M191.157 91.3848V130.83M191.157 91.3848H151.712M191.157 130.83V170.275M191.157 130.83H151.712M191.157 170.275V209.72M191.157 170.275H151.712M191.157 209.72V249.165M191.157 209.72H151.712M191.157 249.165V288.61M191.157 249.165H151.712M191.157 288.61V328.055M191.157 288.61H151.712M191.157 328.055V367.5M191.157 328.055H151.712M191.157 367.5V406.945M191.157 367.5H151.712M191.157 406.945V446.39M191.157 406.945H151.712M191.157 446.39V485.835M191.157 446.39H151.712M191.157 485.835V525.28M191.157 485.835H151.712M191.157 525.28V564.725M191.157 525.28H151.712M191.157 564.725V604.17M191.157 564.725H151.712M191.157 604.17V643.615M191.157 604.17H151.712M191.157 643.615V683.06M191.157 643.615H151.712M191.157 683.06V722.505M191.157 683.06H151.712M191.157 722.505V761.95M191.157 722.505H151.712M191.157 761.95H151.712M151.712 -26.9502V12.4948M151.712 -26.9502H112.267M151.712 12.4948V51.9398M151.712 12.4948H112.267M151.712 51.9398V91.3848M151.712 51.9398H112.267M151.712 91.3848V130.83M151.712 91.3848H112.267M151.712 130.83V170.275M151.712 130.83H112.267M151.712 170.275V209.72M151.712 170.275H112.267M151.712 209.72V249.165M151.712 209.72H112.267M151.712 249.165V288.61M151.712 249.165H112.267M151.712 288.61V328.055M151.712 288.61H112.267M151.712 328.055V367.5M151.712 328.055H112.267M151.712 367.5V406.945M151.712 367.5H112.267M151.712 406.945V446.39M151.712 406.945H112.267M151.712 446.39V485.835M151.712 446.39H112.267M151.712 485.835V525.28M151.712 485.835H112.267M151.712 525.28V564.725M151.712 525.28H112.267M151.712 564.725V604.17M151.712 564.725H112.267M151.712 604.17V643.615M151.712 604.17H112.267M151.712 643.615V683.06M151.712 643.615H112.267M151.712 683.06V722.505M151.712 683.06H112.267M151.712 722.505V761.95M151.712 722.505H112.267M151.712 761.95H112.267M112.267 -26.9502V12.4948M112.267 -26.9502H72.8218M112.267 12.4948V51.9398M112.267 12.4948H72.8218M112.267 51.9398V91.3848M112.267 51.9398H72.8218M112.267 91.3848V130.83M112.267 91.3848H72.8218M112.267 130.83V170.275M112.267 130.83H72.8218M112.267 170.275V209.72M112.267 170.275H72.8218M112.267 209.72V249.165M112.267 209.72H72.8218M112.267 249.165V288.61M112.267 249.165H72.8218M112.267 288.61V328.055M112.267 288.61H72.8218M112.267 328.055V367.5M112.267 328.055H72.8218M112.267 367.5V406.945M112.267 367.5H72.8218M112.267 406.945V446.39M112.267 406.945H72.8218M112.267 446.39V485.835M112.267 446.39H72.8218M112.267 485.835V525.28M112.267 485.835H72.8218M112.267 525.28V564.725M112.267 525.28H72.8218M112.267 564.725V604.17M112.267 564.725H72.8218M112.267 604.17V643.615M112.267 604.17H72.8218M112.267 643.615V683.06M112.267 643.615H72.8218M112.267 683.06V722.505M112.267 683.06H72.8218M112.267 722.505V761.95M112.267 722.505H72.8218M112.267 761.95H72.8218M72.8218 -26.9502V12.4948M72.8218 -26.9502H33.3768M72.8218 12.4948V51.9398M72.8218 12.4948H33.3768M72.8218 51.9398V91.3848M72.8218 51.9398H33.3768M72.8218 91.3848V130.83M72.8218 91.3848H33.3768M72.8218 130.83V170.275M72.8218 130.83H33.3768M72.8218 170.275V209.72M72.8218 170.275H33.3768M72.8218 209.72V249.165M72.8218 209.72H33.3768M72.8218 249.165V288.61M72.8218 249.165H33.3768M72.8218 288.61V328.055M72.8218 288.61H33.3768M72.8218 328.055V367.5M72.8218 328.055H33.3768M72.8218 367.5V406.945M72.8218 367.5H33.3768M72.8218 406.945V446.39M72.8218 406.945H33.3768M72.8218 446.39V485.835M72.8218 446.39H33.3768M72.8218 485.835V525.28M72.8218 485.835H33.3768M72.8218 525.28V564.725M72.8218 525.28H33.3768M72.8218 564.725V604.17M72.8218 564.725H33.3768M72.8218 604.17V643.615M72.8218 604.17H33.3768M72.8218 643.615V683.06M72.8218 643.615H33.3768M72.8218 683.06V722.505M72.8218 683.06H33.3768M72.8218 722.505V761.95M72.8218 722.505H33.3768M72.8218 761.95H33.3768M33.3768 -26.9502V12.4948M33.3768 -26.9502H-6.06822M33.3768 12.4948V51.9398M33.3768 12.4948H-6.06822M33.3768 51.9398V91.3848M33.3768 51.9398H-6.06822M33.3768 91.3848V130.83M33.3768 91.3848H-6.06822M33.3768 130.83V170.275M33.3768 130.83H-6.06822M33.3768 170.275V209.72M33.3768 170.275H-6.06822M33.3768 209.72V249.165M33.3768 209.72H-6.06822M33.3768 249.165V288.61M33.3768 249.165H-6.06822M33.3768 288.61V328.055M33.3768 288.61H-6.06822M33.3768 328.055V367.5M33.3768 328.055H-6.06822M33.3768 367.5V406.945M33.3768 367.5H-6.06822M33.3768 406.945V446.39M33.3768 406.945H-6.06822M33.3768 446.39V485.835M33.3768 446.39H-6.06822M33.3768 485.835V525.28M33.3768 485.835H-6.06822M33.3768 525.28V564.725M33.3768 525.28H-6.06822M33.3768 564.725V604.17M33.3768 564.725H-6.06822M33.3768 604.17V643.615M33.3768 604.17H-6.06822M33.3768 643.615V683.06M33.3768 643.615H-6.06822M33.3768 683.06V722.505M33.3768 683.06H-6.06822M33.3768 722.505V761.95M33.3768 722.505H-6.06822M33.3768 761.95H-6.06822M-6.06822 -26.9502V12.4948M-6.06822 -26.9502H-45.5132M-6.06822 12.4948V51.9398M-6.06822 12.4948H-45.5132M-6.06822 51.9398V91.3848M-6.06822 51.9398H-45.5132M-6.06822 91.3848V130.83M-6.06822 91.3848H-45.5132M-6.06822 130.83V170.275M-6.06822 130.83H-45.5132M-6.06822 170.275V209.72M-6.06822 170.275H-45.5132M-6.06822 209.72V249.165M-6.06822 209.72H-45.5132M-6.06822 249.165V288.61M-6.06822 249.165H-45.5132M-6.06822 288.61V328.055M-6.06822 288.61H-45.5132M-6.06822 328.055V367.5M-6.06822 328.055H-45.5132M-6.06822 367.5V406.945M-6.06822 367.5H-45.5132M-6.06822 406.945V446.39M-6.06822 406.945H-45.5132M-6.06822 446.39V485.835M-6.06822 446.39H-45.5132M-6.06822 485.835V525.28M-6.06822 485.835H-45.5132M-6.06822 525.28V564.725M-6.06822 525.28H-45.5132M-6.06822 564.725V604.17M-6.06822 564.725H-45.5132M-6.06822 604.17V643.615M-6.06822 604.17H-45.5132M-6.06822 643.615V683.06M-6.06822 643.615H-45.5132M-6.06822 683.06V722.505M-6.06822 683.06H-45.5132M-6.06822 722.505V761.95M-6.06822 722.505H-45.5132M-6.06822 761.95H-45.5132M-45.5132 -26.9502V12.4948M-45.5132 -26.9502H-84.9582M-45.5132 12.4948V51.9398M-45.5132 12.4948H-84.9582M-45.5132 51.9398V91.3848M-45.5132 51.9398H-84.9582M-45.5132 91.3848V130.83M-45.5132 91.3848H-84.9582M-45.5132 130.83V170.275M-45.5132 130.83H-84.9582M-45.5132 170.275V209.72M-45.5132 170.275H-84.9582M-45.5132 209.72V249.165M-45.5132 209.72H-84.9582M-45.5132 249.165V288.61M-45.5132 249.165H-84.9582M-45.5132 288.61V328.055M-45.5132 288.61H-84.9582M-45.5132 328.055V367.5M-45.5132 328.055H-84.9582M-45.5132 367.5V406.945M-45.5132 367.5H-84.9582M-45.5132 406.945V446.39M-45.5132 406.945H-84.9582M-45.5132 446.39V485.835M-45.5132 446.39H-84.9582M-45.5132 485.835V525.28M-45.5132 485.835H-84.9582M-45.5132 525.28V564.725M-45.5132 525.28H-84.9582M-45.5132 564.725V604.17M-45.5132 564.725H-84.9582M-45.5132 604.17V643.615M-45.5132 604.17H-84.9582M-45.5132 643.615V683.06M-45.5132 643.615H-84.9582M-45.5132 683.06V722.505M-45.5132 683.06H-84.9582M-45.5132 722.505V761.95M-45.5132 722.505H-84.9582M-45.5132 761.95H-84.9582M-84.9582 -26.9502V12.4948M-84.9582 -26.9502H-124.403M-84.9582 12.4948V51.9398M-84.9582 12.4948H-124.403M-84.9582 51.9398V91.3848M-84.9582 51.9398H-124.403M-84.9582 91.3848V130.83M-84.9582 91.3848H-124.403M-84.9582 130.83V170.275M-84.9582 130.83H-124.403M-84.9582 170.275V209.72M-84.9582 170.275H-124.403M-84.9582 209.72V249.165M-84.9582 209.72H-124.403M-84.9582 249.165V288.61M-84.9582 249.165H-124.403M-84.9582 288.61V328.055M-84.9582 288.61H-124.403M-84.9582 328.055V367.5M-84.9582 328.055H-124.403M-84.9582 367.5V406.945M-84.9582 367.5H-124.403M-84.9582 406.945V446.39M-84.9582 406.945H-124.403M-84.9582 446.39V485.835M-84.9582 446.39H-124.403M-84.9582 485.835V525.28M-84.9582 485.835H-124.403M-84.9582 525.28V564.725M-84.9582 525.28H-124.403M-84.9582 564.725V604.17M-84.9582 564.725H-124.403M-84.9582 604.17V643.615M-84.9582 604.17H-124.403M-84.9582 643.615V683.06M-84.9582 643.615H-124.403M-84.9582 683.06V722.505M-84.9582 683.06H-124.403M-84.9582 722.505V761.95M-84.9582 722.505H-124.403M-84.9582 761.95H-124.403M-124.403 -26.9502V12.4948M-124.403 -26.9502H-163.848M-124.403 12.4948V51.9398M-124.403 12.4948H-163.848M-124.403 51.9398V91.3848M-124.403 51.9398H-163.848M-124.403 91.3848V130.83M-124.403 91.3848H-163.848M-124.403 130.83V170.275M-124.403 130.83H-163.848M-124.403 170.275V209.72M-124.403 170.275H-163.848M-124.403 209.72V249.165M-124.403 209.72H-163.848M-124.403 249.165V288.61M-124.403 249.165H-163.848M-124.403 288.61V328.055M-124.403 288.61H-163.848M-124.403 328.055V367.5M-124.403 328.055H-163.848M-124.403 367.5V406.945M-124.403 367.5H-163.848M-124.403 406.945V446.39M-124.403 406.945H-163.848M-124.403 446.39V485.835M-124.403 446.39H-163.848M-124.403 485.835V525.28M-124.403 485.835H-163.848M-124.403 525.28V564.725M-124.403 525.28H-163.848M-124.403 564.725V604.17M-124.403 564.725H-163.848M-124.403 604.17V643.615M-124.403 604.17H-163.848M-124.403 643.615V683.06M-124.403 643.615H-163.848M-124.403 683.06V722.505M-124.403 683.06H-163.848M-124.403 722.505V761.95M-124.403 722.505H-163.848M-124.403 761.95H-163.848M-163.848 -26.9502V12.4948M-163.848 -26.9502H-203.293M-163.848 12.4948V51.9398M-163.848 12.4948H-203.293M-163.848 51.9398V91.3848M-163.848 51.9398H-203.293M-163.848 91.3848V130.83M-163.848 91.3848H-203.293M-163.848 130.83V170.275M-163.848 130.83H-203.293M-163.848 170.275V209.72M-163.848 170.275H-203.293M-163.848 209.72V249.165M-163.848 209.72H-203.293M-163.848 249.165V288.61M-163.848 249.165H-203.293M-163.848 288.61V328.055M-163.848 288.61H-203.293M-163.848 328.055V367.5M-163.848 328.055H-203.293M-163.848 367.5V406.945M-163.848 367.5H-203.293M-163.848 406.945V446.39M-163.848 406.945H-203.293M-163.848 446.39V485.835M-163.848 446.39H-203.293M-163.848 485.835V525.28M-163.848 485.835H-203.293M-163.848 525.28V564.725M-163.848 525.28H-203.293M-163.848 564.725V604.17M-163.848 564.725H-203.293M-163.848 604.17V643.615M-163.848 604.17H-203.293M-163.848 643.615V683.06M-163.848 643.615H-203.293M-163.848 683.06V722.505M-163.848 683.06H-203.293M-163.848 722.505V761.95M-163.848 722.505H-203.293M-163.848 761.95H-203.293M-203.293 -26.9502V12.4948M-203.293 -26.9502H-242.738M-203.293 12.4948V51.9398M-203.293 12.4948H-242.738M-203.293 51.9398V91.3848M-203.293 51.9398H-242.738M-203.293 91.3848V130.83M-203.293 91.3848H-242.738M-203.293 130.83V170.275M-203.293 130.83H-242.738M-203.293 170.275V209.72M-203.293 170.275H-242.738M-203.293 209.72V249.165M-203.293 209.72H-242.738M-203.293 249.165V288.61M-203.293 249.165H-242.738M-203.293 288.61V328.055M-203.293 288.61H-242.738M-203.293 328.055V367.5M-203.293 328.055H-242.738M-203.293 367.5V406.945M-203.293 367.5H-242.738M-203.293 406.945V446.39M-203.293 406.945H-242.738M-203.293 446.39V485.835M-203.293 446.39H-242.738M-203.293 485.835V525.28M-203.293 485.835H-242.738M-203.293 525.28V564.725M-203.293 525.28H-242.738M-203.293 564.725V604.17M-203.293 564.725H-242.738M-203.293 604.17V643.615M-203.293 604.17H-242.738M-203.293 643.615V683.06M-203.293 643.615H-242.738M-203.293 683.06V722.505M-203.293 683.06H-242.738M-203.293 722.505V761.95M-203.293 722.505H-242.738M-203.293 761.95H-242.738M-242.738 -26.9502V12.4948M-242.738 -26.9502H-282.183M-242.738 12.4948V51.9398M-242.738 12.4948H-282.183M-242.738 51.9398V91.3848M-242.738 51.9398H-282.183M-242.738 91.3848V130.83M-242.738 91.3848H-282.183M-242.738 130.83V170.275M-242.738 130.83H-282.183M-242.738 170.275V209.72M-242.738 170.275H-282.183M-242.738 209.72V249.165M-242.738 209.72H-282.183M-242.738 249.165V288.61M-242.738 249.165H-282.183M-242.738 288.61V328.055M-242.738 288.61H-282.183M-242.738 328.055V367.5M-242.738 328.055H-282.183M-242.738 367.5V406.945M-242.738 367.5H-282.183M-242.738 406.945V446.39M-242.738 406.945H-282.183M-242.738 446.39V485.835M-242.738 446.39H-282.183M-242.738 485.835V525.28M-242.738 485.835H-282.183M-242.738 525.28V564.725M-242.738 525.28H-282.183M-242.738 564.725V604.17M-242.738 564.725H-282.183M-242.738 604.17V643.615M-242.738 604.17H-282.183M-242.738 643.615V683.06M-242.738 643.615H-282.183M-242.738 683.06V722.505M-242.738 683.06H-282.183M-242.738 722.505V761.95M-242.738 722.505H-282.183M-242.738 761.95H-282.183M-282.183 -26.9502V12.4948M-282.183 -26.9502H-321.628M-282.183 12.4948V51.9398M-282.183 12.4948H-321.628M-282.183 51.9398V91.3848M-282.183 51.9398H-321.628M-282.183 91.3848V130.83M-282.183 91.3848H-321.628M-282.183 130.83V170.275M-282.183 130.83H-321.628M-282.183 170.275V209.72M-282.183 170.275H-321.628M-282.183 209.72V249.165M-282.183 209.72H-321.628M-282.183 249.165V288.61M-282.183 249.165H-321.628M-282.183 288.61V328.055M-282.183 288.61H-321.628M-282.183 328.055V367.5M-282.183 328.055H-321.628M-282.183 367.5V406.945M-282.183 367.5H-321.628M-282.183 406.945V446.39M-282.183 406.945H-321.628M-282.183 446.39V485.835M-282.183 446.39H-321.628M-282.183 485.835V525.28M-282.183 485.835H-321.628M-282.183 525.28V564.725M-282.183 525.28H-321.628M-282.183 564.725V604.17M-282.183 564.725H-321.628M-282.183 604.17V643.615M-282.183 604.17H-321.628M-282.183 643.615V683.06M-282.183 643.615H-321.628M-282.183 683.06V722.505M-282.183 683.06H-321.628M-282.183 722.505V761.95M-282.183 722.505H-321.628M-282.183 761.95H-321.628M-321.628 -26.9502V12.4948M-321.628 -26.9502H-361.073M-321.628 12.4948V51.9398M-321.628 12.4948H-361.073M-321.628 51.9398V91.3848M-321.628 51.9398H-361.073M-321.628 91.3848V130.83M-321.628 91.3848H-361.073M-321.628 130.83V170.275M-321.628 130.83H-361.073M-321.628 170.275V209.72M-321.628 170.275H-361.073M-321.628 209.72V249.165M-321.628 209.72H-361.073M-321.628 249.165V288.61M-321.628 249.165H-361.073M-321.628 288.61V328.055M-321.628 288.61H-361.073M-321.628 328.055V367.5M-321.628 328.055H-361.073M-321.628 367.5V406.945M-321.628 367.5H-361.073M-321.628 406.945V446.39M-321.628 406.945H-361.073M-321.628 446.39V485.835M-321.628 446.39H-361.073M-321.628 485.835V525.28M-321.628 485.835H-361.073M-321.628 525.28V564.725M-321.628 525.28H-361.073M-321.628 564.725V604.17M-321.628 564.725H-361.073M-321.628 604.17V643.615M-321.628 604.17H-361.073M-321.628 643.615V683.06M-321.628 643.615H-361.073M-321.628 683.06V722.505M-321.628 683.06H-361.073M-321.628 722.505V761.95M-321.628 722.505H-361.073M-321.628 761.95H-361.073M-361.073 -26.9502V12.4948M-361.073 -26.9502H-400.518M-361.073 12.4948V51.9398M-361.073 12.4948H-400.518M-361.073 51.9398V91.3848M-361.073 51.9398H-400.518M-361.073 91.3848V130.83M-361.073 91.3848H-400.518M-361.073 130.83V170.275M-361.073 130.83H-400.518M-361.073 170.275V209.72M-361.073 170.275H-400.518M-361.073 209.72V249.165M-361.073 209.72H-400.518M-361.073 249.165V288.61M-361.073 249.165H-400.518M-361.073 288.61V328.055M-361.073 288.61H-400.518M-361.073 328.055V367.5M-361.073 328.055H-400.518M-361.073 367.5V406.945M-361.073 367.5H-400.518M-361.073 406.945V446.39M-361.073 406.945H-400.518M-361.073 446.39V485.835M-361.073 446.39H-400.518M-361.073 485.835V525.28M-361.073 485.835H-400.518M-361.073 525.28V564.725M-361.073 525.28H-400.518M-361.073 564.725V604.17M-361.073 564.725H-400.518M-361.073 604.17V643.615M-361.073 604.17H-400.518M-361.073 643.615V683.06M-361.073 643.615H-400.518M-361.073 683.06V722.505M-361.073 683.06H-400.518M-361.073 722.505V761.95M-361.073 722.505H-400.518M-361.073 761.95H-400.518M-400.518 -26.9502V12.4948M-400.518 -26.9502H-439.963M-400.518 12.4948V51.9398M-400.518 12.4948H-439.963M-400.518 51.9398V91.3848M-400.518 51.9398H-439.963M-400.518 91.3848V130.83M-400.518 91.3848H-439.963M-400.518 130.83V170.275M-400.518 130.83H-439.963M-400.518 170.275V209.72M-400.518 170.275H-439.963M-400.518 209.72V249.165M-400.518 209.72H-439.963M-400.518 249.165V288.61M-400.518 249.165H-439.963M-400.518 288.61V328.055M-400.518 288.61H-439.963M-400.518 328.055V367.5M-400.518 328.055H-439.963M-400.518 367.5V406.945M-400.518 367.5H-439.963M-400.518 406.945V446.39M-400.518 406.945H-439.963M-400.518 446.39V485.835M-400.518 446.39H-439.963M-400.518 485.835V525.28M-400.518 485.835H-439.963M-400.518 525.28V564.725M-400.518 525.28H-439.963M-400.518 564.725V604.17M-400.518 564.725H-439.963M-400.518 604.17V643.615M-400.518 604.17H-439.963M-400.518 643.615V683.06M-400.518 643.615H-439.963M-400.518 683.06V722.505M-400.518 683.06H-439.963M-400.518 722.505V761.95M-400.518 722.505H-439.963M-400.518 761.95H-439.963M-439.963 -26.9502V12.4948M-439.963 -26.9502H-479.408M-439.963 12.4948V51.9398M-439.963 12.4948H-479.408M-439.963 51.9398V91.3848M-439.963 51.9398H-479.408M-439.963 91.3848V130.83M-439.963 91.3848H-479.408M-439.963 130.83V170.275M-439.963 130.83H-479.408M-439.963 170.275V209.72M-439.963 170.275H-479.408M-439.963 209.72V249.165M-439.963 209.72H-479.408M-439.963 249.165V288.61M-439.963 249.165H-479.408M-439.963 288.61V328.055M-439.963 288.61H-479.408M-439.963 328.055V367.5M-439.963 328.055H-479.408M-439.963 367.5V406.945M-439.963 367.5H-479.408M-439.963 406.945V446.39M-439.963 406.945H-479.408M-439.963 446.39V485.835M-439.963 446.39H-479.408M-439.963 485.835V525.28M-439.963 485.835H-479.408M-439.963 525.28V564.725M-439.963 525.28H-479.408M-439.963 564.725V604.17M-439.963 564.725H-479.408M-439.963 604.17V643.615M-439.963 604.17H-479.408M-439.963 643.615V683.06M-439.963 643.615H-479.408M-439.963 683.06V722.505M-439.963 683.06H-479.408M-439.963 722.505V761.95M-439.963 722.505H-479.408M-439.963 761.95H-479.408M-479.408 -26.9502V12.4948M-479.408 -26.9502H-518.853M-479.408 12.4948V51.9398M-479.408 12.4948H-518.853M-479.408 51.9398V91.3848M-479.408 51.9398H-518.853M-479.408 91.3848V130.83M-479.408 91.3848H-518.853M-479.408 130.83V170.275M-479.408 130.83H-518.853M-479.408 170.275V209.72M-479.408 170.275H-518.853M-479.408 209.72V249.165M-479.408 209.72H-518.853M-479.408 249.165V288.61M-479.408 249.165H-518.853M-479.408 288.61V328.055M-479.408 288.61H-518.853M-479.408 328.055V367.5M-479.408 328.055H-518.853M-479.408 367.5V406.945M-479.408 367.5H-518.853M-479.408 406.945V446.39M-479.408 406.945H-518.853M-479.408 446.39V485.835M-479.408 446.39H-518.853M-479.408 485.835V525.28M-479.408 485.835H-518.853M-479.408 525.28V564.725M-479.408 525.28H-518.853M-479.408 564.725V604.17M-479.408 564.725H-518.853M-479.408 604.17V643.615M-479.408 604.17H-518.853M-479.408 643.615V683.06M-479.408 643.615H-518.853M-479.408 683.06V722.505M-479.408 683.06H-518.853M-479.408 722.505V761.95M-479.408 722.505H-518.853M-479.408 761.95H-518.853M-518.853 -26.9502V12.4948M-518.853 -26.9502H-558.298M-518.853 12.4948V51.9398M-518.853 12.4948H-558.298M-518.853 51.9398V91.3848M-518.853 51.9398H-558.298M-518.853 91.3848V130.83M-518.853 91.3848H-558.298M-518.853 130.83V170.275M-518.853 130.83H-558.298M-518.853 170.275V209.72M-518.853 170.275H-558.298M-518.853 209.72V249.165M-518.853 209.72H-558.298M-518.853 249.165V288.61M-518.853 249.165H-558.298M-518.853 288.61V328.055M-518.853 288.61H-558.298M-518.853 328.055V367.5M-518.853 328.055H-558.298M-518.853 367.5V406.945M-518.853 367.5H-558.298M-518.853 406.945V446.39M-518.853 406.945H-558.298M-518.853 446.39V485.835M-518.853 446.39H-558.298M-518.853 485.835V525.28M-518.853 485.835H-558.298M-518.853 525.28V564.725M-518.853 525.28H-558.298M-518.853 564.725V604.17M-518.853 564.725H-558.298M-518.853 604.17V643.615M-518.853 604.17H-558.298M-518.853 643.615V683.06M-518.853 643.615H-558.298M-518.853 683.06V722.505M-518.853 683.06H-558.298M-518.853 722.505V761.95M-518.853 722.505H-558.298M-518.853 761.95H-558.298M-558.298 -26.9502V12.4948M-558.298 -26.9502H-597.743M-558.298 12.4948V51.9398M-558.298 12.4948H-597.743M-558.298 51.9398V91.3848M-558.298 51.9398H-597.743M-558.298 91.3848V130.83M-558.298 91.3848H-597.743M-558.298 130.83V170.275M-558.298 130.83H-597.743M-558.298 170.275V209.72M-558.298 170.275H-597.743M-558.298 209.72V249.165M-558.298 209.72H-597.743M-558.298 249.165V288.61M-558.298 249.165H-597.743M-558.298 288.61V328.055M-558.298 288.61H-597.743M-558.298 328.055V367.5M-558.298 328.055H-597.743M-558.298 367.5V406.945M-558.298 367.5H-597.743M-558.298 406.945V446.39M-558.298 406.945H-597.743M-558.298 446.39V485.835M-558.298 446.39H-597.743M-558.298 485.835V525.28M-558.298 485.835H-597.743M-558.298 525.28V564.725M-558.298 525.28H-597.743M-558.298 564.725V604.17M-558.298 564.725H-597.743M-558.298 604.17V643.615M-558.298 604.17H-597.743M-558.298 643.615V683.06M-558.298 643.615H-597.743M-558.298 683.06V722.505M-558.298 683.06H-597.743M-558.298 722.505V761.95M-558.298 722.505H-597.743M-558.298 761.95H-597.743M-597.743 -26.9502V12.4948M-597.743 -26.9502H-637.188M-597.743 12.4948V51.9398M-597.743 12.4948H-637.188M-597.743 51.9398V91.3848M-597.743 51.9398H-637.188M-597.743 91.3848V130.83M-597.743 91.3848H-637.188M-597.743 130.83V170.275M-597.743 130.83H-637.188M-597.743 170.275V209.72M-597.743 170.275H-637.188M-597.743 209.72V249.165M-597.743 209.72H-637.188M-597.743 249.165V288.61M-597.743 249.165H-637.188M-597.743 288.61V328.055M-597.743 288.61H-637.188M-597.743 328.055V367.5M-597.743 328.055H-637.188M-597.743 367.5V406.945M-597.743 367.5H-637.188M-597.743 406.945V446.39M-597.743 406.945H-637.188M-597.743 446.39V485.835M-597.743 446.39H-637.188M-597.743 485.835V525.28M-597.743 485.835H-637.188M-597.743 525.28V564.725M-597.743 525.28H-637.188M-597.743 564.725V604.17M-597.743 564.725H-637.188M-597.743 604.17V643.615M-597.743 604.17H-637.188M-597.743 643.615V683.06M-597.743 643.615H-637.188M-597.743 683.06V722.505M-597.743 683.06H-637.188M-597.743 722.505V761.95M-597.743 722.505H-637.188M-597.743 761.95H-637.188M-637.188 -26.9502V12.4948M-637.188 -26.9502H-676.633M-637.188 12.4948V51.9398M-637.188 12.4948H-676.633M-637.188 51.9398V91.3848M-637.188 51.9398H-676.633M-637.188 91.3848V130.83M-637.188 91.3848H-676.633M-637.188 130.83V170.275M-637.188 130.83H-676.633M-637.188 170.275V209.72M-637.188 170.275H-676.633M-637.188 209.72V249.165M-637.188 209.72H-676.633M-637.188 249.165V288.61M-637.188 249.165H-676.633M-637.188 288.61V328.055M-637.188 288.61H-676.633M-637.188 328.055V367.5M-637.188 328.055H-676.633M-637.188 367.5V406.945M-637.188 367.5H-676.633M-637.188 406.945V446.39M-637.188 406.945H-676.633M-637.188 446.39V485.835M-637.188 446.39H-676.633M-637.188 485.835V525.28M-637.188 485.835H-676.633M-637.188 525.28V564.725M-637.188 525.28H-676.633M-637.188 564.725V604.17M-637.188 564.725H-676.633M-637.188 604.17V643.615M-637.188 604.17H-676.633M-637.188 643.615V683.06M-637.188 643.615H-676.633M-637.188 683.06V722.505M-637.188 683.06H-676.633M-637.188 722.505V761.95M-637.188 722.505H-676.633M-637.188 761.95H-676.633M-676.633 -26.9502V12.4948M-676.633 -26.9502H-716.078M-676.633 12.4948V51.9398M-676.633 12.4948H-716.078M-676.633 51.9398V91.3848M-676.633 51.9398H-716.078M-676.633 91.3848V130.83M-676.633 91.3848H-716.078M-676.633 130.83V170.275M-676.633 130.83H-716.078M-676.633 170.275V209.72M-676.633 170.275H-716.078M-676.633 209.72V249.165M-676.633 209.72H-716.078M-676.633 249.165V288.61M-676.633 249.165H-716.078M-676.633 288.61V328.055M-676.633 288.61H-716.078M-676.633 328.055V367.5M-676.633 328.055H-716.078M-676.633 367.5V406.945M-676.633 367.5H-716.078M-676.633 406.945V446.39M-676.633 406.945H-716.078M-676.633 446.39V485.835M-676.633 446.39H-716.078M-676.633 485.835V525.28M-676.633 485.835H-716.078M-676.633 525.28V564.725M-676.633 525.28H-716.078M-676.633 564.725V604.17M-676.633 564.725H-716.078M-676.633 604.17V643.615M-676.633 604.17H-716.078M-676.633 643.615V683.06M-676.633 643.615H-716.078M-676.633 683.06V722.505M-676.633 683.06H-716.078M-676.633 722.505V761.95M-676.633 722.505H-716.078M-676.633 761.95H-716.078M-716.078 -26.9502V12.4948M-716.078 -26.9502H-755.523M-716.078 12.4948V51.9398M-716.078 12.4948H-755.523M-716.078 51.9398V91.3848M-716.078 51.9398H-755.523M-716.078 91.3848V130.83M-716.078 91.3848H-755.523M-716.078 130.83V170.275M-716.078 130.83H-755.523M-716.078 170.275V209.72M-716.078 170.275H-755.523M-716.078 209.72V249.165M-716.078 209.72H-755.523M-716.078 249.165V288.61M-716.078 249.165H-755.523M-716.078 288.61V328.055M-716.078 288.61H-755.523M-716.078 328.055V367.5M-716.078 328.055H-755.523M-716.078 367.5V406.945M-716.078 367.5H-755.523M-716.078 406.945V446.39M-716.078 406.945H-755.523M-716.078 446.39V485.835M-716.078 446.39H-755.523M-716.078 485.835V525.28M-716.078 485.835H-755.523M-716.078 525.28V564.725M-716.078 525.28H-755.523M-716.078 564.725V604.17M-716.078 564.725H-755.523M-716.078 604.17V643.615M-716.078 604.17H-755.523M-716.078 643.615V683.06M-716.078 643.615H-755.523M-716.078 683.06V722.505M-716.078 683.06H-755.523M-716.078 722.505V761.95M-716.078 722.505H-755.523M-716.078 761.95H-755.523M-755.523 -26.9502V12.4948M-755.523 -26.9502H-794.968M-755.523 12.4948V51.9398M-755.523 12.4948H-794.968M-755.523 51.9398V91.3848M-755.523 51.9398H-794.968M-755.523 91.3848V130.83M-755.523 91.3848H-794.968M-755.523 130.83V170.275M-755.523 130.83H-794.968M-755.523 170.275V209.72M-755.523 170.275H-794.968M-755.523 209.72V249.165M-755.523 209.72H-794.968M-755.523 249.165V288.61M-755.523 249.165H-794.968M-755.523 288.61V328.055M-755.523 288.61H-794.968M-755.523 328.055V367.5M-755.523 328.055H-794.968M-755.523 367.5V406.945M-755.523 367.5H-794.968M-755.523 406.945V446.39M-755.523 406.945H-794.968M-755.523 446.39V485.835M-755.523 446.39H-794.968M-755.523 485.835V525.28M-755.523 485.835H-794.968M-755.523 525.28V564.725M-755.523 525.28H-794.968M-755.523 564.725V604.17M-755.523 564.725H-794.968M-755.523 604.17V643.615M-755.523 604.17H-794.968M-755.523 643.615V683.06M-755.523 643.615H-794.968M-755.523 683.06V722.505M-755.523 683.06H-794.968M-755.523 722.505V761.95M-755.523 722.505H-794.968M-755.523 761.95H-794.968M-794.968 -26.9502V12.4948M-794.968 -26.9502H-834.413V12.4948M-794.968 12.4948V51.9398M-794.968 12.4948H-834.413M-794.968 51.9398V91.3848M-794.968 51.9398H-834.413M-794.968 91.3848V130.83M-794.968 91.3848H-834.413M-794.968 130.83V170.275M-794.968 130.83H-834.413M-794.968 170.275V209.72M-794.968 170.275H-834.413M-794.968 209.72V249.165M-794.968 209.72H-834.413M-794.968 249.165V288.61M-794.968 249.165H-834.413M-794.968 288.61V328.055M-794.968 288.61H-834.413M-794.968 328.055V367.5M-794.968 328.055H-834.413M-794.968 367.5V406.945M-794.968 367.5H-834.413M-794.968 406.945V446.39M-794.968 406.945H-834.413M-794.968 446.39V485.835M-794.968 446.39H-834.413M-794.968 485.835V525.28M-794.968 485.835H-834.413M-794.968 525.28V564.725M-794.968 525.28H-834.413M-794.968 564.725V604.17M-794.968 564.725H-834.413M-794.968 604.17V643.615M-794.968 604.17H-834.413M-794.968 643.615V683.06M-794.968 643.615H-834.413M-794.968 683.06V722.505M-794.968 683.06H-834.413M-794.968 722.505V761.95M-794.968 722.505H-834.413M-794.968 761.95H-834.413V722.505M-834.413 12.4948V51.9398M-834.413 51.9398V91.3848M-834.413 91.3848V130.83M-834.413 130.83V170.275M-834.413 170.275V209.72M-834.413 209.72V249.165M-834.413 249.165V288.61M-834.413 288.61V328.055M-834.413 328.055V367.5M-834.413 367.5V406.945M-834.413 406.945V446.39M-834.413 446.39V485.835M-834.413 485.835V525.28M-834.413 525.28V564.725M-834.413 564.725V604.17M-834.413 604.17V643.615M-834.413 643.615V683.06M-834.413 683.06V722.505" stroke="url(#paint0_radial_1426_6695)" shape-rendering="crispEdges"/>
</g>
</g>
<g clip-path="url(#clip2_1426_6695)">
<g style="mix-blend-mode:soft-light" opacity="0.72" filter="url(#filter1_d_1426_6695)">
<path d="M546.278 -26.9502H506.833V12.4948M546.278 -26.9502V12.4948M546.278 -26.9502H585.723M546.278 12.4948H506.833M546.278 12.4948V51.9398M546.278 12.4948H585.723M506.833 12.4948V51.9398M546.278 51.9398H506.833M546.278 51.9398V91.3848M546.278 51.9398H585.723M506.833 51.9398V91.3848M546.278 91.3848H506.833M546.278 91.3848V130.83M546.278 91.3848H585.723M506.833 91.3848V130.83M546.278 130.83H506.833M546.278 130.83V170.275M546.278 130.83H585.723M506.833 130.83V170.275M546.278 170.275H506.833M546.278 170.275V209.72M546.278 170.275H585.723M506.833 170.275V209.72M546.278 209.72H506.833M546.278 209.72V249.165M546.278 209.72H585.723M506.833 209.72V249.165M546.278 249.165H506.833M546.278 249.165V288.61M546.278 249.165H585.723M506.833 249.165V288.61M546.278 288.61H506.833M546.278 288.61V328.055M546.278 288.61H585.723M506.833 288.61V328.055M546.278 328.055H506.833M546.278 328.055V367.5M546.278 328.055H585.723M506.833 328.055V367.5M546.278 367.5H506.833M546.278 367.5V406.945M546.278 367.5H585.723M506.833 367.5V406.945M546.278 406.945H506.833M546.278 406.945V446.39M546.278 406.945H585.723M506.833 406.945V446.39M546.278 446.39H506.833M546.278 446.39V485.835M546.278 446.39H585.723M506.833 446.39V485.835M546.278 485.835H506.833M546.278 485.835V525.28M546.278 485.835H585.723M506.833 485.835V525.28M546.278 525.28H506.833M546.278 525.28V564.725M546.278 525.28H585.723M506.833 525.28V564.725M546.278 564.725H506.833M546.278 564.725V604.17M546.278 564.725H585.723M506.833 564.725V604.17M546.278 604.17H506.833M546.278 604.17V643.615M546.278 604.17H585.723M506.833 604.17V643.615M546.278 643.615H506.833M546.278 643.615V683.06M546.278 643.615H585.723M506.833 643.615V683.06M546.278 683.06H506.833M546.278 683.06V722.505M546.278 683.06H585.723M506.833 683.06V722.505M546.278 722.505H506.833M546.278 722.505V761.95M546.278 722.505H585.723M506.833 722.505V761.95H546.278M546.278 761.95H585.723M585.723 -26.9502V12.4948M585.723 -26.9502H625.168M585.723 12.4948V51.9398M585.723 12.4948H625.168M585.723 51.9398V91.3848M585.723 51.9398H625.168M585.723 91.3848V130.83M585.723 91.3848H625.168M585.723 130.83V170.275M585.723 130.83H625.168M585.723 170.275V209.72M585.723 170.275H625.168M585.723 209.72V249.165M585.723 209.72H625.168M585.723 249.165V288.61M585.723 249.165H625.168M585.723 288.61V328.055M585.723 288.61H625.168M585.723 328.055V367.5M585.723 328.055H625.168M585.723 367.5V406.945M585.723 367.5H625.168M585.723 406.945V446.39M585.723 406.945H625.168M585.723 446.39V485.835M585.723 446.39H625.168M585.723 485.835V525.28M585.723 485.835H625.168M585.723 525.28V564.725M585.723 525.28H625.168M585.723 564.725V604.17M585.723 564.725H625.168M585.723 604.17V643.615M585.723 604.17H625.168M585.723 643.615V683.06M585.723 643.615H625.168M585.723 683.06V722.505M585.723 683.06H625.168M585.723 722.505V761.95M585.723 722.505H625.168M585.723 761.95H625.168M625.168 -26.9502V12.4948M625.168 -26.9502H664.613M625.168 12.4948V51.9398M625.168 12.4948H664.613M625.168 51.9398V91.3848M625.168 51.9398H664.613M625.168 91.3848V130.83M625.168 91.3848H664.613M625.168 130.83V170.275M625.168 130.83H664.613M625.168 170.275V209.72M625.168 170.275H664.613M625.168 209.72V249.165M625.168 209.72H664.613M625.168 249.165V288.61M625.168 249.165H664.613M625.168 288.61V328.055M625.168 288.61H664.613M625.168 328.055V367.5M625.168 328.055H664.613M625.168 367.5V406.945M625.168 367.5H664.613M625.168 406.945V446.39M625.168 406.945H664.613M625.168 446.39V485.835M625.168 446.39H664.613M625.168 485.835V525.28M625.168 485.835H664.613M625.168 525.28V564.725M625.168 525.28H664.613M625.168 564.725V604.17M625.168 564.725H664.613M625.168 604.17V643.615M625.168 604.17H664.613M625.168 643.615V683.06M625.168 643.615H664.613M625.168 683.06V722.505M625.168 683.06H664.613M625.168 722.505V761.95M625.168 722.505H664.613M625.168 761.95H664.613M664.613 -26.9502V12.4948M664.613 -26.9502H704.058M664.613 12.4948V51.9398M664.613 12.4948H704.058M664.613 51.9398V91.3848M664.613 51.9398H704.058M664.613 91.3848V130.83M664.613 91.3848H704.058M664.613 130.83V170.275M664.613 130.83H704.058M664.613 170.275V209.72M664.613 170.275H704.058M664.613 209.72V249.165M664.613 209.72H704.058M664.613 249.165V288.61M664.613 249.165H704.058M664.613 288.61V328.055M664.613 288.61H704.058M664.613 328.055V367.5M664.613 328.055H704.058M664.613 367.5V406.945M664.613 367.5H704.058M664.613 406.945V446.39M664.613 406.945H704.058M664.613 446.39V485.835M664.613 446.39H704.058M664.613 485.835V525.28M664.613 485.835H704.058M664.613 525.28V564.725M664.613 525.28H704.058M664.613 564.725V604.17M664.613 564.725H704.058M664.613 604.17V643.615M664.613 604.17H704.058M664.613 643.615V683.06M664.613 643.615H704.058M664.613 683.06V722.505M664.613 683.06H704.058M664.613 722.505V761.95M664.613 722.505H704.058M664.613 761.95H704.058M704.058 -26.9502V12.4948M704.058 -26.9502H743.503M704.058 12.4948V51.9398M704.058 12.4948H743.503M704.058 51.9398V91.3848M704.058 51.9398H743.503M704.058 91.3848V130.83M704.058 91.3848H743.503M704.058 130.83V170.275M704.058 130.83H743.503M704.058 170.275V209.72M704.058 170.275H743.503M704.058 209.72V249.165M704.058 209.72H743.503M704.058 249.165V288.61M704.058 249.165H743.503M704.058 288.61V328.055M704.058 288.61H743.503M704.058 328.055V367.5M704.058 328.055H743.503M704.058 367.5V406.945M704.058 367.5H743.503M704.058 406.945V446.39M704.058 406.945H743.503M704.058 446.39V485.835M704.058 446.39H743.503M704.058 485.835V525.28M704.058 485.835H743.503M704.058 525.28V564.725M704.058 525.28H743.503M704.058 564.725V604.17M704.058 564.725H743.503M704.058 604.17V643.615M704.058 604.17H743.503M704.058 643.615V683.06M704.058 643.615H743.503M704.058 683.06V722.505M704.058 683.06H743.503M704.058 722.505V761.95M704.058 722.505H743.503M704.058 761.95H743.503M743.503 -26.9502V12.4948M743.503 -26.9502H782.948M743.503 12.4948V51.9398M743.503 12.4948H782.948M743.503 51.9398V91.3848M743.503 51.9398H782.948M743.503 91.3848V130.83M743.503 91.3848H782.948M743.503 130.83V170.275M743.503 130.83H782.948M743.503 170.275V209.72M743.503 170.275H782.948M743.503 209.72V249.165M743.503 209.72H782.948M743.503 249.165V288.61M743.503 249.165H782.948M743.503 288.61V328.055M743.503 288.61H782.948M743.503 328.055V367.5M743.503 328.055H782.948M743.503 367.5V406.945M743.503 367.5H782.948M743.503 406.945V446.39M743.503 406.945H782.948M743.503 446.39V485.835M743.503 446.39H782.948M743.503 485.835V525.28M743.503 485.835H782.948M743.503 525.28V564.725M743.503 525.28H782.948M743.503 564.725V604.17M743.503 564.725H782.948M743.503 604.17V643.615M743.503 604.17H782.948M743.503 643.615V683.06M743.503 643.615H782.948M743.503 683.06V722.505M743.503 683.06H782.948M743.503 722.505V761.95M743.503 722.505H782.948M743.503 761.95H782.948M782.948 -26.9502V12.4948M782.948 -26.9502H822.393M782.948 12.4948V51.9398M782.948 12.4948H822.393M782.948 51.9398V91.3848M782.948 51.9398H822.393M782.948 91.3848V130.83M782.948 91.3848H822.393M782.948 130.83V170.275M782.948 130.83H822.393M782.948 170.275V209.72M782.948 170.275H822.393M782.948 209.72V249.165M782.948 209.72H822.393M782.948 249.165V288.61M782.948 249.165H822.393M782.948 288.61V328.055M782.948 288.61H822.393M782.948 328.055V367.5M782.948 328.055H822.393M782.948 367.5V406.945M782.948 367.5H822.393M782.948 406.945V446.39M782.948 406.945H822.393M782.948 446.39V485.835M782.948 446.39H822.393M782.948 485.835V525.28M782.948 485.835H822.393M782.948 525.28V564.725M782.948 525.28H822.393M782.948 564.725V604.17M782.948 564.725H822.393M782.948 604.17V643.615M782.948 604.17H822.393M782.948 643.615V683.06M782.948 643.615H822.393M782.948 683.06V722.505M782.948 683.06H822.393M782.948 722.505V761.95M782.948 722.505H822.393M782.948 761.95H822.393M822.393 -26.9502V12.4948M822.393 -26.9502H861.838M822.393 12.4948V51.9398M822.393 12.4948H861.838M822.393 51.9398V91.3848M822.393 51.9398H861.838M822.393 91.3848V130.83M822.393 91.3848H861.838M822.393 130.83V170.275M822.393 130.83H861.838M822.393 170.275V209.72M822.393 170.275H861.838M822.393 209.72V249.165M822.393 209.72H861.838M822.393 249.165V288.61M822.393 249.165H861.838M822.393 288.61V328.055M822.393 288.61H861.838M822.393 328.055V367.5M822.393 328.055H861.838M822.393 367.5V406.945M822.393 367.5H861.838M822.393 406.945V446.39M822.393 406.945H861.838M822.393 446.39V485.835M822.393 446.39H861.838M822.393 485.835V525.28M822.393 485.835H861.838M822.393 525.28V564.725M822.393 525.28H861.838M822.393 564.725V604.17M822.393 564.725H861.838M822.393 604.17V643.615M822.393 604.17H861.838M822.393 643.615V683.06M822.393 643.615H861.838M822.393 683.06V722.505M822.393 683.06H861.838M822.393 722.505V761.95M822.393 722.505H861.838M822.393 761.95H861.838M861.838 -26.9502V12.4948M861.838 -26.9502H901.283M861.838 12.4948V51.9398M861.838 12.4948H901.283M861.838 51.9398V91.3848M861.838 51.9398H901.283M861.838 91.3848V130.83M861.838 91.3848H901.283M861.838 130.83V170.275M861.838 130.83H901.283M861.838 170.275V209.72M861.838 170.275H901.283M861.838 209.72V249.165M861.838 209.72H901.283M861.838 249.165V288.61M861.838 249.165H901.283M861.838 288.61V328.055M861.838 288.61H901.283M861.838 328.055V367.5M861.838 328.055H901.283M861.838 367.5V406.945M861.838 367.5H901.283M861.838 406.945V446.39M861.838 406.945H901.283M861.838 446.39V485.835M861.838 446.39H901.283M861.838 485.835V525.28M861.838 485.835H901.283M861.838 525.28V564.725M861.838 525.28H901.283M861.838 564.725V604.17M861.838 564.725H901.283M861.838 604.17V643.615M861.838 604.17H901.283M861.838 643.615V683.06M861.838 643.615H901.283M861.838 683.06V722.505M861.838 683.06H901.283M861.838 722.505V761.95M861.838 722.505H901.283M861.838 761.95H901.283M901.283 -26.9502V12.4948M901.283 -26.9502H940.728M901.283 12.4948V51.9398M901.283 12.4948H940.728M901.283 51.9398V91.3848M901.283 51.9398H940.728M901.283 91.3848V130.83M901.283 91.3848H940.728M901.283 130.83V170.275M901.283 130.83H940.728M901.283 170.275V209.72M901.283 170.275H940.728M901.283 209.72V249.165M901.283 209.72H940.728M901.283 249.165V288.61M901.283 249.165H940.728M901.283 288.61V328.055M901.283 288.61H940.728M901.283 328.055V367.5M901.283 328.055H940.728M901.283 367.5V406.945M901.283 367.5H940.728M901.283 406.945V446.39M901.283 406.945H940.728M901.283 446.39V485.835M901.283 446.39H940.728M901.283 485.835V525.28M901.283 485.835H940.728M901.283 525.28V564.725M901.283 525.28H940.728M901.283 564.725V604.17M901.283 564.725H940.728M901.283 604.17V643.615M901.283 604.17H940.728M901.283 643.615V683.06M901.283 643.615H940.728M901.283 683.06V722.505M901.283 683.06H940.728M901.283 722.505V761.95M901.283 722.505H940.728M901.283 761.95H940.728M940.728 -26.9502V12.4948M940.728 -26.9502H980.173M940.728 12.4948V51.9398M940.728 12.4948H980.173M940.728 51.9398V91.3848M940.728 51.9398H980.173M940.728 91.3848V130.83M940.728 91.3848H980.173M940.728 130.83V170.275M940.728 130.83H980.173M940.728 170.275V209.72M940.728 170.275H980.173M940.728 209.72V249.165M940.728 209.72H980.173M940.728 249.165V288.61M940.728 249.165H980.173M940.728 288.61V328.055M940.728 288.61H980.173M940.728 328.055V367.5M940.728 328.055H980.173M940.728 367.5V406.945M940.728 367.5H980.173M940.728 406.945V446.39M940.728 406.945H980.173M940.728 446.39V485.835M940.728 446.39H980.173M940.728 485.835V525.28M940.728 485.835H980.173M940.728 525.28V564.725M940.728 525.28H980.173M940.728 564.725V604.17M940.728 564.725H980.173M940.728 604.17V643.615M940.728 604.17H980.173M940.728 643.615V683.06M940.728 643.615H980.173M940.728 683.06V722.505M940.728 683.06H980.173M940.728 722.505V761.95M940.728 722.505H980.173M940.728 761.95H980.173M980.173 -26.9502V12.4948M980.173 -26.9502H1019.62M980.173 12.4948V51.9398M980.173 12.4948H1019.62M980.173 51.9398V91.3848M980.173 51.9398H1019.62M980.173 91.3848V130.83M980.173 91.3848H1019.62M980.173 130.83V170.275M980.173 130.83H1019.62M980.173 170.275V209.72M980.173 170.275H1019.62M980.173 209.72V249.165M980.173 209.72H1019.62M980.173 249.165V288.61M980.173 249.165H1019.62M980.173 288.61V328.055M980.173 288.61H1019.62M980.173 328.055V367.5M980.173 328.055H1019.62M980.173 367.5V406.945M980.173 367.5H1019.62M980.173 406.945V446.39M980.173 406.945H1019.62M980.173 446.39V485.835M980.173 446.39H1019.62M980.173 485.835V525.28M980.173 485.835H1019.62M980.173 525.28V564.725M980.173 525.28H1019.62M980.173 564.725V604.17M980.173 564.725H1019.62M980.173 604.17V643.615M980.173 604.17H1019.62M980.173 643.615V683.06M980.173 643.615H1019.62M980.173 683.06V722.505M980.173 683.06H1019.62M980.173 722.505V761.95M980.173 722.505H1019.62M980.173 761.95H1019.62M1019.62 -26.9502V12.4948M1019.62 -26.9502H1059.06M1019.62 12.4948V51.9398M1019.62 12.4948H1059.06M1019.62 51.9398V91.3848M1019.62 51.9398H1059.06M1019.62 91.3848V130.83M1019.62 91.3848H1059.06M1019.62 130.83V170.275M1019.62 130.83H1059.06M1019.62 170.275V209.72M1019.62 170.275H1059.06M1019.62 209.72V249.165M1019.62 209.72H1059.06M1019.62 249.165V288.61M1019.62 249.165H1059.06M1019.62 288.61V328.055M1019.62 288.61H1059.06M1019.62 328.055V367.5M1019.62 328.055H1059.06M1019.62 367.5V406.945M1019.62 367.5H1059.06M1019.62 406.945V446.39M1019.62 406.945H1059.06M1019.62 446.39V485.835M1019.62 446.39H1059.06M1019.62 485.835V525.28M1019.62 485.835H1059.06M1019.62 525.28V564.725M1019.62 525.28H1059.06M1019.62 564.725V604.17M1019.62 564.725H1059.06M1019.62 604.17V643.615M1019.62 604.17H1059.06M1019.62 643.615V683.06M1019.62 643.615H1059.06M1019.62 683.06V722.505M1019.62 683.06H1059.06M1019.62 722.505V761.95M1019.62 722.505H1059.06M1019.62 761.95H1059.06M1059.06 -26.9502V12.4948M1059.06 -26.9502H1098.51M1059.06 12.4948V51.9398M1059.06 12.4948H1098.51M1059.06 51.9398V91.3848M1059.06 51.9398H1098.51M1059.06 91.3848V130.83M1059.06 91.3848H1098.51M1059.06 130.83V170.275M1059.06 130.83H1098.51M1059.06 170.275V209.72M1059.06 170.275H1098.51M1059.06 209.72V249.165M1059.06 209.72H1098.51M1059.06 249.165V288.61M1059.06 249.165H1098.51M1059.06 288.61V328.055M1059.06 288.61H1098.51M1059.06 328.055V367.5M1059.06 328.055H1098.51M1059.06 367.5V406.945M1059.06 367.5H1098.51M1059.06 406.945V446.39M1059.06 406.945H1098.51M1059.06 446.39V485.835M1059.06 446.39H1098.51M1059.06 485.835V525.28M1059.06 485.835H1098.51M1059.06 525.28V564.725M1059.06 525.28H1098.51M1059.06 564.725V604.17M1059.06 564.725H1098.51M1059.06 604.17V643.615M1059.06 604.17H1098.51M1059.06 643.615V683.06M1059.06 643.615H1098.51M1059.06 683.06V722.505M1059.06 683.06H1098.51M1059.06 722.505V761.95M1059.06 722.505H1098.51M1059.06 761.95H1098.51M1098.51 -26.9502V12.4948M1098.51 -26.9502H1137.95M1098.51 12.4948V51.9398M1098.51 12.4948H1137.95M1098.51 51.9398V91.3848M1098.51 51.9398H1137.95M1098.51 91.3848V130.83M1098.51 91.3848H1137.95M1098.51 130.83V170.275M1098.51 130.83H1137.95M1098.51 170.275V209.72M1098.51 170.275H1137.95M1098.51 209.72V249.165M1098.51 209.72H1137.95M1098.51 249.165V288.61M1098.51 249.165H1137.95M1098.51 288.61V328.055M1098.51 288.61H1137.95M1098.51 328.055V367.5M1098.51 328.055H1137.95M1098.51 367.5V406.945M1098.51 367.5H1137.95M1098.51 406.945V446.39M1098.51 406.945H1137.95M1098.51 446.39V485.835M1098.51 446.39H1137.95M1098.51 485.835V525.28M1098.51 485.835H1137.95M1098.51 525.28V564.725M1098.51 525.28H1137.95M1098.51 564.725V604.17M1098.51 564.725H1137.95M1098.51 604.17V643.615M1098.51 604.17H1137.95M1098.51 643.615V683.06M1098.51 643.615H1137.95M1098.51 683.06V722.505M1098.51 683.06H1137.95M1098.51 722.505V761.95M1098.51 722.505H1137.95M1098.51 761.95H1137.95M1137.95 -26.9502V12.4948M1137.95 -26.9502H1177.4M1137.95 12.4948V51.9398M1137.95 12.4948H1177.4M1137.95 51.9398V91.3848M1137.95 51.9398H1177.4M1137.95 91.3848V130.83M1137.95 91.3848H1177.4M1137.95 130.83V170.275M1137.95 130.83H1177.4M1137.95 170.275V209.72M1137.95 170.275H1177.4M1137.95 209.72V249.165M1137.95 209.72H1177.4M1137.95 249.165V288.61M1137.95 249.165H1177.4M1137.95 288.61V328.055M1137.95 288.61H1177.4M1137.95 328.055V367.5M1137.95 328.055H1177.4M1137.95 367.5V406.945M1137.95 367.5H1177.4M1137.95 406.945V446.39M1137.95 406.945H1177.4M1137.95 446.39V485.835M1137.95 446.39H1177.4M1137.95 485.835V525.28M1137.95 485.835H1177.4M1137.95 525.28V564.725M1137.95 525.28H1177.4M1137.95 564.725V604.17M1137.95 564.725H1177.4M1137.95 604.17V643.615M1137.95 604.17H1177.4M1137.95 643.615V683.06M1137.95 643.615H1177.4M1137.95 683.06V722.505M1137.95 683.06H1177.4M1137.95 722.505V761.95M1137.95 722.505H1177.4M1137.95 761.95H1177.4M1177.4 -26.9502V12.4948M1177.4 -26.9502H1216.84M1177.4 12.4948V51.9398M1177.4 12.4948H1216.84M1177.4 51.9398V91.3848M1177.4 51.9398H1216.84M1177.4 91.3848V130.83M1177.4 91.3848H1216.84M1177.4 130.83V170.275M1177.4 130.83H1216.84M1177.4 170.275V209.72M1177.4 170.275H1216.84M1177.4 209.72V249.165M1177.4 209.72H1216.84M1177.4 249.165V288.61M1177.4 249.165H1216.84M1177.4 288.61V328.055M1177.4 288.61H1216.84M1177.4 328.055V367.5M1177.4 328.055H1216.84M1177.4 367.5V406.945M1177.4 367.5H1216.84M1177.4 406.945V446.39M1177.4 406.945H1216.84M1177.4 446.39V485.835M1177.4 446.39H1216.84M1177.4 485.835V525.28M1177.4 485.835H1216.84M1177.4 525.28V564.725M1177.4 525.28H1216.84M1177.4 564.725V604.17M1177.4 564.725H1216.84M1177.4 604.17V643.615M1177.4 604.17H1216.84M1177.4 643.615V683.06M1177.4 643.615H1216.84M1177.4 683.06V722.505M1177.4 683.06H1216.84M1177.4 722.505V761.95M1177.4 722.505H1216.84M1177.4 761.95H1216.84M1216.84 -26.9502V12.4948M1216.84 -26.9502H1256.29M1216.84 12.4948V51.9398M1216.84 12.4948H1256.29M1216.84 51.9398V91.3848M1216.84 51.9398H1256.29M1216.84 91.3848V130.83M1216.84 91.3848H1256.29M1216.84 130.83V170.275M1216.84 130.83H1256.29M1216.84 170.275V209.72M1216.84 170.275H1256.29M1216.84 209.72V249.165M1216.84 209.72H1256.29M1216.84 249.165V288.61M1216.84 249.165H1256.29M1216.84 288.61V328.055M1216.84 288.61H1256.29M1216.84 328.055V367.5M1216.84 328.055H1256.29M1216.84 367.5V406.945M1216.84 367.5H1256.29M1216.84 406.945V446.39M1216.84 406.945H1256.29M1216.84 446.39V485.835M1216.84 446.39H1256.29M1216.84 485.835V525.28M1216.84 485.835H1256.29M1216.84 525.28V564.725M1216.84 525.28H1256.29M1216.84 564.725V604.17M1216.84 564.725H1256.29M1216.84 604.17V643.615M1216.84 604.17H1256.29M1216.84 643.615V683.06M1216.84 643.615H1256.29M1216.84 683.06V722.505M1216.84 683.06H1256.29M1216.84 722.505V761.95M1216.84 722.505H1256.29M1216.84 761.95H1256.29M1256.29 -26.9502V12.4948M1256.29 -26.9502H1295.73M1256.29 12.4948V51.9398M1256.29 12.4948H1295.73M1256.29 51.9398V91.3848M1256.29 51.9398H1295.73M1256.29 91.3848V130.83M1256.29 91.3848H1295.73M1256.29 130.83V170.275M1256.29 130.83H1295.73M1256.29 170.275V209.72M1256.29 170.275H1295.73M1256.29 209.72V249.165M1256.29 209.72H1295.73M1256.29 249.165V288.61M1256.29 249.165H1295.73M1256.29 288.61V328.055M1256.29 288.61H1295.73M1256.29 328.055V367.5M1256.29 328.055H1295.73M1256.29 367.5V406.945M1256.29 367.5H1295.73M1256.29 406.945V446.39M1256.29 406.945H1295.73M1256.29 446.39V485.835M1256.29 446.39H1295.73M1256.29 485.835V525.28M1256.29 485.835H1295.73M1256.29 525.28V564.725M1256.29 525.28H1295.73M1256.29 564.725V604.17M1256.29 564.725H1295.73M1256.29 604.17V643.615M1256.29 604.17H1295.73M1256.29 643.615V683.06M1256.29 643.615H1295.73M1256.29 683.06V722.505M1256.29 683.06H1295.73M1256.29 722.505V761.95M1256.29 722.505H1295.73M1256.29 761.95H1295.73M1295.73 -26.9502V12.4948M1295.73 -26.9502H1335.18M1295.73 12.4948V51.9398M1295.73 12.4948H1335.18M1295.73 51.9398V91.3848M1295.73 51.9398H1335.18M1295.73 91.3848V130.83M1295.73 91.3848H1335.18M1295.73 130.83V170.275M1295.73 130.83H1335.18M1295.73 170.275V209.72M1295.73 170.275H1335.18M1295.73 209.72V249.165M1295.73 209.72H1335.18M1295.73 249.165V288.61M1295.73 249.165H1335.18M1295.73 288.61V328.055M1295.73 288.61H1335.18M1295.73 328.055V367.5M1295.73 328.055H1335.18M1295.73 367.5V406.945M1295.73 367.5H1335.18M1295.73 406.945V446.39M1295.73 406.945H1335.18M1295.73 446.39V485.835M1295.73 446.39H1335.18M1295.73 485.835V525.28M1295.73 485.835H1335.18M1295.73 525.28V564.725M1295.73 525.28H1335.18M1295.73 564.725V604.17M1295.73 564.725H1335.18M1295.73 604.17V643.615M1295.73 604.17H1335.18M1295.73 643.615V683.06M1295.73 643.615H1335.18M1295.73 683.06V722.505M1295.73 683.06H1335.18M1295.73 722.505V761.95M1295.73 722.505H1335.18M1295.73 761.95H1335.18M1335.18 -26.9502V12.4948M1335.18 -26.9502H1374.62M1335.18 12.4948V51.9398M1335.18 12.4948H1374.62M1335.18 51.9398V91.3848M1335.18 51.9398H1374.62M1335.18 91.3848V130.83M1335.18 91.3848H1374.62M1335.18 130.83V170.275M1335.18 130.83H1374.62M1335.18 170.275V209.72M1335.18 170.275H1374.62M1335.18 209.72V249.165M1335.18 209.72H1374.62M1335.18 249.165V288.61M1335.18 249.165H1374.62M1335.18 288.61V328.055M1335.18 288.61H1374.62M1335.18 328.055V367.5M1335.18 328.055H1374.62M1335.18 367.5V406.945M1335.18 367.5H1374.62M1335.18 406.945V446.39M1335.18 406.945H1374.62M1335.18 446.39V485.835M1335.18 446.39H1374.62M1335.18 485.835V525.28M1335.18 485.835H1374.62M1335.18 525.28V564.725M1335.18 525.28H1374.62M1335.18 564.725V604.17M1335.18 564.725H1374.62M1335.18 604.17V643.615M1335.18 604.17H1374.62M1335.18 643.615V683.06M1335.18 643.615H1374.62M1335.18 683.06V722.505M1335.18 683.06H1374.62M1335.18 722.505V761.95M1335.18 722.505H1374.62M1335.18 761.95H1374.62M1374.62 -26.9502V12.4948M1374.62 -26.9502H1414.07M1374.62 12.4948V51.9398M1374.62 12.4948H1414.07M1374.62 51.9398V91.3848M1374.62 51.9398H1414.07M1374.62 91.3848V130.83M1374.62 91.3848H1414.07M1374.62 130.83V170.275M1374.62 130.83H1414.07M1374.62 170.275V209.72M1374.62 170.275H1414.07M1374.62 209.72V249.165M1374.62 209.72H1414.07M1374.62 249.165V288.61M1374.62 249.165H1414.07M1374.62 288.61V328.055M1374.62 288.61H1414.07M1374.62 328.055V367.5M1374.62 328.055H1414.07M1374.62 367.5V406.945M1374.62 367.5H1414.07M1374.62 406.945V446.39M1374.62 406.945H1414.07M1374.62 446.39V485.835M1374.62 446.39H1414.07M1374.62 485.835V525.28M1374.62 485.835H1414.07M1374.62 525.28V564.725M1374.62 525.28H1414.07M1374.62 564.725V604.17M1374.62 564.725H1414.07M1374.62 604.17V643.615M1374.62 604.17H1414.07M1374.62 643.615V683.06M1374.62 643.615H1414.07M1374.62 683.06V722.505M1374.62 683.06H1414.07M1374.62 722.505V761.95M1374.62 722.505H1414.07M1374.62 761.95H1414.07M1414.07 -26.9502V12.4948M1414.07 -26.9502H1453.51M1414.07 12.4948V51.9398M1414.07 12.4948H1453.51M1414.07 51.9398V91.3848M1414.07 51.9398H1453.51M1414.07 91.3848V130.83M1414.07 91.3848H1453.51M1414.07 130.83V170.275M1414.07 130.83H1453.51M1414.07 170.275V209.72M1414.07 170.275H1453.51M1414.07 209.72V249.165M1414.07 209.72H1453.51M1414.07 249.165V288.61M1414.07 249.165H1453.51M1414.07 288.61V328.055M1414.07 288.61H1453.51M1414.07 328.055V367.5M1414.07 328.055H1453.51M1414.07 367.5V406.945M1414.07 367.5H1453.51M1414.07 406.945V446.39M1414.07 406.945H1453.51M1414.07 446.39V485.835M1414.07 446.39H1453.51M1414.07 485.835V525.28M1414.07 485.835H1453.51M1414.07 525.28V564.725M1414.07 525.28H1453.51M1414.07 564.725V604.17M1414.07 564.725H1453.51M1414.07 604.17V643.615M1414.07 604.17H1453.51M1414.07 643.615V683.06M1414.07 643.615H1453.51M1414.07 683.06V722.505M1414.07 683.06H1453.51M1414.07 722.505V761.95M1414.07 722.505H1453.51M1414.07 761.95H1453.51M1453.51 -26.9502V12.4948M1453.51 -26.9502H1492.96M1453.51 12.4948V51.9398M1453.51 12.4948H1492.96M1453.51 51.9398V91.3848M1453.51 51.9398H1492.96M1453.51 91.3848V130.83M1453.51 91.3848H1492.96M1453.51 130.83V170.275M1453.51 130.83H1492.96M1453.51 170.275V209.72M1453.51 170.275H1492.96M1453.51 209.72V249.165M1453.51 209.72H1492.96M1453.51 249.165V288.61M1453.51 249.165H1492.96M1453.51 288.61V328.055M1453.51 288.61H1492.96M1453.51 328.055V367.5M1453.51 328.055H1492.96M1453.51 367.5V406.945M1453.51 367.5H1492.96M1453.51 406.945V446.39M1453.51 406.945H1492.96M1453.51 446.39V485.835M1453.51 446.39H1492.96M1453.51 485.835V525.28M1453.51 485.835H1492.96M1453.51 525.28V564.725M1453.51 525.28H1492.96M1453.51 564.725V604.17M1453.51 564.725H1492.96M1453.51 604.17V643.615M1453.51 604.17H1492.96M1453.51 643.615V683.06M1453.51 643.615H1492.96M1453.51 683.06V722.505M1453.51 683.06H1492.96M1453.51 722.505V761.95M1453.51 722.505H1492.96M1453.51 761.95H1492.96M1492.96 -26.9502V12.4948M1492.96 -26.9502H1532.4M1492.96 12.4948V51.9398M1492.96 12.4948H1532.4M1492.96 51.9398V91.3848M1492.96 51.9398H1532.4M1492.96 91.3848V130.83M1492.96 91.3848H1532.4M1492.96 130.83V170.275M1492.96 130.83H1532.4M1492.96 170.275V209.72M1492.96 170.275H1532.4M1492.96 209.72V249.165M1492.96 209.72H1532.4M1492.96 249.165V288.61M1492.96 249.165H1532.4M1492.96 288.61V328.055M1492.96 288.61H1532.4M1492.96 328.055V367.5M1492.96 328.055H1532.4M1492.96 367.5V406.945M1492.96 367.5H1532.4M1492.96 406.945V446.39M1492.96 406.945H1532.4M1492.96 446.39V485.835M1492.96 446.39H1532.4M1492.96 485.835V525.28M1492.96 485.835H1532.4M1492.96 525.28V564.725M1492.96 525.28H1532.4M1492.96 564.725V604.17M1492.96 564.725H1532.4M1492.96 604.17V643.615M1492.96 604.17H1532.4M1492.96 643.615V683.06M1492.96 643.615H1532.4M1492.96 683.06V722.505M1492.96 683.06H1532.4M1492.96 722.505V761.95M1492.96 722.505H1532.4M1492.96 761.95H1532.4M1532.4 -26.9502V12.4948M1532.4 -26.9502H1571.85M1532.4 12.4948V51.9398M1532.4 12.4948H1571.85M1532.4 51.9398V91.3848M1532.4 51.9398H1571.85M1532.4 91.3848V130.83M1532.4 91.3848H1571.85M1532.4 130.83V170.275M1532.4 130.83H1571.85M1532.4 170.275V209.72M1532.4 170.275H1571.85M1532.4 209.72V249.165M1532.4 209.72H1571.85M1532.4 249.165V288.61M1532.4 249.165H1571.85M1532.4 288.61V328.055M1532.4 288.61H1571.85M1532.4 328.055V367.5M1532.4 328.055H1571.85M1532.4 367.5V406.945M1532.4 367.5H1571.85M1532.4 406.945V446.39M1532.4 406.945H1571.85M1532.4 446.39V485.835M1532.4 446.39H1571.85M1532.4 485.835V525.28M1532.4 485.835H1571.85M1532.4 525.28V564.725M1532.4 525.28H1571.85M1532.4 564.725V604.17M1532.4 564.725H1571.85M1532.4 604.17V643.615M1532.4 604.17H1571.85M1532.4 643.615V683.06M1532.4 643.615H1571.85M1532.4 683.06V722.505M1532.4 683.06H1571.85M1532.4 722.505V761.95M1532.4 722.505H1571.85M1532.4 761.95H1571.85M1571.85 -26.9502V12.4948M1571.85 -26.9502H1611.29M1571.85 12.4948V51.9398M1571.85 12.4948H1611.29M1571.85 51.9398V91.3848M1571.85 51.9398H1611.29M1571.85 91.3848V130.83M1571.85 91.3848H1611.29M1571.85 130.83V170.275M1571.85 130.83H1611.29M1571.85 170.275V209.72M1571.85 170.275H1611.29M1571.85 209.72V249.165M1571.85 209.72H1611.29M1571.85 249.165V288.61M1571.85 249.165H1611.29M1571.85 288.61V328.055M1571.85 288.61H1611.29M1571.85 328.055V367.5M1571.85 328.055H1611.29M1571.85 367.5V406.945M1571.85 367.5H1611.29M1571.85 406.945V446.39M1571.85 406.945H1611.29M1571.85 446.39V485.835M1571.85 446.39H1611.29M1571.85 485.835V525.28M1571.85 485.835H1611.29M1571.85 525.28V564.725M1571.85 525.28H1611.29M1571.85 564.725V604.17M1571.85 564.725H1611.29M1571.85 604.17V643.615M1571.85 604.17H1611.29M1571.85 643.615V683.06M1571.85 643.615H1611.29M1571.85 683.06V722.505M1571.85 683.06H1611.29M1571.85 722.505V761.95M1571.85 722.505H1611.29M1571.85 761.95H1611.29M1611.29 -26.9502V12.4948M1611.29 -26.9502H1650.74M1611.29 12.4948V51.9398M1611.29 12.4948H1650.74M1611.29 51.9398V91.3848M1611.29 51.9398H1650.74M1611.29 91.3848V130.83M1611.29 91.3848H1650.74M1611.29 130.83V170.275M1611.29 130.83H1650.74M1611.29 170.275V209.72M1611.29 170.275H1650.74M1611.29 209.72V249.165M1611.29 209.72H1650.74M1611.29 249.165V288.61M1611.29 249.165H1650.74M1611.29 288.61V328.055M1611.29 288.61H1650.74M1611.29 328.055V367.5M1611.29 328.055H1650.74M1611.29 367.5V406.945M1611.29 367.5H1650.74M1611.29 406.945V446.39M1611.29 406.945H1650.74M1611.29 446.39V485.835M1611.29 446.39H1650.74M1611.29 485.835V525.28M1611.29 485.835H1650.74M1611.29 525.28V564.725M1611.29 525.28H1650.74M1611.29 564.725V604.17M1611.29 564.725H1650.74M1611.29 604.17V643.615M1611.29 604.17H1650.74M1611.29 643.615V683.06M1611.29 643.615H1650.74M1611.29 683.06V722.505M1611.29 683.06H1650.74M1611.29 722.505V761.95M1611.29 722.505H1650.74M1611.29 761.95H1650.74M1650.74 -26.9502V12.4948M1650.74 -26.9502H1690.18M1650.74 12.4948V51.9398M1650.74 12.4948H1690.18M1650.74 51.9398V91.3848M1650.74 51.9398H1690.18M1650.74 91.3848V130.83M1650.74 91.3848H1690.18M1650.74 130.83V170.275M1650.74 130.83H1690.18M1650.74 170.275V209.72M1650.74 170.275H1690.18M1650.74 209.72V249.165M1650.74 209.72H1690.18M1650.74 249.165V288.61M1650.74 249.165H1690.18M1650.74 288.61V328.055M1650.74 288.61H1690.18M1650.74 328.055V367.5M1650.74 328.055H1690.18M1650.74 367.5V406.945M1650.74 367.5H1690.18M1650.74 406.945V446.39M1650.74 406.945H1690.18M1650.74 446.39V485.835M1650.74 446.39H1690.18M1650.74 485.835V525.28M1650.74 485.835H1690.18M1650.74 525.28V564.725M1650.74 525.28H1690.18M1650.74 564.725V604.17M1650.74 564.725H1690.18M1650.74 604.17V643.615M1650.74 604.17H1690.18M1650.74 643.615V683.06M1650.74 643.615H1690.18M1650.74 683.06V722.505M1650.74 683.06H1690.18M1650.74 722.505V761.95M1650.74 722.505H1690.18M1650.74 761.95H1690.18M1690.18 -26.9502V12.4948M1690.18 -26.9502H1729.63M1690.18 12.4948V51.9398M1690.18 12.4948H1729.63M1690.18 51.9398V91.3848M1690.18 51.9398H1729.63M1690.18 91.3848V130.83M1690.18 91.3848H1729.63M1690.18 130.83V170.275M1690.18 130.83H1729.63M1690.18 170.275V209.72M1690.18 170.275H1729.63M1690.18 209.72V249.165M1690.18 209.72H1729.63M1690.18 249.165V288.61M1690.18 249.165H1729.63M1690.18 288.61V328.055M1690.18 288.61H1729.63M1690.18 328.055V367.5M1690.18 328.055H1729.63M1690.18 367.5V406.945M1690.18 367.5H1729.63M1690.18 406.945V446.39M1690.18 406.945H1729.63M1690.18 446.39V485.835M1690.18 446.39H1729.63M1690.18 485.835V525.28M1690.18 485.835H1729.63M1690.18 525.28V564.725M1690.18 525.28H1729.63M1690.18 564.725V604.17M1690.18 564.725H1729.63M1690.18 604.17V643.615M1690.18 604.17H1729.63M1690.18 643.615V683.06M1690.18 643.615H1729.63M1690.18 683.06V722.505M1690.18 683.06H1729.63M1690.18 722.505V761.95M1690.18 722.505H1729.63M1690.18 761.95H1729.63M1729.63 -26.9502V12.4948M1729.63 -26.9502H1769.07M1729.63 12.4948V51.9398M1729.63 12.4948H1769.07M1729.63 51.9398V91.3848M1729.63 51.9398H1769.07M1729.63 91.3848V130.83M1729.63 91.3848H1769.07M1729.63 130.83V170.275M1729.63 130.83H1769.07M1729.63 170.275V209.72M1729.63 170.275H1769.07M1729.63 209.72V249.165M1729.63 209.72H1769.07M1729.63 249.165V288.61M1729.63 249.165H1769.07M1729.63 288.61V328.055M1729.63 288.61H1769.07M1729.63 328.055V367.5M1729.63 328.055H1769.07M1729.63 367.5V406.945M1729.63 367.5H1769.07M1729.63 406.945V446.39M1729.63 406.945H1769.07M1729.63 446.39V485.835M1729.63 446.39H1769.07M1729.63 485.835V525.28M1729.63 485.835H1769.07M1729.63 525.28V564.725M1729.63 525.28H1769.07M1729.63 564.725V604.17M1729.63 564.725H1769.07M1729.63 604.17V643.615M1729.63 604.17H1769.07M1729.63 643.615V683.06M1729.63 643.615H1769.07M1729.63 683.06V722.505M1729.63 683.06H1769.07M1729.63 722.505V761.95M1729.63 722.505H1769.07M1729.63 761.95H1769.07M1769.07 -26.9502V12.4948M1769.07 -26.9502H1808.52M1769.07 12.4948V51.9398M1769.07 12.4948H1808.52M1769.07 51.9398V91.3848M1769.07 51.9398H1808.52M1769.07 91.3848V130.83M1769.07 91.3848H1808.52M1769.07 130.83V170.275M1769.07 130.83H1808.52M1769.07 170.275V209.72M1769.07 170.275H1808.52M1769.07 209.72V249.165M1769.07 209.72H1808.52M1769.07 249.165V288.61M1769.07 249.165H1808.52M1769.07 288.61V328.055M1769.07 288.61H1808.52M1769.07 328.055V367.5M1769.07 328.055H1808.52M1769.07 367.5V406.945M1769.07 367.5H1808.52M1769.07 406.945V446.39M1769.07 406.945H1808.52M1769.07 446.39V485.835M1769.07 446.39H1808.52M1769.07 485.835V525.28M1769.07 485.835H1808.52M1769.07 525.28V564.725M1769.07 525.28H1808.52M1769.07 564.725V604.17M1769.07 564.725H1808.52M1769.07 604.17V643.615M1769.07 604.17H1808.52M1769.07 643.615V683.06M1769.07 643.615H1808.52M1769.07 683.06V722.505M1769.07 683.06H1808.52M1769.07 722.505V761.95M1769.07 722.505H1808.52M1769.07 761.95H1808.52M1808.52 -26.9502V12.4948M1808.52 -26.9502H1847.96M1808.52 12.4948V51.9398M1808.52 12.4948H1847.96M1808.52 51.9398V91.3848M1808.52 51.9398H1847.96M1808.52 91.3848V130.83M1808.52 91.3848H1847.96M1808.52 130.83V170.275M1808.52 130.83H1847.96M1808.52 170.275V209.72M1808.52 170.275H1847.96M1808.52 209.72V249.165M1808.52 209.72H1847.96M1808.52 249.165V288.61M1808.52 249.165H1847.96M1808.52 288.61V328.055M1808.52 288.61H1847.96M1808.52 328.055V367.5M1808.52 328.055H1847.96M1808.52 367.5V406.945M1808.52 367.5H1847.96M1808.52 406.945V446.39M1808.52 406.945H1847.96M1808.52 446.39V485.835M1808.52 446.39H1847.96M1808.52 485.835V525.28M1808.52 485.835H1847.96M1808.52 525.28V564.725M1808.52 525.28H1847.96M1808.52 564.725V604.17M1808.52 564.725H1847.96M1808.52 604.17V643.615M1808.52 604.17H1847.96M1808.52 643.615V683.06M1808.52 643.615H1847.96M1808.52 683.06V722.505M1808.52 683.06H1847.96M1808.52 722.505V761.95M1808.52 722.505H1847.96M1808.52 761.95H1847.96M1847.96 -26.9502V12.4948M1847.96 -26.9502H1887.41M1847.96 12.4948V51.9398M1847.96 12.4948H1887.41M1847.96 51.9398V91.3848M1847.96 51.9398H1887.41M1847.96 91.3848V130.83M1847.96 91.3848H1887.41M1847.96 130.83V170.275M1847.96 130.83H1887.41M1847.96 170.275V209.72M1847.96 170.275H1887.41M1847.96 209.72V249.165M1847.96 209.72H1887.41M1847.96 249.165V288.61M1847.96 249.165H1887.41M1847.96 288.61V328.055M1847.96 288.61H1887.41M1847.96 328.055V367.5M1847.96 328.055H1887.41M1847.96 367.5V406.945M1847.96 367.5H1887.41M1847.96 406.945V446.39M1847.96 406.945H1887.41M1847.96 446.39V485.835M1847.96 446.39H1887.41M1847.96 485.835V525.28M1847.96 485.835H1887.41M1847.96 525.28V564.725M1847.96 525.28H1887.41M1847.96 564.725V604.17M1847.96 564.725H1887.41M1847.96 604.17V643.615M1847.96 604.17H1887.41M1847.96 643.615V683.06M1847.96 643.615H1887.41M1847.96 683.06V722.505M1847.96 683.06H1887.41M1847.96 722.505V761.95M1847.96 722.505H1887.41M1847.96 761.95H1887.41M1887.41 -26.9502V12.4948M1887.41 -26.9502H1926.85M1887.41 12.4948V51.9398M1887.41 12.4948H1926.85M1887.41 51.9398V91.3848M1887.41 51.9398H1926.85M1887.41 91.3848V130.83M1887.41 91.3848H1926.85M1887.41 130.83V170.275M1887.41 130.83H1926.85M1887.41 170.275V209.72M1887.41 170.275H1926.85M1887.41 209.72V249.165M1887.41 209.72H1926.85M1887.41 249.165V288.61M1887.41 249.165H1926.85M1887.41 288.61V328.055M1887.41 288.61H1926.85M1887.41 328.055V367.5M1887.41 328.055H1926.85M1887.41 367.5V406.945M1887.41 367.5H1926.85M1887.41 406.945V446.39M1887.41 406.945H1926.85M1887.41 446.39V485.835M1887.41 446.39H1926.85M1887.41 485.835V525.28M1887.41 485.835H1926.85M1887.41 525.28V564.725M1887.41 525.28H1926.85M1887.41 564.725V604.17M1887.41 564.725H1926.85M1887.41 604.17V643.615M1887.41 604.17H1926.85M1887.41 643.615V683.06M1887.41 643.615H1926.85M1887.41 683.06V722.505M1887.41 683.06H1926.85M1887.41 722.505V761.95M1887.41 722.505H1926.85M1887.41 761.95H1926.85M1926.85 -26.9502V12.4948M1926.85 -26.9502H1966.3M1926.85 12.4948V51.9398M1926.85 12.4948H1966.3M1926.85 51.9398V91.3848M1926.85 51.9398H1966.3M1926.85 91.3848V130.83M1926.85 91.3848H1966.3M1926.85 130.83V170.275M1926.85 130.83H1966.3M1926.85 170.275V209.72M1926.85 170.275H1966.3M1926.85 209.72V249.165M1926.85 209.72H1966.3M1926.85 249.165V288.61M1926.85 249.165H1966.3M1926.85 288.61V328.055M1926.85 288.61H1966.3M1926.85 328.055V367.5M1926.85 328.055H1966.3M1926.85 367.5V406.945M1926.85 367.5H1966.3M1926.85 406.945V446.39M1926.85 406.945H1966.3M1926.85 446.39V485.835M1926.85 446.39H1966.3M1926.85 485.835V525.28M1926.85 485.835H1966.3M1926.85 525.28V564.725M1926.85 525.28H1966.3M1926.85 564.725V604.17M1926.85 564.725H1966.3M1926.85 604.17V643.615M1926.85 604.17H1966.3M1926.85 643.615V683.06M1926.85 643.615H1966.3M1926.85 683.06V722.505M1926.85 683.06H1966.3M1926.85 722.505V761.95M1926.85 722.505H1966.3M1926.85 761.95H1966.3M1966.3 -26.9502V12.4948M1966.3 -26.9502H2005.74M1966.3 12.4948V51.9398M1966.3 12.4948H2005.74M1966.3 51.9398V91.3848M1966.3 51.9398H2005.74M1966.3 91.3848V130.83M1966.3 91.3848H2005.74M1966.3 130.83V170.275M1966.3 130.83H2005.74M1966.3 170.275V209.72M1966.3 170.275H2005.74M1966.3 209.72V249.165M1966.3 209.72H2005.74M1966.3 249.165V288.61M1966.3 249.165H2005.74M1966.3 288.61V328.055M1966.3 288.61H2005.74M1966.3 328.055V367.5M1966.3 328.055H2005.74M1966.3 367.5V406.945M1966.3 367.5H2005.74M1966.3 406.945V446.39M1966.3 406.945H2005.74M1966.3 446.39V485.835M1966.3 446.39H2005.74M1966.3 485.835V525.28M1966.3 485.835H2005.74M1966.3 525.28V564.725M1966.3 525.28H2005.74M1966.3 564.725V604.17M1966.3 564.725H2005.74M1966.3 604.17V643.615M1966.3 604.17H2005.74M1966.3 643.615V683.06M1966.3 643.615H2005.74M1966.3 683.06V722.505M1966.3 683.06H2005.74M1966.3 722.505V761.95M1966.3 722.505H2005.74M1966.3 761.95H2005.74M2005.74 -26.9502V12.4948M2005.74 -26.9502H2045.19M2005.74 12.4948V51.9398M2005.74 12.4948H2045.19M2005.74 51.9398V91.3848M2005.74 51.9398H2045.19M2005.74 91.3848V130.83M2005.74 91.3848H2045.19M2005.74 130.83V170.275M2005.74 130.83H2045.19M2005.74 170.275V209.72M2005.74 170.275H2045.19M2005.74 209.72V249.165M2005.74 209.72H2045.19M2005.74 249.165V288.61M2005.74 249.165H2045.19M2005.74 288.61V328.055M2005.74 288.61H2045.19M2005.74 328.055V367.5M2005.74 328.055H2045.19M2005.74 367.5V406.945M2005.74 367.5H2045.19M2005.74 406.945V446.39M2005.74 406.945H2045.19M2005.74 446.39V485.835M2005.74 446.39H2045.19M2005.74 485.835V525.28M2005.74 485.835H2045.19M2005.74 525.28V564.725M2005.74 525.28H2045.19M2005.74 564.725V604.17M2005.74 564.725H2045.19M2005.74 604.17V643.615M2005.74 604.17H2045.19M2005.74 643.615V683.06M2005.74 643.615H2045.19M2005.74 683.06V722.505M2005.74 683.06H2045.19M2005.74 722.505V761.95M2005.74 722.505H2045.19M2005.74 761.95H2045.19M2045.19 -26.9502V12.4948M2045.19 -26.9502H2084.63M2045.19 12.4948V51.9398M2045.19 12.4948H2084.63M2045.19 51.9398V91.3848M2045.19 51.9398H2084.63M2045.19 91.3848V130.83M2045.19 91.3848H2084.63M2045.19 130.83V170.275M2045.19 130.83H2084.63M2045.19 170.275V209.72M2045.19 170.275H2084.63M2045.19 209.72V249.165M2045.19 209.72H2084.63M2045.19 249.165V288.61M2045.19 249.165H2084.63M2045.19 288.61V328.055M2045.19 288.61H2084.63M2045.19 328.055V367.5M2045.19 328.055H2084.63M2045.19 367.5V406.945M2045.19 367.5H2084.63M2045.19 406.945V446.39M2045.19 406.945H2084.63M2045.19 446.39V485.835M2045.19 446.39H2084.63M2045.19 485.835V525.28M2045.19 485.835H2084.63M2045.19 525.28V564.725M2045.19 525.28H2084.63M2045.19 564.725V604.17M2045.19 564.725H2084.63M2045.19 604.17V643.615M2045.19 604.17H2084.63M2045.19 643.615V683.06M2045.19 643.615H2084.63M2045.19 683.06V722.505M2045.19 683.06H2084.63M2045.19 722.505V761.95M2045.19 722.505H2084.63M2045.19 761.95H2084.63M2084.63 -26.9502V12.4948M2084.63 -26.9502H2124.08M2084.63 12.4948V51.9398M2084.63 12.4948H2124.08M2084.63 51.9398V91.3848M2084.63 51.9398H2124.08M2084.63 91.3848V130.83M2084.63 91.3848H2124.08M2084.63 130.83V170.275M2084.63 130.83H2124.08M2084.63 170.275V209.72M2084.63 170.275H2124.08M2084.63 209.72V249.165M2084.63 209.72H2124.08M2084.63 249.165V288.61M2084.63 249.165H2124.08M2084.63 288.61V328.055M2084.63 288.61H2124.08M2084.63 328.055V367.5M2084.63 328.055H2124.08M2084.63 367.5V406.945M2084.63 367.5H2124.08M2084.63 406.945V446.39M2084.63 406.945H2124.08M2084.63 446.39V485.835M2084.63 446.39H2124.08M2084.63 485.835V525.28M2084.63 485.835H2124.08M2084.63 525.28V564.725M2084.63 525.28H2124.08M2084.63 564.725V604.17M2084.63 564.725H2124.08M2084.63 604.17V643.615M2084.63 604.17H2124.08M2084.63 643.615V683.06M2084.63 643.615H2124.08M2084.63 683.06V722.505M2084.63 683.06H2124.08M2084.63 722.505V761.95M2084.63 722.505H2124.08M2084.63 761.95H2124.08M2124.08 -26.9502V12.4948M2124.08 -26.9502H2163.52M2124.08 12.4948V51.9398M2124.08 12.4948H2163.52M2124.08 51.9398V91.3848M2124.08 51.9398H2163.52M2124.08 91.3848V130.83M2124.08 91.3848H2163.52M2124.08 130.83V170.275M2124.08 130.83H2163.52M2124.08 170.275V209.72M2124.08 170.275H2163.52M2124.08 209.72V249.165M2124.08 209.72H2163.52M2124.08 249.165V288.61M2124.08 249.165H2163.52M2124.08 288.61V328.055M2124.08 288.61H2163.52M2124.08 328.055V367.5M2124.08 328.055H2163.52M2124.08 367.5V406.945M2124.08 367.5H2163.52M2124.08 406.945V446.39M2124.08 406.945H2163.52M2124.08 446.39V485.835M2124.08 446.39H2163.52M2124.08 485.835V525.28M2124.08 485.835H2163.52M2124.08 525.28V564.725M2124.08 525.28H2163.52M2124.08 564.725V604.17M2124.08 564.725H2163.52M2124.08 604.17V643.615M2124.08 604.17H2163.52M2124.08 643.615V683.06M2124.08 643.615H2163.52M2124.08 683.06V722.505M2124.08 683.06H2163.52M2124.08 722.505V761.95M2124.08 722.505H2163.52M2124.08 761.95H2163.52M2163.52 -26.9502V12.4948M2163.52 -26.9502H2202.97M2163.52 12.4948V51.9398M2163.52 12.4948H2202.97M2163.52 51.9398V91.3848M2163.52 51.9398H2202.97M2163.52 91.3848V130.83M2163.52 91.3848H2202.97M2163.52 130.83V170.275M2163.52 130.83H2202.97M2163.52 170.275V209.72M2163.52 170.275H2202.97M2163.52 209.72V249.165M2163.52 209.72H2202.97M2163.52 249.165V288.61M2163.52 249.165H2202.97M2163.52 288.61V328.055M2163.52 288.61H2202.97M2163.52 328.055V367.5M2163.52 328.055H2202.97M2163.52 367.5V406.945M2163.52 367.5H2202.97M2163.52 406.945V446.39M2163.52 406.945H2202.97M2163.52 446.39V485.835M2163.52 446.39H2202.97M2163.52 485.835V525.28M2163.52 485.835H2202.97M2163.52 525.28V564.725M2163.52 525.28H2202.97M2163.52 564.725V604.17M2163.52 564.725H2202.97M2163.52 604.17V643.615M2163.52 604.17H2202.97M2163.52 643.615V683.06M2163.52 643.615H2202.97M2163.52 683.06V722.505M2163.52 683.06H2202.97M2163.52 722.505V761.95M2163.52 722.505H2202.97M2163.52 761.95H2202.97M2202.97 -26.9502V12.4948M2202.97 -26.9502H2242.41V12.4948M2202.97 12.4948V51.9398M2202.97 12.4948H2242.41M2202.97 51.9398V91.3848M2202.97 51.9398H2242.41M2202.97 91.3848V130.83M2202.97 91.3848H2242.41M2202.97 130.83V170.275M2202.97 130.83H2242.41M2202.97 170.275V209.72M2202.97 170.275H2242.41M2202.97 209.72V249.165M2202.97 209.72H2242.41M2202.97 249.165V288.61M2202.97 249.165H2242.41M2202.97 288.61V328.055M2202.97 288.61H2242.41M2202.97 328.055V367.5M2202.97 328.055H2242.41M2202.97 367.5V406.945M2202.97 367.5H2242.41M2202.97 406.945V446.39M2202.97 406.945H2242.41M2202.97 446.39V485.835M2202.97 446.39H2242.41M2202.97 485.835V525.28M2202.97 485.835H2242.41M2202.97 525.28V564.725M2202.97 525.28H2242.41M2202.97 564.725V604.17M2202.97 564.725H2242.41M2202.97 604.17V643.615M2202.97 604.17H2242.41M2202.97 643.615V683.06M2202.97 643.615H2242.41M2202.97 683.06V722.505M2202.97 683.06H2242.41M2202.97 722.505V761.95M2202.97 722.505H2242.41M2202.97 761.95H2242.41V722.505M2242.41 12.4948V51.9398M2242.41 51.9398V91.3848M2242.41 91.3848V130.83M2242.41 130.83V170.275M2242.41 170.275V209.72M2242.41 209.72V249.165M2242.41 249.165V288.61M2242.41 288.61V328.055M2242.41 328.055V367.5M2242.41 367.5V406.945M2242.41 406.945V446.39M2242.41 446.39V485.835M2242.41 485.835V525.28M2242.41 525.28V564.725M2242.41 564.725V604.17M2242.41 604.17V643.615M2242.41 643.615V683.06M2242.41 683.06V722.505" stroke="url(#paint1_radial_1426_6695)" shape-rendering="crispEdges"/>
</g>
</g>
</g>
<defs>
<filter id="filter0_d_1426_6695" x="-839.033" y="-27.4502" width="1744.82" height="798.139" filterUnits="userSpaceOnUse" color-interpolation-filters="sRGB">
<feFlood flood-opacity="0" result="BackgroundImageFix"/>
<feColorMatrix in="SourceAlpha" type="matrix" values="0 0 0 0 0 0 0 0 0 0 0 0 0 0 0 0 0 0 127 0" result="hardAlpha"/>
<feOffset dy="4.11948"/>
<feGaussianBlur stdDeviation="2.05974"/>
<feComposite in2="hardAlpha" operator="out"/>
<feColorMatrix type="matrix" values="0 0 0 0 0 0 0 0 0 0 0 0 0 0 0 0 0 0 0.25 0"/>
<feBlend mode="normal" in2="BackgroundImageFix" result="effect1_dropShadow_1426_6695"/>
<feBlend mode="normal" in="SourceGraphic" in2="effect1_dropShadow_1426_6695" result="shape"/>
</filter>
<filter id="filter1_d_1426_6695" x="502.214" y="-27.4502" width="1744.82" height="798.139" filterUnits="userSpaceOnUse" color-interpolation-filters="sRGB">
<feFlood flood-opacity="0" result="BackgroundImageFix"/>
<feColorMatrix in="SourceAlpha" type="matrix" values="0 0 0 0 0 0 0 0 0 0 0 0 0 0 0 0 0 0 127 0" result="hardAlpha"/>
<feOffset dy="4.11948"/>
<feGaussianBlur stdDeviation="2.05974"/>
<feComposite in2="hardAlpha" operator="out"/>
<feColorMatrix type="matrix" values="0 0 0 0 0 0 0 0 0 0 0 0 0 0 0 0 0 0 0.25 0"/>
<feBlend mode="normal" in2="BackgroundImageFix" result="effect1_dropShadow_1426_6695"/>
<feBlend mode="normal" in="SourceGraphic" in2="effect1_dropShadow_1426_6695" result="shape"/>
</filter>
<radialGradient id="paint0_radial_1426_6695" cx="0" cy="0" r="1" gradientUnits="userSpaceOnUse" gradientTransform="translate(858.5 -107) rotate(132.677) scale(1217.24 2162.47)">
<stop offset="0.0198276" stop-color="white"/>
<stop offset="1" stop-color="white" stop-opacity="0"/>
</radialGradient>
<radialGradient id="paint1_radial_1426_6695" cx="0" cy="0" r="1" gradientUnits="userSpaceOnUse" gradientTransform="translate(549.5 -107) rotate(47.3228) scale(1217.24 2162.47)">
<stop offset="0.0198276" stop-color="white"/>
<stop offset="1" stop-color="white" stop-opacity="0"/>
</radialGradient>
<clipPath id="clip0_1426_6695">
<rect width="1408" height="724" fill="white"/>
</clipPath>
<clipPath id="clip1_1426_6695">
<rect width="704" height="724" fill="white" transform="matrix(-1 0 0 1 704 0)"/>
</clipPath>
<clipPath id="clip2_1426_6695">
<rect width="704" height="724" fill="white" transform="translate(704)"/>
</clipPath>
</defs>
</svg>
