<svg width="1708" height="790" viewBox="0 0 1708 790" fill="none" xmlns="http://www.w3.org/2000/svg">
<g clip-path="url(#clip0_1333_5930)">
<g style="mix-blend-mode:soft-light" opacity="0.56">
<path d="M164.694 153.204V164.694M164.694 164.694V176.184M164.694 164.694H153.204M164.694 164.694H176.185M164.694 459.612V471.102M164.694 471.102V482.592M164.694 471.102H153.204M164.694 471.102H176.185M164.694 766.019V777.51M164.694 777.51V789M164.694 777.51H153.204M164.694 777.51H176.185M471.102 153.204V164.694M471.102 164.694V176.184M471.102 164.694H459.612M471.102 164.694H482.593M471.102 459.612V471.102M471.102 471.102V482.592M471.102 471.102H459.612M471.102 471.102H482.593M471.102 766.019V777.51M471.102 777.51V789M471.102 777.51H459.612M471.102 777.51H482.593M777.51 153.204V164.694M777.51 164.694V176.184M777.51 164.694H766.02M777.51 164.694H789M777.51 459.612V471.102M777.51 471.102V482.592M777.51 471.102H766.02M777.51 471.102H789M777.51 766.019V777.51M777.51 777.51V789M777.51 777.51H766.02M777.51 777.51H789M1083.92 153.204V164.694M1083.92 164.694V176.184M1083.92 164.694H1072.43M1083.92 164.694H1095.41M1083.92 459.612V471.102M1083.92 471.102V482.592M1083.92 471.102H1072.43M1083.92 471.102H1095.41M1083.92 766.019V777.51M1083.92 777.51V789M1083.92 777.51H1072.43M1083.92 777.51H1095.41M1390.33 153.204V164.694M1390.33 164.694V176.184M1390.33 164.694H1378.84M1390.33 164.694H1401.82M1390.33 459.612V471.102M1390.33 471.102V482.592M1390.33 471.102H1378.84M1390.33 471.102H1401.82M1390.33 766.019V777.51M1390.33 777.51V789M1390.33 777.51H1378.84M1390.33 777.51H1401.82M1696.73 153.204V164.694M1696.73 164.694V176.184M1696.73 164.694H1685.24M1696.73 164.694H1708.22M1696.73 459.612V471.102M1696.73 471.102V482.592M1696.73 471.102H1685.24M1696.73 471.102H1708.22M1696.73 766.019V777.51M1696.73 777.51V789M1696.73 777.51H1685.24M1696.73 777.51H1708.22M164.694 0V11.4903M164.694 11.4903V22.9806M164.694 11.4903H153.204M164.694 11.4903H176.185M164.694 306.408V317.898M164.694 317.898V329.388M164.694 317.898H153.204M164.694 317.898H176.185M164.694 612.815V624.306M164.694 624.306V635.796M164.694 624.306H153.204M164.694 624.306H176.185M471.102 0V11.4903M471.102 11.4903V22.9806M471.102 11.4903H459.612M471.102 11.4903H482.593M471.102 306.408V317.898M471.102 317.898V329.388M471.102 317.898H459.612M471.102 317.898H482.593M471.102 612.815V624.306M471.102 624.306V635.796M471.102 624.306H459.612M471.102 624.306H482.593M777.51 0V11.4903M777.51 11.4903V22.9806M777.51 11.4903H766.02M777.51 11.4903H789M777.51 306.408V317.898M777.51 317.898V329.388M777.51 317.898H766.02M777.51 317.898H789M777.51 612.815V624.306M777.51 624.306V635.796M777.51 624.306H766.02M777.51 624.306H789M1083.92 0V11.4903M1083.92 11.4903V22.9806M1083.92 11.4903H1072.43M1083.92 11.4903H1095.41M1083.92 306.408V317.898M1083.92 317.898V329.388M1083.92 317.898H1072.43M1083.92 317.898H1095.41M1083.92 612.815V624.306M1083.92 624.306V635.796M1083.92 624.306H1072.43M1083.92 624.306H1095.41M1390.33 0V11.4903M1390.33 11.4903V22.9806M1390.33 11.4903H1378.84M1390.33 11.4903H1401.82M1390.33 306.408V317.898M1390.33 317.898V329.388M1390.33 317.898H1378.84M1390.33 317.898H1401.82M1390.33 612.815V624.306M1390.33 624.306V635.796M1390.33 624.306H1378.84M1390.33 624.306H1401.82M1696.73 0V11.4903M1696.73 11.4903V22.9806M1696.73 11.4903H1685.24M1696.73 11.4903H1708.22M1696.73 306.408V317.898M1696.73 317.898V329.388M1696.73 317.898H1685.24M1696.73 317.898H1708.22M1696.73 612.815V624.306M1696.73 624.306V635.796M1696.73 624.306H1685.24M1696.73 624.306H1708.22M11.4903 153.204V164.694M11.4903 164.694V176.184M11.4903 164.694H0M11.4903 164.694H22.9806M11.4903 459.612V471.102M11.4903 471.102V482.592M11.4903 471.102H0M11.4903 471.102H22.9806M11.4903 766.019V777.51M11.4903 777.51V789M11.4903 777.51H0M11.4903 777.51H22.9806M317.898 153.204V164.694M317.898 164.694V176.184M317.898 164.694H306.408M317.898 164.694H329.389M317.898 459.612V471.102M317.898 471.102V482.592M317.898 471.102H306.408M317.898 471.102H329.389M317.898 766.019V777.51M317.898 777.51V789M317.898 777.51H306.408M317.898 777.51H329.389M624.306 153.204V164.694M624.306 164.694V176.184M624.306 164.694H612.816M624.306 164.694H635.796M624.306 459.612V471.102M624.306 471.102V482.592M624.306 471.102H612.816M624.306 471.102H635.796M624.306 766.019V777.51M624.306 777.51V789M624.306 777.51H612.816M624.306 777.51H635.796M930.714 153.204V164.694M930.714 164.694V176.184M930.714 164.694H919.224M930.714 164.694H942.204M930.714 459.612V471.102M930.714 471.102V482.592M930.714 471.102H919.224M930.714 471.102H942.204M930.714 766.019V777.51M930.714 777.51V789M930.714 777.51H919.224M930.714 777.51H942.204M1237.12 153.204V164.694M1237.12 164.694V176.184M1237.12 164.694H1225.63M1237.12 164.694H1248.61M1237.12 459.612V471.102M1237.12 471.102V482.592M1237.12 471.102H1225.63M1237.12 471.102H1248.61M1237.12 766.019V777.51M1237.12 777.51V789M1237.12 777.51H1225.63M1237.12 777.51H1248.61M1543.53 153.204V164.694M1543.53 164.694V176.184M1543.53 164.694H1532.04M1543.53 164.694H1555.02M1543.53 459.612V471.102M1543.53 471.102V482.592M1543.53 471.102H1532.04M1543.53 471.102H1555.02M1543.53 766.019V777.51M1543.53 777.51V789M1543.53 777.51H1532.04M1543.53 777.51H1555.02M11.4903 5.64864e-05V11.4904M11.4903 11.4904V22.9806M11.4903 11.4904H0M11.4903 11.4904H22.9806M11.4903 306.408V317.898M11.4903 317.898V329.388M11.4903 317.898H0M11.4903 317.898H22.9806M11.4903 612.815V624.306M11.4903 624.306V635.796M11.4903 624.306H0M11.4903 624.306H22.9806M317.898 0V11.4903M317.898 11.4903V22.9806M317.898 11.4903H306.408M317.898 11.4903H329.389M317.898 306.408V317.898M317.898 317.898V329.388M317.898 317.898H306.408M317.898 317.898H329.389M317.898 612.815V624.306M317.898 624.306V635.796M317.898 624.306H306.408M317.898 624.306H329.389M624.306 0V11.4903M624.306 11.4903V22.9806M624.306 11.4903H612.816M624.306 11.4903H635.796M624.306 306.408V317.898M624.306 317.898V329.388M624.306 317.898H612.816M624.306 317.898H635.796M624.306 612.815V624.306M624.306 624.306V635.796M624.306 624.306H612.816M624.306 624.306H635.796M930.714 0V11.4903M930.714 11.4903V22.9806M930.714 11.4903H919.224M930.714 11.4903H942.204M930.714 306.408V317.898M930.714 317.898V329.388M930.714 317.898H919.224M930.714 317.898H942.204M930.714 612.815V624.306M930.714 624.306V635.796M930.714 624.306H919.224M930.714 624.306H942.204M1237.12 0V11.4903M1237.12 11.4903V22.9806M1237.12 11.4903H1225.63M1237.12 11.4903H1248.61M1237.12 306.408V317.898M1237.12 317.898V329.388M1237.12 317.898H1225.63M1237.12 317.898H1248.61M1237.12 612.815V624.306M1237.12 624.306V635.796M1237.12 624.306H1225.63M1237.12 624.306H1248.61M1543.53 0V11.4903M1543.53 11.4903V22.9806M1543.53 11.4903H1532.04M1543.53 11.4903H1555.02M1543.53 306.408V317.898M1543.53 317.898V329.388M1543.53 317.898H1532.04M1543.53 317.898H1555.02M1543.53 612.815V624.306M1543.53 624.306V635.796M1543.53 624.306H1532.04M1543.53 624.306H1555.02" stroke="url(#paint0_radial_1333_5930)" stroke-width="0.876789"/>
</g>
<g style="mix-blend-mode:soft-light" opacity="0.56" filter="url(#filter0_d_1333_5930)">
<path d="M49.7917 11.4907H11.4907V49.7917M49.7917 11.4907V49.7917M49.7917 11.4907H88.0927M49.7917 49.7917H11.4907M49.7917 49.7917V88.0927M49.7917 49.7917H88.0927M11.4907 49.7917V88.0927M49.7917 88.0927H11.4907M49.7917 88.0927V126.394M49.7917 88.0927H88.0927M11.4907 88.0927V126.394M49.7917 126.394H11.4907M49.7917 126.394V164.695M49.7917 126.394H88.0927M11.4907 126.394V164.695M49.7917 164.695H11.4907M49.7917 164.695V202.996M49.7917 164.695H88.0927M11.4907 164.695V202.996M49.7917 202.996H11.4907M49.7917 202.996V241.297M49.7917 202.996H88.0927M11.4907 202.996V241.297M49.7917 241.297H11.4907M49.7917 241.297V279.598M49.7917 241.297H88.0927M11.4907 241.297V279.598M49.7917 279.598H11.4907M49.7917 279.598V317.899M49.7917 279.598H88.0927M11.4907 279.598V317.899M49.7917 317.899H11.4907M49.7917 317.899V356.2M49.7917 317.899H88.0927M11.4907 317.899V356.2M49.7917 356.2H11.4907M49.7917 356.2V394.501M49.7917 356.2H88.0927M11.4907 356.2V394.501M49.7917 394.501H11.4907M49.7917 394.501V432.801M49.7917 394.501H88.0927M11.4907 394.501V432.801M49.7917 432.801H11.4907M49.7917 432.801V471.102M49.7917 432.801H88.0927M11.4907 432.801V471.102M49.7917 471.102H11.4907M49.7917 471.102V509.403M49.7917 471.102H88.0927M11.4907 471.102V509.403M49.7917 509.403H11.4907M49.7917 509.403V547.704M49.7917 509.403H88.0927M11.4907 509.403V547.704M49.7917 547.704H11.4907M49.7917 547.704V586.005M49.7917 547.704H88.0927M11.4907 547.704V586.005M49.7917 586.005H11.4907M49.7917 586.005V624.306M49.7917 586.005H88.0927M11.4907 586.005V624.306M49.7917 624.306H11.4907M49.7917 624.306V662.607M49.7917 624.306H88.0927M11.4907 624.306V662.607M49.7917 662.607H11.4907M49.7917 662.607V700.908M49.7917 662.607H88.0927M11.4907 662.607V700.908M49.7917 700.908H11.4907M49.7917 700.908V739.209M49.7917 700.908H88.0927M11.4907 700.908V739.209M49.7917 739.209H11.4907M49.7917 739.209V777.51M49.7917 739.209H88.0927M11.4907 739.209V777.51H49.7917M49.7917 777.51H88.0927M88.0927 11.4907V49.7917M88.0927 11.4907H126.394M88.0927 49.7917V88.0927M88.0927 49.7917H126.394M88.0927 88.0927V126.394M88.0927 88.0927H126.394M88.0927 126.394V164.695M88.0927 126.394H126.394M88.0927 164.695V202.996M88.0927 164.695H126.394M88.0927 202.996V241.297M88.0927 202.996H126.394M88.0927 241.297V279.598M88.0927 241.297H126.394M88.0927 279.598V317.899M88.0927 279.598H126.394M88.0927 317.899V356.2M88.0927 317.899H126.394M88.0927 356.2V394.501M88.0927 356.2H126.394M88.0927 394.501V432.801M88.0927 394.501H126.394M88.0927 432.801V471.102M88.0927 432.801H126.394M88.0927 471.102V509.403M88.0927 471.102H126.394M88.0927 509.403V547.704M88.0927 509.403H126.394M88.0927 547.704V586.005M88.0927 547.704H126.394M88.0927 586.005V624.306M88.0927 586.005H126.394M88.0927 624.306V662.607M88.0927 624.306H126.394M88.0927 662.607V700.908M88.0927 662.607H126.394M88.0927 700.908V739.209M88.0927 700.908H126.394M88.0927 739.209V777.51M88.0927 739.209H126.394M88.0927 777.51H126.394M126.394 11.4907V49.7917M126.394 11.4907H164.695M126.394 49.7917V88.0927M126.394 49.7917H164.695M126.394 88.0927V126.394M126.394 88.0927H164.695M126.394 126.394V164.695M126.394 126.394H164.695M126.394 164.695V202.996M126.394 164.695H164.695M126.394 202.996V241.297M126.394 202.996H164.695M126.394 241.297V279.598M126.394 241.297H164.695M126.394 279.598V317.899M126.394 279.598H164.695M126.394 317.899V356.2M126.394 317.899H164.695M126.394 356.2V394.501M126.394 356.2H164.695M126.394 394.501V432.801M126.394 394.501H164.695M126.394 432.801V471.102M126.394 432.801H164.695M126.394 471.102V509.403M126.394 471.102H164.695M126.394 509.403V547.704M126.394 509.403H164.695M126.394 547.704V586.005M126.394 547.704H164.695M126.394 586.005V624.306M126.394 586.005H164.695M126.394 624.306V662.607M126.394 624.306H164.695M126.394 662.607V700.908M126.394 662.607H164.695M126.394 700.908V739.209M126.394 700.908H164.695M126.394 739.209V777.51M126.394 739.209H164.695M126.394 777.51H164.695M164.695 11.4907V49.7917M164.695 11.4907H202.996M164.695 49.7917V88.0927M164.695 49.7917H202.996M164.695 88.0927V126.394M164.695 88.0927H202.996M164.695 126.394V164.695M164.695 126.394H202.996M164.695 164.695V202.996M164.695 164.695H202.996M164.695 202.996V241.297M164.695 202.996H202.996M164.695 241.297V279.598M164.695 241.297H202.996M164.695 279.598V317.899M164.695 279.598H202.996M164.695 317.899V356.2M164.695 317.899H202.996M164.695 356.2V394.501M164.695 356.2H202.996M164.695 394.501V432.801M164.695 394.501H202.996M164.695 432.801V471.102M164.695 432.801H202.996M164.695 471.102V509.403M164.695 471.102H202.996M164.695 509.403V547.704M164.695 509.403H202.996M164.695 547.704V586.005M164.695 547.704H202.996M164.695 586.005V624.306M164.695 586.005H202.996M164.695 624.306V662.607M164.695 624.306H202.996M164.695 662.607V700.908M164.695 662.607H202.996M164.695 700.908V739.209M164.695 700.908H202.996M164.695 739.209V777.51M164.695 739.209H202.996M164.695 777.51H202.996M202.996 11.4907V49.7917M202.996 11.4907H241.297M202.996 49.7917V88.0927M202.996 49.7917H241.297M202.996 88.0927V126.394M202.996 88.0927H241.297M202.996 126.394V164.695M202.996 126.394H241.297M202.996 164.695V202.996M202.996 164.695H241.297M202.996 202.996V241.297M202.996 202.996H241.297M202.996 241.297V279.598M202.996 241.297H241.297M202.996 279.598V317.899M202.996 279.598H241.297M202.996 317.899V356.2M202.996 317.899H241.297M202.996 356.2V394.501M202.996 356.2H241.297M202.996 394.501V432.801M202.996 394.501H241.297M202.996 432.801V471.102M202.996 432.801H241.297M202.996 471.102V509.403M202.996 471.102H241.297M202.996 509.403V547.704M202.996 509.403H241.297M202.996 547.704V586.005M202.996 547.704H241.297M202.996 586.005V624.306M202.996 586.005H241.297M202.996 624.306V662.607M202.996 624.306H241.297M202.996 662.607V700.908M202.996 662.607H241.297M202.996 700.908V739.209M202.996 700.908H241.297M202.996 739.209V777.51M202.996 739.209H241.297M202.996 777.51H241.297M241.297 11.4907V49.7917M241.297 11.4907H279.598M241.297 49.7917V88.0927M241.297 49.7917H279.598M241.297 88.0927V126.394M241.297 88.0927H279.598M241.297 126.394V164.695M241.297 126.394H279.598M241.297 164.695V202.996M241.297 164.695H279.598M241.297 202.996V241.297M241.297 202.996H279.598M241.297 241.297V279.598M241.297 241.297H279.598M241.297 279.598V317.899M241.297 279.598H279.598M241.297 317.899V356.2M241.297 317.899H279.598M241.297 356.2V394.501M241.297 356.2H279.598M241.297 394.501V432.801M241.297 394.501H279.598M241.297 432.801V471.102M241.297 432.801H279.598M241.297 471.102V509.403M241.297 471.102H279.598M241.297 509.403V547.704M241.297 509.403H279.598M241.297 547.704V586.005M241.297 547.704H279.598M241.297 586.005V624.306M241.297 586.005H279.598M241.297 624.306V662.607M241.297 624.306H279.598M241.297 662.607V700.908M241.297 662.607H279.598M241.297 700.908V739.209M241.297 700.908H279.598M241.297 739.209V777.51M241.297 739.209H279.598M241.297 777.51H279.598M279.598 11.4907V49.7917M279.598 11.4907H317.899M279.598 49.7917V88.0927M279.598 49.7917H317.899M279.598 88.0927V126.394M279.598 88.0927H317.899M279.598 126.394V164.695M279.598 126.394H317.899M279.598 164.695V202.996M279.598 164.695H317.899M279.598 202.996V241.297M279.598 202.996H317.899M279.598 241.297V279.598M279.598 241.297H317.899M279.598 279.598V317.899M279.598 279.598H317.899M279.598 317.899V356.2M279.598 317.899H317.899M279.598 356.2V394.501M279.598 356.2H317.899M279.598 394.501V432.801M279.598 394.501H317.899M279.598 432.801V471.102M279.598 432.801H317.899M279.598 471.102V509.403M279.598 471.102H317.899M279.598 509.403V547.704M279.598 509.403H317.899M279.598 547.704V586.005M279.598 547.704H317.899M279.598 586.005V624.306M279.598 586.005H317.899M279.598 624.306V662.607M279.598 624.306H317.899M279.598 662.607V700.908M279.598 662.607H317.899M279.598 700.908V739.209M279.598 700.908H317.899M279.598 739.209V777.51M279.598 739.209H317.899M279.598 777.51H317.899M317.899 11.4907V49.7917M317.899 11.4907H356.2M317.899 49.7917V88.0927M317.899 49.7917H356.2M317.899 88.0927V126.394M317.899 88.0927H356.2M317.899 126.394V164.695M317.899 126.394H356.2M317.899 164.695V202.996M317.899 164.695H356.2M317.899 202.996V241.297M317.899 202.996H356.2M317.899 241.297V279.598M317.899 241.297H356.2M317.899 279.598V317.899M317.899 279.598H356.2M317.899 317.899V356.2M317.899 317.899H356.2M317.899 356.2V394.501M317.899 356.2H356.2M317.899 394.501V432.801M317.899 394.501H356.2M317.899 432.801V471.102M317.899 432.801H356.2M317.899 471.102V509.403M317.899 471.102H356.2M317.899 509.403V547.704M317.899 509.403H356.2M317.899 547.704V586.005M317.899 547.704H356.2M317.899 586.005V624.306M317.899 586.005H356.2M317.899 624.306V662.607M317.899 624.306H356.2M317.899 662.607V700.908M317.899 662.607H356.2M317.899 700.908V739.209M317.899 700.908H356.2M317.899 739.209V777.51M317.899 739.209H356.2M317.899 777.51H356.2M356.2 11.4907V49.7917M356.2 11.4907H394.501M356.2 49.7917V88.0927M356.2 49.7917H394.501M356.2 88.0927V126.394M356.2 88.0927H394.501M356.2 126.394V164.695M356.2 126.394H394.501M356.2 164.695V202.996M356.2 164.695H394.501M356.2 202.996V241.297M356.2 202.996H394.501M356.2 241.297V279.598M356.2 241.297H394.501M356.2 279.598V317.899M356.2 279.598H394.501M356.2 317.899V356.2M356.2 317.899H394.501M356.2 356.2V394.501M356.2 356.2H394.501M356.2 394.501V432.801M356.2 394.501H394.501M356.2 432.801V471.102M356.2 432.801H394.501M356.2 471.102V509.403M356.2 471.102H394.501M356.2 509.403V547.704M356.2 509.403H394.501M356.2 547.704V586.005M356.2 547.704H394.501M356.2 586.005V624.306M356.2 586.005H394.501M356.2 624.306V662.607M356.2 624.306H394.501M356.2 662.607V700.908M356.2 662.607H394.501M356.2 700.908V739.209M356.2 700.908H394.501M356.2 739.209V777.51M356.2 739.209H394.501M356.2 777.51H394.501M394.501 11.4907V49.7917M394.501 11.4907H432.802M394.501 49.7917V88.0927M394.501 49.7917H432.802M394.501 88.0927V126.394M394.501 88.0927H432.802M394.501 126.394V164.695M394.501 126.394H432.802M394.501 164.695V202.996M394.501 164.695H432.802M394.501 202.996V241.297M394.501 202.996H432.802M394.501 241.297V279.598M394.501 241.297H432.802M394.501 279.598V317.899M394.501 279.598H432.802M394.501 317.899V356.2M394.501 317.899H432.802M394.501 356.2V394.501M394.501 356.2H432.802M394.501 394.501V432.801M394.501 394.501H432.802M394.501 432.801V471.102M394.501 432.801H432.802M394.501 471.102V509.403M394.501 471.102H432.802M394.501 509.403V547.704M394.501 509.403H432.802M394.501 547.704V586.005M394.501 547.704H432.802M394.501 586.005V624.306M394.501 586.005H432.802M394.501 624.306V662.607M394.501 624.306H432.802M394.501 662.607V700.908M394.501 662.607H432.802M394.501 700.908V739.209M394.501 700.908H432.802M394.501 739.209V777.51M394.501 739.209H432.802M394.501 777.51H432.802M432.802 11.4907V49.7917M432.802 11.4907H471.103M432.802 49.7917V88.0927M432.802 49.7917H471.103M432.802 88.0927V126.394M432.802 88.0927H471.103M432.802 126.394V164.695M432.802 126.394H471.103M432.802 164.695V202.996M432.802 164.695H471.103M432.802 202.996V241.297M432.802 202.996H471.103M432.802 241.297V279.598M432.802 241.297H471.103M432.802 279.598V317.899M432.802 279.598H471.103M432.802 317.899V356.2M432.802 317.899H471.103M432.802 356.2V394.501M432.802 356.2H471.103M432.802 394.501V432.801M432.802 394.501H471.103M432.802 432.801V471.102M432.802 432.801H471.103M432.802 471.102V509.403M432.802 471.102H471.103M432.802 509.403V547.704M432.802 509.403H471.103M432.802 547.704V586.005M432.802 547.704H471.103M432.802 586.005V624.306M432.802 586.005H471.103M432.802 624.306V662.607M432.802 624.306H471.103M432.802 662.607V700.908M432.802 662.607H471.103M432.802 700.908V739.209M432.802 700.908H471.103M432.802 739.209V777.51M432.802 739.209H471.103M432.802 777.51H471.103M471.103 11.4907V49.7917M471.103 11.4907H509.404M471.103 49.7917V88.0927M471.103 49.7917H509.404M471.103 88.0927V126.394M471.103 88.0927H509.404M471.103 126.394V164.695M471.103 126.394H509.404M471.103 164.695V202.996M471.103 164.695H509.404M471.103 202.996V241.297M471.103 202.996H509.404M471.103 241.297V279.598M471.103 241.297H509.404M471.103 279.598V317.899M471.103 279.598H509.404M471.103 317.899V356.2M471.103 317.899H509.404M471.103 356.2V394.501M471.103 356.2H509.404M471.103 394.501V432.801M471.103 394.501H509.404M471.103 432.801V471.102M471.103 432.801H509.404M471.103 471.102V509.403M471.103 471.102H509.404M471.103 509.403V547.704M471.103 509.403H509.404M471.103 547.704V586.005M471.103 547.704H509.404M471.103 586.005V624.306M471.103 586.005H509.404M471.103 624.306V662.607M471.103 624.306H509.404M471.103 662.607V700.908M471.103 662.607H509.404M471.103 700.908V739.209M471.103 700.908H509.404M471.103 739.209V777.51M471.103 739.209H509.404M471.103 777.51H509.404M509.404 11.4907V49.7917M509.404 11.4907H547.705M509.404 49.7917V88.0927M509.404 49.7917H547.705M509.404 88.0927V126.394M509.404 88.0927H547.705M509.404 126.394V164.695M509.404 126.394H547.705M509.404 164.695V202.996M509.404 164.695H547.705M509.404 202.996V241.297M509.404 202.996H547.705M509.404 241.297V279.598M509.404 241.297H547.705M509.404 279.598V317.899M509.404 279.598H547.705M509.404 317.899V356.2M509.404 317.899H547.705M509.404 356.2V394.501M509.404 356.2H547.705M509.404 394.501V432.801M509.404 394.501H547.705M509.404 432.801V471.102M509.404 432.801H547.705M509.404 471.102V509.403M509.404 471.102H547.705M509.404 509.403V547.704M509.404 509.403H547.705M509.404 547.704V586.005M509.404 547.704H547.705M509.404 586.005V624.306M509.404 586.005H547.705M509.404 624.306V662.607M509.404 624.306H547.705M509.404 662.607V700.908M509.404 662.607H547.705M509.404 700.908V739.209M509.404 700.908H547.705M509.404 739.209V777.51M509.404 739.209H547.705M509.404 777.51H547.705M547.705 11.4907V49.7917M547.705 11.4907H586.006M547.705 49.7917V88.0927M547.705 49.7917H586.006M547.705 88.0927V126.394M547.705 88.0927H586.006M547.705 126.394V164.695M547.705 126.394H586.006M547.705 164.695V202.996M547.705 164.695H586.006M547.705 202.996V241.297M547.705 202.996H586.006M547.705 241.297V279.598M547.705 241.297H586.006M547.705 279.598V317.899M547.705 279.598H586.006M547.705 317.899V356.2M547.705 317.899H586.006M547.705 356.2V394.501M547.705 356.2H586.006M547.705 394.501V432.801M547.705 394.501H586.006M547.705 432.801V471.102M547.705 432.801H586.006M547.705 471.102V509.403M547.705 471.102H586.006M547.705 509.403V547.704M547.705 509.403H586.006M547.705 547.704V586.005M547.705 547.704H586.006M547.705 586.005V624.306M547.705 586.005H586.006M547.705 624.306V662.607M547.705 624.306H586.006M547.705 662.607V700.908M547.705 662.607H586.006M547.705 700.908V739.209M547.705 700.908H586.006M547.705 739.209V777.51M547.705 739.209H586.006M547.705 777.51H586.006M586.006 11.4907V49.7917M586.006 11.4907H624.307M586.006 49.7917V88.0927M586.006 49.7917H624.307M586.006 88.0927V126.394M586.006 88.0927H624.307M586.006 126.394V164.695M586.006 126.394H624.307M586.006 164.695V202.996M586.006 164.695H624.307M586.006 202.996V241.297M586.006 202.996H624.307M586.006 241.297V279.598M586.006 241.297H624.307M586.006 279.598V317.899M586.006 279.598H624.307M586.006 317.899V356.2M586.006 317.899H624.307M586.006 356.2V394.501M586.006 356.2H624.307M586.006 394.501V432.801M586.006 394.501H624.307M586.006 432.801V471.102M586.006 432.801H624.307M586.006 471.102V509.403M586.006 471.102H624.307M586.006 509.403V547.704M586.006 509.403H624.307M586.006 547.704V586.005M586.006 547.704H624.307M586.006 586.005V624.306M586.006 586.005H624.307M586.006 624.306V662.607M586.006 624.306H624.307M586.006 662.607V700.908M586.006 662.607H624.307M586.006 700.908V739.209M586.006 700.908H624.307M586.006 739.209V777.51M586.006 739.209H624.307M586.006 777.51H624.307M624.307 11.4907V49.7917M624.307 11.4907H662.607M624.307 49.7917V88.0927M624.307 49.7917H662.607M624.307 88.0927V126.394M624.307 88.0927H662.607M624.307 126.394V164.695M624.307 126.394H662.607M624.307 164.695V202.996M624.307 164.695H662.607M624.307 202.996V241.297M624.307 202.996H662.607M624.307 241.297V279.598M624.307 241.297H662.607M624.307 279.598V317.899M624.307 279.598H662.607M624.307 317.899V356.2M624.307 317.899H662.607M624.307 356.2V394.501M624.307 356.2H662.607M624.307 394.501V432.801M624.307 394.501H662.607M624.307 432.801V471.102M624.307 432.801H662.607M624.307 471.102V509.403M624.307 471.102H662.607M624.307 509.403V547.704M624.307 509.403H662.607M624.307 547.704V586.005M624.307 547.704H662.607M624.307 586.005V624.306M624.307 586.005H662.607M624.307 624.306V662.607M624.307 624.306H662.607M624.307 662.607V700.908M624.307 662.607H662.607M624.307 700.908V739.209M624.307 700.908H662.607M624.307 739.209V777.51M624.307 739.209H662.607M624.307 777.51H662.607M662.607 11.4907V49.7917M662.607 11.4907H700.908M662.607 49.7917V88.0927M662.607 49.7917H700.908M662.607 88.0927V126.394M662.607 88.0927H700.908M662.607 126.394V164.695M662.607 126.394H700.908M662.607 164.695V202.996M662.607 164.695H700.908M662.607 202.996V241.297M662.607 202.996H700.908M662.607 241.297V279.598M662.607 241.297H700.908M662.607 279.598V317.899M662.607 279.598H700.908M662.607 317.899V356.2M662.607 317.899H700.908M662.607 356.2V394.501M662.607 356.2H700.908M662.607 394.501V432.801M662.607 394.501H700.908M662.607 432.801V471.102M662.607 432.801H700.908M662.607 471.102V509.403M662.607 471.102H700.908M662.607 509.403V547.704M662.607 509.403H700.908M662.607 547.704V586.005M662.607 547.704H700.908M662.607 586.005V624.306M662.607 586.005H700.908M662.607 624.306V662.607M662.607 624.306H700.908M662.607 662.607V700.908M662.607 662.607H700.908M662.607 700.908V739.209M662.607 700.908H700.908M662.607 739.209V777.51M662.607 739.209H700.908M662.607 777.51H700.908M700.908 11.4907V49.7917M700.908 11.4907H739.209M700.908 49.7917V88.0927M700.908 49.7917H739.209M700.908 88.0927V126.394M700.908 88.0927H739.209M700.908 126.394V164.695M700.908 126.394H739.209M700.908 164.695V202.996M700.908 164.695H739.209M700.908 202.996V241.297M700.908 202.996H739.209M700.908 241.297V279.598M700.908 241.297H739.209M700.908 279.598V317.899M700.908 279.598H739.209M700.908 317.899V356.2M700.908 317.899H739.209M700.908 356.2V394.501M700.908 356.2H739.209M700.908 394.501V432.801M700.908 394.501H739.209M700.908 432.801V471.102M700.908 432.801H739.209M700.908 471.102V509.403M700.908 471.102H739.209M700.908 509.403V547.704M700.908 509.403H739.209M700.908 547.704V586.005M700.908 547.704H739.209M700.908 586.005V624.306M700.908 586.005H739.209M700.908 624.306V662.607M700.908 624.306H739.209M700.908 662.607V700.908M700.908 662.607H739.209M700.908 700.908V739.209M700.908 700.908H739.209M700.908 739.209V777.51M700.908 739.209H739.209M700.908 777.51H739.209M739.209 11.4907V49.7917M739.209 11.4907H777.51M739.209 49.7917V88.0927M739.209 49.7917H777.51M739.209 88.0927V126.394M739.209 88.0927H777.51M739.209 126.394V164.695M739.209 126.394H777.51M739.209 164.695V202.996M739.209 164.695H777.51M739.209 202.996V241.297M739.209 202.996H777.51M739.209 241.297V279.598M739.209 241.297H777.51M739.209 279.598V317.899M739.209 279.598H777.51M739.209 317.899V356.2M739.209 317.899H777.51M739.209 356.2V394.501M739.209 356.2H777.51M739.209 394.501V432.801M739.209 394.501H777.51M739.209 432.801V471.102M739.209 432.801H777.51M739.209 471.102V509.403M739.209 471.102H777.51M739.209 509.403V547.704M739.209 509.403H777.51M739.209 547.704V586.005M739.209 547.704H777.51M739.209 586.005V624.306M739.209 586.005H777.51M739.209 624.306V662.607M739.209 624.306H777.51M739.209 662.607V700.908M739.209 662.607H777.51M739.209 700.908V739.209M739.209 700.908H777.51M739.209 739.209V777.51M739.209 739.209H777.51M739.209 777.51H777.51M777.51 11.4907V49.7917M777.51 11.4907H815.811M777.51 49.7917V88.0927M777.51 49.7917H815.811M777.51 88.0927V126.394M777.51 88.0927H815.811M777.51 126.394V164.695M777.51 126.394H815.811M777.51 164.695V202.996M777.51 164.695H815.811M777.51 202.996V241.297M777.51 202.996H815.811M777.51 241.297V279.598M777.51 241.297H815.811M777.51 279.598V317.899M777.51 279.598H815.811M777.51 317.899V356.2M777.51 317.899H815.811M777.51 356.2V394.501M777.51 356.2H815.811M777.51 394.501V432.801M777.51 394.501H815.811M777.51 432.801V471.102M777.51 432.801H815.811M777.51 471.102V509.403M777.51 471.102H815.811M777.51 509.403V547.704M777.51 509.403H815.811M777.51 547.704V586.005M777.51 547.704H815.811M777.51 586.005V624.306M777.51 586.005H815.811M777.51 624.306V662.607M777.51 624.306H815.811M777.51 662.607V700.908M777.51 662.607H815.811M777.51 700.908V739.209M777.51 700.908H815.811M777.51 739.209V777.51M777.51 739.209H815.811M777.51 777.51H815.811M815.811 11.4907V49.7917M815.811 11.4907H854.112M815.811 49.7917V88.0927M815.811 49.7917H854.112M815.811 88.0927V126.394M815.811 88.0927H854.112M815.811 126.394V164.695M815.811 126.394H854.112M815.811 164.695V202.996M815.811 164.695H854.112M815.811 202.996V241.297M815.811 202.996H854.112M815.811 241.297V279.598M815.811 241.297H854.112M815.811 279.598V317.899M815.811 279.598H854.112M815.811 317.899V356.2M815.811 317.899H854.112M815.811 356.2V394.501M815.811 356.2H854.112M815.811 394.501V432.801M815.811 394.501H854.112M815.811 432.801V471.102M815.811 432.801H854.112M815.811 471.102V509.403M815.811 471.102H854.112M815.811 509.403V547.704M815.811 509.403H854.112M815.811 547.704V586.005M815.811 547.704H854.112M815.811 586.005V624.306M815.811 586.005H854.112M815.811 624.306V662.607M815.811 624.306H854.112M815.811 662.607V700.908M815.811 662.607H854.112M815.811 700.908V739.209M815.811 700.908H854.112M815.811 739.209V777.51M815.811 739.209H854.112M815.811 777.51H854.112M854.112 11.4907V49.7917M854.112 11.4907H892.413M854.112 49.7917V88.0927M854.112 49.7917H892.413M854.112 88.0927V126.394M854.112 88.0927H892.413M854.112 126.394V164.695M854.112 126.394H892.413M854.112 164.695V202.996M854.112 164.695H892.413M854.112 202.996V241.297M854.112 202.996H892.413M854.112 241.297V279.598M854.112 241.297H892.413M854.112 279.598V317.899M854.112 279.598H892.413M854.112 317.899V356.2M854.112 317.899H892.413M854.112 356.2V394.501M854.112 356.2H892.413M854.112 394.501V432.801M854.112 394.501H892.413M854.112 432.801V471.102M854.112 432.801H892.413M854.112 471.102V509.403M854.112 471.102H892.413M854.112 509.403V547.704M854.112 509.403H892.413M854.112 547.704V586.005M854.112 547.704H892.413M854.112 586.005V624.306M854.112 586.005H892.413M854.112 624.306V662.607M854.112 624.306H892.413M854.112 662.607V700.908M854.112 662.607H892.413M854.112 700.908V739.209M854.112 700.908H892.413M854.112 739.209V777.51M854.112 739.209H892.413M854.112 777.51H892.413M892.413 11.4907V49.7917M892.413 11.4907H930.714M892.413 49.7917V88.0927M892.413 49.7917H930.714M892.413 88.0927V126.394M892.413 88.0927H930.714M892.413 126.394V164.695M892.413 126.394H930.714M892.413 164.695V202.996M892.413 164.695H930.714M892.413 202.996V241.297M892.413 202.996H930.714M892.413 241.297V279.598M892.413 241.297H930.714M892.413 279.598V317.899M892.413 279.598H930.714M892.413 317.899V356.2M892.413 317.899H930.714M892.413 356.2V394.501M892.413 356.2H930.714M892.413 394.501V432.801M892.413 394.501H930.714M892.413 432.801V471.102M892.413 432.801H930.714M892.413 471.102V509.403M892.413 471.102H930.714M892.413 509.403V547.704M892.413 509.403H930.714M892.413 547.704V586.005M892.413 547.704H930.714M892.413 586.005V624.306M892.413 586.005H930.714M892.413 624.306V662.607M892.413 624.306H930.714M892.413 662.607V700.908M892.413 662.607H930.714M892.413 700.908V739.209M892.413 700.908H930.714M892.413 739.209V777.51M892.413 739.209H930.714M892.413 777.51H930.714M930.714 11.4907V49.7917M930.714 11.4907H969.015M930.714 49.7917V88.0927M930.714 49.7917H969.015M930.714 88.0927V126.394M930.714 88.0927H969.015M930.714 126.394V164.695M930.714 126.394H969.015M930.714 164.695V202.996M930.714 164.695H969.015M930.714 202.996V241.297M930.714 202.996H969.015M930.714 241.297V279.598M930.714 241.297H969.015M930.714 279.598V317.899M930.714 279.598H969.015M930.714 317.899V356.2M930.714 317.899H969.015M930.714 356.2V394.501M930.714 356.2H969.015M930.714 394.501V432.801M930.714 394.501H969.015M930.714 432.801V471.102M930.714 432.801H969.015M930.714 471.102V509.403M930.714 471.102H969.015M930.714 509.403V547.704M930.714 509.403H969.015M930.714 547.704V586.005M930.714 547.704H969.015M930.714 586.005V624.306M930.714 586.005H969.015M930.714 624.306V662.607M930.714 624.306H969.015M930.714 662.607V700.908M930.714 662.607H969.015M930.714 700.908V739.209M930.714 700.908H969.015M930.714 739.209V777.51M930.714 739.209H969.015M930.714 777.51H969.015M969.015 11.4907V49.7917M969.015 11.4907H1007.32M969.015 49.7917V88.0927M969.015 49.7917H1007.32M969.015 88.0927V126.394M969.015 88.0927H1007.32M969.015 126.394V164.695M969.015 126.394H1007.32M969.015 164.695V202.996M969.015 164.695H1007.32M969.015 202.996V241.297M969.015 202.996H1007.32M969.015 241.297V279.598M969.015 241.297H1007.32M969.015 279.598V317.899M969.015 279.598H1007.32M969.015 317.899V356.2M969.015 317.899H1007.32M969.015 356.2V394.501M969.015 356.2H1007.32M969.015 394.501V432.801M969.015 394.501H1007.32M969.015 432.801V471.102M969.015 432.801H1007.32M969.015 471.102V509.403M969.015 471.102H1007.32M969.015 509.403V547.704M969.015 509.403H1007.32M969.015 547.704V586.005M969.015 547.704H1007.32M969.015 586.005V624.306M969.015 586.005H1007.32M969.015 624.306V662.607M969.015 624.306H1007.32M969.015 662.607V700.908M969.015 662.607H1007.32M969.015 700.908V739.209M969.015 700.908H1007.32M969.015 739.209V777.51M969.015 739.209H1007.32M969.015 777.51H1007.32M1007.32 11.4907V49.7917M1007.32 11.4907H1045.62M1007.32 49.7917V88.0927M1007.32 49.7917H1045.62M1007.32 88.0927V126.394M1007.32 88.0927H1045.62M1007.32 126.394V164.695M1007.32 126.394H1045.62M1007.32 164.695V202.996M1007.32 164.695H1045.62M1007.32 202.996V241.297M1007.32 202.996H1045.62M1007.32 241.297V279.598M1007.32 241.297H1045.62M1007.32 279.598V317.899M1007.32 279.598H1045.62M1007.32 317.899V356.2M1007.32 317.899H1045.62M1007.32 356.2V394.501M1007.32 356.2H1045.62M1007.32 394.501V432.801M1007.32 394.501H1045.62M1007.32 432.801V471.102M1007.32 432.801H1045.62M1007.32 471.102V509.403M1007.32 471.102H1045.62M1007.32 509.403V547.704M1007.32 509.403H1045.62M1007.32 547.704V586.005M1007.32 547.704H1045.62M1007.32 586.005V624.306M1007.32 586.005H1045.62M1007.32 624.306V662.607M1007.32 624.306H1045.62M1007.32 662.607V700.908M1007.32 662.607H1045.62M1007.32 700.908V739.209M1007.32 700.908H1045.62M1007.32 739.209V777.51M1007.32 739.209H1045.62M1007.32 777.51H1045.62M1045.62 11.4907V49.7917M1045.62 11.4907H1083.92M1045.62 49.7917V88.0927M1045.62 49.7917H1083.92M1045.62 88.0927V126.394M1045.62 88.0927H1083.92M1045.62 126.394V164.695M1045.62 126.394H1083.92M1045.62 164.695V202.996M1045.62 164.695H1083.92M1045.62 202.996V241.297M1045.62 202.996H1083.92M1045.62 241.297V279.598M1045.62 241.297H1083.92M1045.62 279.598V317.899M1045.62 279.598H1083.92M1045.62 317.899V356.2M1045.62 317.899H1083.92M1045.62 356.2V394.501M1045.62 356.2H1083.92M1045.62 394.501V432.801M1045.62 394.501H1083.92M1045.62 432.801V471.102M1045.62 432.801H1083.92M1045.62 471.102V509.403M1045.62 471.102H1083.92M1045.62 509.403V547.704M1045.62 509.403H1083.92M1045.62 547.704V586.005M1045.62 547.704H1083.92M1045.62 586.005V624.306M1045.62 586.005H1083.92M1045.62 624.306V662.607M1045.62 624.306H1083.92M1045.62 662.607V700.908M1045.62 662.607H1083.92M1045.62 700.908V739.209M1045.62 700.908H1083.92M1045.62 739.209V777.51M1045.62 739.209H1083.92M1045.62 777.51H1083.92M1083.92 11.4907V49.7917M1083.92 11.4907H1122.22M1083.92 49.7917V88.0927M1083.92 49.7917H1122.22M1083.92 88.0927V126.394M1083.92 88.0927H1122.22M1083.92 126.394V164.695M1083.92 126.394H1122.22M1083.92 164.695V202.996M1083.92 164.695H1122.22M1083.92 202.996V241.297M1083.92 202.996H1122.22M1083.92 241.297V279.598M1083.92 241.297H1122.22M1083.92 279.598V317.899M1083.92 279.598H1122.22M1083.92 317.899V356.2M1083.92 317.899H1122.22M1083.92 356.2V394.501M1083.92 356.2H1122.22M1083.92 394.501V432.801M1083.92 394.501H1122.22M1083.92 432.801V471.102M1083.92 432.801H1122.22M1083.92 471.102V509.403M1083.92 471.102H1122.22M1083.92 509.403V547.704M1083.92 509.403H1122.22M1083.92 547.704V586.005M1083.92 547.704H1122.22M1083.92 586.005V624.306M1083.92 586.005H1122.22M1083.92 624.306V662.607M1083.92 624.306H1122.22M1083.92 662.607V700.908M1083.92 662.607H1122.22M1083.92 700.908V739.209M1083.92 700.908H1122.22M1083.92 739.209V777.51M1083.92 739.209H1122.22M1083.92 777.51H1122.22M1122.22 11.4907V49.7917M1122.22 11.4907H1160.52M1122.22 49.7917V88.0927M1122.22 49.7917H1160.52M1122.22 88.0927V126.394M1122.22 88.0927H1160.52M1122.22 126.394V164.695M1122.22 126.394H1160.52M1122.22 164.695V202.996M1122.22 164.695H1160.52M1122.22 202.996V241.297M1122.22 202.996H1160.52M1122.22 241.297V279.598M1122.22 241.297H1160.52M1122.22 279.598V317.899M1122.22 279.598H1160.52M1122.22 317.899V356.2M1122.22 317.899H1160.52M1122.22 356.2V394.501M1122.22 356.2H1160.52M1122.22 394.501V432.801M1122.22 394.501H1160.52M1122.22 432.801V471.102M1122.22 432.801H1160.52M1122.22 471.102V509.403M1122.22 471.102H1160.52M1122.22 509.403V547.704M1122.22 509.403H1160.52M1122.22 547.704V586.005M1122.22 547.704H1160.52M1122.22 586.005V624.306M1122.22 586.005H1160.52M1122.22 624.306V662.607M1122.22 624.306H1160.52M1122.22 662.607V700.908M1122.22 662.607H1160.52M1122.22 700.908V739.209M1122.22 700.908H1160.52M1122.22 739.209V777.51M1122.22 739.209H1160.52M1122.22 777.51H1160.52M1160.52 11.4907V49.7917M1160.52 11.4907H1198.82M1160.52 49.7917V88.0927M1160.52 49.7917H1198.82M1160.52 88.0927V126.394M1160.52 88.0927H1198.82M1160.52 126.394V164.695M1160.52 126.394H1198.82M1160.52 164.695V202.996M1160.52 164.695H1198.82M1160.52 202.996V241.297M1160.52 202.996H1198.82M1160.52 241.297V279.598M1160.52 241.297H1198.82M1160.52 279.598V317.899M1160.52 279.598H1198.82M1160.52 317.899V356.2M1160.52 317.899H1198.82M1160.52 356.2V394.501M1160.52 356.2H1198.82M1160.52 394.501V432.801M1160.52 394.501H1198.82M1160.52 432.801V471.102M1160.52 432.801H1198.82M1160.52 471.102V509.403M1160.52 471.102H1198.82M1160.52 509.403V547.704M1160.52 509.403H1198.82M1160.52 547.704V586.005M1160.52 547.704H1198.82M1160.52 586.005V624.306M1160.52 586.005H1198.82M1160.52 624.306V662.607M1160.52 624.306H1198.82M1160.52 662.607V700.908M1160.52 662.607H1198.82M1160.52 700.908V739.209M1160.52 700.908H1198.82M1160.52 739.209V777.51M1160.52 739.209H1198.82M1160.52 777.51H1198.82M1198.82 11.4907V49.7917M1198.82 11.4907H1237.12M1198.82 49.7917V88.0927M1198.82 49.7917H1237.12M1198.82 88.0927V126.394M1198.82 88.0927H1237.12M1198.82 126.394V164.695M1198.82 126.394H1237.12M1198.82 164.695V202.996M1198.82 164.695H1237.12M1198.82 202.996V241.297M1198.82 202.996H1237.12M1198.82 241.297V279.598M1198.82 241.297H1237.12M1198.82 279.598V317.899M1198.82 279.598H1237.12M1198.82 317.899V356.2M1198.82 317.899H1237.12M1198.82 356.2V394.501M1198.82 356.2H1237.12M1198.82 394.501V432.801M1198.82 394.501H1237.12M1198.82 432.801V471.102M1198.82 432.801H1237.12M1198.82 471.102V509.403M1198.82 471.102H1237.12M1198.82 509.403V547.704M1198.82 509.403H1237.12M1198.82 547.704V586.005M1198.82 547.704H1237.12M1198.82 586.005V624.306M1198.82 586.005H1237.12M1198.82 624.306V662.607M1198.82 624.306H1237.12M1198.82 662.607V700.908M1198.82 662.607H1237.12M1198.82 700.908V739.209M1198.82 700.908H1237.12M1198.82 739.209V777.51M1198.82 739.209H1237.12M1198.82 777.51H1237.12M1237.12 11.4907V49.7917M1237.12 11.4907H1275.42M1237.12 49.7917V88.0927M1237.12 49.7917H1275.42M1237.12 88.0927V126.394M1237.12 88.0927H1275.42M1237.12 126.394V164.695M1237.12 126.394H1275.42M1237.12 164.695V202.996M1237.12 164.695H1275.42M1237.12 202.996V241.297M1237.12 202.996H1275.42M1237.12 241.297V279.598M1237.12 241.297H1275.42M1237.12 279.598V317.899M1237.12 279.598H1275.42M1237.12 317.899V356.2M1237.12 317.899H1275.42M1237.12 356.2V394.501M1237.12 356.2H1275.42M1237.12 394.501V432.801M1237.12 394.501H1275.42M1237.12 432.801V471.102M1237.12 432.801H1275.42M1237.12 471.102V509.403M1237.12 471.102H1275.42M1237.12 509.403V547.704M1237.12 509.403H1275.42M1237.12 547.704V586.005M1237.12 547.704H1275.42M1237.12 586.005V624.306M1237.12 586.005H1275.42M1237.12 624.306V662.607M1237.12 624.306H1275.42M1237.12 662.607V700.908M1237.12 662.607H1275.42M1237.12 700.908V739.209M1237.12 700.908H1275.42M1237.12 739.209V777.51M1237.12 739.209H1275.42M1237.12 777.51H1275.42M1275.42 11.4907V49.7917M1275.42 11.4907H1313.72M1275.42 49.7917V88.0927M1275.42 49.7917H1313.72M1275.42 88.0927V126.394M1275.42 88.0927H1313.72M1275.42 126.394V164.695M1275.42 126.394H1313.72M1275.42 164.695V202.996M1275.42 164.695H1313.72M1275.42 202.996V241.297M1275.42 202.996H1313.72M1275.42 241.297V279.598M1275.42 241.297H1313.72M1275.42 279.598V317.899M1275.42 279.598H1313.72M1275.42 317.899V356.2M1275.42 317.899H1313.72M1275.42 356.2V394.501M1275.42 356.2H1313.72M1275.42 394.501V432.801M1275.42 394.501H1313.72M1275.42 432.801V471.102M1275.42 432.801H1313.72M1275.42 471.102V509.403M1275.42 471.102H1313.72M1275.42 509.403V547.704M1275.42 509.403H1313.72M1275.42 547.704V586.005M1275.42 547.704H1313.72M1275.42 586.005V624.306M1275.42 586.005H1313.72M1275.42 624.306V662.607M1275.42 624.306H1313.72M1275.42 662.607V700.908M1275.42 662.607H1313.72M1275.42 700.908V739.209M1275.42 700.908H1313.72M1275.42 739.209V777.51M1275.42 739.209H1313.72M1275.42 777.51H1313.72M1313.72 11.4907V49.7917M1313.72 11.4907H1352.03M1313.72 49.7917V88.0927M1313.72 49.7917H1352.03M1313.72 88.0927V126.394M1313.72 88.0927H1352.03M1313.72 126.394V164.695M1313.72 126.394H1352.03M1313.72 164.695V202.996M1313.72 164.695H1352.03M1313.72 202.996V241.297M1313.72 202.996H1352.03M1313.72 241.297V279.598M1313.72 241.297H1352.03M1313.72 279.598V317.899M1313.72 279.598H1352.03M1313.72 317.899V356.2M1313.72 317.899H1352.03M1313.72 356.2V394.501M1313.72 356.2H1352.03M1313.72 394.501V432.801M1313.72 394.501H1352.03M1313.72 432.801V471.102M1313.72 432.801H1352.03M1313.72 471.102V509.403M1313.72 471.102H1352.03M1313.72 509.403V547.704M1313.72 509.403H1352.03M1313.72 547.704V586.005M1313.72 547.704H1352.03M1313.72 586.005V624.306M1313.72 586.005H1352.03M1313.72 624.306V662.607M1313.72 624.306H1352.03M1313.72 662.607V700.908M1313.72 662.607H1352.03M1313.72 700.908V739.209M1313.72 700.908H1352.03M1313.72 739.209V777.51M1313.72 739.209H1352.03M1313.72 777.51H1352.03M1352.03 11.4907V49.7917M1352.03 11.4907H1390.33M1352.03 49.7917V88.0927M1352.03 49.7917H1390.33M1352.03 88.0927V126.394M1352.03 88.0927H1390.33M1352.03 126.394V164.695M1352.03 126.394H1390.33M1352.03 164.695V202.996M1352.03 164.695H1390.33M1352.03 202.996V241.297M1352.03 202.996H1390.33M1352.03 241.297V279.598M1352.03 241.297H1390.33M1352.03 279.598V317.899M1352.03 279.598H1390.33M1352.03 317.899V356.2M1352.03 317.899H1390.33M1352.03 356.2V394.501M1352.03 356.2H1390.33M1352.03 394.501V432.801M1352.03 394.501H1390.33M1352.03 432.801V471.102M1352.03 432.801H1390.33M1352.03 471.102V509.403M1352.03 471.102H1390.33M1352.03 509.403V547.704M1352.03 509.403H1390.33M1352.03 547.704V586.005M1352.03 547.704H1390.33M1352.03 586.005V624.306M1352.03 586.005H1390.33M1352.03 624.306V662.607M1352.03 624.306H1390.33M1352.03 662.607V700.908M1352.03 662.607H1390.33M1352.03 700.908V739.209M1352.03 700.908H1390.33M1352.03 739.209V777.51M1352.03 739.209H1390.33M1352.03 777.51H1390.33M1390.33 11.4907V49.7917M1390.33 11.4907H1428.63M1390.33 49.7917V88.0927M1390.33 49.7917H1428.63M1390.33 88.0927V126.394M1390.33 88.0927H1428.63M1390.33 126.394V164.695M1390.33 126.394H1428.63M1390.33 164.695V202.996M1390.33 164.695H1428.63M1390.33 202.996V241.297M1390.33 202.996H1428.63M1390.33 241.297V279.598M1390.33 241.297H1428.63M1390.33 279.598V317.899M1390.33 279.598H1428.63M1390.33 317.899V356.2M1390.33 317.899H1428.63M1390.33 356.2V394.501M1390.33 356.2H1428.63M1390.33 394.501V432.801M1390.33 394.501H1428.63M1390.33 432.801V471.102M1390.33 432.801H1428.63M1390.33 471.102V509.403M1390.33 471.102H1428.63M1390.33 509.403V547.704M1390.33 509.403H1428.63M1390.33 547.704V586.005M1390.33 547.704H1428.63M1390.33 586.005V624.306M1390.33 586.005H1428.63M1390.33 624.306V662.607M1390.33 624.306H1428.63M1390.33 662.607V700.908M1390.33 662.607H1428.63M1390.33 700.908V739.209M1390.33 700.908H1428.63M1390.33 739.209V777.51M1390.33 739.209H1428.63M1390.33 777.51H1428.63M1428.63 11.4907V49.7917M1428.63 11.4907H1466.93M1428.63 49.7917V88.0927M1428.63 49.7917H1466.93M1428.63 88.0927V126.394M1428.63 88.0927H1466.93M1428.63 126.394V164.695M1428.63 126.394H1466.93M1428.63 164.695V202.996M1428.63 164.695H1466.93M1428.63 202.996V241.297M1428.63 202.996H1466.93M1428.63 241.297V279.598M1428.63 241.297H1466.93M1428.63 279.598V317.899M1428.63 279.598H1466.93M1428.63 317.899V356.2M1428.63 317.899H1466.93M1428.63 356.2V394.501M1428.63 356.2H1466.93M1428.63 394.501V432.801M1428.63 394.501H1466.93M1428.63 432.801V471.102M1428.63 432.801H1466.93M1428.63 471.102V509.403M1428.63 471.102H1466.93M1428.63 509.403V547.704M1428.63 509.403H1466.93M1428.63 547.704V586.005M1428.63 547.704H1466.93M1428.63 586.005V624.306M1428.63 586.005H1466.93M1428.63 624.306V662.607M1428.63 624.306H1466.93M1428.63 662.607V700.908M1428.63 662.607H1466.93M1428.63 700.908V739.209M1428.63 700.908H1466.93M1428.63 739.209V777.51M1428.63 739.209H1466.93M1428.63 777.51H1466.93M1466.93 11.4907V49.7917M1466.93 11.4907H1505.23M1466.93 49.7917V88.0927M1466.93 49.7917H1505.23M1466.93 88.0927V126.394M1466.93 88.0927H1505.23M1466.93 126.394V164.695M1466.93 126.394H1505.23M1466.93 164.695V202.996M1466.93 164.695H1505.23M1466.93 202.996V241.297M1466.93 202.996H1505.23M1466.93 241.297V279.598M1466.93 241.297H1505.23M1466.93 279.598V317.899M1466.93 279.598H1505.23M1466.93 317.899V356.2M1466.93 317.899H1505.23M1466.93 356.2V394.501M1466.93 356.2H1505.23M1466.93 394.501V432.801M1466.93 394.501H1505.23M1466.93 432.801V471.102M1466.93 432.801H1505.23M1466.93 471.102V509.403M1466.93 471.102H1505.23M1466.93 509.403V547.704M1466.93 509.403H1505.23M1466.93 547.704V586.005M1466.93 547.704H1505.23M1466.93 586.005V624.306M1466.93 586.005H1505.23M1466.93 624.306V662.607M1466.93 624.306H1505.23M1466.93 662.607V700.908M1466.93 662.607H1505.23M1466.93 700.908V739.209M1466.93 700.908H1505.23M1466.93 739.209V777.51M1466.93 739.209H1505.23M1466.93 777.51H1505.23M1505.23 11.4907V49.7917M1505.23 11.4907H1543.53M1505.23 49.7917V88.0927M1505.23 49.7917H1543.53M1505.23 88.0927V126.394M1505.23 88.0927H1543.53M1505.23 126.394V164.695M1505.23 126.394H1543.53M1505.23 164.695V202.996M1505.23 164.695H1543.53M1505.23 202.996V241.297M1505.23 202.996H1543.53M1505.23 241.297V279.598M1505.23 241.297H1543.53M1505.23 279.598V317.899M1505.23 279.598H1543.53M1505.23 317.899V356.2M1505.23 317.899H1543.53M1505.23 356.2V394.501M1505.23 356.2H1543.53M1505.23 394.501V432.801M1505.23 394.501H1543.53M1505.23 432.801V471.102M1505.23 432.801H1543.53M1505.23 471.102V509.403M1505.23 471.102H1543.53M1505.23 509.403V547.704M1505.23 509.403H1543.53M1505.23 547.704V586.005M1505.23 547.704H1543.53M1505.23 586.005V624.306M1505.23 586.005H1543.53M1505.23 624.306V662.607M1505.23 624.306H1543.53M1505.23 662.607V700.908M1505.23 662.607H1543.53M1505.23 700.908V739.209M1505.23 700.908H1543.53M1505.23 739.209V777.51M1505.23 739.209H1543.53M1505.23 777.51H1543.53M1543.53 11.4907V49.7917M1543.53 11.4907H1581.83M1543.53 49.7917V88.0927M1543.53 49.7917H1581.83M1543.53 88.0927V126.394M1543.53 88.0927H1581.83M1543.53 126.394V164.695M1543.53 126.394H1581.83M1543.53 164.695V202.996M1543.53 164.695H1581.83M1543.53 202.996V241.297M1543.53 202.996H1581.83M1543.53 241.297V279.598M1543.53 241.297H1581.83M1543.53 279.598V317.899M1543.53 279.598H1581.83M1543.53 317.899V356.2M1543.53 317.899H1581.83M1543.53 356.2V394.501M1543.53 356.2H1581.83M1543.53 394.501V432.801M1543.53 394.501H1581.83M1543.53 432.801V471.102M1543.53 432.801H1581.83M1543.53 471.102V509.403M1543.53 471.102H1581.83M1543.53 509.403V547.704M1543.53 509.403H1581.83M1543.53 547.704V586.005M1543.53 547.704H1581.83M1543.53 586.005V624.306M1543.53 586.005H1581.83M1543.53 624.306V662.607M1543.53 624.306H1581.83M1543.53 662.607V700.908M1543.53 662.607H1581.83M1543.53 700.908V739.209M1543.53 700.908H1581.83M1543.53 739.209V777.51M1543.53 739.209H1581.83M1543.53 777.51H1581.83M1581.83 11.4907V49.7917M1581.83 11.4907H1620.13M1581.83 49.7917V88.0927M1581.83 49.7917H1620.13M1581.83 88.0927V126.394M1581.83 88.0927H1620.13M1581.83 126.394V164.695M1581.83 126.394H1620.13M1581.83 164.695V202.996M1581.83 164.695H1620.13M1581.83 202.996V241.297M1581.83 202.996H1620.13M1581.83 241.297V279.598M1581.83 241.297H1620.13M1581.83 279.598V317.899M1581.83 279.598H1620.13M1581.83 317.899V356.2M1581.83 317.899H1620.13M1581.83 356.2V394.501M1581.83 356.2H1620.13M1581.83 394.501V432.801M1581.83 394.501H1620.13M1581.83 432.801V471.102M1581.83 432.801H1620.13M1581.83 471.102V509.403M1581.83 471.102H1620.13M1581.83 509.403V547.704M1581.83 509.403H1620.13M1581.83 547.704V586.005M1581.83 547.704H1620.13M1581.83 586.005V624.306M1581.83 586.005H1620.13M1581.83 624.306V662.607M1581.83 624.306H1620.13M1581.83 662.607V700.908M1581.83 662.607H1620.13M1581.83 700.908V739.209M1581.83 700.908H1620.13M1581.83 739.209V777.51M1581.83 739.209H1620.13M1581.83 777.51H1620.13M1620.13 11.4907V49.7917M1620.13 11.4907H1658.43M1620.13 49.7917V88.0927M1620.13 49.7917H1658.43M1620.13 88.0927V126.394M1620.13 88.0927H1658.43M1620.13 126.394V164.695M1620.13 126.394H1658.43M1620.13 164.695V202.996M1620.13 164.695H1658.43M1620.13 202.996V241.297M1620.13 202.996H1658.43M1620.13 241.297V279.598M1620.13 241.297H1658.43M1620.13 279.598V317.899M1620.13 279.598H1658.43M1620.13 317.899V356.2M1620.13 317.899H1658.43M1620.13 356.2V394.501M1620.13 356.2H1658.43M1620.13 394.501V432.801M1620.13 394.501H1658.43M1620.13 432.801V471.102M1620.13 432.801H1658.43M1620.13 471.102V509.403M1620.13 471.102H1658.43M1620.13 509.403V547.704M1620.13 509.403H1658.43M1620.13 547.704V586.005M1620.13 547.704H1658.43M1620.13 586.005V624.306M1620.13 586.005H1658.43M1620.13 624.306V662.607M1620.13 624.306H1658.43M1620.13 662.607V700.908M1620.13 662.607H1658.43M1620.13 700.908V739.209M1620.13 700.908H1658.43M1620.13 739.209V777.51M1620.13 739.209H1658.43M1620.13 777.51H1658.43M1658.43 11.4907V49.7917M1658.43 11.4907H1696.73V49.7917M1658.43 49.7917V88.0927M1658.43 49.7917H1696.73M1658.43 88.0927V126.394M1658.43 88.0927H1696.73M1658.43 126.394V164.695M1658.43 126.394H1696.73M1658.43 164.695V202.996M1658.43 164.695H1696.73M1658.43 202.996V241.297M1658.43 202.996H1696.73M1658.43 241.297V279.598M1658.43 241.297H1696.73M1658.43 279.598V317.899M1658.43 279.598H1696.73M1658.43 317.899V356.2M1658.43 317.899H1696.73M1658.43 356.2V394.501M1658.43 356.2H1696.73M1658.43 394.501V432.801M1658.43 394.501H1696.73M1658.43 432.801V471.102M1658.43 432.801H1696.73M1658.43 471.102V509.403M1658.43 471.102H1696.73M1658.43 509.403V547.704M1658.43 509.403H1696.73M1658.43 547.704V586.005M1658.43 547.704H1696.73M1658.43 586.005V624.306M1658.43 586.005H1696.73M1658.43 624.306V662.607M1658.43 624.306H1696.73M1658.43 662.607V700.908M1658.43 662.607H1696.73M1658.43 700.908V739.209M1658.43 700.908H1696.73M1658.43 739.209V777.51M1658.43 739.209H1696.73M1658.43 777.51H1696.73V739.209M1696.73 49.7917V88.0927M1696.73 88.0927V126.394M1696.73 126.394V164.695M1696.73 164.695V202.996M1696.73 202.996V241.297M1696.73 241.297V279.598M1696.73 279.598V317.899M1696.73 317.899V356.2M1696.73 356.2V394.501M1696.73 394.501V432.801M1696.73 432.801V471.102M1696.73 471.102V509.403M1696.73 509.403V547.704M1696.73 547.704V586.005M1696.73 586.005V624.306M1696.73 624.306V662.607M1696.73 662.607V700.908M1696.73 700.908V739.209" stroke="url(#paint1_radial_1333_5930)" stroke-width="0.8" shape-rendering="crispEdges"/>
</g>
</g>
<defs>
<filter id="filter0_d_1333_5930" x="7.09082" y="11.0908" width="1694.04" height="774.819" filterUnits="userSpaceOnUse" color-interpolation-filters="sRGB">
<feFlood flood-opacity="0" result="BackgroundImageFix"/>
<feColorMatrix in="SourceAlpha" type="matrix" values="0 0 0 0 0 0 0 0 0 0 0 0 0 0 0 0 0 0 127 0" result="hardAlpha"/>
<feOffset dy="4"/>
<feGaussianBlur stdDeviation="2"/>
<feComposite in2="hardAlpha" operator="out"/>
<feColorMatrix type="matrix" values="0 0 0 0 0 0 0 0 0 0 0 0 0 0 0 0 0 0 0.25 0"/>
<feBlend mode="normal" in2="BackgroundImageFix" result="effect1_dropShadow_1333_5930"/>
<feBlend mode="normal" in="SourceGraphic" in2="effect1_dropShadow_1333_5930" result="shape"/>
</filter>
<radialGradient id="paint0_radial_1333_5930" cx="0" cy="0" r="1" gradientUnits="userSpaceOnUse" gradientTransform="translate(854.112 394.5) rotate(90) scale(394.5 689.71)">
<stop offset="0.665789" stop-color="white"/>
<stop offset="1" stop-color="white" stop-opacity="0.2"/>
</radialGradient>
<radialGradient id="paint1_radial_1333_5930" cx="0" cy="0" r="1" gradientUnits="userSpaceOnUse" gradientTransform="translate(854.113 370.005) rotate(90) scale(432.695 768.7)">
<stop offset="0.665789" stop-color="white"/>
<stop offset="1" stop-color="white" stop-opacity="0.2"/>
</radialGradient>
<clipPath id="clip0_1333_5930">
<rect width="1708" height="790" fill="white"/>
</clipPath>
</defs>
</svg>
