<svg width="72" height="74" viewBox="0 0 72 74" fill="none" xmlns="http://www.w3.org/2000/svg">
<g filter="url(#filter0_i_848_11560)">
<path d="M47.1733 7.25619L35.7067 0.885859L23.9853 7.51101M47.1733 7.25619L35.4519 13.8813M47.1733 7.25619L47.1733 21.3042L41.8222 24.3287M35.4519 13.8813L23.9853 7.51101M35.4519 13.8813L35.4519 41.656M23.9853 7.51101L23.9853 27.8394L29.5912 30.9538M35.4519 41.656L41.8222 45.1951M35.4519 41.656L29.5912 44.9686M29.5912 30.9538L18.1246 24.5835L6.40316 31.2086M29.5912 30.9538L17.8698 37.579M29.5912 30.9538L29.5912 44.9686M17.8698 37.579L6.40316 31.2086M17.8698 37.579L18.1246 57.964M6.40316 31.2086L6.40315 51.3389L18.1246 57.964M47.1733 48.1537L35.1971 54.6515M47.1733 48.1537L41.8222 45.1951M47.1733 48.1537L41.8222 51.057L35.1971 54.6515M47.1733 48.1537L47.1733 61.7862M47.1733 48.1537L47.1733 54.2692M35.1971 54.6515L23.7305 48.2811M35.1971 54.6515L35.197 68.7936M23.7305 48.2811L29.5912 44.9686M23.7305 48.2811L23.7305 54.6515M65.0102 24.0739L53.5436 17.7035L41.8222 24.3287M65.0102 24.0739L53.2888 30.699M65.0102 24.0739L65.0102 51.3389L53.2888 57.964M53.2888 30.699L41.8222 24.3287M53.2888 30.699L53.2888 57.964M41.8222 24.3287L41.8222 45.1951M53.2888 57.964L47.1733 54.2692M47.1733 54.2692L47.1733 61.7862M47.1733 61.7862L35.197 68.7936M35.197 68.7936L23.7305 61.7862L23.7305 54.6515M18.1246 57.964L23.7305 54.6515" stroke="#51E0CF" stroke-width="1.2" stroke-linecap="round" stroke-linejoin="round"/>
</g>
<defs>
<filter id="filter0_i_848_11560" x="0" y="0.285889" width="72" height="75.0953" filterUnits="userSpaceOnUse" color-interpolation-filters="sRGB">
<feFlood flood-opacity="0" result="BackgroundImageFix"/>
<feBlend mode="normal" in="SourceGraphic" in2="BackgroundImageFix" result="shape"/>
<feColorMatrix in="SourceAlpha" type="matrix" values="0 0 0 0 0 0 0 0 0 0 0 0 0 0 0 0 0 0 127 0" result="hardAlpha"/>
<feOffset dy="1.38115"/>
<feGaussianBlur stdDeviation="8.28691"/>
<feComposite in2="hardAlpha" operator="arithmetic" k2="-1" k3="1"/>
<feColorMatrix type="matrix" values="0 0 0 0 1 0 0 0 0 1 0 0 0 0 1 0 0 0 0.32 0"/>
<feBlend mode="normal" in2="shape" result="effect1_innerShadow_848_11560"/>
</filter>
</defs>
</svg>
