<svg width="24" height="24" viewBox="0 0 24 24" fill="none" xmlns="http://www.w3.org/2000/svg">
<g clip-path="url(#clip0_913_3808)">
<path d="M3.67188 10.8699C3.67188 8.34968 3.67188 7.08957 4.16235 6.12696C4.59378 5.28024 5.28219 4.59182 6.12892 4.16039C7.09152 3.66992 8.35164 3.66992 10.8719 3.66992H13.1419C15.6621 3.66992 16.9222 3.66992 17.8848 4.16039C18.7316 4.59182 19.42 5.28024 19.8514 6.12696C20.3419 7.08957 20.3419 8.34969 20.3419 10.8699V13.1399C20.3419 15.6602 20.3419 16.9203 19.8514 17.8829C19.42 18.7296 18.7316 19.418 17.8848 19.8495C16.9222 20.3399 15.6621 20.3399 13.1419 20.3399H10.8719C8.35164 20.3399 7.09152 20.3399 6.12892 19.8495C5.28219 19.418 4.59378 18.7296 4.16235 17.8829C3.67188 16.9203 3.67188 15.6602 3.67188 13.1399V10.8699Z" fill="url(#paint0_radial_913_3808)"/>
<path d="M3.67188 10.8699C3.67188 8.34968 3.67188 7.08957 4.16235 6.12696C4.59378 5.28024 5.28219 4.59182 6.12892 4.16039C7.09152 3.66992 8.35164 3.66992 10.8719 3.66992H13.1419C15.6621 3.66992 16.9222 3.66992 17.8848 4.16039C18.7316 4.59182 19.42 5.28024 19.8514 6.12696C20.3419 7.08957 20.3419 8.34969 20.3419 10.8699V13.1399C20.3419 15.6602 20.3419 16.9203 19.8514 17.8829C19.42 18.7296 18.7316 19.418 17.8848 19.8495C16.9222 20.3399 15.6621 20.3399 13.1419 20.3399H10.8719C8.35164 20.3399 7.09152 20.3399 6.12892 19.8495C5.28219 19.418 4.59378 18.7296 4.16235 17.8829C3.67188 16.9203 3.67188 15.6602 3.67188 13.1399V10.8699Z" fill="url(#paint1_radial_913_3808)"/>
<path d="M11.9999 6.1665C10.4156 6.1665 10.2168 6.17343 9.59459 6.20175C8.97358 6.23018 8.54969 6.3285 8.17878 6.47275C7.79511 6.62175 7.46966 6.82105 7.14542 7.14541C6.82094 7.46965 6.62163 7.7951 6.47215 8.17864C6.32753 8.54966 6.22909 8.97367 6.20114 9.59444C6.17331 10.2167 6.16602 10.4156 6.16602 11.9998C6.16602 13.5841 6.17306 13.7823 6.20126 14.4045C6.22982 15.0255 6.32814 15.4494 6.47227 15.8203C6.62139 16.204 6.82069 16.5294 7.14505 16.8537C7.46917 17.1781 7.79463 17.3779 8.17805 17.5269C8.5492 17.6712 8.97322 17.7695 9.59411 17.7979C10.2163 17.8262 10.415 17.8332 11.9992 17.8332C13.5835 17.8332 13.7818 17.8262 14.404 17.7979C15.025 17.7695 15.4494 17.6712 15.8205 17.5269C16.2041 17.3779 16.529 17.1781 16.8532 16.8537C17.1776 16.5294 17.377 16.204 17.5264 15.8204C17.6698 15.4494 17.7683 15.0254 17.7974 14.4046C17.8254 13.7824 17.8327 13.5841 17.8327 11.9998C17.8327 10.4156 17.8254 10.2168 17.7974 9.59456C17.7683 8.97355 17.6698 8.54966 17.5264 8.17876C17.377 7.7951 17.1776 7.46965 16.8532 7.14541C16.5287 6.82093 16.2042 6.62163 15.8202 6.47275C15.4483 6.3285 15.0241 6.23018 14.4031 6.20175C13.7809 6.17343 13.5828 6.1665 11.9981 6.1665H11.9999ZM11.4766 7.21772C11.6319 7.21748 11.8052 7.21772 11.9999 7.21772C13.5574 7.21772 13.742 7.22331 14.3571 7.25126C14.9258 7.27727 15.2345 7.3723 15.4401 7.45215C15.7124 7.55788 15.9064 7.68426 16.1105 7.88843C16.3147 8.0926 16.4411 8.28704 16.547 8.55926C16.6269 8.76465 16.722 9.07333 16.7479 9.64208C16.7759 10.257 16.7819 10.4417 16.7819 11.9985C16.7819 13.5553 16.7759 13.74 16.7479 14.3549C16.7219 14.9237 16.6269 15.2324 16.547 15.4377C16.4413 15.71 16.3147 15.9038 16.1105 16.1078C15.9063 16.312 15.7125 16.4384 15.4401 16.5441C15.2348 16.6243 14.9258 16.7191 14.3571 16.7451C13.7421 16.7731 13.5574 16.7792 11.9999 16.7792C10.4423 16.7792 10.2577 16.7731 9.64272 16.7451C9.07396 16.7189 8.76528 16.6238 8.55953 16.544C8.28731 16.4383 8.09286 16.3119 7.88869 16.1077C7.68452 15.9036 7.55813 15.7096 7.45216 15.4373C7.37231 15.2319 7.27716 14.9232 7.25127 14.3544C7.22332 13.7395 7.21773 13.5548 7.21773 11.997C7.21773 10.4393 7.22332 10.2555 7.25127 9.64062C7.27728 9.07187 7.37231 8.76319 7.45216 8.55756C7.55789 8.28534 7.68452 8.0909 7.88869 7.88673C8.09286 7.68256 8.28731 7.55617 8.55953 7.4502C8.76516 7.36999 9.07396 7.2752 9.64272 7.24907C10.1809 7.22477 10.3894 7.21748 11.4766 7.21626V7.21772ZM15.1137 8.1863C14.7273 8.1863 14.4137 8.49947 14.4137 8.88605C14.4137 9.27251 14.7273 9.58605 15.1137 9.58605C15.5002 9.58605 15.8137 9.27251 15.8137 8.88605C15.8137 8.49959 15.5002 8.18605 15.1137 8.18605V8.1863ZM11.9999 9.00418C10.3455 9.00418 9.00421 10.3455 9.00421 11.9998C9.00421 13.6542 10.3455 14.9949 11.9999 14.9949C13.6543 14.9949 14.9951 13.6542 14.9951 11.9998C14.9951 10.3455 13.6542 9.00418 11.9998 9.00418H11.9999ZM11.9999 10.0554C13.0737 10.0554 13.9444 10.9259 13.9444 11.9998C13.9444 13.0737 13.0737 13.9443 11.9999 13.9443C10.9259 13.9443 10.0554 13.0737 10.0554 11.9998C10.0554 10.9259 10.9259 10.0554 11.9999 10.0554Z" fill="white"/>
</g>
<defs>
<radialGradient id="paint0_radial_913_3808" cx="0" cy="0" r="1" gradientUnits="userSpaceOnUse" gradientTransform="translate(8.09986 21.6239) rotate(-90) scale(16.5212 15.366)">
<stop stop-color="#FFDD55"/>
<stop offset="0.1" stop-color="#FFDD55"/>
<stop offset="0.5" stop-color="#FF543E"/>
<stop offset="1" stop-color="#C837AB"/>
</radialGradient>
<radialGradient id="paint1_radial_913_3808" cx="0" cy="0" r="1" gradientUnits="userSpaceOnUse" gradientTransform="translate(0.879562 4.8708) rotate(78.6806) scale(7.38504 30.4415)">
<stop stop-color="#3771C8"/>
<stop offset="0.128" stop-color="#3771C8"/>
<stop offset="1" stop-color="#6600FF" stop-opacity="0"/>
</radialGradient>
<clipPath id="clip0_913_3808">
<rect x="3" y="3" width="18" height="18" rx="3" fill="white"/>
</clipPath>
</defs>
</svg>
