<svg width="28" height="28" viewBox="0 0 28 28" fill="none" xmlns="http://www.w3.org/2000/svg">
<g clip-path="url(#clip0_1342_6251)">
<path d="M10.3283 25.0001C12.3488 25.0001 13.9886 23.3574 13.9886 21.3334V17.6667H10.3283C8.30779 17.6667 6.66797 19.3094 6.66797 21.3334C6.66797 23.3574 8.30779 25.0001 10.3283 25.0001Z" fill="#0ACF83"/>
<path d="M6.66797 13.9999C6.66797 11.9759 8.30779 10.3333 10.3283 10.3333H13.9886V17.6666H10.3283C8.30779 17.6666 6.66797 16.0239 6.66797 13.9999Z" fill="#A259FF"/>
<path d="M6.66797 6.66667C6.66797 4.64267 8.30779 3 10.3283 3H13.9886V10.3333H10.3283C8.30779 10.3333 6.66797 8.69067 6.66797 6.66667Z" fill="#F24E1E"/>
<path d="M13.9888 3H17.6491C19.6696 3 21.3094 4.64267 21.3094 6.66667C21.3094 8.69067 19.6696 10.3333 17.6491 10.3333H13.9888V3Z" fill="#FF7262"/>
<path d="M21.3094 13.9999C21.3094 16.0239 19.6696 17.6666 17.6491 17.6666C15.6286 17.6666 13.9888 16.0239 13.9888 13.9999C13.9888 11.9759 15.6286 10.3333 17.6491 10.3333C19.6696 10.3333 21.3094 11.9759 21.3094 13.9999Z" fill="#1ABCFE"/>
</g>
<defs>
<clipPath id="clip0_1342_6251">
<rect width="14.6442" height="22" fill="white" transform="translate(6.6665 3)"/>
</clipPath>
</defs>
</svg>
