<svg width="28" height="28" viewBox="0 0 28 28" fill="none" xmlns="http://www.w3.org/2000/svg">
<g clip-path="url(#clip0_1342_6267)">
<g clip-path="url(#clip1_1342_6267)">
<path d="M21.6239 6.96207C20.2217 6.31868 18.7181 5.84465 17.1459 5.57316C17.1173 5.56792 17.0887 5.58101 17.0739 5.6072C16.8805 5.95115 16.6663 6.39986 16.5163 6.75254C14.8254 6.49939 13.1431 6.49939 11.4868 6.75254C11.3368 6.39202 11.1148 5.95115 10.9205 5.6072C10.9058 5.58189 10.8772 5.56879 10.8485 5.57316C9.27725 5.84379 7.7736 6.31781 6.37052 6.96207C6.35838 6.9673 6.34797 6.97604 6.34106 6.98738C3.48894 11.2484 2.70763 15.4046 3.09092 19.5094C3.09265 19.5295 3.10392 19.5487 3.11953 19.5609C5.00127 20.9428 6.82406 21.7817 8.61301 22.3378C8.64164 22.3465 8.67197 22.3361 8.69019 22.3125C9.11337 21.7346 9.49059 21.1253 9.81402 20.4845C9.83311 20.447 9.81489 20.4024 9.77588 20.3876C9.17754 20.1606 8.6078 19.8839 8.05975 19.5696C8.0164 19.5443 8.01293 19.4823 8.05281 19.4526C8.16814 19.3662 8.2835 19.2763 8.39363 19.1855C8.41355 19.1689 8.44131 19.1654 8.46474 19.1759C12.0652 20.8197 15.9631 20.8197 19.521 19.1759C19.5445 19.1645 19.5722 19.168 19.593 19.1846C19.7032 19.2754 19.8185 19.3662 19.9347 19.4526C19.9746 19.4823 19.972 19.5443 19.9286 19.5696C19.3806 19.89 18.8108 20.1606 18.2116 20.3867C18.1726 20.4016 18.1553 20.447 18.1744 20.4845C18.5047 21.1244 18.882 21.7337 19.2973 22.3116C19.3147 22.3361 19.3459 22.3465 19.3745 22.3378C21.1721 21.7817 22.9949 20.9428 24.8766 19.5609C24.8931 19.5487 24.9035 19.5303 24.9053 19.5102C25.364 14.7647 24.1369 10.6425 21.6525 6.98825C21.6465 6.97604 21.6361 6.9673 21.6239 6.96207ZM10.3517 17.01C9.26771 17.01 8.37454 16.0148 8.37454 14.7927C8.37454 13.5705 9.25039 12.5753 10.3517 12.5753C11.4616 12.5753 12.3462 13.5792 12.3288 14.7927C12.3288 16.0148 11.453 17.01 10.3517 17.01ZM17.6619 17.01C16.5779 17.01 15.6847 16.0148 15.6847 14.7927C15.6847 13.5705 16.5606 12.5753 17.6619 12.5753C18.7718 12.5753 19.6563 13.5792 19.639 14.7927C19.639 16.0148 18.7718 17.01 17.6619 17.01Z" fill="#5865F2"/>
</g>
</g>
<defs>
<clipPath id="clip0_1342_6267">
<rect width="22" height="22" fill="white" transform="translate(3 3)"/>
</clipPath>
<clipPath id="clip1_1342_6267">
<rect width="22" height="17.0423" fill="white" transform="translate(3 5.44434)"/>
</clipPath>
</defs>
</svg>
