<svg width="28" height="28" viewBox="0 0 28 28" fill="none" xmlns="http://www.w3.org/2000/svg">
<g clip-path="url(#clip0_1342_6240)">
<g clip-path="url(#clip1_1342_6240)">
<path fill-rule="evenodd" clip-rule="evenodd" d="M11.0657 3C9.84957 3.0009 8.86534 3.98585 8.86624 5.19955C8.86534 6.41325 9.85047 7.39821 11.0666 7.3991L13.267 7.3991L13.267 5.20045C13.2679 3.98675 12.2827 3.00179 11.0657 3C11.0666 3 11.0666 3 11.0657 3V3ZM11.0657 8.86667L5.19987 8.86667C3.98374 8.86756 2.99862 9.85252 2.99951 11.0662C2.99772 12.2799 3.98284 13.2649 5.19897 13.2667L11.0657 13.2667C12.2818 13.2658 13.267 12.2808 13.2661 11.0671C13.267 9.85252 12.2818 8.86756 11.0657 8.86667V8.86667Z" fill="#36C5F0"/>
<path fill-rule="evenodd" clip-rule="evenodd" d="M25.0001 11.0662C25.001 9.85252 24.0159 8.86756 22.7997 8.86667C21.5836 8.86756 20.5984 9.85252 20.5993 11.0662L20.5993 13.2667L22.7997 13.2667C24.0159 13.2658 25.001 12.2808 25.0001 11.0662ZM19.1333 11.0662L19.1333 5.19955C19.1342 3.98675 18.1499 3.00179 16.9338 3C15.7176 3.0009 14.7325 3.98585 14.7334 5.19955L14.7334 11.0662C14.7316 12.2799 15.7167 13.2649 16.9329 13.2667C18.149 13.2658 19.1342 12.2808 19.1333 11.0662Z" fill="#2EB67D"/>
<path fill-rule="evenodd" clip-rule="evenodd" d="M16.9323 25C18.1485 24.9991 19.1336 24.0141 19.1327 22.8004C19.1336 21.5867 18.1485 20.6018 16.9323 20.6009L14.7319 20.6009L14.7319 22.8004C14.731 24.0132 15.7162 24.9982 16.9323 25ZM16.9323 19.1324L22.7991 19.1324C24.0153 19.1315 25.0004 18.1466 24.9995 16.9329C25.0013 15.7192 24.0162 14.7342 22.8 14.7324L16.9332 14.7324C15.7171 14.7333 14.7319 15.7183 14.7328 16.932C14.7319 18.1466 15.7162 19.1315 16.9323 19.1324V19.1324Z" fill="#ECB22E"/>
<path fill-rule="evenodd" clip-rule="evenodd" d="M3 16.9327C2.9991 18.1465 3.98424 19.1314 5.20038 19.1323C6.41651 19.1314 7.40165 18.1465 7.40075 16.9327L7.40075 14.7332L5.20038 14.7332C3.98424 14.7341 2.9991 15.719 3 16.9327ZM8.86677 16.9327L8.86677 22.7995C8.86497 24.0132 9.85011 24.9982 11.0662 25C12.2824 24.9991 13.2675 24.0141 13.2666 22.8004L13.2666 16.9345C13.2684 15.7208 12.2833 14.7358 11.0671 14.7341C9.85011 14.7341 8.86587 15.719 8.86677 16.9327C8.86677 16.9336 8.86677 16.9327 8.86677 16.9327Z" fill="#E01E5A"/>
</g>
</g>
<defs>
<clipPath id="clip0_1342_6240">
<rect width="22" height="22" fill="white" transform="translate(3 3)"/>
</clipPath>
<clipPath id="clip1_1342_6240">
<rect width="22" height="22" fill="white" transform="translate(3 3)"/>
</clipPath>
</defs>
</svg>
