<svg width="28" height="28" viewBox="0 0 28 28" fill="none" xmlns="http://www.w3.org/2000/svg">
<g clip-path="url(#clip0_1342_6264)">
<path d="M16.7499 14.0048C16.7503 14.7981 16.6072 15.5849 16.3275 16.3272C15.5849 16.6068 14.798 16.7501 14.0045 16.7503H13.9952C13.1781 16.7492 12.3952 16.5999 11.6728 16.3275C11.393 15.5851 11.2497 14.7982 11.25 14.0048V13.9952C11.2496 13.2021 11.3926 12.4154 11.672 11.6732C12.4145 11.393 13.2016 11.2496 13.9953 11.25H14.0046C14.7981 11.2496 15.5852 11.393 16.3276 11.6731C16.6073 12.4153 16.7504 13.202 16.75 13.9951V14.0047L16.7499 14.0048ZM24.8472 12.1667H18.4263L22.9663 7.62636C22.6099 7.12579 22.2125 6.65583 21.7779 6.22137V6.22102C21.3434 5.78703 20.8736 5.38989 20.3733 5.03371L15.833 9.57405V3.15314C15.2291 3.05156 14.6178 3.00033 14.0055 3L13.9942 3C13.3713 3.00034 12.7612 3.05328 12.1667 3.15314V9.57405L7.62636 5.03371C7.12598 5.3898 6.65635 5.78722 6.2224 6.2218L6.21999 6.22352C5.78623 6.65743 5.38929 7.12666 5.03328 7.62636L9.57396 12.1667H3.15314C3.15314 12.1667 3 13.3727 3 13.9962V14.0038C3 14.6273 3.05285 15.2384 3.15314 15.8333H9.57405L5.03337 20.3736C5.74765 21.376 6.62398 22.2524 7.62636 22.9666L12.1667 18.426V24.8472C12.7699 24.9483 13.3804 24.9994 13.992 25H14.0076C14.6192 24.9994 15.2297 24.9483 15.8329 24.8472V18.426L20.3736 22.9666C20.8738 22.6103 21.3435 22.2131 21.7779 21.779L21.779 21.7779C22.2129 21.3435 22.61 20.8738 22.9663 20.3736L18.4256 15.8333H24.8472C24.9471 15.2395 24.9993 14.6302 25 14.008V13.992C24.9993 13.3698 24.9471 12.7605 24.8472 12.1667V12.1667Z" fill="#FF4A00"/>
</g>
<defs>
<clipPath id="clip0_1342_6264">
<rect width="22" height="22" fill="white" transform="translate(3 3)"/>
</clipPath>
</defs>
</svg>
