<svg width="28" height="28" viewBox="0 0 28 28" fill="none" xmlns="http://www.w3.org/2000/svg">
<g clip-path="url(#clip0_1342_6233)">
<path d="M7.87564 16.2948L7.10986 19.1536L4.31093 19.2128C3.47446 17.6613 3 15.8863 3 13.9999C3 12.1759 3.44361 10.4558 4.22993 8.94116H4.23053L6.72237 9.398L7.81394 11.8749C7.58548 12.5409 7.46095 13.2559 7.46095 13.9999C7.46104 14.8074 7.6073 15.5811 7.87564 16.2948Z" fill="#FBBB00"/>
<path d="M24.8076 11.9451C24.934 12.6105 24.9998 13.2977 24.9998 14C24.9998 14.7875 24.917 15.5557 24.7593 16.2967C24.2238 18.8182 22.8246 21.02 20.8864 22.5782L20.8858 22.5776L17.7472 22.4174L17.303 19.6444C18.5891 18.8902 19.5942 17.7098 20.1237 16.2967H14.2417V11.9451H20.2095H24.8076Z" fill="#518EF8"/>
<path d="M20.8859 22.5776L20.8865 22.5782C19.0014 24.0934 16.6068 25 14.0001 25C9.81101 25 6.16895 22.6586 4.31104 19.2129L7.87575 16.2949C8.80469 18.7741 11.1963 20.539 14.0001 20.539C15.2052 20.539 16.3342 20.2132 17.3031 19.6445L20.8859 22.5776Z" fill="#28B446"/>
<path d="M21.0212 5.5324L17.4577 8.44979C16.4551 7.82305 15.2698 7.461 14 7.461C11.1328 7.461 8.69643 9.3068 7.81403 11.8749L4.23058 8.94118H4.22998C6.0607 5.41153 9.74869 3 14 3C16.669 3 19.1162 3.95072 21.0212 5.5324Z" fill="#F14336"/>
</g>
<defs>
<clipPath id="clip0_1342_6233">
<rect width="22" height="22" fill="white" transform="translate(3 3)"/>
</clipPath>
</defs>
</svg>
