<svg width="28" height="28" viewBox="0 0 28 28" fill="none" xmlns="http://www.w3.org/2000/svg">
<path d="M18.8327 16.883C18.3505 16.883 17.9583 16.4959 17.9583 16.0205C17.9583 15.545 18.3505 15.1583 18.8327 15.1583C19.3149 15.1583 19.7071 15.5449 19.7071 16.0205C19.7071 16.496 19.3149 16.883 18.8327 16.883ZM9.16735 16.883C8.68518 16.883 8.29296 16.4959 8.29296 16.0205C8.29296 15.545 8.6851 15.1583 9.16735 15.1583C9.64952 15.1583 10.0417 15.5449 10.0417 16.0205C10.0417 16.496 9.6496 16.883 9.16735 16.883ZM19.1463 11.689L20.8939 8.70434C20.942 8.62197 20.955 8.52415 20.9301 8.43233C20.9051 8.34052 20.8443 8.26222 20.7608 8.21461C20.6773 8.16719 20.5781 8.15438 20.485 8.17898C20.3919 8.20358 20.3125 8.26359 20.2642 8.34584L18.4947 11.3682C17.1414 10.7593 15.6217 10.42 14 10.42C12.3783 10.42 10.8586 10.7593 9.50538 11.3682L7.7358 8.34584C7.6875 8.26359 7.60809 8.20358 7.51499 8.17898C7.42189 8.15438 7.32269 8.16719 7.23915 8.21461C7.15567 8.26218 7.09476 8.34048 7.06981 8.43231C7.04485 8.52414 7.05789 8.62198 7.10606 8.70434L8.85372 11.689C5.85274 13.2984 3.80027 16.2941 3.5 19.8334H24.5C24.1995 16.2942 22.147 13.2984 19.1463 11.6889" fill="#3DDB85"/>
</svg>
