<svg width="28" height="28" viewBox="0 0 28 28" fill="none" xmlns="http://www.w3.org/2000/svg">
<path d="M13.5644 3.67689C13.4917 3.41022 13.2733 3.21577 12.9822 3.11911C12.0605 2.87633 8.46995 3.89522 7.81495 4.59742C7.59662 4.81575 7.52384 5.10914 7.59662 5.34965C7.69384 5.56798 12.1333 12.6519 12.1333 12.6519C12.7883 13.7191 13.3216 13.5736 13.4916 13.5008C13.6622 13.4525 14.195 13.2825 14.1467 12.0225C14.0494 10.5431 13.6128 3.99245 13.5644 3.67689ZM11.6477 16.9708C12.0116 16.8742 12.2544 16.5342 12.2789 16.122C12.3028 15.6853 12.0844 15.297 11.7205 15.1514L10.7033 14.7392C7.235 13.2836 7.08887 13.2353 6.91887 13.2353C6.6522 13.2108 6.40715 13.3564 6.23998 13.6231C5.89884 14.1814 5.75442 15.9764 5.87609 17.1653C5.92442 17.5531 5.9972 17.8931 6.09443 18.087C6.23998 18.3536 6.45832 18.5236 6.72498 18.5236C6.89556 18.5236 6.99165 18.4992 10.2183 17.4564L11.6477 16.9708ZM13.4672 18.3053C13.0794 18.1347 12.6428 18.2325 12.4 18.5481L11.6966 19.397C9.27051 22.3081 9.17329 22.4292 9.10051 22.5992C9.06098 22.6995 9.04447 22.8073 9.05218 22.9148C9.05941 23.0796 9.12867 23.2356 9.24607 23.3515C9.80441 24.0303 12.4972 25.0492 13.3705 24.9037C13.5067 24.8864 13.6355 24.8317 13.7425 24.7457C13.8495 24.6597 13.9305 24.5457 13.9766 24.4164C14.0255 24.2458 14.0494 24.1253 14.0494 20.7047V19.1542C14.0983 18.7903 13.8555 18.4509 13.4672 18.3053ZM21.9095 18.9876C21.7639 18.8904 21.6673 18.842 18.4411 17.7743C18.4411 17.7743 17.0339 17.2893 17.01 17.2893C16.6689 17.1437 16.2822 17.2648 16.015 17.6048C15.7478 17.9448 15.7 18.3809 15.9183 18.7204L16.4761 19.6665C18.3928 22.8204 18.5384 23.0387 18.6595 23.1598C18.8778 23.3304 19.1445 23.3543 19.4356 23.2326C20.2606 22.8915 22.0317 20.6126 22.1528 19.7154C22.2006 19.4214 22.1278 19.1542 21.9095 18.9848V18.9876ZM16.7183 15.397C17.2301 15.2998 21.4 14.3053 21.74 14.0626C21.9584 13.917 22.0812 13.6503 22.055 13.3348V13.3109C21.9584 12.3887 20.3811 10.0131 19.605 9.62309C19.3384 9.50199 19.0472 9.50199 18.8289 9.64754C18.6834 9.74477 18.5861 9.89033 16.6211 12.607L15.7233 13.8408C15.4811 14.1319 15.4811 14.5447 15.7233 14.9086C15.9661 15.297 16.2089 15.4897 16.7183 15.3942V15.397Z" fill="#D32323"/>
</svg>
