<svg width="28" height="28" viewBox="0 0 28 28" fill="none" xmlns="http://www.w3.org/2000/svg">
<g clip-path="url(#clip0_1342_6259)">
<path d="M14 25C20.0751 25 25 20.0751 25 14C25 7.92487 20.0751 3 14 3C7.92487 3 3 7.92487 3 14C3 20.0751 7.92487 25 14 25Z" fill="#FF4500"/>
<path d="M21.3178 14.1049C21.3178 13.2132 20.5966 12.505 19.7179 12.505C19.2852 12.505 18.8916 12.6754 18.6032 12.9509C17.5017 12.164 15.9935 11.6527 14.3149 11.5871L15.0492 8.15124L17.436 8.66262C17.4624 9.2659 17.9605 9.75113 18.577 9.75113C19.2065 9.75113 19.7179 9.23975 19.7179 8.61006C19.7179 7.98062 19.2065 7.46924 18.577 7.46924C18.1312 7.46924 17.7376 7.73153 17.554 8.11188L14.892 7.54795C14.8133 7.53475 14.7346 7.54795 14.6821 7.5873C14.6166 7.62666 14.5772 7.69217 14.5642 7.77088L13.751 11.6001C12.0462 11.6527 10.5118 12.164 9.39717 12.9641C9.10873 12.6886 8.71517 12.5182 8.28251 12.5182C7.39077 12.5182 6.68262 13.2393 6.68262 14.1181C6.68262 14.7737 7.07593 15.3245 7.62691 15.5738C7.60051 15.731 7.58755 15.8884 7.58755 16.059C7.58755 18.5242 10.4595 20.5309 14.0003 20.5309C17.5411 20.5309 20.4131 18.5374 20.4131 16.059C20.4131 15.9016 20.3999 15.731 20.3737 15.5738C20.9244 15.3245 21.3178 14.7605 21.3178 14.1049ZM10.3283 15.2457C10.3283 14.6163 10.8396 14.1049 11.4693 14.1049C12.0988 14.1049 12.6101 14.6163 12.6101 15.2457C12.6101 15.8752 12.0988 16.3868 11.4693 16.3868C10.8396 16.3998 10.3283 15.8752 10.3283 15.2457ZM16.7149 18.2751C15.928 19.062 14.433 19.1146 14.0003 19.1146C13.5544 19.1146 12.0594 19.0488 11.2855 18.2751C11.1677 18.1571 11.1677 17.9735 11.2855 17.8554C11.4036 17.7376 11.5872 17.7376 11.7052 17.8554C12.2036 18.3539 13.2528 18.5242 14.0003 18.5242C14.7478 18.5242 15.8099 18.3539 16.2952 17.8554C16.4132 17.7376 16.5968 17.7376 16.7149 17.8554C16.8197 17.9735 16.8197 18.1571 16.7149 18.2751ZM16.5049 16.3998C15.8754 16.3998 15.3641 15.8884 15.3641 15.2589C15.3641 14.6295 15.8754 14.1181 16.5049 14.1181C17.1346 14.1181 17.6459 14.6295 17.6459 15.2589C17.6459 15.8752 17.1346 16.3998 16.5049 16.3998Z" fill="white"/>
</g>
<defs>
<clipPath id="clip0_1342_6259">
<rect width="22" height="22" fill="white" transform="translate(3 3)"/>
</clipPath>
</defs>
</svg>
