<svg width="44" height="44" viewBox="0 0 44 44" fill="none" xmlns="http://www.w3.org/2000/svg">
<path d="M21.0835 36.6672C28.6774 36.6672 34.8335 30.5112 34.8335 22.9172C34.8335 22.1623 34.7726 21.4215 34.6556 20.6996C33.7898 25.1553 29.8665 28.5191 25.1576 28.5191C19.8137 28.5191 15.4816 24.187 15.4816 18.8432C15.4816 14.1342 18.8454 10.211 23.3012 9.34514C22.5792 9.22808 21.8385 9.16724 21.0835 9.16724C13.4896 9.16724 7.3335 15.3233 7.3335 22.9172C7.3335 30.5112 13.4896 36.6672 21.0835 36.6672Z" fill="#51E0CF"/>
<path d="M21.0835 36.6672C28.6774 36.6672 34.8335 30.5112 34.8335 22.9172C34.8335 22.1623 34.7726 21.4215 34.6556 20.6996C33.7898 25.1553 29.8665 28.5191 25.1576 28.5191C19.8137 28.5191 15.4816 24.187 15.4816 18.8432C15.4816 14.1342 18.8454 10.211 23.3012 9.34514C22.5792 9.22808 21.8385 9.16724 21.0835 9.16724C13.4896 9.16724 7.3335 15.3233 7.3335 22.9172C7.3335 30.5112 13.4896 36.6672 21.0835 36.6672Z" fill="url(#paint0_linear_829_3825)" fill-opacity="0.4"/>
<defs>
<linearGradient id="paint0_linear_829_3825" x1="21.0835" y1="9.16724" x2="21.0835" y2="30.152" gradientUnits="userSpaceOnUse">
<stop stop-color="white"/>
<stop offset="1" stop-color="white" stop-opacity="0"/>
</linearGradient>
</defs>
</svg>
