<svg width="32" height="32" viewBox="0 0 32 32" fill="none" xmlns="http://www.w3.org/2000/svg">
<path fill-rule="evenodd" clip-rule="evenodd" d="M13.8553 6.7344C15.1168 5.75325 16.8832 5.75325 18.1447 6.7344L24.6514 11.7951C25.5023 12.457 26 13.4746 26 14.5526V22.5065C26 24.4358 24.436 25.9998 22.5067 25.9998H9.49333C7.56402 25.9998 6 24.4358 6 22.5065V14.5526C6 13.4746 6.4977 12.457 7.34863 11.7951L13.8553 6.7344ZM11.9146 13.5194C11.4652 13.1984 10.8406 13.3025 10.5196 13.7519C10.1986 14.2013 10.3027 14.8259 10.7521 15.1469L15.4188 18.4802C15.7665 18.7286 16.2335 18.7286 16.5812 18.4802L21.2479 15.1469C21.6973 14.8259 21.8014 14.2013 21.4804 13.7519C21.1594 13.3025 20.5348 13.1984 20.0854 13.5194L16 16.4376L11.9146 13.5194Z" fill="#51E0CF"/>
</svg>
