<svg width="132" height="132" viewBox="0 0 132 132" fill="none" xmlns="http://www.w3.org/2000/svg">
<g filter="url(#filter0_bi_947_8119)">
<rect width="132" height="132" rx="66" fill="white" fill-opacity="0.01"/>
<rect x="0.5" y="0.5" width="131" height="131" rx="65.5" stroke="white" stroke-opacity="0.04"/>
</g>
<g filter="url(#filter1_bi_947_8119)">
<rect x="22" y="22" width="88" height="88" rx="44" fill="white" fill-opacity="0.02"/>
<path d="M57.25 62.5H80C80.4641 62.5 80.9092 62.6844 81.2374 63.0126C81.5656 63.3408 81.75 63.7859 81.75 64.25V81.75C81.75 82.2142 81.5656 82.6593 81.2374 82.9875C80.9092 83.3157 80.4641 83.5 80 83.5H52C51.5359 83.5 51.0908 83.3157 50.7626 82.9875C50.4344 82.6593 50.25 82.2142 50.25 81.75V64.25C50.25 63.7859 50.4344 63.3408 50.7626 63.0126C51.0908 62.6844 51.5359 62.5 52 62.5H53.75V60.75C53.749 57.9898 54.6803 55.3101 56.3928 53.1453C58.1054 50.9805 60.4989 49.4576 63.1853 48.8234C65.8717 48.1891 68.6936 48.4808 71.1935 49.651C73.6934 50.8213 75.7249 52.8015 76.9585 55.2708L73.8277 56.8353C72.9466 55.0713 71.4955 53.6567 69.7097 52.8207C67.9239 51.9847 65.9081 51.7764 63.989 52.2296C62.07 52.6828 60.3603 53.7708 59.1371 55.3174C57.9139 56.8639 57.249 58.7782 57.25 60.75V62.5ZM53.75 66V80H78.25V66H53.75ZM62.5 71.25H69.5V74.75H62.5V71.25Z" fill="url(#paint0_linear_947_8119)"/>
<rect x="22.5" y="22.5" width="87" height="87" rx="43.5" stroke="white" stroke-opacity="0.06"/>
</g>
<defs>
<filter id="filter0_bi_947_8119" x="-8" y="-8" width="148" height="148" filterUnits="userSpaceOnUse" color-interpolation-filters="sRGB">
<feFlood flood-opacity="0" result="BackgroundImageFix"/>
<feGaussianBlur in="BackgroundImageFix" stdDeviation="4"/>
<feComposite in2="SourceAlpha" operator="in" result="effect1_backgroundBlur_947_8119"/>
<feBlend mode="normal" in="SourceGraphic" in2="effect1_backgroundBlur_947_8119" result="shape"/>
<feColorMatrix in="SourceAlpha" type="matrix" values="0 0 0 0 0 0 0 0 0 0 0 0 0 0 0 0 0 0 127 0" result="hardAlpha"/>
<feOffset dy="2"/>
<feGaussianBlur stdDeviation="6"/>
<feComposite in2="hardAlpha" operator="arithmetic" k2="-1" k3="1"/>
<feColorMatrix type="matrix" values="0 0 0 0 1 0 0 0 0 1 0 0 0 0 1 0 0 0 0.06 0"/>
<feBlend mode="normal" in2="shape" result="effect2_innerShadow_947_8119"/>
</filter>
<filter id="filter1_bi_947_8119" x="14" y="14" width="104" height="104" filterUnits="userSpaceOnUse" color-interpolation-filters="sRGB">
<feFlood flood-opacity="0" result="BackgroundImageFix"/>
<feGaussianBlur in="BackgroundImageFix" stdDeviation="4"/>
<feComposite in2="SourceAlpha" operator="in" result="effect1_backgroundBlur_947_8119"/>
<feBlend mode="normal" in="SourceGraphic" in2="effect1_backgroundBlur_947_8119" result="shape"/>
<feColorMatrix in="SourceAlpha" type="matrix" values="0 0 0 0 0 0 0 0 0 0 0 0 0 0 0 0 0 0 127 0" result="hardAlpha"/>
<feOffset dy="2.03044"/>
<feGaussianBlur stdDeviation="6.09132"/>
<feComposite in2="hardAlpha" operator="arithmetic" k2="-1" k3="1"/>
<feColorMatrix type="matrix" values="0 0 0 0 1 0 0 0 0 1 0 0 0 0 1 0 0 0 0.1 0"/>
<feBlend mode="normal" in2="shape" result="effect2_innerShadow_947_8119"/>
</filter>
<linearGradient id="paint0_linear_947_8119" x1="66" y1="63.0808" x2="66" y2="95.8974" gradientUnits="userSpaceOnUse">
<stop stop-color="white"/>
<stop offset="1" stop-color="white" stop-opacity="0"/>
</linearGradient>
</defs>
</svg>
