<svg width="32" height="32" viewBox="0 0 32 32" fill="none" xmlns="http://www.w3.org/2000/svg">
<path d="M8.33334 7.3335C7.04467 7.3335 6 8.37817 6 9.66684C6 14.6948 7.47737 18.8084 10.3346 21.6656C13.1917 24.5228 17.3054 26.0002 22.3333 26.0002C23.622 26.0002 24.6667 24.9555 24.6667 23.6668V19.6668C24.6667 18.7349 23.9215 18.0339 23.0644 17.9793C22.0805 17.9166 20.8772 17.7184 20.0696 17.4153C19.2935 17.124 18.185 17.3635 17.7652 18.3429L17.3599 19.2888C16.2192 19.1305 15.1302 18.5609 14.2776 17.7387C13.4209 16.9125 12.8636 15.8917 12.7099 14.8892L13.8761 14.2228C14.7336 13.7328 14.893 12.7145 14.6105 11.9971C14.2942 11.1941 14.0857 9.95155 14.021 8.9358C13.9664 8.07864 13.2653 7.3335 12.3334 7.3335L8.33334 7.3335Z" fill="#51E0CF"/>
</svg>
