<svg width="56" height="58" viewBox="0 0 56 58" fill="none" xmlns="http://www.w3.org/2000/svg">
<path d="M28.0567 57.1121L52.3047 43.0841L52.3047 33.7321L44.222 38.4081L36.1394 43.0841L28.0567 47.7601L28.0567 57.1121Z" fill="#050A0A"/>
<path d="M3.80868 33.7321L3.80868 43.0841L28.0567 57.1121L28.0567 47.7601L11.8913 38.4081L3.80868 33.7321Z" fill="#050A0A"/>
<path d="M11.8913 19.7041L11.8913 29.0561L19.974 33.7321L28.0567 38.4081L28.0567 29.0561L11.8913 19.7041Z" fill="#050A0A"/>
<path d="M44.222 19.7041L28.0567 29.0561L28.0567 38.4081L44.222 29.0561L44.222 19.7041Z" fill="#050A0A"/>
<path d="M19.974 5.67605L19.974 15.0281L28.0567 19.7041L28.0567 10.3521L19.974 5.67605Z" fill="#050A0A"/>
<path d="M36.1394 5.67605L28.0567 10.3521L28.0567 19.7041L36.1394 15.0281L36.1394 5.67605Z" fill="#050A0A"/>
<path d="M28.0567 29.0561L11.8913 19.7041M28.0567 29.0561L44.222 19.7041M28.0567 29.0561L28.0567 38.4081M28.0567 10.3521L19.974 5.67605M28.0567 10.3521L36.1394 5.67605M28.0567 10.3521L28.0567 19.7041M11.8913 19.7041L19.974 15.0281M11.8913 19.7041L11.8913 29.0561M19.974 5.67605L28.0567 1.00005L36.1394 5.67605M19.974 5.67605L19.974 15.0281M19.974 15.0281L28.0567 19.7041M11.8913 29.0561L3.80868 33.7321M11.8913 29.0561L19.974 33.7321L28.0567 38.4081M3.80868 33.7321L3.80868 43.0841L28.0567 57.1121M3.80868 33.7321L11.8913 38.4081L28.0567 47.7601M28.0567 19.7041L36.1394 15.0281M28.0567 57.1121L52.3047 43.0841L52.3047 33.7321M28.0567 57.1121L28.0567 47.7601M52.3047 33.7321L44.222 38.4081L36.1394 43.0841L28.0567 47.7601M52.3047 33.7321L44.222 29.0561M36.1394 5.67605L36.1394 15.0281M36.1394 15.0281L44.222 19.7041M44.222 19.7041L44.222 29.0561M28.0567 38.4081L44.222 29.0561" stroke="#51E0CF" stroke-linejoin="round"/>
<path d="M3.80864 33.7321L3.80864 43.0841L28.0566 57.1121L28.0566 47.7601L11.8913 38.4081L3.80864 33.7321Z" fill="#050A0A"/>
<path d="M11.8913 19.7041L11.8913 29.0561L19.974 33.7321L28.0566 38.4081L28.0566 29.0561L11.8913 19.7041Z" fill="#050A0A"/>
<path d="M19.974 5.67605L19.974 15.0281L28.0566 19.7041L28.0566 10.3521L19.974 5.67605Z" fill="#050A0A"/>
<path d="M3.80864 33.7321L3.80864 43.0841L28.0566 57.1121L28.0566 47.7601L11.8913 38.4081L3.80864 33.7321Z" stroke="#51E0CF" stroke-width="0.448" stroke-linejoin="round"/>
<path d="M11.8913 19.7041L11.8913 29.0561L19.974 33.7321L28.0566 38.4081L28.0566 29.0561L11.8913 19.7041Z" stroke="#51E0CF" stroke-width="0.448" stroke-linejoin="round"/>
<path d="M19.974 5.67605L19.974 15.0281L28.0566 19.7041L28.0566 10.3521L19.974 5.67605Z" stroke="#51E0CF" stroke-width="0.448" stroke-linejoin="round"/>
<path d="M11.8913 29.056L3.80868 33.732L11.8913 38.408L28.0567 47.76L36.1394 43.084L44.222 38.408L52.3047 33.732L44.222 29.056L28.0567 38.408L19.974 33.732L11.8913 29.056Z" fill="#050A0A"/>
<path d="M19.974 15.028L11.8913 19.704L28.0567 29.056L44.222 19.704L36.1394 15.028L28.0567 19.704L19.974 15.028Z" fill="#050A0A"/>
<path d="M28.0567 1L19.974 5.676L28.0567 10.352L36.1394 5.676L28.0567 1Z" fill="#050A0A"/>
<path d="M11.8913 29.056L3.80868 33.732L11.8913 38.408L28.0567 47.76L36.1394 43.084L44.222 38.408L52.3047 33.732L44.222 29.056L28.0567 38.408L19.974 33.732L11.8913 29.056Z" stroke="#51E0CF" stroke-width="0.448" stroke-linejoin="round"/>
<path d="M19.974 15.028L11.8913 19.704L28.0567 29.056L44.222 19.704L36.1394 15.028L28.0567 19.704L19.974 15.028Z" stroke="#51E0CF" stroke-width="0.448" stroke-linejoin="round"/>
<path d="M28.0567 1L19.974 5.676L28.0567 10.352L36.1394 5.676L28.0567 1Z" stroke="#51E0CF" stroke-width="0.448" stroke-linejoin="round"/>
</svg>
