<svg width="25" height="24" viewBox="0 0 25 24" fill="none" xmlns="http://www.w3.org/2000/svg">
<path d="M7.11667 7.75H19L17 15.75H9.25L7.11667 7.75ZM7.11667 7.75L6.31667 4.75H3.5M17.5 19C17.5 19.5523 17.0523 20 16.5 20C15.9477 20 15.5 19.5523 15.5 19C15.5 18.4477 15.9477 18 16.5 18C17.0523 18 17.5 18.4477 17.5 19ZM10.5 19C10.5 19.5523 10.0523 20 9.5 20C8.94772 20 8.5 19.5523 8.5 19C8.5 18.4477 8.94772 18 9.5 18C10.0523 18 10.5 18.4477 10.5 19Z" stroke="#51E0CF" stroke-width="1.5" stroke-linecap="round" stroke-linejoin="round"/>
</svg>
