<svg width="28" height="28" viewBox="0 0 28 28" fill="none" xmlns="http://www.w3.org/2000/svg">
<path d="M5.5415 14.0001C5.5415 18.6715 9.32843 22.4584 13.9998 22.4584C18.6712 22.4584 22.4582 18.6715 22.4582 14.0001C22.4582 9.32867 18.6712 5.54175 13.9998 5.54175C9.32843 5.54175 5.5415 9.32867 5.5415 14.0001Z" fill="white" fill-opacity="0.12"/>
<path d="M4.7915 14.0001C4.7915 19.0857 8.91421 23.2084 13.9998 23.2084C19.0855 23.2084 23.2082 19.0857 23.2082 14.0001C23.2082 8.91446 19.0855 4.79175 13.9998 4.79175C8.91421 4.79175 4.7915 8.91446 4.7915 14.0001Z" stroke="white" stroke-opacity="0.12" stroke-width="1.5"/>
<path d="M16.0418 16.0416L11.9585 11.9583" stroke="#A3A3A3" stroke-width="1.5" stroke-linecap="round" stroke-linejoin="round"/>
<path d="M11.9585 16.0416L16.0418 11.9583" stroke="#A3A3A3" stroke-width="1.5" stroke-linecap="round" stroke-linejoin="round"/>
</svg>
