<svg width="25" height="24" viewBox="0 0 25 24" fill="none" xmlns="http://www.w3.org/2000/svg">
<path d="M19.0699 8.93012C19.5062 9.86234 19.75 10.9027 19.75 12C19.75 16.0041 16.5041 19.25 12.5 19.25C8.49593 19.25 5.25 16.0041 5.25 12C5.25 7.99594 8.49593 4.75 12.5 4.75C14.502 4.75 16.3145 5.56148 17.6265 6.87348" stroke="#51E0CF" stroke-width="1.5" stroke-linecap="round" stroke-linejoin="round"/>
<path d="M16.6937 11.3063C16.7307 11.5321 16.75 11.7638 16.75 12C16.75 14.3472 14.8472 16.25 12.5 16.25C10.1528 16.25 8.25 14.3472 8.25 12C8.25 9.65279 10.1528 7.75 12.5 7.75C13.6736 7.75 14.7361 8.2257 15.5052 8.9948" stroke="#51E0CF" stroke-width="1.5" stroke-linecap="round" stroke-linejoin="round"/>
<path d="M19.25 3V5.25H21.5" stroke="#51E0CF" stroke-width="1.5" stroke-linecap="round" stroke-linejoin="round"/>
<path d="M19.25 5.25L12 12.5" stroke="#51E0CF" stroke-width="1.5" stroke-linecap="round" stroke-linejoin="round"/>
</svg>
